<svg width="84" height="107" viewBox="0 0 84 107" fill="none"
  xmlns="http://www.w3.org/2000/svg">
  <path opacity="0.3" d="M83.75 76.1C83.75 81.9 82.6 86.8 80.3 90.8C78 94.7 74.95 97.85 71.15 100.25C67.35 102.65 63 104.4 58.1 105.5C53.3 106.5 48.35 107 43.25 107H0.950001V0.799999H43.25C47.35 0.799999 51.55 1.25 55.85 2.14999C60.15 2.94999 64.05 4.39999 67.55 6.5C71.05 8.5 73.9 11.25 76.1 14.75C78.3 18.25 79.4 22.7 79.4 28.1C79.4 34 77.8 38.9 74.6 42.8C71.4 46.6 67.2 49.35 62 51.05V51.35C65 51.85 67.8 52.8 70.4 54.2C73.1 55.5 75.4 57.2 77.3 59.3C79.3 61.4 80.85 63.85 81.95 66.65C83.15 69.45 83.75 72.6 83.75 76.1ZM54.65 31.55C54.65 27.95 53.25 25.35 50.45 23.75C47.75 22.05 43.7 21.2 38.3 21.2H25.7V43.1H39.5C44.3 43.1 48 42.15 50.6 40.25C53.3 38.25 54.65 35.35 54.65 31.55ZM58.1 73.7C58.1 69.3 56.45 66.25 53.15 64.55C49.85 62.85 45.45 62 39.95 62H25.7V86.3H40.1C42.1 86.3 44.15 86.15 46.25 85.85C48.45 85.45 50.4 84.8 52.1 83.9C53.9 83 55.35 81.75 56.45 80.15C57.55 78.45 58.1 76.3 58.1 73.7Z" fill="#B1D1E3"/>
</svg>
