<svg width="510" height="573" viewBox="0 0 510 573" fill="none" xmlns="http://www.w3.org/2000/svg">
<path fill-rule="evenodd" clip-rule="evenodd" d="M299.796 -3.05176e-05H514V573H445.026L444.973 572.958C444.189 572.986 443.405 573 442.62 573C428.59 573 414.563 568.582 402.324 559.75L331.707 508.794L330.101 507.679C311.2 495.032 286.44 495.403 267.881 508.794L197.263 559.75L195.586 560.927C171.353 577.408 140.592 577.015 116.672 559.75C92.1955 542.086 82.4171 512.204 91.7695 483.624L129.136 369.413L129.353 368.586C129.996 365.541 128.806 362.38 126.224 360.518L28.397 289.934L26.8237 288.764C3.5033 270.972 -5.64923 241.763 3.49463 213.807C12.8471 185.226 38.4362 166.759 68.7014 166.759H186.398L187.398 166.719C192.378 166.324 196.655 163.009 198.228 158.22L234.594 47.0485L235.213 45.2383C244.898 18.0764 269.486 0.493965 298.564 0.0103877L298.567 -3.05176e-05H299.796Z" fill="#1D35EE"/>
</svg>
