<svg width="1405" height="301" viewBox="0 0 1405 301" fill="none"
  xmlns="http://www.w3.org/2000/svg">
  <path opacity="0.2" d="M1325 230C1336.05 230 1345 221.046 1345 210C1345 198.954 1336.05 190 1325 190C1313.95 190 1305 198.954 1305 210C1305 221.046 1313.95 230 1325 230Z" fill="#66737F"/>
  <path opacity="0.1" fill-rule="evenodd" clip-rule="evenodd" d="M1331.26 210.477C1331.54 210.477 1331.77 210.252 1331.77 209.972V205.766C1331.77 205.485 1331.54 205.261 1331.26 205.261H1330.76V210.477H1331.26ZM1329.7 210.533H1327.07C1326.73 210.533 1326.45 210.421 1326.17 210.252C1327.01 209.804 1327.57 208.962 1327.57 207.953C1327.57 206.944 1327.01 206.046 1326.17 205.654C1326.45 205.485 1326.73 205.373 1327.07 205.373H1329.7V210.533ZM1325 209.467C1325.84 209.467 1326.56 208.738 1326.56 207.897C1326.56 207.056 1325.89 206.327 1325 206.327C1324.16 206.327 1323.43 207.056 1323.43 207.897C1323.43 208.738 1324.16 209.467 1325 209.467ZM1318.23 207.392V207.897V208.402H1322.42C1322.37 208.233 1322.37 208.065 1322.37 207.897C1322.37 207.729 1322.37 207.56 1322.42 207.392H1318.23Z" fill="white"/>
  <path fill-rule="evenodd" clip-rule="evenodd" d="M1329.7 204.252H1331.26C1332.16 204.252 1332.83 204.981 1332.77 205.766V209.916C1332.77 210.757 1332.05 211.486 1331.21 211.486H1329.98L1330.65 212.832C1330.82 213.169 1330.59 213.561 1330.2 213.561H1329.7V215.187C1329.7 216.029 1328.97 216.758 1328.13 216.758H1326.57V218.384C1326.57 218.665 1326.34 218.889 1326.06 218.889H1317.73C1317.56 218.889 1317.45 218.833 1317.33 218.721C1317.22 218.552 1317.22 218.44 1317.22 218.272L1318.23 212.271C1317.56 211.71 1317.22 210.701 1317.22 209.972V207.897C1317.22 204.139 1320.24 201.111 1323.99 201.111C1326.34 201.111 1328.47 202.345 1329.7 204.252ZM1328.41 204.252C1327.35 202.962 1325.73 202.177 1323.99 202.177C1321.36 202.177 1319.18 203.915 1318.51 206.383H1322.98C1323.43 205.71 1324.22 205.317 1325.05 205.317C1325.5 204.644 1326.29 204.252 1327.12 204.252H1328.41ZM1328.69 213.112C1328.69 212.832 1328.91 212.608 1329.19 212.608V212.664H1329.31L1328.8 211.598H1327.07C1326.29 211.598 1325.5 211.206 1325 210.533C1324.16 210.533 1323.38 210.084 1322.93 209.467H1318.23V209.972C1318.23 210.589 1318.57 211.374 1319.01 211.598C1319.24 211.71 1319.35 211.935 1319.29 212.159L1318.34 217.879H1325.61V216.758C1325.05 216.702 1324.5 216.421 1324.1 216.029L1321.59 213.449C1321.36 213.281 1321.36 212.944 1321.59 212.72C1321.75 212.496 1322.09 212.496 1322.31 212.72L1324.83 215.3C1325.17 215.58 1325.56 215.748 1325.95 215.748H1328.19C1328.47 215.748 1328.69 215.524 1328.69 215.244V213.112ZM1331.77 209.972C1331.77 210.252 1331.54 210.477 1331.26 210.477H1330.76V205.261H1331.26C1331.54 205.261 1331.77 205.485 1331.77 205.766V209.972ZM1327.07 210.533H1329.7V205.373H1327.07C1326.73 205.373 1326.45 205.485 1326.17 205.654C1327.01 206.046 1327.57 206.944 1327.57 207.953C1327.57 208.962 1327.01 209.804 1326.17 210.252C1326.45 210.421 1326.73 210.533 1327.07 210.533ZM1326.57 207.897C1326.57 208.738 1325.84 209.467 1325 209.467C1324.16 209.467 1323.43 208.738 1323.43 207.897C1323.43 207.056 1324.16 206.327 1325 206.327C1325.89 206.327 1326.57 207.056 1326.57 207.897ZM1318.23 207.897V207.392H1322.43C1322.37 207.56 1322.37 207.729 1322.37 207.897C1322.37 208.065 1322.37 208.233 1322.43 208.402H1318.23V207.897Z" fill="#1DC4D7"/>
  <path opacity="0.2" d="M24.5 57.9982C38.031 57.9982 49 47.253 49 33.9982C49 20.7433 38.031 9.99817 24.5 9.99817C10.969 9.99817 0 20.7433 0 33.9982C0 47.253 10.969 57.9982 24.5 57.9982Z" fill="#66737F"/>
  <path opacity="0.1" d="M15.4082 39.3742V28.8251L23.5662 31.8487V42.465L15.4082 39.3742Z" fill="white"/>
  <path fill-rule="evenodd" clip-rule="evenodd" d="M24.7422 23.3825L34.4903 26.6077C35.1817 26.6749 35.32 27.2125 35.3891 27.4812V40.0461C35.3891 40.382 35.1126 40.718 34.7669 40.8524L24.8113 44.6151C24.7422 44.6823 24.3965 44.6823 24.1891 44.6151L14.2336 40.8524C13.8187 40.718 13.6113 40.382 13.6113 40.0461V27.4812C13.6113 27.4812 13.6113 26.8765 14.3718 26.6077L24.12 23.3825C24.3274 23.3154 24.5348 23.3154 24.7422 23.3825ZM31.794 27.5484L24.4656 25.1295L17.1373 27.5484L24.4656 30.3033L31.794 27.5484ZM25.4335 42.465L33.5224 39.3741H33.5916V28.8251L25.4335 31.9159V42.465ZM15.4088 28.8251V39.3741L23.5669 42.465V31.8487L15.4088 28.8251Z" fill="#009BFF"/>
  <path fill-rule="evenodd" clip-rule="evenodd" d="M965.144 28.6028C965.144 30.0402 964.015 31.2055 962.621 31.2055C961.228 31.2055 960.098 30.0402 960.098 28.6028C960.098 27.1653 961.228 26.0001 962.621 26.0001C964.015 26.0001 965.144 27.1653 965.144 28.6028ZM1306.8 64.2029C1308.19 64.2029 1309.32 63.0376 1309.32 61.6002C1309.32 60.1628 1308.19 58.9975 1306.8 58.9975C1305.4 58.9975 1304.27 60.1628 1304.27 61.6002C1304.27 63.0376 1305.4 64.2029 1306.8 64.2029ZM130.572 169.5C130.572 169.776 130.349 170 130.072 170C129.796 170 129.572 169.776 129.572 169.5C129.572 169.224 129.796 169 130.072 169C130.349 169 130.572 169.224 130.572 169.5ZM920 204C920.553 204 921 203.552 921 203C921 202.448 920.553 202 920 202C919.448 202 919 202.448 919 203C919 203.552 919.448 204 920 204ZM51.5238 300.205C52.9177 300.205 54.0468 299.039 54.0468 297.602C54.0468 296.165 52.9177 294.999 51.5238 294.999C50.1299 294.999 49 296.165 49 297.602C49 299.039 50.1299 300.205 51.5238 300.205ZM1345.19 248.599C1345.19 250.036 1344.06 251.202 1342.67 251.202C1341.28 251.202 1340.15 250.036 1340.15 248.599C1340.15 247.162 1341.28 245.996 1342.67 245.996C1344.06 245.996 1345.19 247.162 1345.19 248.599ZM1184.64 200.202C1186.03 200.202 1187.16 199.037 1187.16 197.599C1187.16 196.162 1186.03 194.997 1184.64 194.997C1183.25 194.997 1182.12 196.162 1182.12 197.599C1182.12 199.037 1183.25 200.202 1184.64 200.202ZM983.952 170.205C985.345 170.205 986.474 169.039 986.474 167.602C986.474 166.165 985.345 164.999 983.952 164.999C982.558 164.999 981.428 166.165 981.428 167.602C981.428 169.039 982.558 170.205 983.952 170.205ZM842.986 164.602C842.986 166.039 841.857 167.204 840.463 167.204C839.069 167.204 837.939 166.039 837.939 164.602C837.939 163.164 839.069 161.999 840.463 161.999C841.857 161.999 842.986 163.164 842.986 164.602ZM361.5 229C362.329 229 363 228.328 363 227.5C363 226.672 362.329 226 361.5 226C360.672 226 360 226.672 360 227.5C360 228.328 360.672 229 361.5 229ZM620 48C620 48.5523 619.553 49 619 49C618.448 49 618 48.5523 618 48C618 47.4477 618.448 47 619 47C619.553 47 620 47.4477 620 48ZM1062.5 40C1062.78 40 1063 39.7762 1063 39.5C1063 39.2239 1062.78 39 1062.5 39C1062.22 39 1062 39.2239 1062 39.5C1062 39.7762 1062.22 40 1062.5 40Z" fill="#E2F3FF"/>
  <path opacity="0.2" d="M1372 66.998C1390.23 66.998 1405 52.2236 1405 33.9984C1405 15.7732 1390.23 0.998718 1372 0.998718C1353.77 0.998718 1339 15.7732 1339 33.9984C1339 52.2236 1353.77 66.998 1372 66.998Z" fill="#66737F"/>
  <path opacity="0.1" fill-rule="evenodd" clip-rule="evenodd" d="M1367.97 41.8816H1375.67L1379.7 35.19L1373.1 24.5568V30.8818C1374.38 31.3401 1375.3 32.5317 1375.3 33.9984C1375.3 35.8317 1373.74 37.2984 1371.91 37.2984C1369.98 37.2984 1368.52 35.8317 1368.52 33.9984C1368.52 32.6234 1369.43 31.3401 1370.72 30.8818V24.5568L1364.12 35.19L1367.97 41.8816ZM1373.01 33.9984C1373.01 33.3567 1372.55 32.8984 1371.91 32.8984C1371.27 32.8984 1370.81 33.3567 1370.81 33.9984C1370.81 34.6401 1371.27 35.0984 1371.91 35.0984C1372.55 35.0984 1373.01 34.6401 1373.01 33.9984Z" fill="white"/>
  <path d="M1381.73 34.4872L1372.78 19.9713C1372.32 19.2409 1371.32 19.2409 1370.86 19.9713L1361.92 34.4872C1361.73 34.8523 1361.73 35.3088 1361.92 35.5827L1365.66 42.2472C1364.66 42.795 1364.02 43.8905 1364.02 45.1687C1364.02 46.9946 1365.48 48.4553 1367.39 48.4553H1376.34C1378.17 48.4553 1379.72 46.9946 1379.72 45.1687C1379.72 43.9818 1378.99 42.8863 1377.98 42.2472L1381.82 35.674C1382 35.2175 1382 34.8523 1381.73 34.4872ZM1371.87 32.8439C1372.51 32.8439 1372.96 33.3003 1372.96 33.9394C1372.96 34.5785 1372.51 35.0349 1371.87 35.0349C1371.23 35.0349 1370.77 34.5785 1370.77 33.9394C1370.77 33.3003 1371.23 32.8439 1371.87 32.8439ZM1376.25 46.2642H1367.3C1366.66 46.2642 1366.21 45.8077 1366.21 45.1687C1366.21 44.5296 1366.66 44.0731 1367.3 44.0731H1376.25C1376.89 44.0731 1377.44 44.6209 1377.44 45.1687C1377.44 45.7164 1376.89 46.2642 1376.25 46.2642ZM1375.61 41.7907H1367.94L1364.11 35.1262L1370.68 24.536V30.8354C1369.4 31.2918 1368.49 32.57 1368.49 33.9394C1368.49 35.7653 1369.95 37.226 1371.87 37.226C1373.69 37.226 1375.25 35.7653 1375.25 33.9394C1375.25 32.4787 1374.33 31.2918 1373.05 30.8354V24.536L1379.63 35.1262L1375.61 41.7907Z" fill="#DF425A"/>
</svg>
