<svg width="652" height="427" viewBox="0 0 652 427" fill="none"
  xmlns="http://www.w3.org/2000/svg">
  <path opacity="0.5" fill-rule="evenodd" clip-rule="evenodd" d="M496.439 1.96372L476.062 78.0118L531.63 133.655L496.439 1.96372ZM123.936 127.664L48.0009 148.072L144.314 51.6169L123.937 127.665L123.936 127.664ZM577.01 75.1073L546.078 66.8444L599.678 52.4401L577.01 75.1073ZM287.998 343.762H331.998L265.998 381.762L287.998 343.762ZM651.949 112.762L615.315 122.578L605.486 159.162L651.949 112.762ZM621.019 305.214L635.229 382.55L546.866 278.762L621.021 305.214L621.019 305.214ZM489.904 381.788L459.005 331.802L459.006 331.801L400.191 333.525L489.904 381.788ZM55.9579 266.635L132.006 287.012L0.314453 322.203L55.9579 266.635ZM282.185 74.1656L321.022 63.776L331.457 24.9999L282.185 74.1656ZM178.071 392.631L199.299 426.772L137.936 393.916L178.071 392.631Z" fill="#C7C9CF"/>
  <path fill-rule="evenodd" clip-rule="evenodd" d="M496.439 0.963722L476.062 77.0118L531.63 132.655L496.439 0.963722ZM123.936 126.664L48.0009 147.072L144.314 50.6169L123.937 126.665L123.936 126.664ZM577.01 74.1073L546.078 65.8444L599.678 51.4401L577.01 74.1073ZM287.998 342.762H331.998L265.998 380.762L287.998 342.762ZM651.949 111.762L615.315 121.578L605.486 158.162L651.949 111.762ZM621.019 304.214L635.229 381.55L546.866 277.762L621.021 304.214L621.019 304.214ZM489.904 380.788L459.005 330.802L459.006 330.801L400.191 332.525L489.904 380.788ZM55.9579 265.635L132.006 286.012L0.314453 321.203L55.9579 265.635ZM282.185 73.1656L321.022 62.776L331.457 23.9999L282.185 73.1656ZM178.071 391.631L199.299 425.772L137.936 392.916L178.071 391.631Z" fill="#F6F7FB"/>
</svg>
