<svg width="99" height="113" viewBox="0 0 99 113" fill="none"
  xmlns="http://www.w3.org/2000/svg">
  <path opacity="0.3" d="M98.4 95.3C93.7 100.7 87.9 105 81 108.2C74.1 111.3 66.15 112.85 57.15 112.85C48.95 112.85 41.35 111.5 34.35 108.8C27.45 106.1 21.45 102.3 16.35 97.4C11.25 92.4 7.25 86.45 4.35 79.55C1.45 72.65 4.24683e-07 65.05 4.24683e-07 56.75C4.24683e-07 48.25 1.45 40.55 4.35 33.65C7.35 26.75 11.45 20.9 16.65 16.1C21.85 11.2 27.95 7.45 34.95 4.84999C41.95 2.24999 49.5 0.949991 57.6 0.949991C65.1 0.949991 72.45 2.29999 79.65 4.99999C86.95 7.6 92.85 11.45 97.35 16.55L79.95 33.95C77.55 30.65 74.4 28.2 70.5 26.6C66.6 25 62.6 24.2 58.5 24.2C54 24.2 49.85 25.05 46.05 26.75C42.35 28.35 39.15 30.6 36.45 33.5C33.75 36.4 31.65 39.85 30.15 43.85C28.65 47.75 27.9 52.05 27.9 56.75C27.9 61.55 28.65 65.95 30.15 69.95C31.65 73.95 33.7 77.4 36.3 80.3C39 83.1 42.2 85.3 45.9 86.9C49.6 88.5 53.65 89.3 58.05 89.3C63.15 89.3 67.6 88.3 71.4 86.3C75.2 84.3 78.25 81.7 80.55 78.5L98.4 95.3Z" fill="#B1D1E3"/>
</svg>
