<svg width="433" height="585" viewBox="0 0 433 585" fill="none"
  xmlns="http://www.w3.org/2000/svg">
  <path opacity="0.5" fill-rule="evenodd" clip-rule="evenodd" d="M104.085 265.1L36 304.465L104.088 343.809L172.152 304.465L240.228 265.1L172.151 225.733L104.085 265.1Z" fill="#E8F2F6"/>
  <path opacity="0.35" fill-rule="evenodd" clip-rule="evenodd" d="M104.085 265.096L172.151 225.73L172.152 225.731V147L104.085 265.096Z" fill="#E8F2F6"/>
  <path fill-rule="evenodd" clip-rule="evenodd" d="M172.153 147V225.731L240.229 265.096L172.153 147Z" fill="#E8F2F6"/>
  <path opacity="0.35" fill-rule="evenodd" clip-rule="evenodd" d="M172.141 304.462L104.075 343.828L104.074 343.827V422.558L172.141 304.462Z" fill="#E8F2F6"/>
  <path fill-rule="evenodd" clip-rule="evenodd" d="M104.076 422.558V343.827L36 304.462L104.076 422.558Z" fill="#E8F2F6"/>
  <path opacity="0.1" d="M135.928 70.2889C17.5401 70.2889 -78.4322 166.261 -78.4322 284.649C-78.4322 403.037 17.54 499.009 135.928 499.009C254.316 499.009 350.288 403.037 350.288 284.649C350.288 166.261 254.316 70.2889 135.928 70.2889Z" stroke="black" stroke-width="0.338338" stroke-miterlimit="10"/>
  <path opacity="0.1" d="M140.674 0.703466C-20.4609 0.703452 -151.086 131.329 -151.086 292.464C-151.086 453.598 -20.4609 584.224 140.674 584.224C301.808 584.224 432.434 453.598 432.434 292.464C432.434 131.329 301.809 0.70348 140.674 0.703466Z" stroke="black" stroke-width="0.339454" stroke-miterlimit="10"/>
</svg>
