<svg width="398" height="361" viewBox="0 0 398 361" fill="none"
  xmlns="http://www.w3.org/2000/svg">
  <path d="M75.2054 357.602C75.2054 359.039 74.0409 360.205 72.6032 360.205C71.1655 360.205 70 359.039 70 357.602C70 356.165 71.1655 354.999 72.6032 354.999C74.0409 354.999 75.2054 356.165 75.2054 357.602Z" fill="#FED5C6"/>
  <path d="M131.205 127.602C131.205 129.04 130.041 130.205 128.603 130.205C127.165 130.205 126 129.04 126 127.602C126 126.165 127.165 125 128.603 125C130.041 125 131.205 126.165 131.205 127.602Z" fill="#C6E8FF"/>
  <path d="M168.205 354.602C168.205 356.039 167.041 357.205 165.603 357.205C164.166 357.205 163 356.039 163 354.602C163 353.165 164.166 351.999 165.603 351.999C167.041 351.999 168.205 353.165 168.205 354.602Z" fill="#C6E8FF"/>
  <path d="M5.20543 263.602C5.20543 265.039 4.04089 266.205 2.60319 266.205C1.16548 266.205 0 265.039 0 263.602C0 262.165 1.16548 260.999 2.60319 260.999C4.04089 260.999 5.20543 262.165 5.20543 263.602Z" fill="#C6E8FF"/>
  <path d="M304.205 232.602C304.205 234.04 303.041 235.205 301.603 235.205C300.165 235.205 299 234.04 299 232.602C299 231.165 300.165 230 301.603 230C303.041 230 304.205 231.165 304.205 232.602Z" fill="#FED5C6"/>
  <path d="M360.205 2.60273C360.205 4.04018 359.041 5.20544 357.603 5.20544C356.165 5.20544 355 4.04018 355 2.60273C355 1.16528 356.165 1.71661e-05 357.603 1.71661e-05C359.041 1.71661e-05 360.205 1.16528 360.205 2.60273Z" fill="#C6E8FF"/>
  <path d="M397.205 229.602C397.205 231.04 396.041 232.205 394.603 232.205C393.166 232.205 392 231.04 392 229.602C392 228.165 393.166 227 394.603 227C396.041 227 397.205 228.165 397.205 229.602Z" fill="#C6E8FF"/>
  <path d="M234.205 138.602C234.205 140.04 233.041 141.205 231.603 141.205C230.165 141.205 229 140.04 229 138.602C229 137.165 230.165 136 231.603 136C233.041 136 234.205 137.165 234.205 138.602Z" fill="#C6E8FF"/>
  <ellipse opacity="0.1" cx="246" cy="284.5" rx="33" ry="33.5" fill="#DDF6F9"/>
  <path d="M256.004 274.917H253.406C251.405 271.744 247.932 269.721 244.062 269.721C237.935 269.721 232.972 274.785 232.972 280.979C232.972 281.346 232.972 284.075 232.972 284.442C232.972 285.694 233.54 287.349 234.604 288.291L232.983 298.273C232.943 298.524 233.013 298.78 233.175 298.974C233.337 299.168 233.575 299.28 233.825 299.28H247.474C247.945 299.28 248.327 298.892 248.327 298.414V295.758H250.886C252.297 295.758 253.445 294.592 253.445 293.16V290.504H254.298C254.931 290.504 255.345 289.827 255.061 289.251L253.973 287.04H256.004C257.416 287.04 258.564 285.875 258.564 284.442V277.515C258.564 276.082 257.416 274.917 256.004 274.917ZM244.062 271.453C246.877 271.453 249.532 272.75 251.299 274.917H249.18C247.831 274.917 246.568 275.569 245.768 276.649C245.768 276.649 245.768 276.649 245.768 276.649C244.375 276.649 243.137 277.33 242.358 278.381H235.033C236.15 274.387 239.774 271.453 244.062 271.453ZM248.327 280.979C248.327 282.411 247.179 283.576 245.768 283.576C244.357 283.576 243.209 282.411 243.209 280.979C243.209 279.546 244.357 278.381 245.768 278.381C247.179 278.381 248.327 279.546 248.327 280.979ZM234.678 280.979C234.678 280.687 234.692 280.392 234.717 280.107H241.588C241.532 280.387 241.503 280.682 241.503 280.979C241.503 281.275 241.532 281.565 241.588 281.844H234.678V280.979ZM252.592 288.772C252.121 288.772 251.739 289.16 251.739 289.638V293.16C251.739 293.637 251.357 294.026 250.886 294.026H247.183C246.499 294.026 245.856 293.756 245.372 293.266L241.257 289.03C240.926 288.69 240.386 288.686 240.05 289.022C239.715 289.358 239.711 289.906 240.042 290.246L244.16 294.484C244.161 294.485 244.162 294.487 244.164 294.488C244.836 295.171 245.694 295.597 246.621 295.72V297.548H234.83L236.373 288.047C236.431 287.692 236.265 287.337 235.958 287.157C235.264 286.749 234.678 285.506 234.678 284.442V283.576H242.358C243.137 284.627 244.375 285.308 245.768 285.308C245.768 285.308 245.768 285.308 245.768 285.308C246.568 286.388 247.831 287.04 249.18 287.04H252.065L252.918 288.772H252.592ZM253.445 285.308H249.18C248.645 285.308 248.132 285.136 247.707 284.833C249.087 284.115 250.033 282.657 250.033 280.979C250.033 279.3 249.087 277.842 247.707 277.124C248.132 276.821 248.645 276.649 249.18 276.649H253.445V285.308ZM256.858 284.442C256.858 284.92 256.475 285.308 256.004 285.308H255.151V276.649H256.004C256.475 276.649 256.858 277.037 256.858 277.515V284.442Z" fill="#1DC4D7"/>
  <circle opacity="0.1" cx="62.5" cy="178.5" r="22.5" fill="#E2F3FF"/>
  <path d="M71.3247 171.635L62.5113 168.604C62.3027 168.563 62.1342 168.563 61.9697 168.604L53.1523 171.639C52.4342 171.863 52.4543 172.436 52.4543 172.452V184.118C52.4543 184.455 52.6629 184.752 52.9958 184.878L61.9697 188.385C62.1302 188.454 62.4712 188.425 62.5554 188.385L71.5293 184.882C71.8622 184.756 72.0708 184.459 72.0708 184.122V172.452C72.0708 172.2 71.9184 171.713 71.3247 171.635ZM62.2626 170.254L68.8576 172.493L62.2626 175.032L55.6675 172.493L62.2626 170.254ZM54.083 183.529V173.679L61.4281 176.511V186.402L54.083 183.529ZM70.4421 183.529L63.097 186.402V176.536L70.4421 173.679V183.529Z" fill="#009BFF"/>
</svg>
