<svg width="223" height="282" viewBox="0 0 223 282" fill="none"
  xmlns="http://www.w3.org/2000/svg">
  <path d="M75.2054 278.602C75.2054 280.04 74.0409 281.205 72.6032 281.205C71.1655 281.205 70 280.04 70 278.602C70 277.165 71.1655 275.999 72.6032 275.999C74.0409 275.999 75.2054 277.165 75.2054 278.602Z" fill="#FED5C6"/>
  <path d="M131.205 48.6024C131.205 50.0398 130.041 51.2051 128.603 51.2051C127.165 51.2051 126 50.0398 126 48.6024C126 47.1649 127.165 45.9997 128.603 45.9997C130.041 45.9997 131.205 47.1649 131.205 48.6024Z" fill="#C6E8FF"/>
  <path d="M168.205 275.602C168.205 277.04 167.041 278.205 165.603 278.205C164.165 278.205 163 277.04 163 275.602C163 274.165 164.165 272.999 165.603 272.999C167.041 272.999 168.205 274.165 168.205 275.602Z" fill="#C6E8FF"/>
  <path d="M5.20543 184.602C5.20543 186.04 4.04089 187.205 2.60319 187.205C1.16548 187.205 0 186.04 0 184.602C0 183.165 1.16548 182 2.60319 182C4.04089 182 5.20543 183.165 5.20543 184.602Z" fill="#C6E8FF"/>
  <circle opacity="0.1" cx="70" cy="126" r="33" fill="#E2F3FF"/>
  <path d="M82.9428 115.931L70.0164 111.485C69.7105 111.426 69.4634 111.426 69.2222 111.485L56.2899 115.937C55.2368 116.265 55.2662 117.105 55.2662 117.129V134.239C55.2662 134.734 55.5721 135.169 56.0605 135.354L69.2222 140.497C69.4575 140.598 69.9576 140.557 70.0812 140.497L83.2428 135.36C83.7312 135.175 84.0371 134.74 84.0371 134.245V117.129C84.0371 116.76 83.8135 116.045 82.9428 115.931ZM69.6517 113.905L79.3243 117.189L69.6517 120.914L59.979 117.189L69.6517 113.905ZM57.6549 133.375V118.929L68.4279 123.083V137.589L57.6549 133.375ZM81.6484 133.375L70.8755 137.589V123.119L81.6484 118.929V133.375Z" fill="#009BFF"/>
  <ellipse cx="84.2656" cy="15.0835" rx="15.2656" ry="15.0838" fill="#F1C0CA" fill-opacity="0.1"/>
  <path d="M88.8176 15.325L84.6535 8.67012C84.4505 8.34532 83.974 8.3515 83.775 8.67012L79.6108 15.325C79.5119 15.4831 79.5081 15.6817 79.6008 15.8434L81.3458 18.8849C80.8805 19.1488 80.5663 19.6438 80.5663 20.2102C80.5663 21.0527 81.261 21.7381 82.1149 21.7381H86.279C87.1348 21.7381 87.8621 21.0558 87.8621 20.2102C87.8621 19.6475 87.5406 19.151 87.0549 18.8825L88.8257 15.8465C88.9203 15.6844 88.9172 15.4841 88.8176 15.325ZM84.2142 14.5739C84.4988 14.5739 84.7304 14.8024 84.7304 15.0832C84.7304 15.364 84.4988 15.5925 84.2142 15.5925C83.9295 15.5925 83.698 15.364 83.698 15.0832C83.698 14.8024 83.9295 14.5739 84.2142 14.5739ZM86.279 20.7195H82.1149C81.8303 20.7195 81.5987 20.491 81.5987 20.2102C81.5987 19.9296 81.8298 19.7014 82.1141 19.7009C82.1145 19.7009 82.1149 19.701 82.1154 19.701C82.1163 19.701 82.1172 19.7009 82.1181 19.7009H86.279C86.5724 19.7009 86.8297 19.9389 86.8297 20.2102C86.8297 20.4815 86.5724 20.7195 86.279 20.7195ZM85.9805 18.6823H82.4159L80.6497 15.6038L83.698 10.7321V13.6429C83.0971 13.8531 82.6655 14.4193 82.6655 15.0832C82.6655 15.9257 83.3603 16.6111 84.2142 16.6111C85.0681 16.6111 85.7628 15.9257 85.7628 15.0832C85.7628 14.4193 85.3312 13.8531 84.7304 13.6429V10.7321L87.7774 15.6017L85.9805 18.6823Z" fill="#DF425A"/>
  <ellipse opacity="0.1" cx="201.916" cy="180.168" rx="20.9162" ry="21.1682" fill="#DDF6F9"/>
  <path d="M208.257 174.112H206.61C205.342 172.107 203.141 170.829 200.688 170.829C196.804 170.829 193.659 174.029 193.659 177.943C193.659 178.175 193.659 179.899 193.659 180.131C193.659 180.923 194.019 181.968 194.693 182.563L193.666 188.871C193.64 189.029 193.684 189.191 193.787 189.314C193.89 189.436 194.041 189.507 194.199 189.507H202.85C203.149 189.507 203.391 189.262 203.391 188.96V187.282H205.013C205.908 187.282 206.635 186.545 206.635 185.64V183.962H207.176C207.577 183.962 207.839 183.534 207.659 183.17L206.969 181.773H208.257C209.152 181.773 209.879 181.037 209.879 180.131V175.754C209.879 174.849 209.152 174.112 208.257 174.112ZM200.688 171.923C202.472 171.923 204.155 172.743 205.275 174.112H203.932C203.076 174.112 202.276 174.524 201.769 175.207C201.769 175.207 201.769 175.207 201.769 175.207C200.886 175.207 200.101 175.637 199.608 176.301H194.965C195.673 173.777 197.97 171.923 200.688 171.923ZM203.391 177.943C203.391 178.848 202.663 179.584 201.769 179.584C200.875 179.584 200.147 178.848 200.147 177.943C200.147 177.037 200.875 176.301 201.769 176.301C202.663 176.301 203.391 177.037 203.391 177.943ZM194.74 177.943C194.74 177.758 194.749 177.572 194.765 177.392H199.12C199.084 177.569 199.066 177.755 199.066 177.943C199.066 178.13 199.084 178.313 199.12 178.49H194.74V177.943ZM206.094 182.867C205.796 182.867 205.554 183.112 205.554 183.415V185.64C205.554 185.942 205.311 186.187 205.013 186.187H202.666C202.233 186.187 201.825 186.017 201.518 185.707L198.91 183.03C198.7 182.815 198.358 182.813 198.145 183.025C197.933 183.237 197.93 183.584 198.14 183.799L200.75 186.477C200.751 186.477 200.751 186.478 200.752 186.479C201.179 186.911 201.722 187.18 202.31 187.257V188.412H194.836L195.814 182.409C195.851 182.185 195.746 181.961 195.551 181.847C195.112 181.589 194.74 180.804 194.74 180.131V179.584H199.608C200.101 180.248 200.886 180.679 201.769 180.679C201.769 180.679 201.769 180.679 201.769 180.679C202.276 181.361 203.076 181.773 203.932 181.773H205.76L206.301 182.867H206.094ZM206.635 180.679H203.932C203.592 180.679 203.268 180.57 202.998 180.378C203.872 179.924 204.472 179.003 204.472 177.943C204.472 176.882 203.872 175.961 202.998 175.507C203.268 175.315 203.592 175.207 203.932 175.207H206.635V180.679ZM208.798 180.131C208.798 180.433 208.555 180.679 208.257 180.679H207.717V175.207H208.257C208.555 175.207 208.798 175.452 208.798 175.754V180.131Z" fill="#1DC4D7"/>
</svg>
