<svg width="101" height="101" viewBox="0 0 101 101" fill="none"
  xmlns="http://www.w3.org/2000/svg">
  <g opacity="0.15">
    <circle cx="1.73313" cy="1.73313" r="1.73313" fill="white"/>
    <circle cx="1.73313" cy="57.1225" r="1.73313" fill="white"/>
    <circle cx="1.73313" cy="29.428" r="1.73313" fill="white"/>
    <circle cx="1.73313" cy="84.818" r="1.73313" fill="white"/>
    <circle cx="1.73313" cy="15.5805" r="1.73313" fill="white"/>
    <circle cx="1.73313" cy="70.9706" r="1.73313" fill="white"/>
    <circle cx="1.73313" cy="43.2752" r="1.73313" fill="white"/>
    <circle cx="1.73313" cy="98.6653" r="1.73313" fill="white"/>
    <circle cx="57.1199" cy="1.73325" r="1.73313" fill="white"/>
    <circle cx="57.1199" cy="57.1225" r="1.73313" fill="white"/>
    <circle cx="57.1199" cy="29.428" r="1.73313" fill="white"/>
    <circle cx="57.1199" cy="84.818" r="1.73313" fill="white"/>
    <circle cx="57.1199" cy="15.5805" r="1.73313" fill="white"/>
    <circle cx="57.1199" cy="70.9699" r="1.73313" fill="white"/>
    <circle cx="57.1199" cy="43.2752" r="1.73313" fill="white"/>
    <circle cx="57.1199" cy="98.6653" r="1.73313" fill="white"/>
    <circle cx="29.4265" cy="1.73325" r="1.73313" fill="white"/>
    <circle cx="29.4265" cy="57.1225" r="1.73313" fill="white"/>
    <circle cx="29.4265" cy="29.428" r="1.73313" fill="white"/>
    <circle cx="29.4265" cy="84.818" r="1.73313" fill="white"/>
    <circle cx="29.4265" cy="15.5805" r="1.73313" fill="white"/>
    <circle cx="29.4265" cy="70.9699" r="1.73313" fill="white"/>
    <circle cx="29.4265" cy="43.2752" r="1.73313" fill="white"/>
    <circle cx="29.4265" cy="98.6653" r="1.73313" fill="white"/>
    <circle cx="84.8132" cy="1.73325" r="1.73313" fill="white"/>
    <circle cx="84.8132" cy="57.1225" r="1.73313" fill="white"/>
    <circle cx="84.8132" cy="29.428" r="1.73313" fill="white"/>
    <circle cx="84.8132" cy="84.818" r="1.73313" fill="white"/>
    <circle cx="84.8132" cy="15.5805" r="1.73313" fill="white"/>
    <circle cx="84.8132" cy="70.9699" r="1.73313" fill="white"/>
    <circle cx="84.8132" cy="43.2752" r="1.73313" fill="white"/>
    <circle cx="84.8132" cy="98.6653" r="1.73313" fill="white"/>
    <circle cx="15.5808" cy="1.73325" r="1.73313" fill="white"/>
    <circle cx="15.5808" cy="57.1225" r="1.73313" fill="white"/>
    <circle cx="15.5808" cy="29.428" r="1.73313" fill="white"/>
    <circle cx="15.5808" cy="84.818" r="1.73313" fill="white"/>
    <circle cx="15.5808" cy="15.5805" r="1.73313" fill="white"/>
    <circle cx="15.5808" cy="70.9699" r="1.73313" fill="white"/>
    <circle cx="15.5808" cy="43.2752" r="1.73313" fill="white"/>
    <circle cx="15.5808" cy="98.6653" r="1.73313" fill="white"/>
    <circle cx="70.9675" cy="1.73325" r="1.73313" fill="white"/>
    <circle cx="70.9675" cy="57.1225" r="1.73313" fill="white"/>
    <circle cx="70.9675" cy="29.428" r="1.73313" fill="white"/>
    <circle cx="70.9675" cy="84.818" r="1.73313" fill="white"/>
    <circle cx="70.9675" cy="15.5805" r="1.73313" fill="white"/>
    <circle cx="70.9675" cy="70.9699" r="1.73313" fill="white"/>
    <circle cx="70.9675" cy="43.2752" r="1.73313" fill="white"/>
    <circle cx="70.9675" cy="98.6653" r="1.73313" fill="white"/>
    <circle cx="43.2741" cy="1.73325" r="1.73313" fill="white"/>
    <circle cx="43.2741" cy="57.1225" r="1.73313" fill="white"/>
    <circle cx="43.2741" cy="29.428" r="1.73313" fill="white"/>
    <circle cx="43.2741" cy="84.818" r="1.73313" fill="white"/>
    <circle cx="43.2741" cy="15.5805" r="1.73313" fill="white"/>
    <circle cx="43.2741" cy="70.9699" r="1.73313" fill="white"/>
    <circle cx="43.2741" cy="43.2752" r="1.73313" fill="white"/>
    <circle cx="43.2741" cy="98.6653" r="1.73313" fill="white"/>
    <circle cx="98.6609" cy="1.73325" r="1.73313" fill="white"/>
    <circle cx="98.6609" cy="57.1225" r="1.73313" fill="white"/>
    <circle cx="98.6609" cy="29.428" r="1.73313" fill="white"/>
    <circle cx="98.6609" cy="84.818" r="1.73313" fill="white"/>
    <circle cx="98.6609" cy="15.5805" r="1.73313" fill="white"/>
    <circle cx="98.6609" cy="70.9699" r="1.73313" fill="white"/>
    <circle cx="98.6609" cy="43.2752" r="1.73313" fill="white"/>
    <circle cx="98.6609" cy="98.6653" r="1.73313" fill="white"/>
  </g>
</svg>
