<svg width="1023" height="1010" viewBox="0 0 1023 1010" fill="none" xmlns="http://www.w3.org/2000/svg">
<path opacity="0.1" d="M508.009 186.753C332.976 186.753 191.083 328.675 191.083 503.744C191.083 678.813 332.976 820.735 508.009 820.735C683.042 820.735 824.934 678.814 824.934 503.744C824.934 328.675 683.042 186.753 508.009 186.753Z" stroke="black" stroke-width="0.5" stroke-miterlimit="10"/>
<g opacity="0.75">
<path opacity="0.8" d="M405.444 202.826C405.07 202.826 404.768 203.129 404.768 203.503C404.768 203.876 405.07 204.179 405.444 204.179C405.818 204.179 406.12 203.876 406.12 203.503C406.12 203.129 405.818 202.826 405.444 202.826Z" fill="#009BFF"/>
<g opacity="0.8">
<g opacity="0.8">
<path opacity="0.8" d="M265.14 708.876C264.023 708.876 263.117 707.97 263.117 706.852C263.117 705.734 264.023 704.828 265.14 704.828C266.258 704.828 267.164 705.734 267.164 706.852C267.164 707.97 266.258 708.876 265.14 708.876Z" fill="#009BFF"/>
<path opacity="0.8" d="M643.195 214.399C641.986 214.399 641.005 215.379 641.005 216.588C641.005 217.798 641.986 218.778 643.195 218.778C644.404 218.778 645.384 217.798 645.384 216.588C645.384 215.379 644.404 214.399 643.195 214.399Z" fill="#1DC4D7"/>
<path opacity="0.8" d="M821.858 548.896C820.608 548.896 819.594 549.91 819.594 551.16C819.594 552.411 820.608 553.424 821.858 553.424C823.108 553.424 824.121 552.411 824.121 551.16C824.121 549.91 823.108 548.896 821.858 548.896Z" fill="#FA7548"/>
<path opacity="0.8" d="M217.996 373.843C216.626 373.843 215.515 374.954 215.515 376.324C215.515 377.695 216.626 378.806 217.996 378.806C219.366 378.806 220.477 377.695 220.477 376.324C220.477 374.954 219.366 373.843 217.996 373.843Z" fill="#009BFF"/>
<path opacity="0.8" d="M197.017 441.552C196.033 441.552 195.236 442.349 195.236 443.333C195.236 444.316 196.033 445.114 197.017 445.114C198 445.114 198.798 444.316 198.798 443.333C198.798 442.349 198 441.552 197.017 441.552Z" fill="#FEB12B"/>
<path opacity="0.8" d="M191.604 489.833C190.371 489.833 189.372 490.832 189.372 492.065C189.372 493.298 190.371 494.298 191.604 494.298C192.837 494.298 193.836 493.298 193.836 492.065C193.836 490.832 192.837 489.833 191.604 489.833Z" fill="#009BFF"/>
<path opacity="0.8" d="M207.395 601.941C206.523 601.941 205.816 602.648 205.816 603.52C205.816 604.392 206.523 605.099 207.395 605.099C208.267 605.099 208.974 604.392 208.974 603.52C208.974 602.648 208.267 601.941 207.395 601.941Z" fill="#009BFF"/>
<path opacity="0.8" d="M210.102 609.611C209.23 609.611 208.523 610.319 208.523 611.191C208.523 612.063 209.23 612.77 210.102 612.77C210.974 612.77 211.681 612.063 211.681 611.191C211.681 610.319 210.974 609.611 210.102 609.611Z" fill="#1DC4D7"/>
<path opacity="0.8" d="M202.882 586.598C202.01 586.598 201.303 587.305 201.303 588.178C201.303 589.05 202.01 589.757 202.882 589.757C203.754 589.757 204.461 589.05 204.461 588.178C204.461 587.305 203.754 586.598 202.882 586.598Z" fill="#FA7548"/>
<path opacity="0.8" d="M693.949 758.97C693.077 758.97 692.37 759.677 692.37 760.549C692.37 761.421 693.077 762.128 693.949 762.128C694.821 762.128 695.528 761.421 695.528 760.549C695.528 759.677 694.821 758.97 693.949 758.97Z" fill="#FA7548"/>
<path opacity="0.8" d="M669.135 775.214C668.263 775.214 667.556 775.921 667.556 776.793C667.556 777.665 668.263 778.372 669.135 778.372C670.007 778.372 670.714 777.665 670.714 776.793C670.714 775.921 670.007 775.214 669.135 775.214Z" fill="#FA7548"/>
<path opacity="0.8" d="M191.604 515.269C190.962 515.269 190.441 515.789 190.441 516.432C190.441 517.074 190.962 517.595 191.604 517.595C192.246 517.595 192.767 517.074 192.767 516.432C192.767 515.789 192.246 515.269 191.604 515.269Z" fill="#1DC4D7"/>
<path opacity="0.8" d="M206.718 404.752C205.846 404.752 205.139 405.459 205.139 406.331C205.139 407.204 205.846 407.911 206.718 407.911C207.59 407.911 208.297 407.204 208.297 406.331C208.297 405.459 207.59 404.752 206.718 404.752Z" fill="#009BFF"/>
<path opacity="0.8" d="M239.65 333.683C238.778 333.683 238.071 334.39 238.071 335.262C238.071 336.134 238.778 336.842 239.65 336.842C240.522 336.842 241.229 336.134 241.229 335.262C241.229 334.39 240.522 333.683 239.65 333.683Z" fill="#009BFF"/>
<path opacity="0.8" d="M233.786 343.384C232.914 343.384 232.207 344.091 232.207 344.963C232.207 345.836 232.914 346.543 233.786 346.543C234.658 346.543 235.365 345.836 235.365 344.963C235.365 344.091 234.658 343.384 233.786 343.384Z" fill="#009BFF"/>
<path opacity="0.8" d="M231.756 346.994C230.884 346.994 230.177 347.701 230.177 348.573C230.177 349.446 230.884 350.153 231.756 350.153C232.628 350.153 233.335 349.446 233.335 348.573C233.335 347.701 232.628 346.994 231.756 346.994Z" fill="#009BFF"/>
<path opacity="0.8" d="M228.147 353.312C227.275 353.312 226.568 354.019 226.568 354.891C226.568 355.763 227.275 356.47 228.147 356.47C229.019 356.47 229.726 355.763 229.726 354.891C229.726 354.019 229.019 353.312 228.147 353.312Z" fill="#FA7548"/>
<path opacity="0.8" d="M252.96 314.28C252.088 314.28 251.381 314.987 251.381 315.859C251.381 316.731 252.088 317.438 252.96 317.438C253.832 317.438 254.539 316.731 254.539 315.859C254.539 314.987 253.832 314.28 252.96 314.28Z" fill="#009BFF"/>
<path opacity="0.8" d="M212.131 388.733C211.259 388.733 210.552 389.44 210.552 390.312C210.552 391.184 211.259 391.891 212.131 391.891C213.003 391.891 213.709 391.184 213.709 390.312C213.709 389.44 213.003 388.733 212.131 388.733Z" fill="#1DC4D7"/>
<path opacity="0.8" d="M244.161 326.915C243.289 326.915 242.582 327.622 242.582 328.494C242.582 329.366 243.289 330.073 244.161 330.073C245.033 330.073 245.74 329.366 245.74 328.494C245.74 327.622 245.033 326.915 244.161 326.915Z" fill="#FEB12B"/>
<path opacity="0.8" d="M222.507 365.496C222.133 365.496 221.831 365.798 221.831 366.172C221.831 366.546 222.133 366.848 222.507 366.848C222.881 366.848 223.183 366.546 223.183 366.172C223.183 365.798 222.881 365.496 222.507 365.496Z" fill="#009BFF"/>
<path opacity="0.8" d="M268.975 294.878C268.601 294.878 268.298 295.181 268.298 295.554C268.298 295.928 268.601 296.231 268.975 296.231C269.348 296.231 269.651 295.928 269.651 295.554C269.651 295.181 269.348 294.878 268.975 294.878Z" fill="#009BFF"/>
<path opacity="0.8" d="M272.133 291.268C271.759 291.268 271.456 291.571 271.456 291.945C271.456 292.318 271.759 292.621 272.133 292.621C272.506 292.621 272.809 292.318 272.809 291.945C272.809 291.571 272.506 291.268 272.133 291.268Z" fill="#009BFF"/>
<path opacity="0.8" d="M290.63 272.542C290.256 272.542 289.953 272.845 289.953 273.218C289.953 273.592 290.256 273.895 290.63 273.895C291.003 273.895 291.306 273.592 291.306 273.218C291.306 272.845 291.003 272.542 290.63 272.542Z" fill="#009BFF"/>
<path opacity="0.8" d="M208.522 399.563C208.149 399.563 207.846 399.866 207.846 400.24C207.846 400.613 208.149 400.916 208.522 400.916C208.896 400.916 209.199 400.613 209.199 400.24C209.199 399.866 208.896 399.563 208.522 399.563Z" fill="#009BFF"/>
<path opacity="0.8" d="M218.222 629.692C217.35 629.692 216.643 630.399 216.643 631.271C216.643 632.143 217.35 632.85 218.222 632.85C219.094 632.85 219.801 632.143 219.801 631.271C219.801 630.399 219.094 629.692 218.222 629.692Z" fill="#009BFF"/>
<path opacity="0.8" d="M468.377 814.471C466.384 814.471 464.768 816.088 464.768 818.081C464.768 820.075 466.384 821.691 468.377 821.691C470.37 821.691 471.986 820.075 471.986 818.081C471.986 816.088 470.37 814.471 468.377 814.471Z" fill="#FEB12B"/>
<path opacity="0.8" d="M494.318 816.502C492.325 816.502 490.709 818.118 490.709 820.112C490.709 822.105 492.325 823.722 494.318 823.722C496.311 823.722 497.927 822.105 497.927 820.112C497.927 818.118 496.311 816.502 494.318 816.502Z" fill="#009BFF"/>
<path opacity="0.8" d="M590.412 808.153C589.539 808.153 588.833 808.861 588.833 809.733C588.833 810.605 589.539 811.312 590.412 811.312C591.284 811.312 591.99 810.605 591.99 809.733C591.99 808.861 591.284 808.153 590.412 808.153Z" fill="#FA7548"/>
<path opacity="0.8" d="M564.696 814.02C563.824 814.02 563.117 814.727 563.117 815.599C563.117 816.472 563.824 817.179 564.696 817.179C565.568 817.179 566.275 816.472 566.275 815.599C566.275 814.727 565.568 814.02 564.696 814.02Z" fill="#009BFF"/>
<path opacity="0.8" d="M302.585 742.459C301.441 742.459 300.514 743.386 300.514 744.53C300.514 745.674 301.441 746.602 302.585 746.602C303.729 746.602 304.656 745.674 304.656 744.53C304.656 743.386 303.729 742.459 302.585 742.459Z" fill="#6B00FF"/>
<path opacity="0.8" d="M378.375 791.007C377.378 791.007 376.571 791.815 376.571 792.812C376.571 793.809 377.378 794.617 378.375 794.617C379.372 794.617 380.18 793.809 380.18 792.812C380.18 791.815 379.372 791.007 378.375 791.007Z" fill="#FEB12B"/>
<path opacity="0.8" d="M323.112 758.831C322.039 758.831 321.169 759.701 321.169 760.774C321.169 761.848 322.039 762.718 323.112 762.718C324.185 762.718 325.055 761.848 325.055 760.774C325.055 759.701 324.185 758.831 323.112 758.831Z" fill="#DF425A"/>
<path opacity="0.8" d="M424.843 807.929C423.971 807.929 423.264 808.636 423.264 809.508C423.264 810.38 423.971 811.087 424.843 811.087C425.715 811.087 426.422 810.38 426.422 809.508C426.422 808.636 425.715 807.929 424.843 807.929Z" fill="#009BFF"/>
<path opacity="0.8" d="M432.737 809.959C431.865 809.959 431.158 810.666 431.158 811.539C431.158 812.411 431.865 813.118 432.737 813.118C433.609 813.118 434.316 812.411 434.316 811.539C434.316 810.666 433.609 809.959 432.737 809.959Z" fill="#1DC4D7"/>
<path opacity="0.8" d="M409.503 803.19C408.631 803.19 407.924 803.897 407.924 804.769C407.924 805.642 408.631 806.349 409.503 806.349C410.375 806.349 411.082 805.642 411.082 804.769C411.082 803.897 410.375 803.19 409.503 803.19Z" fill="#FA7548"/>
<path opacity="0.8" d="M384.692 793.941C383.82 793.941 383.113 794.648 383.113 795.52C383.113 796.392 383.82 797.099 384.692 797.099C385.564 797.099 386.271 796.392 386.271 795.52C386.271 794.648 385.564 793.941 384.692 793.941Z" fill="#009BFF"/>
<path opacity="0.8" d="M343.637 772.732C342.765 772.732 342.058 773.439 342.058 774.312C342.058 775.184 342.765 775.891 343.637 775.891C344.509 775.891 345.216 775.184 345.216 774.312C345.216 773.439 344.509 772.732 343.637 772.732Z" fill="#1DC4D7"/>
<path opacity="0.8" d="M453.941 814.245C453.069 814.245 452.362 814.953 452.362 815.825C452.362 816.697 453.069 817.404 453.941 817.404C454.813 817.404 455.52 816.697 455.52 815.825C455.52 814.953 454.813 814.245 453.941 814.245Z" fill="#009BFF"/>
</g>
</g>
</g>
<path opacity="0.1" d="M514.024 82.8513C275.791 82.8513 82.6652 276.017 82.6652 514.3C82.6652 752.582 275.791 945.748 514.024 945.748C752.257 945.749 945.383 752.582 945.383 514.3C945.383 276.017 752.257 82.8514 514.024 82.8513Z" stroke="black" stroke-width="0.50165" stroke-miterlimit="10"/>
<g opacity="0.5">
<path opacity="0.8" d="M872.35 277.89C872.574 278.951 873.616 279.629 874.676 279.405C875.737 279.181 876.415 278.139 876.191 277.078C875.967 276.017 874.925 275.338 873.864 275.563C872.804 275.787 872.125 276.829 872.35 277.89Z" fill="#009BFF"/>
<path opacity="0.8" d="M80.7777 535.345C80.9795 536.299 81.917 536.91 82.8717 536.708C83.8264 536.506 84.4368 535.569 84.235 534.614C84.0332 533.659 83.0957 533.048 82.141 533.25C81.1863 533.452 80.5759 534.39 80.7777 535.345Z" fill="#FA7548"/>
<path opacity="0.8" d="M80.7257 495.215C80.9275 496.17 81.8651 496.781 82.8199 496.579C83.7746 496.377 84.385 495.439 84.1832 494.484C83.9815 493.529 83.0439 492.919 82.0891 493.121C81.1343 493.323 80.5239 494.26 80.7257 495.215Z" fill="#FA7548"/>
<path opacity="0.8" d="M846.862 242.736C847.064 243.691 848.001 244.301 848.956 244.099C849.911 243.897 850.521 242.96 850.319 242.005C850.118 241.05 849.18 240.439 848.225 240.641C847.271 240.843 846.66 241.781 846.862 242.736Z" fill="#009BFF"/>
<path opacity="0.8" d="M903.101 333.203C903.302 334.158 904.24 334.769 905.195 334.567C906.149 334.365 906.76 333.427 906.558 332.472C906.356 331.517 905.419 330.907 904.464 331.109C903.509 331.311 902.899 332.248 903.101 333.203Z" fill="#009BFF"/>
<path opacity="0.8" d="M915.55 362.683C915.752 363.638 916.689 364.249 917.644 364.047C918.599 363.845 919.209 362.907 919.007 361.952C918.806 360.997 917.868 360.387 916.913 360.589C915.959 360.79 915.348 361.728 915.55 362.683Z" fill="#009BFF"/>
<path opacity="0.8" d="M860.728 260.878C860.93 261.832 861.867 262.443 862.822 262.241C863.777 262.039 864.387 261.102 864.185 260.147C863.984 259.192 863.046 258.581 862.091 258.783C861.137 258.985 860.526 259.923 860.728 260.878Z" fill="#1DC4D7"/>
<path opacity="0.8" d="M907.639 343.282C907.84 344.237 908.778 344.848 909.733 344.646C910.687 344.444 911.298 343.506 911.096 342.551C910.894 341.596 909.957 340.986 909.002 341.188C908.047 341.39 907.437 342.327 907.639 343.282Z" fill="#FEB12B"/>
<path opacity="0.8" d="M927.539 395.672C927.629 396.096 928.045 396.367 928.469 396.277C928.893 396.188 929.164 395.771 929.074 395.347C928.985 394.923 928.568 394.652 928.144 394.742C927.72 394.831 927.449 395.248 927.539 395.672Z" fill="#009BFF"/>
<path opacity="0.8" d="M929.304 402.123C929.394 402.547 929.81 402.818 930.234 402.729C930.658 402.639 930.929 402.223 930.84 401.799C930.75 401.375 930.334 401.104 929.91 401.193C929.486 401.283 929.215 401.699 929.304 402.123Z" fill="#009BFF"/>
<path opacity="0.8" d="M937.077 437.008C937.167 437.432 937.583 437.703 938.007 437.614C938.431 437.524 938.702 437.108 938.612 436.684C938.523 436.26 938.106 435.989 937.682 436.078C937.259 436.168 936.987 436.584 937.077 437.008Z" fill="#009BFF"/>
<path opacity="0.8" d="M853.055 249.253C853.145 249.677 853.561 249.948 853.985 249.858C854.409 249.769 854.68 249.352 854.59 248.928C854.501 248.504 854.085 248.233 853.661 248.323C853.237 248.412 852.965 248.829 853.055 249.253Z" fill="#009BFF"/>
<path opacity="0.8" d="M581.394 88.9243C581.596 89.8792 582.534 90.4898 583.488 90.2879C584.443 90.0861 585.053 89.1483 584.852 88.1934C584.65 87.2385 583.712 86.628 582.758 86.8298C581.803 87.0316 581.193 87.9694 581.394 88.9243Z" fill="#009BFF"/>
<path opacity="0.8" d="M95.3015 401.819C95.5033 402.774 96.4409 403.385 97.3956 403.183C98.3503 402.981 98.9607 402.043 98.7589 401.088C98.5571 400.133 97.6196 399.523 96.6648 399.725C95.7101 399.927 95.0997 400.864 95.3015 401.819Z" fill="#009BFF"/>
<path opacity="0.8" d="M101.504 380.84C101.706 381.795 102.644 382.406 103.598 382.204C104.553 382.002 105.163 381.064 104.962 380.109C104.76 379.154 103.822 378.544 102.868 378.746C101.913 378.948 101.302 379.885 101.504 380.84Z" fill="#FA7548"/>
<path opacity="0.8" d="M114.075 347.274C114.277 348.229 115.215 348.839 116.169 348.637C117.124 348.436 117.735 347.498 117.533 346.543C117.331 345.588 116.393 344.977 115.439 345.179C114.484 345.381 113.873 346.319 114.075 347.274Z" fill="#009BFF"/>
<path opacity="0.8" d="M86.5679 441.197C86.7697 442.152 87.7072 442.762 88.6619 442.56C89.6167 442.359 90.2271 441.421 90.0253 440.466C89.8235 439.511 88.8859 438.9 87.9312 439.102C86.9765 439.304 86.3661 440.242 86.5679 441.197Z" fill="#009BFF"/>
<path opacity="0.8" d="M389.122 101.072C389.368 102.239 390.514 102.985 391.681 102.738C392.848 102.492 393.594 101.345 393.347 100.178C393.101 99.0112 391.955 98.265 390.788 98.5117C389.621 98.7584 388.875 99.9045 389.122 101.072Z" fill="#6B00FF"/>
<path opacity="0.8" d="M418.994 93.3518C419.33 94.9433 420.893 95.9608 422.484 95.6244C424.075 95.2881 425.092 93.7251 424.756 92.1336C424.42 90.542 422.857 89.5245 421.266 89.8609C419.675 90.1973 418.658 91.7602 418.994 93.3518Z" fill="#FEB12B"/>
<path opacity="0.8" d="M356.169 112.253C356.349 113.102 357.182 113.644 358.031 113.465C358.879 113.285 359.422 112.452 359.243 111.603C359.063 110.754 358.23 110.212 357.381 110.391C356.532 110.57 355.99 111.404 356.169 112.253Z" fill="#DF425A"/>
<path opacity="0.8" d="M325.28 125.607C325.482 126.562 326.42 127.172 327.374 126.97C328.329 126.768 328.939 125.831 328.738 124.876C328.536 123.921 327.598 123.31 326.644 123.512C325.689 123.714 325.079 124.652 325.28 125.607Z" fill="#1DC4D7"/>
<path opacity="0.8" d="M474.86 944.552C475.13 945.825 476.38 946.639 477.653 946.37C478.926 946.101 479.739 944.851 479.47 943.578C479.201 942.304 477.951 941.49 476.678 941.759C475.405 942.029 474.591 943.279 474.86 944.552Z" fill="#009BFF"/>
<path opacity="0.8" d="M151.172 751.67C151.351 752.519 152.185 753.061 153.033 752.882C153.882 752.703 154.425 751.869 154.245 751.02C154.066 750.171 153.232 749.629 152.384 749.808C151.535 749.988 150.993 750.821 151.172 751.67Z" fill="#009BFF"/>
<path opacity="0.8" d="M212.463 825.214C212.62 825.957 213.349 826.432 214.092 826.275C214.834 826.118 215.309 825.389 215.152 824.646C214.995 823.903 214.266 823.428 213.523 823.585C212.781 823.742 212.306 824.472 212.463 825.214Z" fill="#FEB12B"/>
<path opacity="0.8" d="M338.838 910.488C339.085 911.655 340.23 912.401 341.397 912.154C342.564 911.907 343.31 910.761 343.064 909.594C342.817 908.427 341.671 907.681 340.504 907.928C339.337 908.174 338.591 909.32 338.838 910.488Z" fill="#FEB12B"/>
<path opacity="0.8" d="M402.453 932.363C402.655 933.318 403.593 933.929 404.547 933.727C405.502 933.525 406.113 932.587 405.911 931.632C405.709 930.677 404.771 930.067 403.817 930.269C402.862 930.47 402.252 931.408 402.453 932.363Z" fill="#009BFF"/>
<path opacity="0.8" d="M413.073 935.136C413.274 936.091 414.212 936.702 415.167 936.5C416.121 936.298 416.732 935.36 416.53 934.405C416.328 933.45 415.391 932.84 414.436 933.042C413.481 933.243 412.871 934.181 413.073 935.136Z" fill="#1DC4D7"/>
<path opacity="0.8" d="M381.52 926.352C381.722 927.307 382.659 927.918 383.614 927.716C384.569 927.514 385.179 926.577 384.977 925.622C384.775 924.667 383.838 924.056 382.883 924.258C381.929 924.46 381.318 925.398 381.52 926.352Z" fill="#FA7548"/>
<path opacity="0.8" d="M942.744 494.214C942.946 495.169 943.883 495.779 944.838 495.577C945.793 495.376 946.403 494.438 946.201 493.483C946 492.528 945.062 491.917 944.107 492.119C943.153 492.321 942.542 493.259 942.744 494.214Z" fill="#FA7548"/>
<path opacity="0.8" d="M942.835 534.534C943.037 535.489 943.974 536.1 944.929 535.898C945.884 535.696 946.494 534.758 946.292 533.803C946.091 532.848 945.153 532.238 944.198 532.44C943.244 532.642 942.633 533.579 942.835 534.534Z" fill="#FA7548"/>
<path opacity="0.8" d="M347.81 914.01C348.011 914.965 348.949 915.576 349.904 915.374C350.858 915.172 351.469 914.234 351.267 913.279C351.065 912.324 350.128 911.714 349.173 911.916C348.218 912.117 347.608 913.055 347.81 914.01Z" fill="#009BFF"/>
<path opacity="0.8" d="M319.833 901.26C320.034 902.215 320.972 902.826 321.927 902.624C322.882 902.422 323.492 901.484 323.29 900.529C323.088 899.574 322.151 898.964 321.196 899.166C320.241 899.368 319.631 900.305 319.833 901.26Z" fill="#DF425A"/>
<path opacity="0.8" d="M291.479 885.779C291.68 886.734 292.618 887.345 293.573 887.143C294.527 886.941 295.138 886.003 294.936 885.048C294.734 884.093 293.797 883.483 292.842 883.685C291.887 883.887 291.277 884.824 291.479 885.779Z" fill="#1DC4D7"/>
<path opacity="0.8" d="M176.892 786.974C177.094 787.929 178.032 788.54 178.987 788.338C179.941 788.136 180.552 787.198 180.35 786.243C180.148 785.288 179.211 784.678 178.256 784.88C177.301 785.082 176.691 786.019 176.892 786.974Z" fill="#009BFF"/>
<path opacity="0.8" d="M120.42 696.354C120.622 697.309 121.559 697.92 122.514 697.718C123.468 697.516 124.079 696.578 123.877 695.623C123.675 694.669 122.738 694.058 121.783 694.26C120.828 694.462 120.218 695.399 120.42 696.354Z" fill="#009BFF"/>
<path opacity="0.8" d="M108.204 667.027C108.405 667.982 109.343 668.592 110.298 668.391C111.252 668.189 111.863 667.251 111.661 666.296C111.459 665.341 110.521 664.73 109.567 664.932C108.612 665.134 108.002 666.072 108.204 667.027Z" fill="#009BFF"/>
<path opacity="0.8" d="M162.793 768.68C162.994 769.635 163.932 770.245 164.887 770.044C165.841 769.842 166.452 768.904 166.25 767.949C166.048 766.994 165.111 766.384 164.156 766.586C163.201 766.787 162.591 767.725 162.793 768.68Z" fill="#1DC4D7"/>
<path opacity="0.8" d="M115.882 686.275C116.083 687.23 117.021 687.841 117.976 687.639C118.93 687.437 119.541 686.499 119.339 685.544C119.137 684.589 118.199 683.979 117.245 684.181C116.29 684.383 115.68 685.32 115.882 686.275Z" fill="#FEB12B"/>
<path opacity="0.8" d="M144.024 738.73C144.114 739.154 144.53 739.425 144.954 739.335C145.378 739.245 145.649 738.829 145.559 738.405C145.47 737.981 145.054 737.71 144.63 737.8C144.206 737.889 143.935 738.306 144.024 738.73Z" fill="#009BFF"/>
<path opacity="0.8" d="M98.0972 633.438C98.1868 633.862 98.6031 634.133 99.027 634.043C99.451 633.953 99.7221 633.537 99.6325 633.113C99.5429 632.689 99.1265 632.418 98.7026 632.508C98.2786 632.597 98.0076 633.014 98.0972 633.438Z" fill="#009BFF"/>
<path opacity="0.8" d="M96.1402 627.027C96.2298 627.451 96.6461 627.722 97.0701 627.633C97.4942 627.543 97.7652 627.127 97.6756 626.703C97.5861 626.279 97.1697 626.008 96.7457 626.097C96.3217 626.187 96.0506 626.603 96.1402 627.027Z" fill="#009BFF"/>
<path opacity="0.8" d="M88.366 592.143C88.4556 592.567 88.8719 592.838 89.2958 592.749C89.7198 592.659 89.9909 592.243 89.9012 591.819C89.8116 591.395 89.3953 591.123 88.9714 591.213C88.5474 591.303 88.2764 591.719 88.366 592.143Z" fill="#009BFF"/>
<path opacity="0.8" d="M172.428 780.09C172.518 780.514 172.934 780.785 173.358 780.695C173.782 780.606 174.054 780.189 173.964 779.765C173.874 779.341 173.458 779.07 173.034 779.16C172.61 779.249 172.339 779.666 172.428 780.09Z" fill="#009BFF"/>
<path opacity="0.8" d="M442.167 940.826C442.369 941.781 443.306 942.392 444.261 942.19C445.216 941.988 445.826 941.05 445.624 940.095C445.422 939.14 444.485 938.53 443.53 938.731C442.575 938.933 441.965 939.871 442.167 940.826Z" fill="#009BFF"/>
<path opacity="0.8" d="M840.396 794.222C840.642 795.389 841.788 796.135 842.955 795.888C844.122 795.641 844.868 794.495 844.621 793.328C844.375 792.161 843.229 791.415 842.062 791.662C840.895 791.908 840.149 793.054 840.396 794.222Z" fill="#FEB12B"/>
<path opacity="0.8" d="M862.153 766.14C862.399 767.307 863.545 768.053 864.712 767.807C865.879 767.56 866.625 766.414 866.378 765.247C866.132 764.08 864.986 763.333 863.819 763.58C862.652 763.827 861.906 764.973 862.153 766.14Z" fill="#009BFF"/>
<path opacity="0.8" d="M928.411 627.699C928.612 628.654 929.55 629.264 930.505 629.062C931.459 628.861 932.07 627.923 931.868 626.968C931.666 626.013 930.729 625.402 929.774 625.604C928.819 625.806 928.209 626.744 928.411 627.699Z" fill="#009BFF"/>
<path opacity="0.8" d="M922.017 648.719C922.219 649.674 923.157 650.284 924.111 650.082C925.066 649.88 925.677 648.943 925.475 647.988C925.273 647.033 924.335 646.422 923.381 646.624C922.426 646.826 921.816 647.764 922.017 648.719Z" fill="#FA7548"/>
<path opacity="0.8" d="M909.638 682.244C909.84 683.199 910.777 683.81 911.732 683.608C912.687 683.406 913.297 682.468 913.095 681.513C912.894 680.558 911.956 679.948 911.001 680.15C910.047 680.352 909.436 681.289 909.638 682.244Z" fill="#009BFF"/>
<path opacity="0.8" d="M937.146 588.321C937.348 589.276 938.285 589.887 939.24 589.685C940.195 589.483 940.805 588.545 940.603 587.59C940.401 586.635 939.464 586.025 938.509 586.227C937.554 586.429 936.944 587.366 937.146 588.321Z" fill="#009BFF"/>
<path opacity="0.8" d="M827.657 808.956C827.859 809.911 828.796 810.522 829.751 810.32C830.706 810.118 831.316 809.181 831.114 808.226C830.913 807.271 829.975 806.66 829.02 806.862C828.066 807.064 827.455 808.001 827.657 808.956Z" fill="#009BFF"/>
</g>
</svg>
