<svg width="951" height="950" viewBox="0 0 951 950" fill="none"
  xmlns="http://www.w3.org/2000/svg">
  <path opacity="0.15" d="M316.825 633.474C404.541 721.19 546.757 721.19 634.474 633.474C722.19 545.757 722.19 403.541 634.474 315.825C546.757 228.108 404.541 228.108 316.825 315.825C229.108 403.541 229.108 545.757 316.825 633.474Z" stroke="black" stroke-width="0.5" stroke-miterlimit="10"/>
  <g opacity="0.75">
    <path opacity="0.8" d="M548.555 687.747C548.82 687.747 549.035 687.532 549.035 687.267C549.035 687.003 548.82 686.788 548.555 686.788C548.29 686.788 548.076 687.003 548.076 687.267C548.076 687.532 548.29 687.747 548.555 687.747Z" fill="#009BFF"/>
    <g opacity="0.8">
      <g opacity="0.8">
        <path opacity="0.8" d="M647.991 329.172C648.784 329.172 649.426 329.814 649.426 330.606C649.426 331.398 648.784 332.04 647.991 332.04C647.199 332.04 646.557 331.398 646.557 330.606C646.557 329.814 647.199 329.172 647.991 329.172Z" fill="#009BFF"/>
        <path opacity="0.8" d="M380.056 679.547C380.913 679.547 381.608 678.853 381.608 677.996C381.608 677.139 380.913 676.444 380.056 676.444C379.199 676.444 378.504 677.139 378.504 677.996C378.504 678.853 379.199 679.547 380.056 679.547Z" fill="#1DC4D7"/>
        <path opacity="0.8" d="M253.433 442.531C254.319 442.531 255.037 441.813 255.037 440.927C255.037 440.041 254.319 439.323 253.433 439.323C252.547 439.323 251.829 440.041 251.829 440.927C251.829 441.813 252.547 442.531 253.433 442.531Z" fill="#FA7548"/>
        <path opacity="0.8" d="M681.404 566.569C682.375 566.569 683.163 565.782 683.163 564.81C683.163 563.839 682.375 563.052 681.404 563.052C680.433 563.052 679.646 563.839 679.646 564.81C679.646 565.782 680.433 566.569 681.404 566.569Z" fill="#009BFF"/>
        <path opacity="0.8" d="M696.271 518.592C696.968 518.592 697.533 518.027 697.533 517.33C697.533 516.633 696.968 516.068 696.271 516.068C695.574 516.068 695.009 516.633 695.009 517.33C695.009 518.027 695.574 518.592 696.271 518.592Z" fill="#FEB12B"/>
        <path opacity="0.8" d="M700.108 484.382C700.982 484.382 701.69 483.674 701.69 482.8C701.69 481.926 700.982 481.218 700.108 481.218C699.234 481.218 698.526 481.926 698.526 482.8C698.526 483.674 699.234 484.382 700.108 484.382Z" fill="#009BFF"/>
        <path opacity="0.8" d="M688.917 404.945C689.535 404.945 690.036 404.444 690.036 403.826C690.036 403.207 689.535 402.706 688.917 402.706C688.299 402.706 687.798 403.207 687.798 403.826C687.798 404.444 688.299 404.945 688.917 404.945Z" fill="#009BFF"/>
        <path opacity="0.8" d="M686.999 399.508C687.617 399.508 688.118 399.007 688.118 398.389C688.118 397.771 687.617 397.27 686.999 397.27C686.381 397.27 685.88 397.771 685.88 398.389C685.88 399.007 686.381 399.508 686.999 399.508Z" fill="#1DC4D7"/>
        <path opacity="0.8" d="M692.114 415.816C692.733 415.816 693.234 415.315 693.234 414.697C693.234 414.079 692.733 413.578 692.114 413.578C691.496 413.578 690.995 414.079 690.995 414.697C690.995 415.315 691.496 415.816 692.114 415.816Z" fill="#FA7548"/>
        <path opacity="0.8" d="M344.085 293.677C344.703 293.677 345.204 293.176 345.204 292.558C345.204 291.94 344.703 291.439 344.085 291.439C343.467 291.439 342.966 291.94 342.966 292.558C342.966 293.176 343.467 293.677 344.085 293.677Z" fill="#FA7548"/>
        <path opacity="0.8" d="M361.671 282.167C362.289 282.167 362.79 281.666 362.79 281.048C362.79 280.43 362.289 279.929 361.671 279.929C361.052 279.929 360.551 280.43 360.551 281.048C360.551 281.666 361.052 282.167 361.671 282.167Z" fill="#FA7548"/>
        <path opacity="0.8" d="M700.108 466.358C700.563 466.358 700.932 465.989 700.932 465.534C700.932 465.079 700.563 464.71 700.108 464.71C699.652 464.71 699.283 465.079 699.283 465.534C699.283 465.989 699.652 466.358 700.108 466.358Z" fill="#1DC4D7"/>
        <path opacity="0.8" d="M689.396 544.668C690.014 544.668 690.515 544.167 690.515 543.549C690.515 542.931 690.014 542.43 689.396 542.43C688.778 542.43 688.277 542.931 688.277 543.549C688.277 544.167 688.778 544.668 689.396 544.668Z" fill="#009BFF"/>
        <path opacity="0.8" d="M666.056 595.026C666.674 595.026 667.175 594.525 667.175 593.907C667.175 593.289 666.674 592.788 666.056 592.788C665.438 592.788 664.937 593.289 664.937 593.907C664.937 594.525 665.438 595.026 666.056 595.026Z" fill="#009BFF"/>
        <path opacity="0.8" d="M670.212 588.151C670.83 588.151 671.331 587.65 671.331 587.031C671.331 586.413 670.83 585.912 670.212 585.912C669.594 585.912 669.093 586.413 669.093 587.031C669.093 587.65 669.594 588.151 670.212 588.151Z" fill="#009BFF"/>
        <path opacity="0.8" d="M671.652 585.593C672.27 585.593 672.771 585.092 672.771 584.474C672.771 583.856 672.27 583.355 671.652 583.355C671.034 583.355 670.533 583.856 670.533 584.474C670.533 585.092 671.034 585.593 671.652 585.593Z" fill="#009BFF"/>
        <path opacity="0.8" d="M674.209 581.118C674.827 581.118 675.328 580.616 675.328 579.998C675.328 579.38 674.827 578.879 674.209 578.879C673.591 578.879 673.09 579.38 673.09 579.998C673.09 580.616 673.591 581.118 674.209 581.118Z" fill="#FA7548"/>
        <path opacity="0.8" d="M656.624 608.774C657.242 608.774 657.743 608.273 657.743 607.655C657.743 607.037 657.242 606.536 656.624 606.536C656.006 606.536 655.505 607.037 655.505 607.655C655.505 608.273 656.006 608.774 656.624 608.774Z" fill="#009BFF"/>
        <path opacity="0.8" d="M685.56 556.018C686.178 556.018 686.679 555.517 686.679 554.899C686.679 554.281 686.178 553.78 685.56 553.78C684.942 553.78 684.441 554.281 684.441 554.899C684.441 555.517 684.942 556.018 685.56 556.018Z" fill="#1DC4D7"/>
        <path opacity="0.8" d="M662.858 599.821C663.476 599.821 663.977 599.32 663.977 598.702C663.977 598.084 663.476 597.583 662.858 597.583C662.24 597.583 661.739 598.084 661.739 598.702C661.739 599.32 662.24 599.821 662.858 599.821Z" fill="#FEB12B"/>
        <path opacity="0.8" d="M678.206 572.484C678.471 572.484 678.686 572.269 678.686 572.004C678.686 571.739 678.471 571.525 678.206 571.525C677.941 571.525 677.726 571.739 677.726 572.004C677.726 572.269 677.941 572.484 678.206 572.484Z" fill="#009BFF"/>
        <path opacity="0.8" d="M645.274 622.523C645.539 622.523 645.753 622.308 645.753 622.044C645.753 621.779 645.539 621.564 645.274 621.564C645.009 621.564 644.794 621.779 644.794 622.044C644.794 622.308 645.009 622.523 645.274 622.523Z" fill="#009BFF"/>
        <path opacity="0.8" d="M643.036 625.08C643.301 625.08 643.515 624.866 643.515 624.601C643.515 624.336 643.301 624.121 643.036 624.121C642.771 624.121 642.556 624.336 642.556 624.601C642.556 624.866 642.771 625.08 643.036 625.08Z" fill="#009BFF"/>
        <path opacity="0.8" d="M629.926 638.349C630.191 638.349 630.406 638.134 630.406 637.869C630.406 637.604 630.191 637.389 629.926 637.389C629.661 637.389 629.447 637.604 629.447 637.869C629.447 638.134 629.661 638.349 629.926 638.349Z" fill="#009BFF"/>
        <path opacity="0.8" d="M688.118 548.344C688.383 548.344 688.597 548.13 688.597 547.865C688.597 547.6 688.383 547.385 688.118 547.385C687.853 547.385 687.638 547.6 687.638 547.865C687.638 548.13 687.853 548.344 688.118 548.344Z" fill="#009BFF"/>
        <path opacity="0.8" d="M681.243 385.281C681.861 385.281 682.362 384.78 682.362 384.162C682.362 383.544 681.861 383.043 681.243 383.043C680.625 383.043 680.124 383.544 680.124 384.162C680.124 384.78 680.625 385.281 681.243 385.281Z" fill="#009BFF"/>
        <path opacity="0.8" d="M503.952 254.351C505.364 254.351 506.51 253.206 506.51 251.793C506.51 250.38 505.364 249.235 503.952 249.235C502.539 249.235 501.394 250.38 501.394 251.793C501.394 253.206 502.539 254.351 503.952 254.351Z" fill="#FEB12B"/>
        <path opacity="0.8" d="M485.568 252.912C486.981 252.912 488.126 251.766 488.126 250.354C488.126 248.941 486.981 247.796 485.568 247.796C484.156 247.796 483.01 248.941 483.01 250.354C483.01 251.766 484.156 252.912 485.568 252.912Z" fill="#009BFF"/>
        <path opacity="0.8" d="M417.464 258.827C418.082 258.827 418.583 258.326 418.583 257.708C418.583 257.09 418.082 256.589 417.464 256.589C416.846 256.589 416.345 257.09 416.345 257.708C416.345 258.326 416.846 258.827 417.464 258.827Z" fill="#FA7548"/>
        <path opacity="0.8" d="M435.689 254.671C436.307 254.671 436.808 254.17 436.808 253.552C436.808 252.934 436.307 252.432 435.689 252.432C435.071 252.432 434.57 252.934 434.57 253.552C434.57 254.17 435.071 254.671 435.689 254.671Z" fill="#009BFF"/>
        <path opacity="0.8" d="M621.453 305.377C622.264 305.377 622.921 304.72 622.921 303.909C622.921 303.099 622.264 302.442 621.453 302.442C620.643 302.442 619.985 303.099 619.985 303.909C619.985 304.72 620.643 305.377 621.453 305.377Z" fill="#6B00FF"/>
        <path opacity="0.8" d="M567.739 270.976C568.445 270.976 569.018 270.404 569.018 269.697C569.018 268.991 568.445 268.418 567.739 268.418C567.032 268.418 566.46 268.991 566.46 269.697C566.46 270.404 567.032 270.976 567.739 270.976Z" fill="#FEB12B"/>
        <path opacity="0.8" d="M606.906 293.775C607.666 293.775 608.283 293.159 608.283 292.398C608.283 291.637 607.666 291.021 606.906 291.021C606.145 291.021 605.529 291.637 605.529 292.398C605.529 293.159 606.145 293.775 606.906 293.775Z" fill="#DF425A"/>
        <path opacity="0.8" d="M534.806 258.987C535.424 258.987 535.925 258.486 535.925 257.868C535.925 257.25 535.424 256.749 534.806 256.749C534.188 256.749 533.687 257.25 533.687 257.868C533.687 258.486 534.188 258.987 534.806 258.987Z" fill="#009BFF"/>
        <path opacity="0.8" d="M529.211 257.548C529.829 257.548 530.33 257.047 530.33 256.429C530.33 255.811 529.829 255.31 529.211 255.31C528.593 255.31 528.092 255.811 528.092 256.429C528.092 257.047 528.593 257.548 529.211 257.548Z" fill="#1DC4D7"/>
        <path opacity="0.8" d="M545.677 262.344C546.295 262.344 546.796 261.843 546.796 261.225C546.796 260.607 546.295 260.106 545.677 260.106C545.059 260.106 544.558 260.607 544.558 261.225C544.558 261.843 545.059 262.344 545.677 262.344Z" fill="#FA7548"/>
        <path opacity="0.8" d="M563.263 268.898C563.881 268.898 564.382 268.397 564.382 267.779C564.382 267.161 563.881 266.66 563.263 266.66C562.645 266.66 562.144 267.161 562.144 267.779C562.144 268.397 562.645 268.898 563.263 268.898Z" fill="#009BFF"/>
        <path opacity="0.8" d="M592.358 283.925C592.976 283.925 593.477 283.424 593.477 282.806C593.477 282.188 592.976 281.687 592.358 281.687C591.74 281.687 591.239 282.188 591.239 282.806C591.239 283.424 591.74 283.925 592.358 283.925Z" fill="#1DC4D7"/>
        <path opacity="0.8" d="M514.183 254.511C514.801 254.511 515.302 254.01 515.302 253.392C515.302 252.774 514.801 252.273 514.183 252.273C513.565 252.273 513.064 252.774 513.064 253.392C513.064 254.01 513.565 254.511 514.183 254.511Z" fill="#009BFF"/>
      </g>
    </g>
  </g>
  <path opacity="0.15" d="M238.323 711.974C369.393 843.045 581.901 843.045 712.972 711.974C844.043 580.903 844.043 368.395 712.972 237.325C581.901 106.254 369.393 106.254 238.323 237.325C107.252 368.395 107.252 580.903 238.323 711.974Z" stroke="black" stroke-width="0.5" stroke-miterlimit="10"/>
  <g opacity="0.75">
    <path opacity="0.8" d="M584.587 793.072C584.982 793.072 585.303 792.752 585.303 792.356C585.303 791.96 584.982 791.639 584.587 791.639C584.191 791.639 583.87 791.96 583.87 792.356C583.87 792.752 584.191 793.072 584.587 793.072Z" fill="#009BFF"/>
    <g opacity="0.8">
      <g opacity="0.8">
        <path opacity="0.8" d="M733.171 257.269C734.355 257.269 735.314 258.229 735.314 259.412C735.314 260.596 734.355 261.555 733.171 261.555C731.988 261.555 731.028 260.596 731.028 259.412C731.028 258.229 731.988 257.269 733.171 257.269Z" fill="#009BFF"/>
        <path opacity="0.8" d="M332.807 780.82C334.088 780.82 335.126 779.782 335.126 778.501C335.126 777.221 334.088 776.183 332.807 776.183C331.527 776.183 330.489 777.221 330.489 778.501C330.489 779.782 331.527 780.82 332.807 780.82Z" fill="#1DC4D7"/>
        <path opacity="0.8" d="M143.6 426.657C144.923 426.657 145.997 425.583 145.997 424.26C145.997 422.936 144.923 421.862 143.6 421.862C142.276 421.862 141.202 422.936 141.202 424.26C141.202 425.583 142.276 426.657 143.6 426.657Z" fill="#FA7548"/>
        <path opacity="0.8" d="M783.097 612.001C784.549 612.001 785.725 610.824 785.725 609.373C785.725 607.922 784.549 606.745 783.097 606.745C781.646 606.745 780.47 607.922 780.47 609.373C780.47 610.824 781.646 612.001 783.097 612.001Z" fill="#009BFF"/>
        <path opacity="0.8" d="M805.312 540.311C806.354 540.311 807.198 539.466 807.198 538.425C807.198 537.384 806.354 536.539 805.312 536.539C804.271 536.539 803.426 537.384 803.426 538.425C803.426 539.466 804.271 540.311 805.312 540.311Z" fill="#FEB12B"/>
        <path opacity="0.8" d="M811.046 489.192C812.352 489.192 813.41 488.134 813.41 486.829C813.41 485.523 812.352 484.465 811.046 484.465C809.741 484.465 808.683 485.523 808.683 486.829C808.683 488.134 809.741 489.192 811.046 489.192Z" fill="#009BFF"/>
        <path opacity="0.8" d="M794.324 370.493C795.247 370.493 795.996 369.744 795.996 368.821C795.996 367.897 795.247 367.148 794.324 367.148C793.4 367.148 792.651 367.897 792.651 368.821C792.651 369.744 793.4 370.493 794.324 370.493Z" fill="#009BFF"/>
        <path opacity="0.8" d="M791.458 362.369C792.381 362.369 793.13 361.621 793.13 360.697C793.13 359.773 792.381 359.025 791.458 359.025C790.534 359.025 789.786 359.773 789.786 360.697C789.786 361.621 790.534 362.369 791.458 362.369Z" fill="#1DC4D7"/>
        <path opacity="0.8" d="M799.101 386.737C800.025 386.737 800.773 385.988 800.773 385.065C800.773 384.141 800.025 383.393 799.101 383.393C798.178 383.393 797.429 384.141 797.429 385.065C797.429 385.988 798.178 386.737 799.101 386.737Z" fill="#FA7548"/>
        <path opacity="0.8" d="M279.056 204.231C279.98 204.231 280.728 203.482 280.728 202.558C280.728 201.635 279.98 200.886 279.056 200.886C278.133 200.886 277.384 201.635 277.384 202.558C277.384 203.482 278.133 204.231 279.056 204.231Z" fill="#FA7548"/>
        <path opacity="0.8" d="M305.334 187.031C306.258 187.031 307.006 186.283 307.006 185.359C307.006 184.436 306.258 183.687 305.334 183.687C304.411 183.687 303.662 184.436 303.662 185.359C303.662 186.283 304.411 187.031 305.334 187.031Z" fill="#FA7548"/>
        <path opacity="0.8" d="M811.047 462.26C811.727 462.26 812.278 461.708 812.278 461.028C812.278 460.348 811.727 459.797 811.047 459.797C810.366 459.797 809.815 460.348 809.815 461.028C809.815 461.708 810.366 462.26 811.047 462.26Z" fill="#1DC4D7"/>
        <path opacity="0.8" d="M795.039 579.275C795.962 579.275 796.711 578.526 796.711 577.603C796.711 576.679 795.962 575.931 795.039 575.931C794.115 575.931 793.367 576.679 793.367 577.603C793.367 578.526 794.115 579.275 795.039 579.275Z" fill="#009BFF"/>
        <path opacity="0.8" d="M760.163 654.522C761.087 654.522 761.835 653.774 761.835 652.85C761.835 651.927 761.087 651.178 760.163 651.178C759.24 651.178 758.491 651.927 758.491 652.85C758.491 653.774 759.24 654.522 760.163 654.522Z" fill="#009BFF"/>
        <path opacity="0.8" d="M766.373 644.25C767.297 644.25 768.046 643.501 768.046 642.577C768.046 641.654 767.297 640.905 766.373 640.905C765.45 640.905 764.701 641.654 764.701 642.577C764.701 643.501 765.45 644.25 766.373 644.25Z" fill="#009BFF"/>
        <path opacity="0.8" d="M768.524 640.428C769.448 640.428 770.196 639.679 770.196 638.756C770.196 637.832 769.448 637.083 768.524 637.083C767.601 637.083 766.852 637.832 766.852 638.756C766.852 639.679 767.601 640.428 768.524 640.428Z" fill="#009BFF"/>
        <path opacity="0.8" d="M772.347 633.74C773.271 633.74 774.02 632.991 774.02 632.068C774.02 631.144 773.271 630.396 772.347 630.396C771.424 630.396 770.675 631.144 770.675 632.068C770.675 632.991 771.424 633.74 772.347 633.74Z" fill="#FA7548"/>
        <path opacity="0.8" d="M746.07 675.067C746.993 675.067 747.742 674.318 747.742 673.394C747.742 672.471 746.993 671.722 746.07 671.722C745.146 671.722 744.398 672.471 744.398 673.394C744.398 674.318 745.146 675.067 746.07 675.067Z" fill="#009BFF"/>
        <path opacity="0.8" d="M789.307 596.235C790.23 596.235 790.979 595.486 790.979 594.563C790.979 593.639 790.23 592.89 789.307 592.89C788.383 592.89 787.635 593.639 787.635 594.563C787.635 595.486 788.383 596.235 789.307 596.235Z" fill="#1DC4D7"/>
        <path opacity="0.8" d="M755.385 661.689C756.309 661.689 757.057 660.94 757.057 660.017C757.057 659.093 756.309 658.344 755.385 658.344C754.462 658.344 753.713 659.093 753.713 660.017C753.713 660.94 754.462 661.689 755.385 661.689Z" fill="#FEB12B"/>
        <path opacity="0.8" d="M778.32 620.84C778.716 620.84 779.037 620.519 779.037 620.123C779.037 619.727 778.716 619.406 778.32 619.406C777.925 619.406 777.604 619.727 777.604 620.123C777.604 620.519 777.925 620.84 778.32 620.84Z" fill="#009BFF"/>
        <path opacity="0.8" d="M729.109 695.611C729.505 695.611 729.826 695.29 729.826 694.894C729.826 694.498 729.505 694.177 729.109 694.177C728.713 694.177 728.393 694.498 728.393 694.894C728.393 695.29 728.713 695.611 729.109 695.611Z" fill="#009BFF"/>
        <path opacity="0.8" d="M725.765 699.432C726.161 699.432 726.481 699.111 726.481 698.715C726.481 698.319 726.161 697.998 725.765 697.998C725.369 697.998 725.048 698.319 725.048 698.715C725.048 699.111 725.369 699.432 725.765 699.432Z" fill="#009BFF"/>
        <path opacity="0.8" d="M706.176 719.258C706.572 719.258 706.892 718.937 706.892 718.542C706.892 718.146 706.572 717.825 706.176 717.825C705.78 717.825 705.459 718.146 705.459 718.542C705.459 718.937 705.78 719.258 706.176 719.258Z" fill="#009BFF"/>
        <path opacity="0.8" d="M793.129 584.769C793.524 584.769 793.845 584.448 793.845 584.052C793.845 583.656 793.524 583.335 793.129 583.335C792.733 583.335 792.412 583.656 792.412 584.052C792.412 584.448 792.733 584.769 793.129 584.769Z" fill="#009BFF"/>
        <path opacity="0.8" d="M782.857 341.11C783.78 341.11 784.529 340.361 784.529 339.437C784.529 338.514 783.78 337.765 782.857 337.765C781.933 337.765 781.185 338.514 781.185 339.437C781.185 340.361 781.933 341.11 782.857 341.11Z" fill="#009BFF"/>
        <path opacity="0.8" d="M517.938 145.467C520.049 145.467 521.76 143.755 521.76 141.645C521.76 139.534 520.049 137.823 517.938 137.823C515.827 137.823 514.116 139.534 514.116 141.645C514.116 143.755 515.827 145.467 517.938 145.467Z" fill="#FEB12B"/>
        <path opacity="0.8" d="M490.469 143.317C492.58 143.317 494.291 141.605 494.291 139.494C494.291 137.384 492.58 135.672 490.469 135.672C488.358 135.672 486.647 137.384 486.647 139.494C486.647 141.605 488.358 143.317 490.469 143.317Z" fill="#009BFF"/>
        <path opacity="0.8" d="M388.703 152.156C389.627 152.156 390.375 151.408 390.375 150.484C390.375 149.561 389.627 148.812 388.703 148.812C387.78 148.812 387.031 149.561 387.031 150.484C387.031 151.408 387.78 152.156 388.703 152.156Z" fill="#FA7548"/>
        <path opacity="0.8" d="M415.935 145.945C416.859 145.945 417.607 145.196 417.607 144.273C417.607 143.349 416.859 142.601 415.935 142.601C415.012 142.601 414.263 143.349 414.263 144.273C414.263 145.196 415.012 145.945 415.935 145.945Z" fill="#009BFF"/>
        <path opacity="0.8" d="M693.515 221.713C694.726 221.713 695.708 220.732 695.708 219.52C695.708 218.309 694.726 217.327 693.515 217.327C692.304 217.327 691.322 218.309 691.322 219.52C691.322 220.732 692.304 221.713 693.515 221.713Z" fill="#6B00FF"/>
        <path opacity="0.8" d="M613.253 170.31C614.308 170.31 615.164 169.454 615.164 168.399C615.164 167.343 614.308 166.488 613.253 166.488C612.197 166.488 611.341 167.343 611.341 168.399C611.341 169.454 612.197 170.31 613.253 170.31Z" fill="#FEB12B"/>
        <path opacity="0.8" d="M671.777 204.377C672.914 204.377 673.835 203.456 673.835 202.319C673.835 201.183 672.914 200.262 671.777 200.262C670.641 200.262 669.72 201.183 669.72 202.319C669.72 203.456 670.641 204.377 671.777 204.377Z" fill="#DF425A"/>
        <path opacity="0.8" d="M564.042 152.394C564.965 152.394 565.714 151.646 565.714 150.722C565.714 149.799 564.965 149.05 564.042 149.05C563.118 149.05 562.37 149.799 562.37 150.722C562.37 151.646 563.118 152.394 564.042 152.394Z" fill="#009BFF"/>
        <path opacity="0.8" d="M555.683 150.244C556.607 150.244 557.355 149.495 557.355 148.572C557.355 147.648 556.607 146.9 555.683 146.9C554.76 146.9 554.011 147.648 554.011 148.572C554.011 149.495 554.76 150.244 555.683 150.244Z" fill="#1DC4D7"/>
        <path opacity="0.8" d="M580.286 157.41C581.209 157.41 581.958 156.662 581.958 155.738C581.958 154.815 581.209 154.066 580.286 154.066C579.362 154.066 578.614 154.815 578.614 155.738C578.614 156.662 579.362 157.41 580.286 157.41Z" fill="#FA7548"/>
        <path opacity="0.8" d="M606.564 167.205C607.487 167.205 608.236 166.456 608.236 165.533C608.236 164.609 607.487 163.86 606.564 163.86C605.64 163.86 604.892 164.609 604.892 165.533C604.892 166.456 605.64 167.205 606.564 167.205Z" fill="#009BFF"/>
        <path opacity="0.8" d="M650.04 189.659C650.964 189.659 651.712 188.91 651.712 187.986C651.712 187.063 650.964 186.314 650.04 186.314C649.117 186.314 648.368 187.063 648.368 187.986C648.368 188.91 649.117 189.659 650.04 189.659Z" fill="#1DC4D7"/>
        <path opacity="0.8" d="M533.226 145.707C534.149 145.707 534.898 144.958 534.898 144.034C534.898 143.111 534.149 142.362 533.226 142.362C532.302 142.362 531.553 143.111 531.553 144.034C531.553 144.958 532.302 145.707 533.226 145.707Z" fill="#009BFF"/>
      </g>
    </g>
  </g>
</svg>
