<svg width="1042" height="207" viewBox="0 0 1042 207" fill="none"
  xmlns="http://www.w3.org/2000/svg">
  <path d="M952.705 32.606C952.705 34.0435 951.576 35.2087 950.182 35.2087C948.788 35.2087 947.658 34.0435 947.658 32.606C947.658 31.1686 948.788 30.0033 950.182 30.0033C951.576 30.0033 952.705 31.1686 952.705 32.606Z" fill="#C6E8FF"/>
  <path d="M830.547 168.605C830.547 170.043 829.418 171.208 828.024 171.208C826.63 171.208 825.5 170.043 825.5 168.605C825.5 167.168 826.63 166.003 828.024 166.003C829.418 166.003 830.547 167.168 830.547 168.605Z" fill="#C6E8FF"/>
  <path d="M565.87 173.608C565.87 175.045 564.741 176.21 563.347 176.21C561.953 176.21 560.823 175.045 560.823 173.608C560.823 172.17 561.953 171.005 563.347 171.005C564.741 171.005 565.87 172.17 565.87 173.608Z" fill="#FED5C6"/>
  <path d="M608.528 -0.391518C608.528 1.04592 607.399 2.21118 606.005 2.21118C604.611 2.21118 603.481 1.04592 603.481 -0.391518C603.481 -1.82896 604.611 -2.99422 606.005 -2.99422C607.399 -2.99422 608.528 -1.82896 608.528 -0.391518Z" fill="#C6E8FF"/>
  <path d="M629.857 138.608C629.857 140.045 628.728 141.21 627.334 141.21C625.94 141.21 624.811 140.045 624.811 138.608C624.811 137.17 625.94 136.005 627.334 136.005C628.728 136.005 629.857 137.17 629.857 138.608Z" fill="#C6E8FF"/>
  <path d="M486.37 135.608C486.37 137.045 485.241 138.21 483.847 138.21C482.453 138.21 481.323 137.045 481.323 135.608C481.323 134.17 482.453 133.005 483.847 133.005C485.241 133.005 486.37 134.17 486.37 135.608Z" fill="#C6E8FF"/>
  <path d="M7.43051 198.608C7.43051 200.045 6.30148 201.21 4.90761 201.21C3.51373 201.21 2.38379 200.045 2.38379 198.608C2.38379 197.17 3.51373 196.005 4.90761 196.005C6.30148 196.005 7.43051 197.17 7.43051 198.608Z" fill="#FED5C6"/>
  <path d="M266.29 17.6085C266.29 19.0459 265.161 20.2112 263.767 20.2112C262.373 20.2112 261.243 19.0459 261.243 17.6085C261.243 16.171 262.373 15.0058 263.767 15.0058C265.161 15.0058 266.29 16.171 266.29 17.6085Z" fill="#C6E8FF"/>
  <path d="M108.26 163.608C108.26 165.045 107.131 166.21 105.737 166.21C104.343 166.21 103.213 165.045 103.213 163.608C103.213 162.17 104.343 161.005 105.737 161.005C107.131 161.005 108.26 162.17 108.26 163.608Z" fill="#C6E8FF"/>
  <path d="M708.388 10.6085C708.388 12.0459 707.259 13.2112 705.865 13.2112C704.471 13.2112 703.341 12.0459 703.341 10.6085C703.341 9.17104 704.471 8.00578 705.865 8.00578C707.259 8.00578 708.388 9.17104 708.388 10.6085Z" fill="#C6E8FF"/>
  <path opacity="0.2" d="M1009 81.002C1027.23 81.002 1042 66.2276 1042 48.0023C1042 29.7771 1027.23 15.0027 1009 15.0027C990.775 15.0027 976 29.7771 976 48.0023C976 66.2276 990.775 81.002 1009 81.002Z" fill="#66737F"/>
  <path d="M1003.87 53.1355L1007.08 47.1772L1009.83 49.9272L1003.87 53.1355Z" fill="transparent"/>
  <path d="M1010.93 48.8272L1008.18 46.0772L1014.13 42.8689L1010.93 48.8272Z" fill="transparent"/>
  <path fill-rule="evenodd" clip-rule="evenodd" d="M1009 33.3357C1000.88 33.3357 994.333 39.9771 994.333 48.0022C994.333 56.0273 1000.88 62.6687 1009 62.6687C1017.12 62.6687 1023.67 56.1195 1023.67 48.0022C1023.67 39.8849 1017.12 33.3357 1009 33.3357ZM996.455 48.0022C996.455 41.084 1002.08 35.4573 1009 35.4573C1015.92 35.4573 1021.54 41.084 1021.54 48.0022C1021.54 54.9204 1015.92 60.5472 1009 60.5472C1002.08 60.5472 996.455 54.9204 996.455 48.0022Z" fill="#6B00FF"/>
  <path d="M1016.93 40.3461C1016.75 39.9772 1016.2 39.7927 1015.83 39.9772L1006.42 45.0505C1006.23 45.1427 1006.14 45.235 1006.05 45.4195L1000.97 54.8282C1000.79 55.1971 1000.88 55.5661 1001.16 55.8428C1001.25 55.9351 1001.25 55.9351 1001.34 56.0273C1001.62 56.1196 1001.9 56.1196 1002.08 56.0273L1011.49 50.954C1011.68 50.8617 1011.77 50.7695 1011.86 50.585L1016.93 41.1763C1016.93 41.1763 1016.93 41.1763 1016.93 41.0841C1017.12 40.8996 1017.12 40.6229 1016.93 40.3461ZM1003.83 53.1678L1007.06 47.1721L1009.83 49.9393L1003.83 53.1678ZM1010.94 48.8324L1008.17 46.0652L1014.17 42.8367L1010.94 48.8324Z" fill="#6B00FF"/>
  <path opacity="0.2" d="M883 30.0031C891.284 30.0031 898 23.2875 898 15.0033C898 6.71908 891.284 0.00341797 883 0.00341797C874.716 0.00341797 868 6.71908 868 15.0033C868 23.2875 874.716 30.0031 883 30.0031Z" fill="#66737F"/>
  <path d="M880.667 17.3365L882.125 14.6282L883.375 15.8782L880.667 17.3365Z" fill="transparent"/>
  <path d="M883.875 15.3782L882.625 14.1282L885.333 12.6699L883.875 15.3782Z" fill="transparent"/>
  <path fill-rule="evenodd" clip-rule="evenodd" d="M883 8.33667C879.31 8.33667 876.333 11.3555 876.333 15.0033C876.333 18.651 879.31 21.6699 883 21.6699C886.689 21.6699 889.666 18.693 889.666 15.0033C889.666 11.3136 886.689 8.33667 883 8.33667ZM877.297 15.0033C877.297 11.8586 879.855 9.30102 883 9.30102C886.144 9.30102 888.702 11.8586 888.702 15.0033C888.702 18.1479 886.144 20.7055 883 20.7055C879.855 20.7055 877.297 18.1479 877.297 15.0033Z" fill="#6B00FF"/>
  <path d="M886.606 11.5231C886.522 11.3554 886.27 11.2716 886.103 11.3554L881.826 13.6615C881.742 13.7034 881.7 13.7453 881.658 13.8292L879.352 18.1059C879.268 18.2736 879.31 18.4413 879.436 18.5671C879.478 18.609 879.478 18.609 879.52 18.6509C879.646 18.6929 879.772 18.6929 879.855 18.6509L884.132 16.3449C884.216 16.3029 884.258 16.261 884.3 16.1772L886.606 11.9005C886.606 11.9005 886.606 11.9005 886.606 11.8585C886.69 11.7747 886.69 11.6489 886.606 11.5231ZM880.652 17.3512L882.12 14.6258L883.377 15.8837L880.652 17.3512ZM883.881 15.3805L882.623 14.1227L885.348 12.6552L883.881 15.3805Z" fill="#6B00FF"/>
  <path opacity="0.2" d="M1009 206.005C1020.05 206.005 1029 197.05 1029 186.004C1029 174.958 1020.05 166.003 1009 166.003C997.954 166.003 989 174.958 989 186.004C989 197.05 997.954 206.005 1009 206.005Z" fill="#66737F"/>
  <path d="M1005.89 189.115L1007.83 185.504L1009.5 187.17L1005.89 189.115Z" fill="transparent"/>
  <path d="M1010.17 186.504L1008.5 184.837L1012.11 182.893L1010.17 186.504Z" fill="transparent"/>
  <path fill-rule="evenodd" clip-rule="evenodd" d="M1009 177.115C1004.08 177.115 1000.11 181.14 1000.11 186.004C1000.11 190.868 1004.08 194.893 1009 194.893C1013.92 194.893 1017.89 190.924 1017.89 186.004C1017.89 181.084 1013.92 177.115 1009 177.115ZM1001.4 186.004C1001.4 181.811 1004.81 178.401 1009 178.401C1013.19 178.401 1016.6 181.811 1016.6 186.004C1016.6 190.197 1013.19 193.607 1009 193.607C1004.81 193.607 1001.4 190.197 1001.4 186.004Z" fill="#6B00FF"/>
  <path d="M1013.81 181.364C1013.7 181.14 1013.36 181.028 1013.14 181.14L1007.43 184.215C1007.32 184.271 1007.27 184.327 1007.21 184.439L1004.14 190.141C1004.02 190.365 1004.08 190.588 1004.25 190.756C1004.3 190.812 1004.3 190.812 1004.36 190.868C1004.53 190.924 1004.7 190.924 1004.81 190.868L1010.51 187.793C1010.62 187.737 1010.68 187.681 1010.73 187.569L1013.81 181.867C1013.81 181.867 1013.81 181.867 1013.81 181.811C1013.92 181.699 1013.92 181.531 1013.81 181.364ZM1005.87 189.135L1007.83 185.501L1009.5 187.178L1005.87 189.135ZM1010.17 186.507L1008.5 184.83L1012.13 182.873L1010.17 186.507Z" fill="#6B00FF"/>
  <path opacity="0.2" d="M24 111.003C37.2548 111.003 48 100.258 48 87.0029C48 73.7481 37.2548 63.0029 24 63.0029C10.7452 63.0029 0 73.7481 0 87.0029C0 100.258 10.7452 111.003 24 111.003Z" fill="#66737F"/>
  <path fill-rule="evenodd" clip-rule="evenodd" d="M23.9997 76.3362C18.0961 76.3362 13.333 81.1664 13.333 87.0028C13.333 92.8393 18.0961 97.6695 23.9997 97.6695C29.9032 97.6695 34.6663 92.9064 34.6663 87.0028C34.6663 81.0993 29.9032 76.3362 23.9997 76.3362ZM14.876 87.0028C14.876 81.9714 18.9682 77.8792 23.9997 77.8792C29.0311 77.8792 33.1234 81.9714 33.1234 87.0028C33.1234 92.0343 29.0311 96.1265 23.9997 96.1265C18.9682 96.1265 14.876 92.0343 14.876 87.0028Z" fill="#6B00FF"/>
  <path d="M29.7694 81.4348C29.6353 81.1664 29.2327 81.0322 28.9644 81.1664L22.1216 84.8561C21.9875 84.9232 21.9204 84.9903 21.8533 85.1245L18.1636 91.9672C18.0294 92.2356 18.0965 92.5039 18.2977 92.7052C18.3648 92.7723 18.3648 92.7723 18.4319 92.8394C18.6332 92.9064 18.8344 92.9064 18.9686 92.8394L25.8114 89.1496C25.9455 89.0825 26.0126 89.0155 26.0797 88.8813L29.7694 82.0385C29.7694 82.0385 29.7694 82.0385 29.7694 81.9714C29.9036 81.8373 29.9036 81.636 29.7694 81.4348ZM20.2432 90.7597L22.5912 86.3991L24.6038 88.4117L20.2432 90.7597ZM25.4088 87.6067L23.3963 85.5941L27.7568 83.2461L25.4088 87.6067Z" fill="#6B00FF"/>
</svg>
