<svg width="1042" height="207" viewBox="0 0 1042 207" fill="none"
  xmlns="http://www.w3.org/2000/svg">
  <path d="M952.705 32.606C952.705 34.0435 951.576 35.2087 950.182 35.2087C948.788 35.2087 947.658 34.0435 947.658 32.606C947.658 31.1686 948.788 30.0033 950.182 30.0033C951.576 30.0033 952.705 31.1686 952.705 32.606Z" fill="#C6E8FF"/>
  <path d="M830.547 168.605C830.547 170.043 829.418 171.208 828.024 171.208C826.63 171.208 825.5 170.043 825.5 168.605C825.5 167.168 826.63 166.003 828.024 166.003C829.418 166.003 830.547 167.168 830.547 168.605Z" fill="#C6E8FF"/>
  <path d="M565.87 173.608C565.87 175.045 564.741 176.21 563.347 176.21C561.953 176.21 560.823 175.045 560.823 173.608C560.823 172.17 561.953 171.005 563.347 171.005C564.741 171.005 565.87 172.17 565.87 173.608Z" fill="#FED5C6"/>
  <path d="M608.528 -0.391518C608.528 1.04592 607.399 2.21118 606.005 2.21118C604.611 2.21118 603.481 1.04592 603.481 -0.391518C603.481 -1.82896 604.611 -2.99422 606.005 -2.99422C607.399 -2.99422 608.528 -1.82896 608.528 -0.391518Z" fill="#C6E8FF"/>
  <path d="M629.857 138.608C629.857 140.045 628.728 141.21 627.334 141.21C625.94 141.21 624.811 140.045 624.811 138.608C624.811 137.17 625.94 136.005 627.334 136.005C628.728 136.005 629.857 137.17 629.857 138.608Z" fill="#C6E8FF"/>
  <path d="M486.37 135.607C486.37 137.045 485.241 138.21 483.847 138.21C482.453 138.21 481.323 137.045 481.323 135.607C481.323 134.17 482.453 133.005 483.847 133.005C485.241 133.005 486.37 134.17 486.37 135.607Z" fill="#C6E8FF"/>
  <path d="M7.43051 198.608C7.43051 200.045 6.30148 201.21 4.90761 201.21C3.51373 201.21 2.38379 200.045 2.38379 198.608C2.38379 197.17 3.51373 196.005 4.90761 196.005C6.30148 196.005 7.43051 197.17 7.43051 198.608Z" fill="#FED5C6"/>
  <path d="M266.29 17.6085C266.29 19.0459 265.161 20.2112 263.767 20.2112C262.373 20.2112 261.243 19.0459 261.243 17.6085C261.243 16.171 262.373 15.0058 263.767 15.0058C265.161 15.0058 266.29 16.171 266.29 17.6085Z" fill="#C6E8FF"/>
  <path d="M108.26 163.608C108.26 165.045 107.131 166.21 105.737 166.21C104.343 166.21 103.213 165.045 103.213 163.608C103.213 162.17 104.343 161.005 105.737 161.005C107.131 161.005 108.26 162.17 108.26 163.608Z" fill="#C6E8FF"/>
  <path d="M708.388 10.6085C708.388 12.0459 707.259 13.2112 705.865 13.2112C704.471 13.2112 703.341 12.0459 703.341 10.6085C703.341 9.17104 704.471 8.00578 705.865 8.00578C707.259 8.00578 708.388 9.17104 708.388 10.6085Z" fill="#C6E8FF"/>
  <path opacity="0.2" d="M1009 81.0022C1027.23 81.0022 1042 66.2276 1042 48.0022C1042 29.7768 1027.23 15.0022 1009 15.0022C990.775 15.0022 976 29.7768 976 48.0022C976 66.2276 990.775 81.0022 1009 81.0022Z" fill="#66737F"/>
  <path fill-rule="evenodd" clip-rule="evenodd" d="M1009 35.5496C1002.08 35.5496 996.547 41.1764 996.547 48.0024C996.547 54.9206 1002.17 60.4552 1009 60.4552C1015.83 60.4552 1021.45 54.9206 1021.45 48.0024C1021.45 41.0842 1015.92 35.5496 1009 35.5496ZM1009 57.5034C1003.74 57.5034 999.499 53.2602 999.499 48.0024C999.499 42.7445 1003.74 38.5013 1009 38.5013C1014.26 38.5013 1018.5 42.7445 1018.5 48.0024C1018.5 53.2602 1014.26 57.5034 1009 57.5034Z" fill="transparent"/>
  <path fill-rule="evenodd" clip-rule="evenodd" d="M1009 45.9729C1007.89 45.9729 1006.97 46.8953 1006.97 48.0023C1006.97 49.1092 1007.89 50.0316 1009 50.0316C1010.11 50.0316 1011.03 49.1092 1011.03 48.0023C1011.03 46.8953 1010.11 45.9729 1009 45.9729Z" fill="transparent"/>
  <path fill-rule="evenodd" clip-rule="evenodd" d="M994.333 48.0024C994.333 56.1198 1000.88 62.669 1009 62.669C1017.12 62.669 1023.67 56.1198 1023.67 48.0024C1023.67 39.885 1017.12 33.3357 1009 33.3357C1000.97 33.3357 994.333 39.885 994.333 48.0024ZM996.547 48.0024C996.547 41.0841 1002.17 35.5495 1009 35.5495C1015.83 35.5495 1021.45 41.0841 1021.45 48.0024C1021.45 54.9206 1015.83 60.4552 1009 60.4552C1002.17 60.4552 996.547 54.9206 996.547 48.0024ZM1009 57.5034C1003.74 57.5034 999.499 53.2602 999.499 48.0024C999.499 42.7445 1003.74 38.5013 1009 38.5013C1014.26 38.5013 1018.5 42.7445 1018.5 48.0024C1018.5 53.2602 1014.26 57.5034 1009 57.5034ZM1009 40.7151C1004.94 40.7151 1001.71 43.9437 1001.71 48.0024C1001.71 52.0611 1004.94 55.2896 1009 55.2896C1013.06 55.2896 1016.29 52.0611 1016.29 48.0024C1016.29 43.9437 1013.06 40.7151 1009 40.7151ZM1009 52.1533C1006.69 52.1533 1004.85 50.3084 1004.85 48.0024C1004.85 45.6963 1006.69 43.8514 1009 43.8514C1011.31 43.8514 1013.15 45.6963 1013.15 48.0024C1013.15 50.3084 1011.31 52.1533 1009 52.1533ZM1009 45.973C1007.89 45.973 1006.97 46.8954 1006.97 48.0024C1006.97 49.1093 1007.89 50.0317 1009 50.0317C1010.11 50.0317 1011.03 49.1093 1011.03 48.0024C1011.03 46.8954 1010.11 45.973 1009 45.973Z" fill="#FA7548"/>
  <path opacity="0.2" d="M883 30.0032C891.284 30.0032 898 23.2874 898 15.0032C898 6.7189 891.284 0.00317383 883 0.00317383C874.716 0.00317383 868 6.7189 868 15.0032C868 23.2874 874.716 30.0032 883 30.0032Z" fill="#66737F"/>
  <path fill-rule="evenodd" clip-rule="evenodd" d="M883 9.34277C879.856 9.34277 877.34 11.9004 877.34 15.0032C877.34 18.1478 879.897 20.6635 883 20.6635C886.103 20.6635 888.661 18.1478 888.661 15.0032C888.661 11.8585 886.145 9.34277 883 9.34277ZM883 19.3218C880.61 19.3218 878.682 17.3931 878.682 15.0032C878.682 12.6132 880.61 10.6845 883 10.6845C885.39 10.6845 887.319 12.6132 887.319 15.0032C887.319 17.3931 885.39 19.3218 883 19.3218Z" fill="transparent"/>
  <path fill-rule="evenodd" clip-rule="evenodd" d="M883.001 14.0808C882.497 14.0808 882.078 14.5001 882.078 15.0032C882.078 15.5064 882.497 15.9257 883.001 15.9257C883.504 15.9257 883.923 15.5064 883.923 15.0032C883.923 14.5001 883.504 14.0808 883.001 14.0808Z" fill="transparent"/>
  <path fill-rule="evenodd" clip-rule="evenodd" d="M876.333 15.0031C876.333 18.6928 879.31 21.6698 883 21.6698C886.689 21.6698 889.666 18.6928 889.666 15.0031C889.666 11.3134 886.689 8.33643 883 8.33643C879.352 8.33643 876.333 11.3134 876.333 15.0031ZM877.339 15.0031C877.339 11.8584 879.897 9.34271 883 9.34271C886.102 9.34271 888.66 11.8584 888.66 15.0031C888.66 18.1477 886.102 20.6635 883 20.6635C879.897 20.6635 877.339 18.1477 877.339 15.0031ZM883 19.3218C880.61 19.3218 878.681 17.393 878.681 15.0031C878.681 12.6132 880.61 10.6844 883 10.6844C885.39 10.6844 887.318 12.6132 887.318 15.0031C887.318 17.393 885.39 19.3218 883 19.3218ZM883 11.6907C881.155 11.6907 879.687 13.1582 879.687 15.0031C879.687 16.848 881.155 18.3155 883 18.3155C884.845 18.3155 886.312 16.848 886.312 15.0031C886.312 13.1582 884.845 11.6907 883 11.6907ZM883 16.8899C881.951 16.8899 881.113 16.0513 881.113 15.0031C881.113 13.9549 881.951 13.1163 883 13.1163C884.048 13.1163 884.886 13.9549 884.886 15.0031C884.886 16.0513 884.048 16.8899 883 16.8899ZM883 14.0807C882.497 14.0807 882.077 14.4999 882.077 15.0031C882.077 15.5062 882.497 15.9255 883 15.9255C883.503 15.9255 883.922 15.5062 883.922 15.0031C883.922 14.4999 883.503 14.0807 883 14.0807Z" fill="#FA7548"/>
  <path opacity="0.2" d="M1009 206.005C1020.05 206.005 1029 197.05 1029 186.004C1029 174.958 1020.05 166.003 1009 166.003C997.954 166.003 989 174.958 989 186.004C989 197.05 997.954 206.005 1009 206.005Z" fill="#66737F"/>
  <path fill-rule="evenodd" clip-rule="evenodd" d="M1009 178.457C1004.81 178.457 1001.45 181.867 1001.45 186.004C1001.45 190.197 1004.86 193.552 1009 193.552C1013.14 193.552 1016.55 190.197 1016.55 186.004C1016.55 181.811 1013.19 178.457 1009 178.457ZM1009 191.763C1005.81 191.763 1003.24 189.191 1003.24 186.004C1003.24 182.817 1005.81 180.246 1009 180.246C1012.19 180.246 1014.76 182.817 1014.76 186.004C1014.76 189.191 1012.19 191.763 1009 191.763Z" fill="transparent"/>
  <path fill-rule="evenodd" clip-rule="evenodd" d="M1009 184.774C1008.33 184.774 1007.77 185.333 1007.77 186.004C1007.77 186.675 1008.33 187.234 1009 187.234C1009.67 187.234 1010.23 186.675 1010.23 186.004C1010.23 185.333 1009.67 184.774 1009 184.774Z" fill="transparent"/>
  <path fill-rule="evenodd" clip-rule="evenodd" d="M1000.11 186.004C1000.11 190.924 1004.08 194.893 1009 194.893C1013.92 194.893 1017.89 190.924 1017.89 186.004C1017.89 181.084 1013.92 177.115 1009 177.115C1004.14 177.115 1000.11 181.084 1000.11 186.004ZM1001.45 186.004C1001.45 181.811 1004.86 178.457 1009 178.457C1013.14 178.457 1016.55 181.811 1016.55 186.004C1016.55 190.197 1013.14 193.552 1009 193.552C1004.86 193.552 1001.45 190.197 1001.45 186.004ZM1009 191.763C1005.81 191.763 1003.24 189.191 1003.24 186.004C1003.24 182.817 1005.81 180.246 1009 180.246C1012.19 180.246 1014.76 182.817 1014.76 186.004C1014.76 189.191 1012.19 191.763 1009 191.763ZM1009 181.587C1006.54 181.587 1004.58 183.544 1004.58 186.004C1004.58 188.464 1006.54 190.421 1009 190.421C1011.46 190.421 1013.42 188.464 1013.42 186.004C1013.42 183.544 1011.46 181.587 1009 181.587ZM1009 188.52C1007.6 188.52 1006.48 187.402 1006.48 186.004C1006.48 184.606 1007.6 183.488 1009 183.488C1010.4 183.488 1011.52 184.606 1011.52 186.004C1011.52 187.402 1010.4 188.52 1009 188.52ZM1009 184.774C1008.33 184.774 1007.77 185.333 1007.77 186.004C1007.77 186.675 1008.33 187.234 1009 187.234C1009.67 187.234 1010.23 186.675 1010.23 186.004C1010.23 185.333 1009.67 184.774 1009 184.774Z" fill="#FA7548"/>
  <path opacity="0.2" d="M24 111.003C37.2548 111.003 48 100.258 48 87.0029C48 73.748 37.2548 63.0027 24 63.0027C10.7452 63.0027 0 73.748 0 87.0029C0 100.258 10.7452 111.003 24 111.003Z" fill="#66737F"/>
  <path fill-rule="evenodd" clip-rule="evenodd" d="M24 77.9463C18.9685 77.9463 14.9434 82.0386 14.9434 87.003C14.9434 92.0345 19.0356 96.0597 24 96.0597C28.9643 96.0597 33.0566 92.0345 33.0566 87.003C33.0566 81.9715 29.0314 77.9463 24 77.9463ZM24 93.9129C20.1761 93.9129 17.0901 90.8269 17.0901 87.003C17.0901 83.179 20.1761 80.0931 24 80.0931C27.8239 80.0931 30.9098 83.179 30.9098 87.003C30.9098 90.8269 27.8239 93.9129 24 93.9129Z" fill="transparent"/>
  <path fill-rule="evenodd" clip-rule="evenodd" d="M24.0003 85.5271C23.1953 85.5271 22.5244 86.198 22.5244 87.003C22.5244 87.808 23.1953 88.4789 24.0003 88.4789C24.8053 88.4789 25.4762 87.808 25.4762 87.003C25.4762 86.198 24.8053 85.5271 24.0003 85.5271Z" fill="transparent"/>
  <path fill-rule="evenodd" clip-rule="evenodd" d="M13.333 87.003C13.333 92.9066 18.0961 97.6697 23.9997 97.6697C29.9032 97.6697 34.6663 92.9066 34.6663 87.003C34.6663 81.0993 29.9032 76.3362 23.9997 76.3362C18.1632 76.3362 13.333 81.0993 13.333 87.003ZM14.9431 87.003C14.9431 81.9715 19.0353 77.9463 23.9997 77.9463C28.964 77.9463 33.0563 81.9715 33.0563 87.003C33.0563 92.0345 28.964 96.0597 23.9997 96.0597C19.0353 96.0597 14.9431 92.0345 14.9431 87.003ZM23.9997 93.9129C20.1758 93.9129 17.0898 90.8269 17.0898 87.003C17.0898 83.179 20.1758 80.093 23.9997 80.093C27.8236 80.093 30.9095 83.179 30.9095 87.003C30.9095 90.8269 27.8236 93.9129 23.9997 93.9129ZM23.9997 81.7031C21.0479 81.7031 18.6999 84.0511 18.6999 87.003C18.6999 89.9548 21.0479 92.3028 23.9997 92.3028C26.9515 92.3028 29.2995 89.9548 29.2995 87.003C29.2995 84.0511 26.9515 81.7031 23.9997 81.7031ZM23.9997 90.0219C22.3225 90.0219 20.9808 88.6801 20.9808 87.003C20.9808 85.3258 22.3225 83.9841 23.9997 83.9841C25.6768 83.9841 27.0185 85.3258 27.0185 87.003C27.0185 88.6801 25.6768 90.0219 23.9997 90.0219ZM23.9997 85.527C23.1946 85.527 22.5238 86.1979 22.5238 87.003C22.5238 87.808 23.1946 88.4789 23.9997 88.4789C24.8047 88.4789 25.4756 87.808 25.4756 87.003C25.4756 86.1979 24.8047 85.527 23.9997 85.527Z" fill="#FA7548"/>
</svg>
