<svg width="1035" height="278" viewBox="0 0 1035 278" fill="none"
  xmlns="http://www.w3.org/2000/svg">
  <path opacity="0.5" fill-rule="evenodd" clip-rule="evenodd" d="M151.842 93.8169L0.282227 183.923L151.847 273.979L303.36 183.923L454.9 93.8169L303.358 3.70801L151.842 93.8169Z" fill="transparent"/>
  <path opacity="0.35" fill-rule="evenodd" clip-rule="evenodd" d="M151.846 93.8124L303.362 3.70345L303.364 3.70612V-176.506L151.846 93.8124Z" fill="transparent"/>
  <path fill-rule="evenodd" clip-rule="evenodd" d="M303.356 -176.506V3.70612L454.895 93.8124L303.356 -176.506Z" fill="transparent"/>
  <path opacity="0.35" fill-rule="evenodd" clip-rule="evenodd" d="M303.342 183.921L151.826 274.03L151.823 274.027V454.24L303.342 183.921Z" fill="transparent"/>
  <path fill-rule="evenodd" clip-rule="evenodd" d="M151.821 454.24V274.027L0.282227 183.921L151.821 454.24Z" fill="transparent"/>
  <path d="M945.705 65.6021C945.705 67.0396 944.576 68.2048 943.182 68.2048C941.788 68.2048 940.658 67.0396 940.658 65.6021C940.658 64.1647 941.788 62.9994 943.182 62.9994C944.576 62.9994 945.705 64.1647 945.705 65.6021Z" fill="#C6E8FF"/>
  <path d="M981.577 252.601C981.577 254.038 980.448 255.204 979.054 255.204C977.66 255.204 976.53 254.038 976.53 252.601C976.53 251.163 977.66 249.998 979.054 249.998C980.448 249.998 981.577 251.163 981.577 252.601Z" fill="#C6E8FF"/>
  <path d="M823.547 201.601C823.547 203.039 822.418 204.204 821.024 204.204C819.63 204.204 818.5 203.039 818.5 201.601C818.5 200.164 819.63 198.999 821.024 198.999C822.418 198.999 823.547 200.164 823.547 201.601Z" fill="#C6E8FF"/>
  <path d="M558.87 206.604C558.87 208.041 557.741 209.207 556.347 209.207C554.953 209.207 553.823 208.041 553.823 206.604C553.823 205.166 554.953 204.001 556.347 204.001C557.741 204.001 558.87 205.166 558.87 206.604Z" fill="#FED5C6"/>
  <path d="M601.528 32.6046C601.528 34.042 600.399 35.2073 599.005 35.2073C597.611 35.2073 596.481 34.042 596.481 32.6046C596.481 31.1671 597.611 30.0019 599.005 30.0019C600.399 30.0019 601.528 31.1671 601.528 32.6046Z" fill="#C6E8FF"/>
  <path d="M622.857 171.604C622.857 173.041 621.728 174.207 620.334 174.207C618.94 174.207 617.811 173.041 617.811 171.604C617.811 170.166 618.94 169.001 620.334 169.001C621.728 169.001 622.857 170.166 622.857 171.604Z" fill="#C6E8FF"/>
  <path d="M479.37 168.604C479.37 170.041 478.241 171.206 476.847 171.206C475.453 171.206 474.323 170.041 474.323 168.604C474.323 167.166 475.453 166.001 476.847 166.001C478.241 166.001 479.37 167.166 479.37 168.604Z" fill="#C6E8FF"/>
  <path d="M0.430511 231.604C0.430511 233.041 -0.698517 234.206 -2.09239 234.206C-3.48627 234.206 -4.61621 233.041 -4.61621 231.604C-4.61621 230.166 -3.48627 229.001 -2.09239 229.001C-0.698517 229.001 0.430511 230.166 0.430511 231.604Z" fill="#FED5C6"/>
  <path d="M259.29 50.6046C259.29 52.042 258.161 53.2073 256.767 53.2073C255.373 53.2073 254.243 52.042 254.243 50.6046C254.243 49.1671 255.373 48.0019 256.767 48.0019C258.161 48.0019 259.29 49.1671 259.29 50.6046Z" fill="#C6E8FF"/>
  <path d="M101.26 196.604C101.26 198.041 100.131 199.207 98.7367 199.207C97.3428 199.207 96.2129 198.041 96.2129 196.604C96.2129 195.166 97.3428 194.001 98.7367 194.001C100.131 194.001 101.26 195.166 101.26 196.604Z" fill="#C6E8FF"/>
  <path d="M701.388 43.6046C701.388 45.042 700.259 46.2073 698.865 46.2073C697.471 46.2073 696.341 45.042 696.341 43.6046C696.341 42.1671 697.471 41.0019 698.865 41.0019C700.259 41.0019 701.388 42.1671 701.388 43.6046Z" fill="#C6E8FF"/>
  <path opacity="0.2" d="M1002 113.997C1020.23 113.997 1035 99.2228 1035 80.9974C1035 62.772 1020.23 47.9974 1002 47.9974C983.775 47.9974 969 62.772 969 80.9974C969 99.2228 983.775 113.997 1002 113.997Z" fill="#66737F"/>
  <path d="M1015.46 70.8356L1002.33 66.401C1002.05 66.3086 1001.77 66.3086 1001.49 66.401L988.357 70.8356C987.333 71.2052 987.333 72.0366 987.333 72.0366V89.3133C987.333 89.7752 987.612 90.2372 988.171 90.422L1001.58 95.5957C1001.86 95.6881 1002.33 95.6881 1002.42 95.5957L1015.83 90.422C1016.29 90.2372 1016.67 89.7752 1016.67 89.3133V72.0366C1016.57 71.6671 1016.39 70.928 1015.46 70.8356ZM1001.95 68.8031L1011.82 72.129L1001.95 75.917L992.082 72.129L1001.95 68.8031ZM1014.15 88.3894L1003.26 92.6393V78.1343L1014.25 73.8844V88.3894H1014.15Z" fill="#009BFF"/>
  <path d="M989.754 88.3894V73.8844L1000.74 78.0419V92.6393L989.754 88.3894Z" fill="transparent"/>
  <path opacity="0.2" d="M876 62.9991C884.284 62.9991 891 56.2834 891 47.9992C891 39.715 884.284 32.9994 876 32.9994C867.716 32.9994 861 39.715 861 47.9992C861 56.2834 867.716 62.9991 876 62.9991Z" fill="#66737F"/>
  <path d="M877.667 51.5826H874.167L872.417 48.5409L875.417 43.7076V46.5826C874.834 46.7909 874.417 47.3743 874.417 47.9993C874.417 48.8326 875.084 49.4992 875.959 49.4992C876.792 49.4992 877.5 48.8326 877.5 47.9993C877.5 47.3326 877.084 46.7909 876.5 46.5826V43.7076L879.5 48.5409L877.667 51.5826Z" fill="transparent"/>
  <path d="M880.422 48.2214L876.355 41.6233C876.148 41.2913 875.691 41.2913 875.484 41.6233L871.417 48.2214C871.334 48.3874 871.334 48.5949 871.417 48.7193L873.118 51.7487C872.662 51.9977 872.371 52.4956 872.371 53.0766C872.371 53.9066 873.035 54.5705 873.907 54.5705H877.973C878.803 54.5705 879.509 53.9066 879.509 53.0766C879.509 52.5371 879.177 52.0392 878.72 51.7487L880.463 48.7608C880.546 48.5534 880.546 48.3874 880.422 48.2214ZM875.94 47.4744C876.231 47.4744 876.438 47.6819 876.438 47.9724C876.438 48.2629 876.231 48.4704 875.94 48.4704C875.65 48.4704 875.442 48.2629 875.442 47.9724C875.442 47.6819 875.65 47.4744 875.94 47.4744ZM877.932 53.5746H873.865C873.575 53.5746 873.367 53.3671 873.367 53.0766C873.367 52.7861 873.575 52.5786 873.865 52.5786H877.932C878.222 52.5786 878.471 52.8276 878.471 53.0766C878.471 53.3256 878.222 53.5746 877.932 53.5746ZM877.641 51.5412H874.156L872.413 48.5119L875.401 43.6981V46.5615C874.82 46.769 874.405 47.3499 874.405 47.9724C874.405 48.8023 875.069 49.4663 875.94 49.4663C876.77 49.4663 877.475 48.8023 877.475 47.9724C877.475 47.3084 877.06 46.769 876.48 46.5615V43.6981L879.467 48.5119L877.641 51.5412Z" fill="#DF425A"/>
  <path opacity="0.2" d="M1002 239C1013.05 239 1022 230.046 1022 219C1022 207.954 1013.05 199 1002 199C990.954 199 982 207.954 982 219C982 230.046 990.954 239 1002 239Z" fill="#66737F"/>
  <path d="M1008.26 213.252H1006.7C1005.47 211.345 1003.34 210.111 1000.99 210.111C997.244 210.111 994.223 213.139 994.223 216.897C994.223 217.121 994.223 218.748 994.223 218.972C994.223 219.701 994.558 220.71 995.23 221.271L994.223 227.272C994.223 227.44 994.223 227.552 994.335 227.721C994.446 227.833 994.558 227.889 994.726 227.889H1003.06C1003.34 227.889 1003.57 227.665 1003.57 227.384V225.758H1005.13C1005.97 225.758 1006.7 225.029 1006.7 224.187V222.561H1007.2C1007.59 222.561 1007.82 222.169 1007.65 221.832L1006.98 220.486H1008.21C1009.05 220.486 1009.77 219.757 1009.77 218.916V214.766C1009.83 213.981 1009.16 213.252 1008.26 213.252ZM1000.99 211.177C1002.73 211.177 1004.35 211.962 1005.41 213.252H1004.12C1003.29 213.252 1002.5 213.644 1002.05 214.317C1001.22 214.317 1000.43 214.71 999.985 215.383H995.509C996.181 212.915 998.362 211.177 1000.99 211.177ZM1006.19 221.608C1005.91 221.608 1005.69 221.832 1005.69 222.112V224.244C1005.69 224.524 1005.47 224.748 1005.19 224.748H1002.95C1002.56 224.748 1002.17 224.58 1001.83 224.3L999.314 221.72C999.09 221.496 998.754 221.496 998.586 221.72C998.362 221.944 998.362 222.281 998.586 222.449L1001.1 225.029C1001.5 225.421 1002.05 225.702 1002.61 225.758V226.879H995.342L996.293 221.159C996.349 220.935 996.237 220.71 996.013 220.598C995.565 220.374 995.23 219.589 995.23 218.972V218.467H999.929C1000.38 219.084 1001.16 219.533 1002 219.533C1002.5 220.206 1003.29 220.598 1004.07 220.598H1005.8L1006.31 221.664H1006.19V221.608Z" fill="#1DC4D7"/>
  <path d="M1003.57 216.897C1003.57 217.738 1002.84 218.467 1002 218.467C1001.16 218.467 1000.43 217.738 1000.43 216.897C1000.43 216.056 1001.16 215.327 1002 215.327C1002.89 215.327 1003.57 216.056 1003.57 216.897Z" fill="transparent"/>
  <path d="M995.229 216.897C995.229 216.729 995.229 216.56 995.229 216.392H999.425C999.369 216.56 999.369 216.729 999.369 216.897C999.369 217.065 999.369 217.233 999.425 217.402H995.229V216.897Z" fill="transparent"/>
  <path d="M1006.7 219.533H1004.07C1003.73 219.533 1003.45 219.421 1003.17 219.252C1004.01 218.804 1004.57 217.962 1004.57 216.953C1004.57 215.944 1004.01 215.046 1003.17 214.654C1003.45 214.485 1003.73 214.373 1004.07 214.373H1006.7V219.533Z" fill="transparent"/>
  <path d="M1008.77 218.972C1008.77 219.252 1008.54 219.477 1008.26 219.477H1007.76V214.261H1008.26C1008.54 214.261 1008.77 214.485 1008.77 214.766C1008.77 214.766 1008.77 218.972 1008.77 218.972Z" fill="transparent"/>
</svg>
