<svg width="1148" height="643" viewBox="0 0 1148 643" fill="none"
  xmlns="http://www.w3.org/2000/svg">
  <rect y="0.00195312" width="1148" height="278" rx="20" fill="url(#paint0_linear)"/>
  <path d="M1001.7 468.606C1001.7 470.043 1000.58 471.209 999.182 471.209C997.788 471.209 996.658 470.043 996.658 468.606C996.658 467.169 997.788 466.003 999.182 466.003C1000.58 466.003 1001.7 467.169 1001.7 468.606Z" fill="#C6E8FF"/>
  <path d="M879.547 604.605C879.547 606.043 878.418 607.208 877.024 607.208C875.63 607.208 874.5 606.043 874.5 604.605C874.5 603.168 875.63 602.003 877.024 602.003C878.418 602.003 879.547 603.168 879.547 604.605Z" fill="#C6E8FF"/>
  <path d="M614.87 609.608C614.87 611.045 613.741 612.21 612.347 612.21C610.953 612.21 609.823 611.045 609.823 609.608C609.823 608.17 610.953 607.005 612.347 607.005C613.741 607.005 614.87 608.17 614.87 609.608Z" fill="#FED5C6"/>
  <path d="M657.528 435.608C657.528 437.046 656.399 438.211 655.005 438.211C653.611 438.211 652.481 437.046 652.481 435.608C652.481 434.171 653.611 433.006 655.005 433.006C656.399 433.006 657.528 434.171 657.528 435.608Z" fill="#C6E8FF"/>
  <path d="M678.857 574.608C678.857 576.045 677.728 577.21 676.334 577.21C674.94 577.21 673.811 576.045 673.811 574.608C673.811 573.17 674.94 572.005 676.334 572.005C677.728 572.005 678.857 573.17 678.857 574.608Z" fill="#C6E8FF"/>
  <path d="M535.37 571.608C535.37 573.045 534.241 574.21 532.847 574.21C531.453 574.21 530.323 573.045 530.323 571.608C530.323 570.17 531.453 569.005 532.847 569.005C534.241 569.005 535.37 570.17 535.37 571.608Z" fill="#C6E8FF"/>
  <path d="M56.4305 634.608C56.4305 636.045 55.3015 637.21 53.9076 637.21C52.5137 637.21 51.3838 636.045 51.3838 634.608C51.3838 633.17 52.5137 632.005 53.9076 632.005C55.3015 632.005 56.4305 633.17 56.4305 634.608Z" fill="#FED5C6"/>
  <path d="M315.29 453.608C315.29 455.046 314.161 456.211 312.767 456.211C311.373 456.211 310.243 455.046 310.243 453.608C310.243 452.171 311.373 451.006 312.767 451.006C314.161 451.006 315.29 452.171 315.29 453.608Z" fill="#C6E8FF"/>
  <path d="M157.26 599.608C157.26 601.045 156.131 602.21 154.737 602.21C153.343 602.21 152.213 601.045 152.213 599.608C152.213 598.17 153.343 597.005 154.737 597.005C156.131 597.005 157.26 598.17 157.26 599.608Z" fill="#C6E8FF"/>
  <path d="M757.388 446.608C757.388 448.046 756.259 449.211 754.865 449.211C753.471 449.211 752.341 448.046 752.341 446.608C752.341 445.171 753.471 444.006 754.865 444.006C756.259 444.006 757.388 445.171 757.388 446.608Z" fill="#C6E8FF"/>
  <path opacity="0.2" d="M1058 517.001C1076.23 517.001 1091 502.227 1091 484.001C1091 465.776 1076.23 451.001 1058 451.001C1039.77 451.001 1025 465.776 1025 484.001C1025 502.227 1039.77 517.001 1058 517.001Z" fill="#66737F"/>
  <path d="M1071.46 473.84L1058.33 469.405C1058.05 469.313 1057.77 469.313 1057.49 469.405L1044.36 473.84C1043.33 474.209 1043.33 475.041 1043.33 475.041V492.317C1043.33 492.779 1043.61 493.241 1044.17 493.426L1057.58 498.6C1057.86 498.692 1058.33 498.692 1058.42 498.6L1071.83 493.426C1072.29 493.241 1072.67 492.779 1072.67 492.317V475.041C1072.57 474.671 1072.39 473.932 1071.46 473.84ZM1057.95 471.807L1067.82 475.133L1057.95 478.921L1048.08 475.133L1057.95 471.807ZM1070.15 491.393L1059.26 495.643V481.138L1070.25 476.888V491.393H1070.15Z" fill="#009BFF"/>
  <path d="M1045.75 491.393V476.888L1056.74 481.046V495.643L1045.75 491.393Z" fill="transparent"/>
  <path opacity="0.2" d="M932 466.003C940.284 466.003 947 459.287 947 451.003C947 442.718 940.284 436.003 932 436.003C923.716 436.003 917 442.718 917 451.003C917 459.287 923.716 466.003 932 466.003Z" fill="#66737F"/>
  <path d="M938.116 446.384L932.148 444.368C932.021 444.326 931.894 444.326 931.767 444.368L925.799 446.384C925.333 446.552 925.333 446.93 925.333 446.93V454.783C925.333 454.993 925.46 455.203 925.714 455.287L931.809 457.638C931.936 457.68 932.148 457.68 932.19 457.638L938.285 455.287C938.497 455.203 938.666 454.993 938.666 454.783V446.93C938.624 446.762 938.539 446.426 938.116 446.384ZM931.979 445.46L936.465 446.972L931.979 448.693L927.492 446.972L931.979 445.46ZM937.523 454.363L932.571 456.294V449.701L937.566 447.769V454.363H937.523Z" fill="#009BFF"/>
  <path d="M926.434 454.363V447.77L931.428 449.659V456.294L926.434 454.363Z" fill="transparent"/>
  <path opacity="0.2" d="M1058 642.004C1069.05 642.004 1078 633.05 1078 622.003C1078 610.957 1069.05 602.002 1058 602.002C1046.95 602.002 1038 610.957 1038 622.003C1038 633.05 1046.95 642.004 1058 642.004Z" fill="#66737F"/>
  <path d="M1066.16 615.844L1058.2 613.156C1058.03 613.101 1057.86 613.101 1057.69 613.156L1049.73 615.844C1049.11 616.068 1049.11 616.572 1049.11 616.572V627.043C1049.11 627.323 1049.28 627.603 1049.62 627.715L1057.75 630.851C1057.92 630.907 1058.2 630.907 1058.25 630.851L1066.38 627.715C1066.66 627.603 1066.89 627.323 1066.89 627.043V616.572C1066.83 616.348 1066.72 615.9 1066.16 615.844ZM1057.97 614.612L1063.95 616.628L1057.97 618.924L1051.99 616.628L1057.97 614.612ZM1065.37 626.483L1058.76 629.059V620.268L1065.42 617.692V626.483H1065.37Z" fill="#009BFF"/>
  <path d="M1050.58 626.483V617.692L1057.24 620.212V629.059L1050.58 626.483Z" fill="transparent"/>
  <path opacity="0.2" d="M73 547.002C86.2548 547.002 97 536.257 97 523.002C97 509.747 86.2548 499.002 73 499.002C59.7452 499.002 49 509.747 49 523.002C49 536.257 59.7452 547.002 73 547.002Z" fill="#66737F"/>
  <path d="M82.7859 515.612L73.2367 512.387C73.0335 512.319 72.8304 512.319 72.6272 512.387L63.078 515.612C62.333 515.881 62.333 516.485 62.333 516.485V529.05C62.333 529.386 62.5362 529.722 62.9425 529.857L72.6949 533.619C72.8981 533.687 73.2367 533.687 73.3044 533.619L83.0568 529.857C83.3954 529.722 83.6663 529.386 83.6663 529.05V516.485C83.5986 516.217 83.4632 515.679 82.7859 515.612ZM72.9658 514.134L80.1446 516.552L72.9658 519.307L65.787 516.552L72.9658 514.134ZM81.8378 528.378L73.914 531.469V520.92L81.9055 517.829V528.378H81.8378Z" fill="#009BFF"/>
  <path d="M64.0938 528.378V517.829L72.0853 520.853V531.469L64.0938 528.378Z" fill="transparent"/>
  <defs>
    <linearGradient id="paint0_linear" x1="574" y1="0.00195312" x2="574" y2="278.002" gradientUnits="userSpaceOnUse">
      <stop stop-color="#323C47"/>
      <stop offset="1" stop-color="#0A1827"/>
    </linearGradient>
  </defs>
</svg>
