<svg width="1042" height="207" viewBox="0 0 1042 207" fill="none"
  xmlns="http://www.w3.org/2000/svg">
  <path d="M952.705 32.6058C952.705 34.0432 951.576 35.2085 950.182 35.2085C948.788 35.2085 947.658 34.0432 947.658 32.6058C947.658 31.1684 948.788 30.0031 950.182 30.0031C951.576 30.0031 952.705 31.1684 952.705 32.6058Z" fill="#C6E8FF"/>
  <path d="M830.547 168.605C830.547 170.043 829.418 171.208 828.024 171.208C826.63 171.208 825.5 170.043 825.5 168.605C825.5 167.168 826.63 166.003 828.024 166.003C829.418 166.003 830.547 167.168 830.547 168.605Z" fill="#C6E8FF"/>
  <path d="M565.87 173.608C565.87 175.045 564.741 176.21 563.347 176.21C561.953 176.21 560.823 175.045 560.823 173.608C560.823 172.17 561.953 171.005 563.347 171.005C564.741 171.005 565.87 172.17 565.87 173.608Z" fill="#FED5C6"/>
  <path d="M608.528 -0.391273C608.528 1.04616 607.399 2.21143 606.005 2.21143C604.611 2.21143 603.481 1.04616 603.481 -0.391273C603.481 -1.82871 604.611 -2.99397 606.005 -2.99397C607.399 -2.99397 608.528 -1.82871 608.528 -0.391273Z" fill="#C6E8FF"/>
  <path d="M629.857 138.608C629.857 140.045 628.728 141.21 627.334 141.21C625.94 141.21 624.811 140.045 624.811 138.608C624.811 137.17 625.94 136.005 627.334 136.005C628.728 136.005 629.857 137.17 629.857 138.608Z" fill="#C6E8FF"/>
  <path d="M486.37 135.607C486.37 137.045 485.241 138.21 483.847 138.21C482.453 138.21 481.323 137.045 481.323 135.607C481.323 134.17 482.453 133.005 483.847 133.005C485.241 133.005 486.37 134.17 486.37 135.607Z" fill="#C6E8FF"/>
  <path d="M7.43051 198.608C7.43051 200.045 6.30148 201.21 4.90761 201.21C3.51373 201.21 2.38379 200.045 2.38379 198.608C2.38379 197.17 3.51373 196.005 4.90761 196.005C6.30148 196.005 7.43051 197.17 7.43051 198.608Z" fill="#FED5C6"/>
  <path d="M266.29 17.6082C266.29 19.0457 265.161 20.2109 263.767 20.2109C262.373 20.2109 261.243 19.0457 261.243 17.6082C261.243 16.1708 262.373 15.0055 263.767 15.0055C265.161 15.0055 266.29 16.1708 266.29 17.6082Z" fill="#C6E8FF"/>
  <path d="M108.26 163.608C108.26 165.045 107.131 166.21 105.737 166.21C104.343 166.21 103.213 165.045 103.213 163.608C103.213 162.17 104.343 161.005 105.737 161.005C107.131 161.005 108.26 162.17 108.26 163.608Z" fill="#C6E8FF"/>
  <path d="M708.388 10.6082C708.388 12.0457 707.259 13.2109 705.865 13.2109C704.471 13.2109 703.341 12.0457 703.341 10.6082C703.341 9.17079 704.471 8.00553 705.865 8.00553C707.259 8.00553 708.388 9.17079 708.388 10.6082Z" fill="#C6E8FF"/>
  <path opacity="0.2" d="M1009 81.0006C1027.23 81.0006 1042 66.2268 1042 48.0023C1042 29.7778 1027.23 15.0039 1009 15.0039C990.775 15.0039 976 29.7778 976 48.0023C976 66.2268 990.775 81.0006 1009 81.0006Z" fill="#66737F"/>
  <path opacity="0.1" d="M1015.63 47.1353H999.367V58.2832H1015.63V47.1353Z" fill="transparent"/>
  <path fill-rule="evenodd" clip-rule="evenodd" d="M1001.47 33.7031C998.819 33.7031 996.717 35.8882 996.717 38.4375C996.717 40.9867 998.819 43.1718 1001.47 43.1718C1004.12 43.1718 1006.22 40.9867 1006.22 38.4375C1006.22 35.8882 1004.12 33.7031 1001.47 33.7031ZM1001.47 40.9867C1000.1 40.9867 999.093 39.8942 999.093 38.5285C999.093 37.1628 1000.19 36.0703 1001.47 36.0703C1002.84 36.0703 1003.84 37.1628 1003.84 38.5285C1003.94 39.8942 1002.84 40.9867 1001.47 40.9867ZM999.001 44.7196H1016.09C1017.19 44.7196 1018.01 45.63 1018.01 46.7225V48.9076L1024.41 46.0852C1024.77 45.9031 1025.23 45.9942 1025.5 46.1763C1025.87 46.3584 1026.05 46.7225 1026.05 47.1778V58.3763C1026.05 58.7405 1025.87 59.1046 1025.5 59.3778C1025.32 59.4688 1025.04 59.5599 1024.86 59.5599C1024.68 59.5599 1024.59 59.5599 1024.41 59.4688L1018.01 56.6464V58.7405C1018.01 59.833 1017.09 60.7435 1016.09 60.7435H999.001C997.905 60.7435 997.082 59.833 997.082 58.7405V46.7225C996.991 45.63 997.905 44.7196 999.001 44.7196ZM1018.01 54.0061L1023.77 56.4643V48.9076L1018.01 51.4569V54.0061ZM999.367 58.1942H1015.63V47.0867H999.367V58.1942ZM1007.96 38.5285C1007.96 35.8882 1010.06 33.7942 1012.71 33.7942C1015.36 33.7942 1017.46 35.9792 1017.46 38.5285C1017.46 41.0778 1015.36 43.2628 1012.71 43.2628C1010.06 43.2628 1007.96 41.1688 1007.96 38.5285ZM1010.24 38.5285C1010.24 39.8942 1011.34 40.9867 1012.62 40.9867C1013.99 40.9867 1014.99 39.8942 1014.99 38.5285C1014.99 37.1628 1013.9 36.0703 1012.62 36.0703C1011.34 36.0703 1010.24 37.1628 1010.24 38.5285Z" fill="#FEB12B"/>
  <path opacity="0.2" d="M883 30.0024C891.284 30.0024 898 23.287 898 15.0032C898 6.7193 891.284 0.00390625 883 0.00390625C874.716 0.00390625 868 6.7193 868 15.0032C868 23.287 874.716 30.0024 883 30.0024Z" fill="#66737F"/>
  <path opacity="0.1" d="M886.015 14.6089H878.621V19.6761H886.015V14.6089Z" fill="transparent"/>
  <path fill-rule="evenodd" clip-rule="evenodd" d="M879.577 8.50342C878.372 8.50342 877.417 9.49664 877.417 10.6554C877.417 11.8141 878.372 12.8074 879.577 12.8074C880.781 12.8074 881.737 11.8141 881.737 10.6554C881.737 9.49664 880.781 8.50342 879.577 8.50342ZM879.577 11.8141C878.954 11.8141 878.497 11.3175 878.497 10.6968C878.497 10.076 878.995 9.5794 879.577 9.5794C880.2 9.5794 880.657 10.076 880.657 10.6968C880.698 11.3175 880.2 11.8141 879.577 11.8141ZM878.455 13.5109H886.223C886.721 13.5109 887.095 13.9247 887.095 14.4213V15.4146L890.003 14.1316C890.169 14.0489 890.376 14.0903 890.501 14.173C890.667 14.2558 890.75 14.4213 890.75 14.6283V19.7185C890.75 19.884 890.667 20.0496 890.501 20.1737C890.418 20.2151 890.293 20.2565 890.21 20.2565C890.127 20.2565 890.086 20.2565 890.003 20.2151L887.095 18.9322V19.884C887.095 20.3806 886.68 20.7945 886.223 20.7945H878.455C877.957 20.7945 877.583 20.3806 877.583 19.884V14.4213C877.542 13.9247 877.957 13.5109 878.455 13.5109ZM887.095 17.7321L889.712 18.8494V15.4146L887.095 16.5733V17.7321ZM878.622 19.6357H886.015V14.5869H878.622V19.6357ZM882.526 10.6968C882.526 9.49664 883.481 8.5448 884.686 8.5448C885.891 8.5448 886.846 9.53802 886.846 10.6968C886.846 11.8555 885.891 12.8487 884.686 12.8487C883.481 12.8487 882.526 11.8969 882.526 10.6968ZM883.564 10.6968C883.564 11.3175 884.063 11.8141 884.644 11.8141C885.267 11.8141 885.724 11.3175 885.724 10.6968C885.724 10.076 885.226 9.5794 884.644 9.5794C884.063 9.5794 883.564 10.076 883.564 10.6968Z" fill="#FEB12B"/>
  <path opacity="0.2" d="M1009 206.004C1020.05 206.004 1029 197.05 1029 186.004C1029 174.958 1020.05 166.004 1009 166.004C997.954 166.004 989 174.958 989 186.004C989 197.05 997.954 206.004 1009 206.004Z" fill="#66737F"/>
  <path opacity="0.1" d="M1013.02 185.479H1003.16V192.235H1013.02V185.479Z" fill="transparent"/>
  <path fill-rule="evenodd" clip-rule="evenodd" d="M1004.44 177.337C1002.83 177.337 1001.56 178.662 1001.56 180.207C1001.56 181.752 1002.83 183.076 1004.44 183.076C1006.04 183.076 1007.32 181.752 1007.32 180.207C1007.32 178.662 1006.04 177.337 1004.44 177.337ZM1004.44 181.752C1003.6 181.752 1003 181.09 1003 180.262C1003 179.434 1003.66 178.772 1004.44 178.772C1005.27 178.772 1005.88 179.434 1005.88 180.262C1005.93 181.09 1005.27 181.752 1004.44 181.752ZM1002.94 184.014H1013.3C1013.96 184.014 1014.46 184.566 1014.46 185.228V186.553L1018.34 184.842C1018.56 184.732 1018.83 184.787 1019 184.897C1019.22 185.008 1019.33 185.228 1019.33 185.504V192.292C1019.33 192.512 1019.22 192.733 1019 192.899C1018.89 192.954 1018.72 193.009 1018.61 193.009C1018.5 193.009 1018.45 193.009 1018.34 192.954L1014.46 191.243V192.512C1014.46 193.174 1013.91 193.726 1013.3 193.726H1002.94C1002.28 193.726 1001.78 193.174 1001.78 192.512V185.228C1001.72 184.566 1002.28 184.014 1002.94 184.014ZM1014.46 189.643L1017.95 191.133V186.553L1014.46 188.098V189.643ZM1003.16 192.181H1013.02V185.449H1003.16V192.181ZM1008.37 180.262C1008.37 178.662 1009.64 177.393 1011.25 177.393C1012.85 177.393 1014.13 178.717 1014.13 180.262C1014.13 181.807 1012.85 183.131 1011.25 183.131C1009.64 183.131 1008.37 181.862 1008.37 180.262ZM1009.75 180.262C1009.75 181.09 1010.42 181.752 1011.19 181.752C1012.02 181.752 1012.63 181.09 1012.63 180.262C1012.63 179.434 1011.97 178.772 1011.19 178.772C1010.42 178.772 1009.75 179.434 1009.75 180.262Z" fill="#FEB12B"/>
  <path opacity="0.2" d="M24 111.002C37.2548 111.002 48 100.257 48 87.003C48 73.7487 37.2548 63.0039 24 63.0039C10.7452 63.0039 0 73.7487 0 87.003C0 100.257 10.7452 111.002 24 111.002Z" fill="#66737F"/>
  <path opacity="0.1" d="M28.8238 86.3726H16.9941V94.4802H28.8238V86.3726Z" fill="transparent"/>
  <path fill-rule="evenodd" clip-rule="evenodd" d="M18.5223 76.6035C16.595 76.6035 15.0664 78.1927 15.0664 80.0467C15.0664 81.9007 16.595 83.4899 18.5223 83.4899C20.4496 83.4899 21.9781 81.9007 21.9781 80.0467C21.9781 78.1927 20.4496 76.6035 18.5223 76.6035ZM18.5223 81.9007C17.5254 81.9007 16.7943 81.1061 16.7943 80.1129C16.7943 79.1197 17.5918 78.3251 18.5223 78.3251C19.5192 78.3251 20.2502 79.1197 20.2502 80.1129C20.3167 81.1061 19.5192 81.9007 18.5223 81.9007ZM16.7279 84.6155H29.1557C29.9532 84.6155 30.5514 85.2777 30.5514 86.0723V87.6614L35.2035 85.6088C35.4693 85.4763 35.8016 85.5426 36.001 85.675C36.2668 85.8074 36.3997 86.0723 36.3997 86.4034V94.5478C36.3997 94.8127 36.2668 95.0775 36.001 95.2762C35.8681 95.3424 35.6687 95.4086 35.5358 95.4086C35.4029 95.4086 35.3364 95.4086 35.2035 95.3424L30.5514 93.2897V94.8127C30.5514 95.6073 29.8868 96.2694 29.1557 96.2694H16.7279C15.9304 96.2694 15.3322 95.6073 15.3322 94.8127V86.0723C15.2658 85.2777 15.9304 84.6155 16.7279 84.6155ZM30.5514 91.3695L34.7383 93.1573V87.6614L30.5514 89.5155V91.3695ZM16.9937 94.4154H28.8234V86.3371H16.9937V94.4154ZM23.2409 80.1129C23.2409 78.1927 24.7694 76.6697 26.6967 76.6697C28.624 76.6697 30.1526 78.2589 30.1526 80.1129C30.1526 81.9669 28.624 83.5561 26.6967 83.5561C24.7694 83.5561 23.2409 82.0332 23.2409 80.1129ZM24.9023 80.1129C24.9023 81.1061 25.6998 81.9007 26.6303 81.9007C27.6272 81.9007 28.3582 81.1061 28.3582 80.1129C28.3582 79.1197 27.5607 78.3251 26.6303 78.3251C25.6998 78.3251 24.9023 79.1197 24.9023 80.1129Z" fill="#FEB12B"/>
</svg>
