<svg width="1042" height="207" viewBox="0 0 1042 207" fill="none"
  xmlns="http://www.w3.org/2000/svg">
  <path d="M952.703 32.604C952.703 34.0415 951.574 35.2067 950.18 35.2067C948.786 35.2067 947.656 34.0415 947.656 32.604C947.656 31.1666 948.786 30.0013 950.18 30.0013C951.574 30.0013 952.703 31.1666 952.703 32.604Z" fill="#C6E8FF" />
  <path d="M830.547 168.603C830.547 170.041 829.418 171.206 828.024 171.206C826.63 171.206 825.5 170.041 825.5 168.603C825.5 167.166 826.63 166.001 828.024 166.001C829.418 166.001 830.547 167.166 830.547 168.603Z" fill="#C6E8FF" />
  <path d="M565.867 173.606C565.867 175.043 564.738 176.208 563.344 176.208C561.95 176.208 560.82 175.043 560.82 173.606C560.82 172.168 561.95 171.003 563.344 171.003C564.738 171.003 565.867 172.168 565.867 173.606Z" fill="#FED5C6" />
  <path d="M608.527 -0.39341C608.527 1.04403 607.398 2.20929 606.004 2.20929C604.61 2.20929 603.48 1.04403 603.48 -0.39341C603.48 -1.83085 604.61 -2.99611 606.004 -2.99611C607.398 -2.99611 608.527 -1.83085 608.527 -0.39341Z" fill="#C6E8FF" />
  <path d="M629.855 138.606C629.855 140.043 628.726 141.209 627.332 141.209C625.939 141.209 624.809 140.043 624.809 138.606C624.809 137.168 625.939 136.003 627.332 136.003C628.726 136.003 629.855 137.168 629.855 138.606Z" fill="#C6E8FF" />
  <path d="M486.367 135.605C486.367 137.043 485.238 138.208 483.844 138.208C482.45 138.208 481.32 137.043 481.32 135.605C481.32 134.168 482.45 133.003 483.844 133.003C485.238 133.003 486.367 134.168 486.367 135.605Z" fill="#C6E8FF" />
  <path d="M7.42953 198.606C7.42953 200.043 6.30051 201.208 4.90663 201.208C3.51276 201.208 2.38281 200.043 2.38281 198.606C2.38281 197.168 3.51276 196.003 4.90663 196.003C6.30051 196.003 7.42953 197.168 7.42953 198.606Z" fill="#FED5C6" />
  <path d="M266.289 17.6065C266.289 19.044 265.16 20.2092 263.766 20.2092C262.372 20.2092 261.242 19.044 261.242 17.6065C261.242 16.1691 262.372 15.0038 263.766 15.0038C265.16 15.0038 266.289 16.1691 266.289 17.6065Z" fill="#C6E8FF" />
  <path d="M108.258 163.606C108.258 165.043 107.129 166.209 105.735 166.209C104.341 166.209 103.211 165.043 103.211 163.606C103.211 162.168 104.341 161.003 105.735 161.003C107.129 161.003 108.258 162.168 108.258 163.606Z" fill="#C6E8FF" />
  <path d="M708.387 10.6065C708.387 12.044 707.258 13.2092 705.864 13.2092C704.47 13.2092 703.34 12.044 703.34 10.6065C703.34 9.16909 704.47 8.00382 705.864 8.00382C707.258 8.00382 708.387 9.16909 708.387 10.6065Z" fill="#C6E8FF" />
  <path opacity="0.2" d="M1009 81C1027.23 81 1042 66.2255 1042 48.0003C1042 29.7751 1027.23 15.0007 1009 15.0007C990.775 15.0007 976 29.7751 976 48.0003C976 66.2255 990.775 81 1009 81Z" fill="#66737F" />
  <path d="M1012.67 55.8836H1004.97L1001.12 49.192L1007.72 38.5588V44.8837C1006.43 45.342 1005.52 46.6254 1005.52 48.0003C1005.52 49.8337 1006.98 51.3003 1008.91 51.3003C1010.74 51.3003 1012.3 49.8337 1012.3 48.0003C1012.3 46.5337 1011.38 45.342 1010.1 44.8837V38.5588L1016.7 49.192L1012.67 55.8836Z" fill="transparent" />
  <path d="M1008.91 46.9004C1009.55 46.9004 1010.01 47.3587 1010.01 48.0003C1010.01 48.642 1009.55 49.1003 1008.91 49.1003C1008.27 49.1003 1007.81 48.642 1007.81 48.0003C1007.81 47.3587 1008.27 46.9004 1008.91 46.9004Z" fill="transparent" />
  <path d="M1018.73 48.4891L1009.78 33.9732C1009.32 33.2429 1008.32 33.2429 1007.86 33.9732L998.914 48.4891C998.732 48.8543 998.732 49.3108 998.914 49.5847L1002.66 56.2492C1001.65 56.7969 1001.01 57.8925 1001.01 59.1706C1001.01 60.9965 1002.47 62.4572 1004.39 62.4572H1013.34C1015.16 62.4572 1016.72 60.9965 1016.72 59.1706C1016.72 57.9838 1015.99 56.8882 1014.98 56.2492L1018.82 49.676C1019 49.2195 1019 48.8543 1018.73 48.4891ZM1008.87 46.8458C1009.5 46.8458 1009.96 47.3023 1009.96 47.9413C1009.96 48.5804 1009.5 49.0369 1008.87 49.0369C1008.23 49.0369 1007.77 48.5804 1007.77 47.9413C1007.77 47.3023 1008.23 46.8458 1008.87 46.8458ZM1013.25 60.2661H1004.3C1003.66 60.2661 1003.21 59.8097 1003.21 59.1706C1003.21 58.5315 1003.66 58.0751 1004.3 58.0751H1013.25C1013.89 58.0751 1014.43 58.6228 1014.43 59.1706C1014.43 59.7184 1013.89 60.2661 1013.25 60.2661ZM1012.61 55.7927H1004.94L1001.11 49.1282L1007.68 38.538V44.8373C1006.4 45.2938 1005.49 46.5719 1005.49 47.9413C1005.49 49.7672 1006.95 51.228 1008.87 51.228C1010.69 51.228 1012.24 49.7672 1012.24 47.9413C1012.24 46.4806 1011.33 45.2938 1010.05 44.8373V38.538L1016.63 49.1282L1012.61 55.7927Z" fill="#DF425A" />
  <path opacity="0.2" d="M883 30.0011C891.284 30.0011 898 23.2854 898 15.0012C898 6.71703 891.284 0.00137329 883 0.00137329C874.716 0.00137329 868 6.71703 868 15.0012C868 23.2854 874.716 30.0011 883 30.0011Z" fill="#66737F" />
  <path d="M884.668 18.5845H881.168L879.418 15.5429L882.418 10.7096V13.5846C881.835 13.7929 881.418 14.3762 881.418 15.0012C881.418 15.8345 882.085 16.5012 882.96 16.5012C883.793 16.5012 884.501 15.8345 884.501 15.0012C884.501 14.3346 884.085 13.7929 883.501 13.5846V10.7096L886.501 15.5429L884.668 18.5845Z" fill="transparent" />
  <path d="M882.961 14.5012C883.253 14.5012 883.461 14.7096 883.461 15.0012C883.461 15.2929 883.253 15.5012 882.961 15.5012C882.669 15.5012 882.461 15.2929 882.461 15.0012C882.461 14.7096 882.669 14.5012 882.961 14.5012Z" fill="transparent" />
  <path d="M887.423 15.2234L883.356 8.62527C883.148 8.29329 882.692 8.29329 882.485 8.62527L878.418 15.2234C878.335 15.3894 878.335 15.5969 878.418 15.7214L880.119 18.7507C879.663 18.9997 879.372 19.4976 879.372 20.0786C879.372 20.9086 880.036 21.5725 880.908 21.5725H884.974C885.804 21.5725 886.51 20.9086 886.51 20.0786C886.51 19.5391 886.178 19.0412 885.721 18.7507L887.464 15.7629C887.547 15.5554 887.547 15.3894 887.423 15.2234ZM882.941 14.4764C883.231 14.4764 883.439 14.6839 883.439 14.9744C883.439 15.2649 883.231 15.4724 882.941 15.4724C882.651 15.4724 882.443 15.2649 882.443 14.9744C882.443 14.6839 882.651 14.4764 882.941 14.4764ZM884.933 20.5766H880.866C880.576 20.5766 880.368 20.3691 880.368 20.0786C880.368 19.7881 880.576 19.5806 880.866 19.5806H884.933C885.223 19.5806 885.472 19.8296 885.472 20.0786C885.472 20.3276 885.223 20.5766 884.933 20.5766ZM884.642 18.5432H881.157L879.414 15.5139L882.402 10.7001V13.5635C881.821 13.771 881.406 14.3519 881.406 14.9744C881.406 15.8044 882.07 16.4683 882.941 16.4683C883.771 16.4683 884.476 15.8044 884.476 14.9744C884.476 14.3104 884.061 13.771 883.48 13.5635V10.7001L886.468 15.5139L884.642 18.5432Z" fill="#DF425A" />
  <path opacity="0.2" d="M1009 206.003C1020.05 206.003 1029 197.048 1029 186.002C1029 174.956 1020.05 166.001 1009 166.001C997.954 166.001 989 174.956 989 186.002C989 197.048 997.954 206.003 1009 206.003Z" fill="#66737F" />
  <path d="M1011.22 190.78H1006.56L1004.22 186.724L1008.22 180.28V184.113C1007.44 184.391 1006.89 185.169 1006.89 186.002C1006.89 187.113 1007.78 188.002 1008.94 188.002C1010.06 188.002 1011 187.113 1011 186.002C1011 185.113 1010.44 184.391 1009.67 184.113V180.28L1013.67 186.724L1011.22 190.78Z" fill="transparent" />
  <path d="M1008.94 185.335C1009.33 185.335 1009.61 185.613 1009.61 186.002C1009.61 186.391 1009.33 186.669 1008.94 186.669C1008.56 186.669 1008.28 186.391 1008.28 186.002C1008.28 185.613 1008.56 185.335 1008.94 185.335Z" fill="transparent" />
  <path d="M1014.89 186.298L1009.47 177.5C1009.2 177.058 1008.59 177.058 1008.31 177.5L1002.89 186.298C1002.78 186.52 1002.78 186.796 1002.89 186.962L1005.16 191.002C1004.55 191.333 1004.16 191.997 1004.16 192.772C1004.16 193.879 1005.05 194.764 1006.21 194.764H1011.63C1012.74 194.764 1013.68 193.879 1013.68 192.772C1013.68 192.053 1013.23 191.389 1012.63 191.002L1014.95 187.018C1015.06 186.741 1015.06 186.52 1014.89 186.298ZM1008.92 185.302C1009.31 185.302 1009.58 185.579 1009.58 185.966C1009.58 186.354 1009.31 186.63 1008.92 186.63C1008.53 186.63 1008.25 186.354 1008.25 185.966C1008.25 185.579 1008.53 185.302 1008.92 185.302ZM1011.57 193.436H1006.15C1005.76 193.436 1005.49 193.159 1005.49 192.772C1005.49 192.385 1005.76 192.108 1006.15 192.108H1011.57C1011.96 192.108 1012.29 192.44 1012.29 192.772C1012.29 193.104 1011.96 193.436 1011.57 193.436ZM1011.19 190.725H1006.54L1004.22 186.686L1008.2 180.267V184.085C1007.42 184.362 1006.87 185.136 1006.87 185.966C1006.87 187.073 1007.76 187.958 1008.92 187.958C1010.03 187.958 1010.97 187.073 1010.97 185.966C1010.97 185.081 1010.41 184.362 1009.64 184.085V180.267L1013.62 186.686L1011.19 190.725Z" fill="#DF425A" />
  <path opacity="0.2" d="M24 111.001C37.2548 111.001 48 100.256 48 87.001C48 73.7462 37.2548 63.001 24 63.001C10.7452 63.001 0 73.7462 0 87.001C0 100.256 10.7452 111.001 24 111.001Z" fill="#66737F" />
  <path d="M26.6656 92.7344H21.0656L18.2656 87.8677L23.0656 80.1344V84.7344C22.1323 85.0677 21.4656 86.001 21.4656 87.001C21.4656 88.3344 22.5323 89.401 23.9323 89.401C25.2656 89.401 26.399 88.3344 26.399 87.001C26.399 85.9344 25.7323 85.0677 24.799 84.7344V80.1344L29.599 87.8677L26.6656 92.7344Z" fill="transparent" />
  <path d="M23.9328 86.201C24.3995 86.201 24.7328 86.5344 24.7328 87.0011C24.7328 87.4677 24.3995 87.8011 23.9328 87.8011C23.4661 87.8011 23.1328 87.4677 23.1328 87.0011C23.1328 86.5344 23.4661 86.201 23.9328 86.201Z" fill="transparent" />
  <path d="M31.0741 87.3565L24.5672 76.7994C24.2352 76.2682 23.5049 76.2682 23.1729 76.7994L16.666 87.3565C16.5332 87.6221 16.5332 87.9541 16.666 88.1533L19.3883 93.0003C18.6579 93.3986 18.1931 94.1954 18.1931 95.125C18.1931 96.4529 19.2555 97.5152 20.6498 97.5152H27.1567C28.4846 97.5152 29.6134 96.4529 29.6134 95.125C29.6134 94.2618 29.0822 93.465 28.3519 93.0003L31.1405 88.2197C31.2733 87.8877 31.2733 87.6221 31.0741 87.3565ZM23.9033 86.1614C24.368 86.1614 24.7 86.4934 24.7 86.9581C24.7 87.4229 24.368 87.7549 23.9033 87.7549C23.4385 87.7549 23.1065 87.4229 23.1065 86.9581C23.1065 86.4934 23.4385 86.1614 23.9033 86.1614ZM27.0903 95.9217H20.5834C20.1186 95.9217 19.7867 95.5897 19.7867 95.125C19.7867 94.6602 20.1186 94.3282 20.5834 94.3282H27.0903C27.5551 94.3282 27.9535 94.7266 27.9535 95.125C27.9535 95.5233 27.5551 95.9217 27.0903 95.9217ZM26.6255 92.6683H21.0482L18.2595 87.8213L23.0401 80.1193V84.7006C22.1105 85.0326 21.4466 85.9622 21.4466 86.9581C21.4466 88.2861 22.5089 89.3484 23.9033 89.3484C25.2312 89.3484 26.3599 88.2861 26.3599 86.9581C26.3599 85.8958 25.696 85.0326 24.7664 84.7006V80.1193L29.547 87.8213L26.6255 92.6683Z" fill="#DF425A" />
</svg>
