<svg width="1042" height="207" viewBox="0 0 1042 207" fill="none"
  xmlns="http://www.w3.org/2000/svg">
  <path d="M952.705 32.6058C952.705 34.0432 951.576 35.2085 950.182 35.2085C948.788 35.2085 947.658 34.0432 947.658 32.6058C947.658 31.1684 948.788 30.0031 950.182 30.0031C951.576 30.0031 952.705 31.1684 952.705 32.6058Z" fill="#C6E8FF"/>
  <path d="M830.547 168.605C830.547 170.043 829.418 171.208 828.024 171.208C826.63 171.208 825.5 170.043 825.5 168.605C825.5 167.168 826.63 166.003 828.024 166.003C829.418 166.003 830.547 167.168 830.547 168.605Z" fill="#C6E8FF"/>
  <path d="M565.87 173.608C565.87 175.045 564.741 176.21 563.347 176.21C561.953 176.21 560.823 175.045 560.823 173.608C560.823 172.17 561.953 171.005 563.347 171.005C564.741 171.005 565.87 172.17 565.87 173.608Z" fill="#FED5C6"/>
  <path d="M608.528 -0.391273C608.528 1.04616 607.399 2.21143 606.005 2.21143C604.611 2.21143 603.481 1.04616 603.481 -0.391273C603.481 -1.82871 604.611 -2.99397 606.005 -2.99397C607.399 -2.99397 608.528 -1.82871 608.528 -0.391273Z" fill="#C6E8FF"/>
  <path d="M629.857 138.608C629.857 140.045 628.728 141.21 627.334 141.21C625.94 141.21 624.811 140.045 624.811 138.608C624.811 137.17 625.94 136.005 627.334 136.005C628.728 136.005 629.857 137.17 629.857 138.608Z" fill="#C6E8FF"/>
  <path d="M486.37 135.607C486.37 137.045 485.241 138.21 483.847 138.21C482.453 138.21 481.323 137.045 481.323 135.607C481.323 134.17 482.453 133.005 483.847 133.005C485.241 133.005 486.37 134.17 486.37 135.607Z" fill="#C6E8FF"/>
  <path d="M7.43051 198.608C7.43051 200.045 6.30148 201.21 4.90761 201.21C3.51373 201.21 2.38379 200.045 2.38379 198.608C2.38379 197.17 3.51373 196.005 4.90761 196.005C6.30148 196.005 7.43051 197.17 7.43051 198.608Z" fill="#FED5C6"/>
  <path d="M266.29 17.6082C266.29 19.0457 265.161 20.2109 263.767 20.2109C262.373 20.2109 261.243 19.0457 261.243 17.6082C261.243 16.1708 262.373 15.0055 263.767 15.0055C265.161 15.0055 266.29 16.1708 266.29 17.6082Z" fill="#C6E8FF"/>
  <path d="M108.26 163.608C108.26 165.045 107.131 166.21 105.737 166.21C104.343 166.21 103.213 165.045 103.213 163.608C103.213 162.17 104.343 161.005 105.737 161.005C107.131 161.005 108.26 162.17 108.26 163.608Z" fill="#C6E8FF"/>
  <path d="M708.388 10.6082C708.388 12.0457 707.259 13.2109 705.865 13.2109C704.471 13.2109 703.341 12.0457 703.341 10.6082C703.341 9.17079 704.471 8.00553 705.865 8.00553C707.259 8.00553 708.388 9.17079 708.388 10.6082Z" fill="#C6E8FF"/>
  <path opacity="0.2" d="M1009 81.0006C1027.23 81.0006 1042 66.2268 1042 48.0023C1042 29.7778 1027.23 15.0039 1009 15.0039C990.775 15.0039 976 29.7778 976 48.0023C976 66.2268 990.775 81.0006 1009 81.0006Z" fill="#66737F"/>
  <path d="M1019.34 38.5181H1016.75C1014.72 35.3721 1011.21 33.3364 1007.34 33.3364C1001.15 33.3364 996.167 38.333 996.167 44.5325C996.167 44.9026 996.167 47.586 996.167 47.9561C996.167 49.159 996.721 50.8245 997.829 51.7498L996.167 61.6505C996.167 61.9281 996.167 62.1131 996.352 62.3907C996.536 62.5758 996.721 62.6683 996.998 62.6683H1010.75C1011.21 62.6683 1011.58 62.2982 1011.58 61.8355V59.1522H1014.17C1015.55 59.1522 1016.75 57.9493 1016.75 56.5614V53.878H1017.58C1018.23 53.878 1018.6 53.2303 1018.32 52.6751L1017.21 50.4544H1019.24C1020.63 50.4544 1021.83 49.2515 1021.83 47.8636V41.0164C1021.92 39.721 1020.81 38.5181 1019.34 38.5181ZM1007.34 35.0945C1010.2 35.0945 1012.87 36.3899 1014.63 38.5181H1012.51C1011.12 38.5181 1009.83 39.1658 1009.09 40.2761C1007.71 40.2761 1006.41 40.9239 1005.67 42.0342H998.29C999.398 37.9629 1003 35.0945 1007.34 35.0945ZM1015.92 52.305C1015.46 52.305 1015.09 52.6751 1015.09 53.1378V56.6539C1015.09 57.1165 1014.72 57.4867 1014.26 57.4867H1010.57C1009.92 57.4867 1009.27 57.2091 1008.72 56.7464L1004.57 52.4901C1004.2 52.1199 1003.64 52.1199 1003.37 52.4901C1003 52.8602 1003 53.4153 1003.37 53.6929L1007.52 57.9493C1008.17 58.597 1009.09 59.0597 1010.01 59.1522V61.0028H998.013L999.582 51.5648C999.675 51.1946 999.49 50.8245 999.121 50.6395C998.382 50.2693 997.829 48.9739 997.829 47.9561V47.1233H1005.58C1006.32 48.1412 1007.61 48.8814 1009 48.8814C1009.83 49.9918 1011.12 50.6395 1012.41 50.6395H1015.27L1016.11 52.3975H1015.92V52.305Z" fill="#1DC4D7"/>
  <path d="M1011.58 44.5322C1011.58 45.9202 1010.38 47.1231 1009 47.1231C1007.61 47.1231 1006.41 45.9202 1006.41 44.5322C1006.41 43.1443 1007.61 41.9414 1009 41.9414C1010.47 41.9414 1011.58 43.1443 1011.58 44.5322Z" fill="transparent"/>
  <path d="M997.828 44.5325C997.828 44.2549 997.828 43.9773 997.828 43.6997H1004.75C1004.66 43.9773 1004.66 44.2549 1004.66 44.5325C1004.66 44.8101 1004.66 45.0877 1004.75 45.3652H997.828V44.5325Z" fill="transparent"/>
  <path d="M1016.75 48.8814H1012.41C1011.86 48.8814 1011.4 48.6963 1010.94 48.4187C1012.32 47.6785 1013.24 46.2905 1013.24 44.625C1013.24 42.9595 1012.32 41.479 1010.94 40.8313C1011.4 40.5537 1011.86 40.3687 1012.41 40.3687H1016.75V48.8814Z" fill="transparent"/>
  <path d="M1020.17 47.9561C1020.17 48.4187 1019.8 48.7888 1019.34 48.7888H1018.5V40.1836H1019.34C1019.8 40.1836 1020.17 40.5537 1020.17 41.0164C1020.17 41.0164 1020.17 47.9561 1020.17 47.9561Z" fill="transparent"/>
  <path opacity="0.2" d="M883 30.0024C891.284 30.0024 898 23.287 898 15.0032C898 6.7193 891.284 0.00390625 883 0.00390625C874.716 0.00390625 868 6.7193 868 15.0032C868 23.287 874.716 30.0024 883 30.0024Z" fill="#66737F"/>
  <path d="M887.698 10.6922H886.524C885.6 9.26221 884.006 8.33691 882.244 8.33691C879.433 8.33691 877.167 10.6081 877.167 13.426C877.167 13.5943 877.167 14.814 877.167 14.9822C877.167 15.529 877.419 16.286 877.922 16.7066L877.167 21.2069C877.167 21.3331 877.167 21.4172 877.251 21.5434C877.335 21.6275 877.419 21.6696 877.545 21.6696H883.796C884.006 21.6696 884.174 21.5014 884.174 21.2911V20.0713H885.349C885.978 20.0713 886.524 19.5246 886.524 18.8937V17.674H886.901C887.195 17.674 887.363 17.3796 887.237 17.1272L886.733 16.1178H887.656C888.286 16.1178 888.831 15.571 888.831 14.9402V11.8278C888.873 11.239 888.37 10.6922 887.698 10.6922ZM882.244 9.13603C883.545 9.13603 884.761 9.72486 885.559 10.6922H884.593C883.964 10.6922 883.377 10.9866 883.041 11.4913C882.412 11.4913 881.824 11.7857 881.489 12.2905H878.132C878.636 10.4399 880.272 9.13603 882.244 9.13603ZM886.146 16.959C885.936 16.959 885.768 17.1272 885.768 17.3375V18.9358C885.768 19.1461 885.6 19.3143 885.391 19.3143H883.712C883.419 19.3143 883.125 19.1881 882.873 18.9778L880.985 17.0431C880.817 16.8749 880.566 16.8749 880.44 17.0431C880.272 17.2113 880.272 17.4637 880.44 17.5899L882.328 19.5246C882.621 19.819 883.041 20.0293 883.461 20.0713V20.9125H878.006L878.719 16.6225C878.761 16.4543 878.677 16.286 878.51 16.2019C878.174 16.0337 877.922 15.4449 877.922 14.9822V14.6037H881.447C881.782 15.0663 882.37 15.4028 882.999 15.4028C883.377 15.9075 883.964 16.2019 884.552 16.2019H885.852L886.23 17.001H886.146V16.959Z" fill="#1DC4D7"/>
  <path d="M884.174 13.4262C884.174 14.0571 883.628 14.6038 882.999 14.6038C882.37 14.6038 881.824 14.0571 881.824 13.4262C881.824 12.7953 882.37 12.2485 882.999 12.2485C883.67 12.2485 884.174 12.7953 884.174 13.4262Z" fill="transparent"/>
  <path d="M877.922 13.4259C877.922 13.2997 877.922 13.1735 877.922 13.0474H881.069C881.027 13.1735 881.027 13.2997 881.027 13.4259C881.027 13.5521 881.027 13.6782 881.069 13.8044H877.922V13.4259Z" fill="transparent"/>
  <path d="M886.523 15.4026H884.551C884.299 15.4026 884.09 15.3185 883.88 15.1923C884.509 14.8559 884.929 14.225 884.929 13.4679C884.929 12.7109 884.509 12.0379 883.88 11.7435C884.09 11.6173 884.299 11.5332 884.551 11.5332H886.523V15.4026Z" fill="transparent"/>
  <path d="M888.076 14.9822C888.076 15.1925 887.908 15.3607 887.698 15.3607H887.32V11.4492H887.698C887.908 11.4492 888.076 11.6175 888.076 11.8277C888.076 11.8277 888.076 14.9822 888.076 14.9822Z" fill="transparent"/>
  <path opacity="0.2" d="M1009 206.004C1020.05 206.004 1029 197.05 1029 186.004C1029 174.958 1020.05 166.004 1009 166.004C997.954 166.004 989 174.958 989 186.004C989 197.05 997.954 206.004 1009 206.004Z" fill="#66737F"/>
  <path d="M1015.26 180.256H1013.7C1012.47 178.349 1010.34 177.115 1007.99 177.115C1004.24 177.115 1001.22 180.144 1001.22 183.901C1001.22 184.125 1001.22 185.752 1001.22 185.976C1001.22 186.705 1001.56 187.715 1002.23 188.275L1001.22 194.276C1001.22 194.444 1001.22 194.557 1001.33 194.725C1001.45 194.837 1001.56 194.893 1001.73 194.893H1010.06C1010.34 194.893 1010.57 194.669 1010.57 194.388V192.762H1012.13C1012.97 192.762 1013.7 192.033 1013.7 191.192V189.565H1014.2C1014.59 189.565 1014.82 189.173 1014.65 188.836L1013.98 187.49H1015.21C1016.05 187.49 1016.77 186.761 1016.77 185.92V181.77C1016.83 180.985 1016.16 180.256 1015.26 180.256ZM1007.99 178.181C1009.73 178.181 1011.35 178.966 1012.41 180.256H1011.12C1010.29 180.256 1009.5 180.648 1009.05 181.321C1008.22 181.321 1007.43 181.714 1006.98 182.387H1002.51C1003.18 179.919 1005.36 178.181 1007.99 178.181ZM1013.19 188.612C1012.91 188.612 1012.69 188.836 1012.69 189.117V191.248C1012.69 191.528 1012.47 191.752 1012.19 191.752H1009.95C1009.56 191.752 1009.17 191.584 1008.83 191.304L1006.31 188.724C1006.09 188.5 1005.75 188.5 1005.59 188.724C1005.36 188.948 1005.36 189.285 1005.59 189.453L1008.1 192.033C1008.5 192.425 1009.05 192.706 1009.61 192.762V193.884H1002.34L1003.29 188.163C1003.35 187.939 1003.24 187.715 1003.01 187.602C1002.57 187.378 1002.23 186.593 1002.23 185.976V185.471H1006.93C1007.38 186.088 1008.16 186.537 1009 186.537C1009.5 187.21 1010.29 187.602 1011.07 187.602H1012.8L1013.31 188.668H1013.19V188.612Z" fill="#1DC4D7"/>
  <path d="M1010.57 183.901C1010.57 184.742 1009.84 185.471 1009 185.471C1008.16 185.471 1007.43 184.742 1007.43 183.901C1007.43 183.06 1008.16 182.331 1009 182.331C1009.89 182.331 1010.57 183.06 1010.57 183.901Z" fill="transparent"/>
  <path d="M1002.23 183.901C1002.23 183.732 1002.23 183.564 1002.23 183.396H1006.43C1006.37 183.564 1006.37 183.732 1006.37 183.901C1006.37 184.069 1006.37 184.237 1006.43 184.405H1002.23V183.901Z" fill="transparent"/>
  <path d="M1013.7 186.537H1011.07C1010.73 186.537 1010.45 186.425 1010.17 186.257C1011.01 185.808 1011.57 184.967 1011.57 183.957C1011.57 182.948 1011.01 182.05 1010.17 181.658C1010.45 181.49 1010.73 181.377 1011.07 181.377H1013.7V186.537Z" fill="transparent"/>
  <path d="M1015.77 185.976C1015.77 186.256 1015.54 186.481 1015.26 186.481H1014.76V181.265H1015.26C1015.54 181.265 1015.77 181.489 1015.77 181.77C1015.77 181.77 1015.77 185.976 1015.77 185.976Z" fill="transparent"/>
  <path opacity="0.2" d="M24 111.002C37.2548 111.002 48 100.257 48 87.003C48 73.7487 37.2548 63.0039 24 63.0039C10.7452 63.0039 0 73.7487 0 87.003C0 100.257 10.7452 111.002 24 111.002Z" fill="#66737F"/>
  <path d="M31.5172 80.1054H29.6375C28.1606 77.8174 25.6095 76.3369 22.79 76.3369C18.2921 76.3369 14.667 79.9708 14.667 84.4796C14.667 84.7488 14.667 86.7003 14.667 86.9695C14.667 87.8444 15.0698 89.0557 15.8754 89.7286L14.667 96.9292C14.667 97.1311 14.667 97.2656 14.8013 97.4675C14.9355 97.6021 15.0698 97.6694 15.2712 97.6694H25.2739C25.6095 97.6694 25.8781 97.4002 25.8781 97.0638V95.1122H27.7578C28.7648 95.1122 29.6375 94.2374 29.6375 93.2279V91.2764H30.2417C30.7116 91.2764 30.9801 90.8053 30.7787 90.4016L29.9731 88.7865H31.45C32.457 88.7865 33.3297 87.9116 33.3297 86.9022V81.9224C33.3969 80.9803 32.5913 80.1054 31.5172 80.1054ZM22.79 77.6155C24.8711 77.6155 26.8179 78.5576 28.0934 80.1054H26.5494C25.5424 80.1054 24.6026 80.5765 24.0655 81.384C23.0585 81.384 22.1187 81.8551 21.5816 82.6626H16.211C17.0166 79.7017 19.6348 77.6155 22.79 77.6155ZM29.0333 90.1324C28.6976 90.1324 28.4291 90.4016 28.4291 90.738V93.2952C28.4291 93.6317 28.1606 93.9009 27.8249 93.9009H25.1396C24.6697 93.9009 24.1998 93.699 23.797 93.3625L20.776 90.267C20.5075 89.9978 20.1047 89.9978 19.9033 90.267C19.6348 90.5361 19.6348 90.9399 19.9033 91.1418L22.9243 94.2374C23.3942 94.7084 24.0655 95.0449 24.7368 95.1122V96.4581H16.0096L17.1509 89.594C17.218 89.3248 17.0838 89.0557 16.8152 88.9211C16.2782 88.6519 15.8754 87.7098 15.8754 86.9695V86.3639H21.5145C22.0515 87.1041 22.9914 87.6425 23.9984 87.6425C24.6026 88.45 25.5424 88.9211 26.4823 88.9211H28.5634L29.1676 90.1997H29.0333V90.1324Z" fill="#1DC4D7"/>
  <path d="M25.8776 84.48C25.8776 85.4894 25.0049 86.3642 23.9979 86.3642C22.9909 86.3642 22.1182 85.4894 22.1182 84.48C22.1182 83.4705 22.9909 82.5957 23.9979 82.5957C25.072 82.5957 25.8776 83.4705 25.8776 84.48Z" fill="transparent"/>
  <path d="M15.875 84.4797C15.875 84.2778 15.875 84.0759 15.875 83.874H20.9099C20.8428 84.0759 20.8428 84.2778 20.8428 84.4797C20.8428 84.6816 20.8428 84.8834 20.9099 85.0853H15.875V84.4797Z" fill="transparent"/>
  <path d="M29.6375 87.6428H26.4823C26.0795 87.6428 25.7439 87.5082 25.4082 87.3063C26.4152 86.768 27.0865 85.7585 27.0865 84.5472C27.0865 83.3359 26.4152 82.2592 25.4082 81.7881C25.7439 81.5863 26.0795 81.4517 26.4823 81.4517H29.6375V87.6428Z" fill="transparent"/>
  <path d="M32.1205 86.9697C32.1205 87.3061 31.852 87.5753 31.5163 87.5753H30.9121V81.3169H31.5163C31.852 81.3169 32.1205 81.5861 32.1205 81.9225C32.1205 81.9225 32.1205 86.9697 32.1205 86.9697Z" fill="transparent"/>
</svg>
