<svg width="74" height="112" viewBox="0 0 74 112" fill="none"
  xmlns="http://www.w3.org/2000/svg">
  <path opacity="0.3" d="M73.05 30.95C73.05 34.25 72.65 37.15 71.85 39.65C71.05 42.15 69.9 44.45 68.4 46.55C67 48.65 65.25 50.65 63.15 52.55C61.15 54.35 58.85 56.25 56.25 58.25C54.65 59.55 53.3 60.7 52.2 61.7C51.2 62.7 50.4 63.75 49.8 64.85C49.2 65.85 48.75 66.95 48.45 68.15C48.25 69.25 48.15 70.6 48.15 72.2V76.1H24.75V70.4C24.75 67.8 25 65.5 25.5 63.5C26 61.4 26.75 59.5 27.75 57.8C28.75 56.1 29.95 54.45 31.35 52.85C32.85 51.25 34.6 49.6 36.6 47.9L41.55 43.25C43.25 41.75 44.7 40.2 45.9 38.6C47.1 36.9 47.7 34.9 47.7 32.6C47.7 29.4 46.7 26.85 44.7 24.95C42.8 23.05 40.15 22.1 36.75 22.1C32.55 22.1 29.4 23.55 27.3 26.45C25.2 29.25 24.05 32.45 23.85 36.05L4.24683e-07 33.5C0.600001 28.1 1.95 23.35 4.05 19.25C6.25 15.15 9.05 11.75 12.45 9.04999C15.85 6.34999 19.7 4.34999 24 3.04999C28.3 1.64999 32.85 0.949991 37.65 0.949991C42.15 0.949991 46.5 1.54999 50.7 2.74999C55 3.84999 58.8 5.64999 62.1 8.15C65.4 10.55 68.05 13.65 70.05 17.45C72.05 21.25 73.05 25.75 73.05 30.95ZM51.15 97.25C51.15 101.25 49.75 104.65 46.95 107.45C44.15 110.15 40.7 111.5 36.6 111.5C34.6 111.5 32.7 111.15 30.9 110.45C29.2 109.75 27.65 108.75 26.25 107.45C24.95 106.15 23.9 104.65 23.1 102.95C22.3 101.25 21.9 99.4 21.9 97.4C21.9 95.5 22.25 93.7 22.95 92C23.75 90.2 24.8 88.65 26.1 87.35C27.5 86.05 29.1 85.05 30.9 84.35C32.7 83.55 34.6 83.15 36.6 83.15C38.6 83.15 40.45 83.55 42.15 84.35C43.95 85.05 45.5 86.05 46.8 87.35C48.2 88.55 49.25 90.05 49.95 91.85C50.75 93.55 51.15 95.35 51.15 97.25Z" fill="#D9E6EE"/>
</svg>
