<svg width="168" height="112" viewBox="0 0 168 112" fill="none"
  xmlns="http://www.w3.org/2000/svg">
  <path opacity="0.3" d="M65.05 30.4C62.85 27.6 59.95 25.4 56.35 23.8C52.85 22.1 49.45 21.25 46.15 21.25C44.45 21.25 42.7 21.4 40.9 21.7C39.2 22 37.65 22.6 36.25 23.5C34.85 24.3 33.65 25.4 32.65 26.8C31.75 28.1 31.3 29.8 31.3 31.9C31.3 33.7 31.65 35.2 32.35 36.4C33.15 37.6 34.25 38.65 35.65 39.55C37.15 40.45 38.9 41.3 40.9 42.1C42.9 42.8 45.15 43.55 47.65 44.35C51.25 45.55 55 46.9 58.9 48.4C62.8 49.8 66.35 51.7 69.55 54.1C72.75 56.5 75.4 59.5 77.5 63.1C79.6 66.6 80.65 71 80.65 76.3C80.65 82.4 79.5 87.7 77.2 92.2C75 96.6 72 100.25 68.2 103.15C64.4 106.05 60.05 108.2 55.15 109.6C50.25 111 45.2 111.7 40 111.7C32.4 111.7 25.05 110.4 17.95 107.8C10.85 105.1 4.95 101.3 0.25 96.4L17.05 79.3C19.65 82.5 23.05 85.2 27.25 87.4C31.55 89.5 35.8 90.55 40 90.55C41.9 90.55 43.75 90.35 45.55 89.95C47.35 89.55 48.9 88.9 50.2 88C51.6 87.1 52.7 85.9 53.5 84.4C54.3 82.9 54.7 81.1 54.7 79C54.7 77 54.2 75.3 53.2 73.9C52.2 72.5 50.75 71.25 48.85 70.15C47.05 68.95 44.75 67.9 41.95 67C39.25 66 36.15 64.95 32.65 63.85C29.25 62.75 25.9 61.45 22.6 59.95C19.4 58.45 16.5 56.55 13.9 54.25C11.4 51.85 9.35 49 7.75 45.7C6.25 42.3 5.5 38.2 5.5 33.4C5.5 27.5 6.7 22.45 9.1 18.25C11.5 14.05 14.65 10.6 18.55 7.9C22.45 5.2 26.85 3.24999 31.75 2.04999C36.65 0.749996 41.6 0.0999984 46.6 0.0999984C52.6 0.0999984 58.7 1.2 64.9 3.39999C71.2 5.59999 76.7 8.84999 81.4 13.15L65.05 30.4ZM122.923 24.7V46.6H164.023V67.75H122.923V109H97.573V2.8H167.473V24.7H122.923Z" fill="#B1D1E3"/>
</svg>
