<svg width="157" height="73" viewBox="0 0 157 73" fill="none" xmlns="http://www.w3.org/2000/svg">
<path fill-rule="evenodd" clip-rule="evenodd" d="M1.26855 0.0593014C0.880371 6.59376 2.37878 16.4029 8.11852 24.5633C13.8383 32.6953 23.8062 39.2437 40.4835 39.2437H40.6806H40.8777H41.0747H41.2717H41.4685H41.6652H41.8619H42.0585H42.255H42.4514H42.6477H42.8439H43.04H43.2361H43.432H43.6279H43.8236H44.0193H44.2149H44.4103H44.6057H44.801H44.9962H45.1912H45.3862H45.5811H45.7759H45.9706H46.1651H46.3596H46.554H46.7482H46.9424H47.1365H47.3304H47.5242H47.718H47.9116H48.1051H48.2985H48.4918H48.685H48.8781H49.071H49.2638H49.4566H49.6492H49.8417H50.0341H50.2263H50.4185H50.6105H50.8024H50.9942H51.1859H51.3774H51.5689H51.7602H51.9513H52.1424H52.3333H52.5241H52.7148H52.9054H53.0958H53.2861H53.4763H53.6663H53.8562H54.046H54.2356H54.4252H54.6145H54.8038H54.9929H55.1819H55.3707H55.5594H55.748H55.9364H56.1247H56.3129H56.5009H56.6888H56.8765H57.0641H57.2515H57.4388H57.626H57.813H57.9999H58.1866H58.3732H58.5596H58.7459H58.932H59.118H59.3038H59.4895H59.675H59.8604H60.0456H60.2307H60.4156H60.6003H60.7849H60.9694H61.1536H61.3378H61.5217H61.7056H61.8892H62.0727H62.256H62.4392H62.6222H62.805H62.9877H63.1702H63.3525H63.5347H63.7167H63.8986H64.0802H64.2617H64.4431H64.6242H64.8052H64.986H65.1667H65.3471H65.5274H65.7076H65.8875H66.0673H66.2469H66.4263H66.6055H66.7846H66.9635H67.1422H67.3207H67.499H67.6772H67.8551H68.0329H68.2105H68.3879H68.5652H68.7422H68.9191H69.0957H69.2722H69.4485H69.6246H69.8005H69.9762H70.1517H70.3271H70.5022H70.6771H70.8519H71.0264H71.2008H71.3749H71.5489H71.7227H71.8962H72.0696H72.2427H72.4157H72.5884H72.761H72.9333H73.1055H73.2774H73.4492H73.6207H73.792H73.9631H74.134H74.3047H74.4752H74.6455H74.8156H74.9854H75.1551H75.3245H75.4937H75.6627H75.8315H76H76.1684H76.3365H76.5044H76.6721H76.8396H77.0069H77.1739H77.3407H77.5073H77.6737H77.8398H78.0057H78.1714H78.3369H78.5021H78.6672H78.8319H78.9965H79.1608H79.3249H79.4888H79.6524H79.8158H79.979H80.142H80.3046H80.4671H80.6294H80.7914H80.9531H81.1146H81.2759H81.437H81.5978H81.7583H81.9187H82.0787H82.2386H82.3982H82.5575H82.7166H82.8755H83.0341H83.1925H83.3506H83.5085H83.6661H83.8235H83.9806H84.1375H84.2941H84.4504H84.6066H84.7624H84.918H85.0734H85.2285H85.3833H85.5379H85.6922H85.8463H86.0001H86.1536H86.3069H86.46H86.6127H86.7652H86.9175H87.0694H87.2211H87.3726H87.5238H87.6747H87.8253H87.9757H88.1258H88.2756H88.4252H88.5745H88.7235H88.8722H89.0207H89.1689H89.3168H89.4645H89.6118H89.7589H89.9058H90.0523H90.1986H90.3445H90.4902H90.6357H90.7808H90.9257H91.0702H91.2145H91.3585H91.5023H91.6457H91.7888H91.9317H92.0743H92.2165H92.3585H92.5003H92.6417H92.7828H92.9236H93.0641H93.2044H93.3443H93.484H93.6234H93.7624H93.9012H94.0396H94.1778H94.3157H94.4533H94.5905H94.7275H94.8642H95.0005H95.1366H95.2723H95.4078H95.5429H95.6778H95.8123H95.9465H96.0805H96.2141H96.3474H96.4804H96.613H96.7454H96.8775H97.0092H97.1406H97.2717H97.4025H97.533H97.6632H97.793H97.9226H98.0518H98.1807H98.3092H98.4375H98.5654H98.693H98.8203H98.9473H99.0739H99.2002H99.3262H99.4519H99.5772H99.7022H99.8269H99.9512H100.075H100.199H100.322H100.445H100.568H100.69H100.812H100.934H101.055H101.176H101.297H101.417H101.537H101.657H101.776H101.895H102.014H102.132H102.25H102.368H102.485H102.602H102.719H102.835H102.951H103.066H103.182H103.296H103.411H103.525H103.639H103.752H103.865H103.978H104.091H104.203H104.314H104.426H104.537H104.647H104.757H104.867H104.977H105.086H105.195H105.303H105.411H105.519H105.627H105.734H105.84H105.946H106.052H106.158H106.263H106.368H106.472H106.576H106.68H106.783H106.886H106.989H107.091H107.193H107.294H107.395H107.496H107.597H107.696H107.796H107.895H107.994H108.092H108.191H108.288H108.386H108.482H108.579H108.675H108.771H108.866H108.961H109.056H109.15H109.244H109.337H109.43H109.523H109.615H109.707H109.799H109.89H109.98H110.071H110.16H110.25H110.339H110.428H110.516H110.604H110.692H110.779H110.865H110.952H111.038H111.123H111.208H111.293H111.377H111.461H111.545H111.628H111.71H111.792H111.874H111.956H112.037H112.117H112.198H112.277H112.357H112.436H112.514H112.592H112.67H112.747H112.824H112.901H112.977H113.052H113.128H113.202H113.277H113.351H113.424H113.497H113.57H113.642H113.714H113.785H113.856H113.927H113.997H114.067H114.136H114.205H114.273H114.341H114.408H114.475H114.542H114.608H114.674H114.739H114.804H114.869H114.933H114.996H115.008L115.02 39.2442C121.399 39.5417 130.968 41.3831 138.96 45.9599C146.736 50.4128 153.065 57.4887 153.425 68.2608H157L152.757 72.5034L148.515 68.2608H152.424C152.066 57.953 146.03 51.1607 138.463 46.8277C130.65 42.3536 121.254 40.5377 114.985 40.2437H114.933H114.869H114.804H114.739H114.674H114.608H114.542H114.475H114.408H114.341H114.273H114.205H114.136H114.067H113.997H113.927H113.856H113.785H113.714H113.642H113.57H113.497H113.424H113.351H113.277H113.202H113.128H113.052H112.977H112.901H112.824H112.747H112.67H112.592H112.514H112.436H112.357H112.277H112.198H112.117H112.037H111.956H111.874H111.792H111.71H111.628H111.545H111.461H111.377H111.293H111.208H111.123H111.038H110.952H110.865H110.779H110.692H110.604H110.516H110.428H110.339H110.25H110.16H110.071H109.98H109.89H109.799H109.707H109.615H109.523H109.43H109.337H109.244H109.15H109.056H108.961H108.866H108.771H108.675H108.579H108.482H108.386H108.288H108.191H108.092H107.994H107.895H107.796H107.696H107.597H107.496H107.395H107.294H107.193H107.091H106.989H106.886H106.783H106.68H106.576H106.472H106.368H106.263H106.158H106.052H105.946H105.84H105.734H105.627H105.519H105.411H105.303H105.195H105.086H104.977H104.867H104.757H104.647H104.537H104.426H104.314H104.203H104.091H103.978H103.865H103.752H103.639H103.525H103.411H103.296H103.182H103.066H102.951H102.835H102.719H102.602H102.485H102.368H102.25H102.132H102.014H101.895H101.776H101.657H101.537H101.417H101.297H101.176H101.055H100.934H100.812H100.69H100.568H100.445H100.322H100.199H100.075H99.9512H99.8269H99.7022H99.5772H99.4519H99.3262H99.2002H99.0739H98.9473H98.8203H98.693H98.5654H98.4375H98.3092H98.1807H98.0518H97.9226H97.793H97.6632H97.533H97.4025H97.2717H97.1406H97.0092H96.8775H96.7454H96.613H96.4804H96.3474H96.2141H96.0805H95.9465H95.8123H95.6778H95.5429H95.4078H95.2723H95.1366H95.0005H94.8642H94.7275H94.5905H94.4533H94.3157H94.1778H94.0396H93.9012H93.7624H93.6234H93.484H93.3443H93.2044H93.0641H92.9236H92.7828H92.6417H92.5003H92.3585H92.2165H92.0743H91.9317H91.7888H91.6457H91.5023H91.3585H91.2145H91.0702H90.9257H90.7808H90.6357H90.4902H90.3445H90.1986H90.0523H89.9058H89.7589H89.6118H89.4645H89.3168H89.1689H89.0207H88.8722H88.7235H88.5745H88.4252H88.2756H88.1258H87.9757H87.8253H87.6747H87.5238H87.3726H87.2211H87.0694H86.9175H86.7652H86.6127H86.46H86.3069H86.1536H86.0001H85.8463H85.6922H85.5379H85.3833H85.2285H85.0734H84.918H84.7624H84.6066H84.4504H84.2941H84.1375H83.9806H83.8235H83.6661H83.5085H83.3506H83.1925H83.0341H82.8755H82.7166H82.5575H82.3982H82.2386H82.0787H81.9187H81.7583H81.5978H81.437H81.2759H81.1146H80.9531H80.7914H80.6294H80.4671H80.3046H80.142H79.979H79.8158H79.6524H79.4888H79.3249H79.1608H78.9965H78.8319H78.6672H78.5021H78.3369H78.1714H78.0057H77.8398H77.6737H77.5073H77.3407H77.1739H77.0069H76.8396H76.6721H76.5044H76.3365H76.1684H76H75.8315H75.6627H75.4937H75.3245H75.1551H74.9854H74.8156H74.6455H74.4752H74.3047H74.134H73.9631H73.792H73.6207H73.4492H73.2774H73.1055H72.9333H72.761H72.5884H72.4157H72.2427H72.0696H71.8962H71.7227H71.5489H71.3749H71.2008H71.0264H70.8519H70.6771H70.5022H70.3271H70.1517H69.9762H69.8005H69.6246H69.4485H69.2722H69.0957H68.9191H68.7422H68.5652H68.3879H68.2105H68.0329H67.8551H67.6772H67.499H67.3207H67.1422H66.9635H66.7846H66.6055H66.4263H66.2469H66.0673H65.8875H65.7076H65.5274H65.3471H65.1667H64.986H64.8052H64.6242H64.4431H64.2617H64.0802H63.8986H63.7167H63.5347H63.3525H63.1702H62.9877H62.805H62.6222H62.4392H62.256H62.0727H61.8892H61.7056H61.5217H61.3378H61.1536H60.9694H60.7849H60.6003H60.4156H60.2307H60.0456H59.8604H59.675H59.4895H59.3038H59.118H58.932H58.7459H58.5596H58.3732H58.1866H57.9999H57.813H57.626H57.4388H57.2515H57.0641H56.8765H56.6888H56.5009H56.3129H56.1247H55.9364H55.748H55.5594H55.3707H55.1819H54.9929H54.8038H54.6145H54.4252H54.2356H54.046H53.8562H53.6663H53.4763H53.2861H53.0958H52.9054H52.7148H52.5241H52.3333H52.1424H51.9513H51.7602H51.5689H51.3774H51.1859H50.9942H50.8024H50.6105H50.4185H50.2263H50.0341H49.8417H49.6492H49.4566H49.2638H49.071H48.8781H48.685H48.4918H48.2985H48.1051H47.9116H47.718H47.5242H47.3304H47.1365H46.9424H46.7482H46.554H46.3596H46.1651H45.9706H45.7759H45.5811H45.3862H45.1912H44.9962H44.801H44.6057H44.4103H44.2149H44.0193H43.8236H43.6279H43.432H43.2361H43.04H42.8439H42.6477H42.4514H42.255H42.0585H41.8619H41.6652H41.4685H41.2717H41.0747H40.8777H40.6806H40.4835C23.5021 40.2437 13.2197 33.554 7.30058 25.1386C1.40137 16.7514 -0.127914 6.70355 0.270309 0L1.26855 0.0593014Z" fill="#C4C4C4"/>
</svg>
