<svg width="239" height="324" viewBox="0 0 239 324" fill="none" xmlns="http://www.w3.org/2000/svg">
<path d="M97.7875 273.969C97.7875 275.406 96.6229 276.572 95.1852 276.572C93.7475 276.572 92.582 275.406 92.582 273.969C92.582 272.531 93.7475 271.366 95.1852 271.366C96.6229 271.366 97.7875 272.531 97.7875 273.969Z" fill="#FED5C6"/>
<path d="M134.76 93.7338C134.76 95.1713 133.596 96.3365 132.158 96.3365C130.72 96.3365 129.555 95.1713 129.555 93.7338C129.555 92.2964 130.72 91.1311 132.158 91.1311C133.596 91.1311 134.76 92.2964 134.76 93.7338Z" fill="#C6E8FF"/>
<path d="M171.76 320.734C171.76 322.171 170.596 323.337 169.158 323.337C167.72 323.337 166.555 322.171 166.555 320.734C166.555 319.296 167.72 318.131 169.158 318.131C170.596 318.131 171.76 319.296 171.76 320.734Z" fill="#C6E8FF"/>
<path d="M94.7601 231.734C94.7601 233.171 93.5956 234.337 92.1579 234.337C90.7202 234.337 89.5547 233.171 89.5547 231.734C89.5547 230.296 90.7202 229.131 92.1579 229.131C93.5956 229.131 94.7601 230.296 94.7601 231.734Z" fill="#C6E8FF"/>
<g filter="url(#filter0_d_6727_61118)">
<circle cx="83.5547" cy="150.131" r="33" fill="#E2F3FF"/>
<g clip-path="url(#clip0_6727_61118)">
<path d="M83.3963 145.9L70.3203 140.871L83.3963 136.848L96.4724 141.877V157.971L83.3963 164.006V145.9Z" fill="#E2F3FF"/>
<path d="M83.206 146.704L70.5129 141.994L70.0898 158.265L83.206 162.547V146.704Z" fill="white"/>
<path d="M96.497 140.063L83.5706 135.617C83.2647 135.557 83.0176 135.557 82.7764 135.617L69.8441 140.069C68.791 140.397 68.8204 141.237 68.8204 141.261V158.371C68.8204 158.866 69.1263 159.301 69.6147 159.486L82.7764 164.629C83.0117 164.73 83.5118 164.688 83.6354 164.629L96.797 159.491C97.2854 159.307 97.5913 158.872 97.5913 158.377V141.261C97.5913 140.891 97.3677 140.176 96.497 140.063ZM83.2059 138.037L92.8785 141.32L83.2059 145.045L73.5332 141.32L83.2059 138.037ZM71.2091 157.507V143.061L81.9821 147.215V161.72L71.2091 157.507ZM95.2026 157.507L84.4297 161.72V147.25L95.2026 143.061V157.507Z" fill="#009BFF"/>
</g>
</g>
<g filter="url(#filter1_d_6727_61118)">
<ellipse cx="87.8203" cy="60.2149" rx="15.2656" ry="15.0838" fill="#F1C0CA"/>
<g clip-path="url(#clip1_6727_61118)">
<ellipse cx="87.7259" cy="60.2297" rx="1.9407" ry="1.91759" fill="#F1C0CA"/>
<rect x="84.8164" y="64.0647" width="5.82209" height="1.91759" fill="#F1C0CA"/>
<path d="M87.6353 59.0049L87.4287 55.5768L87.2222 54.9718L83.7109 60.8198L85.5698 64.2479H89.9073L91.9727 60.6182L88.0484 55.3751V59.0049L88.668 60.2148L88.4614 60.8198L87.4287 61.0215L87.0156 60.8198V59.8115L87.6353 59.0049Z" fill="white"/>
<path d="M92.3735 60.4564L88.2094 53.8016C88.0065 53.4768 87.53 53.483 87.3309 53.8016L83.1668 60.4565C83.0679 60.6145 83.0641 60.8132 83.1568 60.9749L84.9018 64.0164C84.4365 64.2802 84.1222 64.7752 84.1222 65.3417C84.1222 66.1841 84.817 66.8696 85.6709 66.8696H89.835C90.6908 66.8696 91.4181 66.1872 91.4181 65.3417C91.4181 64.779 91.0966 64.2825 90.6109 64.0139L92.3817 60.978C92.4763 60.8158 92.4731 60.6156 92.3735 60.4564ZM87.7702 59.7054C88.0548 59.7054 88.2864 59.9339 88.2864 60.2147C88.2864 60.4955 88.0548 60.724 87.7702 60.724C87.4855 60.724 87.2539 60.4955 87.2539 60.2147C87.2539 59.9339 87.4855 59.7054 87.7702 59.7054ZM89.835 65.851H85.6709C85.3862 65.851 85.1547 65.6225 85.1547 65.3417C85.1547 65.0611 85.3858 64.8329 85.6701 64.8324C85.6705 64.8324 85.6709 64.8324 85.6714 64.8324C85.6723 64.8324 85.6732 64.8324 85.674 64.8324H89.835C90.1283 64.8324 90.3856 65.0703 90.3856 65.3417C90.3856 65.613 90.1283 65.851 89.835 65.851ZM89.5365 63.8138H85.9718L84.2056 60.7352L87.2539 55.8636V58.7744C86.6531 58.9846 86.2215 59.5507 86.2215 60.2147C86.2215 61.0572 86.9162 61.7426 87.7702 61.7426C88.6241 61.7426 89.3188 61.0572 89.3188 60.2147C89.3188 59.5507 88.8872 58.9846 88.2864 58.7744V55.8636L91.3333 60.7331L89.5365 63.8138Z" fill="#DF425A"/>
</g>
</g>
<g filter="url(#filter2_d_6727_61118)">
<ellipse cx="166.639" cy="213.397" rx="20.9162" ry="21.1682" fill="#DDF6F9"/>
<g clip-path="url(#clip2_6727_61118)">
<path d="M160.028 215.785L158.894 222.098H167.4V219.803H170.236L170.803 216.933L171.37 216.359V215.211L171.937 210.62C171.937 210.046 171.483 208.439 169.669 206.603C167.854 204.766 164.754 204.69 163.431 204.881C162.297 205.263 159.801 206.832 158.894 210.046C157.987 213.26 159.272 215.211 160.028 215.785Z" fill="#DDF6F9"/>
<path d="M164.079 210.1L158.922 209.826V212.298H164.621L166.521 213.396L167.607 214.22L169.507 214.77L173.035 214.495L174.12 213.396V209.276L173.699 208.178L171.949 207.903L167.878 208.178L165.978 209.002L164.079 210.1Z" fill="white"/>
<path d="M172.977 207.341H171.331C170.062 205.336 167.861 204.058 165.408 204.058C161.524 204.058 158.379 207.258 158.379 211.171C158.379 211.403 158.379 213.128 158.379 213.36C158.379 214.151 158.739 215.197 159.413 215.792L158.386 222.099C158.36 222.258 158.405 222.42 158.507 222.543C158.61 222.665 158.761 222.736 158.92 222.736H167.571C167.869 222.736 168.111 222.491 168.111 222.188V220.51H169.733C170.628 220.51 171.355 219.774 171.355 218.869V217.191H171.896C172.297 217.191 172.559 216.763 172.38 216.399L171.69 215.002H172.977C173.872 215.002 174.6 214.265 174.6 213.36V208.983C174.6 208.077 173.872 207.341 172.977 207.341ZM165.408 205.152C167.192 205.152 168.875 205.972 169.995 207.341H168.652C167.797 207.341 166.996 207.753 166.489 208.435C166.489 208.435 166.489 208.435 166.489 208.435C165.607 208.435 164.822 208.866 164.328 209.53H159.685C160.393 207.006 162.69 205.152 165.408 205.152ZM168.111 211.171C168.111 212.077 167.384 212.813 166.489 212.813C165.595 212.813 164.867 212.077 164.867 211.171C164.867 210.266 165.595 209.53 166.489 209.53C167.384 209.53 168.111 210.266 168.111 211.171ZM159.46 211.171C159.46 210.987 159.469 210.801 159.485 210.621H163.84C163.805 210.797 163.786 210.984 163.786 211.171C163.786 211.359 163.805 211.542 163.84 211.719H159.46V211.171ZM170.815 216.096C170.516 216.096 170.274 216.341 170.274 216.643V218.869C170.274 219.17 170.031 219.416 169.733 219.416H167.386C166.953 219.416 166.545 219.245 166.239 218.936L163.63 216.259C163.42 216.044 163.078 216.042 162.865 216.254C162.653 216.466 162.65 216.813 162.86 217.028L165.47 219.705C165.471 219.706 165.472 219.707 165.473 219.708C165.899 220.139 166.442 220.408 167.03 220.486V221.641H159.557L160.534 215.638C160.571 215.413 160.466 215.189 160.272 215.075C159.832 214.818 159.46 214.032 159.46 213.36V212.813H164.328C164.822 213.477 165.607 213.907 166.489 213.907C166.489 213.907 166.489 213.907 166.489 213.907C166.996 214.59 167.797 215.002 168.652 215.002H170.481L171.021 216.096H170.815ZM171.355 213.907H168.652C168.313 213.907 167.988 213.799 167.719 213.607C168.593 213.153 169.193 212.232 169.193 211.171C169.193 210.111 168.593 209.19 167.719 208.736C167.988 208.544 168.313 208.435 168.652 208.435H171.355V213.907ZM173.518 213.36C173.518 213.662 173.276 213.907 172.977 213.907H172.437V208.435H172.977C173.276 208.435 173.518 208.681 173.518 208.983V213.36Z" fill="#1DC4D7"/>
</g>
</g>
<defs>
<filter id="filter0_d_6727_61118" x="0.554688" y="72.1311" width="186" height="186" filterUnits="userSpaceOnUse" color-interpolation-filters="sRGB">
<feFlood flood-opacity="0" result="BackgroundImageFix"/>
<feColorMatrix in="SourceAlpha" type="matrix" values="0 0 0 0 0 0 0 0 0 0 0 0 0 0 0 0 0 0 127 0" result="hardAlpha"/>
<feOffset dx="10" dy="15"/>
<feGaussianBlur stdDeviation="30"/>
<feColorMatrix type="matrix" values="0 0 0 0 0.219479 0 0 0 0 0.341979 0 0 0 0 0.408333 0 0 0 0.15 0"/>
<feBlend mode="normal" in2="BackgroundImageFix" result="effect1_dropShadow_6727_61118"/>
<feBlend mode="normal" in="SourceGraphic" in2="effect1_dropShadow_6727_61118" result="shape"/>
</filter>
<filter id="filter1_d_6727_61118" x="22.5547" y="0.131104" width="150.531" height="150.168" filterUnits="userSpaceOnUse" color-interpolation-filters="sRGB">
<feFlood flood-opacity="0" result="BackgroundImageFix"/>
<feColorMatrix in="SourceAlpha" type="matrix" values="0 0 0 0 0 0 0 0 0 0 0 0 0 0 0 0 0 0 127 0" result="hardAlpha"/>
<feOffset dx="10" dy="15"/>
<feGaussianBlur stdDeviation="30"/>
<feColorMatrix type="matrix" values="0 0 0 0 0.219479 0 0 0 0 0.341979 0 0 0 0 0.408333 0 0 0 0.15 0"/>
<feBlend mode="normal" in2="BackgroundImageFix" result="effect1_dropShadow_6727_61118"/>
<feBlend mode="normal" in="SourceGraphic" in2="effect1_dropShadow_6727_61118" result="shape"/>
</filter>
<filter id="filter2_d_6727_61118" x="95.7227" y="147.229" width="161.832" height="162.336" filterUnits="userSpaceOnUse" color-interpolation-filters="sRGB">
<feFlood flood-opacity="0" result="BackgroundImageFix"/>
<feColorMatrix in="SourceAlpha" type="matrix" values="0 0 0 0 0 0 0 0 0 0 0 0 0 0 0 0 0 0 127 0" result="hardAlpha"/>
<feOffset dx="10" dy="15"/>
<feGaussianBlur stdDeviation="30"/>
<feColorMatrix type="matrix" values="0 0 0 0 0.219479 0 0 0 0 0.341979 0 0 0 0 0.408333 0 0 0 0.15 0"/>
<feBlend mode="normal" in2="BackgroundImageFix" result="effect1_dropShadow_6727_61118"/>
<feBlend mode="normal" in="SourceGraphic" in2="effect1_dropShadow_6727_61118" result="shape"/>
</filter>
<clipPath id="clip0_6727_61118">
<rect width="29.1176" height="29.1176" fill="white" transform="translate(68.9961 135.572)"/>
</clipPath>
<clipPath id="clip1_6727_61118">
<rect width="13.4696" height="13.3093" fill="white" transform="translate(81.0859 53.5603)"/>
</clipPath>
<clipPath id="clip2_6727_61118">
<rect width="18.4554" height="18.6778" fill="white" transform="translate(157.41 204.058)"/>
</clipPath>
</defs>
</svg>
