<svg width="84" height="113" viewBox="0 0 84 113" fill="none"
  xmlns="http://www.w3.org/2000/svg">
  <path opacity="0.3" d="M83.45 79.1C83.45 84.9 82.25 89.95 79.85 94.25C77.55 98.45 74.5 101.95 70.7 104.75C66.9 107.45 62.6 109.45 57.8 110.75C53.1 112.15 48.3 112.85 43.4 112.85C38.6 112.85 33.9 112.3 29.3 111.2C24.8 110.1 20.65 108.45 16.85 106.25C13.15 103.95 9.9 101.05 7.1 97.55C4.3 93.95 2.2 89.65 0.8 84.65L24.2 78.5C25.2 82 27.25 85.1 30.35 87.8C33.45 90.4 37.4 91.7 42.2 91.7C44 91.7 45.8 91.45 47.6 90.95C49.5 90.45 51.15 89.7 52.55 88.7C54.05 87.6 55.25 86.2 56.15 84.5C57.15 82.8 57.65 80.7 57.65 78.2C57.65 75.5 57 73.25 55.7 71.45C54.5 69.65 52.85 68.25 50.75 67.25C48.75 66.15 46.45 65.4 43.85 65C41.25 64.5 38.65 64.25 36.05 64.25H29.3V45.8H36.65C39.05 45.8 41.35 45.65 43.55 45.35C45.75 44.95 47.7 44.3 49.4 43.4C51.2 42.4 52.6 41.1 53.6 39.5C54.7 37.9 55.25 35.8 55.25 33.2C55.25 29.4 53.9 26.5 51.2 24.5C48.5 22.5 45.4 21.5 41.9 21.5C38.3 21.5 35.15 22.6 32.45 24.8C29.85 26.9 28.15 29.75 27.35 33.35L3.95 27.95C5.25 23.45 7.2 19.55 9.8 16.25C12.4 12.85 15.45 10.05 18.95 7.84999C22.55 5.54999 26.45 3.84999 30.65 2.74999C34.85 1.54999 39.15 0.949991 43.55 0.949991C48.25 0.949991 52.8 1.54999 57.2 2.74999C61.7 3.95 65.7 5.8 69.2 8.3C72.7 10.8 75.5 13.95 77.6 17.75C79.8 21.45 80.9 25.85 80.9 30.95C80.9 36.85 79.2 41.85 75.8 45.95C72.5 49.95 68.25 52.65 63.05 54.05V54.5C66.05 55.2 68.8 56.35 71.3 57.95C73.8 59.45 75.95 61.3 77.75 63.5C79.55 65.6 80.95 68 81.95 70.7C82.95 73.3 83.45 76.1 83.45 79.1Z" fill="#D9E6EE"/>
</svg>
