<svg width="80" height="110" viewBox="0 0 80 110" fill="none"
  xmlns="http://www.w3.org/2000/svg">
  <path opacity="0.3" d="M3.2 110V89L44.6 51.5C47.2 49 49.3 46.45 50.9 43.85C52.5 41.25 53.3 38.35 53.3 35.15C53.3 31.35 52.1 28.3 49.7 26C47.3 23.6 44.1 22.4 40.1 22.4C35.9 22.4 32.45 23.9 29.75 26.9C27.15 29.8 25.6 33.65 25.1 38.45L0.95 35.15C1.55 29.75 3 24.95 5.3 20.75C7.7 16.55 10.7 13 14.3 10.1C17.9 7.1 22 4.84999 26.6 3.35C31.3 1.74999 36.25 0.949991 41.45 0.949991C46.35 0.949991 51.1 1.59999 55.7 2.89999C60.3 4.19999 64.4 6.2 68 8.9C71.6 11.6 74.45 15 76.55 19.1C78.75 23.2 79.85 28 79.85 33.5C79.85 37.3 79.35 40.75 78.35 43.85C77.35 46.85 75.95 49.65 74.15 52.25C72.45 54.85 70.45 57.3 68.15 59.6C65.95 61.8 63.65 64 61.25 66.2L36.65 88.1H80V110H3.2Z" fill="#D9E6EE"/>
</svg>
