<svg width="517" height="683" viewBox="0 0 517 683" fill="none"
  xmlns="http://www.w3.org/2000/svg">
  <path opacity="0.5" fill-rule="evenodd" clip-rule="evenodd" d="M137.085 321.1L69 360.465L137.088 399.809L205.152 360.465L273.228 321.1L205.151 281.733L137.085 321.1Z" fill="#E8F2F6"/>
  <path opacity="0.35" fill-rule="evenodd" clip-rule="evenodd" d="M137.085 321.096L205.151 281.73L205.152 281.731V203L137.085 321.096Z" fill="#E8F2F6"/>
  <path fill-rule="evenodd" clip-rule="evenodd" d="M205.153 203V281.731L273.229 321.096L205.153 203Z" fill="#E8F2F6"/>
  <path opacity="0.35" fill-rule="evenodd" clip-rule="evenodd" d="M205.141 360.462L137.075 399.828L137.074 399.827V478.558L205.141 360.462Z" fill="#E8F2F6"/>
  <path fill-rule="evenodd" clip-rule="evenodd" d="M137.076 478.558V399.827L69 360.462L137.076 478.558Z" fill="#E8F2F6"/>
  <path opacity="0.1" d="M168.928 126.289C50.5401 126.289 -45.4321 222.261 -45.4321 340.649C-45.4322 459.037 50.5401 555.009 168.928 555.009C287.316 555.009 383.288 459.037 383.288 340.649C383.288 222.261 287.316 126.289 168.928 126.289Z" stroke="black" stroke-width="0.338338" stroke-miterlimit="10"/>
  <g opacity="0.75">
    <path opacity="0.8" d="M99.5557 137.157C99.3029 137.157 99.098 137.362 99.098 137.614C99.098 137.867 99.3029 138.072 99.5557 138.072C99.8085 138.072 100.013 137.867 100.013 137.614C100.013 137.362 99.8085 137.157 99.5557 137.157Z" fill="#009BFF"/>
    <g opacity="0.8">
      <g opacity="0.8">
        <path opacity="0.8" d="M4.6581 479.366C3.90215 479.366 3.28933 478.753 3.28933 477.997C3.28933 477.241 3.90215 476.628 4.6581 476.628C5.41405 476.628 6.02686 477.241 6.02686 477.997C6.02686 478.753 5.41405 479.366 4.6581 479.366Z" fill="#009BFF"/>
        <path opacity="0.8" d="M260.364 144.982C259.546 144.982 258.883 145.645 258.883 146.463C258.883 147.281 259.546 147.944 260.364 147.944C261.182 147.944 261.845 147.281 261.845 146.463C261.845 145.645 261.182 144.982 260.364 144.982Z" fill="#1DC4D7"/>
        <path opacity="0.8" d="M381.207 371.181C380.362 371.181 379.676 371.867 379.676 372.712C379.676 373.558 380.362 374.243 381.207 374.243C382.053 374.243 382.738 373.558 382.738 372.712C382.738 371.867 382.053 371.181 381.207 371.181Z" fill="#FA7548"/>
        <path opacity="0.8" d="M294.693 513.24C294.103 513.24 293.625 513.719 293.625 514.308C293.625 514.898 294.103 515.376 294.693 515.376C295.283 515.376 295.761 514.898 295.761 514.308C295.761 513.719 295.283 513.24 294.693 513.24Z" fill="#FA7548"/>
        <path opacity="0.8" d="M277.91 524.225C277.32 524.225 276.842 524.703 276.842 525.293C276.842 525.883 277.32 526.361 277.91 526.361C278.499 526.361 278.978 525.883 278.978 525.293C278.978 524.703 278.499 524.225 277.91 524.225Z" fill="#FA7548"/>
        <path opacity="0.8" d="M7.25166 199.405C6.99891 199.405 6.79401 199.61 6.79401 199.863C6.79401 200.115 6.99891 200.32 7.25166 200.32C7.50442 200.32 7.70932 200.115 7.70932 199.863C7.70932 199.61 7.50442 199.405 7.25166 199.405Z" fill="#009BFF"/>
        <path opacity="0.8" d="M9.38734 196.964C9.13455 196.964 8.92962 197.169 8.92962 197.422C8.92962 197.674 9.13455 197.879 9.38734 197.879C9.64013 197.879 9.84506 197.674 9.84506 197.422C9.84506 197.169 9.64013 196.964 9.38734 196.964Z" fill="#009BFF"/>
        <path opacity="0.8" d="M21.8986 184.301C21.6459 184.301 21.441 184.506 21.441 184.758C21.441 185.011 21.6459 185.216 21.8986 185.216C22.1514 185.216 22.3563 185.011 22.3563 184.758C22.3563 184.506 22.1514 184.301 21.8986 184.301Z" fill="#009BFF"/>
        <path opacity="0.8" d="M142.123 550.772C140.774 550.772 139.681 551.865 139.681 553.213C139.681 554.562 140.774 555.654 142.123 555.654C143.471 555.654 144.564 554.562 144.564 553.213C144.564 551.865 143.471 550.772 142.123 550.772Z" fill="#FEB12B"/>
        <path opacity="0.8" d="M159.668 552.145C158.32 552.145 157.227 553.238 157.227 554.587C157.227 555.935 158.32 557.028 159.668 557.028C161.016 557.028 162.109 555.935 162.109 554.587C162.109 553.238 161.016 552.145 159.668 552.145Z" fill="#009BFF"/>
        <path opacity="0.8" d="M224.663 546.5C224.073 546.5 223.595 546.978 223.595 547.568C223.595 548.158 224.073 548.636 224.663 548.636C225.253 548.636 225.731 548.158 225.731 547.568C225.731 546.978 225.253 546.5 224.663 546.5Z" fill="#FA7548"/>
        <path opacity="0.8" d="M207.27 550.467C206.681 550.467 206.202 550.945 206.202 551.535C206.202 552.125 206.681 552.603 207.27 552.603C207.86 552.603 208.338 552.125 208.338 551.535C208.338 550.945 207.86 550.467 207.27 550.467Z" fill="#009BFF"/>
        <path opacity="0.8" d="M29.985 502.075C29.2115 502.075 28.5844 502.702 28.5844 503.476C28.5844 504.25 29.2115 504.877 29.985 504.877C30.7586 504.877 31.3857 504.25 31.3857 503.476C31.3857 502.702 30.7586 502.075 29.985 502.075Z" fill="#6B00FF"/>
        <path opacity="0.8" d="M81.2476 534.905C80.5735 534.905 80.027 535.452 80.027 536.126C80.027 536.8 80.5735 537.347 81.2476 537.347C81.9216 537.347 82.4681 536.8 82.4681 536.126C82.4681 535.452 81.9216 534.905 81.2476 534.905Z" fill="#FEB12B"/>
        <path opacity="0.8" d="M43.8687 513.146C43.1428 513.146 42.5544 513.735 42.5544 514.461C42.5544 515.186 43.1428 515.775 43.8687 515.775C44.5945 515.775 45.1829 515.186 45.1829 514.461C45.1829 513.735 44.5945 513.146 43.8687 513.146Z" fill="#DF425A"/>
        <path opacity="0.8" d="M112.677 546.348C112.087 546.348 111.609 546.826 111.609 547.416C111.609 548.006 112.087 548.484 112.677 548.484C113.267 548.484 113.745 548.006 113.745 547.416C113.745 546.826 113.267 546.348 112.677 546.348Z" fill="#009BFF"/>
        <path opacity="0.8" d="M118.017 547.721C117.427 547.721 116.949 548.199 116.949 548.789C116.949 549.379 117.427 549.857 118.017 549.857C118.606 549.857 119.085 549.379 119.085 548.789C119.085 548.199 118.606 547.721 118.017 547.721Z" fill="#1DC4D7"/>
        <path opacity="0.8" d="M102.302 543.144C101.712 543.144 101.234 543.622 101.234 544.212C101.234 544.802 101.712 545.28 102.302 545.28C102.892 545.28 103.37 544.802 103.37 544.212C103.37 543.622 102.892 543.144 102.302 543.144Z" fill="#FA7548"/>
        <path opacity="0.8" d="M85.5203 536.888C84.9304 536.888 84.4523 537.367 84.4523 537.956C84.4523 538.546 84.9304 539.024 85.5203 539.024C86.1101 539.024 86.5883 538.546 86.5883 537.956C86.5883 537.367 86.1101 536.888 85.5203 536.888Z" fill="#009BFF"/>
        <path opacity="0.8" d="M57.7515 522.547C57.1617 522.547 56.6835 523.026 56.6835 523.615C56.6835 524.205 57.1617 524.683 57.7515 524.683C58.3413 524.683 58.8195 524.205 58.8195 523.615C58.8195 523.026 58.3413 522.547 57.7515 522.547Z" fill="#1DC4D7"/>
        <path opacity="0.8" d="M132.358 550.619C131.768 550.619 131.29 551.098 131.29 551.687C131.29 552.277 131.768 552.755 132.358 552.755C132.947 552.755 133.426 552.277 133.426 551.687C133.426 551.098 132.947 550.619 132.358 550.619Z" fill="#009BFF"/>
      </g>
    </g>
  </g>
  <path opacity="0.1" d="M173.674 56.7035C12.5391 56.7035 -118.086 187.329 -118.086 348.464C-118.086 509.598 12.5391 640.224 173.674 640.224C334.808 640.224 465.434 509.598 465.434 348.464C465.434 187.329 334.809 56.7035 173.674 56.7035Z" stroke="black" stroke-width="0.339454" stroke-miterlimit="10"/>
  <g opacity="0.5">
    <path opacity="0.8" d="M415.358 187.919C415.51 188.636 416.214 189.095 416.932 188.943C417.649 188.791 418.108 188.087 417.956 187.369C417.805 186.652 417.1 186.193 416.383 186.345C415.665 186.496 415.206 187.201 415.358 187.919Z" fill="#009BFF"/>
    <path opacity="0.8" d="M398.119 164.146C398.256 164.792 398.89 165.204 399.536 165.068C400.181 164.931 400.594 164.297 400.458 163.652C400.321 163.006 399.687 162.593 399.041 162.729C398.396 162.866 397.983 163.5 398.119 164.146Z" fill="#009BFF"/>
    <path opacity="0.8" d="M436.158 225.324C436.294 225.969 436.928 226.382 437.574 226.246C438.22 226.109 438.633 225.475 438.496 224.829C438.36 224.184 437.726 223.771 437.08 223.907C436.434 224.044 436.021 224.678 436.158 225.324Z" fill="#009BFF"/>
    <path opacity="0.8" d="M444.578 245.259C444.714 245.905 445.348 246.318 445.994 246.181C446.64 246.045 447.053 245.411 446.916 244.765C446.78 244.119 446.146 243.706 445.5 243.843C444.854 243.979 444.441 244.613 444.578 245.259Z" fill="#009BFF"/>
    <path opacity="0.8" d="M407.498 176.415C407.635 177.06 408.269 177.473 408.915 177.337C409.56 177.2 409.973 176.566 409.837 175.92C409.7 175.275 409.066 174.862 408.42 174.998C407.774 175.135 407.362 175.769 407.498 176.415Z" fill="#1DC4D7"/>
    <path opacity="0.8" d="M439.227 232.139C439.363 232.785 439.997 233.198 440.643 233.061C441.289 232.925 441.702 232.291 441.565 231.645C441.429 230.999 440.794 230.586 440.149 230.723C439.503 230.859 439.09 231.493 439.227 232.139Z" fill="#FEB12B"/>
    <path opacity="0.8" d="M452.687 267.567C452.747 267.854 453.029 268.037 453.316 267.977C453.603 267.916 453.786 267.634 453.726 267.347C453.665 267.06 453.383 266.877 453.096 266.938C452.809 266.998 452.626 267.28 452.687 267.567Z" fill="#009BFF"/>
    <path opacity="0.8" d="M453.88 271.93C453.941 272.217 454.222 272.401 454.509 272.34C454.796 272.279 454.98 271.998 454.919 271.711C454.858 271.424 454.577 271.24 454.29 271.301C454.003 271.362 453.819 271.643 453.88 271.93Z" fill="#009BFF"/>
    <path opacity="0.8" d="M459.138 295.52C459.199 295.807 459.48 295.99 459.767 295.93C460.054 295.869 460.238 295.587 460.177 295.301C460.116 295.014 459.835 294.83 459.548 294.891C459.261 294.952 459.077 295.233 459.138 295.52Z" fill="#009BFF"/>
    <path opacity="0.8" d="M402.307 168.554C402.368 168.84 402.65 169.024 402.937 168.963C403.223 168.903 403.407 168.621 403.346 168.334C403.286 168.047 403.004 167.864 402.717 167.924C402.43 167.985 402.247 168.267 402.307 168.554Z" fill="#009BFF"/>
    <path opacity="0.8" d="M218.564 60.134C218.7 60.7798 219.334 61.1926 219.98 61.0561C220.626 60.9197 221.039 60.2855 220.902 59.6398C220.766 58.994 220.131 58.5812 219.486 58.7177C218.84 58.8541 218.427 59.4883 218.564 60.134Z" fill="#009BFF"/>
    <path opacity="0.8" d="M88.5154 68.3483C88.6822 69.1375 89.4573 69.6421 90.2465 69.4753C91.0358 69.3085 91.5404 68.5334 91.3735 67.7442C91.2067 66.9549 90.4317 66.4503 89.6424 66.6171C88.8532 66.784 88.3486 67.559 88.5154 68.3483Z" fill="#6B00FF"/>
    <path opacity="0.8" d="M108.72 63.1277C108.948 64.204 110.005 64.892 111.081 64.6646C112.157 64.4371 112.845 63.3802 112.618 62.3039C112.39 61.2277 111.333 60.5396 110.257 60.7671C109.181 60.9946 108.493 62.0514 108.72 63.1277Z" fill="#FEB12B"/>
    <path opacity="0.8" d="M66.2273 75.9093C66.3486 76.4833 66.9123 76.8502 67.4863 76.7289C68.0603 76.6076 68.4273 76.0439 68.306 75.4699C68.1847 74.8959 67.621 74.5289 67.047 74.6502C66.473 74.7716 66.106 75.3352 66.2273 75.9093Z" fill="#DF425A"/>
    <path opacity="0.8" d="M45.3345 84.9398C45.471 85.5855 46.1052 85.9984 46.7509 85.8619C47.3967 85.7254 47.8095 85.0913 47.673 84.4455C47.5365 83.7997 46.9024 83.3869 46.2567 83.5234C45.6109 83.6599 45.198 84.294 45.3345 84.9398Z" fill="#1DC4D7"/>
    <path opacity="0.8" d="M146.507 638.738C146.689 639.599 147.534 640.15 148.395 639.968C149.256 639.786 149.807 638.94 149.625 638.079C149.443 637.218 148.597 636.668 147.736 636.85C146.875 637.032 146.325 637.877 146.507 638.738Z" fill="#009BFF"/>
    <path opacity="0.8" d="M54.5051 615.703C54.6719 616.492 55.4469 616.997 56.2362 616.83C57.0255 616.663 57.5301 615.888 57.3633 615.099C57.1965 614.31 56.4214 613.805 55.6321 613.972C54.8428 614.139 54.3383 614.914 54.5051 615.703Z" fill="#FEB12B"/>
    <path opacity="0.8" d="M97.5331 630.496C97.6696 631.142 98.3037 631.554 98.9495 631.418C99.5952 631.281 100.008 630.647 99.8716 630.002C99.7351 629.356 99.101 628.943 98.4552 629.079C97.8095 629.216 97.3966 629.85 97.5331 630.496Z" fill="#009BFF"/>
    <path opacity="0.8" d="M104.716 632.371C104.852 633.017 105.486 633.43 106.132 633.294C106.778 633.157 107.19 632.523 107.054 631.877C106.917 631.231 106.283 630.818 105.638 630.955C104.992 631.091 104.579 631.725 104.716 632.371Z" fill="#1DC4D7"/>
    <path opacity="0.8" d="M83.3739 626.431C83.5103 627.077 84.1445 627.49 84.7902 627.353C85.4359 627.217 85.8488 626.583 85.7123 625.937C85.5758 625.291 84.9417 624.878 84.296 625.015C83.6502 625.151 83.2374 625.785 83.3739 626.431Z" fill="#FA7548"/>
    <path opacity="0.8" d="M462.972 334.204C463.108 334.85 463.742 335.263 464.388 335.126C465.034 334.99 465.447 334.356 465.31 333.71C465.174 333.064 464.54 332.651 463.894 332.788C463.248 332.924 462.835 333.558 462.972 334.204Z" fill="#FA7548"/>
    <path opacity="0.8" d="M463.033 361.47C463.17 362.116 463.804 362.529 464.45 362.392C465.095 362.256 465.508 361.622 465.372 360.976C465.235 360.33 464.601 359.917 463.955 360.054C463.31 360.19 462.897 360.824 463.033 361.47Z" fill="#FA7548"/>
    <path opacity="0.8" d="M60.573 618.085C60.7095 618.731 61.3436 619.144 61.9894 619.007C62.6351 618.871 63.0479 618.236 62.9115 617.591C62.775 616.945 62.1408 616.532 61.4951 616.669C60.8493 616.805 60.4365 617.439 60.573 618.085Z" fill="#009BFF"/>
    <path opacity="0.8" d="M41.6504 609.463C41.7869 610.108 42.421 610.521 43.0668 610.385C43.7126 610.248 44.1255 609.614 43.989 608.968C43.8525 608.323 43.2184 607.91 42.5726 608.046C41.9268 608.183 41.5139 608.817 41.6504 609.463Z" fill="#DF425A"/>
    <path opacity="0.8" d="M22.4723 598.994C22.6088 599.64 23.2429 600.052 23.8887 599.916C24.5344 599.78 24.9473 599.145 24.8108 598.5C24.6743 597.854 24.0402 597.441 23.3944 597.578C22.7487 597.714 22.3358 598.348 22.4723 598.994Z" fill="#1DC4D7"/>
    <path opacity="0.8" d="M124.394 636.219C124.531 636.864 125.165 637.277 125.81 637.141C126.456 637.004 126.869 636.37 126.732 635.724C126.596 635.078 125.962 634.666 125.316 634.802C124.67 634.939 124.258 635.573 124.394 636.219Z" fill="#009BFF"/>
    <path opacity="0.8" d="M393.746 537.08C393.913 537.869 394.688 538.374 395.477 538.207C396.266 538.04 396.771 537.265 396.604 536.476C396.437 535.686 395.662 535.182 394.873 535.349C394.083 535.515 393.579 536.29 393.746 537.08Z" fill="#FEB12B"/>
    <path opacity="0.8" d="M408.461 518.09C408.628 518.879 409.403 519.384 410.193 519.217C410.982 519.05 411.486 518.275 411.32 517.486C411.153 516.696 410.378 516.192 409.588 516.359C408.799 516.526 408.295 517.301 408.461 518.09Z" fill="#009BFF"/>
    <path opacity="0.8" d="M453.277 424.471C453.413 425.117 454.047 425.53 454.693 425.393C455.339 425.257 455.752 424.623 455.615 423.977C455.479 423.331 454.845 422.918 454.199 423.055C453.553 423.191 453.14 423.825 453.277 424.471Z" fill="#009BFF"/>
    <path opacity="0.8" d="M448.952 438.686C449.089 439.332 449.723 439.744 450.369 439.608C451.015 439.471 451.427 438.837 451.291 438.192C451.154 437.546 450.52 437.133 449.875 437.27C449.229 437.406 448.816 438.04 448.952 438.686Z" fill="#FA7548"/>
    <path opacity="0.8" d="M440.579 461.357C440.716 462.003 441.35 462.416 441.996 462.279C442.641 462.143 443.054 461.509 442.918 460.863C442.781 460.217 442.147 459.804 441.501 459.941C440.856 460.077 440.443 460.711 440.579 461.357Z" fill="#009BFF"/>
    <path opacity="0.8" d="M459.185 397.843C459.322 398.489 459.956 398.901 460.602 398.765C461.247 398.629 461.66 397.994 461.524 397.349C461.387 396.703 460.753 396.29 460.107 396.426C459.462 396.563 459.049 397.197 459.185 397.843Z" fill="#009BFF"/>
    <path opacity="0.8" d="M385.13 547.044C385.266 547.69 385.9 548.103 386.546 547.966C387.192 547.83 387.605 547.196 387.468 546.55C387.332 545.904 386.697 545.491 386.052 545.628C385.406 545.764 384.993 546.398 385.13 547.044Z" fill="#009BFF"/>
  </g>
</svg>
