<svg width="295" height="54" viewBox="0 0 295 54" fill="none"
  xmlns="http://www.w3.org/2000/svg">
  <rect width="264.97" height="4.23317" transform="matrix(1 -0.000697042 0.00528688 0.999986 29.9827 0.184814)" fill="#E8F2F6"/>
  <rect width="109.839" height="4.06352" transform="matrix(1 -0.000697042 0.00528688 0.999986 29.9751 8.47974)" fill="#E8F2F6"/>
  <path d="M0.709112 7.80378L5.53354 12.9345L7.88401 10.7241L4.16456 6.76844L8.11981 3.04898L5.90945 0.698925L0.779173 5.52336C0.12999 6.13385 0.0986171 7.15501 0.709112 7.80378Z" fill="#E8F2F6"/>
  <path d="M22.4557 7.80378L17.6313 12.9345L15.2808 10.7241L19.0002 6.76844L15.045 3.04898L17.2553 0.698925L22.3856 5.52336C23.0348 6.13385 23.0662 7.15501 22.4557 7.80378Z" fill="#E8F2F6"/>
  <rect width="56.6578" height="4.06353" transform="matrix(1 -0.00062347 0.00591073 0.999982 139.716 8.46362)" fill="#E8F2F6"/>
  <rect width="72.3041" height="4.06353" transform="matrix(1 -0.00062347 0.00591073 0.999982 212.969 8.45972)" fill="#E8F2F6"/>
  <rect width="173.161" height="4.57763" transform="matrix(1 -0.000626208 0.00588489 0.999983 0.0078125 35.9475)" fill="#E8F2F6"/>
  <rect width="58.0417" height="4.06353" transform="matrix(1 -0.000626208 0.00588489 0.999983 -0.000488281 44.5881)" fill="#E8F2F6"/>
  <rect width="97.5975" height="4.06353" transform="matrix(1 -0.00062347 0.00591073 0.999982 75.0449 44.5886)" fill="#E8F2F6"/>
  <path d="M188.709 43.8029L193.534 48.9336L195.884 46.7232L192.165 42.7675L196.12 39.0481L193.91 36.698L188.779 41.5224C188.13 42.1329 188.099 43.1541 188.709 43.8029Z" fill="#E8F2F6"/>
  <path d="M201.177 52.7072L206.34 34.3178L203.234 33.4457L198.07 51.8346L201.177 52.7072Z" fill="#E8F2F6" />
  <path d="M210.587 49.4575L215.718 44.6326C216.367 44.0226 216.398 43.0014 215.788 42.3526L210.963 37.2219L208.613 39.4319L212.332 43.3876L208.377 47.107L210.587 49.4575Z" fill="#E8F2F6"/>
</svg>
