<svg width="69" height="109" viewBox="0 0 69 109" fill="none"
  xmlns="http://www.w3.org/2000/svg">
  <path fill-rule="evenodd" clip-rule="evenodd" d="M65.063 1.49998C65.285 0.637379 66.0681 0 67 0C68.1046 0 69 0.895431 69 2C69 3.10457 68.1046 4 67 4C66.0681 4 65.285 3.36261 65.063 2.49998L18.9724 2.49999C15.9681 2.49999 11.601 2.76773 7.99106 5.05897C4.42528 7.32215 1.5 11.6263 1.5 19.9282L1.50007 109H0.500069L0.5 19.9282C0.5 11.3573 3.54348 6.6974 7.45518 4.21467C11.3227 1.75998 15.9418 1.49999 18.9724 1.49999L65.063 1.49998Z" fill="#fff"/>
</svg>
