<svg width="203" height="162" viewBox="0 0 203 162" fill="none" xmlns="http://www.w3.org/2000/svg">
<path d="M153.333 132.869C153.333 116.898 142.605 97.7757 129.434 90.1433C129.31 90.0603 129.185 90.0188 129.061 89.9773C129.268 88.1937 129.434 86.3685 129.434 84.3774C129.434 60.443 113.363 31.7382 93.564 20.2895C80.1024 12.5741 68.4634 14.7726 62.2918 24.3961C59.351 20.7873 55.9545 17.7177 52.2681 15.6022C47.0078 12.5741 42.2445 12.1178 38.7237 13.777L38.4752 13.9015C38.1853 14.0674 37.8953 14.1918 37.6468 14.3992L21.7415 23.6495L26.8776 32.153C20.8303 34.476 16.9368 41.1959 16.9368 51.2757C16.9368 68.8221 28.7001 89.8529 43.2385 98.2735C57.6527 106.611 117.836 141.331 129.351 148.009C131.381 149.171 133.369 150.042 135.274 150.539C134.239 154.024 132.416 157.342 129.144 159.499L146.126 149.585L146.043 149.461C150.558 146.723 153.333 140.999 153.333 132.869Z" fill="#D7DFED"/>
<path d="M112.742 100.015C112.618 99.9319 112.494 99.8904 112.369 99.8489C112.576 98.0653 112.742 96.2401 112.742 94.249C112.742 70.2731 96.6711 41.5683 76.8309 30.1196C63.4108 22.3627 51.7303 24.5612 45.6001 34.1847C42.6593 30.5759 39.2629 27.4649 35.5765 25.3493C24.7244 19.0857 15.9433 23.7316 15.9433 35.6781C15.9433 37.4203 16.1504 39.2454 16.4818 41.0706C6.95518 40.3239 0.245117 47.7905 0.245117 61.0643C0.245117 78.6522 12.0499 99.683 26.5883 108.104C41.0025 116.441 101.227 151.202 112.784 157.881C125.997 165.513 136.724 158.752 136.724 142.782C136.683 126.77 125.955 107.647 112.742 100.015Z" fill="#EDF1F1"/>
<path d="M203 59.6709C203 51.8199 197.726 42.419 191.25 38.6669C191.189 38.6261 191.128 38.6057 191.067 38.5853C191.169 37.7084 191.25 36.8112 191.25 35.8324C191.25 24.066 183.35 9.95463 173.617 4.32637C166.999 0.533421 161.277 1.61421 158.243 6.3452C156.797 4.57108 155.128 3.06206 153.315 2.02205C150.729 0.533421 148.388 0.309107 146.657 1.1248L146.535 1.18597C146.392 1.26754 146.25 1.32872 146.127 1.43068L138.308 5.97815L140.833 10.1586C137.86 11.3005 135.946 14.6041 135.946 19.5594C135.946 28.1853 141.729 38.5241 148.876 42.6638C155.962 46.7626 185.549 63.8309 191.21 67.114C192.208 67.685 193.185 68.1132 194.122 68.358C193.612 70.0709 192.717 71.7023 191.108 72.7627L199.457 67.8889L199.416 67.8278C201.635 66.4819 203 63.6677 203 59.6709Z" fill="#D7DFED"/>
<path d="M183.044 43.5177C182.983 43.4769 182.922 43.4565 182.861 43.4361C182.963 42.5592 183.044 41.662 183.044 40.6831C183.044 28.8964 175.144 14.785 165.39 9.15676C158.793 5.34341 153.05 6.4242 150.037 11.1552C148.591 9.38107 146.921 7.85165 145.109 6.81165C139.774 3.73243 135.457 6.01635 135.457 11.8893C135.457 12.7458 135.559 13.643 135.722 14.5403C131.039 14.1732 127.74 17.8438 127.74 24.3694C127.74 33.0157 133.543 43.3545 140.69 47.4941C147.777 51.593 177.383 68.6816 183.065 71.9648C189.56 75.717 194.834 72.393 194.834 64.542C194.814 56.6706 189.54 47.2698 183.044 43.5177Z" fill="#EDF1F1"/>
</svg>
