<svg width="129" height="34" viewBox="0 0 129 34" fill="none" xmlns="http://www.w3.org/2000/svg">
<path d="M16.951 34H4.62091C2.06846 34 0 31.9315 0 29.3791V4.62091C0 2.06846 2.06846 0 4.62091 0H16.951V34Z" fill="#0F4C77"/>
<path d="M16.9531 17.0432H34.0021V4.62091C34.0021 2.06846 31.9336 0 29.3812 0H16.9531V17.0432Z" fill="#113A5C"/>
<path d="M16.9531 33.9942H29.3754C31.9279 33.9942 33.9963 31.9257 33.9963 29.3733V16.9971H16.9531V33.9942Z" fill="#165B90"/>
<path d="M8.7337 20.9498C8.20362 20.9498 7.67354 20.944 7.14346 20.9555C6.83809 20.9613 6.71709 20.8288 6.72285 20.5292C6.73438 20.0337 6.74014 20.1777 6.73438 19.6822C6.72861 19.3941 6.86113 19.2789 7.14346 19.2846C8.20362 19.2904 25.7884 19.2904 26.8486 19.2846C27.1309 19.2846 27.2577 19.3999 27.2577 19.6822C27.2519 20.1777 27.2577 20.0337 27.2692 20.5292C27.275 20.8288 27.1597 20.9613 26.8544 20.9555C26.3185 20.944 9.26954 20.9498 8.7337 20.9498Z" fill="#F15751"/>
<path d="M18.1486 20.1142C18.1486 20.6443 18.1429 21.1744 18.1544 21.7045C18.1602 22.0098 18.0277 22.1308 17.728 22.1251C17.2325 22.1135 16.737 22.1078 16.2415 22.1135C15.9534 22.1193 15.8382 21.9868 15.844 21.7045C15.8497 20.6443 15.8497 19.5784 15.844 18.5182C15.844 18.2359 15.9592 18.1091 16.2415 18.1091C16.737 18.1149 17.2325 18.1091 17.728 18.0976C18.0277 18.0919 18.1602 18.2071 18.1544 18.5125C18.1429 19.0541 18.1486 19.5841 18.1486 20.1142Z" fill="white"/>
<path d="M26.095 25.4265C26.0893 25.1557 26.0259 24.8619 25.8991 24.6199C24.3435 21.5489 22.7705 18.4894 21.1976 15.4299C21.0708 15.1879 21.065 15.0151 21.2321 14.7673C22.5631 12.8429 22.3902 10.2674 20.8403 8.51583C20.1143 7.69767 19.2098 7.17335 18.1438 6.89678C18.1438 6.22842 18.1381 5.58311 18.1496 4.93203C18.1554 4.62666 18.0286 4.50566 17.729 4.51143C17.2796 4.52295 16.8302 4.51143 16.3807 4.51143C15.8852 4.51143 15.8564 4.54023 15.8507 5.03574C15.8507 5.65801 15.8507 6.28028 15.8507 6.89102C15.7642 6.91407 15.7181 6.92559 15.6721 6.93712C12.1459 7.9339 10.7803 12.0074 12.8373 14.8768C12.9756 15.0669 12.9064 15.1937 12.8258 15.355C11.4717 18.0112 10.1638 20.6904 8.74644 23.3177C8.12418 24.4701 7.78999 25.6109 7.89947 26.9188C7.96285 27.6678 7.90523 28.4284 7.91675 29.1832C7.91675 29.2811 8.00318 29.3733 8.05504 29.4713C8.14722 29.4136 8.25093 29.3733 8.32584 29.2984C8.38345 29.2466 8.40074 29.1544 8.44107 29.0795C10.4923 25.0463 12.5492 21.013 14.6004 16.9798C14.6753 16.8358 14.7559 16.7033 14.8366 16.5592C16.2943 17.1642 17.7117 17.1988 19.1694 16.5707C19.7053 17.6136 20.2238 18.6162 20.7366 19.6245C22.3557 22.8049 23.9747 25.9912 25.5995 29.1717C25.6629 29.2984 25.8185 29.3791 25.9337 29.477C25.9913 29.3387 26.095 29.2062 26.095 29.0679C26.1123 27.858 26.1181 26.6423 26.095 25.4265ZM16.9857 14.7155C15.4589 14.7155 14.1682 13.4191 14.174 11.8864C14.1798 10.3653 15.4531 9.08624 16.9742 9.07472C18.5299 9.0632 19.8263 10.3596 19.8205 11.9095C19.8147 13.4479 18.5356 14.7155 16.9857 14.7155Z" fill="white"/>
<path d="M91.3746 19.2037C91.3746 19.077 91.3746 18.9502 91.3746 18.8235C91.3746 15.3895 91.3746 11.9497 91.3746 8.51573C91.3746 7.99717 91.4207 7.94532 91.9335 7.94532C92.7114 7.94532 93.495 7.95108 94.2728 7.93956C94.5955 7.93379 94.751 8.04327 94.751 8.38897C94.7453 14.1277 94.7453 19.8663 94.751 25.605C94.751 25.9162 94.63 26.0717 94.3131 26.0487C94.2901 26.0487 94.267 26.0429 94.244 26.0487C93.4201 26.1812 92.8439 25.8297 92.2792 25.2248C89.0699 21.7908 85.8146 18.3971 82.5822 14.9919C82.5073 14.917 82.4555 14.8248 82.3921 14.7384C82.3575 14.7499 82.3172 14.7615 82.2826 14.7787C82.2826 14.9113 82.2826 15.0438 82.2826 15.1705C82.2826 18.6045 82.2826 22.0443 82.2826 25.4783C82.2826 26.0026 82.2365 26.0487 81.7237 26.0487C80.9459 26.0487 80.1623 26.0429 79.3845 26.0545C79.0618 26.0602 78.9062 25.9507 78.9062 25.605C78.912 19.8663 78.912 14.1277 78.9062 8.38897C78.9062 8.07784 79.0272 7.92227 79.3441 7.94532C79.3672 7.94532 79.3902 7.95108 79.4133 7.94532C80.2372 7.8128 80.8134 8.16426 81.378 8.76925C84.5873 12.2032 87.8427 15.5969 91.075 19.0021C91.1499 19.077 91.2018 19.1692 91.2652 19.2556C91.3055 19.2383 91.3401 19.221 91.3746 19.2037Z" fill="#0F4C77"/>
<path d="M46.0028 11.0335C46.0028 12.664 46.0028 14.2485 46.0028 15.8848C46.1526 15.8848 46.2909 15.8848 46.4292 15.8848C48.3766 15.8848 50.3241 15.8848 52.2773 15.8848C52.721 15.8848 52.7901 15.954 52.7901 16.3919C52.7901 17.089 52.7901 17.7862 52.7901 18.4834C52.7901 18.8982 52.7152 18.9674 52.2889 18.9731C50.3414 18.9731 48.3939 18.9731 46.4407 18.9731C46.3024 18.9731 46.1641 18.9731 45.9855 18.9731C45.9855 19.146 45.9855 19.2843 45.9855 19.4225C45.9855 21.4507 45.9855 23.4846 45.9855 25.5127C45.9855 26.0024 45.9279 26.0543 45.4382 26.0601C44.6949 26.0601 43.9516 26.0601 43.2084 26.0601C42.661 26.0601 42.6207 26.0197 42.6207 25.4839C42.6207 19.8316 42.6207 14.1736 42.6207 8.52134C42.6207 8.48677 42.6207 8.4522 42.6207 8.41763C42.5919 8.08345 42.7417 7.95093 43.0758 7.95093C46.5387 7.95669 49.9957 7.95669 53.4585 7.95669C53.8503 7.95669 53.931 8.03735 53.931 8.43491C53.931 9.13208 53.931 9.82925 53.931 10.5264C53.931 10.9758 53.8618 11.0392 53.4239 11.045C51.1077 11.045 48.7972 11.045 46.481 11.045C46.3312 11.0335 46.1872 11.0335 46.0028 11.0335Z" fill="#0F4C77"/>
<path d="M101.587 11.0334C100.879 11.0334 100.222 11.0334 99.5649 11.0334C98.8793 11.0334 98.1936 11.0218 97.508 11.0391C97.1738 11.0449 97.0413 10.9066 97.0471 10.5724C97.0586 9.8522 97.0586 9.13199 97.0471 8.41177C97.0413 8.08335 97.1681 7.94507 97.5022 7.94507C101.351 7.95083 105.206 7.95083 109.055 7.94507C109.371 7.94507 109.498 8.07759 109.492 8.39448C109.481 9.1147 109.492 9.83492 109.487 10.5551C109.487 10.9527 109.406 11.0334 109.014 11.0334C107.677 11.0334 106.347 11.0334 104.952 11.0334C104.952 11.1947 104.952 11.3445 104.952 11.4943C104.952 16.144 104.952 20.7995 104.952 25.4492C104.952 26.0196 104.918 26.0542 104.359 26.0542C103.604 26.0542 102.849 26.0542 102.089 26.0542C101.651 26.0542 101.582 25.9851 101.582 25.5357C101.582 20.8744 101.582 16.2074 101.582 11.5462C101.587 11.3906 101.587 11.2408 101.587 11.0334Z" fill="#0F4C77"/>
<path d="M60.7298 22.9661C61.7554 22.9661 62.7176 22.9661 63.6856 22.9661C64.8091 22.9661 65.9269 22.9661 67.0504 22.9661C67.448 22.9661 67.5286 23.0468 67.5286 23.4386C67.5286 24.1588 67.5229 24.879 67.5344 25.5992C67.5402 25.9334 67.3961 26.0602 67.0677 26.0602C63.9852 26.0544 60.9026 26.0544 57.8201 26.0602C57.4917 26.0602 57.3477 25.9449 57.3477 25.605C57.3534 19.8663 57.3534 14.1334 57.3477 8.3947C57.3477 8.04899 57.4975 7.93952 57.8201 7.94528C58.6095 7.95681 59.4046 7.94528 60.1939 7.95105C60.6606 7.95105 60.7183 8.01442 60.7183 8.48688C60.7183 13.1481 60.7183 17.8094 60.7183 22.4764C60.7298 22.6147 60.7298 22.7702 60.7298 22.9661Z" fill="#0F4C77"/>
<path d="M74.3394 17.0142C74.3394 19.8374 74.3394 22.6607 74.3394 25.4781C74.3394 25.9967 74.2933 26.0486 73.7805 26.0486C73.0026 26.0486 72.219 26.0428 71.4412 26.0543C71.1186 26.0601 70.9688 25.9448 70.9688 25.6049C70.9745 19.8662 70.9745 14.1275 70.9688 8.38884C70.9688 8.04313 71.1243 7.93366 71.447 7.93942C72.2479 7.95095 73.0545 7.93942 73.8554 7.94518C74.2702 7.94518 74.3451 8.02009 74.3451 8.44645C74.3394 11.3043 74.3394 14.1621 74.3394 17.0142Z" fill="#0F4C77"/>
<path d="M110.648 17.3772C110.7 14.8247 111.161 12.7851 112.486 11.0105C113.869 9.16096 115.753 8.16418 117.995 7.80695C119.723 7.53039 121.429 7.63986 123.088 8.21604C125.445 9.02844 127.127 10.5899 128.009 12.9176C129.115 15.8215 129.092 18.7485 127.79 21.5775C126.539 24.3028 124.286 25.749 121.36 26.1984C119.614 26.4692 117.891 26.354 116.237 25.7432C113.328 24.6716 111.622 22.5282 110.948 19.5494C110.758 18.7139 110.712 17.8497 110.648 17.3772ZM125.445 17.0084C125.381 16.4092 125.352 15.81 125.243 15.2223C124.863 13.2287 123.843 11.7365 121.849 11.0566C120.806 10.6993 119.723 10.659 118.634 10.8146C116.658 11.0969 115.229 12.1167 114.526 14.0008C113.812 15.908 113.812 17.8612 114.451 19.7914C115.027 21.5372 116.249 22.6319 118.041 23.0698C118.98 23.3003 119.936 23.3175 120.887 23.162C122.604 22.8854 123.918 22.0327 124.696 20.4424C125.231 19.365 125.416 18.2126 125.445 17.0084Z" fill="#0F4C77"/>
</svg>
