<svg width="91" height="29" viewBox="0 0 91 29" fill="none"
  xmlns="http://www.w3.org/2000/svg">
  <path d="M86.3355 28.1949H79.8156C79.5555 27.0158 79.2954 25.9148 79.1046 24.805C79.0353 24.3455 78.8446 24.1548 78.3244 24.1548H70.5215C70.3759 24.1317 70.227 24.1657 70.1059 24.2497C69.9847 24.3337 69.9007 24.4612 69.8712 24.6056C69.4811 25.7153 69.0909 26.7557 68.7007 27.8048C68.6313 27.9348 68.4406 28.1256 68.3106 28.1256H61.21C61.6608 27.0852 62.077 26.0448 62.5105 25.0651C65.5709 17.8344 68.5794 10.6036 71.5618 3.39023C71.7817 2.69922 72.2304 2.10372 72.834 1.70184C73.4376 1.29997 74.16 1.1157 74.8824 1.17939H80.6132C80.8126 2.08973 81.0121 2.91338 81.1422 3.78037C82.6334 10.9418 84.1333 18.1031 85.5638 25.2038C85.7632 26.0708 85.954 27.0245 86.2227 27.9435L86.3355 28.1949ZM77.7955 18.6147C77.0845 15.2941 76.4344 12.0428 75.7148 8.78293H75.654L72.0646 18.6147H77.7955Z" fill="#8EAAB2"/>
  <path d="M58.002 0.771866C58.8603 0.883486 59.7093 1.05734 60.5424 1.29206C61.4093 1.55216 62.1029 1.68221 62.8832 1.94231L61.7128 7.5431C60.603 7.22231 59.5626 6.89285 58.5222 6.63275C57.0668 6.27734 55.5473 6.27734 54.0919 6.63275C53.4736 6.82127 52.899 7.1307 52.4013 7.5431C52.0896 7.7969 51.8833 8.15742 51.8225 8.55472C51.7616 8.95202 51.8504 9.35777 52.0718 9.69324C52.1425 9.79458 52.2305 9.88264 52.3318 9.95334C52.8655 10.443 53.4463 10.8786 54.0658 11.2538C55.4964 12.1208 56.9963 12.8838 58.4008 13.7334C59.2163 14.2201 59.9138 14.8815 60.443 15.6701C60.9722 16.4587 61.32 17.3547 61.4613 18.2938C61.7271 19.8988 61.5028 21.5467 60.8176 23.0222C60.1324 24.4978 59.0183 25.7324 57.6206 26.565C55.7782 27.733 53.6753 28.427 51.4996 28.5851C48.4402 28.8572 45.3575 28.5032 42.4395 27.5447L41.8586 27.3453C41.7892 27.2759 41.7285 27.2759 41.6592 27.2152C42.0493 25.2645 42.5261 23.3051 42.8989 21.3543C43.4191 21.5451 43.8786 21.8052 44.3295 22.0046C46.5631 22.9727 49.0293 23.2738 51.4302 22.8716C52.087 22.748 52.7085 22.4816 53.2509 22.0913C53.4708 21.9604 53.6625 21.787 53.8146 21.5812C53.9667 21.3754 54.0762 21.1413 54.1367 20.8926C54.1973 20.644 54.2076 20.3857 54.1671 20.133C54.1267 19.8803 54.0363 19.6383 53.9011 19.4209C53.7871 19.2191 53.6338 19.0423 53.4503 18.9007C52.7209 18.3037 51.9339 17.7809 51.1008 17.3401C49.8696 16.4731 48.5604 15.8402 47.39 14.9906C46.6231 14.4924 45.9749 13.832 45.491 13.0561C45.0072 12.2801 44.6995 11.4074 44.5896 10.4995C44.4241 9.15694 44.6142 7.79442 45.1406 6.5483C45.667 5.30218 46.5114 4.21615 47.5894 3.39886C49.5227 1.8924 51.8564 0.987872 54.2999 0.797875C54.43 0.797875 54.5601 0.728516 54.6901 0.728516L58.002 0.771866Z" fill="#8EAAB2"/>
  <path d="M32.7638 1.23155L31.7234 3.77184C28.3421 11.7829 25.0215 19.7245 21.6316 27.7356C21.5963 27.8915 21.501 28.0272 21.3663 28.1133C21.2315 28.1993 21.0682 28.2287 20.9119 28.1951H14.6003C14.1408 28.1951 14.0106 28.065 13.8806 27.6749C12.1466 20.7389 10.2999 13.7336 8.47056 6.76297C8.35985 6.16648 8.09873 5.60812 7.71183 5.14082C7.32493 4.67351 6.82514 4.31272 6.25978 4.09263C4.30658 3.24249 2.27356 2.58902 0.190819 2.14189L0 2.01184C0 1.23155 2.11875e-05 1.23155 0.780317 1.23155H11.8519C12.6466 1.18898 13.4284 1.44582 14.0432 1.95139C14.6579 2.45695 15.0608 3.17454 15.1724 3.96258C16.0394 8.85243 17.0624 13.7943 17.9728 18.7015C18.0421 18.8922 18.0422 19.1523 18.1029 19.4211L18.3022 19.0223C20.5824 13.2308 22.9233 7.43056 25.2382 1.68238C25.2494 1.61094 25.2762 1.54284 25.3166 1.48287C25.3571 1.42291 25.4102 1.37254 25.4722 1.33534C25.5342 1.29813 25.6036 1.27499 25.6755 1.26754C25.7474 1.26009 25.8201 1.26852 25.8885 1.29224H32.8244L32.7638 1.23155Z" fill="#8EAAB2"/>
  <path d="M29.9895 28.1949C31.9489 19.2041 33.8389 10.2134 35.729 1.23132H42.6649C42.4048 2.59251 42.0841 3.96236 41.7979 5.26285C40.2287 12.693 38.6074 20.1145 37.0382 27.5446C36.9081 28.0648 36.7174 28.1949 36.1712 28.1949H29.9114H29.9895Z" fill="#8EAAB2"/>
  <path d="M90.6963 26.1057C90.6832 26.3274 90.6395 26.5462 90.5664 26.7559C90.4951 26.9509 90.3828 27.1283 90.2369 27.2761C90.0937 27.4276 89.9148 27.5409 89.7166 27.6056C89.3136 27.7355 88.8799 27.7355 88.4769 27.6056C88.2796 27.539 88.1012 27.426 87.9567 27.2761C87.8105 27.1302 87.7006 26.9521 87.6359 26.7559C87.5587 26.5473 87.5148 26.3279 87.5059 26.1057C87.5164 25.8836 87.5603 25.6644 87.6359 25.4554C87.7029 25.2603 87.8124 25.0826 87.9567 24.9352C88.1059 24.7912 88.2829 24.6791 88.4769 24.6058C88.8799 24.4758 89.3136 24.4758 89.7166 24.6058C89.9116 24.677 90.0891 24.7894 90.2369 24.9352C90.3809 25.0844 90.493 25.2614 90.5664 25.4554C90.6772 25.6531 90.7226 25.8806 90.6963 26.1057ZM90.3669 26.1057C90.3805 25.93 90.3599 25.7533 90.3062 25.5855C90.2427 25.423 90.155 25.271 90.0461 25.1346C89.9333 25.0245 89.801 24.9364 89.656 24.8745C89.5136 24.7996 89.357 24.7553 89.1965 24.7445C89.0132 24.7265 88.8295 24.7725 88.6763 24.8745C88.5313 24.9364 88.399 25.0245 88.2862 25.1346C88.1617 25.2597 88.072 25.4151 88.026 25.5855C87.9696 25.7528 87.9461 25.9294 87.9567 26.1057C87.945 26.282 87.9685 26.4588 88.026 26.6259C88.0867 26.7559 88.1561 26.9553 88.2862 27.016C88.399 27.1261 88.5313 27.2143 88.6763 27.2761C88.8399 27.3533 89.0161 27.4003 89.1965 27.4148C89.2786 27.4296 89.363 27.4247 89.4428 27.4006C89.5227 27.3765 89.5958 27.3338 89.656 27.2761C89.801 27.2143 89.9333 27.1261 90.0461 27.016C90.1676 26.8887 90.2568 26.7341 90.3062 26.5652C90.3678 26.4203 90.3887 26.2615 90.3669 26.1057ZM88.8064 27.016H88.5462V25.1953H89.1965C89.3798 25.1751 89.5644 25.2212 89.7166 25.3254C89.7786 25.3697 89.8292 25.4283 89.8638 25.4962C89.8985 25.5641 89.9165 25.6393 89.9161 25.7155C89.9186 25.7765 89.9083 25.8374 89.8861 25.8942C89.8638 25.9511 89.8301 26.0027 89.7869 26.0459C89.7437 26.089 89.6921 26.1228 89.6352 26.145C89.5784 26.1673 89.5176 26.1775 89.4566 26.175L89.9768 26.9553H89.656L89.1965 26.2357H88.9364V27.016H88.8064ZM89.1358 26.045H89.3265C89.3959 26.045 89.3959 26.045 89.4566 25.9756C89.4653 25.9769 89.4741 25.9762 89.4825 25.9737C89.4909 25.9713 89.4986 25.967 89.5052 25.9612C89.5118 25.9555 89.5171 25.9483 89.5206 25.9403C89.5242 25.9324 89.526 25.9237 89.5259 25.9149C89.5308 25.8659 89.5523 25.8201 89.5867 25.7849C89.5867 25.7155 89.5866 25.7155 89.5259 25.6548C89.5259 25.6364 89.5186 25.6188 89.5056 25.6058C89.4926 25.5928 89.475 25.5855 89.4566 25.5855H88.8064V26.1057L89.1358 26.045Z" fill="#8EAAB2"/>
</svg>
