<svg width="35" height="34" viewBox="0 0 35 34" fill="none" xmlns="http://www.w3.org/2000/svg">
<g clip-path="url(#clip0)">
<path d="M6.17521 0H28.6966C32.1111 0 34.8718 2.76068 34.8718 6.17521V27.8248C34.8718 31.2393 32.1111 34 28.6966 34H6.17521C2.76068 34 0 31.2393 0 27.8248V6.17521C0 2.76068 2.76068 0 6.17521 0Z" fill="#001E36"/>
<path d="M7.84766 23.8436V8.89227C7.84766 8.79056 7.89125 8.73244 7.99296 8.73244C8.23996 8.73244 8.47244 8.73244 8.80663 8.71791C9.15535 8.70338 9.5186 8.70338 9.9109 8.68885C10.3032 8.67432 10.7246 8.67432 11.175 8.65979C11.6254 8.64526 12.0613 8.64526 12.4972 8.64526C13.6887 8.64526 14.6767 8.79056 15.4904 9.09569C16.2169 9.3427 16.8853 9.74954 17.4374 10.2871C17.9024 10.7521 18.2656 11.3188 18.4981 11.9436C18.716 12.5538 18.8323 13.1786 18.8323 13.8324C18.8323 15.082 18.5417 16.1136 17.9605 16.9273C17.3793 17.741 16.5656 18.3512 15.6212 18.7C14.6331 19.0632 13.5434 19.194 12.3519 19.194C12.0032 19.194 11.7707 19.194 11.6254 19.1795C11.4801 19.1649 11.2767 19.1649 11.0006 19.1649V23.829C11.0152 23.9307 10.9425 24.0179 10.8408 24.0324C10.8263 24.0324 10.8118 24.0324 10.7827 24.0324H8.02202C7.90578 24.0324 7.84766 23.9743 7.84766 23.8436ZM11.0152 11.5367V16.4188C11.2186 16.4333 11.4075 16.4478 11.5818 16.4478H12.3519C12.9186 16.4478 13.4853 16.3606 14.0229 16.1863C14.4878 16.0555 14.8947 15.7795 15.2143 15.4162C15.5195 15.053 15.6648 14.5589 15.6648 13.9196C15.6793 13.4692 15.563 13.0188 15.3306 12.6265C15.0836 12.2487 14.7348 11.9581 14.3135 11.7983C13.7759 11.5803 13.1947 11.4931 12.5989 11.5077C12.2212 11.5077 11.887 11.5077 11.6109 11.5222C11.3203 11.5077 11.1169 11.5222 11.0152 11.5367Z" fill="#31A8FF"/>
<path d="M27.8966 15.5323C27.4607 15.2998 26.9958 15.14 26.5018 15.0383C25.9642 14.922 25.4265 14.8494 24.8744 14.8494C24.5838 14.8349 24.2787 14.8784 24.0026 14.9511C23.8137 14.9947 23.6539 15.0964 23.5522 15.2417C23.4795 15.3579 23.4359 15.5032 23.4359 15.634C23.4359 15.7648 23.4941 15.8955 23.5812 16.0118C23.712 16.1716 23.8864 16.3024 24.0753 16.4041C24.4095 16.5784 24.7582 16.7383 25.1069 16.8836C25.8915 17.1451 26.6471 17.5084 27.3445 17.9443C27.824 18.2494 28.2163 18.6562 28.4924 19.1502C28.7248 19.6152 28.8411 20.1237 28.8265 20.6468C28.8411 21.3297 28.6377 22.0126 28.2599 22.5793C27.853 23.1605 27.2864 23.6109 26.6325 23.8725C25.9206 24.1776 25.0488 24.3374 24.0026 24.3374C23.3342 24.3374 22.6804 24.2793 22.0265 24.1485C21.518 24.0614 21.0094 23.9015 20.5445 23.6836C20.4428 23.6255 20.3701 23.5237 20.3847 23.4075V20.8793C20.3847 20.8357 20.3992 20.7776 20.4428 20.7485C20.4864 20.7195 20.53 20.734 20.5736 20.7631C21.1402 21.0973 21.7359 21.3297 22.3753 21.475C22.9274 21.6203 23.5086 21.693 24.0898 21.693C24.6419 21.693 25.0342 21.6203 25.2958 21.4896C25.5283 21.3878 25.6881 21.1408 25.6881 20.8793C25.6881 20.6759 25.5718 20.487 25.3394 20.2981C25.1069 20.1092 24.6274 19.8913 23.9154 19.6152C23.1744 19.3537 22.4915 19.0049 21.8522 18.569C21.4018 18.2494 21.024 17.828 20.7479 17.334C20.5154 16.869 20.3992 16.3605 20.4137 15.852C20.4137 15.2272 20.5881 14.6314 20.9077 14.0938C21.271 13.5126 21.8086 13.0477 22.4334 12.7571C23.1163 12.4084 23.9736 12.2485 25.0052 12.2485C25.6009 12.2485 26.2112 12.2921 26.8069 12.3793C27.2428 12.4374 27.6642 12.5537 28.0565 12.7135C28.1146 12.728 28.1727 12.7861 28.2018 12.8443C28.2163 12.9024 28.2308 12.9605 28.2308 13.0186V15.387C28.2308 15.4451 28.2018 15.5032 28.1582 15.5323C28.0274 15.5614 27.9548 15.5614 27.8966 15.5323Z" fill="#31A8FF"/>
</g>
<defs>
<clipPath id="clip0">
<rect width="34.8718" height="34" fill="white"/>
</clipPath>
</defs>
</svg>
