<svg width="135" height="34" viewBox="0 0 135 34" fill="none" xmlns="http://www.w3.org/2000/svg">
<path d="M43.4765 13.3107C43.4765 10.8695 41.1344 8.30928 37.0637 8.30928C32.4987 8.30928 27.4865 11.6705 26.7191 18.3793C25.9348 25.1537 30.1322 28.164 34.3631 28.164C38.5941 28.164 40.8095 26.5085 43.0752 24.3008C41.1268 21.8443 38.6108 22.9795 38.1287 23.2297C37.3306 23.6744 36.4268 23.8943 35.5136 23.8659C33.881 23.8659 32.2149 23.1305 32.2149 20.0698C42.6755 19.0323 43.475 15.7367 43.475 13.3107H43.4765ZM38.292 13.712C38.2248 14.4642 37.9258 15.7519 32.6283 16.4736C33.7421 12.4914 35.8782 12.1923 36.8593 12.1923C37.0581 12.1833 37.2566 12.2171 37.4412 12.2915C37.6258 12.3659 37.7922 12.4792 37.9291 12.6237C38.066 12.7681 38.1703 12.9404 38.2347 13.1287C38.2992 13.317 38.3223 13.517 38.3026 13.715L38.292 13.712ZM20.5749 14.365L18.1428 22.0426L16.4263 8.71208C12.5967 8.71208 10.5369 11.4554 9.46275 14.3482L6.49668 22.0594L6.08015 14.4306C5.85434 10.8848 2.61668 8.72734 0 8.72734L3.16442 28.0129C7.17717 27.9977 9.34375 25.2696 10.4774 22.3768L12.9857 15.8206C13.0086 16.0876 14.719 28.0145 14.719 28.0145C18.75 28.0145 20.9166 25.4558 22.0777 22.6621L27.723 8.72886C23.7484 8.72886 21.6536 11.4554 20.5718 14.365H20.5749ZM58.2702 8.26198C55.7878 8.26198 53.8913 9.61686 52.2893 11.6064V11.5912L53.7204 0C50.4217 0 47.7395 2.87758 47.2237 7.15886L44.7429 27.8634C46.6424 27.8634 48.658 27.3111 49.7413 25.9059C50.7086 27.16 52.1565 28.164 54.3063 28.164C59.8692 28.164 63.6852 21.6749 63.6852 15.5856C63.6516 10.0319 60.9693 8.27724 58.287 8.27724L58.2702 8.26198ZM57.7515 18.2145C57.1717 21.6093 55.2859 23.9178 53.4717 23.9178C51.6576 23.9178 50.8566 23.0985 50.8566 23.0985C51.2075 20.1232 51.4242 18.2984 52.0894 16.7254C52.7546 15.1523 54.3384 12.644 55.9877 12.644C57.605 12.644 58.3374 14.8014 57.753 18.213L57.7515 18.2145ZM77.5589 8.71361H73.6773L73.6926 8.51221C73.9596 5.97029 74.5592 4.6322 76.5366 4.41402C77.8869 4.27975 78.4865 3.5779 78.6361 2.80892L79.1197 0.115958C71.3384 0.0656079 68.8758 3.44211 68.2487 8.59612L68.2334 8.71361H68.1495C66.8831 8.71361 65.4855 10.1524 65.2506 11.9757L65.1667 12.644H67.7666L65.5847 30.7395L64.9164 33.9847C65.0004 33.9847 65.0995 34 65.1819 34C68.8285 33.8657 71.1629 30.9729 71.6786 26.774L73.3813 12.6409H74.602C75.8012 12.6409 77.2019 11.4356 77.446 9.42919L77.5589 8.71361ZM97.7477 8.37794C93.2666 8.37794 89.0356 11.6888 87.7387 16.8917C86.4418 22.0945 88.407 28.2479 95.0013 28.2479C101.596 28.2479 105.372 21.8397 105.372 16.5057C105.378 11.2036 101.799 8.37641 97.7492 8.37641L97.7477 8.37794ZM99.5634 18.0451C99.3314 20.404 98.297 23.9834 95.4652 23.9834C92.6334 23.9834 93.0163 19.8028 93.291 17.8117C93.5915 15.6878 94.774 12.6607 97.322 12.6607C99.6137 12.6607 99.8288 15.3873 99.5649 18.0467L99.5634 18.0451ZM127.515 14.3482L125.083 22.0258C125.018 21.4232 123.368 8.6953 123.368 8.6953C119.539 8.6953 117.488 11.4386 116.414 14.3314L113.448 22.0426C113.433 21.4903 113.031 14.4138 113.031 14.4138C112.79 10.868 109.556 8.71055 106.928 8.71055L110.076 27.9961C114.089 27.9809 116.255 25.2528 117.389 22.36L119.888 15.8038C119.903 16.0708 121.621 27.9977 121.621 27.9977C125.652 27.9977 127.81 25.439 128.98 22.6453L134.63 8.71208C130.666 8.71208 128.567 11.4386 127.5 14.3482H127.515ZM81.2237 0.112908L77.9586 26.5543L77.2903 29.8164C77.3727 29.8164 77.4734 29.8316 77.5558 29.8316C81.0681 29.7813 83.5673 26.6886 84.0357 22.7903L85.917 7.61964C86.4876 2.98591 83.7397 0.109855 81.2237 0.109855V0.112908Z" fill="#4353FF"/>
</svg>
