<svg width="132" height="29" viewBox="0 0 132 29" fill="none"
  xmlns="http://www.w3.org/2000/svg">
  <path d="M46.6011 16.2446L45.8142 18.4741H45.7487C45.6175 17.9713 45.3771 17.2063 44.9836 16.2883L40.7651 5.6872H36.6339V22.5834H39.3661V12.1571C39.3661 11.5014 39.3661 10.7582 39.3443 9.8402C39.3224 9.38119 39.2787 9.03146 39.2569 8.76916H39.3224C39.4536 9.4249 39.6066 9.90578 39.7159 10.2118L44.7869 22.5396H46.7104L51.7377 10.1025C51.847 9.81834 51.9563 9.25004 52.0656 8.76916H52.1312C52.0656 10.0151 52.0219 11.1298 52 11.8074V22.5178H54.9071V5.64348H50.929L46.6011 16.2446ZM57.6612 10.4085H60.5027V22.5178H57.6612V10.4085ZM59.1038 5.29376C58.623 5.29376 58.2295 5.46862 57.9017 5.77463C57.5738 6.08064 57.3989 6.47408 57.3989 6.95496C57.3989 7.41397 57.5738 7.80742 57.9017 8.11343C58.2295 8.41944 58.623 8.57244 59.1038 8.57244C59.5847 8.57244 60 8.39758 60.306 8.11343C60.6339 7.80742 60.8088 7.41397 60.8088 6.95496C60.8088 6.49594 60.6339 6.1025 60.306 5.77463C60.0219 5.46862 59.6066 5.29376 59.1038 5.29376ZM70.5792 10.2992C70.0547 10.1899 69.5082 10.1244 68.9836 10.1244C67.694 10.1244 66.5137 10.4085 65.5301 10.9768C64.5465 11.5451 63.7596 12.332 63.2568 13.3156C62.7323 14.3211 62.47 15.4795 62.47 16.8129C62.47 17.9713 62.7323 18.9987 63.235 19.9386C63.7377 20.8566 64.4372 21.5998 65.3771 22.1025C66.2732 22.6052 67.3224 22.8675 68.5027 22.8675C69.8579 22.8675 71.0164 22.5834 71.9344 22.0588L71.9563 22.0369V19.414L71.847 19.5014C71.4317 19.8074 70.9508 20.0697 70.47 20.2227C69.9672 20.3976 69.5082 20.485 69.1148 20.485C67.9782 20.485 67.082 20.1571 66.4481 19.4358C65.7924 18.7364 65.4645 17.7746 65.4645 16.5724C65.4645 15.3265 65.7924 14.3429 66.47 13.6216C67.1476 12.9003 68.0437 12.5287 69.1366 12.5287C70.0547 12.5287 70.9945 12.8347 71.847 13.4468L71.9563 13.5342V10.7582L71.9344 10.7364C71.5629 10.5834 71.1475 10.4085 70.5792 10.2992ZM79.9563 10.2118C79.2568 10.2118 78.6011 10.4304 78.0328 10.8894C77.5519 11.2828 77.224 11.8511 76.9399 12.5287H76.918V10.4085H74.0765V22.5178H76.918V16.332C76.918 15.2828 77.1366 14.4085 77.6175 13.7746C78.0984 13.1189 78.7104 12.791 79.4536 12.791C79.7159 12.791 79.9781 12.8566 80.306 12.9003C80.612 12.9877 80.8306 13.0752 80.9836 13.1845L81.0929 13.2719V10.4304L81.0273 10.4085C80.8306 10.2774 80.4372 10.2118 79.9563 10.2118ZM87.694 10.1462C85.7049 10.1462 84.1093 10.7364 82.9945 11.8948C81.8579 13.0533 81.3115 14.6489 81.3115 16.6599C81.3115 18.5396 81.8798 20.0697 82.9727 21.1845C84.0656 22.2774 85.5519 22.8457 87.4098 22.8457C89.3552 22.8457 90.9071 22.2555 92.0219 21.0752C93.1585 19.8948 93.7049 18.3211 93.7049 16.3757C93.7049 14.4522 93.1803 12.9222 92.1093 11.8074C91.082 10.6927 89.5738 10.1462 87.694 10.1462ZM89.9672 19.4577C89.4426 20.1353 88.612 20.4631 87.5847 20.4631C86.5574 20.4631 85.7268 20.1353 85.1366 19.414C84.5464 18.7364 84.2623 17.7528 84.2623 16.5069C84.2623 15.2172 84.5683 14.2336 85.1366 13.5342C85.7268 12.8347 86.5355 12.485 87.5628 12.485C88.5683 12.485 89.3552 12.8129 89.9235 13.4905C90.4918 14.1681 90.7978 15.1517 90.7978 16.4413C90.7541 17.7528 90.5137 18.7801 89.9672 19.4577ZM100.044 15.4358C99.1475 15.0642 98.5792 14.7801 98.3169 14.5397C98.0984 14.3211 97.9891 14.0151 97.9891 13.6216C97.9891 13.2938 98.1202 12.9659 98.4481 12.7473C98.7759 12.5287 99.1475 12.4194 99.694 12.4194C100.175 12.4194 100.678 12.5069 101.158 12.638C101.639 12.7692 102.076 12.9659 102.426 13.2282L102.536 13.3156V10.6489L102.47 10.6271C102.142 10.4959 101.705 10.3648 101.18 10.2555C100.656 10.1681 100.175 10.1244 99.7814 10.1244C98.4262 10.1244 97.3115 10.4522 96.4372 11.1735C95.5628 11.8511 95.1475 12.7692 95.1475 13.8402C95.1475 14.4085 95.235 14.9112 95.4317 15.3265C95.6284 15.7418 95.9126 16.1353 96.306 16.4631C96.6994 16.7692 97.2678 17.1189 98.0546 17.4468C98.7104 17.7309 99.2131 17.9495 99.5191 18.1244C99.8251 18.2992 100.022 18.4959 100.175 18.6489C100.284 18.8238 100.35 19.0424 100.35 19.3265C100.35 20.1353 99.7377 20.5287 98.4918 20.5287C98.0109 20.5287 97.5082 20.4413 96.918 20.2446C96.3279 20.0478 95.7814 19.7637 95.3224 19.4358L95.2131 19.3484V22.1243L95.2787 22.1462C95.694 22.3429 96.1967 22.4741 96.8087 22.6271C97.4208 22.7364 97.9672 22.8238 98.4481 22.8238C99.9126 22.8238 101.115 22.4959 101.967 21.7746C102.842 21.0752 103.301 20.179 103.301 19.0205C103.301 18.2118 103.082 17.4905 102.601 16.944C101.967 16.4194 101.18 15.873 100.044 15.4358ZM110.798 10.1462C108.809 10.1462 107.213 10.7364 106.098 11.8948C104.984 13.0533 104.415 14.6489 104.415 16.6599C104.415 18.5396 104.984 20.0697 106.076 21.1845C107.169 22.2774 108.656 22.8457 110.514 22.8457C112.459 22.8457 114.011 22.2555 115.126 21.0752C116.262 19.8948 116.809 18.3211 116.809 16.3757C116.809 14.4522 116.284 12.9222 115.213 11.8074C114.186 10.6927 112.678 10.1462 110.798 10.1462ZM113.049 19.4577C112.525 20.1353 111.694 20.4631 110.667 20.4631C109.617 20.4631 108.809 20.1353 108.219 19.414C107.628 18.7364 107.344 17.7528 107.344 16.5069C107.344 15.2172 107.65 14.2336 108.219 13.5342C108.809 12.8347 109.617 12.485 110.645 12.485C111.628 12.485 112.437 12.8129 113.005 13.4905C113.574 14.1681 113.88 15.1517 113.88 16.4413C113.88 17.7528 113.596 18.7801 113.049 19.4577ZM132 12.7473V10.4085H129.137V6.82381L129.049 6.84567L126.339 7.65441L126.273 7.67627V10.4085H121.989V8.87845C121.989 8.179 122.164 7.63255 122.47 7.28283C122.776 6.9331 123.235 6.75824 123.803 6.75824C124.197 6.75824 124.612 6.84567 125.071 7.04239L125.18 7.10796V4.63802L125.115 4.61616C124.721 4.48501 124.197 4.39758 123.519 4.39758C122.667 4.39758 121.923 4.5943 121.246 4.92217C120.568 5.29376 120.066 5.79649 119.694 6.47408C119.322 7.12982 119.126 7.87299 119.126 8.72545V10.4085H117.137V12.7254H119.126V22.5178H121.989V12.7473H126.273V18.9768C126.273 21.5342 127.475 22.8238 129.88 22.8238C130.273 22.8238 130.688 22.7582 131.082 22.6927C131.497 22.6052 131.803 22.4959 131.978 22.4085L132 22.3866V20.0478L131.891 20.1353C131.716 20.2446 131.563 20.332 131.301 20.3976C131.082 20.4631 130.885 20.485 130.732 20.485C130.164 20.485 129.77 20.3539 129.486 20.026C129.224 19.72 129.093 19.2172 129.093 18.4741V12.7473H132Z" fill="#737373"/>
  <path d="M0 0H13.3989V13.3989H0V0Z" fill="#F25022"/>
  <path d="M14.796 0H28.1949V13.3989H14.796V0Z" fill="#6EBA00"/>
  <path d="M0 14.796H13.3989V28.1949H0V14.796Z" fill="#00A4EF"/>
  <path d="M14.796 14.796H28.1949V28.1949H14.796V14.796Z" fill="#FFB900"/>
</svg>
