<svg width="106" height="34" viewBox="0 0 106 34" fill="none" xmlns="http://www.w3.org/2000/svg">
<path d="M11.5443 11.298H23.0894V0H0.210938V0.10592L11.5443 11.298Z" fill="url(#paint0_linear)"/>
<path d="M11.5452 11.298H0V22.596H22.8785V22.4901C22.8785 22.5077 11.5452 11.298 11.5452 11.298Z" fill="url(#paint1_linear)"/>
<path d="M0 22.5961H11.4216V34L0 22.5961Z" fill="url(#paint2_linear)"/>
<path d="M38.8033 22.5783V16.3821H45.6881V13.4516H38.8033V9.33846H46.2353V6.39038H35.4492V22.596L38.8033 22.5783ZM54.8501 10.7331C54.6735 10.6271 54.1616 10.5212 53.6143 10.5212C52.4492 10.5212 51.4783 11.1038 50.984 11.9511V10.786H47.7182V22.5783H50.984V15.2699C51.2135 14.1931 52.1315 13.6105 53.226 13.6105C53.8262 13.6105 54.4087 13.7341 54.8677 13.9989V10.7331H54.8501ZM65.7421 22.5783V15.0581C65.7421 12.2336 63.9061 10.5212 60.7815 10.5212C58.0982 10.5212 56.1564 12.163 55.821 14.299H58.9279C59.1927 13.6105 59.74 13.1868 60.6756 13.1868C61.9996 13.1868 62.5998 13.9989 62.5998 15.0228V15.8878C62.1232 15.5524 60.9404 15.1993 59.9165 15.1993C57.3568 15.1993 55.3443 16.7351 55.3443 18.9771C55.3443 21.4309 57.3568 22.8078 59.7223 22.8078C61.011 22.8078 62.2114 22.3665 62.5998 21.9605V22.596L65.7421 22.5783ZM62.5998 19.3478C62.3173 19.9833 61.417 20.3717 60.4638 20.3717C59.4399 20.3717 58.3807 19.948 58.3807 18.9241C58.3807 17.9179 59.4399 17.4766 60.4638 17.4766C61.417 17.4766 62.3173 17.8649 62.5998 18.5004C62.5998 18.5181 62.5998 19.3478 62.5998 19.3478ZM77.3049 12.0217C76.6517 11.1567 75.5396 10.5212 74.145 10.5212C72.821 10.5212 71.7441 11.0155 71.1616 11.7569V10.786H67.8781V22.5783H71.1439V14.9875C71.3558 13.9812 72.1502 13.4516 72.9975 13.4516C74.145 13.4516 74.6569 14.299 74.6569 15.57V22.5783H77.958V14.9875C78.1699 13.9812 78.929 13.4516 79.794 13.4516C80.9238 13.4516 81.4887 14.299 81.4887 15.57V22.5783H84.7545V14.8815C84.7545 12.2159 83.307 10.5212 80.8708 10.5212C79.1938 10.5212 78.064 11.1744 77.3049 12.0217ZM94.1107 18.7299C93.8459 19.7362 93.0339 20.2128 91.9217 20.2128C90.4741 20.2128 89.4679 19.1536 89.362 17.3883H97.2177V16.3821C97.2177 12.922 95.3111 10.5212 91.8687 10.5212C88.5676 10.5212 86.2021 13.1339 86.2021 16.6998C86.2021 20.3364 88.497 22.8431 91.9217 22.8431C94.8698 22.8431 96.7234 21.2367 97.147 18.7299H94.1107ZM91.904 13.1868C93.2457 13.1868 93.9871 14.1578 94.0224 15.4111H89.4503C89.7327 13.9459 90.6154 13.1868 91.904 13.1868ZM105.921 10.7331C105.744 10.6271 105.232 10.5212 104.685 10.5212C103.52 10.5212 102.549 11.1038 102.055 11.9511V10.786H98.7711V22.5783H102.037V15.2699C102.266 14.1931 103.167 13.6105 104.279 13.6105C104.879 13.6105 105.462 13.7341 105.921 13.9989V10.7331Z" fill="#2F2F2F"/>
<defs>
<linearGradient id="paint0_linear" x1="22.956" y1="6.49822" x2="3.21547" y2="3.51955" gradientUnits="userSpaceOnUse">
<stop stop-color="#8DE4FF"/>
<stop offset="1" stop-color="#30CEFF"/>
</linearGradient>
<linearGradient id="paint1_linear" x1="22.8755" y1="16.9517" x2="2.59692" y2="16.9517" gradientUnits="userSpaceOnUse">
<stop stop-color="#00C5FF"/>
<stop offset="1" stop-color="#009AFF"/>
</linearGradient>
<linearGradient id="paint2_linear" x1="5.71505" y1="22.6044" x2="5.71505" y2="34.0139" gradientUnits="userSpaceOnUse">
<stop stop-color="#005AFF"/>
<stop offset="1" stop-color="#008DFF"/>
</linearGradient>
</defs>
</svg>
