<svg width="114" height="34" viewBox="0 0 114 34" fill="none" xmlns="http://www.w3.org/2000/svg">
<path fill-rule="evenodd" clip-rule="evenodd" d="M4.52444 24.2134L0 19.1533L13.8491 14.1123L16.0047 20.035L4.52444 24.2134Z" fill="#F89920"/>
<path fill-rule="evenodd" clip-rule="evenodd" d="M4.4905 24.122L4.27734 30.9068L18.1264 25.8658L15.9708 19.9436L4.4905 24.122Z" fill="#FFBE22"/>
<path fill-rule="evenodd" clip-rule="evenodd" d="M42.9783 10.228C44.9544 15.953 38.5872 23.4757 28.683 27.0808C18.7778 30.6855 9.06496 29.0156 6.89844 23.3596L42.9783 10.228Z" fill="#F0670A"/>
<path fill-rule="evenodd" clip-rule="evenodd" d="M42.9775 10.2276C40.8251 4.55712 31.1018 2.88041 21.1866 6.48872C11.2711 10.0975 4.90073 17.6325 6.89718 23.3601L42.9775 10.2276Z" fill="#FFD00E"/>
<path fill-rule="evenodd" clip-rule="evenodd" d="M42.9761 10.2285C44.2078 14.0591 37.2951 20.0248 27.4212 23.6182C17.5469 27.2124 8.41686 27.0859 6.89844 23.3596L42.9761 10.2285Z" fill="#F89920"/>
<path fill-rule="evenodd" clip-rule="evenodd" d="M42.9771 10.2282C41.4814 6.48432 32.3372 6.35143 22.447 9.95157C12.5569 13.5513 5.63776 19.5302 6.89813 23.3598L42.9771 10.2282Z" fill="#FFBE22"/>
<path d="M26.3304 5.03198C25.3879 1.77334 24.3158 -0.0339844 23.0967 0.000484119C20.7397 0.0676069 19.9473 7.54092 20.7102 17.1173C21.4812 26.7952 23.4808 34.0653 25.9739 33.9996C27.4606 33.9606 28.2978 31.5822 28.5917 27.4528C28.5976 27.3685 28.5037 27.427 28.5091 27.3408C28.5091 27.3408 28.4969 27.1902 28.4411 27.1866L28.125 27.1662C27.866 31.1754 27.0814 33.4857 25.9612 33.5152C23.9121 33.5687 21.9338 26.377 21.1937 17.0792C20.4648 7.93367 21.2494 0.537914 23.1107 0.484851C23.9919 0.459906 24.9793 2.12437 25.8528 5.1254C25.8528 5.1254 26.3308 5.03333 26.3304 5.03197L26.3304 5.03198Z" fill="#F0670A"/>
<path d="M14.6555 2.70677C12.6477 3.94355 15.6982 10.8114 21.1469 18.7237C26.6532 26.7195 32.0203 32.0159 34.1465 30.7124C35.3348 29.984 35.0014 27.7726 33.4707 24.4346C33.4583 24.4045 33.4399 24.3772 33.4167 24.3543C33.3934 24.3315 33.3658 24.3136 33.3355 24.3016C33.3052 24.2897 33.2727 24.284 33.2402 24.2849C33.2076 24.2858 33.1755 24.2933 33.1459 24.3069C33.1163 24.3205 33.0897 24.3399 33.0678 24.364C33.0458 24.3881 33.029 24.4164 33.0182 24.4472C33.0075 24.4779 33.0031 24.5106 33.0052 24.5431C33.0074 24.5756 33.0161 24.6074 33.0308 24.6364C34.4531 27.74 34.7588 29.7686 33.893 30.2992C32.1455 31.37 26.8369 26.1313 21.546 18.4484C16.3426 10.893 13.3239 4.09639 14.9099 3.11948C15.7517 2.60064 17.7545 3.85239 20.4008 6.5559C20.4303 6.58583 20.5995 6.76135 20.6371 6.77269C20.7192 6.79763 20.678 6.62393 20.7437 6.55953C20.7665 6.53727 20.7847 6.51074 20.7972 6.48146C20.8097 6.45217 20.8163 6.4207 20.8167 6.38885C20.817 6.357 20.8111 6.3254 20.7992 6.29585C20.7873 6.2663 20.7697 6.23939 20.7474 6.21666C17.92 3.32856 15.7984 2.00243 14.6555 2.70631V2.70677Z" fill="#F0670A"/>
<path fill-rule="evenodd" clip-rule="evenodd" d="M64.8135 19.8697H70.1114V22.5187H61.7227V11.4815H70.1114V14.1299H64.8135V15.4546H68.1243V18.1036H64.8135V19.8697ZM88.875 19.8697H93.731V22.5187H85.7847V11.4815H88.8756L88.875 19.8697ZM96.8219 11.481H99.9123V22.5187H96.8219V11.481ZM103.444 11.481V22.5187H106.314V16.3369L110.287 22.5187H113.157V11.481H110.287V17.7541L106.314 11.497L103.444 11.481Z" fill="#574751"/>
<path d="M76.2902 16.5584H78.5014C78.6752 16.5583 78.8472 16.5239 79.0077 16.4573C79.1682 16.3907 79.314 16.2931 79.4367 16.1701C79.5595 16.0472 79.6569 15.9012 79.7232 15.7406C79.7896 15.58 79.8237 15.408 79.8236 15.2342C79.8238 15.0604 79.7897 14.8882 79.7234 14.7276C79.657 14.567 79.5597 14.4209 79.4369 14.2979C79.3141 14.1749 79.1683 14.0773 79.0078 14.0106C78.8473 13.944 78.6752 13.9096 78.5014 13.9095H76.2897V16.5584H76.2902ZM78.9428 11.4815C79.4355 11.4815 79.9234 11.5787 80.3785 11.7673C80.8337 11.956 81.2472 12.2324 81.5955 12.5809C81.9438 12.9294 82.22 13.3431 82.4084 13.7983C82.5968 14.2536 82.6937 14.7415 82.6935 15.2342C82.6936 15.7269 82.5967 16.2148 82.4083 16.67C82.2199 17.1252 81.9436 17.5389 81.5953 17.8873C81.2471 18.2358 80.8336 18.5123 80.3784 18.7009C79.9233 18.8896 79.4355 18.9868 78.9428 18.9869H76.601V22.5187H73.4219V11.481H78.9428V11.4815Z" fill="#574751"/>
<path fill-rule="evenodd" clip-rule="evenodd" d="M58.1912 14.1304V11.4814H49.1406V14.1299H54.2176L49.1406 19.8702V22.5192H58.1912V19.8702H53.3348L58.1912 14.1304Z" fill="#574751"/>
</svg>
