<svg width="35" height="34" viewBox="0 0 35 34" fill="none" xmlns="http://www.w3.org/2000/svg">
<g clip-path="url(#clip0)">
<path d="M6.17521 0H28.6966C32.1111 0 34.8718 2.76068 34.8718 6.17521V27.8248C34.8718 31.2393 32.1111 34 28.6966 34H6.17521C2.76068 34 0 31.2393 0 27.8248V6.17521C0 2.76068 2.76068 0 6.17521 0Z" fill="#470137"/>
<path d="M18.3351 8.93597L13.9761 16.1283L18.6257 23.7565C18.6548 23.8146 18.6693 23.8727 18.6548 23.9308C18.6402 23.989 18.5821 23.9454 18.4949 23.9599H15.1676C14.9351 23.9599 14.7753 23.9454 14.6736 23.8001C14.3684 23.1898 14.0488 22.5941 13.7437 21.9838C13.4385 21.3881 13.1043 20.7779 12.7556 20.1531C12.4069 19.5283 12.0582 18.9035 11.7095 18.2642H11.6804C11.3753 18.889 11.0411 19.5137 10.7069 20.1385C10.3727 20.7633 10.0385 21.3881 9.71887 21.9984C9.38468 22.6086 9.05049 23.2334 8.7163 23.8291C8.65818 23.9744 8.54195 23.989 8.38212 23.989H5.18553C5.12741 23.989 5.08383 24.018 5.08383 23.9454C5.0693 23.8873 5.08383 23.8291 5.11289 23.7855L9.63169 16.3753L5.22912 8.92144C5.18553 8.86332 5.171 8.8052 5.20006 8.77614C5.22912 8.73255 5.28724 8.71802 5.34536 8.71802H8.64365C8.7163 8.71802 8.78895 8.73255 8.84707 8.74708C8.90519 8.77614 8.94878 8.81973 8.99237 8.87785C9.26844 9.50263 9.5881 10.1274 9.92229 10.7522C10.271 11.377 10.6052 11.9872 10.9684 12.5975C11.3172 13.2078 11.6368 13.818 11.9419 14.4428H11.971C12.2761 13.8035 12.5958 13.1787 12.9154 12.5684C13.2351 11.9582 13.5693 11.3479 13.9035 10.7377C14.2377 10.1274 14.5573 9.50263 14.877 8.90691C14.8915 8.84879 14.9206 8.79067 14.9642 8.76161C15.0223 8.73255 15.0804 8.71802 15.1531 8.73255H18.2189C18.2915 8.71802 18.3642 8.76161 18.3787 8.83426C18.3932 8.84879 18.3642 8.90691 18.3351 8.93597Z" fill="#FF61F6"/>
<path d="M25.0473 24.265C23.9721 24.2796 22.8969 24.0616 21.9234 23.6112C21.008 23.1898 20.2525 22.4924 19.7294 21.6351C19.1918 20.7488 18.9302 19.6445 18.9302 18.3223C18.9157 17.2471 19.1918 16.1864 19.7294 15.2565C20.2815 14.312 21.0807 13.5274 22.0396 13.0043C23.0567 12.4377 24.2772 12.1616 25.7157 12.1616C25.7884 12.1616 25.8901 12.1616 26.0208 12.1761C26.1516 12.1907 26.2969 12.1907 26.4713 12.2052V7.61375C26.4713 7.51204 26.5148 7.45392 26.6166 7.45392H29.5661C29.6388 7.43939 29.6969 7.49751 29.7114 7.55563C29.7114 7.57016 29.7114 7.58469 29.7114 7.58469V21.4172C29.7114 21.6787 29.726 21.9693 29.7405 22.289C29.7695 22.5941 29.7841 22.8847 29.7986 23.1317C29.7986 23.2334 29.755 23.3206 29.6533 23.3642C28.8978 23.6838 28.0986 23.9163 27.2849 24.0616C26.5439 24.1924 25.8029 24.265 25.0473 24.265ZM26.4713 21.359V14.9659C26.3405 14.9368 26.2097 14.9078 26.0789 14.8932C25.9191 14.8787 25.7593 14.8642 25.5995 14.8642C25.0328 14.8642 24.4661 14.9804 23.9576 15.242C23.4636 15.489 23.0422 15.8522 22.7225 16.3172C22.4029 16.7821 22.2431 17.4069 22.2431 18.1625C22.2285 18.671 22.3157 19.1796 22.4901 19.659C22.6354 20.0514 22.8533 20.4001 23.1439 20.6907C23.42 20.9522 23.7542 21.1556 24.1319 21.2719C24.5243 21.4026 24.9311 21.4608 25.3379 21.4608C25.5559 21.4608 25.7593 21.4462 25.9482 21.4317C26.1371 21.4462 26.2969 21.4172 26.4713 21.359Z" fill="#FF61F6"/>
</g>
<defs>
<clipPath id="clip0">
<rect width="34.8718" height="34" fill="white"/>
</clipPath>
</defs>
</svg>
