<svg width="136" height="34" viewBox="0 0 136 34" fill="none" xmlns="http://www.w3.org/2000/svg">
<path fill-rule="evenodd" clip-rule="evenodd" d="M45.8448 16.9449C46.5889 16.9449 47.2063 16.6859 47.6971 16.1676C48.1876 15.6496 48.4326 15.0081 48.4326 14.2437C48.4326 13.4626 48.1876 12.8169 47.6971 12.3073C47.2063 11.7977 46.5889 11.5429 45.8448 11.5429H42.7238V16.9449H45.8448ZM45.8448 8.25586C47.5532 8.25586 48.991 8.83371 50.1581 9.98865C51.3251 11.144 51.9088 12.5621 51.9088 14.2437C51.9088 15.9257 51.3251 17.3441 50.1581 18.4991C48.991 19.6544 47.5532 20.2315 45.8448 20.2315H42.7238V25.7442H39.2227V8.25586H45.8448Z" fill="#252830"/>
<path fill-rule="evenodd" clip-rule="evenodd" d="M57.359 15.0744C57.6634 14.2592 58.1667 13.6472 58.8689 13.2396C59.5701 12.832 60.3528 12.6284 61.2155 12.6284V16.4186C60.2172 16.2999 59.3254 16.5043 58.5389 17.0302C57.7525 17.5568 57.359 18.4316 57.359 19.6548V25.7446H54.0859V12.6284H57.359V15.0744Z" fill="#252830"/>
<path fill-rule="evenodd" clip-rule="evenodd" d="M66.4441 21.6458C67.0772 22.2915 67.8716 22.6145 68.8265 22.6145C69.781 22.6145 70.5795 22.2915 71.2214 21.6458C71.8632 20.9997 72.1842 20.1799 72.1842 19.1865C72.1842 18.1931 71.8632 17.3729 71.2214 16.7268C70.5795 16.0811 69.781 15.7584 68.8265 15.7584C67.8716 15.7584 67.0772 16.0811 66.4441 16.7268C65.8101 17.3729 65.4934 18.1931 65.4934 19.1865C65.4934 20.1799 65.8101 20.9997 66.4441 21.6458ZM73.4683 23.8442C72.2004 25.111 70.6535 25.7446 68.8265 25.7446C66.9995 25.7446 65.4563 25.111 64.1972 23.8442C62.938 22.577 62.3086 21.0247 62.3086 19.1865C62.3086 17.3479 62.938 15.7952 64.1972 14.5284C65.4563 13.262 66.9995 12.6284 68.8265 12.6284C70.6535 12.6284 72.2004 13.262 73.4683 14.5284C74.7354 15.7952 75.3689 17.3479 75.3689 19.1865C75.3689 21.0247 74.7354 22.577 73.4683 23.8442Z" fill="#252830"/>
<path fill-rule="evenodd" clip-rule="evenodd" d="M84.8394 15.7878H81.9725V21.3593C81.9725 21.801 82.0824 22.1237 82.3022 22.3277C82.5219 22.5313 82.8436 22.6462 83.2665 22.6716C83.689 22.6974 84.2134 22.6932 84.8394 22.6587V25.6397C82.5899 25.8949 81.0037 25.6822 80.0821 25.0031C79.1601 24.324 78.6994 23.1091 78.6994 21.3593V15.7878H76.4922V12.6282H78.6994V10.4419L81.9725 9.43713V12.6282H84.8394V15.7878Z" fill="#252830"/>
<path fill-rule="evenodd" clip-rule="evenodd" d="M90.0652 21.6458C90.6983 22.2915 91.4927 22.6145 92.4476 22.6145C93.4021 22.6145 94.2006 22.2915 94.8425 21.6458C95.4843 20.9997 95.8053 20.1799 95.8053 19.1865C95.8053 18.1931 95.4843 17.3729 94.8425 16.7268C94.2006 16.0811 93.4021 15.7584 92.4476 15.7584C91.4927 15.7584 90.6983 16.0811 90.0652 16.7268C89.4312 17.3729 89.1144 18.1931 89.1144 19.1865C89.1144 20.1799 89.4312 20.9997 90.0652 21.6458ZM97.0894 23.8442C95.8215 25.111 94.2746 25.7446 92.4476 25.7446C90.6206 25.7446 89.0774 25.111 87.8183 23.8442C86.5591 22.577 85.9297 21.0247 85.9297 19.1865C85.9297 17.3479 86.5591 15.7952 87.8183 14.5284C89.0774 13.262 90.6206 12.6284 92.4476 12.6284C94.2746 12.6284 95.8215 13.262 97.0894 14.5284C98.3565 15.7952 98.99 17.3479 98.99 19.1865C98.99 21.0247 98.3565 22.577 97.0894 23.8442Z" fill="#252830"/>
<path fill-rule="evenodd" clip-rule="evenodd" d="M107.794 16.945C108.539 16.945 109.155 16.686 109.646 16.1677C110.137 15.6497 110.382 15.0082 110.382 14.2438C110.382 13.4627 110.137 12.817 109.646 12.3074C109.155 11.7978 108.539 11.543 107.794 11.543H104.673V16.945H107.794ZM107.794 8.25598C109.502 8.25598 110.94 8.83383 112.107 9.98878C113.274 11.1441 113.858 12.5622 113.858 14.2438C113.858 15.9258 113.274 17.3442 112.107 18.4992C110.94 19.6545 109.502 20.2316 107.794 20.2316H104.673V25.7443H101.172V8.25598H107.794Z" fill="#252830"/>
<path fill-rule="evenodd" clip-rule="evenodd" d="M116.041 25.7444H119.314V14.8146H116.041V25.7444ZM117.647 12.6283C117.063 12.6283 116.556 12.4129 116.127 11.9818C115.699 11.5514 115.484 11.043 115.484 10.4557C115.484 9.86946 115.699 9.35607 116.127 8.91586C116.556 8.47602 117.063 8.2561 117.647 8.2561C118.249 8.2561 118.765 8.47602 119.194 8.91586C119.623 9.35607 119.838 9.86946 119.838 10.4557C119.838 11.043 119.623 11.5514 119.194 11.9818C118.765 12.4129 118.249 12.6283 117.647 12.6283Z" fill="#252830"/>
<path fill-rule="evenodd" clip-rule="evenodd" d="M124.86 18.0188H131.302C131.116 17.174 130.733 16.545 130.152 16.1309C129.571 15.7172 128.91 15.5098 128.169 15.5098C127.293 15.5098 126.569 15.7298 125.996 16.1681C125.424 16.6068 125.045 17.2237 124.86 18.0188ZM134.122 22.7997C134.014 22.9658 133.929 23.0864 133.929 23.0864C132.682 24.8586 130.847 25.7443 128.422 25.7443C126.333 25.7443 124.658 25.1232 123.395 23.8811C122.131 22.6393 121.5 21.0741 121.5 19.1862C121.5 17.3151 122.123 15.754 123.369 14.5035C124.615 13.2538 126.215 12.6282 128.169 12.6282C130.021 12.6282 131.55 13.2576 132.754 14.516C133.958 15.7749 134.56 17.3317 134.56 19.1862C134.56 19.6003 134.518 20.0394 134.434 20.5027H124.91C125.348 22.0596 126.535 22.838 128.472 22.838C129.576 22.838 130.443 22.5131 131.072 21.8624C131.982 22.1407 134.122 22.7997 134.122 22.7997Z" fill="#252830"/>
<mask id="mask0" mask-type="alpha" maskUnits="userSpaceOnUse" x="0" y="3" width="27" height="28">
<path d="M0.972607 3.86365C0.691699 3.86365 0.436465 3.98346 0.261653 4.17722C0.104586 4.34329 0.0064186 4.56624 0 4.80967V4.87527C0.00302052 4.99015 0.026052 5.09859 0.066829 5.19869C0.0683392 5.20704 0.0717373 5.215 0.0747579 5.22334C0.106096 5.29879 0.146873 5.36932 0.196334 5.4334C0.214079 5.45804 0.233713 5.4808 0.254856 5.50241C0.258254 5.50734 0.263163 5.51227 0.268071 5.51757L3.36977 9.21521L4.48963 10.5499L7.84203 14.5448L8.96037 15.8783L11.962 19.4565L13.0804 20.7897V30.1361C13.7396 30.1361 14.338 29.8734 14.7779 29.4483C14.7794 29.4483 14.7794 29.4483 14.7794 29.4468L15.1098 29.0525L23.1595 19.4565L25.9161 16.171C25.9293 16.1559 25.9421 16.1415 25.9538 16.1248C26.0123 16.0508 26.0599 15.9686 26.0943 15.8783C26.1384 15.7684 26.1615 15.6501 26.1615 15.5238V4.84266C26.1615 4.58444 26.0614 4.34822 25.8979 4.1757C25.7216 3.98346 25.4683 3.86365 25.1866 3.86365H0.972607Z" fill="white"/>
</mask>
<g mask="url(#mask0)">
<path fill-rule="evenodd" clip-rule="evenodd" d="M0.972607 3.86365C0.691699 3.86365 0.436465 3.98346 0.261653 4.17722C0.104586 4.34329 0.0064186 4.56624 0 4.80967V4.87527C0.00302052 4.99015 0.026052 5.09859 0.066829 5.19869C0.0683392 5.20704 0.0717373 5.215 0.0747579 5.22334C0.106096 5.29879 0.146873 5.36932 0.196334 5.4334C0.214079 5.45804 0.233713 5.4808 0.254856 5.50241C0.258254 5.50734 0.263163 5.51227 0.268071 5.51757L3.36977 9.21521L4.48963 10.5499L7.84203 14.5448L8.96037 15.8783L11.962 19.4565L13.0804 20.7897V30.1361C13.7396 30.1361 14.338 29.8734 14.7779 29.4483C14.7794 29.4483 14.7794 29.4483 14.7794 29.4468L15.1098 29.0525L23.1595 19.4565L25.9161 16.171C25.9293 16.1559 25.9421 16.1415 25.9538 16.1248C26.0123 16.0508 26.0599 15.9686 26.0943 15.8783C26.1384 15.7684 26.1615 15.6501 26.1615 15.5238V4.84266C26.1615 4.58444 26.0614 4.34822 25.8979 4.1757C25.7216 3.98346 25.4683 3.86365 25.1866 3.86365H0.972607Z" fill="url(#paint0_linear)"/>
</g>
<path fill-rule="evenodd" clip-rule="evenodd" d="M13.0807 26.1397V30.1365C12.4219 30.1365 11.8234 29.8738 11.3836 29.4487C11.3817 29.4487 11.3817 29.4487 11.3817 29.4468L11.0517 29.0529L3.00202 19.4565L0.261652 16.1908C0.255234 16.1858 0.250326 16.179 0.245417 16.1726L0.202752 16.1217C0.199354 16.1183 0.196334 16.1153 0.192936 16.1104C0.140832 16.0395 0.0966566 15.9625 0.0653187 15.8787C0.026052 15.7786 0.00339808 15.6702 0 15.5568V15.4912C0.00679617 15.2451 0.104585 15.0248 0.261652 14.8572C0.438353 14.665 0.691699 14.5452 0.972985 14.5452H3.35051L4.46886 15.8787L7.47088 19.4565L12.3924 25.3219L13.0792 26.1412L13.0807 26.1397Z" fill="#FCD1CA"/>
<path fill-rule="evenodd" clip-rule="evenodd" d="M13.0807 20.7899V26.1396L13.0792 26.1411L12.3924 25.3217L7.47088 19.4564L4.46886 15.8786L3.35051 14.545L0.243529 10.8444C0.230692 10.8292 0.217477 10.8129 0.204263 10.7966C0.14725 10.7226 0.0996772 10.6404 0.0653187 10.5501C0.026052 10.45 0.00339808 10.3416 0 10.2267V10.1611C0.00679617 9.91653 0.104585 9.69624 0.261652 9.52903C0.436465 9.33527 0.691699 9.21545 0.972985 9.21545H3.37014L4.49 10.5501L7.84202 14.545L8.96037 15.8786L11.9624 19.4564L13.0807 20.7899Z" fill="#FF9D8D"/>
<defs>
<linearGradient id="paint0_linear" x1="23.0012" y1="1.26543" x2="3.37636" y2="20.8073" gradientUnits="userSpaceOnUse">
<stop stop-color="#FF6660"/>
<stop offset="1" stop-color="#FB4444"/>
</linearGradient>
</defs>
</svg>
