<svg width="102" height="33" viewBox="0 0 102 33" fill="none"
  xmlns="http://www.w3.org/2000/svg">
  <path d="M12.4512 0H13.3503C16.4715 0.0678575 19.5417 1.3231 21.7469 3.54525C20.9327 4.37644 20.1015 5.17367 19.3042 6.00486C18.0659 4.88529 16.5732 4.02021 14.9448 3.71485C12.536 3.20596 9.94072 3.66398 7.92214 5.03795C5.71697 6.47978 4.22423 8.92245 3.90193 11.5347C3.54569 14.1131 4.2751 16.8271 5.95443 18.8288C7.56591 20.7795 10.0255 22.0008 12.57 22.0856C14.9448 22.2213 17.4213 21.4919 19.1516 19.8296C20.5086 18.6591 21.1362 16.878 21.3398 15.1478C18.524 15.1478 15.7081 15.1647 12.8923 15.1478V11.6535H24.7493C25.36 15.4022 24.478 19.626 21.6282 22.3061C19.7283 24.206 17.0991 25.3255 14.4189 25.546C11.8236 25.8005 9.14349 25.3086 6.83654 24.0533C4.07161 22.5775 1.8664 20.084 0.780805 17.1494C-0.236977 14.4524 -0.253961 11.399 0.695963 8.68499C1.56109 6.20839 3.22343 4.02021 5.36074 2.49354C7.41329 0.983853 9.90683 0.152659 12.4512 0Z" fill="#3780FF"/>
  <path d="M80.4734 0.881958H84.1035V25.1049C82.8991 25.1049 81.6778 25.1219 80.4734 25.088C80.4904 17.0306 80.4734 8.95631 80.4734 0.881958Z" fill="#38B137"/>
  <path d="M32.8243 9.2778C35.0634 8.85371 37.489 9.32868 39.338 10.6688C41.0173 11.8561 42.1878 13.7221 42.544 15.7576C43.002 18.1155 42.4253 20.6938 40.8986 22.5598C39.2532 24.6462 36.5561 25.7658 33.9269 25.5961C31.5181 25.4604 29.1773 24.256 27.7524 22.2884C26.1409 20.1171 25.7507 17.1316 26.6328 14.5872C27.5149 11.8562 30.0084 9.76975 32.8243 9.2778ZM33.3332 12.5008C32.4172 12.7382 31.569 13.2641 30.9583 14.0104C29.3129 15.9781 29.4147 19.1841 31.2297 21.0161C32.2645 22.0678 33.8251 22.5597 35.2669 22.2713C36.607 22.0339 37.7774 21.1348 38.422 19.9474C39.5415 17.9289 39.2192 15.1469 37.506 13.5694C36.4034 12.5517 34.792 12.1276 33.3332 12.5008Z" fill="#FA3913"/>
  <path d="M50.8034 9.2783C53.3648 8.7864 56.1636 9.49882 58.0804 11.2969C61.2016 14.0957 61.5409 19.3373 58.8777 22.5602C57.2662 24.5958 54.654 25.7153 52.0756 25.5966C49.616 25.5287 47.1903 24.3074 45.7315 22.2888C44.0861 20.0667 43.7298 17.0134 44.6628 14.418C45.5958 11.7718 48.0384 9.75326 50.8034 9.2783ZM51.3122 12.5013C50.3963 12.7387 49.5481 13.2646 48.9374 13.994C47.309 15.9278 47.3768 19.0829 49.124 20.9318C50.1588 22.0344 51.7702 22.5772 53.263 22.2719C54.5861 22.0174 55.7735 21.1354 56.4181 19.948C57.5206 17.9124 57.1983 15.1305 55.4681 13.553C54.3656 12.5352 52.7541 12.1281 51.3122 12.5013Z" fill="#FCBD06"/>
  <path d="M66.0532 10.262C68.0039 9.04064 70.5992 8.70135 72.7026 9.75306C73.3642 10.0414 73.907 10.5333 74.4328 11.0253C74.4498 10.5673 74.4328 10.0924 74.4498 9.61739C75.5863 9.63433 76.7228 9.61739 77.8763 9.63433V24.5956C77.8593 26.8517 77.2826 29.2434 75.6541 30.8888C73.873 32.7039 71.142 33.2636 68.6824 32.8904C66.0531 32.5003 63.7632 30.5835 62.7454 28.1578C63.7632 27.6659 64.8318 27.2757 65.8835 26.8177C66.4772 28.2087 67.6816 29.3961 69.1913 29.6675C70.701 29.9389 72.4482 29.5657 73.432 28.3105C74.4837 27.0213 74.4837 25.2572 74.4328 23.6796C73.6525 24.443 72.7535 25.1215 71.6679 25.3759C69.3101 26.0374 66.7147 25.2232 64.8997 23.6287C63.0677 22.0342 61.9821 19.5746 62.0838 17.1319C62.1348 14.367 63.6953 11.7038 66.0532 10.262ZM69.5645 12.4332C68.5298 12.6029 67.5629 13.1796 66.9013 13.9768C65.3068 15.8767 65.3068 18.9131 66.9183 20.779C67.8343 21.8816 69.3101 22.4922 70.735 22.3396C72.075 22.2039 73.3133 21.3557 73.9749 20.1853C75.0945 18.2006 74.9078 15.5035 73.3981 13.7733C72.4652 12.7046 70.9724 12.1788 69.5645 12.4332Z" fill="#3780FF"/>
  <path d="M88.4614 11.127C90.497 9.22717 93.6351 8.5826 96.2474 9.5834C98.724 10.5163 100.302 12.8742 101.099 15.2999C97.4178 16.8266 93.7539 18.3362 90.0729 19.8629C90.5818 20.8298 91.3621 21.7119 92.4138 22.0681C93.8896 22.5939 95.6537 22.4073 96.892 21.4235C97.384 21.0503 97.7741 20.5584 98.1473 20.0834C99.0803 20.711 100.013 21.3217 100.946 21.9493C99.623 23.934 97.4009 25.3249 95.0091 25.5454C92.3629 25.8677 89.5471 24.85 87.8338 22.7805C85.018 19.5236 85.2894 14.0616 88.4614 11.127ZM90.2765 14.2651C89.6997 15.0963 89.4623 16.1141 89.4792 17.1149C91.9388 16.0971 94.3984 15.0793 96.858 14.0446C96.4509 13.0947 95.4671 12.5179 94.4663 12.3653C92.8548 12.0769 91.1755 12.942 90.2765 14.2651Z" fill="#FA3913"/>
</svg>
