<svg xmlns="http://www.w3.org/2000/svg" width="1364.637" height="332.8508" viewBox="0 0 1364.637 332.8508"><defs><style>.cls-1{fill:#0a66c2;}</style></defs><g id="Layer_2" data-name="Layer 2"><g id="Layer_1-2" data-name="Layer 1"><path class="cls-1" d="M1345.4626,311.7413h.0592a6.1509,6.1509,0,0,0,6.12-6.12,2.8215,2.8215,0,0,0-.0148-.3533c0-4.59-2.7645-6.7842-8.4562-6.7842h-9.18v24.0381h3.4593V312.0429h4.2429l.0886.1271,6.5936,10.3515h3.6958l-7.0813-10.7137Zm-4.0063-2.4082H1337.45V301.208h5.0854c2.6168,0,5.6031.4273,5.6031,3.8615,0,3.9487-3.0159,4.2636-6.697,4.2636M0,48.909H50.9766v185.69h94.3767v47.0442H0Zm167.8908,74.9334h48.9735V281.5563H167.8908Zm24.486-78.4075a28.4117,28.4117,0,1,1-.0044,0h.0044m229.3476,3.4386h48.9735V187.9616l55.5033-64.19h60.0434l-64.2774,73.0159,62.9247,84.8354H523.3391l-51.9878-77.96h-.6431v77.9492H421.7347ZM244.0188,123.8587h47.0293v21.5529h.6683a51.5094,51.5094,0,0,1,46.3715-25.4765c49.6624,0,58.8031,32.6746,58.8031,75.1226v86.4882H347.9175V204.8681c0-18.3036-.3356-41.8315-25.5061-41.8315-25.4557,0-29.3837,19.9311-29.3837,40.5v77.9906H244.0542Z"/><path class="cls-1" d="M689.379,184.3559c.0045-.2306.0074-.4627.0074-.6933A29.5032,29.5032,0,0,0,660.0234,154.3c-.2381,0-.4746.0029-.7126.0088a32.8279,32.8279,0,0,0-34.6068,30.0476Zm41.4842,69.8878a86.311,86.311,0,0,1-66.971,31.38c-48.9735,0-88.1824-32.6909-88.1824-83.3112s39.2045-83.2949,88.1824-83.2949c45.7743,0,74.48,32.6479,74.48,83.2949v15.3557H624.704a36.7084,36.7084,0,0,0,36.9072,30.7054,41.8353,41.8353,0,0,0,34.95-19.2733Zm109.5875-92.279c-24.486,0-39.1779,16.3506-39.1779,40.1743s14.686,40.1877,39.1779,40.1877,39.2148-16.3241,39.2148-40.1877-14.6978-40.1743-39.2148-40.1743m84.3,119.562H879.6655V260.6109h-.6682a61.6238,61.6238,0,0,1-48.6881,24.8334c-47.0546,0-78.0513-33.9607-78.0513-81.9851,0-44.1052,27.4309-84.6062,72.5207-84.6062,20.2683,0,39.2,5.5453,50.3055,20.9157h.6431V48.8573H924.745Zm330.6148.0917h-48.9734V204.9242c0-18.2887-.3267-41.8315-25.47-41.8315-25.5076,0-29.4105,19.9253-29.4105,40.4995v78.02h-48.9719V123.8986h47.0132v21.5529h.6593a51.5842,51.5842,0,0,1,46.3863-25.475c49.6357,0,58.7883,32.648,58.7883,75.1226ZM1047.2814,102.34h-.0059a28.4192,28.4192,0,1,1,28.42-28.4243v.0059a28.554,28.554,0,0,1-28.414,28.4184m24.486,179.2787h-49.0237v-157.72h49.0237ZM1279.7794.0228H998.1335A24.2336,24.2336,0,0,0,973.7451,23.845V306.66a24.2475,24.2475,0,0,0,24.3884,23.8488h281.6459a24.2878,24.2878,0,0,0,24.4815-23.8488V23.8258A24.275,24.275,0,0,0,1279.7794.0021m62.1057,287.7736a22.5376,22.5376,0,1,0,.4286,0h-.4286m0,42.4939c-.1184.0014-.2218.0029-.34.0029a19.7627,19.7627,0,1,1,19.7656-20.0923v.3326a19.43,19.43,0,0,1-18.9083,19.7464h-.5173"/></g></g></svg>