<svg width="110" height="40" viewBox="0 0 110 40" fill="none" xmlns="http://www.w3.org/2000/svg">
<path d="M25.1543 25.2744H27.4875C28.8391 25.2744 29.8208 24.8618 30.4184 23.994C31.0159 23.1261 31.3147 21.7461 31.3147 19.8396C31.3147 17.9189 31.0444 16.5105 30.4753 15.6141C29.9062 14.7178 29.0383 14.2626 27.8148 14.2626H25.1258L25.1543 25.2744ZM22.3088 28.3475V11.2891H27.8432C30.0342 11.2891 31.6419 12.0004 32.7232 13.4089C33.8044 14.8174 34.3451 16.9657 34.3451 19.8396C34.3451 21.3904 34.1317 22.7704 33.7475 23.9655C33.3634 25.1606 32.7943 26.1138 32.0403 26.8394C31.4712 27.38 30.8452 27.7642 30.1196 28.006C29.394 28.2479 28.3839 28.3617 27.1034 28.3617L22.3088 28.3475ZM41.4871 14.7036L39.5095 21.9737H43.4647L41.4871 14.7036ZM39.7799 11.2891H43.1659L48.2877 28.376H45.2004L44.2472 24.8761H38.7697L37.845 28.376H34.7577L39.7799 11.2891ZM52.3852 18.7441H55.8282C56.5822 18.7441 57.1086 18.5592 57.4785 18.2035C57.8484 17.8478 58.0192 17.2787 58.0192 16.4962C58.0192 15.7422 57.8342 15.1731 57.507 14.8174C57.1798 14.4333 56.6676 14.2483 55.9847 14.2483H52.3994V18.7441H52.3852ZM49.4544 28.3475V11.2891H56.3404C57.8911 11.2891 59.0293 11.6732 59.7833 12.4841C60.5374 13.2951 60.8931 14.4902 60.8931 16.1405C60.8931 17.1934 60.7081 18.0612 60.3524 18.7441C59.9968 19.427 59.4561 19.9108 58.8017 20.1811C59.4277 20.4514 59.8545 20.8355 60.1248 21.3762C60.3951 21.9168 60.5374 22.7562 60.5801 23.9228L60.637 25.9289C60.637 25.9573 60.637 25.9573 60.637 25.9858C60.6654 27.0101 60.8504 27.6361 61.1776 27.8353V28.3475H57.9765C57.8911 28.1056 57.7915 27.8069 57.7346 27.4512C57.6777 27.0955 57.6493 26.6687 57.6493 26.1992L57.6208 24.4066C57.5923 23.3537 57.4074 22.6424 57.1086 22.2582C56.8098 21.9026 56.2692 21.6892 55.4867 21.6892H52.3994V28.3333L49.4544 28.3475ZM66.214 19.1994H69.031C69.7851 19.1994 70.3542 19.0144 70.7098 18.6019C71.0655 18.2177 71.222 17.5775 71.222 16.7096C71.222 15.8987 71.0371 15.2727 70.7098 14.8601C70.3826 14.4475 69.8704 14.2341 69.1875 14.2341H66.1998V19.1994H66.214ZM66.1856 22.2725V28.3475H63.2548V11.2891H69.5717C71.0655 11.2891 72.1753 11.7728 72.9577 12.6976C73.7402 13.6223 74.0959 15.0024 74.0959 16.795C74.0959 18.5592 73.7118 19.9108 72.9577 20.864C72.2037 21.8172 71.1367 22.3009 69.7282 22.3009H66.1998V22.2725H66.1856ZM80.1567 14.7036L78.1791 21.9737H82.1343L80.1567 14.7036ZM78.4921 11.2891H81.8782L87 28.376H83.9412L82.9879 24.8761H77.4678L76.543 28.376H73.4557L78.4921 11.2891Z" fill="#8F9397"/>
<path d="M25.1543 25.2744H27.4875C28.8391 25.2744 29.8208 24.8618 30.4184 23.994C31.0159 23.1261 31.3147 21.7461 31.3147 19.8396C31.3147 17.9189 31.0444 16.5105 30.4753 15.6141C29.9062 14.7178 29.0383 14.2626 27.8148 14.2626H25.1258L25.1543 25.2744ZM22.3088 28.3475V11.2891H27.8432C30.0342 11.2891 31.6419 12.0004 32.7232 13.4089C33.8044 14.8174 34.3451 16.9657 34.3451 19.8396C34.3451 21.3904 34.1317 22.7704 33.7475 23.9655C33.3634 25.1606 32.7943 26.1138 32.0403 26.8394C31.4712 27.38 30.8452 27.7642 30.1196 28.006C29.394 28.2479 28.3839 28.3617 27.1034 28.3617L22.3088 28.3475ZM41.4871 14.7036L39.5095 21.9737H43.4647L41.4871 14.7036ZM39.7799 11.2891H43.1659L48.2877 28.376H45.2004L44.2472 24.8761H38.7697L37.845 28.376H34.7577L39.7799 11.2891ZM52.3852 18.7441H55.8282C56.5822 18.7441 57.1086 18.5592 57.4785 18.2035C57.8484 17.8478 58.0192 17.2787 58.0192 16.4962C58.0192 15.7422 57.8342 15.1731 57.507 14.8174C57.1798 14.4333 56.6676 14.2483 55.9847 14.2483H52.3994V18.7441H52.3852ZM49.4544 28.3475V11.2891H56.3404C57.8911 11.2891 59.0293 11.6732 59.7833 12.4841C60.5374 13.2951 60.8931 14.4902 60.8931 16.1405C60.8931 17.1934 60.7081 18.0612 60.3524 18.7441C59.9968 19.427 59.4561 19.9108 58.8017 20.1811C59.4277 20.4514 59.8545 20.8355 60.1248 21.3762C60.3951 21.9168 60.5374 22.7562 60.5801 23.9228L60.637 25.9289C60.637 25.9573 60.637 25.9573 60.637 25.9858C60.6654 27.0101 60.8504 27.6361 61.1776 27.8353V28.3475H57.9765C57.8911 28.1056 57.7915 27.8069 57.7346 27.4512C57.6777 27.0955 57.6493 26.6687 57.6493 26.1992L57.6208 24.4066C57.5923 23.3537 57.4074 22.6424 57.1086 22.2582C56.8098 21.9026 56.2692 21.6892 55.4867 21.6892H52.3994V28.3333L49.4544 28.3475ZM66.214 19.1994H69.031C69.7851 19.1994 70.3542 19.0144 70.7098 18.6019C71.0655 18.2177 71.222 17.5775 71.222 16.7096C71.222 15.8987 71.0371 15.2727 70.7098 14.8601C70.3826 14.4475 69.8704 14.2341 69.1875 14.2341H66.1998V19.1994H66.214ZM66.1856 22.2725V28.3475H63.2548V11.2891H69.5717C71.0655 11.2891 72.1753 11.7728 72.9577 12.6976C73.7402 13.6223 74.0959 15.0024 74.0959 16.795C74.0959 18.5592 73.7118 19.9108 72.9577 20.864C72.2037 21.8172 71.1367 22.3009 69.7282 22.3009H66.1998V22.2725H66.1856ZM80.1567 14.7036L78.1791 21.9737H82.1343L80.1567 14.7036ZM78.4921 11.2891H81.8782L87 28.376H83.9412L82.9879 24.8761H77.4678L76.543 28.376H73.4557L78.4921 11.2891Z" fill="#8F9397"/>
</svg>
