<svg width="35" height="34" viewBox="0 0 35 34" fill="none" xmlns="http://www.w3.org/2000/svg">
<g clip-path="url(#clip0)">
<path d="M6.17521 0H28.6966C32.1111 0 34.8718 2.76068 34.8718 6.17521V27.8248C34.8718 31.2393 32.1111 34 28.6966 34H6.17521C2.76068 34 0 31.2393 0 27.8248V6.17521C0 2.76068 2.76068 0 6.17521 0Z" fill="#00005B"/>
<path d="M14.0053 20.3419H8.60022L7.49594 23.771C7.46688 23.9018 7.35064 23.989 7.21987 23.9744H4.48825C4.32842 23.9744 4.28483 23.8872 4.32842 23.7129L9.00705 10.3018C9.05064 10.1565 9.09423 10.0257 9.15235 9.85134C9.21047 9.54622 9.23953 9.22656 9.23953 8.9069C9.225 8.83425 9.28312 8.7616 9.35577 8.74707C9.3703 8.74707 9.38483 8.74707 9.39936 8.74707H13.119C13.2207 8.74707 13.2934 8.79066 13.3079 8.86331L18.6113 23.7565C18.6549 23.9163 18.6113 23.989 18.466 23.989H15.4293C15.3276 24.0035 15.2259 23.9308 15.1968 23.8291L14.0053 20.3419ZM9.44295 17.4505H13.1336C13.0464 17.1454 12.9301 16.7821 12.7994 16.4043C12.6686 16.012 12.5378 15.5907 12.4071 15.1548C12.2618 14.7043 12.131 14.2684 11.9857 13.818C11.8404 13.3676 11.7096 12.9462 11.5934 12.5248C11.4771 12.118 11.3754 11.7402 11.2737 11.3915H11.2447C11.1139 12.0163 10.9541 12.6411 10.7506 13.2659C10.5327 13.9633 10.3147 14.6898 10.0823 15.4163C9.89338 16.1573 9.6609 16.8402 9.44295 17.4505Z" fill="#9999FF"/>
<path d="M27.2257 19.0052H22.6197C22.6778 19.4556 22.8231 19.9061 23.0701 20.2984C23.3317 20.6907 23.6949 20.9958 24.1308 21.1702C24.712 21.4172 25.3513 21.5479 25.9906 21.5334C26.4992 21.5189 27.0077 21.4753 27.5017 21.3736C27.9522 21.3155 28.3881 21.1992 28.7949 21.0394C28.8676 20.9813 28.9112 21.0103 28.9112 21.1556V23.3787C28.9112 23.4368 28.8966 23.495 28.8821 23.5531C28.853 23.5967 28.824 23.6257 28.7804 23.6548C28.3154 23.8582 27.8359 24.0035 27.3274 24.0907C26.6445 24.2214 25.9616 24.2796 25.2641 24.265C24.1599 24.265 23.23 24.0907 22.4744 23.7565C21.7624 23.4514 21.1376 22.9719 20.6436 22.3761C20.1787 21.8095 19.8445 21.1702 19.6411 20.4727C19.4376 19.7898 19.3359 19.0779 19.3359 18.3514C19.3359 17.5667 19.4522 16.7967 19.6992 16.0411C19.9317 15.3146 20.2949 14.6462 20.7889 14.0505C21.2684 13.4693 21.8641 13.0044 22.547 12.6702C23.23 12.336 24.0436 12.2197 24.9735 12.2197C25.7436 12.2052 26.5137 12.3505 27.2257 12.6702C27.8214 12.9317 28.3445 13.324 28.7513 13.8326C29.1291 14.3266 29.4342 14.8787 29.6231 15.489C29.812 16.0702 29.8992 16.6659 29.8992 17.2616C29.8992 17.6103 29.8847 17.9155 29.8701 18.1915C29.8411 18.4676 29.8265 18.671 29.812 18.8018C29.7975 18.9035 29.7103 18.9907 29.6086 18.9907C29.5214 18.9907 29.3616 19.0052 29.1291 19.0197C28.8966 19.0488 28.6206 19.0633 28.2864 19.0633C27.9522 19.0633 27.6035 19.0052 27.2257 19.0052ZM22.6197 16.8838H25.6855C26.0633 16.8838 26.3394 16.8838 26.5137 16.8693C26.63 16.8548 26.7462 16.8257 26.8479 16.7531V16.6078C26.8479 16.4189 26.8188 16.2445 26.7607 16.0702C26.4992 15.2565 25.7291 14.7044 24.8718 14.7334C24.0727 14.6898 23.3171 15.1112 22.9394 15.8377C22.765 16.1719 22.6633 16.5206 22.6197 16.8838Z" fill="#9999FF"/>
</g>
<defs>
<clipPath id="clip0">
<rect width="34.8718" height="34" fill="white"/>
</clipPath>
</defs>
</svg>
