<svg width="910" height="37" viewBox="0 0 910 37" fill="none"
  xmlns="http://www.w3.org/2000/svg">
  <path fill-rule="evenodd" clip-rule="evenodd" d="M5.62618 0.424805L0 13.5223H3.70685L4.73653 10.9111H10.7663L11.796 13.5223H15.5111L9.88493 0.424805H5.62618ZM7.68554 3.50561L9.53073 8.0362H5.89801L7.68554 3.50561Z" fill="#006FCF"/>
  <path fill-rule="evenodd" clip-rule="evenodd" d="M15.915 13.5214V0.423828L21.0552 0.489728L24.1442 8.85073L27.0191 0.423828H32.2334V13.5214H28.9384V3.9165L25.5117 13.5214H22.6286L19.1359 3.9165V13.5214H15.915Z" fill="#006FCF"/>
  <path fill-rule="evenodd" clip-rule="evenodd" d="M34.4248 13.5214V0.423828H45.1253V3.37283H37.7198V5.62989H44.9193V8.37296H37.7198V10.6383H45.1253V13.5214H34.4248Z" fill="#006FCF"/>
  <path fill-rule="evenodd" clip-rule="evenodd" d="M46.9785 0.423828V13.5214H50.2735V8.87545H51.6491L55.5537 13.5461H59.5324L55.216 8.74365C56.2143 8.65362 57.14 8.18387 57.8022 7.4313C58.4643 6.67873 58.8123 5.70074 58.7745 4.69906C58.7745 1.95599 56.5834 0.44854 54.1863 0.44854L46.9785 0.423828ZM50.2735 3.37283H53.9803C54.3695 3.35665 54.7497 3.4917 55.0415 3.74968C55.3333 4.00766 55.5139 4.36855 55.5455 4.75672C55.5143 5.13398 55.3415 5.48547 55.0619 5.74063C54.7823 5.9958 54.4165 6.13574 54.038 6.13238H50.2652L50.2735 3.37283Z" fill="#006FCF"/>
  <path fill-rule="evenodd" clip-rule="evenodd" d="M63.5025 13.5214H60.1416V0.423828H63.5025V13.5214Z" fill="#006FCF"/>
  <path fill-rule="evenodd" clip-rule="evenodd" d="M71.386 13.5213H70.7023C67.2014 13.5213 65.0762 10.7783 65.0762 7.0714C65.0762 3.36455 67.1355 0.481445 71.592 0.481445H75.2247V3.57049H71.4519C69.6727 3.57049 68.437 4.94614 68.437 7.0714C68.437 9.60853 69.8786 10.6382 71.938 10.6382H72.8276L71.386 13.5213Z" fill="#006FCF"/>
  <path fill-rule="evenodd" clip-rule="evenodd" d="M78.4451 0.423828L72.8271 13.4472H76.4681L77.4978 10.8442H83.5358L84.6314 13.5214H88.33L82.7039 0.489728L78.4451 0.423828ZM80.5045 3.50463L82.4238 8.03523H78.7252L80.5045 3.50463Z" fill="#006FCF"/>
  <path fill-rule="evenodd" clip-rule="evenodd" d="M88.7344 13.5214V0.423828H92.8531L98.1992 8.6448V0.423828H101.42V13.5214H97.4413L92.0294 5.08622V13.5214H88.7344Z" fill="#006FCF"/>
  <path fill-rule="evenodd" clip-rule="evenodd" d="M23.7979 36.3559V23.3242H34.4242V26.2073H27.0928V28.4644H34.2923V31.2075H27.0928V33.5386H34.4242V36.3559H23.7979Z" fill="#006FCF"/>
  <path fill-rule="evenodd" clip-rule="evenodd" d="M75.9824 36.3559V23.3242H86.6087V26.2073H79.2692V28.4644H86.4028V31.2075H79.2692V33.5386H86.6087V36.3559H75.9824Z" fill="#006FCF"/>
  <path fill-rule="evenodd" clip-rule="evenodd" d="M34.8364 36.3559L40.0507 29.9059L34.7705 23.3242H38.8151L41.97 27.3688L45.1909 23.3242H49.1037L43.8894 29.84L49.1037 36.3559H44.9849L41.9041 32.303L38.881 36.3559H34.8364Z" fill="#006FCF"/>
  <path fill-rule="evenodd" clip-rule="evenodd" d="M49.4414 23.3242V36.3559H52.8023V32.2371H56.2291C59.1122 32.2371 61.3033 30.6638 61.3033 27.7148C61.3033 25.2435 59.5899 23.3242 56.6409 23.3242H49.4414ZM52.8023 26.2732H56.435C56.8163 26.2409 57.1952 26.3589 57.4907 26.602C57.7862 26.8452 57.975 27.1943 58.0166 27.5747V27.8219C58.0221 28.0158 57.989 28.2089 57.9193 28.3899C57.8496 28.571 57.7447 28.7364 57.6106 28.8766C57.4765 29.0168 57.316 29.1291 57.1382 29.2068C56.9604 29.2845 56.769 29.3261 56.575 29.3293H52.8023V26.2732Z" fill="#006FCF"/>
  <path fill-rule="evenodd" clip-rule="evenodd" d="M62.8184 23.3242V36.3559H66.1133V31.7594H67.489L71.3935 36.4218H75.3722L71.0476 31.6193C72.0372 31.5356 72.9575 31.0772 73.6205 30.3377C74.2834 29.5982 74.6389 28.6335 74.6144 27.6406C74.6144 24.8976 72.4232 23.3901 70.0261 23.3901L62.8184 23.3242ZM66.0392 26.2073H69.7378C69.9324 26.1763 70.1313 26.1872 70.3213 26.2393C70.5113 26.2913 70.688 26.3834 70.8396 26.5092C70.9911 26.635 71.1141 26.7918 71.2002 26.969C71.2863 27.1461 71.3336 27.3397 71.339 27.5366C71.3443 27.7335 71.3075 27.9293 71.2311 28.1109C71.1546 28.2924 71.0403 28.4556 70.8958 28.5894C70.7512 28.7233 70.5798 28.8247 70.3928 28.887C70.2059 28.9492 70.0079 28.9708 69.812 28.9504H66.0392V26.2073Z" fill="#006FCF"/>
  <path fill-rule="evenodd" clip-rule="evenodd" d="M88.1162 36.3563V33.5391H94.632C95.5958 33.5391 96.0077 32.9954 96.0077 32.4435C96.0077 31.8916 95.5958 31.3479 94.632 31.3479H91.683C91.1542 31.396 90.6212 31.3284 90.1211 31.1497C89.621 30.971 89.1659 30.6856 88.7872 30.3132C88.4086 29.9409 88.1156 29.4905 87.9286 28.9935C87.7416 28.4965 87.6651 27.9647 87.7043 27.4351C87.7043 25.3099 89.0059 23.3164 92.8527 23.3164H99.2285L97.8858 26.2736H92.3667C91.337 26.2736 90.9993 26.8173 90.9993 27.3692C90.9971 27.5228 91.0256 27.6752 91.0831 27.8175C91.1406 27.9599 91.2259 28.0894 91.3341 28.1983C91.4423 28.3073 91.5711 28.3935 91.7131 28.452C91.855 28.5105 92.0072 28.5401 92.1608 28.5389H95.3157C98.1988 28.5389 99.4345 30.1864 99.4345 32.3035C99.4719 32.8684 99.387 33.4347 99.1857 33.9638C98.9844 34.493 98.6714 34.9725 98.268 35.3696C97.8645 35.7668 97.3802 36.0723 96.848 36.2653C96.3157 36.4584 95.7482 36.5343 95.1839 36.4881L88.1162 36.3563Z" fill="#006FCF"/>
  <path fill-rule="evenodd" clip-rule="evenodd" d="M100.118 36.3563V33.5391H106.362C107.317 33.5391 107.729 32.9954 107.729 32.4435C107.729 31.8916 107.317 31.3479 106.362 31.3479H103.652C103.123 31.396 102.59 31.3284 102.09 31.1497C101.59 30.971 101.135 30.6856 100.756 30.3132C100.377 29.9409 100.084 29.4905 99.8974 28.9935C99.7104 28.4965 99.6338 27.9647 99.6731 27.4351C99.6731 25.3099 100.975 23.3164 104.813 23.3164H111.065L109.69 26.2654H104.344C103.314 26.2654 102.976 26.8091 102.976 27.361C102.974 27.5145 103.003 27.6669 103.06 27.8093C103.118 27.9517 103.203 28.0811 103.311 28.1901C103.419 28.299 103.548 28.3853 103.69 28.4438C103.832 28.5023 103.984 28.5318 104.138 28.5307H107.021C109.896 28.5307 111.14 30.1782 111.14 32.2952C111.177 32.8556 111.095 33.4175 110.897 33.9433C110.7 34.4691 110.392 34.9466 109.995 35.3437C109.598 35.7408 109.121 36.0484 108.595 36.2458C108.069 36.4431 107.507 36.5258 106.947 36.4881L100.118 36.3563Z" fill="#006FCF"/>
  <path d="M324.848 29.26H329.192V27.3562H327.171V16.5315H329.13V14.6354H324.786V16.8345C324.157 16.0202 323.351 15.3603 322.428 14.9051C321.506 14.4499 320.491 14.2115 319.463 14.208C315.305 14.208 312.244 17.5728 312.244 21.9788C312.244 26.3848 315.305 29.7496 319.463 29.7496C320.494 29.7584 321.514 29.5245 322.438 29.0669C323.363 28.6093 324.167 27.9408 324.786 27.1153V29.26H324.848ZM310.169 25.3746H307.783C307.319 26.1486 306.651 26.7804 305.852 27.201C305.053 27.6216 304.154 27.8151 303.253 27.7602C299.95 27.7602 298.179 25.7398 297.93 22.7403H310.534V21.668C310.534 17.2075 307.659 14.1459 303.191 14.1459C302.163 14.1072 301.138 14.2822 300.181 14.6598C299.224 15.0375 298.356 15.6096 297.631 16.3399C296.907 17.0702 296.342 17.9429 295.972 18.9028C295.602 19.8627 295.435 20.889 295.482 21.9166C295.482 26.5014 298.59 29.6874 303.129 29.6874C306.493 29.6874 309.003 28.0322 310.169 25.3435V25.3746ZM279.272 16.8967V9.98851H281.44V8.03027H274.711V9.98851H276.848V27.2396H274.773V29.1745H281.503V27.2396H279.358V18.7928H289.988V27.2396H287.843V29.1745H294.573V27.2396H292.436V9.98851H294.573V8.03027H287.843V9.98851H289.988V16.8967H279.272ZM352.154 27.3018H350.196V20.751C350.196 17.6971 351.75 16.1663 354.486 16.1663C356.926 16.1663 358.519 17.7204 358.519 20.751V27.3018H356.56V29.26H362.925V27.3018H360.966V20.751C360.966 17.0832 358.767 14.1459 354.851 14.1459C353.975 14.1062 353.103 14.2742 352.305 14.6361C351.506 14.9981 350.805 15.5437 350.258 16.2284V8.03027H345.914V9.92634H347.873V27.3018H345.914V29.26H352.279L352.154 27.3018ZM314.715 21.9788C314.715 18.6141 316.86 16.2284 319.859 16.2284C322.859 16.2284 324.933 18.6762 324.933 21.9788C324.933 25.2814 322.851 27.7292 319.859 27.7292C316.867 27.7292 314.715 25.2814 314.715 21.9788ZM303.199 16.1663C306.307 16.1663 307.908 18.3654 308.156 20.8287H297.93C297.969 20.1769 298.135 19.5391 298.421 18.9519C298.706 18.3646 299.105 17.8394 299.593 17.4064C300.082 16.9733 300.651 16.6408 301.269 16.428C301.886 16.2152 302.539 16.1263 303.191 16.1663H303.199ZM341.493 25.4912V16.5315H344.485V14.6354H341.493V10.8433H339.107V14.6354H336.838V16.5937H339.107V25.6466C339.107 28.2809 340.265 29.532 342.993 29.532C343.488 29.5312 343.981 29.4686 344.461 29.3455V27.4183C344.058 27.4905 343.651 27.532 343.241 27.5427C342.014 27.4183 341.47 26.9909 341.47 25.4601L341.493 25.4912ZM335.595 29.4387C336.049 29.4366 336.5 29.3766 336.939 29.26V27.3562C336.596 27.4282 336.248 27.4698 335.898 27.4805C334.857 27.4805 334.429 26.9288 334.429 25.3435V8.03027H330.085V9.92634H332.044V25.4057C331.981 28.0322 333.023 29.4387 335.595 29.4387Z" fill="black"/>
  <path d="M260.459 22.5845C260.832 24.1776 261.687 24.7293 263.567 24.7293C265.215 24.7293 266.132 24.1154 266.132 23.1751C266.132 21.8308 264.912 21.7064 262.402 21.0926C259.464 20.3155 257.568 19.686 256.714 19.0799C255.928 18.5341 255.293 17.7998 254.865 16.9445C254.437 16.0891 254.231 15.14 254.266 14.1843C254.242 10.1047 257.491 7.41602 263.124 7.41602C268.564 7.41602 271.812 9.80164 272.177 14.0833H265.751C265.51 12.8012 264.655 12.2494 263 12.2494C261.531 12.2494 260.855 12.739 260.855 13.7181C260.855 14.8216 261.959 15.0624 263.964 15.552C266.59 16.2281 268.673 16.6555 270.017 17.5724C270.882 18.0678 271.592 18.7937 272.068 19.6691C272.544 20.5445 272.768 21.5351 272.714 22.5301C272.714 27.1149 269.411 29.8036 263.225 29.8036C257.537 29.8036 254.173 27.1149 253.745 22.5845H260.459Z" fill="#CC0000"/>
  <path d="M235.406 20.9993C235.04 26.5632 231.373 29.8036 225.257 29.8036C218.465 29.8036 214.378 25.5219 214.378 18.6137C214.378 11.7055 218.496 7.41602 225.133 7.41602C231.248 7.41602 234.916 10.5243 235.289 16.0416H228.8C228.622 13.9046 227.394 12.8012 225.195 12.8012C222.561 12.8012 221.216 14.7594 221.216 18.6758C221.216 22.5923 222.685 24.5117 225.374 24.5117C227.456 24.5117 228.738 23.2917 228.925 21.0304L235.406 20.9993Z" fill="#CC0000"/>
  <path d="M233.945 8.03027H240.916L244.467 21.7301L248.321 8.03027H254.989L247.832 29.2522H241.102L233.945 8.03027Z" fill="#CC0000"/>
  <path d="M192.589 7.47901C192.177 7.46669 191.767 7.54207 191.387 7.70015C191.006 7.85824 190.664 8.09542 190.382 8.39596L185.914 12.8564C185.328 13.451 185 14.252 185 15.0866C185 15.9211 185.328 16.7222 185.914 17.3168L198.456 29.8588L210.998 17.3168C211.587 16.7242 211.918 15.9224 211.918 15.0866C211.918 14.2508 211.587 13.449 210.998 12.8564L206.537 8.38819C205.942 7.80209 205.139 7.47363 204.303 7.47363C203.468 7.47363 202.665 7.80209 202.069 8.38819L198.394 12.0793L194.726 8.4115C194.463 8.10476 194.135 7.8615 193.764 7.7C193.394 7.53849 192.992 7.46294 192.589 7.47901Z" fill="#CC0000"/>
  <path d="M366.569 28.0944C366.556 28.2829 366.517 28.4686 366.452 28.6461C366.383 28.8108 366.277 28.9571 366.141 29.0735C366.028 29.2101 365.881 29.3146 365.714 29.3766C365.56 29.4477 365.394 29.4899 365.224 29.5009C365.035 29.4885 364.849 29.4465 364.673 29.3766C364.508 29.3105 364.362 29.2067 364.245 29.0735C364.132 28.9405 364.03 28.7974 363.942 28.6461C363.861 28.4736 363.818 28.2852 363.818 28.0944C363.818 27.9036 363.861 27.7152 363.942 27.5427C364.006 27.3773 364.111 27.2305 364.245 27.1153C364.36 26.9797 364.507 26.8755 364.673 26.8122C364.987 26.6876 365.337 26.6876 365.652 26.8122C365.82 26.8715 365.968 26.9764 366.079 27.1153C366.216 27.23 366.323 27.3768 366.39 27.5427C366.569 27.667 366.569 27.8457 366.569 28.0944ZM366.266 28.0944C366.276 27.9491 366.254 27.8034 366.204 27.667C366.145 27.5324 366.063 27.4089 365.963 27.3018C365.889 27.1871 365.78 27.0997 365.652 27.0531C365.537 27.0032 365.412 26.9819 365.287 26.9909C365.141 26.9811 364.996 27.0023 364.859 27.0531C364.732 27.0979 364.625 27.186 364.556 27.3018C364.451 27.4067 364.367 27.5306 364.308 27.667C364.225 27.9459 364.225 28.2429 364.308 28.5218L364.494 28.887C364.564 29.0016 364.671 29.0892 364.797 29.1357C364.93 29.2053 365.075 29.2476 365.224 29.26C365.349 29.269 365.475 29.2477 365.59 29.1978C365.718 29.1513 365.827 29.0639 365.901 28.9492C366.002 28.8427 366.083 28.7191 366.141 28.584C366.236 28.4392 366.28 28.2669 366.266 28.0944ZM364.984 28.8248H364.735V27.2707H365.287C365.436 27.2803 365.581 27.3199 365.714 27.3873C365.838 27.4494 365.838 27.5738 365.838 27.6981C365.834 27.8107 365.79 27.9181 365.714 28.0011C365.632 28.0791 365.524 28.1235 365.411 28.1255L365.838 28.7938H365.535L365.162 28.1876H364.921L364.984 28.8248ZM365.287 27.9701H365.535C365.59 27.9701 365.59 27.9079 365.59 27.9079V27.667L365.535 27.6048H364.984V28.0322L365.287 27.9701Z" fill="black"/>
  <path d="M567.827 28.0335C567.839 28.2125 567.815 28.3921 567.757 28.5619C567.697 28.7088 567.61 28.8432 567.501 28.9582C567.384 29.0673 567.25 29.1565 567.104 29.2224C566.957 29.2734 566.801 29.2945 566.646 29.2846C566.488 29.2997 566.328 29.2784 566.18 29.2224C566.036 29.1563 565.905 29.067 565.791 28.9582C565.679 28.8434 565.59 28.7091 565.527 28.5619C565.47 28.4162 565.446 28.2596 565.457 28.1034C565.445 27.9244 565.469 27.7449 565.527 27.575C565.59 27.4278 565.679 27.2935 565.791 27.1787C565.903 27.0695 566.035 26.9825 566.18 26.9223C566.328 26.8649 566.487 26.841 566.646 26.8523C566.802 26.8412 566.959 26.8651 567.104 26.9223C567.253 26.9788 567.388 27.0662 567.501 27.1787C567.613 27.2912 567.701 27.4263 567.757 27.575C567.814 27.7207 567.838 27.8774 567.827 28.0335ZM567.563 28.0335C567.573 27.9009 567.551 27.7679 567.501 27.645C567.431 27.5129 567.368 27.4429 567.299 27.3108C567.229 27.1787 567.104 27.1787 567.034 27.1165C566.913 27.0602 566.779 27.0361 566.646 27.0466C566.51 27.0347 566.373 27.0588 566.249 27.1165C566.15 27.1638 566.06 27.2298 565.985 27.3108C565.907 27.4137 565.842 27.5259 565.791 27.645C565.735 27.7663 565.711 27.9001 565.721 28.0335C565.715 28.1655 565.735 28.2973 565.781 28.4214C565.826 28.5455 565.895 28.6593 565.985 28.7562C566.047 28.8261 566.18 28.9582 566.249 28.9582C566.375 29.009 566.511 29.0302 566.646 29.0204C566.778 29.0302 566.911 29.0089 567.034 28.9582C567.135 28.9087 567.224 28.84 567.299 28.7562C567.381 28.6578 567.449 28.5479 567.501 28.4298C567.551 28.3042 567.573 28.1686 567.563 28.0335ZM566.382 28.7562H566.18V27.4429H566.708C566.844 27.431 566.981 27.4551 567.104 27.5129C567.186 27.6023 567.233 27.7181 567.236 27.8392C567.236 27.9713 567.236 28.0335 567.104 28.1034C566.972 28.1734 566.972 28.1656 566.84 28.2355L567.236 28.8261H566.972L566.646 28.2355H566.444L566.382 28.7562ZM566.646 27.9791H566.84L566.902 27.9092V27.6216L566.84 27.5517H566.382V27.948L566.646 27.9791Z" fill="#DC223A"/>
  <path fill-rule="evenodd" clip-rule="evenodd" d="M425.133 8.63867H431.443V17.1243H436.377V8.63867H442.625V29.0913H436.377V19.6887H431.381V28.9592H425.133V8.63867Z" fill="#DC223A"/>
  <path d="M442.686 29.2237H436.244V19.8521H431.512V29.0916H425V8.57677H431.574V17.0547H436.237V8.50684H442.678L442.686 29.2237ZM436.47 28.9595H442.453V8.7555H436.47V17.2567H431.341V8.77104H425.295V28.8274H431.279V19.5569H436.47V28.9595Z" fill="#DC223A"/>
  <path fill-rule="evenodd" clip-rule="evenodd" d="M452.555 13.6342C453.805 13.5808 455.054 13.7599 456.238 14.1626C457.952 14.6932 459.391 15.8728 460.248 17.4497C460.809 18.5381 461.14 19.7308 461.219 20.953C461.298 22.1752 461.123 23.4006 460.706 24.5521C460.412 25.4239 459.946 26.2278 459.337 26.9165C458.727 27.6052 457.985 28.1647 457.155 28.5619C455.78 29.2068 454.266 29.5004 452.749 29.4166C450.897 29.4652 449.078 28.9207 447.558 27.8625C446.176 26.8696 445.178 25.432 444.73 23.7906C444.263 22.081 444.007 19.0582 445.849 16.6881C446.459 15.8676 447.227 15.1774 448.107 14.6582C448.988 14.1391 449.964 13.8015 450.977 13.6653C451.436 13.7042 451.956 13.6342 452.555 13.6342ZM454.653 17.0534C454.918 17.8609 455.051 18.7057 455.049 19.5555V24.42C455.032 25.5502 454.585 26.6314 453.798 27.4429C452.943 28.1656 452.026 27.8392 451.366 26.9222C450.705 26.0053 450.589 25.1427 450.589 22.5162C450.589 19.8897 450.519 18.1102 450.985 17.0767C451.451 16.0432 451.964 15.5691 452.43 15.5225C453.479 15.2583 454.202 15.9188 454.661 17.0767" fill="#DC223A"/>
  <path d="M452.75 29.6116C451.763 29.6116 449.198 29.4873 447.427 28.1041C446.026 27.0851 445.006 25.6274 444.528 23.9623C444.264 22.9754 443.611 19.4863 445.647 16.7277C446.902 15.0462 448.771 13.9289 450.846 13.6194C451.389 13.5442 451.937 13.5001 452.485 13.4873V13.5572C453.758 13.5044 455.029 13.6808 456.239 14.0779C457.953 14.6752 459.397 15.8659 460.311 17.4349C460.872 18.5473 461.202 19.7618 461.28 21.0052C461.359 22.2486 461.185 23.4951 460.769 24.6694C460.157 26.4352 458.884 27.8949 457.218 28.7413C455.822 29.3924 454.288 29.6912 452.75 29.6116ZM452.416 13.7671C451.895 13.7785 451.376 13.8226 450.861 13.8992C449.862 14.0268 448.899 14.3548 448.03 14.8636C447.161 15.3723 446.403 16.0513 445.803 16.8598C443.829 19.4863 444.482 22.9055 444.746 23.8924C445.194 25.5006 446.168 26.9123 447.512 27.9021C449.152 29.2231 451.654 29.4562 452.641 29.4562C454.133 29.5117 455.618 29.219 456.977 28.6014C457.781 28.2041 458.497 27.6503 459.085 26.9724C459.672 26.2946 460.118 25.5063 460.396 24.6539C460.8 23.5184 460.967 22.3123 460.889 21.1097C460.81 19.9071 460.486 18.7333 459.938 17.6602C459.106 16.0873 457.688 14.906 455.99 14.3732C454.822 14.0017 453.602 13.8258 452.377 13.8525L452.416 13.7671ZM452.804 27.972H452.61C452.341 27.9117 452.086 27.799 451.861 27.6403C451.636 27.4816 451.444 27.2801 451.297 27.0473C450.706 26.1303 450.442 25.3377 450.519 22.5791V20.9317C450.519 19.16 450.519 17.8234 450.916 16.9919C451.374 16.005 451.903 15.4378 452.47 15.3445C453.457 15.1502 454.312 15.7408 454.84 17.0541C455.105 17.8616 455.239 18.7064 455.236 19.5563V24.514C455.212 25.668 454.767 26.7735 453.985 27.6223C453.637 27.8513 453.229 27.9728 452.812 27.972H452.804ZM452.804 15.5388H452.478C452.019 15.601 451.561 16.1294 451.095 17.0463C450.706 17.8234 450.706 19.09 450.706 20.8618V22.5092C450.636 25.2056 450.9 25.9905 451.483 26.8452C451.609 27.0639 451.781 27.2532 451.986 27.4006C452.191 27.548 452.424 27.65 452.672 27.7C452.86 27.7334 453.054 27.7211 453.236 27.6643C453.419 27.6076 453.585 27.5079 453.721 27.3737C454.638 26.5966 454.84 24.9414 454.902 24.413C454.964 23.8846 454.972 21.5223 454.902 19.5485C454.904 18.7425 454.773 17.9417 454.514 17.1784C454.179 16.4013 453.659 15.5388 452.796 15.5388H452.804Z" fill="#DC223A"/>
  <path fill-rule="evenodd" clip-rule="evenodd" d="M468.734 18.2969V28.9584H462.883V14.1939H468.734V16.1677C469.245 15.4473 469.922 14.8608 470.708 14.4581C471.528 14.0367 472.43 13.8002 473.351 13.7653C474.272 13.7304 475.189 13.8979 476.039 14.2561C476.735 14.5524 477.336 15.0348 477.776 15.6503C478.216 16.2658 478.478 16.9906 478.533 17.7452V29.0205H472.752V18.631C472.796 18.0729 472.63 17.5184 472.285 17.0769C472.003 16.8242 471.646 16.6689 471.268 16.634C470.891 16.599 470.512 16.6861 470.187 16.8826C469.457 17.3411 468.633 18.1959 468.734 18.328" fill="#DC223A"/>
  <path d="M468.858 29.0906H462.742V14.0308H468.858V15.8026C469.343 15.1853 469.949 14.6725 470.637 14.295C471.477 13.8758 472.397 13.6409 473.335 13.6061C474.273 13.5713 475.208 13.7373 476.077 14.093C476.798 14.3996 477.419 14.9006 477.872 15.5401C478.325 16.1795 478.591 16.9322 478.641 17.7142V29.0906H472.658V18.6311C472.683 18.3717 472.656 18.1097 472.577 17.8612C472.498 17.6127 472.37 17.3829 472.199 17.1858C471.938 16.9636 471.615 16.8261 471.274 16.7914C470.932 16.7567 470.588 16.8265 470.288 16.9915C469.72 17.2977 469.227 17.7248 468.842 18.2426L468.858 29.0906ZM463.006 28.8885H468.594V18.297C468.97 17.6547 469.505 17.1196 470.148 16.7428C470.499 16.5423 470.905 16.4598 471.306 16.5073C471.708 16.5549 472.083 16.73 472.378 17.007C472.747 17.4742 472.935 18.0595 472.906 18.6544V28.8885H478.431V17.7142C478.408 16.9757 478.163 16.2612 477.73 15.6629C477.296 15.0646 476.693 14.6098 475.999 14.3572C475.154 14.0316 474.252 13.8815 473.348 13.9163C472.443 13.951 471.555 14.1698 470.738 14.5592C470.001 14.9765 469.351 15.5334 468.827 16.1989L468.695 16.331H468.562V14.3572H462.913L463.006 28.8885Z" fill="#DC223A"/>
  <path fill-rule="evenodd" clip-rule="evenodd" d="M486.42 20.473C486.397 19.5282 486.441 18.5829 486.553 17.6444C486.682 16.8595 487.074 16.1417 487.664 15.6085C488.018 15.3755 488.44 15.268 488.863 15.3032C489.286 15.3384 489.684 15.5143 489.995 15.8027C490.374 16.1983 490.666 16.6697 490.85 17.1859C491.003 17.8335 491.091 18.4947 491.114 19.1597V20.473H486.42ZM481.222 17.7143C482.403 15.3443 485.364 13.5026 488.993 13.7046C492.622 13.9067 494.774 15.2121 495.986 17.6444C496.687 19.169 497.004 20.8415 496.911 22.5167H486.389V25.5395C486.457 25.8583 486.567 26.1667 486.716 26.4564C486.98 26.7906 487.897 28.0106 490.795 27.5754C493.95 27.047 493.904 24.8168 493.95 24.8168H496.445C496.405 25.7471 496.033 26.6323 495.396 27.3112C494.031 28.5628 492.302 29.3467 490.461 29.5492C488.425 29.7435 485.465 29.8134 483.102 27.8396C481.974 26.9061 481.129 25.6762 480.662 24.2884C480.076 22.1016 480.263 19.7795 481.191 17.7143" fill="#DC223A"/>
  <path d="M488.65 29.6812C486.629 29.7477 484.649 29.0951 483.063 27.8395C481.92 26.8957 481.075 25.6405 480.631 24.2261C479.983 22.022 480.171 19.656 481.159 17.5821C481.951 16.2229 483.113 15.1173 484.51 14.3948C485.906 13.6723 487.48 13.3628 489.047 13.5024C492.598 13.7045 494.836 14.9478 496.219 17.5821C496.945 19.1423 497.261 20.8622 497.136 22.5787V22.6409H486.607V25.5393C486.649 25.8453 486.761 26.1375 486.933 26.3941C487.858 27.6452 489.567 27.6452 490.881 27.4432C492.194 27.2411 493.647 26.6661 493.903 24.8788C493.903 24.7467 493.903 24.6846 494.036 24.6846H496.709V24.8167C496.656 25.7781 496.259 26.6883 495.59 27.381C494.182 28.6456 492.407 29.4271 490.523 29.6112C489.901 29.672 489.275 29.6954 488.65 29.6812ZM481.354 17.7142C480.394 19.7243 480.206 22.0166 480.825 24.1562C481.259 25.5153 482.067 26.7246 483.156 27.6452C485.488 29.5491 488.223 29.5491 490.391 29.2849C492.2 29.0898 493.901 28.3314 495.256 27.1168C495.845 26.4719 496.213 25.6548 496.305 24.7856H493.973C493.647 26.6894 492.069 27.3499 490.756 27.5442C488.845 27.8706 487.399 27.482 486.614 26.3631C486.423 26.0611 486.289 25.7266 486.218 25.3762V22.2523H496.74C496.795 20.6477 496.478 19.052 495.815 17.5899C494.502 15.0877 492.334 13.8444 488.821 13.7045C485.076 13.5724 482.247 15.6083 481.26 17.7142H481.354ZM491.215 20.6749H486.288V20.5427C486.266 19.5747 486.31 18.6063 486.42 17.6443C486.544 16.8239 486.964 16.0773 487.601 15.5461C487.97 15.3012 488.41 15.1872 488.851 15.2224C489.292 15.2577 489.709 15.4401 490.034 15.7404C490.432 16.1456 490.725 16.6417 490.888 17.1858V17.2557C491.046 17.9236 491.134 18.6058 491.153 19.2917V20.6282L491.215 20.6749ZM486.552 20.4106H490.888V19.2217C490.892 18.582 490.827 17.9437 490.694 17.3179V17.2557C490.581 16.7445 490.309 16.2822 489.917 15.9347C489.633 15.6777 489.27 15.5247 488.887 15.5007C488.505 15.4767 488.125 15.5831 487.811 15.8026C487.22 16.3094 486.827 17.0082 486.7 17.7764C486.63 18.5534 486.568 19.4859 486.568 20.4106H486.552Z" fill="#DC223A"/>
  <path fill-rule="evenodd" clip-rule="evenodd" d="M539.619 20.473C539.595 19.5282 539.639 18.5829 539.751 17.6444C539.877 16.8585 540.269 16.1397 540.862 15.6085C541.216 15.3755 541.639 15.268 542.061 15.3032C542.484 15.3384 542.882 15.5143 543.193 15.8027C543.572 16.1983 543.864 16.6697 544.048 17.1859C544.198 17.8338 544.284 18.4949 544.304 19.1597V20.473H539.619ZM534.42 17.7143C535.601 15.3443 538.562 13.5026 542.191 13.7046C545.82 13.9067 547.972 15.2121 549.185 17.6444C549.885 19.169 550.202 20.8415 550.109 22.5167H539.588V25.5395C539.655 25.8583 539.765 26.1667 539.914 26.4564C540.178 26.7906 541.095 28.0106 543.994 27.5754C547.149 27.047 547.102 24.8168 547.149 24.8168H549.643C549.574 25.7404 549.206 26.6162 548.594 27.3112C547.229 28.5628 545.5 29.3467 543.66 29.5492C541.624 29.7435 538.663 29.8134 536.301 27.8396C535.172 26.9061 534.327 25.6762 533.861 24.2884C533.274 22.1016 533.461 19.7795 534.389 17.7143" fill="#DC223A"/>
  <path d="M541.849 29.6814C539.827 29.748 537.847 29.0954 536.261 27.8398C535.118 26.896 534.273 25.6408 533.829 24.2264C533.181 22.0222 533.369 19.6563 534.358 17.5824C535.407 15.4143 538.297 13.3084 542.245 13.5027C545.796 13.7048 548.034 14.9481 549.41 17.5824C550.141 19.1409 550.46 20.8617 550.334 22.579L550.264 22.6411H539.813V25.5396C539.852 25.8465 539.964 26.1395 540.139 26.3944C540.862 27.3813 542.245 27.7077 544.087 27.4435C545.338 27.2492 546.845 26.6664 547.109 24.8791C547.109 24.747 547.109 24.6848 547.242 24.6848H549.876V24.8169C549.819 25.7775 549.423 26.6867 548.757 27.3813C547.367 28.632 545.619 29.4124 543.76 29.6115C543.125 29.6697 542.487 29.6931 541.849 29.6814ZM541.717 13.7669C540.277 13.7181 538.852 14.0591 537.591 14.754C536.329 15.4489 535.279 16.4718 534.552 17.7145C533.627 19.7338 533.44 22.0134 534.024 24.1564C534.457 25.5156 535.265 26.7249 536.355 27.6455C538.686 29.5493 541.421 29.5493 543.589 29.2851C545.422 29.1119 547.15 28.3515 548.516 27.1171C549.132 26.489 549.507 25.6633 549.573 24.7859H547.335C547.008 26.6897 545.431 27.3502 544.118 27.5445C542.144 27.8709 540.761 27.4823 539.906 26.3633C539.721 26.0581 539.587 25.7247 539.51 25.3764V22.2526H550.031C550.089 20.6485 549.775 19.0528 549.114 17.5901C547.793 15.0879 545.625 13.8446 542.121 13.7048L541.717 13.7669ZM544.413 20.6751H539.486V20.543C539.464 19.575 539.509 18.6066 539.618 17.6445C539.742 16.8241 540.162 16.0776 540.8 15.5464C541.168 15.3015 541.608 15.1875 542.049 15.2227C542.49 15.2579 542.907 15.4404 543.232 15.7407C543.651 16.129 543.948 16.6314 544.087 17.1861V17.256C544.274 17.9179 544.363 18.604 544.351 19.2919V20.6285L544.413 20.6751ZM539.751 20.4109H544.11V19.222C544.126 18.5772 544.037 17.9342 543.846 17.3182V17.256C543.73 16.7456 543.459 16.2839 543.069 15.935C542.784 15.678 542.421 15.525 542.039 15.501C541.656 15.477 541.277 15.5834 540.963 15.8029C540.372 16.3114 539.977 17.009 539.844 17.7766C539.813 18.5693 539.751 19.4862 539.751 20.4109Z" fill="#DC223A"/>
  <path fill-rule="evenodd" clip-rule="evenodd" d="M496.476 14.1629H502.856L505.552 21.1955L508.451 14.2018H516.47L519.034 22.4854L521.272 14.1318H526.401L528.895 22.3533L531.133 14.1318H533.76L529.688 28.9973H524.886L522.189 20.3174L519.858 28.9973H515.063L510.657 14.7302L504.441 29.8521C504.441 29.8521 503.586 32.3465 502.467 33.2712C501.922 33.8307 501.245 34.2441 500.498 34.4736C499.751 34.7031 498.959 34.7412 498.193 34.5845C496.227 34.2581 495.434 33.2013 495.302 31.958C495.201 31.3403 495.343 30.7074 495.698 30.1918C496.053 29.6762 496.593 29.3178 497.206 29.1916C498.589 28.9274 499.537 29.4558 499.841 30.1163C500.001 30.3924 500.101 30.6991 500.134 31.0164C500.168 31.3338 500.134 31.6546 500.035 31.958C499.922 32.2374 499.744 32.4853 499.514 32.6806C499.789 32.7149 500.068 32.6851 500.33 32.5934C500.591 32.5017 500.828 32.3507 501.022 32.1522C501.604 31.4762 502.032 30.6803 502.273 29.821C502.349 29.6328 502.394 29.4332 502.405 29.2304L496.484 14.1707" fill="#DC223A"/>
  <path d="M499.172 34.8093C498.846 34.8093 498.519 34.7471 498.185 34.7471C496.344 34.413 495.364 33.496 495.162 32.0507C495.05 31.4057 495.193 30.7424 495.562 30.2013C495.93 29.6602 496.495 29.2839 497.136 29.1522C498.69 28.8258 499.568 29.4863 499.895 30.1391C500.058 30.4381 500.16 30.7667 500.194 31.1056C500.229 31.4445 500.196 31.7869 500.097 32.1128C500.023 32.3082 499.912 32.4875 499.77 32.6412C499.984 32.6443 500.195 32.5982 500.388 32.5066C500.58 32.415 500.749 32.2802 500.882 32.1128C501.468 31.4722 501.901 30.707 502.148 29.8749C502.218 29.6806 502.218 29.5485 502.28 29.3542L496.297 14.0303H502.925L502.988 14.0924L505.622 20.8685L508.45 14.0303H516.664V14.0924L519.096 21.9875L521.334 14.0303H526.665L529.097 21.9176L531.265 14.0303H534.156L530.014 29.1755H524.886V29.1133L522.352 20.8685L520.021 29.2221H514.892L510.549 15.1881L504.503 29.9526C504.06 31.2395 503.365 32.4255 502.459 33.4416C501.575 34.2958 500.401 34.7844 499.172 34.8093ZM497.859 29.2843C497.636 29.2733 497.414 29.2969 497.198 29.3542C496.626 29.4883 496.126 29.8333 495.798 30.3203C495.469 30.8072 495.337 31.4003 495.427 31.9807C495.621 33.3639 496.546 34.1488 498.255 34.4829C499.001 34.6373 499.774 34.5969 500.499 34.3655C501.225 34.1341 501.878 33.7196 502.397 33.1619C503.446 32.2449 504.301 29.8127 504.371 29.7428L510.587 14.6209H510.852L515.195 28.888H519.928L522.298 20.3401H522.554L525.189 28.888H529.789L533.799 14.2945H531.467L529.229 22.3838H528.965L526.471 14.2945H521.536L519.244 22.5159H518.98L516.415 14.2945H508.59L505.7 21.2882H505.435L502.739 14.2945H496.623L502.475 29.3542C502.462 29.5561 502.421 29.7551 502.35 29.9448C502.085 30.8087 501.634 31.6042 501.029 32.276C500.832 32.5099 500.577 32.6876 500.289 32.7913C500.001 32.895 499.691 32.9209 499.39 32.8666L499.188 32.8044L499.39 32.6723C499.577 32.4782 499.732 32.2552 499.848 32.0118C499.981 31.416 499.913 30.7929 499.654 30.2401C499.473 29.935 499.211 29.6867 498.896 29.5232C498.582 29.3597 498.228 29.2877 497.874 29.3154L497.859 29.2843Z" fill="#DC223A"/>
  <path fill-rule="evenodd" clip-rule="evenodd" d="M551.912 8.6377H557.569V29.0204H551.912V8.6377Z" fill="#DC223A"/>
  <path d="M557.701 29.1761H551.881V8.50586H557.732L557.701 29.1761ZM552.044 28.9119H557.367V8.77007H552.044V28.9119Z" fill="#DC223A"/>
  <path fill-rule="evenodd" clip-rule="evenodd" d="M559.279 8.6377H564.936V29.0204H559.279V8.6377Z" fill="#DC223A"/>
  <path d="M565.092 29.1761H559.24V8.50586H565.092V29.1761ZM559.442 28.9119H564.835V8.77007H559.442V28.9119Z" fill="#DC223A"/>
  <path d="M858.323 28.9345H850.922L855.548 0.50791H862.949L858.323 28.9345ZM844.696 0.50791L837.64 20.06L836.805 15.8497L836.806 15.8512L834.316 3.06738C834.316 3.06738 834.015 0.507867 830.805 0.507867H819.141L819.004 0.989221C819.004 0.989221 822.571 1.73139 826.745 4.23839L833.175 28.9353H840.887L852.661 0.50791H844.696ZM902.908 28.9345H909.704L903.779 0.507134H897.83C895.082 0.507134 894.413 2.62559 894.413 2.62559L883.375 28.9345H891.09L892.633 24.712H902.041L902.908 28.9345ZM894.764 18.8791L898.653 8.2411L900.841 18.8791H894.764ZM883.954 7.34387L885.01 1.23943C885.01 1.23943 881.751 0 878.354 0C874.681 0 865.959 1.60521 865.959 9.41064C865.959 16.7546 876.196 16.8458 876.196 20.7033C876.196 24.5608 867.014 23.8696 863.984 21.4371L862.883 27.8199C862.883 27.8199 866.188 29.4251 871.237 29.4251C876.288 29.4251 883.907 26.8101 883.907 19.6927C883.907 12.3017 873.578 11.6135 873.578 8.40008C873.579 5.18584 880.787 5.59873 883.954 7.34387Z" fill="#2566AF"/>
  <path d="M836.806 15.8501L834.316 3.06634C834.316 3.06634 834.015 0.506836 830.805 0.506836H819.141L819.004 0.988191C819.004 0.988191 824.61 2.15006 829.988 6.50334C835.13 10.6642 836.806 15.8501 836.806 15.8501Z" fill="#E6A540"/>
  <path d="M755.217 26.9137C755.217 26.3247 755.392 25.749 755.719 25.2594C756.046 24.7698 756.512 24.3883 757.056 24.1633C757.6 23.9383 758.199 23.8798 758.776 23.9953C759.354 24.1107 759.884 24.395 760.3 24.812C760.716 25.229 760.999 25.76 761.113 26.3378C761.227 26.9157 761.167 27.5143 760.94 28.058C760.714 28.6017 760.331 29.066 759.841 29.3921C759.35 29.7182 758.774 29.8914 758.185 29.8899C757.398 29.8858 756.644 29.5707 756.088 29.0132C755.532 28.4557 755.219 27.7011 755.217 26.9137Z" fill="#86BC24"/>
  <path d="M674.199 25.1034C673.629 25.3074 673.048 25.4786 672.459 25.6162C671.769 25.7618 671.065 25.8347 670.36 25.8338C668.029 25.8338 666.234 25.0567 665.939 23.2228H675.792C675.938 22.5304 676.011 21.8246 676.01 21.117C676.01 16.9207 673.912 13.0742 668.62 13.0742C663.475 13.0742 660.725 17.1383 660.725 21.6221C660.725 26.8362 664.346 29.8124 669.49 29.8124C670.513 29.8221 671.534 29.7231 672.536 29.5172C673.388 29.3679 674.216 29.1066 674.999 28.7401L674.222 25.1111L674.199 25.1034ZM668.62 16.843C668.965 16.8447 669.306 16.9163 669.623 17.0534C669.94 17.1905 670.225 17.3904 670.463 17.6409C670.7 17.8914 670.884 18.1874 671.004 18.511C671.124 18.8346 671.178 19.1792 671.161 19.524V19.6017H665.908C665.889 19.2533 665.94 18.9046 666.058 18.5762C666.176 18.2478 666.358 17.9462 666.594 17.6892C666.83 17.4322 667.115 17.225 667.432 17.0797C667.749 16.9344 668.092 16.8539 668.441 16.843H668.62Z" fill="#0F0B0B"/>
  <path d="M751.083 25.1034C750.516 25.3063 749.937 25.4776 749.35 25.6162C748.657 25.7574 747.952 25.8303 747.245 25.8338C744.913 25.8338 743.118 25.0567 742.823 23.2228H752.754C752.9 22.5304 752.973 21.8246 752.972 21.117C752.972 16.9207 750.866 13.0742 745.582 13.0742C740.437 13.0742 737.679 17.1383 737.679 21.6221C737.679 26.8362 741.3 29.8124 746.452 29.8124C747.472 29.8221 748.491 29.7231 749.49 29.5172C750.342 29.369 751.171 29.1077 751.954 28.7401L751.083 25.1111V25.1034ZM745.434 16.843C745.777 16.8511 746.115 16.927 746.428 17.0664C746.741 17.2058 747.024 17.4059 747.26 17.6552C747.495 17.9045 747.679 18.198 747.801 18.5188C747.922 18.8395 747.979 19.1812 747.967 19.524V19.6017H742.683C742.664 19.2533 742.715 18.9046 742.833 18.5762C742.951 18.2478 743.133 17.9462 743.369 17.6892C743.605 17.4322 743.89 17.225 744.207 17.0797C744.525 16.9344 744.868 16.8539 745.216 16.843H745.434Z" fill="#0F0B0B"/>
  <path d="M678.473 7.79004V29.5249H683.842V7.79004H678.473Z" fill="#0F0B0B"/>
  <path d="M694.567 29.8896C698.771 29.8896 702.967 27.2787 702.967 21.3418C702.967 17.8683 700.869 13.1592 694.784 13.1592C688.474 13.1592 686.236 17.7206 686.236 21.6371C686.306 26.486 689.71 29.8896 694.567 29.8896ZM694.636 25.9032C692.896 25.9032 691.738 24.1626 691.738 21.5516C691.738 19.4535 692.515 17.1378 694.636 17.1378C696.758 17.1378 697.465 19.469 697.465 21.4817C697.465 24.1626 696.299 25.9032 694.636 25.9032Z" fill="#0F0B0B"/>
  <path d="M705.359 13.4385V29.524H710.721V13.4385H705.359Z" fill="#0F0B0B"/>
  <path d="M705.359 7.79004V11.9163H710.721V7.79004H705.359Z" fill="#0F0B0B"/>
  <path d="M714.926 9.08773V13.4394H712.897V17.4258H714.926V24.0154C714.926 27.6443 716.596 29.8201 720.365 29.8201C721.121 29.817 721.876 29.7442 722.619 29.6025C723.143 29.5396 723.662 29.441 724.173 29.3073L724.103 25.1033C723.505 25.2357 722.901 25.3343 722.292 25.3986C722.012 25.4302 721.727 25.4008 721.459 25.3123C721.191 25.2237 720.945 25.0782 720.738 24.8857C720.335 24.4011 720.13 23.7822 720.163 23.1528V17.5268H723.637V13.4394H720.163V8.5127L714.941 9.08773H714.926Z" fill="#0F0B0B"/>
  <path d="M727.39 9.08773V13.4394H725.362V17.4258H727.39V24.0154C727.39 27.6443 729.061 29.8201 732.83 29.8201C733.586 29.817 734.341 29.7442 735.084 29.6025C735.608 29.5396 736.127 29.441 736.638 29.3073L736.568 25.1033C735.97 25.2351 735.366 25.3337 734.757 25.3986C734.476 25.4302 734.192 25.4008 733.924 25.3123C733.656 25.2237 733.41 25.0782 733.203 24.8857C732.988 24.655 732.825 24.381 732.724 24.0822C732.624 23.7834 732.588 23.4665 732.62 23.1528V17.5268H736.101V13.4394H732.62V8.5127L727.406 9.08773H727.39Z" fill="#0F0B0B"/>
  <path d="M647.825 25.1811H645.292V11.8465C645.894 11.7895 646.498 11.7661 647.102 11.7766C650.211 11.7766 653.552 13.8048 653.552 18.4361C653.622 23.3706 650.506 24.9636 647.825 25.1811ZM640 29.525H647.39C655.72 29.0898 659.132 24.1632 659.132 18.5138C659.132 11.4114 654.345 7.42496 646.084 7.42496C644.053 7.41217 642.022 7.50815 640 7.71247V29.525Z" fill="#0F0B0B"/>
</svg>
