<svg width="182" height="24" viewBox="0 0 182 24" fill="none"
  xmlns="http://www.w3.org/2000/svg">
  <path d="M139.847 22.8364H144.191V20.9326H142.171V10.1079H144.129V8.21184H139.785V10.411C139.157 9.59664 138.35 8.93669 137.428 8.48149C136.505 8.02629 135.491 7.78788 134.462 7.78445C130.305 7.78445 127.243 11.1492 127.243 15.5552C127.243 19.9612 130.305 23.326 134.462 23.326C135.494 23.3348 136.513 23.1009 137.438 22.6434C138.362 22.1858 139.167 21.5172 139.785 20.6917V22.8364H139.847ZM125.168 18.951H122.783C122.318 19.7251 121.65 20.3568 120.851 20.7774C120.053 21.1981 119.154 21.3915 118.253 21.3367C114.95 21.3367 113.178 19.3163 112.93 16.3167H125.534V15.2444C125.534 10.784 122.659 7.72228 118.19 7.72228C117.162 7.68358 116.137 7.85859 115.181 8.23625C114.224 8.6139 113.356 9.18598 112.631 9.91631C111.907 10.6466 111.341 11.5194 110.971 12.4793C110.602 13.4392 110.435 14.4654 110.482 15.493C110.482 20.0778 113.59 23.2638 118.128 23.2638C121.493 23.2638 124.003 21.6086 125.168 18.9199V18.951ZM94.2719 10.4731V3.56492H96.44V1.60669H89.7105V3.56492H91.8475V20.816H89.7726V22.7509H96.5021V20.816H94.3574V12.3692H104.988V20.816H102.843V22.7509H109.573V20.816H107.436V3.56492H109.573V1.60669H102.843V3.56492H104.988V10.4731H94.2719ZM167.154 20.8782H165.196V14.3274C165.196 11.2735 166.75 9.74268 169.485 9.74268C171.925 9.74268 173.518 11.2968 173.518 14.3274V20.8782H171.56V22.8364H177.924V20.8782H175.966V14.3274C175.966 10.6596 173.767 7.72228 169.85 7.72228C168.975 7.68261 168.102 7.8506 167.304 8.21255C166.506 8.57449 165.805 9.12011 165.258 9.80484V1.60669H160.914V3.50276H162.872V20.8782H160.914V22.8364H167.278L167.154 20.8782ZM129.714 15.5552C129.714 12.1905 131.859 9.80484 134.859 9.80484C137.858 9.80484 139.933 12.2526 139.933 15.5552C139.933 18.8578 137.85 21.3056 134.859 21.3056C131.867 21.3056 129.714 18.8578 129.714 15.5552ZM118.198 9.74268C121.306 9.74268 122.907 11.9418 123.156 14.4051H112.93C112.968 13.7533 113.135 13.1156 113.42 12.5283C113.706 11.941 114.104 11.4158 114.593 10.9828C115.082 10.5497 115.651 10.2172 116.268 10.0045C116.885 9.79166 117.539 9.70271 118.19 9.74268H118.198ZM156.492 19.0676V10.1079H159.484V8.21184H156.492V4.41971H154.107V8.21184H151.838V10.1701H154.107V19.223C154.107 21.8573 155.265 23.1084 157.992 23.1084C158.488 23.1077 158.981 23.045 159.461 22.9219V20.9947C159.058 21.0669 158.65 21.1084 158.241 21.1191C157.013 20.9947 156.469 20.5674 156.469 19.0365L156.492 19.0676ZM150.594 23.0151C151.048 23.013 151.5 22.953 151.939 22.8364V20.9326C151.596 21.0046 151.248 21.0462 150.897 21.0569C149.856 21.0569 149.429 20.5052 149.429 18.9199V1.60669H145.085V3.50276H147.043V18.9821C146.981 21.6086 148.022 23.0151 150.594 23.0151Z" fill="#8EAAB2"/>
  <path d="M75.4589 16.1612C75.8319 17.7542 76.6867 18.3059 78.5673 18.3059C80.2147 18.3059 81.1316 17.692 81.1316 16.7518C81.1316 15.4074 79.9116 15.2831 77.4016 14.6692C74.4643 13.8921 72.5682 13.2627 71.7134 12.6566C70.9282 12.1107 70.2926 11.3765 69.8649 10.5211C69.4373 9.66576 69.2312 8.7167 69.2657 7.76101C69.2424 3.68136 72.4905 0.992676 78.1243 0.992676C83.5638 0.992676 86.812 3.3783 87.1773 7.65999H80.7508C80.5099 6.37781 79.6552 5.82609 78 5.82609C76.5313 5.82609 75.8553 6.31565 75.8553 7.29476C75.8553 8.39821 76.9587 8.63911 78.9636 9.12866C81.5901 9.80472 83.6726 10.2321 85.017 11.1491C85.8817 11.6444 86.5917 12.3703 87.0679 13.2458C87.544 14.1212 87.7675 15.1117 87.7135 16.1068C87.7135 20.6916 84.4109 23.3802 78.2253 23.3802C72.5371 23.3802 69.1724 20.6916 68.745 16.1612H75.4589Z" fill="#8EAAB2"/>
  <path d="M50.406 14.576C50.0408 20.1398 46.373 23.3802 40.2574 23.3802C33.4658 23.3802 29.3784 19.0986 29.3784 12.1903C29.3784 5.28214 33.4969 0.992676 40.1331 0.992676C46.2487 0.992676 49.9165 4.10098 50.2895 9.61822H43.8009C43.6222 7.48126 42.3944 6.37781 40.1952 6.37781C37.561 6.37781 36.2166 8.33605 36.2166 12.2525C36.2166 16.169 37.6853 18.0884 40.374 18.0884C42.4565 18.0884 43.7387 16.8683 43.9252 14.6071L50.406 14.576Z" fill="#8EAAB2"/>
  <path d="M48.9451 1.60669H55.9154L59.4667 15.3065L63.321 1.60669H69.9883L62.8314 22.8286H56.102L48.9451 1.60669Z" fill="#8EAAB2"/>
  <path d="M7.58897 1.05586C7.17714 1.04353 6.76738 1.11891 6.3869 1.277C6.00642 1.43508 5.66391 1.67227 5.38207 1.97281L0.913885 6.43322C0.328269 7.02781 0 7.82888 0 8.66343C0 9.49799 0.328269 10.2991 0.913885 10.8936L13.4559 23.4357L25.9979 10.8936C26.5873 10.301 26.9181 9.49922 26.9181 8.66343C26.9181 7.82765 26.5873 7.02584 25.9979 6.43322L21.5375 1.96504C20.9416 1.37893 20.1392 1.05048 19.3034 1.05048C18.4675 1.05048 17.6652 1.37893 17.0693 1.96504L13.3937 5.65615L9.72593 1.98835C9.4633 1.6816 9.13458 1.43834 8.76447 1.27684C8.39436 1.11534 7.99246 1.03978 7.58897 1.05586Z" fill="#8EAAB2"/>
  <path d="M181.569 21.6707C181.556 21.8592 181.517 22.0449 181.452 22.2224C181.383 22.3871 181.277 22.5334 181.141 22.6498C181.028 22.7864 180.88 22.8909 180.714 22.9529C180.56 23.024 180.394 23.0662 180.224 23.0772C180.035 23.0648 179.849 23.0228 179.673 22.9529C179.508 22.8868 179.362 22.783 179.245 22.6498C179.131 22.5168 179.03 22.3737 178.942 22.2224C178.86 22.0499 178.818 21.8615 178.818 21.6707C178.818 21.4799 178.86 21.2914 178.942 21.119C179.006 20.9536 179.11 20.8068 179.245 20.6916C179.36 20.556 179.507 20.4518 179.673 20.3885C179.987 20.2639 180.337 20.2639 180.652 20.3885C180.82 20.4478 180.968 20.5527 181.079 20.6916C181.216 20.8063 181.323 20.9531 181.39 21.119C181.569 21.2433 181.569 21.422 181.569 21.6707ZM181.265 21.6707C181.275 21.5254 181.254 21.3797 181.203 21.2433C181.144 21.1087 181.063 20.9852 180.962 20.8781C180.889 20.7634 180.78 20.676 180.652 20.6294C180.537 20.5795 180.411 20.5582 180.286 20.5672C180.141 20.5574 179.995 20.5786 179.859 20.6294C179.732 20.6742 179.625 20.7622 179.556 20.8781C179.451 20.983 179.366 21.1069 179.307 21.2433C179.224 21.5222 179.224 21.8192 179.307 22.0981L179.494 22.4633C179.564 22.5779 179.671 22.6655 179.797 22.712C179.93 22.7816 180.075 22.8239 180.224 22.8363C180.349 22.8453 180.474 22.824 180.589 22.7741C180.718 22.7276 180.827 22.6402 180.9 22.5255C181.002 22.419 181.083 22.2954 181.141 22.1602C181.236 22.0155 181.28 21.8432 181.265 21.6707ZM179.983 22.4011H179.735V20.847H180.286C180.435 20.8566 180.581 20.8962 180.714 20.9636C180.838 21.0257 180.838 21.15 180.838 21.2744C180.834 21.387 180.79 21.4944 180.714 21.5774C180.632 21.6554 180.524 21.6998 180.411 21.7018L180.838 22.3701H180.535L180.162 21.7639H179.921L179.983 22.4011ZM180.286 21.5464H180.535C180.589 21.5464 180.589 21.4842 180.589 21.4842V21.2433L180.535 21.1811H179.983V21.6085L180.286 21.5464Z" fill="#8EAAB2"/>
</svg>
