<svg width="95" height="34" viewBox="0 0 95 34" fill="none" xmlns="http://www.w3.org/2000/svg">
<g clip-path="url(#clip0)">
<path fill-rule="evenodd" clip-rule="evenodd" d="M86.3141 5.5083C82.4299 5.5083 80.2353 6.25823 78.9753 8.01573C77.6589 9.85145 77.3945 12.7493 77.3945 16.8305C77.3945 24.8418 78.6339 28.1908 86.3141 28.1908C87.2368 28.1908 90.39 28.1733 92.2309 27.9486C92.9472 27.8299 93.2679 27.2814 93.2679 26.7905V25.9057C93.2679 25.217 92.7476 24.6977 92.0573 24.6977H86.3141C81.9807 24.6977 81.1991 23.6761 81.0882 17.8689V15.9891C81.125 10.0463 81.9064 9.0015 86.3141 9.0015C90.3786 9.0015 91.1581 9.92872 91.2932 15.1607H84.8351V18.6925H93.3292C95.0023 18.6925 95.0023 17.5226 95.0023 17.1381V16.0106C94.8812 7.8638 92.9322 5.5083 86.3141 5.5083Z" fill="#272727"/>
<path fill-rule="evenodd" clip-rule="evenodd" d="M75.1296 5.81974L75.0374 5.79533C74.2463 5.62894 72.0842 5.5083 71.0126 5.5083C67.2196 5.5083 65.2148 7.09633 65.2148 10.1008V26.8287C65.2148 27.5175 65.6969 27.9984 66.3872 27.9984H67.7363C68.4267 27.9984 68.9087 27.5175 68.9087 26.8287V10.408C68.9087 9.66657 69.0964 9.0015 71.3597 9.0015L74.711 8.99842C75.0391 9.03776 75.3522 8.94698 75.5931 8.74291C75.8563 8.52082 76.001 8.19705 76.001 7.8318V6.98564C76.001 6.43007 75.6833 6.00509 75.1296 5.81974Z" fill="#272727"/>
<path fill-rule="evenodd" clip-rule="evenodd" d="M58.9284 5.77771H57.5793C56.8889 5.77771 56.4069 6.25862 56.4069 6.94717V24.6978H50.7956C47.3246 24.6978 45.9165 24.4771 45.9165 18.9453V6.94717C45.9165 6.25862 45.4343 5.77771 44.7442 5.77771H43.4333C42.7429 5.77771 42.2227 6.28043 42.2227 6.94717V18.9453C42.2227 26.8073 45.0741 28.1908 51.0653 28.1908C53.2207 28.1908 56.1724 28.1908 58.9876 27.7945L59.0524 27.7814C59.7478 27.6077 60.1006 27.2095 60.1006 26.5982V6.94717C60.1006 6.25862 59.6183 5.77771 58.9284 5.77771Z" fill="#272727"/>
<path fill-rule="evenodd" clip-rule="evenodd" d="M38.0642 6.32706V6.32682C37.891 5.95873 37.5197 5.73901 37.0707 5.73901H35.3365C34.8329 5.73901 34.4561 5.9419 34.2577 6.30715L31.6875 10.0627L33.9377 13.1402L37.8663 7.50457C38.2975 6.98076 38.1483 6.50648 38.0642 6.32706Z" fill="#74BB11"/>
<path fill-rule="evenodd" clip-rule="evenodd" d="M24.5134 6.26472L24.511 6.26117C24.1193 5.73901 23.5978 5.73901 23.4263 5.73901H21.7301C21.2956 5.73901 20.9397 5.93858 20.7537 6.28629C20.5625 6.6423 20.6029 7.07035 20.8675 7.46665L27.1516 16.1781L19.9256 26.2569C19.673 26.6359 19.6376 27.0573 19.8284 27.413C20.0154 27.7607 20.3715 27.9598 20.8053 27.9598H22.5395C22.9854 27.9598 23.3774 27.7285 23.5736 27.3637L31.6617 16.2181L24.5134 6.26472Z" fill="#009CD9"/>
<path fill-rule="evenodd" clip-rule="evenodd" d="M38.9233 26.3449L33.8817 19.4258L31.6641 22.4831L35.6514 27.8044L35.7549 27.8497C35.9269 27.9239 36.0913 27.9597 36.2579 27.9597H37.9536C38.3631 27.9597 38.7109 27.7776 38.9079 27.4598C39.1096 27.1341 39.1153 26.7279 38.9233 26.3449Z" fill="#EB2084"/>
<path fill-rule="evenodd" clip-rule="evenodd" d="M13.2541 18.5383V24.4143C11.537 24.6776 8.92 24.7362 8.02819 24.7362C4.08224 24.7362 3.65011 23.658 3.65011 21.3684C3.65011 19.2259 4.45189 18.5383 6.94893 18.5383H13.2541ZM7.83552 5.50842C6.61634 5.50842 4.95362 5.53995 2.88515 5.78905L2.79155 5.80944C2.18885 5.98104 1.88358 6.37686 1.88358 6.98577V7.83193C1.88358 8.55318 2.33281 9.00162 3.05596 9.00162H7.83552C11.6843 9.00162 13.2541 10.044 13.2541 12.6003V15.084H6.94893C2.02089 15.084 -0.0820312 16.9633 -0.0820312 21.3684C-0.0820312 26.278 2.09454 28.191 7.68134 28.191C9.94414 28.191 14.1098 28.0151 15.6495 27.5456C16.9478 27.1853 16.9478 26.1936 16.9478 25.8677V12.3699C16.9478 7.75276 13.9671 5.50842 7.83552 5.50842Z" fill="#272727"/>
</g>
<defs>
<clipPath id="clip0">
<rect width="94.9167" height="34" fill="white"/>
</clipPath>
</defs>
</svg>
