<svg width="101" height="34" viewBox="0 0 101 34" fill="none" xmlns="http://www.w3.org/2000/svg">
<path d="M39.7891 6.39282V23.519L41.9929 23.5358V15.3765H47.3091V13.2231H41.9929V8.54621H48.9073V6.39282H39.7891V6.39282ZM52.8776 9.87526C53.6683 9.87526 54.3244 9.23597 54.3244 8.42845C54.3244 7.62093 53.6851 6.98164 52.8776 6.98164C52.0869 6.98164 51.4308 7.62093 51.4308 8.42845C51.4308 9.23597 52.0701 9.87526 52.8776 9.87526ZM51.7505 12.0286V23.5358H53.9543V12.0286H51.7505ZM62.1305 11.6922C59.2032 11.6922 57.1676 14.1652 57.1676 17.1093C57.1676 20.0534 59.2032 22.5264 62.1305 22.5264C63.4763 22.5264 64.5699 22.0217 65.3774 21.1637V22.6946C65.3942 24.5957 63.8801 26.1771 61.9622 26.1939C61.9454 26.1939 61.9454 26.1939 61.9286 26.1939C61.222 26.1939 60.5323 25.9247 59.9771 25.5378L58.8667 27.4557C61.4912 29.1548 64.9904 28.3978 66.6728 25.7733C67.2616 24.848 67.5812 23.7882 67.5812 22.6946V12.0455H65.3774V13.0717C64.5699 12.2137 63.4763 11.6922 62.1305 11.6922ZM59.3714 17.1093C59.3714 15.2756 60.7678 13.8456 62.3828 13.8456C63.9979 13.8456 65.3774 15.2924 65.3774 17.1093C65.3774 18.943 63.981 20.3562 62.3828 20.3562C60.7678 20.3562 59.3714 18.9262 59.3714 17.1093ZM75.5219 13.8456C74.2096 13.8624 73.1498 14.9391 73.1666 16.2513V23.519H70.9627V12.0118H73.1666V13.0717C73.8395 12.1801 74.8826 11.6754 76.0097 11.6922C77.5575 11.6922 78.7519 12.4492 79.4249 13.6269C80.1987 12.4324 81.511 11.709 82.9241 11.6922C85.4308 11.6922 86.9954 13.711 86.9954 16.2177V23.519H84.8083V16.2513C84.8083 14.9391 83.7653 13.8624 82.4531 13.8456C81.1409 13.8624 80.081 14.9391 80.0978 16.2513V23.519H77.8771V16.2513C77.8771 14.9391 76.8341 13.8624 75.5219 13.8456ZM98.7381 13.324C97.7287 12.2642 96.3155 11.6754 94.8519 11.6922C91.5713 11.6922 89.2497 14.468 89.2497 17.7654C89.2497 21.0796 91.5713 23.8386 94.8519 23.8386C96.3155 23.8386 97.7119 23.2498 98.7381 22.2068V23.519H100.942V12.0118H98.7381V13.324ZM91.4536 17.7654C91.4536 15.5784 93.1359 13.8287 95.1042 13.8287C97.0557 13.8456 98.7381 15.5784 98.7381 17.7654C98.7381 19.9524 97.0557 21.6852 95.0874 21.6852C93.1527 21.7021 91.4536 19.9693 91.4536 17.7654Z" fill="black"/>
<path d="M11.3203 17.0085C11.3203 13.8793 13.8606 11.339 16.9898 11.339C20.1189 11.339 22.6593 13.8793 22.6593 17.0085C22.6593 20.1376 20.1189 22.6779 16.9898 22.6779C13.8606 22.6779 11.3203 20.1376 11.3203 17.0085Z" fill="#1ABCFE"/>
<path d="M0 28.3305C0 25.2013 2.54033 22.661 5.66947 22.661H11.3389V28.3305C11.3389 31.4596 8.79861 33.9999 5.66947 33.9999C2.54033 33.9999 0 31.4596 0 28.3305Z" fill="#0ACF83"/>
<path d="M11.3203 0.0168244V11.3389H16.9898C20.1189 11.3389 22.6593 8.79861 22.6593 5.66947C22.6593 2.54033 20.1189 0 16.9898 0H11.3203V0.0168244Z" fill="#FF7262"/>
<path d="M0 5.6863C0 8.81544 2.54033 11.3558 5.66947 11.3558H11.3389V0.0336524H5.66947C2.54033 0.0168291 0 2.55715 0 5.6863Z" fill="#F24E1E"/>
<path d="M0 17.0084C0 20.1376 2.54033 22.6779 5.66947 22.6779H11.3389V11.3558H5.66947C2.54033 11.339 0 13.8793 0 17.0084Z" fill="#A259FF"/>
</svg>
