<svg width="122" height="23" viewBox="0 0 122 23" fill="none"
  xmlns="http://www.w3.org/2000/svg">
  <path d="M34.1992 17.6794C33.6292 17.8835 33.0481 18.0547 32.4585 18.1923C31.7687 18.3378 31.0654 18.4107 30.3604 18.4099C28.0291 18.4099 26.2341 17.6328 25.9389 15.7989H35.7921C35.9379 15.1064 36.0108 14.4006 36.0097 13.693C36.0097 9.4968 33.9116 5.65027 28.6197 5.65027C23.4755 5.65027 20.7246 9.71438 20.7246 14.1981C20.7246 19.4123 24.3458 22.3885 29.4901 22.3885C30.513 22.3981 31.5342 22.2992 32.5362 22.0932C33.388 21.9439 34.2162 21.6826 34.9995 21.3161L34.2224 17.6872L34.1992 17.6794ZM28.6197 9.41909C28.9649 9.42078 29.3061 9.49234 29.6229 9.62946C29.9396 9.76657 30.2253 9.96641 30.4627 10.2169C30.7002 10.4674 30.8845 10.7634 31.0045 11.087C31.1244 11.4107 31.1776 11.7553 31.1608 12.1V12.1777H25.9077C25.8889 11.8293 25.94 11.4807 26.0578 11.1522C26.1756 10.8238 26.3579 10.5223 26.5938 10.2653C26.8298 10.0083 27.1148 9.80106 27.432 9.65575C27.7492 9.51043 28.0923 9.42997 28.441 9.41909H28.6197Z" fill="#8EAAB2"/>
  <path d="M111.083 17.6794C110.515 17.8824 109.937 18.0536 109.35 18.1923C108.657 18.3334 107.952 18.4063 107.244 18.4099C104.913 18.4099 103.118 17.6328 102.823 15.7989H112.754C112.9 15.1064 112.972 14.4006 112.971 13.693C112.971 9.4968 110.865 5.65027 105.581 5.65027C100.437 5.65027 97.6785 9.71438 97.6785 14.1981C97.6785 19.4123 101.3 22.3885 106.452 22.3885C107.472 22.3981 108.491 22.2991 109.49 22.0932C110.342 21.9451 111.171 21.6837 111.953 21.3161L111.083 17.6872V17.6794ZM105.434 9.41909C105.777 9.42711 106.115 9.50302 106.428 9.64242C106.741 9.78182 107.024 9.98195 107.259 10.2312C107.495 10.4805 107.679 10.774 107.8 11.0948C107.922 11.4156 107.978 11.7572 107.967 12.1V12.1777H102.683C102.664 11.8293 102.715 11.4807 102.833 11.1522C102.951 10.8238 103.133 10.5223 103.369 10.2653C103.605 10.0083 103.89 9.80106 104.207 9.65575C104.524 9.51043 104.867 9.42997 105.216 9.41909H105.434Z" fill="#8EAAB2"/>
  <path d="M38.4731 0.366089V22.1009H43.8427V0.366089H38.4731Z" fill="#8EAAB2"/>
  <path d="M54.5663 22.466C58.7703 22.466 62.9665 19.8551 62.9665 13.9182C62.9665 10.4447 60.8684 5.7356 54.7839 5.7356C48.4741 5.7356 46.2361 10.297 46.2361 14.2135C46.306 19.0625 49.7096 22.466 54.5663 22.466ZM54.6362 18.4796C52.8956 18.4796 51.7378 16.739 51.7378 14.128C51.7378 12.0299 52.5148 9.71423 54.6362 9.71423C56.7576 9.71423 57.4648 12.0455 57.4648 14.0581C57.4648 16.739 56.2992 18.4796 54.6362 18.4796Z" fill="#8EAAB2"/>
  <path d="M65.3599 6.01514V22.1006H70.7217V6.01514H65.3599Z" fill="#8EAAB2"/>
  <path d="M65.3599 0.366089V4.49236H70.7217V0.366089H65.3599Z" fill="#8EAAB2"/>
  <path d="M74.9256 1.6636V6.01523H72.8975V10.0016H74.9256V16.5912C74.9256 20.2202 76.5963 22.396 80.3652 22.396C81.1214 22.3929 81.8758 22.3201 82.6187 22.1784C83.1429 22.1155 83.6621 22.0168 84.1728 21.8831L84.1029 17.6791C83.5054 17.8116 82.901 17.9101 82.2924 17.9744C82.0117 18.0061 81.7274 17.9767 81.4591 17.8881C81.1909 17.7996 80.945 17.6541 80.7382 17.4616C80.3351 16.977 80.1297 16.3581 80.1631 15.7287V10.1026H83.6367V6.01523H80.1631V1.08856L74.9412 1.6636H74.9256Z" fill="#8EAAB2"/>
  <path d="M87.39 1.6636V6.01523H85.3618V10.0016H87.39V16.5912C87.39 20.2202 89.0607 22.396 92.8295 22.396C93.5858 22.3929 94.3402 22.3201 95.083 22.1784C95.6072 22.1155 96.1265 22.0168 96.6372 21.8831L96.5673 17.6791C95.9697 17.8109 95.3652 17.9095 94.7566 17.9744C94.4759 18.0061 94.1917 17.9767 93.9234 17.8881C93.6551 17.7996 93.4092 17.6541 93.2025 17.4616C92.9876 17.2308 92.8244 16.9569 92.7239 16.6581C92.6234 16.3592 92.5879 16.0424 92.6197 15.7287V10.1026H96.101V6.01523H92.6197V1.08856L87.4055 1.6636H87.39Z" fill="#8EAAB2"/>
  <path d="M115.217 19.4897C115.217 18.9008 115.392 18.325 115.719 17.8354C116.047 17.3458 116.512 16.9644 117.056 16.7394C117.6 16.5143 118.199 16.4558 118.777 16.5713C119.354 16.6868 119.885 16.971 120.301 17.388C120.717 17.805 120.999 18.3361 121.113 18.9139C121.227 19.4917 121.167 20.0904 120.941 20.6341C120.714 21.1778 120.332 21.6421 119.841 21.9681C119.351 22.2942 118.775 22.4675 118.186 22.4659C117.398 22.4618 116.644 22.1467 116.088 21.5892C115.532 21.0318 115.219 20.2771 115.217 19.4897Z" fill="#8EAAB2"/>
  <path d="M7.82512 17.7573H5.29184V4.42269C5.89359 4.36565 6.49813 4.34231 7.10249 4.35275C10.2108 4.35275 13.5522 6.38092 13.5522 11.0123C13.6221 15.9467 10.506 17.5397 7.82512 17.7573ZM0 22.1012H7.39C15.7203 21.666 19.1316 16.7394 19.1316 11.09C19.1316 3.98753 14.3448 0.00112695 6.08447 0.00112695C4.05263 -0.0116563 2.02159 0.0843203 0 0.288645V22.1012Z" fill="#8EAAB2"/>
</svg>
