<svg width="149" height="34" viewBox="0 0 149 34" fill="none" xmlns="http://www.w3.org/2000/svg">
<path fill-rule="evenodd" clip-rule="evenodd" d="M50.2038 22.1555L50.1749 21.7763H46.9805L46.9983 22.2028C47.1947 26.948 50.4262 30.0923 56.1725 30.0923C61.6535 30.0923 65.3809 27.2725 65.3809 23.004C65.3809 20.6964 64.5723 19.063 63.0314 17.9484C61.8455 17.0902 60.4291 16.6061 58.0788 16.102L57.5622 15.9926L57.0501 15.8862C52.7809 15.0014 51.4275 14.2305 51.4275 11.9392C51.4275 9.56883 53.3842 8.05952 56.6676 8.05952C59.8621 8.05952 61.8803 9.99087 61.9745 13.0317L61.9871 13.4286H65.1586L65.1489 13.0102C65.0385 8.27018 61.827 5.08009 56.6358 5.08009C51.5476 5.08009 48.1878 8.112 48.1878 12.0368C48.1878 14.3384 48.9957 15.9409 50.5389 17.0111C51.7144 17.8271 53.0766 18.2603 55.4795 18.7407C55.7249 18.79 55.9705 18.8383 56.2163 18.8856C58.4895 19.3305 59.4923 19.6055 60.4076 20.1325C61.5438 20.7866 62.1071 21.7209 62.1071 23.1681C62.1071 25.6811 59.974 27.1128 56.2385 27.1128C52.6631 27.1128 50.444 25.3374 50.2038 22.1555V22.1555ZM72.0567 4.70831V4.29883H68.9045V29.7013H72.0567V24.908L75.3757 21.6824L81.3021 29.5379L81.4251 29.7005H85.3467L84.8464 29.0434L77.6088 19.5286L84.2839 12.8986L84.988 12.1979H80.704L80.5832 12.3191L72.0567 20.8894V4.70831V4.70831ZM101.733 21.9944H102.122L102.147 21.6085C102.16 21.4002 102.17 21.1918 102.177 20.9832C102.18 20.8768 102.181 20.78 102.181 20.6942C102.181 15.5292 98.7383 11.7241 93.6508 11.7241C88.573 11.7241 84.9554 15.7746 84.9554 20.8916C84.9554 26.1571 88.4092 30.0923 93.6842 30.0923C97.6725 30.0923 100.754 27.7404 101.865 24.1733L102.031 23.6404H98.7249L98.6271 23.9139C97.9304 25.8667 96.0426 27.1624 93.7168 27.1624C90.678 27.1624 88.5582 25.0876 88.1765 21.9944H101.734H101.733ZM88.0868 19.5404C88.619 16.7214 90.6491 14.8507 93.4129 14.8507C96.2613 14.8507 98.2276 16.66 98.6575 19.5404H88.0876H88.0868ZM112.341 14.949H112.751V12.1684H108.909V7.42535H105.757V12.1684H102.572V14.949H105.757V24.7454C105.757 27.9591 107.431 29.7013 110.502 29.7013C111.038 29.7013 111.501 29.6695 111.888 29.6155C112.128 29.5823 112.294 29.5475 112.385 29.5224L112.686 29.4396V26.5282L112.188 26.6354C112.042 26.6648 111.895 26.6905 111.747 26.7122C111.433 26.7598 111.116 26.7857 110.798 26.7898C109.452 26.7898 108.909 26.1601 108.909 24.582V14.949H112.341V14.949ZM122.119 30.0923C126.448 30.0923 129.505 27.3242 130.272 23.4076L130.369 22.916H127.214L127.133 23.222C126.476 25.721 124.691 27.1616 122.119 27.1616C118.909 27.1616 116.695 24.6042 116.695 20.9248C116.695 17.2166 118.905 14.654 122.119 14.654C124.691 14.654 126.476 16.0954 127.133 18.5944L127.214 18.9004H130.369L130.272 18.4088C129.505 14.4914 126.448 11.7241 122.119 11.7241C117.09 11.7241 113.534 15.8034 113.534 20.9248C113.534 26.0174 117.095 30.0923 122.119 30.0923V30.0923ZM136.254 4.70757V4.29883H133.109V29.7013H136.254V19.4251C136.254 16.4198 138.084 14.6563 140.859 14.6563C143.509 14.6563 144.84 16.1914 144.84 19.0977V29.7013H147.986V18.638C147.986 14.5321 145.444 11.804 141.252 11.804C139.095 11.804 137.362 12.5948 136.254 13.7287V4.70831V4.70757Z" fill="black"/>
<path fill-rule="evenodd" clip-rule="evenodd" d="M8.19963 1.10648L18.791 0L29.3832 1.10648L37.5836 11.9843L18.7918 33.609L0 11.9843L8.19963 1.10648Z" fill="#FDB300"/>
<path fill-rule="evenodd" clip-rule="evenodd" d="M7.61188 12.1151L18.7918 33.609L0 12.1151H7.61188Z" fill="#EA6C00"/>
<path fill-rule="evenodd" clip-rule="evenodd" d="M29.9748 12.1151L18.7941 33.609L37.5859 12.1151H29.9748Z" fill="#EA6C00"/>
<path fill-rule="evenodd" clip-rule="evenodd" d="M7.44141 12.1151H29.7567L18.5991 33.609L7.44141 12.1151Z" fill="#FDAD00"/>
<path fill-rule="evenodd" clip-rule="evenodd" d="M18.4034 0L8.01804 1.1183L7.44141 12.1151L18.4034 0Z" fill="#FDD231"/>
<path fill-rule="evenodd" clip-rule="evenodd" d="M18.788 0L29.1734 1.1183L29.75 12.1151L18.788 0Z" fill="#FDD231"/>
<path fill-rule="evenodd" clip-rule="evenodd" d="M37.5859 12.1149L29.3641 1.17212L29.954 12.1149H37.5859Z" fill="#FDAD00"/>
<path fill-rule="evenodd" clip-rule="evenodd" d="M0 12.1152L8.22113 1.17236L7.63115 12.1152H0Z" fill="#FDAD00"/>
<path fill-rule="evenodd" clip-rule="evenodd" d="M18.5991 0L7.44141 12.1151H29.7567L18.5991 0Z" fill="#FEEEB7"/>
</svg>
