<svg width="147" height="34" viewBox="0 0 147 34" fill="none" xmlns="http://www.w3.org/2000/svg">
<path d="M146.552 22.5201H143.914V25.1581H146.552V22.5201Z" fill="#FF3366"/>
<path d="M1.07471 25.1824H0V9.47693H1.07471V25.1824Z" fill="#17191D"/>
<path d="M6.01122 15.852C6.35318 15.217 7.45232 13.7759 9.82157 13.7759C12.6061 13.7759 14.0716 15.5834 14.0716 18.0015V25.1825H13.0213V18.2946C13.0213 16.0474 11.971 14.6796 9.72387 14.6796C7.721 14.6796 6.01122 15.9497 6.01122 18.4411V25.1581H4.96094V13.9957H6.01122V15.852Z" fill="#17191D"/>
<path d="M28.82 9.47693L22.3717 25.1824H21.1748L14.7266 9.47693H15.9478L21.761 23.8879H21.8099L27.6231 9.47693H28.82Z" fill="#17191D"/>
<path d="M30.2148 9.99002C30.2148 9.47709 30.5568 9.13513 31.0697 9.13513C31.5582 9.13513 31.9246 9.47709 31.9246 9.99002C31.9246 10.4785 31.5582 10.8205 31.0697 10.8205C30.5568 10.8205 30.2148 10.4785 30.2148 9.99002ZM30.5324 14.0446H31.5827V25.207H30.5324V14.0446Z" fill="#17191D"/>
<path d="M34.6602 21.7385H35.7104C35.8326 23.3995 37.2492 24.4742 39.2277 24.4742C41.3038 24.4742 42.4763 23.5704 42.4763 22.2515C42.4763 18.7831 35.3929 21.3233 35.3929 16.9023C35.3929 15.2903 36.9073 13.7515 39.4475 13.7515C42.0122 13.7515 43.38 15.3391 43.5265 17.1954H42.4763C42.3541 15.852 41.3527 14.7285 39.4475 14.7285C37.4691 14.7285 36.4432 15.6811 36.4432 16.8779C36.4432 20.3707 43.551 17.6839 43.551 22.2515C43.551 24.0834 41.8168 25.4268 39.2277 25.4268C36.2478 25.4512 34.7823 23.717 34.6602 21.7385Z" fill="#17191D"/>
<path d="M46.3359 9.99002C46.3359 9.47709 46.6779 9.13513 47.1908 9.13513C47.6793 9.13513 48.0457 9.47709 48.0457 9.99002C48.0457 10.4785 47.6793 10.8205 47.1908 10.8205C46.7023 10.8205 46.3359 10.4785 46.3359 9.99002ZM46.6779 14.0446H47.7282V25.207H46.6779V14.0446Z" fill="#17191D"/>
<path d="M50.6094 19.6135C50.6094 16.5848 52.7344 13.7759 56.2272 13.7759C59.72 13.7759 61.845 16.5848 61.845 19.6135C61.845 22.6423 59.72 25.4512 56.2272 25.4512C52.7344 25.4512 50.6094 22.6423 50.6094 19.6135ZM56.2272 24.4986C59.0117 24.4986 60.7947 22.3003 60.7947 19.6135C60.7947 16.9267 59.0361 14.7285 56.2272 14.7285C53.4427 14.7285 51.6597 16.9267 51.6597 19.6135C51.6597 22.3003 53.4427 24.4986 56.2272 24.4986Z" fill="#17191D"/>
<path d="M65.5581 15.852C65.9001 15.217 66.9992 13.7759 69.3684 13.7759C72.1529 13.7759 73.6184 15.5834 73.6184 18.0015V25.1825H72.5682V18.2946C72.5682 16.0474 71.5179 14.6796 69.2707 14.6796C67.2679 14.6796 65.5581 15.9497 65.5581 18.4411V25.1581H64.5078V13.9957H65.5581V15.852Z" fill="#17191D"/>
<path d="M87.8803 20.8837C87.8803 17.0489 79.0872 20.0532 79.0872 13.7759C79.0872 11.2846 81.2122 9.13513 84.705 9.13513C88.3932 9.13513 90.3473 11.3823 90.4205 14.3377H87.7826C87.7582 12.7989 86.7323 11.5532 84.705 11.5532C82.8731 11.5532 81.7496 12.3348 81.7496 13.7271C81.7496 17.1711 90.5915 14.5087 90.5915 20.786C90.5915 23.6438 88.1246 25.5001 84.3631 25.5001C80.1863 25.5001 78.5743 22.8377 78.4766 20.2731H81.1389C81.261 21.9584 82.3846 23.082 84.5096 23.082C86.6346 23.082 87.8803 22.3004 87.8803 20.8837Z" fill="#17191D"/>
<path d="M96.3848 25.1824H93.7469V15.8031H91.9883V13.7025H93.7469V10.7227H96.3848V13.7025H98.3144V15.8031H96.3848V25.1824Z" fill="#17191D"/>
<path d="M107.47 20.444V13.7026H110.108V20.3219C110.108 23.2529 108.765 25.4512 105.052 25.4512C101.339 25.4512 99.9961 23.2529 99.9961 20.3219V13.7026H102.634V20.444C102.634 22.2271 103.464 23.1308 105.077 23.1308C106.64 23.1308 107.47 22.2515 107.47 20.444Z" fill="#17191D"/>
<path d="M120.832 8.59766H123.47V25.1824H121.028V23.5459C120.295 24.7428 118.952 25.4511 117.144 25.4511C113.749 25.4511 111.844 22.7399 111.844 19.4425C111.844 16.1451 113.773 13.4339 117.144 13.4339C118.927 13.4339 120.173 14.2399 120.808 15.1925V8.59766H120.832ZM117.706 15.7543C115.703 15.7543 114.482 17.3419 114.482 19.4425C114.482 21.4942 115.727 23.1063 117.706 23.1063C119.709 23.1063 120.93 21.4942 120.93 19.4425C120.93 17.3419 119.709 15.7543 117.706 15.7543Z" fill="#17191D"/>
<path d="M125.668 10.1609C125.668 9.18391 126.352 8.5 127.329 8.5C128.281 8.5 128.965 9.18391 128.965 10.1609C128.965 11.1135 128.281 11.773 127.329 11.773C126.352 11.773 125.668 11.1135 125.668 10.1609ZM126.01 13.7026H128.648V25.1825H126.01V13.7026Z" fill="#17191D"/>
<path d="M130.406 19.467C130.406 16.2429 132.702 13.4584 136.366 13.4584C140.03 13.4584 142.35 16.2429 142.35 19.467C142.35 22.6911 140.054 25.4756 136.366 25.4756C132.702 25.4512 130.406 22.6911 130.406 19.467ZM136.366 23.1308C138.296 23.1308 139.712 21.6653 139.712 19.467C139.712 17.2199 138.296 15.7788 136.366 15.7788C134.461 15.7788 133.044 17.2443 133.044 19.467C133.044 21.6653 134.461 23.1308 136.366 23.1308Z" fill="#17191D"/>
</svg>
