<svg width="83" height="33" viewBox="0 0 83 33" fill="none"
  xmlns="http://www.w3.org/2000/svg">
  <path fill-rule="evenodd" clip-rule="evenodd" d="M0 0H16.0582V2.25772H0V0ZM16.0589 4.39095H0.000671382V6.6487H16.0589V4.39095ZM11.5698 8.78178H4.61541V11.0427H11.5698V8.78178ZM22.9488 8.78178H29.9032V11.0427H22.9488V8.78178ZM22.9488 13.1759V15.4336H40.7118C40.7118 15.4336 42.1977 14.2752 42.6711 13.1759H22.9488ZM11.5698 13.1759H4.61541V15.4336H11.5698V13.1759ZM4.61541 21.9574H11.5698V24.2151H4.61541V21.9574ZM29.9032 21.9574H22.9488V24.2151H29.9032V21.9574ZM4.61541 17.5666H11.5698V19.8243H4.61541V17.5666ZM50.3216 11.0427H62.6513L61.8295 8.78178H50.3216V11.0427ZM22.9488 17.5666H40.7118C40.7118 17.5666 42.1977 18.7287 42.6711 19.8243H22.9488V17.5666ZM82.3736 4.39419H67.8332L67.0727 6.64878H82.3736V4.39419ZM0.126332 30.7423H16.1845V33.0001H0.126332V30.7423ZM82.3736 0.000223794H69.4768L68.655 2.25795H82.3736V0.000223794ZM66.3186 8.78178H77.8845V11.0427H65.4936L66.3186 8.78178ZM43.0546 4.39419H18.3341V6.64878H43.8732L43.8732 6.64871C43.871 6.63627 43.5731 4.90929 43.0546 4.39419ZM45.7069 0.000223794H58.7294L59.5511 2.25795H45.7069V0.000223794ZM35.7845 0.000223794H18.3341V2.25795H41.2178C41.2178 2.25795 38.8804 0.000223794 35.7845 0.000223794ZM77.8845 15.4336H70.9302V14.1768L70.4565 15.4336H57.7175L57.276 14.1768V15.4336H50.3216V13.1759H63.4408L64.1369 15.0882L64.8297 13.1759H77.8845V15.4336ZM57.276 17.5666H50.3216V19.8243H57.276V17.5666ZM67.337 24.2151H60.9337L60.1184 21.9574H68.1588L67.337 24.2151ZM59.3804 19.8243H68.9322L69.7314 17.5666H58.5393L59.3804 19.8243ZM0.126332 26.3483H16.1845V28.6092H0.126332V26.3483ZM62.5385 28.6092H65.7965L66.5828 26.3483H61.7006L62.5385 28.6092ZM70.9302 17.5666H77.8846V19.8243H70.9302V17.5666ZM82.4994 30.7423H70.9302V33.0001H82.4994V30.7423ZM70.9302 26.3483H82.4994V28.6092H70.9302V26.3483ZM77.8846 21.9574H70.9302V24.2151H77.8846V21.9574ZM64.2336 32.9969L64.095 32.9937L63.2894 30.7423H65.0522L64.2336 32.9969ZM36.6675 21.9574V24.2151H44.0633C44.0633 23.1496 43.6218 21.9574 43.6218 21.9574H36.6675ZM18.3341 28.6092V26.3483H43.8732C43.8732 26.3483 43.575 28.0916 43.0546 28.6092H18.3341ZM18.3341 32.9969H35.7845C38.8804 32.9969 41.2178 30.7423 41.2178 30.7423H18.3341V32.9969ZM43.6219 11.0427H36.6675V8.78178H44.0634C44.0634 9.84875 43.6219 11.0427 43.6219 11.0427ZM60.3085 4.39419H45.7069V4.39423V6.64881H61.069L60.3085 4.39419ZM45.8325 26.3483H57.276V28.6092H45.8325V26.3483ZM57.276 30.7423H45.8325V33.0001H57.276V30.7423ZM50.3216 21.9574H57.276V24.2151H50.3216V21.9574Z" fill="#1F70C1"/>
</svg>
