<svg xmlns="http://www.w3.org/2000/svg" width="299.8673" height="108.5778" viewBox="0 0 299.8673 108.5778"><g id="Layer_2" data-name="Layer 2"><g id="Layer_1-2" data-name="Layer 1"><path d="M90.2717,87.0969,70.79,54.2954,90.2717,21.4809l9.4071,32.8145ZM46.8517,83.95,22.3481,59.6226H61.303L80.7775,92.43Zm0-59.3165,33.9258-8.48L61.303,48.9622H22.3481ZM96.6981,0,52.347,11.5567,45.7835,22.8212l-13.32-.097L0,54.2954,32.4635,85.8606l13.313-.097L52.355,97.0212l44.3431,11.5566,11.88-43.1148-6.7495-11.1676,6.7495-11.1665Z"/><path d="M197.2979,31.99c-5.9274,0-9.9053,2.4556-12.869,7.1117h-.2541V33.175H173.8025V76.6059h10.6264V51.9693c0-5.9264,3.7248-9.9893,8.805-9.9893,4.8251,0,8.4219,2.8607,8.4219,7.9578V76.6059h10.6264V48.2444c0-9.4821-6.0113-16.2547-14.9843-16.2547"/><path d="M157.6388,58.2143c0,5.7574-3.3018,9.82-8.72,9.82-4.9112,0-7.9989-2.7937-7.9989-7.8728V33.1546H130.2935V62.1082c0,9.4822,5.4173,15.6626,15.07,15.6626,6.0954,0,9.4821-2.2855,12.4448-6.2644h.2541v5.0791h10.2153V33.1546H157.6388Z"/><rect x="217.853" y="33.1751" width="10.6265" height="43.4309"/><rect x="217.853" y="19.629" width="10.6265" height="8.7297"/><path d="M288.5367,33.1747l-6.3134,19.5565c-1.3543,3.9789-2.54,9.4822-2.54,9.4822h-.2691s-1.4393-5.5033-2.7946-9.4822l-7.13-19.5565H258.13l11.6836,30.9011c2.4546,6.6035,3.3008,9.3971,3.3008,11.7677,0,3.5558-1.8624,5.9263-6.4335,5.9263h-4.0639v9.0591h6.7726c8.805,0,11.8616-3.4718,15.1634-13.123l15.3145-44.5312Z"/><path d="M248.2787,63.8221V40.7949h6.7725v-7.62h-6.7725V19.629H237.7253V33.1751h-6.0105v7.62h6.0105V66.2767c0,8.2128,6.18,10.4133,11.7686,10.4133a55.3853,55.3853,0,0,0,5.8114-.169V68.1251s-1.27.015-2.71.015c-2.54,0-4.317-1.1013-4.317-4.318"/></g></g></svg>