<svg width="143" height="27" viewBox="0 0 143 27" fill="none"
  xmlns="http://www.w3.org/2000/svg">
  <path d="M142.827 19.6092C142.838 19.7882 142.815 19.9678 142.757 20.1376C142.697 20.2845 142.61 20.4189 142.5 20.5339C142.383 20.6429 142.249 20.7322 142.104 20.7981C141.957 20.8491 141.801 20.8702 141.645 20.8603C141.487 20.8754 141.328 20.8541 141.179 20.7981C141.036 20.7319 140.905 20.6427 140.791 20.5339C140.679 20.4191 140.59 20.2848 140.527 20.1376C140.469 19.9919 140.445 19.8352 140.456 19.6791C140.445 19.5001 140.469 19.3206 140.527 19.1507C140.59 19.0035 140.679 18.8692 140.791 18.7544C140.903 18.6452 141.035 18.5582 141.179 18.498C141.328 18.4406 141.487 18.4167 141.645 18.428C141.802 18.4168 141.958 18.4407 142.104 18.498C142.253 18.5545 142.388 18.6419 142.5 18.7544C142.613 18.8669 142.7 19.002 142.757 19.1507C142.814 19.2964 142.838 19.4531 142.827 19.6092ZM142.562 19.6092C142.572 19.4766 142.551 19.3436 142.5 19.2206C142.43 19.0885 142.368 19.0186 142.298 18.8865C142.228 18.7544 142.104 18.7544 142.034 18.6922C141.913 18.6359 141.779 18.6118 141.645 18.6223C141.509 18.6104 141.373 18.6345 141.249 18.6922C141.149 18.7395 141.06 18.8054 140.985 18.8865C140.907 18.9894 140.841 19.1016 140.791 19.2206C140.734 19.342 140.71 19.4758 140.721 19.6092C140.715 19.7411 140.735 19.873 140.78 19.9971C140.826 20.1212 140.895 20.235 140.985 20.3319C141.047 20.4018 141.179 20.5339 141.249 20.5339C141.375 20.5847 141.51 20.6059 141.645 20.5961C141.778 20.6058 141.911 20.5846 142.034 20.5339C142.134 20.4843 142.224 20.4157 142.298 20.3319C142.381 20.2335 142.449 20.1235 142.5 20.0055C142.551 19.8799 142.572 19.7443 142.562 19.6092ZM141.381 20.3319H141.179V19.0186H141.708C141.844 19.0067 141.98 19.0308 142.104 19.0885C142.186 19.178 142.233 19.2938 142.236 19.4149C142.236 19.547 142.236 19.6092 142.104 19.6791C141.972 19.7491 141.972 19.7413 141.84 19.8112L142.236 20.4018H141.972L141.645 19.8112H141.443L141.381 20.3319ZM141.645 19.5548H141.84L141.902 19.4848V19.1973L141.84 19.1274H141.381V19.5237L141.645 19.5548Z" fill="#8EAAB2"/>
  <path fill-rule="evenodd" clip-rule="evenodd" d="M0.132446 0.213989H6.4423V8.69966H11.3767V0.213989H17.6244V20.6666H11.3767V11.264H6.38017V20.5345H0.132446V0.213989Z" fill="#8EAAB2"/>
  <path d="M17.6863 20.7991H11.2443V11.4275H6.5119V20.667H0V0.152151H6.57413V8.63005H11.2366V0.0822144H17.6785L17.6863 20.7991ZM11.4697 20.5349H17.4532V0.330879H11.4697V8.83209H6.34097V0.34642H0.295293V20.4028H6.27884V11.1322H11.4697V20.5349Z" fill="#8EAAB2"/>
  <path fill-rule="evenodd" clip-rule="evenodd" d="M27.5552 5.21009C28.8051 5.15664 30.054 5.33581 31.2385 5.73851C32.9527 6.26909 34.3916 7.44869 35.2481 9.02554C35.8097 10.114 36.1403 11.3067 36.2192 12.5289C36.2981 13.7511 36.1236 14.9764 35.7067 16.128C35.4127 16.9997 34.9469 17.8037 34.3369 18.4924C33.727 19.1811 32.9852 19.7405 32.1554 20.1377C30.78 20.7826 29.2662 21.0763 27.7494 20.9925C25.8977 21.0411 24.0789 20.4966 22.5585 19.4384C21.1768 18.4455 20.1781 17.0079 19.73 15.3665C19.2637 13.6569 19.0073 10.6341 20.849 8.264C21.4589 7.44344 22.2269 6.75326 23.1078 6.23411C23.9886 5.71496 24.9644 5.37736 25.9777 5.24118C26.4362 5.28003 26.9568 5.21009 27.5552 5.21009ZM29.6532 8.62923C29.9181 9.43677 30.0519 10.2815 30.0496 11.1314V15.9959C30.0328 17.1261 29.5853 18.2073 28.7985 19.0187C27.9437 19.7414 27.0267 19.415 26.3662 18.4981C25.7057 17.5811 25.5891 16.7186 25.5891 14.0921C25.5891 11.4656 25.5192 9.68605 25.9855 8.65254C26.4517 7.61903 26.9646 7.14501 27.4308 7.09839C28.4799 6.83418 29.2025 7.4947 29.661 8.65254" fill="#8EAAB2"/>
  <path d="M27.7494 21.1869C26.7625 21.1869 24.1981 21.0626 22.4263 19.6794C21.0256 18.6604 20.0054 17.2026 19.5279 15.5375C19.2637 14.5507 18.611 11.0616 20.6469 8.30297C21.9017 6.62142 23.7703 5.50413 25.8455 5.19466C26.3891 5.11947 26.9365 5.07537 27.4851 5.06256V5.1325C28.7573 5.0797 30.0287 5.25605 31.2385 5.65314C32.9528 6.25044 34.3971 7.44112 35.3103 9.01011C35.8714 10.1225 36.2013 11.3371 36.2801 12.5805C36.3589 13.8239 36.1849 15.0703 35.7688 16.2447C35.1567 18.0105 33.8838 19.4701 32.2176 20.3166C30.8218 20.9677 29.2875 21.2665 27.7494 21.1869ZM27.4152 5.34231C26.8949 5.35377 26.3758 5.39789 25.8611 5.47441C24.862 5.60207 23.899 5.9301 23.0297 6.43883C22.1605 6.94757 21.4029 7.62654 20.8023 8.43507C18.8285 11.0616 19.4813 14.4807 19.7455 15.4676C20.1935 17.0758 21.1674 18.4876 22.5118 19.4773C24.1514 20.7984 26.6537 21.0315 27.6406 21.0315C29.1327 21.0869 30.6172 20.7943 31.9766 20.1767C32.7806 19.7794 33.4972 19.2255 34.0843 18.5477C34.6714 17.8698 35.1173 17.0816 35.3958 16.2291C35.7995 15.0936 35.9671 13.8876 35.8883 12.685C35.8095 11.4824 35.4859 10.3086 34.9373 9.23546C34.1059 7.66254 32.6872 6.48129 30.9897 5.94843C29.8222 5.577 28.6012 5.40108 27.3763 5.42779L27.4152 5.34231ZM27.8037 19.5473H27.6095C27.3406 19.4869 27.0862 19.3742 26.8609 19.2155C26.6355 19.0569 26.4437 18.8554 26.2963 18.6225C25.7057 17.7056 25.4415 16.913 25.5192 14.1544V12.507C25.5192 10.7352 25.5191 9.39865 25.9154 8.56718C26.3739 7.58029 26.9023 7.01302 27.4696 6.91977C28.4564 6.72551 29.3113 7.31608 29.8397 8.62934C30.1046 9.43689 30.2384 10.2817 30.236 11.1315V16.0893C30.212 17.2433 29.7671 18.3487 28.9849 19.1976C28.6365 19.4265 28.2285 19.5481 27.8115 19.5473H27.8037ZM27.8037 7.11404H27.4773C27.0189 7.17621 26.5605 7.70462 26.0942 8.62157C25.7057 9.39865 25.7057 10.6653 25.7057 12.437V14.0844C25.6357 16.7809 25.8999 17.5657 26.4828 18.4205C26.6089 18.6392 26.7802 18.8285 26.9852 18.9759C27.1902 19.1232 27.4241 19.2253 27.6716 19.2753C27.8598 19.3086 28.0533 19.2964 28.2358 19.2396C28.4183 19.1828 28.5847 19.0831 28.7207 18.9489C29.6377 18.1718 29.8396 16.5167 29.9018 15.9883C29.964 15.4598 29.9717 13.0975 29.9018 11.1238C29.9037 10.3177 29.7724 9.51692 29.5133 8.75367C29.1791 7.9766 28.6585 7.11404 27.796 7.11404H27.8037Z" fill="#8EAAB2"/>
  <path fill-rule="evenodd" clip-rule="evenodd" d="M43.7339 9.87295V20.5344H37.8825V5.76998H43.7339V7.74376C44.2447 7.02335 44.9218 6.43688 45.7077 6.03419C46.5274 5.61274 47.4296 5.37622 48.3506 5.34131C49.2717 5.30641 50.1892 5.47395 51.0385 5.83215C51.7346 6.12849 52.3357 6.61087 52.7757 7.22635C53.2157 7.84184 53.4777 8.56664 53.5328 9.32122V20.5966H47.7514V10.2071C47.7959 9.64895 47.6295 9.09442 47.2851 8.65294C47.0023 8.40024 46.6458 8.24498 46.2681 8.21001C45.8905 8.17504 45.5115 8.2622 45.187 8.45867C44.4566 8.91714 43.6329 9.77193 43.7339 9.90403" fill="#8EAAB2"/>
  <path d="M43.8582 20.6662H37.7426V5.6065H43.8582V7.37824C44.3437 6.76097 44.949 6.24819 45.6376 5.87071C46.4776 5.45152 47.3975 5.21663 48.3356 5.18179C49.2737 5.14694 50.2084 5.31294 51.0772 5.66867C51.7982 5.97531 52.4199 6.47632 52.8727 7.11575C53.3256 7.75519 53.5917 8.5079 53.6416 9.28985V20.6662H47.6581V10.2068C47.6839 9.94737 47.6564 9.68542 47.5776 9.43692C47.4988 9.18842 47.3701 8.95859 47.1996 8.76143C46.9381 8.53927 46.6154 8.40175 46.274 8.36706C45.9327 8.33237 45.5888 8.40215 45.288 8.56716C44.7205 8.8734 44.2271 9.30048 43.8426 9.81826L43.8582 20.6662ZM38.0068 20.4642H43.5939V9.87265C43.9707 9.23037 44.5058 8.69531 45.1481 8.3185C45.4991 8.118 45.9053 8.03546 46.3068 8.08302C46.7082 8.13058 47.0838 8.30573 47.3783 8.58271C47.7478 9.04989 47.9356 9.63515 47.9067 10.2301V20.4642H53.4317V9.28985C53.408 8.55137 53.1636 7.83693 52.7301 7.23861C52.2966 6.64029 51.6938 6.18551 50.9995 5.93288C50.1549 5.60725 49.2528 5.45723 48.3483 5.49197C47.4438 5.5267 46.5558 5.74548 45.7387 6.13492C45.0011 6.55219 44.3518 7.10909 43.8271 7.77455L43.695 7.90665H43.5629V5.93288H37.9135L38.0068 20.4642Z" fill="#8EAAB2"/>
  <path fill-rule="evenodd" clip-rule="evenodd" d="M61.4201 12.0485C61.3967 11.1037 61.4409 10.1584 61.5523 9.2199C61.6814 8.435 62.0732 7.7172 62.6634 7.18396C63.0178 6.95098 63.44 6.84351 63.8626 6.87873C64.2852 6.91394 64.6838 7.08981 64.9947 7.37823C65.374 7.77385 65.6652 8.24523 65.8494 8.76142C66.0023 9.40904 66.0908 10.0702 66.1137 10.7352V12.0485H61.4201ZM56.2214 9.28984C57.4026 6.91975 60.3633 5.07808 63.9922 5.28012C67.6211 5.48216 69.7736 6.78765 70.9859 9.2199C71.6862 10.7445 72.0037 12.417 71.9107 14.0922H61.389V17.115C61.4564 17.4338 61.5662 17.7422 61.7154 18.0319C61.9796 18.3661 62.8966 19.5861 65.7951 19.1509C68.95 18.6225 68.9033 16.3923 68.9499 16.3923H71.4444C71.4049 17.3226 71.0327 18.2078 70.3954 18.8867C69.0303 20.1383 67.3018 20.9222 65.4609 21.1247C63.4249 21.319 60.4643 21.3889 58.102 19.4151C56.9739 18.4816 56.1288 17.2517 55.662 15.8639C55.0758 13.6771 55.2625 11.355 56.1904 9.28984" fill="#8EAAB2"/>
  <path d="M63.6504 21.2567C61.6287 21.3232 59.649 20.6706 58.0632 19.415C56.9199 18.4712 56.0751 17.216 55.631 15.8016C54.9826 13.5975 55.1707 11.2315 56.1594 9.15759C56.9506 7.79843 58.1127 6.69285 59.5095 5.97033C60.9064 5.2478 62.4802 4.93826 64.0467 5.07794C67.5979 5.27998 69.8359 6.5233 71.2191 9.15759C71.9454 10.7178 72.261 12.4377 72.1361 14.1542V14.2164H61.6067V17.1149C61.6495 17.4208 61.7611 17.713 61.9331 17.9696C62.8578 19.2207 64.5673 19.2207 65.8806 19.0187C67.1938 18.8166 68.647 18.2416 68.9034 16.4543C68.9034 16.3222 68.9035 16.2601 69.0356 16.2601H71.7087V16.3922C71.6557 17.3536 71.2585 18.2638 70.5897 18.9565C69.1819 20.2211 67.4066 21.0026 65.5232 21.1867C64.9009 21.2475 64.2755 21.2709 63.6504 21.2567ZM56.3536 9.28969C55.3944 11.2998 55.2064 13.5921 55.8253 15.7317C56.2587 17.0908 57.0667 18.3001 58.1565 19.2207C60.4877 21.1246 63.223 21.1246 65.391 20.8604C67.1996 20.6653 68.9013 19.9069 70.2555 18.6923C70.8455 18.0474 71.2131 17.2303 71.3046 16.3611H68.9733C68.647 18.2649 67.0695 18.9254 65.7562 19.1197C63.8446 19.4461 62.3993 19.0575 61.6144 17.9386C61.4231 17.6366 61.2887 17.3021 61.2181 16.9517V13.8278H71.7398C71.7948 12.2232 71.4783 10.6275 70.815 9.16536C69.5017 6.66317 67.3337 5.41985 63.8213 5.27998C60.0758 5.14788 57.2473 7.18382 56.2604 9.28969H56.3536ZM66.2148 12.2504H61.288V12.1182C61.2661 11.1502 61.3103 10.1818 61.4202 9.21976C61.5437 8.39936 61.964 7.65281 62.6013 7.12165C62.9699 6.8767 63.41 6.7627 63.8511 6.79793C64.2922 6.83316 64.7086 7.01558 65.0336 7.31592C65.4317 7.72113 65.7251 8.21722 65.8884 8.76128V8.83122C66.0457 9.49907 66.1342 10.1813 66.1525 10.8672V12.2037L66.2148 12.2504ZM61.5523 11.9861H65.8884V10.7972C65.8923 10.1575 65.8272 9.51916 65.6941 8.89338V8.83122C65.5806 8.32004 65.3087 7.85773 64.917 7.51019C64.6327 7.25321 64.2696 7.10023 63.8871 7.07623C63.5047 7.05224 63.1254 7.15865 62.8112 7.37809C62.2202 7.88487 61.8267 8.58374 61.6999 9.35186C61.63 10.1289 61.5678 11.0614 61.5678 11.9861H61.5523Z" fill="#8EAAB2"/>
  <path fill-rule="evenodd" clip-rule="evenodd" d="M114.619 12.0485C114.595 11.1037 114.64 10.1584 114.751 9.2199C114.877 8.43398 115.269 7.71524 115.862 7.18396C116.216 6.95098 116.639 6.84351 117.061 6.87873C117.484 6.91394 117.882 7.08981 118.193 7.37823C118.573 7.77385 118.864 8.24523 119.048 8.76142C119.198 9.4093 119.284 10.0704 119.305 10.7352V12.0485H114.619ZM109.42 9.28984C110.601 6.91975 113.562 5.07808 117.191 5.28012C120.82 5.48216 122.972 6.78765 124.185 9.2199C124.885 10.7445 125.202 12.417 125.109 14.0922H114.588V17.115C114.655 17.4338 114.765 17.7422 114.914 18.0319C115.178 18.3661 116.095 19.5861 118.994 19.1509C122.149 18.6225 122.102 16.3923 122.149 16.3923H124.643C124.574 17.3159 124.206 18.1917 123.594 18.8867C122.229 20.1383 120.501 20.9222 118.66 21.1247C116.624 21.319 113.663 21.3889 111.301 19.4151C110.173 18.4816 109.328 17.2517 108.861 15.8639C108.275 13.6771 108.461 11.355 109.389 9.28984" fill="#8EAAB2"/>
  <path d="M116.849 21.2566C114.827 21.3231 112.848 20.6706 111.262 19.415C110.119 18.4712 109.274 17.216 108.83 15.8016C108.181 13.5974 108.369 11.2315 109.358 9.15756C110.407 6.98952 113.298 4.88364 117.245 5.07791C120.797 5.27995 123.034 6.52327 124.41 9.15756C125.142 10.7161 125.46 12.4369 125.335 14.1542L125.265 14.2163H114.813V17.1148C114.852 17.4217 114.964 17.7147 115.139 17.9696C115.862 18.9565 117.245 19.2829 119.087 19.0187C120.338 18.8244 121.846 18.2416 122.11 16.4543C122.11 16.3222 122.11 16.26 122.242 16.26H124.876V16.3921C124.82 17.3527 124.423 18.2618 123.757 18.9565C122.368 20.2072 120.619 20.9876 118.761 21.1867C118.125 21.2449 117.487 21.2683 116.849 21.2566ZM116.717 5.34212C115.278 5.29327 113.852 5.63434 112.591 6.32923C111.33 7.02413 110.28 8.04701 109.552 9.28966C108.628 11.309 108.441 13.5886 109.024 15.7316C109.457 17.0908 110.265 18.3001 111.355 19.2207C113.686 21.1245 116.422 21.1245 118.59 20.8603C120.422 20.6871 122.15 19.9267 123.516 18.6923C124.133 18.0642 124.507 17.2385 124.573 16.3611H122.335C122.009 18.2649 120.431 18.9254 119.118 19.1197C117.144 19.4461 115.761 19.0575 114.906 17.9385C114.722 17.6333 114.588 17.2999 114.51 16.9516V13.8278H125.032C125.089 12.2237 124.776 10.628 124.115 9.16533C122.794 6.66315 120.626 5.41982 117.121 5.27995L116.717 5.34212ZM119.413 12.2503H114.487V12.1182C114.465 11.1502 114.509 10.1818 114.619 9.21973C114.742 8.39933 115.163 7.65278 115.8 7.12162C116.168 6.87668 116.609 6.76267 117.05 6.7979C117.491 6.83313 117.907 7.01555 118.232 7.31589C118.652 7.70423 118.949 8.20655 119.087 8.76125V8.83119C119.275 9.49314 119.364 10.1792 119.351 10.8671V12.2037L119.413 12.2503ZM114.751 11.9861H119.11V10.7972C119.126 10.1524 119.037 9.5094 118.846 8.89335V8.83119C118.731 8.32079 118.459 7.85905 118.069 7.51016C117.785 7.25318 117.422 7.1002 117.039 7.0762C116.657 7.05221 116.277 7.15862 115.963 7.37806C115.373 7.88659 114.977 8.58419 114.844 9.35183C114.813 10.1444 114.751 11.0614 114.751 11.9861Z" fill="#8EAAB2"/>
  <path fill-rule="evenodd" clip-rule="evenodd" d="M71.4754 5.73897H77.8552L80.5517 12.7715L83.4502 5.77782H91.4696L94.0339 14.0615L96.2719 5.70789H101.401L103.895 13.9294L106.133 5.70789H108.76L104.688 20.5734H99.8853L97.1889 11.8934L94.8577 20.5734H90.0631L85.657 6.30623L79.4404 21.4281C79.4404 21.4281 78.5857 23.9226 77.4667 24.8473C76.9214 25.4067 76.2442 25.8202 75.4974 26.0496C74.7506 26.2791 73.9582 26.3172 73.1928 26.1605C71.2268 25.8342 70.4341 24.7773 70.302 23.534C70.2009 22.9163 70.3426 22.2834 70.6975 21.7678C71.0523 21.2522 71.5928 20.8938 72.2059 20.7676C73.5891 20.5034 74.5371 21.0318 74.8402 21.6923C75.0002 21.9684 75.1003 22.2751 75.1338 22.5925C75.1672 22.9098 75.1334 23.2306 75.0345 23.534C74.9218 23.8134 74.7432 24.0614 74.5138 24.2567C74.7888 24.291 75.068 24.2611 75.3296 24.1694C75.5911 24.0778 75.8279 23.9268 76.0214 23.7283C76.6041 23.0522 77.0312 22.2564 77.2724 21.3971C77.3487 21.2088 77.3933 21.0093 77.4045 20.8065L71.4832 5.74674" fill="#8EAAB2"/>
  <path d="M74.172 26.3852C73.8456 26.3852 73.5193 26.3231 73.1851 26.3231C71.3434 25.9889 70.3643 25.072 70.1623 23.6266C70.0499 22.9817 70.1931 22.3183 70.5615 21.7772C70.93 21.2361 71.4948 20.8598 72.1361 20.7281C73.6902 20.4017 74.5683 21.0622 74.8946 21.715C75.0577 22.0141 75.1596 22.3427 75.1943 22.6815C75.229 23.0204 75.1958 23.3628 75.0967 23.6888C75.0226 23.8841 74.9117 24.0634 74.7703 24.2172C74.9836 24.2202 75.1948 24.1742 75.3875 24.0825C75.5802 23.9909 75.7493 23.8562 75.8815 23.6888C76.4675 23.0481 76.9006 22.2829 77.1482 21.4508C77.2181 21.2565 77.2182 21.1244 77.2803 20.9301L71.2968 5.6062H77.9253L77.9874 5.66837L80.6217 12.4445L83.4503 5.6062H91.664V5.66837L94.0963 13.5635L96.3341 5.6062H101.665L104.097 13.4935L106.265 5.6062H109.156L105.014 20.7514H99.8854V20.6892L97.3522 12.4445L95.0209 20.798H89.8923L85.5484 6.76404L79.5027 21.5285C79.0594 22.8154 78.3647 24.0014 77.459 25.0176C76.5751 25.8718 75.401 26.3603 74.172 26.3852ZM72.8587 20.8602C72.6362 20.8492 72.4134 20.8728 72.1982 20.9301C71.6263 21.0642 71.1261 21.4092 70.7976 21.8962C70.4691 22.3832 70.3365 22.9762 70.4265 23.5567C70.6207 24.9399 71.5455 25.7247 73.255 26.0588C74.0007 26.2133 74.7737 26.1728 75.4992 25.9414C76.2247 25.71 76.8782 25.2955 77.3968 24.7378C78.4459 23.8209 79.3007 21.3886 79.3706 21.3187L85.5872 6.19678H85.8514L90.1953 20.4639H94.9277L97.2978 11.9161H97.5542L100.189 20.4639H104.789L108.798 5.87041H106.467L104.229 13.9598H103.965L101.471 5.87041H96.5362L94.2439 14.0919H93.9797L91.4153 5.87041H83.5902L80.6994 12.8641H80.4352L77.7388 5.87041H71.6232L77.4746 20.9301C77.4624 21.132 77.4205 21.331 77.3502 21.5207C77.0846 22.3846 76.6338 23.1801 76.0292 23.852C75.832 24.0858 75.5764 24.2635 75.2886 24.3672C75.0007 24.4709 74.6906 24.4969 74.3895 24.4425L74.1875 24.3804L74.3895 24.2483C74.5769 24.0542 74.7317 23.8311 74.8481 23.5877C74.9811 22.9919 74.9128 22.3688 74.6538 21.816C74.4733 21.5109 74.2108 21.2626 73.8963 21.0991C73.5817 20.9357 73.2277 20.8637 72.8743 20.8913L72.8587 20.8602Z" fill="#8EAAB2"/>
  <path fill-rule="evenodd" clip-rule="evenodd" d="M126.912 0.213623H132.569V20.5963H126.912V0.213623Z" fill="#8EAAB2"/>
  <path d="M132.701 20.7518H126.881V0.081543H132.732L132.701 20.7518ZM127.044 20.4876H132.367V0.345749H127.044V20.4876Z" fill="#8EAAB2"/>
  <path fill-rule="evenodd" clip-rule="evenodd" d="M134.279 0.213623H139.936V20.5963H134.279V0.213623Z" fill="#8EAAB2"/>
  <path d="M140.091 20.7518H134.24V0.081543H140.091V20.7518ZM134.442 20.4876H139.835V0.345749H134.442V20.4876Z" fill="#8EAAB2"/>
</svg>
