<svg version="1.1" id="logo-sony"
  xmlns="http://www.w3.org/2000/svg"
  xmlns:xlink="http://www.w3.org/1999/xlink" x="0px" y="0px" viewBox="0 0 163.3 28.9" style="enable-background:new 0 0 163.3 28.9;" xml:space="preserve">
  <path d="M57.9,0.9c-5.5,0-11.4,1.9-14.7,4.9c-2.6,2.3-4,5.6-4,9.1c0,3.5,1.4,6.8,4,9.1c3.6,3.2,8.9,4.9,14.7,4.9s11.2-1.7,14.7-4.9
	c2.5-2.4,3.9-5.6,3.9-9.1c0-3.4-1.4-6.7-3.9-9.1C68.9,2.4,64,0.9,57.9,0.9 M65.8,22.2c-2.1,2-5,3.1-7.9,3c-2.9,0.1-5.8-1-7.9-3
	c-3.8-4.1-3.8-10.5,0-14.6c4.5-4,11.3-4,15.8,0c1.9,2,2.9,4.6,2.9,7.3C68.8,17.6,67.7,20.2,65.8,22.2"/>
  <path d="M28.9,13.3c-1-0.4-2-0.8-3.1-1.1c-2-0.5-6.5-1.1-8.7-1.3c-2.6-0.2-5.2-0.5-7.8-1C8.5,9.6,7.9,8.9,7.9,8.1
	c0-0.9,0.5-1.6,1.3-2c1.4-0.9,4.2-1.4,7.2-1.4c2.8,0,5.7,0.5,8.3,1.6c0.7,0.3,1.4,0.7,2,1.2c1,0.8,1.7,2,1.9,3.2h3.1V2.1h-3.5v1
	c0,0.3-0.3,0.7-1,0.4c-3.6-1.7-7.5-2.6-11.4-2.6c-3.3,0-6.5,0.6-9.6,1.9C3.5,4,1.2,6,1.2,9.3c0,1.7,0.6,3.4,1.8,4.6
	c1.5,1.4,3.4,2.4,5.4,2.7c1.5,0.3,4.7,0.8,7.9,1.2s6.3,0.7,7.6,1c1,0.3,2.7,0.6,2.7,2.5c-0.1,1.2-0.9,2.3-2.1,2.6
	c-2,0.8-4.2,1.2-6.3,1.1c-2.6-0.1-5.1-0.5-7.5-1.3c-1.7-0.5-3.2-1.5-4.4-2.9c-0.6-0.8-0.9-1.8-0.9-2.8H2v9.8h3.9v-1.4
	c0-0.3,0.2-0.6,0.5-0.6c0.1,0,0.2,0,0.3,0.1c1.8,0.8,3.7,1.4,5.7,1.8c1.9,0.5,3.9,0.7,5.9,0.7c2.7,0,5.4-0.3,7.9-1.1
	c1.7-0.5,3.3-1.3,4.7-2.3c1.6-1.2,2.5-3.1,2.5-5.2c0-1.9-0.7-3.7-2-5.1C30.8,14.3,29.9,13.7,28.9,13.3"/>
  <path d="M104.6,5.6h3.2c1.5,0,1.7,0.6,1.8,1.9l0.2,10.4L92.6,2.5H80.4v3.1h2.7c2,0,2.1,1.1,2.1,2v14.6c0,0.9,0,2.1-1.2,2.1h-3.4v3.1
	H95v-3.1h-3.5c-1.4,0-1.5-0.6-1.5-2V9.8l19.7,17.6h5l-0.3-19.9c0-1.5,0.1-1.9,1.6-1.9h3.2V2.5h-14.6V5.6z"/>
  <path d="M145.9,24.2l-0.7-0.6l-0.1-0.7V18l0.1-0.5l9.5-10.8c0.5-0.8,1.5-1.3,2.5-1.2h3.1V2.5h-14.1v3.1h2.1c0.3,0,0.6,0.2,0.7,0.5
	c0,0.2,0,0.3-0.2,0.5l-6,7h-0.2l-5.8-7c-0.4-0.5-0.1-1,0.4-1h2.1V2.5h-17.1v3.1h3c1.1,0,2.1,0.5,2.8,1.4c0.4,0.4,9.1,10.3,9.4,10.6
	l0.2,0.4v4.9l-0.1,0.7l-0.7,0.6H136h-3.1v3.1H150v-3.1h-3.2L145.9,24.2z"/>
  <path d="M157.1,25.5c0,0.3-0.1,0.6-0.2,0.9c-0.1,0.3-0.3,0.5-0.4,0.7c-0.2,0.2-0.4,0.3-0.7,0.4c-0.3,0.1-0.5,0.2-0.8,0.2
	c-0.6,0-1.1-0.2-1.5-0.6c-0.2-0.2-0.3-0.4-0.4-0.7c-0.1-0.3-0.2-0.6-0.1-0.8c0-0.3,0-0.6,0.2-0.9c0.1-0.2,0.3-0.5,0.5-0.7
	c0.2-0.2,0.4-0.3,0.7-0.4c0.5-0.2,1.1-0.2,1.6,0c0.5,0.2,0.9,0.6,1.1,1.1C157.1,24.9,157.1,25.2,157.1,25.5z M156.7,25.5
	c0-0.2,0-0.5-0.1-0.7c-0.1-0.2-0.2-0.4-0.3-0.6c-0.1-0.2-0.3-0.3-0.5-0.4c-0.4-0.2-0.9-0.2-1.3,0c-0.2,0.1-0.4,0.2-0.5,0.4
	c-0.2,0.2-0.3,0.4-0.3,0.6c-0.1,0.2-0.1,0.5-0.1,0.7c0,0.2,0,0.5,0.1,0.7c0.1,0.2,0.2,0.4,0.3,0.6c0.1,0.2,0.3,0.3,0.5,0.4
	c0.2,0.1,0.4,0.1,0.7,0.1c0.2,0,0.4,0,0.6-0.1c0.2-0.1,0.4-0.2,0.5-0.4c0.1-0.2,0.3-0.3,0.3-0.5C156.6,26,156.7,25.8,156.7,25.5z
	 M154.7,26.7h-0.4v-2.4h0.9c0.2,0,0.4,0,0.6,0.2c0.2,0.1,0.2,0.3,0.2,0.5c0,0.2-0.1,0.3-0.2,0.5c-0.1,0.1-0.3,0.2-0.4,0.2l0.7,1
	h-0.4l-0.6-1h-0.4V26.7z M155.1,25.4h0.2c0.1,0,0.1,0,0.2,0c0,0,0.1-0.1,0.1-0.1c0-0.1,0-0.1,0-0.2c0-0.1,0-0.1,0-0.2
	c0,0-0.1-0.1-0.1-0.1h-0.2h-0.6v0.7L155.1,25.4z"/>
</svg>
