<svg width="79" height="34" viewBox="0 0 79 34" fill="none" xmlns="http://www.w3.org/2000/svg">
<path fill-rule="evenodd" clip-rule="evenodd" d="M66.5947 21.8771C38.0542 19.6173 14.4189 26.5938 9.12274 29.1493C6.18043 30.5249 5.98437 32.1961 6.37673 33.1782C6.67093 33.9641 8.14197 34.3578 9.71116 33.5717C21.0883 27.4792 44.037 22.6643 66.5947 24.04C67.6736 23.9418 68.1639 22.0746 66.5947 21.8783V21.8771ZM73.6563 13.3273C72.3814 14.7029 70.714 15.6864 70.1254 15.1948C69.537 14.7029 70.1254 13.1312 70.1254 13.1312C72.9698 11.3619 78.4621 6.64496 78.4621 3.10761C78.4621 -0.233443 75.5197 -1.21558 72.3814 1.83012C70.2235 3.89369 68.1639 7.72638 67.0852 11.5593C65.5158 13.1312 62.9658 15.1948 60.6119 15.1948C59.3369 15.1948 59.0427 14.3108 59.239 13.2294C61.2005 13.1312 66.5947 11.6574 66.5947 7.03868C66.4965 5.07326 65.0255 4.38533 63.5542 4.38533C61.1024 4.38533 57.964 6.94053 56.3946 10.4779C56.0023 10.3797 55.512 10.2818 55.1196 9.98624C55.6101 8.90481 56.0023 7.92267 56.0023 7.33288C56.2967 5.46538 55.512 4.28604 54.0407 4.38533C53.06 4.48347 51.8831 5.26932 51.6871 7.33288C51.4908 8.70852 52.1773 10.2804 52.1773 10.2804C51.6871 12.344 49.039 14.9974 48.0582 14.8992C47.1753 14.8992 48.2542 11.0663 49.1369 8.31503C49.6274 7.72524 50.1176 7.03731 50.4121 6.44752C50.6081 5.56353 50.3139 5.17003 49.9216 4.8756C49.3332 4.38396 47.3716 4.58139 46.2927 6.44752C45.9985 6.93916 45.7043 7.72524 45.3119 8.60923C44.5272 9.49323 43.3504 10.7707 42.958 10.5747C42.4678 10.2804 44.1351 7.9213 43.8409 6.64381C43.6446 5.46424 42.6638 4.87446 41.6831 4.97237C40.212 5.16866 38.2505 8.21551 38.2505 8.21551C38.2505 8.21551 38.6426 7.33151 38.6426 6.5443C38.5447 5.46287 36.485 4.97237 35.5042 7.03594C35.1119 7.82202 34.5235 10.4754 33.9351 13.0306C33.4446 13.9146 31.7772 16.6658 30.5022 16.7653C29.4236 16.8633 30.6985 11.9503 30.8946 11.6547C31.483 10.7707 32.2677 8.8053 32.1696 7.91993C32.0714 6.74059 31.287 6.5443 30.6004 6.64244C29.5215 6.83851 29.0312 7.91993 29.0312 7.91993C29.0312 7.91993 28.4428 7.03594 26.9715 7.13408C22.46 7.62572 19.5177 15.4876 19.9101 19.221C20.1061 21.1867 21.185 22.4642 22.8524 22.2681C24.8139 22.0718 26.4813 19.1231 26.4813 19.1231C26.4813 19.1231 26.9715 21.482 29.0312 21.1867C30.4043 20.9904 31.8754 19.7129 33.0524 18.4352C32.9543 18.6313 32.9543 18.9268 32.9543 18.9268C32.6601 20.8923 35.9947 20.6962 36.1908 19.1231C37.1716 11.5568 39.6234 8.4118 40.4081 8.4118C40.9965 8.4118 38.8389 11.9489 40.1139 13.3248C41.0947 14.5043 42.762 13.5208 44.233 12.3426C44.037 13.3248 43.8409 14.3081 43.8409 15.2902C43.7428 17.4519 44.5272 19.1231 46.5869 19.025C49.3332 18.9268 52.1773 15.5858 54.1389 12.3426C54.6294 12.6368 55.1196 12.8343 55.7081 13.0306C55.512 13.8164 55.512 14.6023 55.512 15.3895C55.7081 17.8468 57.3754 18.8289 59.3369 18.7308C61.6908 18.6326 64.3389 16.8633 66.3005 15.2916C66.3005 15.3895 66.3005 15.4876 66.2023 15.4876C66.0063 16.6672 66.3005 18.9268 67.9678 18.9268C69.9293 19.1231 73.3621 17.0596 75.0292 14.8978C76.1082 13.5222 74.735 12.1466 73.6563 13.3259V13.3273ZM75.5197 3.10761C75.7158 3.10761 75.8139 3.3039 75.8139 3.59948C75.8139 5.66304 70.5177 10.1837 70.5177 10.1837C70.5177 10.1837 74.0485 3.10761 75.5197 3.10761ZM62.7697 7.53032C63.26 7.53032 63.3582 7.72638 63.3582 8.21825C63.3582 9.39782 61.789 10.2818 59.9256 10.3797C60.9063 8.90595 61.985 7.53032 62.7697 7.53032ZM27.3652 10.8716C27.169 12.1491 25.0114 17.8481 23.7364 17.8481C22.167 17.9461 24.5209 9.78994 26.9729 9.78994C27.5613 9.88809 27.5613 10.1837 27.3652 10.8716ZM8.14197 12.4433C9.61324 12.4433 6.96514 20.0096 7.25935 23.3509C7.55356 26.692 11.2806 25.7098 10.9864 23.8425C10.594 20.5994 12.7516 10.3797 15.0074 10.3797C16.5765 10.3797 13.2421 17.3563 13.9287 21.8771C14.4189 24.8247 18.342 23.8425 17.8518 22.0732C16.5765 16.2749 20.6959 10.6739 20.2054 6.64496C20.0094 4.97374 18.9304 3.9916 17.8518 3.9916C14.1247 3.9916 11.2806 11.46 11.2806 11.46C11.2806 11.46 11.5748 7.23474 8.63247 7.03731C4.31704 6.7431 -0.0965382 17.5526 0.00160723 27.3785C0.0997527 30.5235 4.02283 30.0319 3.72862 27.4767C3.43442 22.8579 5.98437 12.4408 8.14197 12.4408V12.4433Z" fill="#28B5FC"/>
</svg>
