<svg version="1.1" id="homepage-logos"
  xmlns="http://www.w3.org/2000/svg"
  xmlns:xlink="http://www.w3.org/1999/xlink" x="0px" y="0px" viewBox="0 0 1865 49" enable-background="new 0 0 1865 49" xml:space="preserve">
  <style> path, polygon, polyline { fill: #B3C5CA; } </style>
  <g>
    <path d="M5.6,18.3H0.1v-2.5h14.1v2.5H8.7v14.4H5.6V18.3z"/>
    <path d="M30.5,32.7h-3.4l-2.9-5.4c-0.3-0.5-0.6-0.9-1-1.1s-0.9-0.3-1.5-0.3h-2.4v6.8h-3V15.7h7.5c1.9,0,3.4,0.4,4.4,1.3
		c1,0.9,1.5,2.1,1.5,3.7c0,1.3-0.4,2.4-1.1,3.2c-0.7,0.8-1.8,1.4-3.1,1.6c0.9,0.2,1.6,0.9,2.2,1.9L30.5,32.7z M25.9,22.8
		c0.5-0.4,0.8-1.1,0.8-2c0-0.9-0.3-1.6-0.8-2c-0.5-0.4-1.4-0.6-2.6-0.6h-4v5.4h4C24.5,23.5,25.4,23.3,25.9,22.8z"/>
    <path d="M34.7,31.1c-1.2-1.2-1.8-3-1.8-5.3V15.7h3V26c0,1.5,0.3,2.6,1,3.3c0.7,0.7,1.7,1.1,3,1.1c1.3,0,2.3-0.4,3-1.1
		c0.7-0.8,1-1.8,1-3.3V15.7h3v10.1c0,2.3-0.6,4-1.8,5.2c-1.2,1.2-3,1.8-5.3,1.8C37.7,32.9,35.9,32.3,34.7,31.1z"/>
    <path d="M52.7,32.4c-1.1-0.4-2.1-0.8-2.9-1.5l1-2.3c0.8,0.6,1.7,1.1,2.6,1.4c0.9,0.3,1.9,0.4,2.9,0.4c1.2,0,2.1-0.2,2.7-0.6
		c0.6-0.4,0.9-1,0.9-1.7c0-0.6-0.3-1.1-0.9-1.5s-1.6-0.7-2.9-1c-1.4-0.3-2.6-0.7-3.4-1.1s-1.5-0.9-2-1.5c-0.4-0.6-0.7-1.4-0.7-2.4
		c0-1,0.3-1.9,0.8-2.7c0.5-0.8,1.3-1.4,2.3-1.8c1-0.4,2.1-0.7,3.4-0.7c1.2,0,2.3,0.2,3.4,0.5c1.1,0.4,2,0.9,2.6,1.5l-1,2.3
		c-1.5-1.2-3.2-1.8-5-1.8c-1.1,0-1.9,0.2-2.6,0.7c-0.6,0.4-0.9,1.1-0.9,1.8c0,0.7,0.3,1.2,0.8,1.5s1.5,0.7,2.9,1
		c1.4,0.3,2.6,0.7,3.5,1.1c0.9,0.4,1.6,0.9,2,1.5c0.5,0.6,0.7,1.4,0.7,2.3c0,1-0.3,1.9-0.8,2.7c-0.5,0.8-1.3,1.3-2.3,1.8
		s-2.2,0.6-3.6,0.6C55,32.9,53.8,32.7,52.7,32.4z"/>
    <path d="M69.5,18.3H64v-2.5h14.1v2.5h-5.5v14.4h-3.1V18.3z"/>
    <path d="M80.2,15.7h11.3v2.4h-8.3v4.7h7.8v2.4h-7.8v4.9h8.3v2.4H80.2V15.7z"/>
    <path d="M94.4,15.7h6.2c2.8,0,4.9,0.7,6.4,2.2c1.5,1.5,2.3,3.6,2.3,6.2c0,2.7-0.8,4.8-2.3,6.2c-1.5,1.5-3.7,2.2-6.4,2.2h-6.2V15.7z
		 M100.4,30.1c3.9,0,5.8-2,5.8-6c0-4-1.9-5.9-5.8-5.9h-3v11.9H100.4z"/>
    <path d="M131.7,25.4c0.5,0.7,0.8,1.6,0.8,2.6c0,1.4-0.5,2.6-1.5,3.4c-1,0.8-2.5,1.2-4.3,1.2H119V15.7h7.4c1.8,0,3.1,0.4,4.1,1.2
		s1.5,1.9,1.5,3.3c0,0.9-0.2,1.7-0.7,2.3s-1.1,1.1-2,1.4C130.4,24.2,131.1,24.7,131.7,25.4z M122,22.9h3.9c2.1,0,3.2-0.8,3.2-2.4
		c0-0.8-0.3-1.4-0.8-1.8c-0.5-0.4-1.3-0.6-2.4-0.6H122V22.9z M128.8,29.7c0.5-0.4,0.8-1,0.8-1.9c0-0.8-0.3-1.5-0.8-1.9
		c-0.5-0.4-1.3-0.6-2.4-0.6H122v5h4.3C127.4,30.3,128.3,30.1,128.8,29.7z"/>
    <path d="M142.3,24.9v7.8h-3.1v-7.8l-6.8-9.1h3.5l4.9,6.6l4.9-6.6h3.5L142.3,24.9z"/>
    <path d="M152.6,20.9v3.3h-3.4v-3.3H152.6z M152.6,29.4v3.3h-3.4v-3.3H152.6z"/>
  </g>
  <g id="AMEX">
    <path fill-rule="evenodd" clip-rule="evenodd" d="M217.9,1.7l-6.8,15.9h4.5l1.2-3.2h7.3l1.2,3.2h4.5L223,1.7H217.9z M220.4,5.5
		l2.2,5.5h-4.4L220.4,5.5L220.4,5.5z"/>
    <polygon fill-rule="evenodd" clip-rule="evenodd" points="230.4,17.6 230.4,1.7 236.6,1.8 240.4,12 243.9,1.7 250.2,1.7 
		250.2,17.6 246.2,17.6 246.2,6 242,17.6 238.5,17.6 234.3,6 234.3,17.6 	"/>
    <polygon fill-rule="evenodd" clip-rule="evenodd" points="252.8,17.6 252.8,1.7 265.8,1.7 265.8,5.3 256.8,5.3 256.8,8.1 
		265.6,8.1 265.6,11.4 256.8,11.4 256.8,14.1 265.8,14.1 265.8,17.6 	"/>
    <path fill-rule="evenodd" clip-rule="evenodd" d="M268.1,1.7v15.9h4V12h1.7l4.7,5.7h4.8l-5.2-5.8c2.5-0.2,4.4-2.3,4.3-4.9
		c0-3.3-2.7-5.2-5.6-5.2L268.1,1.7z M272.1,5.3h4.5c1,0,1.8,0.7,1.9,1.7c-0.1,0.9-0.8,1.7-1.8,1.7h-4.6
		C272.1,8.6,272.1,5.3,272.1,5.3z"/>
    <polygon fill-rule="evenodd" clip-rule="evenodd" points="288.1,17.6 284.1,17.6 284.1,1.7 288.1,1.7 	"/>
    <path fill-rule="evenodd" clip-rule="evenodd" d="M297.7,17.6h-0.8c-4.2,0-6.8-3.3-6.8-7.8s2.5-8,7.9-8h4.4v3.7h-4.6
		c-2.2,0-3.7,1.7-3.7,4.2c0,3.1,1.7,4.3,4.2,4.3h1.1L297.7,17.6L297.7,17.6z"/>
    <path fill-rule="evenodd" clip-rule="evenodd" d="M306.3,1.7l-6.8,15.8h4.4l1.2-3.2h7.3l1.3,3.2h4.5l-6.8-15.8L306.3,1.7z
		 M308.8,5.5l2.3,5.5h-4.5L308.8,5.5L308.8,5.5z"/>
    <polygon fill-rule="evenodd" clip-rule="evenodd" points="318.8,17.6 318.8,1.7 323.8,1.7 330.3,11.7 330.3,1.7 334.2,1.7 
		334.2,17.6 329.4,17.6 322.8,7.4 322.8,17.6 	"/>
    <polygon fill-rule="evenodd" clip-rule="evenodd" points="239.9,45.4 239.9,29.5 252.8,29.5 252.8,33 243.9,33 243.9,35.8 
		252.7,35.8 252.7,39.1 243.9,39.1 243.9,41.9 252.8,41.9 252.8,45.4 	"/>
    <polygon fill-rule="evenodd" clip-rule="evenodd" points="303.3,45.4 303.3,29.5 316.2,29.5 316.2,33 307.3,33 307.3,35.8 
		315.9,35.8 315.9,39.1 307.3,39.1 307.3,41.9 316.2,41.9 316.2,45.4 	"/>
    <polygon fill-rule="evenodd" clip-rule="evenodd" points="253.3,45.4 259.7,37.5 253.3,29.5 258.2,29.5 262,34.5 265.9,29.5 
		270.7,29.5 264.3,37.4 270.7,45.4 265.7,45.4 261.9,40.4 258.3,45.4 	"/>
    <path fill-rule="evenodd" clip-rule="evenodd" d="M271.1,29.5v15.8h4.1v-5h4.2c3.5,0,6.2-1.9,6.2-5.5c0-3-2.1-5.3-5.7-5.3H271.1z
		 M275.2,33.1h4.4c1-0.1,1.8,0.7,1.9,1.6c0,0.1,0,0.2,0,0.2c0,1-0.7,1.8-1.7,1.8c-0.1,0-0.2,0-0.2,0h-4.4V33.1z"/>
    <path fill-rule="evenodd" clip-rule="evenodd" d="M287.3,29.5v15.8h4v-5.6h1.7l4.7,5.7h4.8l-5.2-5.8c2.5-0.2,4.4-2.3,4.3-4.8
		c0-3.3-2.7-5.2-5.6-5.2L287.3,29.5z M291.2,33h4.5c1,0,1.8,0.7,1.9,1.7c-0.1,0.9-0.8,1.7-1.8,1.7h-4.6
		C291.2,36.4,291.2,33,291.2,33z"/>
    <path fill-rule="evenodd" clip-rule="evenodd" d="M318,45.4v-3.4h7.9c1.2,0,1.7-0.7,1.7-1.3c0-0.7-0.5-1.3-1.7-1.3h-3.6
		c-3.1,0-4.8-1.9-4.8-4.7c0-2.6,1.6-5,6.2-5h7.7l-1.7,3.6h-6.7c-1.2,0-1.7,0.7-1.7,1.3c0,0.7,0.6,1.4,1.4,1.4c0,0,0,0,0.1,0h3.7
		c3.5,0,5,2,5,4.6c0,2.7-1.7,5.1-5.2,5.1L318,45.4z"/>
    <path fill-rule="evenodd" clip-rule="evenodd" d="M332.6,45.4v-3.4h7.6c1.2,0,1.7-0.7,1.7-1.3c0-0.7-0.5-1.3-1.7-1.3h-3.2
		c-3.1,0-4.8-1.9-4.8-4.7c0-2.6,1.6-5,6.2-5h7.6l-1.7,3.6h-6.5c-1.2,0-1.7,0.7-1.7,1.3c0,0.7,0.6,1.4,1.4,1.4h0.1h3.4
		c3.5,0,5,2,5,4.6c0,2.7-1.7,5.1-5.2,5.1L332.6,45.4z"/>
  </g>
  <g id="CVS">
    <path d="M632.6,40.8h7.1v-3.1h-3.3V20h3.2v-3.1h-7.1v3.6c-2.1-2.7-5.3-4.3-8.7-4.3c-6.8,0-11.8,5.5-11.8,12.7s5,12.7,11.8,12.7
		c3.4,0,6.6-1.5,8.7-4.3L632.6,40.8L632.6,40.8z M608.6,34.4h-3.9c-1.4,2.4-3.9,3.9-7.4,3.9c-5.4,0-8.3-3.3-8.7-8.2h20.6v-1.7
		c0-7.3-4.7-12.3-12-12.3s-12.6,5.2-12.6,12.7s5.1,12.7,12.5,12.7C602.6,41.5,606.7,38.8,608.6,34.4 M558.1,20.6V9.3h3.5V6.1h-11
		v3.2h3.5v28.2h-3.4v3.2h11v-3.2h-3.5V23.7h17.4v13.8h-3.5v3.2h11v-3.2h-3.5V9.3h3.5V6.1h-11v3.2h3.5v11.3H558.1z M677.2,37.6H674
		V26.9c0-5,2.5-7.5,7-7.5c4,0,6.6,2.5,6.6,7.5v10.7h-3.2v3.2h10.4v-3.2h-3.2V26.9c0-6-3.6-10.8-10-10.8c-2.9-0.1-5.7,1.1-7.5,3.4
		V6.1H667v3.1h3.2v28.4H667v3.2h10.4L677.2,37.6z M616,28.9c0-5.5,3.5-9.4,8.4-9.4c4.9,0,8.3,4,8.3,9.4s-3.4,9.4-8.3,9.4
		C619.5,38.3,616,34.3,616,28.9 M597.2,19.4c5.1,0,7.7,3.6,8.1,7.6h-16.7C589.1,22.7,592,19.4,597.2,19.4 M659.8,34.6V20h4.9v-3.1
		h-4.9v-6.2h-3.9v6.2h-3.7v3.2h3.7v14.8c0,4.3,1.9,6.3,6.4,6.3c0.8,0,1.6-0.1,2.4-0.3v-3.1c-0.7,0.1-1.3,0.2-2,0.2
		C660.7,37.8,659.8,37.1,659.8,34.6 M650.2,41.1c0.7,0,1.5-0.1,2.2-0.3v-3.1c-0.6,0.1-1.1,0.2-1.7,0.2c-1.7,0-2.4-0.9-2.4-3.5V6.1
		h-7.1v3.1h3.2v25.3C644.3,38.8,646,41.1,650.2,41.1"/>
    <path d="M527.3,29.9c0.6,2.6,2,3.5,5.1,3.5c2.7,0,4.2-1,4.2-2.5c0-2.2-2-2.4-6.1-3.4c-4.8-1.3-7.9-2.3-9.3-3.3
		c-2.6-1.8-4.1-4.8-4-8c0-6.7,5.3-11.1,14.5-11.1c8.9,0,14.2,3.9,14.8,10.9H536c-0.4-2.1-1.8-3-4.5-3c-2.4,0-3.5,0.8-3.5,2.4
		c0,1.8,1.8,2.2,5.1,3c4.3,1.1,7.7,1.8,9.9,3.3c2.9,1.7,4.6,4.8,4.4,8.1c0,7.5-5.4,11.9-15.5,11.9c-9.3,0-14.8-4.4-15.5-11.8
		L527.3,29.9z"/>
    <path d="M486.4,27.3c-0.6,9.1-6.6,14.4-16.6,14.4c-11.1,0-17.8-7-17.8-18.3s6.8-18.3,17.6-18.3c10,0,16,5.1,16.6,14.1h-10.6
		c-0.3-3.5-2.3-5.3-5.9-5.3c-4.3,0-6.5,3.2-6.5,9.6s2.4,9.6,6.8,9.6c3.4,0,5.5-2,5.8-5.7L486.4,27.3z"/>
    <polygon points="484,6.1 495.4,6.1 501.2,28.5 507.5,6.1 518.4,6.1 506.7,40.8 495.7,40.8 	"/>
    <path d="M416.4,5.2c-1.4,0-2.7,0.5-3.6,1.5l-7.3,7.3c-2,2-2,5.3,0,7.3l0,0L426,41.8l20.5-20.5c2-2,2-5.3,0-7.3l0,0l-7.3-7.3
		c-2-2-5.2-2-7.3,0l0,0l-6,6l-6-6C419.1,5.7,417.8,5.2,416.4,5.2z"/>
    <path d="M700.8,38.9c0,0.3-0.1,0.6-0.2,0.9c-0.1,0.3-0.3,0.5-0.5,0.7s-0.4,0.4-0.7,0.5s-0.5,0.2-0.8,0.2s-0.6-0.1-0.9-0.2
		c-0.3-0.1-0.5-0.3-0.7-0.5s-0.3-0.4-0.5-0.7c-0.1-0.3-0.2-0.6-0.2-0.9c0-0.3,0.1-0.6,0.2-0.9c0.1-0.3,0.3-0.5,0.5-0.7
		s0.4-0.4,0.7-0.5c0.5-0.2,1.1-0.2,1.6,0c0.3,0.1,0.5,0.3,0.7,0.5s0.4,0.4,0.5,0.7C700.8,38.2,700.8,38.5,700.8,38.9z M700.3,38.9
		c0-0.2,0-0.5-0.1-0.7c-0.1-0.2-0.2-0.4-0.4-0.6c-0.1-0.2-0.3-0.3-0.5-0.4c-0.2-0.1-0.4-0.1-0.6-0.1s-0.5,0-0.7,0.1
		s-0.4,0.2-0.5,0.4c-0.2,0.2-0.3,0.4-0.4,0.6c-0.1,0.2-0.1,0.5-0.1,0.7s0,0.5,0.1,0.7c0.1,0.2,0.2,0.4,0.3,0.6
		c0.1,0.2,0.3,0.3,0.5,0.4c0.2,0.1,0.5,0.2,0.7,0.2s0.4,0,0.6-0.1s0.4-0.2,0.5-0.4c0.2-0.2,0.3-0.4,0.4-0.6
		C700.3,39.4,700.3,39.1,700.3,38.9z M698.2,40.1h-0.4v-2.5h0.9c0.2,0,0.5,0.1,0.7,0.2c0.2,0.1,0.2,0.3,0.2,0.5s-0.1,0.4-0.2,0.5
		c-0.1,0.1-0.3,0.2-0.5,0.2l0.7,1.1h-0.5l-0.6-1h-0.4L698.2,40.1z M698.7,38.7h0.2c0.1,0,0.1,0,0.2,0c0.1,0,0.1-0.1,0.1-0.1
		c0-0.1,0-0.1,0-0.2c0-0.1,0-0.1,0-0.2l-0.1-0.1c-0.1,0-0.1,0-0.2,0h-0.7v0.7L698.7,38.7z"/>
  </g>
  <g id="Deloitte">
    <path d="M816,32.9c-0.9,0.4-1.9,0.6-2.8,0.8c-1.1,0.2-2.2,0.4-3.4,0.4c-3.8,0-6.7-1.3-7.2-4.2h16c0.2-1.2,0.4-2.2,0.4-3.4
		c0-6.8-3.4-13-12-13c-8.3,0-12.8,6.6-12.8,13.9c0,8.5,5.9,13.3,14.2,13.3c1.6,0,3.3-0.1,4.9-0.5c1.4-0.2,2.7-0.7,4-1.3L816,32.9
		L816,32.9z M806.9,19.5c2.4,0,4.2,2,4.1,4.3V24h-8.6c-0.1-2.4,1.8-4.5,4.1-4.5C806.7,19.5,806.8,19.5,806.9,19.5z"/>
    <path d="M940.7,32.9c-0.9,0.4-1.9,0.6-2.8,0.8c-1.2,0.2-2.2,0.4-3.4,0.4c-3.8,0-6.7-1.3-7.2-4.2h16.1c0.2-1.2,0.4-2.2,0.4-3.4
		c0-6.8-3.4-13-12-13c-8.3,0-12.8,6.6-12.8,13.9c0,8.5,5.9,13.3,14.2,13.3c1.6,0,3.3-0.1,4.9-0.5c1.4-0.2,2.7-0.7,4-1.3L940.7,32.9
		L940.7,32.9z M931.5,19.5c2.4,0.1,4.2,2,4.1,4.3V24H927c-0.1-2.4,1.8-4.5,4.1-4.5C931.3,19.5,931.4,19.5,931.5,19.5L931.5,19.5z"/>
    <polygon points="822.9,4.8 822.9,40.1 831.6,40.1 831.6,4.8 	"/>
    <path d="M849,40.7c6.8,0,13.6-4.2,13.6-13.9c0-5.6-3.4-13.3-13.3-13.3c-10.2,0-13.9,7.4-13.9,13.7C835.6,35.1,841.1,40.7,849,40.7z
		 M849.1,34.2c-2.8,0-4.7-2.8-4.7-7.1c0-3.4,1.3-7.2,4.7-7.2s4.6,3.8,4.6,7.1C853.7,31.4,851.8,34.2,849.1,34.2L849.1,34.2z"/>
    <polygon points="866.5,14 866.5,40.1 875.2,40.1 875.2,14 	"/>
    <polygon points="866.5,4.8 866.5,11.5 875.2,11.5 875.2,4.8 	"/>
    <path d="M882,6.9V14h-3.3v6.5h3.3v10.7c0,5.9,2.7,9.4,8.8,9.4c1.2,0,2.5-0.1,3.6-0.4c0.8-0.1,1.6-0.2,2.5-0.5l-0.1-6.8
		c-0.9,0.2-2,0.4-2.9,0.5c-0.9,0.1-1.8-0.2-2.5-0.8c-0.7-0.8-0.9-1.8-0.9-2.8v-9.2h5.6V14h-5.6V6L882,6.9L882,6.9z"/>
    <path d="M902.2,6.9V14h-3.3v6.5h3.3v10.7c0,5.9,2.7,9.4,8.8,9.4c1.2,0,2.5-0.1,3.6-0.4c0.8-0.1,1.6-0.2,2.5-0.5l-0.1-6.8
		c-0.9,0.2-2,0.4-2.9,0.5c-0.9,0.1-1.8-0.2-2.5-0.8c-0.7-0.8-1.1-1.8-0.9-2.8v-9.2h5.6V14h-5.6V6L902.2,6.9L902.2,6.9z"/>
    <path d="M947.4,35.9c0-2.7,2.1-4.8,4.8-4.8c2.7,0,4.8,2.1,4.8,4.8c0,2.7-2.1,4.8-4.8,4.8l0,0C949.5,40.7,947.4,38.4,947.4,35.9z"/>
    <path d="M773.2,33c-0.4,0-0.9,0-1.3,0h-2.8V11.4c0.9-0.1,2.1-0.1,2.9-0.1c5.1,0,10.5,3.3,10.5,10.8C782.6,30.1,777.6,32.7,773.2,33
		L773.2,33z M760.5,40.1h9.9c0.7,0,1.5,0,2.1,0c13.5-0.7,19-8.7,19-17.9c0-11.5-7.8-18-21.2-18c-3.4,0-6.5,0.1-9.9,0.5V40.1
		L760.5,40.1z"/>
  </g>
  <g id="Honeywell">
    <path d="M1253,37.3c0,0.3,0,0.5-0.1,0.9c-0.1,0.2-0.2,0.4-0.4,0.7c-0.2,0.2-0.4,0.3-0.7,0.4c-0.2,0.1-0.5,0.1-0.8,0.1
		c-0.3,0-0.5,0-0.8-0.1s-0.4-0.2-0.7-0.4c-0.2-0.2-0.3-0.4-0.4-0.7c-0.1-0.2-0.1-0.5-0.1-0.8c0-0.3,0-0.5,0.1-0.9
		c0.1-0.2,0.2-0.4,0.4-0.7c0.2-0.2,0.4-0.3,0.7-0.4c0.2-0.1,0.5-0.1,0.8-0.1s0.5,0,0.8,0.1c0.2,0.1,0.4,0.2,0.7,0.4
		c0.2,0.2,0.3,0.4,0.4,0.7C1253,36.7,1253,37,1253,37.3z M1252.6,37.3c0-0.2,0-0.4-0.1-0.7c-0.1-0.2-0.2-0.3-0.3-0.5
		c-0.1-0.1-0.3-0.2-0.4-0.3c-0.2-0.1-0.4-0.1-0.7-0.1s-0.4,0-0.7,0.1c-0.2,0.1-0.3,0.2-0.4,0.3c-0.1,0.1-0.2,0.3-0.3,0.5
		c-0.1,0.2-0.1,0.4-0.1,0.7c0,0.4,0.1,0.9,0.4,1.2c0.1,0.1,0.3,0.3,0.4,0.3c0.2,0.1,0.4,0.1,0.7,0.1s0.4,0,0.7-0.1
		c0.2-0.1,0.3-0.2,0.4-0.3s0.2-0.3,0.3-0.5C1252.6,37.7,1252.6,37.5,1252.6,37.3z M1250.6,38.5h-0.3v-2.2h0.9c0.2,0,0.4,0,0.7,0.1
		c0.1,0.1,0.2,0.3,0.2,0.5s0,0.3-0.2,0.4c-0.1,0.1-0.2,0.1-0.4,0.2l0.7,1h-0.4l-0.5-1h-0.3L1250.6,38.5z M1251,37.1h0.2h0.1l0.1-0.1
		c0-0.1,0-0.1,0-0.2c0,0,0-0.1,0-0.2l-0.1-0.1h-0.1h-0.7v0.7H1251z"/>
    <polyline fill-rule="evenodd" clip-rule="evenodd" points="1016,5 1026.4,5 1026.4,19.1 1034.6,19.1 1034.6,5 1045,5 1045,39 
		1034.6,39 1034.6,23.4 1026.3,23.4 1026.3,38.8 1016,38.8 1016,5 	"/>
    <path d="M1045.1,39.2h-10.7V23.6h-7.9V39h-10.8V4.9h10.9V19h7.8V4.8h10.7V39.2z M1034.7,38.8h9.9V5.2h-9.9v14.1h-8.5V5.2h-10v33.3
		h9.9V23.2h8.6V38.8z"/>
    <path fill-rule="evenodd" clip-rule="evenodd" d="M1061.5,13.3c2.1-0.1,4.2,0.2,6.1,0.9c2.8,0.9,5.2,2.8,6.7,5.5
		c1.9,3.6,2.2,7.9,0.8,11.8c-1,2.9-3.2,5.4-5.9,6.7c-2.3,1.1-4.8,1.5-7.3,1.4c-2.7,0-6.3-0.7-8.6-2.5c-2.3-1.6-3.9-4-4.7-6.8
		c-0.8-2.8-1.2-7.9,1.9-11.8c2.1-2.7,5.1-4.6,8.5-5C1059.6,13.4,1060.5,13.3,1061.5,13.3z M1065,19c0.4,1.3,0.7,2.7,0.7,4.2
		c0,3.4,0,7.3,0,8.1c-0.1,1.6-0.7,3.8-2.1,5c-1.4,1.2-2.9,0.7-4-0.9s-1.3-2.9-1.3-7.3s-0.1-7.3,0.7-9.1c0.8-1.7,1.6-2.5,2.4-2.6
		C1063,16,1064.2,17,1065,19"/>
    <path d="M1061.8,39.9c-1.6,0-5.9-0.2-8.8-2.5c-2.3-1.6-4-4.2-4.8-6.9c-0.4-1.6-1.5-7.4,1.9-12c2.1-2.8,5.2-4.6,8.6-5.1
		c0.9-0.1,1.9-0.2,2.7-0.2v0.2v-0.1c2.1-0.1,4.2,0.2,6.2,0.9c2.8,1,5.2,2.9,6.8,5.6c1.9,3.7,2.2,8.1,0.8,12c-1,2.9-3.2,5.4-5.9,6.8
		C1067,39.5,1064.3,40,1061.8,39.9z M1061.3,13.5c-0.9,0-1.6,0.1-2.5,0.2c-3.4,0.4-6.3,2.2-8.4,4.9c-3.3,4.4-2.2,10-1.7,11.7
		c0.8,2.7,2.4,5,4.6,6.7c2.7,2.2,6.9,2.5,8.5,2.5c2.5,0.1,5-0.4,7.2-1.4c2.7-1.3,4.7-3.7,5.7-6.6c1.3-3.8,1.1-8-0.8-11.6
		c-1.4-2.6-3.7-4.6-6.6-5.5c-2-0.7-3.9-0.9-6-0.9l0,0V13.5z M1061.9,37.1h-0.3c-0.9-0.2-1.7-0.8-2.2-1.5c-1-1.5-1.4-2.8-1.3-7.4
		c0-1,0-1.9,0-2.7c0-2.9,0-5.1,0.7-6.6c0.8-1.6,1.6-2.6,2.6-2.7c1.6-0.3,3.1,0.7,3.9,2.8l0,0c0.4,1.3,0.7,2.7,0.7,4.2
		c0,3.3,0,7.3,0,8.2c0,0.9-0.4,3.7-2.1,5.1C1063.3,36.9,1062.6,37.1,1061.9,37.1z M1061.9,16.5c-0.2,0-0.3,0-0.5,0
		c-0.8,0.1-1.5,1-2.3,2.5c-0.7,1.3-0.7,3.4-0.7,6.3c0,0.9,0,1.7,0,2.7c-0.1,4.5,0.3,5.8,1.3,7.2c0.4,0.8,1.1,1.2,2,1.4
		c0.7,0.1,1.3-0.1,1.7-0.5c1.5-1.3,1.9-4,2-4.9c0.1-0.9,0.1-4.8,0-8.1c0-1.3-0.2-2.7-0.7-3.9l0,0
		C1064.2,17.9,1063.4,16.5,1061.9,16.5L1061.9,16.5z"/>
    <path fill-rule="evenodd" clip-rule="evenodd" d="M1088.4,21.1v17.7h-9.7V14.2h9.7v3.3c0.9-1.2,2-2.2,3.3-2.8
		c2.7-1.4,6-1.5,8.8-0.3c2.4,1,3.9,3.3,4.2,5.8v18.8h-9.6V21.6c0.1-1-0.2-1.9-0.8-2.6c-1-0.9-2.3-1-3.5-0.3
		C1089.6,19.4,1088.2,20.9,1088.4,21.1"/>
    <path d="M1088.6,39h-10.2V14h10.2v2.9c0.8-1,1.7-1.9,2.9-2.5c2.8-1.4,6.1-1.5,9.1-0.3c2.4,1,4,3.3,4.3,6V39h-9.9V21.6
		c0.1-0.9-0.2-1.7-0.8-2.4c-0.9-0.8-2.2-0.9-3.2-0.3s-1.7,1.2-2.4,2.1l0,0V39z M1078.9,38.7h9.3V21.2v-0.1c0.7-1.1,1.5-1.9,2.6-2.5
		c1.2-0.7,2.7-0.5,3.7,0.4c0.7,0.8,0.9,1.7,0.9,2.7v16.9h9.2V20.1c-0.1-2.5-1.6-4.7-4-5.6c-2.8-1.1-6-1-8.7,0.3
		c-1.2,0.7-2.3,1.6-3.2,2.7c-0.1,0.1-0.1,0.1-0.2,0.2h-0.2v-3.3h-9.4L1078.9,38.7z"/>
    <path fill-rule="evenodd" clip-rule="evenodd" d="M1117.8,24.7c0-1.6,0-3.2,0.2-4.7c0.2-1.3,0.9-2.5,1.9-3.4
		c1.2-0.8,2.7-0.7,3.8,0.3c0.7,0.7,1.1,1.4,1.4,2.3c0.2,1.1,0.4,2.2,0.4,3.3c0,1.4,0,2.2,0,2.2H1117.8z M1109.1,20.1
		c2-3.9,6.9-7,12.9-6.7c6,0.3,9.6,2.5,11.7,6.6c1.2,2.5,1.6,5.2,1.5,8.1h-17.5v5c0.1,0.5,0.3,1.1,0.5,1.5c0.4,0.5,2,2.6,6.8,1.9
		c5.2-0.9,5.1-4.6,5.2-4.6h4.2c-0.1,1.5-0.7,3.1-1.7,4.2c-2.3,2.1-5.1,3.4-8.2,3.7c-3.4,0.3-8.3,0.4-12.2-2.8
		c-1.9-1.5-3.3-3.6-4-5.9C1107.3,27.3,1107.6,23.5,1109.1,20.1"/>
    <path d="M1121.5,40c-3.4,0.1-6.7-1-9.3-3.1c-1.9-1.5-3.3-3.6-4-6c-1.1-3.6-0.8-7.5,0.9-11l0,0c1.9-3.6,6.6-7.1,13.1-6.8
		c5.9,0.3,9.6,2.4,11.9,6.8c1.2,2.6,1.7,5.5,1.5,8.3v0.1h-0.1h-17.4v4.8l0,0c0.1,0.5,0.2,1,0.5,1.4c1.5,2.1,4.4,2.1,6.6,1.7
		c2.2-0.3,4.6-1.3,5-4.3c0-0.2,0-0.3,0.2-0.3h4.4v0.2c-0.1,1.6-0.8,3.2-1.9,4.3c-2.3,2.1-5.2,3.4-8.4,3.7
		C1123.6,40,1122.6,40,1121.5,40z M1109.4,20.1c-1.6,3.4-1.9,7.1-0.9,10.7c0.8,2.3,2.1,4.3,3.9,5.8c3.8,3.2,8.4,3.2,12,2.7
		c3.1-0.3,5.9-1.6,8.1-3.6c1-1,1.5-2.4,1.7-3.8h-3.8c-0.5,3.2-3.2,4.3-5.4,4.6c-3.2,0.5-5.6-0.1-6.9-2c-0.3-0.5-0.5-1.1-0.7-1.6
		v-5.2h0.2h17.3c0.1-2.6-0.4-5.4-1.5-7.8c-2.2-4.2-5.8-6.2-11.6-6.4C1115.7,13.2,1111,16.6,1109.4,20.1L1109.4,20.1z M1125.7,25
		h-0.3h-7.9v-0.2c0-1.6,0-3.2,0.2-4.8c0.2-1.3,0.9-2.6,2-3.5c1.3-0.9,2.9-0.7,4,0.3c0.7,0.7,1.1,1.4,1.4,2.4v0.1
		c0.2,1.1,0.4,2.2,0.4,3.4c0,1.9,0,2.2,0,2.2L1125.7,25z M1118,24.6h7.2c0-0.3,0-0.9,0-2s-0.1-2.2-0.3-3.2v-0.1
		c-0.2-0.9-0.7-1.6-1.3-2.2c-1-0.9-2.4-1-3.5-0.2c-1,0.9-1.6,2-1.9,3.3C1118.1,21.5,1118,23.1,1118,24.6L1118,24.6z"/>
    <path fill-rule="evenodd" clip-rule="evenodd" d="M1206.1,24.7c0-1.6,0-3.2,0.2-4.7c0.2-1.3,0.9-2.5,1.9-3.4
		c1.2-0.8,2.7-0.7,3.8,0.3c0.7,0.7,1.1,1.4,1.4,2.3c0.2,1.1,0.4,2.2,0.4,3.3c0,1.4,0,2.2,0,2.2H1206.1z M1197.5,20.1
		c2-3.9,6.9-7,12.9-6.7c6,0.3,9.6,2.5,11.7,6.6c1.2,2.5,1.6,5.2,1.5,8.1h-17.5v5c0.1,0.5,0.3,1.1,0.5,1.5c0.4,0.5,2,2.6,6.8,1.9
		c5.2-0.9,5.1-4.6,5.2-4.6h4.2c-0.1,1.5-0.8,3.1-1.7,4.2c-2.3,2.1-5.1,3.4-8.2,3.7c-3.4,0.3-8.3,0.4-12.2-2.8
		c-1.9-1.5-3.3-3.6-4-5.9C1195.6,27.3,1196,23.5,1197.5,20.1"/>
    <path d="M1209.9,40c-3.4,0.1-6.7-1-9.3-3.1c-1.9-1.5-3.3-3.6-4-6c-1.1-3.6-0.8-7.5,0.9-11l0,0c1.7-3.6,6.6-7.1,13.1-6.8
		c5.9,0.3,9.6,2.4,11.9,6.8c1.2,2.6,1.7,5.5,1.5,8.3l-0.1,0.1h-0.1h-17.3v4.8l0,0c0.1,0.5,0.2,1,0.5,1.4c1.2,1.6,3.5,2.2,6.6,1.7
		c2.1-0.3,4.6-1.3,5-4.3c0-0.2,0-0.3,0.2-0.3h4.4v0.2c-0.1,1.6-0.8,3.2-1.9,4.3c-2.3,2.1-5.2,3.4-8.3,3.7
		C1211.9,40,1210.9,40,1209.9,40z M1209.6,13.5c-5.9,0-10.3,3.3-11.9,6.6l0,0c-1.5,3.4-1.9,7.1-0.9,10.7c0.8,2.3,2.1,4.3,3.9,5.8
		c3.8,3.2,8.4,3.2,12,2.7c3.1-0.3,5.9-1.5,8.2-3.6c1-1,1.6-2.4,1.7-3.8h-3.7c-0.5,3.2-3.2,4.3-5.4,4.6c-3.3,0.5-5.6-0.1-7-2
		c-0.3-0.5-0.5-1.1-0.7-1.6v-5.2h0.2h17.3c0.1-2.6-0.4-5.4-1.5-7.8c-2.2-4.2-5.8-6.2-11.6-6.4L1209.6,13.5z M1214.1,25h-0.3h-7.9
		v-0.2c0-1.6,0-3.2,0.2-4.8c0.2-1.3,0.9-2.6,2-3.5c1.3-0.9,2.9-0.7,4,0.3c0.7,0.7,1.2,1.4,1.4,2.4v0.1c0.3,1.1,0.4,2.2,0.4,3.4
		c0,1.9,0,2.2,0,2.2L1214.1,25z M1206.4,24.6h7.2c0-0.3,0-0.9,0-2s-0.1-2.2-0.4-3.2v-0.1c-0.2-0.9-0.7-1.6-1.3-2.2
		c-1-0.9-2.4-1-3.5-0.2c-1,0.9-1.6,2-1.9,3.3C1206.5,21.5,1206.4,23.1,1206.4,24.6z"/>
    <path fill-rule="evenodd" clip-rule="evenodd" d="M1134.5,14.2h10.6l4.5,11.7l4.8-11.7h13.3l4.3,13.8l3.7-13.9h8.5l4.2,13.7
		l3.7-13.7h4.4l-6.8,24.7h-8l-4.5-14.4l-3.9,14.4h-8l-7.3-23.7l-10.3,25.1c0,0-1.4,4.2-3.3,5.7c-1.9,1.9-4.5,2.7-7.1,2.2
		c-3.3-0.5-4.6-2.3-4.8-4.4c-0.3-2.1,1-4.2,3.2-4.6c2.3-0.4,3.8,0.4,4.4,1.5c0.5,1,0.7,2.1,0.3,3.1c-0.2,0.4-0.4,0.9-0.9,1.2
		c1,0.1,1.9-0.2,2.5-0.9c1-1.1,1.6-2.4,2.1-3.8c0.1-0.3,0.2-0.7,0.2-1L1134.5,14.2"/>
    <path d="M1139,48.5c-0.5,0-1.1-0.1-1.6-0.1c-3.1-0.5-4.7-2.1-5-4.5c-0.4-2.2,1.1-4.4,3.3-4.8c2.5-0.5,4,0.5,4.6,1.6
		c0.5,1,0.7,2.2,0.3,3.3c-0.1,0.3-0.3,0.7-0.5,0.9c0.8,0,1.4-0.3,1.9-0.9c1-1.1,1.6-2.3,2.1-3.7c0.1-0.3,0.1-0.5,0.2-0.9l-9.9-25.5
		h11l0.1,0.1l4.4,11.3l4.7-11.4h13.7v0.1l4,13.1l3.7-13.2h8.8l4,13.1l3.6-13.1h4.8l-6.9,25.1h-8.5V39l-4.3-13.7l-3.8,13.9h-8.5
		l-7.2-23.4l-10.1,24.5c0,0.1-1.5,4.2-3.4,5.8C1143.1,47.5,1141,48.4,1139,48.5z M1136.8,39.3c-0.3,0-0.8,0-1.1,0.1
		c-2,0.4-3.3,2.4-2.9,4.4c0.3,2.3,1.9,3.6,4.7,4.2c2.5,0.5,5.1-0.3,6.9-2.2c1.7-1.5,3.2-5.6,3.3-5.7l10.3-25.1h0.4l7.2,23.7h7.9
		l3.9-14.2h0.4l4.4,14.2h7.6l6.7-24.3h-3.9l-3.7,13.4h-0.4l-4.2-13.4h-8.2l-3.7,13.7h-0.4l-4.3-13.7h-13l-4.8,11.6h-0.4l-4.5-11.6
		h-10.2l9.7,25c0,0.3-0.1,0.7-0.2,1c-0.4,1.4-1.2,2.7-2.2,3.8c-0.7,0.8-1.7,1.2-2.7,1l-0.3-0.1l0.3-0.2c0.3-0.3,0.5-0.7,0.8-1.1
		c0.2-1,0.1-2.1-0.3-2.9C1139.2,39.9,1138,39.2,1136.8,39.3L1136.8,39.3z"/>
    <polyline fill-rule="evenodd" clip-rule="evenodd" points="1226.6,5 1236,5 1236,38.9 1226.6,38.9 1226.6,5 	"/>
    <path d="M1236.2,39.1h-9.7V4.8h9.7V39.1z M1226.8,38.7h8.8V5.2h-8.8V38.7z"/>
    <polyline fill-rule="evenodd" clip-rule="evenodd" points="1238.8,5 1248.2,5 1248.2,38.9 1238.8,38.9 1238.8,5 	"/>
    <path d="M1248.4,39.1h-9.7V4.8h9.7V39.1z M1239,38.7h9V5.2h-9V38.7z"/>
  </g>
  <g id="VISA">
    <path d="M1444,45.8h-10c-0.4-1.8-0.8-3.5-1.1-5.2c-0.1-0.7-0.4-1-1.2-1c-4,0-8,0-12,0c-0.5-0.1-0.9,0.3-1,0.7
		c-0.6,1.7-1.2,3.3-1.8,4.9c-0.1,0.2-0.4,0.5-0.6,0.5c-3.6,0-7.2,0-10.9,0c0.7-1.6,1.3-3.2,2-4.7c4.7-11.1,9.3-22.2,13.9-33.3
		c0.7-2.2,2.8-3.6,5.1-3.4h8.8c0.3,1.4,0.6,2.7,0.8,4c2.3,11,4.6,22,6.8,32.9c0.3,1.4,0.6,2.8,1,4.2L1444,45.8z M1430.9,31.1
		c-1.1-5.1-2.1-10.1-3.2-15.1h-0.1l-5.5,15.1H1430.9z"/>
    <path d="M1400.5,3.7c1.3,0.2,2.6,0.4,3.9,0.8c1.3,0.4,2.4,0.6,3.6,1l-1.8,8.6c-1.7-0.5-3.3-1-4.9-1.4c-2.2-0.5-4.6-0.6-6.8,0
		c-0.9,0.3-1.8,0.7-2.6,1.4c-1,0.8-1.2,2.2-0.5,3.3c0.1,0.2,0.3,0.3,0.4,0.4c0.8,0.8,1.8,1.4,2.7,2c2.2,1.3,4.5,2.5,6.6,3.8
		c2.5,1.5,4.3,4.1,4.7,7c0.8,5.1-1.5,10.1-5.9,12.7c-2.7,1.8-6,2.8-9.4,3.1c-4.7,0.4-9.4-0.1-13.9-1.6c-0.3-0.1-0.6-0.2-0.9-0.3
		c-0.1-0.1-0.2-0.1-0.3-0.2c0.6-3,1.3-6,1.9-9c0.8,0.3,1.5,0.7,2.2,1c3.4,1.5,7.2,2,10.9,1.4c1-0.2,2-0.6,2.8-1.2
		c1.4-0.9,1.9-2.7,1-4.1c-0.2-0.3-0.4-0.6-0.7-0.8c-1.1-0.9-2.3-1.7-3.6-2.4c-1.9-1.3-3.9-2.3-5.7-3.6c-2.4-1.6-4-4.1-4.3-6.9
		c-0.5-4.2,1.2-8.3,4.6-10.9c3-2.3,6.5-3.7,10.3-4c0.2,0,0.4-0.1,0.6-0.1L1400.5,3.7z"/>
    <path d="M1361.8,4.4l-1.6,3.9c-5.2,12.3-10.3,24.5-15.5,36.8c-0.1,0.5-0.6,0.8-1.1,0.7c-3.2,0-6.5,0-9.7,0c-0.7,0-0.9-0.2-1.1-0.8
		c-2.7-10.7-5.5-21.4-8.3-32.1c-0.4-1.9-1.6-3.4-3.4-4.1c-3-1.3-6.1-2.3-9.3-3l-0.3-0.2c0-1.2,0-1.2,1.2-1.2h17
		c2.5-0.1,4.8,1.7,5.1,4.2c1.4,7.5,2.9,15.1,4.3,22.6c0.1,0.3,0.1,0.7,0.2,1.1c0.1-0.2,0.2-0.4,0.3-0.6c3.5-8.9,7.1-17.8,10.6-26.7
		c0.1-0.5,0.5-0.7,1-0.6c3.3,0,6.6,0,9.9,0L1361.8,4.4z"/>
    <path d="M1357.5,45.8c3-13.8,5.9-27.6,8.8-41.4h10.7c-0.4,2.1-0.9,4.2-1.3,6.2c-2.4,11.4-4.9,22.8-7.3,34.2c-0.2,0.8-0.5,1-1.3,1
		c-2.9,0-5.9,0-8.8,0H1357.5z"/>
    <path d="M1450.7,42.6c0,0.3-0.1,0.7-0.2,1s-0.3,0.6-0.5,0.8s-0.5,0.4-0.8,0.5c-0.6,0.2-1.3,0.2-1.9,0c-0.3-0.1-0.6-0.3-0.8-0.5
		s-0.4-0.5-0.5-0.8s-0.2-0.7-0.2-1s0.1-0.7,0.2-1s0.3-0.6,0.5-0.8s0.5-0.4,0.8-0.5c0.6-0.2,1.3-0.2,1.9,0c0.3,0.1,0.6,0.3,0.8,0.5
		s0.4,0.5,0.5,0.8C1450.7,41.9,1450.7,42.2,1450.7,42.6z M1450.2,42.6c0-0.3,0-0.6-0.1-0.8s-0.2-0.5-0.4-0.7
		c-0.2-0.2-0.4-0.3-0.6-0.4c-0.2-0.1-0.5-0.2-0.7-0.2c-0.3,0-0.5,0-0.8,0.2c-0.2,0.1-0.4,0.2-0.6,0.4s-0.3,0.4-0.4,0.7
		s-0.1,0.5-0.1,0.8s0,0.5,0.1,0.8c0.1,0.2,0.2,0.5,0.4,0.6c0.2,0.2,0.4,0.3,0.6,0.4c0.3,0.1,0.5,0.2,0.8,0.2c0.3,0,0.5,0,0.7-0.2
		c0.2-0.1,0.4-0.2,0.6-0.4c0.2-0.2,0.3-0.4,0.4-0.7C1450.2,43.2,1450.2,42.9,1450.2,42.6z M1447.8,44h-0.4v-2.8h1
		c0.3,0,0.5,0,0.8,0.2c0.2,0.1,0.3,0.4,0.3,0.6c0,0.2-0.1,0.4-0.2,0.5s-0.3,0.2-0.5,0.2l0.8,1.2h-0.5l-0.7-1.1h-0.4V44H1447.8z
		 M1448.3,42.5h0.3c0.1,0,0.1,0,0.2-0.1c0.1,0,0.1-0.1,0.1-0.1c0-0.1,0.1-0.2,0.1-0.2c0-0.1,0-0.1-0.1-0.2c0-0.1-0.1-0.1-0.1-0.1
		c-0.1,0-0.1,0-0.2,0h-0.8v0.8L1448.3,42.5z"/>
  </g>
  <g id="Sony">
    <path d="M1582.6,6.2c-7.3,0-15.1,2.5-19.4,6.5c-3.4,3-5.3,7.4-5.3,12s1.9,9,5.3,12c4.8,4.2,11.8,6.5,19.4,6.5
		c7.7,0,14.8-2.2,19.4-6.5c3.3-3.2,5.2-7.4,5.2-12c0-4.5-1.9-8.9-5.2-12C1597.1,8.2,1590.6,6.2,1582.6,6.2 M1593,34.4
		c-2.8,2.6-6.6,4.1-10.4,4c-3.8,0.1-7.7-1.3-10.4-4c-5-5.4-5-13.9,0-19.3c6-5.3,14.9-5.3,20.9,0c2.5,2.6,3.8,6.1,3.8,9.7
		C1597,28.3,1595.5,31.7,1593,34.4"/>
    <path d="M1544.2,22.6c-1.3-0.5-2.6-1.1-4.1-1.5c-2.6-0.7-8.6-1.5-11.5-1.7c-3.4-0.3-6.9-0.7-10.3-1.3c-1.1-0.4-1.9-1.3-1.9-2.4
		c0-1.2,0.7-2.1,1.7-2.6c1.9-1.2,5.6-1.9,9.5-1.9c3.7,0,7.5,0.7,11,2.1c0.9,0.4,1.9,0.9,2.6,1.6c1.3,1.1,2.2,2.6,2.5,4.2h4.1V7.8
		h-4.6v1.3c0,0.4-0.4,0.9-1.3,0.5c-4.8-2.2-9.9-3.4-15.1-3.4c-4.4,0-8.6,0.8-12.7,2.5c-3.6,1.6-6.6,4.2-6.6,8.6
		c0,2.2,0.8,4.5,2.4,6.1c2,1.9,4.5,3.2,7.1,3.6c2,0.4,6.2,1.1,10.4,1.6c4.2,0.5,8.3,0.9,10.1,1.3c1.3,0.4,3.6,0.8,3.6,3.3
		c-0.1,1.6-1.2,3-2.8,3.4c-2.6,1.1-5.6,1.6-8.3,1.5c-3.4-0.1-6.7-0.7-9.9-1.7c-2.2-0.7-4.2-2-5.8-3.8c-0.8-1.1-1.2-2.4-1.2-3.7h-4.5
		v13h5.2v-1.9c0-0.4,0.3-0.8,0.7-0.8c0.1,0,0.3,0,0.4,0.1c2.4,1.1,4.9,1.9,7.5,2.4c2.5,0.7,5.2,0.9,7.8,0.9c3.6,0,7.1-0.4,10.4-1.5
		c2.2-0.7,4.4-1.7,6.2-3c2.1-1.6,3.3-4.1,3.3-6.9c0-2.5-0.9-4.9-2.6-6.7C1546.7,23.9,1545.5,23.1,1544.2,22.6"/>
    <path d="M1644.3,12.4h4.2c2,0,2.2,0.8,2.4,2.5l0.3,13.8l-22.8-20.4h-16.1v4.1h3.6c2.6,0,2.8,1.5,2.8,2.6v19.3c0,1.2,0,2.8-1.6,2.8
		h-4.5v4.1h19v-4.1h-4.6c-1.9,0-2-0.8-2-2.6V18l26.1,23.3h6.6l-0.4-26.3c0-2,0.1-2.5,2.1-2.5h4.2V8.3h-19.3
		C1644.3,8.3,1644.3,12.4,1644.3,12.4z"/>
    <path d="M1699,37l-0.9-0.8l-0.1-0.9v-6.5l0.1-0.7l12.6-14.3c0.7-1.1,2-1.7,3.3-1.6h4.1v-4h-18.6v4.1h2.8c0.4,0,0.8,0.3,0.9,0.7
		c0,0.3,0,0.4-0.3,0.7l-7.9,9.3h-0.3l-7.7-9.3c-0.5-0.7-0.1-1.3,0.5-1.3h2.8V8.3h-22.6v4.1h4c1.5,0,2.8,0.7,3.7,1.9
		c0.5,0.5,12,13.6,12.4,14l0.3,0.5v6.5l-0.1,0.9l-0.9,0.8h-1.1h-4.1v4.1h22.6V37h-4.2H1699z"/>
    <path d="M1713.8,38.7c0,0.4-0.1,0.8-0.3,1.2c-0.1,0.4-0.4,0.7-0.5,0.9c-0.3,0.3-0.5,0.4-0.9,0.5c-0.4,0.1-0.7,0.3-1.1,0.3
		c-0.8,0-1.5-0.3-2-0.8c-0.3-0.3-0.4-0.5-0.5-0.9c-0.1-0.4-0.3-0.8-0.1-1.1c0-0.4,0-0.8,0.3-1.2c0.1-0.3,0.4-0.7,0.7-0.9
		s0.5-0.4,0.9-0.5c0.7-0.3,1.5-0.3,2.1,0s1.2,0.8,1.5,1.5C1713.8,37.9,1713.8,38.3,1713.8,38.7z M1713.2,38.7c0-0.3,0-0.7-0.1-0.9
		c-0.1-0.3-0.3-0.5-0.4-0.8c-0.1-0.3-0.4-0.4-0.7-0.5c-0.5-0.3-1.2-0.3-1.7,0c-0.3,0.1-0.5,0.3-0.7,0.5c-0.3,0.3-0.4,0.5-0.4,0.8
		c-0.1,0.3-0.1,0.7-0.1,0.9s0,0.7,0.1,0.9s0.3,0.5,0.4,0.8c0.1,0.3,0.4,0.4,0.7,0.5c0.3,0.1,0.5,0.1,0.9,0.1c0.3,0,0.5,0,0.8-0.1
		c0.3-0.1,0.5-0.3,0.7-0.5c0.1-0.3,0.4-0.4,0.4-0.7C1713.1,39.4,1713.2,39.1,1713.2,38.7z M1710.6,40.3h-0.5v-3.2h1.2
		c0.3,0,0.5,0,0.8,0.3c0.3,0.1,0.3,0.4,0.3,0.7c0,0.3-0.1,0.4-0.3,0.7c-0.1,0.1-0.4,0.3-0.5,0.3l0.9,1.3h-0.5l-0.8-1.3h-0.5V40.3
		L1710.6,40.3z M1711.1,38.6h0.3c0.1,0,0.1,0,0.3,0l0.1-0.1c0-0.1,0-0.1,0-0.3c0-0.1,0-0.1,0-0.3l-0.1-0.1h-0.3h-0.8v0.9
		L1711.1,38.6z"/>
  </g>
  <g id="Yale">
    <path d="M1775.7,8.2c3.8-0.1,4.9,2.2,5.9,3.2l-0.2-0.3l9.6,16.2v10.6c0,1.2-3,2.3-6.4,2.3v1.4h17.5v-1.4h0.1
		c-3.4,0-6.4-0.9-6.4-3.9v-9.6l9.4-15.3l0,0c0.9-1,2-3.3,5.8-3.3c0.1,0,0.1,0,0,0V6.9h-12.5v1.3c2.3,0,4.5,0.8,4.5,1.7l-8.5,13.9
		l-8.3-14.1c0.3-0.7,2.3-1.5,4.5-1.5V6.9h-15.1"/>
    <path d="M1837.9,38.4V5.6l1.1-1.7V3h-1.1l-8,2.4v1.1c2,0,3.5,0.6,3.5,1.5v30.5c0,0.9-2,1.6-3.6,1.6v1.4h12.1v-1.4
		C1839.6,40.3,1837.9,39.3,1837.9,38.4z"/>
    <path d="M1863.7,35.8c-1.6,1.9-3.9,3-6.5,3c-4.8,0-8.4-4.1-8.4-9.6c0-0.8,0.2-2.8,0.2-2.8h14.8c0-1.6,0-4.5-1.6-6.4
		s-3.3-2.6-6.3-2.6c-5.5,0-11.6,4.3-11.6,13.8c0,6.6,4.7,10.9,9.8,10.9c3.4,0,6.1-0.6,10.4-4.9L1863.7,35.8z M1854.6,19.2
		c3.6,0,4.8,4.1,4.8,5.7h-10.2C1849.2,23,1851.1,19.2,1854.6,19.2z"/>
    <path d="M1826.3,38.9c-1.1,0.1-2.2-0.7-2.2-2l0,0V22.6c0-1.9-1.4-5.1-6.2-5.1c-4.8,0-10.1,3.9-10.1,7.5l4.5-0.9
		c0-2.4,1.4-4.5,3-4.5c1.1,0,4.4,1.1,4.4,5.2v3.6l-11.2,4.1c-0.7,1.4-1.1,2.9-1.1,4.5c0.1,2.8,2.4,5.1,5.3,5c0.1,0,0.1,0,0.2,0
		c3.7,0,6.9-3.4,6.9-3.4c0-0.1,0-0.1,0.1-0.2l0,0c0.1,2,1.8,3.6,3.7,3.6c2.7,0,5.1-2.2,5.8-2.9v-1.6
		C1828.4,38.3,1827.4,38.8,1826.3,38.9z M1814.7,39.3c-2.5,0-3.2-3.1-2.2-6.4l7-3v7.4C1818.2,38.6,1816.5,39.3,1814.7,39.3
		L1814.7,39.3z"/>
  </g>
</svg>
