<svg width="157" height="34" viewBox="0 0 157 34" fill="none" xmlns="http://www.w3.org/2000/svg">
<path fill-rule="evenodd" clip-rule="evenodd" d="M2.16047 22.025C3.93993 21.2879 5.98262 22.1408 6.71968 23.9202C7.45673 25.7102 6.60385 27.7529 4.82439 28.49C3.04493 29.227 1.00224 28.3742 0.265186 26.5947C-0.471869 24.8047 0.381009 22.762 2.16047 22.025ZM18.9758 5.178C25.2408 5.49388 30.0632 10.8428 29.7474 17.1183C29.4315 23.3938 24.0826 28.2267 17.8176 27.9003C11.5526 27.5845 6.73021 22.2355 7.04609 15.9601C7.36197 9.68456 12.7109 4.86212 18.9758 5.178Z" fill="#12CCCB"/>
<path fill-rule="evenodd" clip-rule="evenodd" d="M57.4379 10.5481L57.4589 10.5692V18.6136C57.4589 20.393 56.943 21.7619 55.9216 22.7411C54.9003 23.7203 53.6263 24.2047 52.11 24.2047C50.6043 24.2047 49.3303 23.7203 48.2773 22.7516C47.2349 21.7829 46.7085 20.4036 46.7085 18.6136V10.5692H48.33V18.6136C48.33 19.8876 48.6985 20.8879 49.425 21.6039C50.1516 22.3199 51.0466 22.6779 52.1206 22.6779C53.184 22.6779 54.079 22.3094 54.7845 21.5829C55.4899 20.8563 55.8479 19.856 55.8479 18.5925V10.5481H57.4379V10.5481ZM65.8087 10.5481C66.9143 10.5481 67.883 10.7166 68.6938 11.0535C69.5045 11.3904 70.1784 12.0117 70.7049 12.9277L69.4835 13.6964C69.1465 13.1488 68.6516 12.7277 67.9883 12.4539C67.3249 12.1696 66.6089 12.0222 65.8403 12.0117C64.9137 12.0117 64.1135 12.2012 63.4396 12.5803C62.7657 12.9593 62.4288 13.5174 62.4288 14.2544C62.4288 14.5914 62.513 14.8862 62.692 15.1389C62.8605 15.3916 63.1343 15.5917 63.4923 15.7601C63.8503 15.9181 64.2082 16.0549 64.5768 16.1392C64.9453 16.2339 65.3981 16.3287 65.9561 16.4129C66.5984 16.5077 67.1144 16.6025 67.5145 16.6972C67.9041 16.7815 68.3673 16.9289 68.8727 17.1184C69.3887 17.3079 69.7783 17.5291 70.0626 17.7818C70.3469 18.0345 70.589 18.3714 70.7891 18.8031C70.9891 19.2348 71.0944 19.7402 71.0944 20.3088C71.0944 21.0037 70.9365 21.625 70.6206 22.1409C70.3047 22.6674 69.8836 23.0675 69.3676 23.3623C68.8412 23.6466 68.2831 23.8572 67.6935 23.9941C67.1038 24.131 66.4826 24.2047 65.8298 24.2047C64.5978 24.2047 63.4923 23.9625 62.5236 23.4676C61.5443 22.9727 60.8283 22.2146 60.3545 21.1722L61.6812 20.3825C62.0708 21.1196 62.6604 21.6881 63.4291 22.0883C64.1977 22.4884 65.0085 22.6884 65.8403 22.6884C66.272 22.6884 66.6932 22.6463 67.0933 22.5726C67.4934 22.4989 67.883 22.3726 68.262 22.1936C68.6411 22.0146 68.9359 21.7619 69.1676 21.4354C69.3992 21.109 69.5045 20.7089 69.5045 20.2456C69.5045 19.856 69.4098 19.5191 69.2202 19.2348C69.0307 18.9505 68.7464 18.7189 68.3568 18.5399C67.9778 18.3609 67.5882 18.224 67.1986 18.1292C66.809 18.0345 66.3352 17.9397 65.7666 17.8449C65.1769 17.7607 64.6821 17.6659 64.282 17.5712C63.8818 17.4764 63.4501 17.3395 62.9763 17.1605C62.513 16.9815 62.134 16.7709 61.8497 16.5288C61.5654 16.2866 61.3337 15.9707 61.1337 15.5706C60.9336 15.1705 60.8494 14.7282 60.8494 14.2123C60.8389 13.5595 60.9863 12.9909 61.2811 12.496C61.5864 12.0011 61.9866 11.6221 62.4814 11.3483C62.9763 11.0746 63.5133 10.8745 64.0714 10.7376C64.6294 10.6007 65.2085 10.5481 65.8087 10.5481ZM43.4023 10.5481V18.5925C43.4233 20.2772 42.939 21.6355 41.9492 22.6674C40.9594 23.6993 39.6328 24.2047 37.9796 24.2047C36.8951 24.2047 35.9475 23.973 35.1367 23.5203C35.3473 23.0254 35.5368 22.52 35.7053 22.004C36.3265 22.4252 37.0741 22.6358 37.9796 22.6358C39.1484 22.6358 40.075 22.2673 40.7594 21.5302C41.4438 20.7932 41.7913 19.8139 41.7913 18.5925V10.5481H43.4023V10.5481ZM82.2556 10.5481V12.0222H77.8753V23.7835H76.2959V12.0222H71.9157V10.5481H82.2556ZM87.2149 10.5481V23.794H85.5618V10.5481H87.2149ZM92.4901 10.5481L100.492 20.6879V10.5481H102.093V23.794H100.977L92.9534 13.6964V23.794H91.3529V10.5481H92.4901V10.5481ZM108.2 10.5481L112.864 17.3606L117.487 10.5481H119.456V23.794H117.824V12.9383L113.012 19.6349H112.675L107.863 12.8961V23.794H106.231V10.5481H108.2ZM125.236 10.5481V23.794H123.583V10.5481H125.236ZM130.101 10.5481L138.103 20.6879V10.5481H139.704V23.794H138.588L130.564 13.6964V23.794H128.964V10.5481H130.101V10.5481ZM148.706 10.5481C149.801 10.5481 150.781 10.7271 151.665 11.0956C152.539 11.4641 153.244 11.9485 153.781 12.5697C154.318 13.191 154.719 13.8754 155.003 14.6335C155.287 15.3916 155.424 16.1918 155.424 17.0236C155.424 17.8976 155.287 18.7189 155.024 19.5086C154.761 20.2983 154.361 21.0143 153.834 21.6671C153.308 22.3199 152.602 22.8358 151.718 23.2149C150.833 23.594 149.833 23.794 148.717 23.794H143.852V10.5481H148.706ZM148.706 12.138H145.505V22.1514H148.706C150.359 22.1514 151.612 21.646 152.476 20.6352C153.329 19.6244 153.76 18.4135 153.76 17.0131C153.76 15.6759 153.318 14.5282 152.444 13.5805C151.57 12.6329 150.317 12.138 148.706 12.138Z" fill="#2B2B2B"/>
</svg>
