<svg width="110" height="40" viewBox="0 0 110 40" fill="none" xmlns="http://www.w3.org/2000/svg">
<path d="M9 14.2211H12.4034L14.9344 21.1997L17.4284 14.2211H20.7704L16.2858 25.3403H13.4722L9 14.2211ZM21.2987 14.2211H24.3457V25.2419H21.2987V14.2211ZM29.5549 14.1474H32.5036L37.2094 25.2666H33.929L33.1304 23.2884H28.8794L28.0809 25.2666H24.8986L29.5549 14.1474ZM32.2459 20.8803L31.0171 17.7474L29.7885 20.8803H32.2459V20.8803ZM36.1652 19.7623V19.7377C36.1652 16.5064 38.6346 14 41.9766 14C44.225 14 45.6871 14.946 46.6577 16.273L44.3479 18.079C43.7214 17.305 43.0086 16.8012 41.9519 16.8012C40.4161 16.8012 39.3105 18.1282 39.3105 19.7377V19.7623C39.3105 21.4088 40.4161 22.711 41.9519 22.711C43.0823 22.711 43.7581 22.1828 44.4339 21.3841L46.7437 23.0181C45.6993 24.4556 44.2986 25.5 41.8659 25.5C38.7083 25.4755 36.1652 23.0673 36.1652 19.7623ZM46.3259 19.7623V19.7377C46.3259 16.5679 48.8939 14 52.2971 14C55.7004 14 58.2192 16.5432 58.2192 19.7132V19.7377C58.2192 22.9075 55.6512 25.4755 52.2478 25.4755C48.8447 25.4755 46.3259 22.9199 46.3259 19.7623ZM55.0984 19.7623V19.7377C55.0984 18.1282 53.9558 16.7399 52.2849 16.7399C50.6139 16.7399 49.4835 18.1036 49.4835 19.7132V19.7377C49.4835 21.3103 50.6262 22.711 52.3218 22.711C53.9804 22.6864 55.0984 21.3473 55.0984 19.7623ZM69.0309 19.6026V19.5657C69.0309 18.0913 69.5718 16.3221 70.4932 15.3146V14.2457H67.2373L64.5957 18.4968L61.9665 14.2457H58.7352V25.2666H61.733V18.9514L64.5342 23.2638H64.5956L67.4339 18.9514V25.2789H70.4809V23.9028C69.584 22.883 69.0309 21.1384 69.0309 19.6026Z" fill="#8F9397"/>
<path d="M91.8838 23.6079L93.5792 21.593C94.6727 22.453 95.8891 22.9199 97.1791 22.9199C98.0146 22.9199 98.457 22.6497 98.457 22.1459V22.1213C98.457 21.6544 98.0884 21.421 96.5893 21.0523C94.2427 20.5117 92.4121 19.8729 92.4121 17.5876V17.563C92.4121 15.5235 94.0462 14.049 96.6877 14.049C98.5553 14.049 100.005 14.5774 101.221 15.5234L99.6733 17.6736C98.6782 16.9487 97.5601 16.5802 96.5895 16.5802C95.8277 16.5802 95.4838 16.875 95.4838 17.2804V17.305C95.4838 17.8088 95.877 18.0299 97.425 18.3739C99.956 18.9391 101.529 19.75 101.529 21.8141V21.8387C101.529 24.0871 99.7594 25.4141 97.081 25.4141C95.0781 25.4509 93.2353 24.812 91.8838 23.6079ZM81.7106 14.2211H87.3622C88.763 14.2211 89.709 14.5652 90.3725 15.1917C90.8394 15.6832 91.0973 16.3221 91.0728 16.9855V17.01C91.0728 18.2879 90.3477 19.0496 89.3649 19.455C90.7041 19.8974 91.5642 20.6591 91.5642 22.1703V22.1949C91.5642 24.0747 90.0284 25.2419 87.3869 25.2419H81.7106V14.2211V14.2211ZM88.075 17.6244C88.075 16.9978 87.5835 16.6783 86.6744 16.6783H84.6718V18.6073H86.6128C87.522 18.6073 88.075 18.2756 88.075 17.6613V17.6244V17.6244ZM87.0185 20.7698H84.684V22.7848H87.0798C88.026 22.7848 88.542 22.4161 88.542 21.7772V21.7526C88.5174 21.163 88.0504 20.7698 87.0185 20.7698ZM70.444 19.7623V19.7377C70.444 16.5064 72.889 14 76.2557 14C78.504 14 79.9661 14.946 80.9368 16.273L78.6268 18.079C78.0002 17.305 77.2875 16.8012 76.2186 16.8012C74.6583 16.8012 73.577 18.1282 73.577 19.7377V19.7623C73.577 21.4088 74.6705 22.711 76.2186 22.711C77.349 22.711 78.0247 22.1828 78.7005 21.3841L81.0103 23.0181C79.966 24.4556 78.5654 25.5 76.1325 25.5C72.9874 25.4755 70.444 23.0673 70.444 19.7623Z" fill="#8F9397"/>
</svg>
