<svg width="112" height="37" viewBox="0 0 112 37" fill="none"
  xmlns="http://www.w3.org/2000/svg">
  <path fill-rule="evenodd" clip-rule="evenodd" d="M5.62618 0.000488281L0 13.098H3.70685L4.73653 10.4868H10.7663L11.796 13.098H15.5111L9.88493 0.000488281H5.62618ZM7.68554 3.08129L9.53073 7.61189H5.89801L7.68554 3.08129Z" fill="#8EAAB2"/>
  <path fill-rule="evenodd" clip-rule="evenodd" d="M15.9148 13.0975V0L21.055 0.0658996L24.144 8.42691L27.0189 0H32.2332V13.0975H28.9382V3.49268L25.5114 13.0975H22.6283L19.1357 3.49268V13.0975H15.9148Z" fill="#8EAAB2"/>
  <path fill-rule="evenodd" clip-rule="evenodd" d="M34.4244 13.0975V0H45.1248V2.94901H37.7194V5.20607H44.9189V7.94914H37.7194V10.2144H45.1248V13.0975H34.4244Z" fill="#8EAAB2"/>
  <path fill-rule="evenodd" clip-rule="evenodd" d="M46.9784 0V13.0975H50.2734V8.45162H51.649L55.5536 13.1223H59.5323L55.2158 8.31982C56.2142 8.22979 57.1399 7.76004 57.802 7.00747C58.4642 6.2549 58.8122 5.27691 58.7744 4.27523C58.7744 1.53216 56.5833 0.0247123 54.1862 0.0247123L46.9784 0ZM50.2734 2.94901H53.9802C54.3693 2.93283 54.7496 3.06787 55.0414 3.32585C55.3331 3.58383 55.5137 3.94472 55.5453 4.3329C55.5141 4.71015 55.3414 5.06164 55.0618 5.3168C54.7822 5.57197 54.4164 5.71192 54.0379 5.70855H50.2651L50.2734 2.94901Z" fill="#8EAAB2"/>
  <path fill-rule="evenodd" clip-rule="evenodd" d="M63.5025 13.0975H60.1416V0H63.5025V13.0975Z" fill="#8EAAB2"/>
  <path fill-rule="evenodd" clip-rule="evenodd" d="M71.3858 13.0979H70.7021C67.2012 13.0979 65.076 10.3548 65.076 6.64794C65.076 2.94109 67.1353 0.0579834 71.5918 0.0579834H75.2245V3.14703H71.4517C69.6724 3.14703 68.4368 4.52268 68.4368 6.64794C68.4368 9.18507 69.8784 10.2148 71.9377 10.2148H72.8274L71.3858 13.0979Z" fill="#8EAAB2"/>
  <path fill-rule="evenodd" clip-rule="evenodd" d="M78.4453 0L72.8274 13.0234H76.4683L77.498 10.4204H83.536L84.6316 13.0975H88.3302L82.7041 0.0658996L78.4453 0ZM80.5047 3.0808L82.424 7.6114H78.7254L80.5047 3.0808Z" fill="#8EAAB2"/>
  <path fill-rule="evenodd" clip-rule="evenodd" d="M88.7339 13.0975V0H92.8526L98.1987 8.22097V0H101.42V13.0975H97.4408L92.0289 4.66239V13.0975H88.7339Z" fill="#8EAAB2"/>
  <path fill-rule="evenodd" clip-rule="evenodd" d="M23.7979 35.9315V22.8999H34.4242V25.783H27.0929V28.0401H34.2924V30.7831H27.0929V33.1143H34.4242V35.9315H23.7979Z" fill="#8EAAB2"/>
  <path fill-rule="evenodd" clip-rule="evenodd" d="M75.9824 35.9315V22.8999H86.6087V25.783H79.2692V28.0401H86.4028V30.7831H79.2692V33.1143H86.6087V35.9315H75.9824Z" fill="#8EAAB2"/>
  <path fill-rule="evenodd" clip-rule="evenodd" d="M34.8363 35.9315L40.0506 29.4816L34.7704 22.8999H38.815L41.9699 26.9445L45.1908 22.8999H49.1036L43.8893 29.4157L49.1036 35.9315H44.9848L41.904 31.8787L38.8809 35.9315H34.8363Z" fill="#8EAAB2"/>
  <path fill-rule="evenodd" clip-rule="evenodd" d="M49.4414 22.8999V35.9315H52.8023V31.8128H56.2291C59.1122 31.8128 61.3034 30.2395 61.3034 27.2905C61.3034 24.8192 59.59 22.8999 56.641 22.8999H49.4414ZM52.8023 25.8489H56.435C56.8164 25.8165 57.1952 25.9345 57.4907 26.1777C57.7863 26.4209 57.975 26.77 58.0166 27.1504V27.3975C58.0221 27.5915 57.989 27.7846 57.9193 27.9656C57.8496 28.1467 57.7447 28.3121 57.6107 28.4523C57.4766 28.5925 57.316 28.7047 57.1382 28.7824C56.9605 28.8602 56.769 28.9018 56.5751 28.905H52.8023V25.8489Z" fill="#8EAAB2"/>
  <path fill-rule="evenodd" clip-rule="evenodd" d="M62.8187 22.8999V35.9315H66.1136V31.335H67.4893L71.3938 35.9974H75.3725L71.0479 31.195C72.0375 31.1113 72.9578 30.6529 73.6208 29.9134C74.2837 29.1739 74.6392 28.2092 74.6147 27.2163C74.6147 24.4733 72.4235 22.9658 70.0264 22.9658L62.8187 22.8999ZM66.0395 25.783H69.7381C69.9327 25.752 70.1316 25.7629 70.3216 25.815C70.5116 25.867 70.6883 25.959 70.8399 26.0849C70.9914 26.2107 71.1144 26.3675 71.2005 26.5446C71.2866 26.7218 71.3339 26.9153 71.3393 27.1123C71.3446 27.3092 71.3078 27.505 71.2314 27.6866C71.1549 27.8681 71.0406 28.0313 70.8961 28.1651C70.7515 28.299 70.5801 28.4004 70.3932 28.4627C70.2062 28.5249 70.0082 28.5465 69.8123 28.5261H66.0395V25.783Z" fill="#8EAAB2"/>
  <path fill-rule="evenodd" clip-rule="evenodd" d="M88.1159 35.932V33.1148H94.6317C95.5955 33.1148 96.0074 32.5711 96.0074 32.0192C96.0074 31.4673 95.5955 30.9237 94.6317 30.9237H91.6827C91.1539 30.9718 90.6209 30.9041 90.1208 30.7254C89.6207 30.5468 89.1656 30.2613 88.7869 29.889C88.4083 29.5166 88.1153 29.0663 87.9283 28.5693C87.7413 28.0722 87.6648 27.5405 87.704 27.0109C87.704 24.8856 89.0056 22.8922 92.8524 22.8922H99.2282L97.8855 25.8494H92.3664C91.3367 25.8494 90.999 26.3931 90.999 26.945C90.9968 27.0985 91.0253 27.2509 91.0828 27.3933C91.1403 27.5357 91.2256 27.6651 91.3338 27.7741C91.442 27.883 91.5708 27.9693 91.7128 28.0278C91.8547 28.0862 92.0069 28.1158 92.1605 28.1147H95.3154C98.1985 28.1147 99.4342 29.7622 99.4342 31.8792C99.4716 32.4441 99.3867 33.0104 99.1854 33.5396C98.9841 34.0687 98.6711 34.5482 98.2677 34.9454C97.8642 35.3426 97.3799 35.6481 96.8477 35.8411C96.3154 36.0341 95.7479 36.1101 95.1836 36.0638L88.1159 35.932Z" fill="#8EAAB2"/>
  <path fill-rule="evenodd" clip-rule="evenodd" d="M100.118 35.932V33.1148H106.362C107.318 33.1148 107.729 32.5711 107.729 32.0192C107.729 31.4673 107.318 30.9237 106.362 30.9237H103.652C103.123 30.9718 102.59 30.9041 102.09 30.7254C101.59 30.5468 101.135 30.2613 100.756 29.889C100.377 29.5166 100.084 29.0663 99.8974 28.5693C99.7104 28.0722 99.6339 27.5405 99.6732 27.0109C99.6732 24.8856 100.975 22.8922 104.813 22.8922H111.066L109.69 25.8412H104.344C103.314 25.8412 102.976 26.3848 102.976 26.9367C102.974 27.0903 103.003 27.2427 103.06 27.385C103.118 27.5274 103.203 27.6569 103.311 27.7658C103.419 27.8748 103.548 27.961 103.69 28.0195C103.832 28.078 103.984 28.1076 104.138 28.1065H107.021C109.896 28.1065 111.14 29.7539 111.14 31.871C111.177 32.4313 111.095 32.9932 110.897 33.519C110.7 34.0448 110.392 34.5223 109.995 34.9194C109.598 35.3166 109.121 35.6241 108.595 35.8215C108.069 36.0189 107.507 36.1015 106.947 36.0638L100.118 35.932Z" fill="#8EAAB2"/>
</svg>
