<svg width="134" height="34" viewBox="0 0 134 34" fill="none" xmlns="http://www.w3.org/2000/svg">
<g clip-path="url(#clip0)">
<path d="M17.0312 0C3.43125 0 0.03125 3.4 0.03125 17C0.03125 30.6 3.43125 34 17.0312 34C30.6312 34 34.0312 30.6 34.0312 17C34.0312 3.4 30.6312 0 17.0312 0ZM14.2464 26.2941C10.6562 26.2941 7.73717 23.375 7.73717 19.7849C7.73717 16.1947 10.6562 13.2757 14.2464 13.2757C17.8365 13.2757 20.7556 16.1947 20.7556 19.7849C20.7556 23.375 17.8253 26.2941 14.2464 26.2941ZM26.0569 26.0368H22.8694V11.1618H7.99441V7.96316H26.0569V26.0368Z" fill="#191A1B"/>
<path d="M14.2475 23.1066C16.082 23.1066 17.5692 21.6194 17.5692 19.7848C17.5692 17.9503 16.082 16.4631 14.2475 16.4631C12.413 16.4631 10.9258 17.9503 10.9258 19.7848C10.9258 21.6194 12.413 23.1066 14.2475 23.1066Z" fill="#191A1B"/>
<path d="M47.4646 19.2816C49.0416 14.875 49.6791 13.0855 50.2718 11.2737C51.1107 13.902 51.983 16.3513 53.0008 19.2816H47.4646ZM48.5607 8.03027L41.7383 26.0369H45.2278L46.6817 21.8316H53.7949L55.2264 26.0369H58.7383L52.162 8.04146H48.5607V8.03027Z" fill="#191A1B"/>
<path d="M65.8829 23.7888C63.9928 23.7888 62.8967 22.2342 62.8967 19.5276C62.8967 17.1007 64.1717 15.5796 65.9836 15.5796C67.6947 15.5796 68.7349 17.1342 68.7349 19.6842C68.7349 22.3908 67.6388 23.7888 65.8829 23.7888ZM62.9862 15.0428V8.03027H60V26.0369H62.852V24.3816C63.7132 25.623 64.8875 26.2829 66.6211 26.2829C69.7526 26.2829 71.8441 23.8336 71.8441 19.6842C71.8441 15.5572 69.9316 13.0855 66.9454 13.0855C65.1447 13.0855 63.825 13.9467 62.9862 15.0428Z" fill="#191A1B"/>
<path d="M78.1182 15.2553C79.3485 15.2553 80.3103 15.9151 80.9478 17.0447L83.1735 15.5349C82.0551 13.7454 80.1873 12.9849 78.1741 12.9849C75.0314 12.9849 73.2531 14.8191 73.2531 16.8099C73.2531 18.7447 74.5057 19.8967 76.4741 20.5118L77.8274 20.948C79.7399 21.5631 80.1761 21.921 80.1761 22.7599C80.1761 23.5204 79.4603 24.0908 78.163 24.0908C76.7537 24.0908 75.5906 23.3303 74.9195 22.0217L72.582 23.5539C73.6557 25.1645 75.4116 26.4171 78.0176 26.4171C81.1827 26.4171 83.1511 24.7059 83.1511 22.3572C83.1511 20.3105 81.8761 19.2704 79.6281 18.5546L78.2748 18.1408C76.6419 17.6263 76.2281 17.2684 76.2281 16.5079C76.2281 15.7697 76.8432 15.2553 78.1182 15.2553Z" fill="#191A1B"/>
<path d="M89.2131 15.7364H91.6736V13.3429H89.2131V9.1936H86.2381L86.1822 13.3429H84.1914V15.7364H86.1822V22.6929C86.1822 23.8673 86.3611 24.762 86.898 25.3772C87.4125 25.9923 88.2513 26.2943 89.5039 26.2943C90.2421 26.2943 91.0585 26.1936 91.7296 26.0147V23.6324C91.3157 23.789 90.8572 23.8673 90.4993 23.8673C89.5822 23.8673 89.2019 23.4087 89.2019 22.1002V15.7364H89.2131Z" fill="#191A1B"/>
<path d="M96.2153 13.3426H93.3633V26.0926H96.3495V20.1538C96.3495 18.7893 96.5732 17.8946 97.0093 17.2347C97.5685 16.4406 98.3514 15.9597 99.7271 15.9709C100.107 15.9709 100.443 16.0268 100.823 16.1387V13.3538C100.443 13.242 100.13 13.186 99.7271 13.186C97.9712 13.186 96.9758 13.9242 96.2041 15.311V13.3426H96.2153Z" fill="#191A1B"/>
<path d="M109.448 20.6909C109.425 21.4067 109.291 22.1225 108.888 22.704C108.329 23.5429 107.379 24.035 106.238 24.035C104.907 24.035 104.292 23.3415 104.292 22.4244C104.292 21.7086 104.594 21.2277 105.388 20.8698C106.283 20.4336 107.994 20.1764 109.448 20.0981V20.6909V20.6909ZM112.288 18.0179C112.288 16.0271 112.02 14.9757 111.226 14.2376C110.387 13.4211 109.157 13.0073 107.423 13.0073C104.18 13.0073 102.133 14.5396 101.932 17.3021L104.795 17.5593C104.952 16.1501 105.634 15.3672 107.2 15.3672C107.994 15.3672 108.609 15.5461 108.967 15.904C109.302 16.2396 109.448 16.7205 109.448 17.4363V18.1297C107.435 18.2527 104.974 18.6106 103.733 19.181C102.223 19.8744 101.406 20.9481 101.406 22.581C101.406 24.8514 103.039 26.3054 105.365 26.3054C107.177 26.3054 108.553 25.6679 109.526 24.4935C109.806 25.7685 110.7 26.2383 112.3 26.2383C112.948 26.2383 113.351 26.1376 113.664 26.0369V24.0909C112.512 24.3034 112.311 23.6212 112.3 22.6258V18.0179H112.288Z" fill="#191A1B"/>
<path d="M117.342 19.6171C117.342 16.7875 118.673 15.4902 120.407 15.4902C121.604 15.4902 122.521 16.0494 122.879 17.7382L125.563 16.8211C124.981 14.5507 123.236 12.9961 120.485 12.9961C116.682 12.9961 114.289 15.5237 114.289 19.6731C114.289 23.856 116.638 26.406 120.34 26.406C123.225 26.406 124.903 24.8737 125.652 22.7599L122.968 21.8428C122.666 23.1961 121.85 23.9119 120.496 23.9119C118.517 23.9007 117.342 22.4132 117.342 19.6171Z" fill="#191A1B"/>
<path d="M131.311 15.7364H133.771V13.3429H131.311V9.1936H128.336L128.28 13.3429H126.289V15.7364H128.28V22.6929C128.28 23.8673 128.459 24.762 128.996 25.3772C129.51 25.9923 130.349 26.2943 131.602 26.2943C132.34 26.2943 133.156 26.1936 133.827 26.0147V23.6324C133.413 23.789 132.955 23.8673 132.597 23.8673C131.68 23.8673 131.3 23.4087 131.3 22.1002V15.7364H131.311Z" fill="#191A1B"/>
</g>
<defs>
<clipPath id="clip0">
<rect width="133.875" height="34" fill="white"/>
</clipPath>
</defs>
</svg>
