<svg width="110" height="40" viewBox="0 0 110 40" fill="none" xmlns="http://www.w3.org/2000/svg">
<path d="M93.1372 26.6228C93.3829 26.6228 93.7678 26.5708 93.9598 26.5004V25.3097C93.715 25.3618 93.5053 25.3794 93.3125 25.3794C92.682 25.3794 92.3843 25.0473 92.3843 24.0663V13.3672H89.6877V14.5586H90.9136V24.1359C90.9136 25.765 91.5617 26.6228 93.1372 26.6228V26.6228ZM96.7796 24.1543V18.6203H98.6176V17.4297H96.7796V15.1187H95.3089V17.4297H93.9078V18.6203H95.3089V24.2239C95.3089 25.8346 96.0267 26.6228 97.7254 26.6228C97.9879 26.6228 98.408 26.5708 98.6176 26.5004V25.3097C98.3376 25.3618 98.0927 25.3794 97.8654 25.3794C97.1293 25.3794 96.7796 25.1169 96.7796 24.1543ZM73.0705 18.393C74.9966 18.393 75.9944 19.7589 76.152 21.2825H69.8314C70.0067 19.6189 71.1269 18.393 73.0705 18.393V18.393ZM80.1969 21.965C80.1969 19.899 81.5107 18.4106 83.3664 18.4106C85.2404 18.4106 86.5182 19.9334 86.5182 21.965C86.5182 23.9959 85.2404 25.5201 83.3664 25.5201C81.5107 25.5201 80.1969 24.0311 80.1969 21.965ZM103.363 25.3097H102.138V21.2473C102.138 19.3564 103.101 18.4106 104.799 18.4106C106.322 18.4106 107.303 19.3564 107.303 21.2473V25.3097H106.078V26.5004H110V25.3097H108.774V21.2473C108.774 18.9884 107.426 17.1672 104.974 17.1672C103.696 17.1672 102.751 17.6577 102.138 18.4458V13.3672H99.441V14.5586H100.667V25.3097H99.441V26.5004H103.363V25.3097ZM58.2922 18.8483V14.593H59.6053V13.3672H55.4556V14.593H56.7687V25.2745H55.4556V26.5004H59.6053V25.2745H58.2922V20.039H64.876V25.2745H63.5629V26.5004H67.7126V25.2745H66.3995V14.593H67.7126V13.3672H63.5629V14.593H64.876V18.8483H58.2922V18.8483ZM77.4131 24.0663H75.9424C75.4167 24.9769 74.4716 25.537 73.1233 25.537C71.0741 25.537 69.9715 24.2935 69.8314 22.4555H77.6235V21.8074C77.6235 19.0412 75.8551 17.1672 73.0705 17.1672C70.2691 17.1672 68.3255 19.146 68.3255 21.965C68.3255 24.8016 70.2691 26.7628 73.0705 26.7628C75.119 26.7628 76.6953 25.7298 77.4131 24.0663V24.0663ZM86.4662 26.5004H89.1628V25.3097H87.9369V18.6203H89.1628V17.4297H86.4662V18.7779C85.6956 17.7801 84.5394 17.1672 83.1735 17.1672C80.6002 17.1672 78.6917 19.2332 78.6917 21.965C78.6917 24.6968 80.6002 26.7628 83.1735 26.7628C84.5394 26.7628 85.6956 26.1499 86.4662 25.1521V26.5004Z" fill="#8F9397"/>
<path d="M4.69223 13.0176C4.19485 13.0176 3.69823 13.2074 3.31792 13.5884L0.567782 16.3386C-0.18977 17.0961 -0.18977 18.3289 0.570842 19.0887L8.3323 26.8502L16.0938 19.0887C16.8536 18.3296 16.8521 17.0977 16.0925 16.3386L13.3447 13.59C12.9644 13.2081 12.4678 13.0184 11.9712 13.0184C11.4722 13.0184 10.9741 13.2097 10.5923 13.5923L8.33261 15.8527L6.06914 13.5892C5.6896 13.2081 5.19145 13.0176 4.69254 13.0176H4.69223ZM30.2756 13.3673H34.5661L36.7722 21.8427L39.1359 13.3673H43.268L38.8558 26.4829H34.6709L30.2756 13.3673V13.3673ZM31.1686 21.3874C30.9413 24.8369 28.6648 26.8502 24.9 26.8502C20.7151 26.8502 18.1586 24.1888 18.1586 19.9343C18.1586 15.6438 20.7327 13 24.8128 13C28.612 13 30.8533 14.926 31.0989 18.3228H27.0885C26.9661 16.9921 26.2131 16.2919 24.8648 16.2919C23.2189 16.2919 22.3963 17.5002 22.3963 19.9343C22.3963 22.3156 23.2893 23.5583 24.9873 23.5583C26.2659 23.5583 27.0709 22.7877 27.1941 21.3874H31.1686V21.3874ZM46.6303 22.3852C46.8407 23.3662 47.4008 23.7167 48.5563 23.7167C49.5717 23.7167 50.1326 23.3486 50.1326 22.7701C50.1326 21.9475 49.3797 21.8779 47.8209 21.4746C45.9998 21.0025 44.8267 20.5992 44.2842 20.2136C43.268 19.4966 42.7783 18.4804 42.7783 17.1849C42.7783 14.646 44.7739 13 48.2586 13C51.6385 13 53.6342 14.4883 53.8622 17.1329H49.887C49.747 16.3447 49.2044 15.9766 48.189 15.9766C47.296 15.9766 46.8576 16.2743 46.8576 16.8696C46.8576 17.5706 47.5409 17.693 48.8019 18.0251C50.4303 18.4459 51.7258 18.7084 52.5484 19.2685C53.7046 20.0391 54.2295 20.9849 54.2295 22.3332C54.2295 25.1866 52.1811 26.8502 48.3811 26.8502C44.8619 26.8502 42.7951 25.1866 42.5326 22.3852H46.6303V22.3852Z" fill="#8F9397"/>
</svg>
