<svg width="570" height="40" viewBox="0 0 570 40" fill="none" xmlns="http://www.w3.org/2000/svg">
<path d="M9 14.2211H12.4034L14.9344 21.1997L17.4284 14.2211H20.7704L16.2858 25.3403H13.4722L9 14.2211ZM21.2987 14.2211H24.3457V25.2419H21.2987V14.2211ZM29.5549 14.1474H32.5036L37.2094 25.2666H33.929L33.1304 23.2884H28.8794L28.0809 25.2666H24.8986L29.5549 14.1474ZM32.2458 20.8803L31.0171 17.7474L29.7885 20.8803H32.2458ZM36.1652 19.7623V19.7377C36.1652 16.5064 38.6346 14 41.9766 14C44.225 14 45.6871 14.946 46.6577 16.273L44.3479 18.079C43.7214 17.305 43.0086 16.8012 41.9519 16.8012C40.4161 16.8012 39.3105 18.1282 39.3105 19.7377V19.7623C39.3105 21.4088 40.4161 22.711 41.9519 22.711C43.0823 22.711 43.7581 22.1828 44.4339 21.3841L46.7437 23.0181C45.6993 24.4556 44.2986 25.5 41.8659 25.5C38.7083 25.4755 36.1652 23.0673 36.1652 19.7623ZM46.3259 19.7623V19.7377C46.3259 16.5679 48.8939 14 52.2971 14C55.7004 14 58.2192 16.5432 58.2192 19.7132V19.7377C58.2192 22.9075 55.6512 25.4755 52.2478 25.4755C48.8447 25.4755 46.3259 22.9199 46.3259 19.7623ZM55.0984 19.7623V19.7377C55.0984 18.1282 53.9558 16.7399 52.2849 16.7399C50.6139 16.7399 49.4835 18.1036 49.4835 19.7132V19.7377C49.4835 21.3103 50.6262 22.711 52.3218 22.711C53.9804 22.6864 55.0984 21.3473 55.0984 19.7623ZM69.0309 19.6026V19.5657C69.0309 18.0913 69.5718 16.3221 70.4932 15.3146V14.2457H67.2373L64.5957 18.4968L61.9665 14.2457H58.7352V25.2666H61.733V18.9514L64.5342 23.2638H64.5956L67.4339 18.9514V25.2789H70.4809V23.9028C69.584 22.883 69.0309 21.1384 69.0309 19.6026Z" fill="#8F9397"/>
<path d="M91.8838 23.6079L93.5792 21.593C94.6727 22.453 95.8891 22.9199 97.1791 22.9199C98.0146 22.9199 98.457 22.6497 98.457 22.1459V22.1213C98.457 21.6544 98.0884 21.421 96.5893 21.0523C94.2427 20.5117 92.4121 19.8729 92.4121 17.5876V17.563C92.4121 15.5235 94.0462 14.049 96.6877 14.049C98.5553 14.049 100.005 14.5774 101.221 15.5234L99.6733 17.6736C98.6782 16.9487 97.5601 16.5802 96.5895 16.5802C95.8277 16.5802 95.4838 16.875 95.4838 17.2804V17.305C95.4838 17.8088 95.877 18.0299 97.425 18.3739C99.956 18.9391 101.529 19.75 101.529 21.8141V21.8387C101.529 24.0871 99.7594 25.4141 97.081 25.4141C95.0781 25.4509 93.2353 24.812 91.8838 23.6079ZM81.7106 14.2211H87.3622C88.763 14.2211 89.709 14.5652 90.3725 15.1917C90.8393 15.6832 91.0973 16.3221 91.0728 16.9855V17.01C91.0728 18.2879 90.3477 19.0496 89.3649 19.455C90.7041 19.8974 91.5642 20.6591 91.5642 22.1703V22.1949C91.5642 24.0747 90.0284 25.2419 87.3869 25.2419H81.7106V14.2211ZM88.075 17.6244C88.075 16.9978 87.5835 16.6783 86.6744 16.6783H84.6718V18.6073H86.6128C87.522 18.6073 88.075 18.2756 88.075 17.6613V17.6244ZM87.0185 20.7698H84.684V22.7848H87.0798C88.026 22.7848 88.542 22.4161 88.542 21.7772V21.7526C88.5174 21.163 88.0504 20.7698 87.0185 20.7698ZM70.444 19.7623V19.7377C70.444 16.5064 72.889 14 76.2557 14C78.504 14 79.9661 14.946 80.9368 16.273L78.6268 18.079C78.0002 17.305 77.2875 16.8012 76.2186 16.8012C74.6583 16.8012 73.577 18.1282 73.577 19.7377V19.7623C73.577 21.4088 74.6705 22.711 76.2186 22.711C77.349 22.711 78.0247 22.1828 78.7005 21.3841L81.0103 23.0181C79.966 24.4556 78.5654 25.5 76.1325 25.5C72.9874 25.4755 70.444 23.0673 70.444 19.7623Z" fill="#8F9397"/>
<path d="M131.361 8.00175L127 18.2706H129.839L130.644 16.2143H135.322L136.122 18.2706H139.024L134.667 8.00175H131.361ZM132.974 10.3916L134.4 13.9849H131.544L132.974 10.3916ZM139.324 18.2689V8L143.358 8.01515L145.705 14.6359L147.996 8H151.998V18.2689H149.463V10.7023L146.776 18.2689H144.553L141.859 10.7023V18.2689H139.324ZM153.732 18.2689V8H162.004V10.297H156.294V12.0535H161.87V14.2154H156.294V16.0395H162.004V18.2689H153.732ZM163.471 8.00175V18.2706H166.006V14.6224H167.073L170.113 18.2706H173.21L169.875 14.4873C171.244 14.3703 172.656 13.1805 172.656 11.3332C172.656 9.17231 170.981 8.00175 169.112 8.00175H163.471ZM166.006 10.2987H168.904C169.599 10.2987 170.104 10.8494 170.104 11.3796C170.104 12.0618 169.449 12.4606 168.941 12.4606H166.006V10.2987ZM176.279 18.2689H173.691V8H176.279V18.2689ZM182.416 18.2689H181.857C179.154 18.2689 177.513 16.112 177.513 13.1767C177.513 10.1687 179.136 8 182.549 8H185.351V10.4321H182.447C181.061 10.4321 180.081 11.5273 180.081 13.202C180.081 15.1907 181.202 16.0259 182.816 16.0259H183.483L182.416 18.2689ZM187.931 8.00175L183.57 18.2706H186.41L187.214 16.2143H191.892L192.692 18.2706H195.594L191.237 8.00175H187.931ZM189.545 10.3916L190.971 13.9849H188.115L189.545 10.3916ZM195.89 18.2689V8H199.113L203.228 14.4519V8H205.763V18.2689H202.644L198.425 11.6482V18.2689H195.89ZM145.461 30.9982V20.7294H153.732V23.0263H148.022V24.7829H153.599V26.9448H148.022V28.7689H153.732V30.9982H145.461ZM185.991 30.9982V20.7294H194.262V23.0263H188.553V24.7829H194.102V26.9448H188.552V28.7689H194.262V30.9982H185.991ZM154.053 30.9982L158.081 25.9272L153.957 20.7294H157.151L159.607 23.9426L162.071 20.7294H165.139L161.07 25.8638L165.105 30.9982H161.912L159.527 27.8357L157.201 30.9982H154.053ZM165.406 20.7311V31H168.007V27.7573H170.675C172.933 27.7573 174.644 26.5441 174.644 24.1851C174.644 22.2308 173.302 20.7311 171.005 20.7311H165.406ZM168.007 23.0535H170.817C171.547 23.0535 172.068 23.5062 172.068 24.2357C172.068 24.921 171.549 25.418 170.809 25.418H168.007V23.0535ZM175.745 20.7294V30.9982H178.28V27.3501H179.347L182.386 30.9982H185.484L182.149 27.215C183.518 27.098 184.93 25.9081 184.93 24.0608C184.93 21.8999 183.255 20.7294 181.386 20.7294H175.745ZM178.28 23.0263H181.177C181.872 23.0263 182.378 23.577 182.378 24.1073C182.378 24.7895 181.723 25.1882 181.215 25.1882H178.28V23.0263ZM195.437 30.9982V28.7689H200.509C201.26 28.7689 201.585 28.358 201.585 27.9074C201.585 27.4757 201.261 27.0394 200.509 27.0394H198.217C196.224 27.0394 195.115 25.8099 195.115 23.9638C195.115 22.3172 196.131 20.7294 199.092 20.7294H204.028L202.961 23.0399H198.692C197.876 23.0399 197.624 23.4736 197.624 23.8878C197.624 24.3134 197.935 24.7829 198.558 24.7829H200.96C203.181 24.7829 204.145 26.059 204.145 27.7301C204.145 29.5268 203.071 30.9982 200.839 30.9982H195.437ZM204.74 30.9982V28.7689H209.813C210.563 28.7689 210.888 28.358 210.888 27.9074C210.888 27.4757 210.564 27.0394 209.813 27.0394H207.52C205.528 27.0394 204.418 25.8099 204.418 23.9638C204.418 22.3172 205.434 20.7294 208.395 20.7294H213.332L212.264 23.0399H207.995C207.179 23.0399 206.928 23.4736 206.928 23.8878C206.928 24.3134 207.238 24.7829 207.862 24.7829H210.263C212.484 24.7829 213.448 26.059 213.448 27.7301C213.448 29.5268 212.374 30.9982 210.142 30.9982H204.74Z" fill="#8F9397"/>
<path d="M323.137 26.6228C323.383 26.6228 323.768 26.5708 323.96 26.5004V25.3097C323.715 25.3618 323.505 25.3794 323.312 25.3794C322.682 25.3794 322.384 25.0473 322.384 24.0663V13.3672H319.688V14.5586H320.914V24.1359C320.914 25.765 321.562 26.6228 323.137 26.6228ZM326.78 24.1543V18.6203H328.618V17.4297H326.78V15.1187H325.309V17.4297H323.908V18.6203H325.309V24.2239C325.309 25.8346 326.027 26.6228 327.725 26.6228C327.988 26.6228 328.408 26.5708 328.618 26.5004V25.3097C328.338 25.3618 328.093 25.3794 327.865 25.3794C327.129 25.3794 326.78 25.1169 326.78 24.1543ZM303.071 18.393C304.997 18.393 305.994 19.7589 306.152 21.2825H299.831C300.007 19.6189 301.127 18.393 303.071 18.393ZM310.197 21.965C310.197 19.899 311.511 18.4106 313.366 18.4106C315.24 18.4106 316.518 19.9334 316.518 21.965C316.518 23.9959 315.24 25.5201 313.366 25.5201C311.511 25.5201 310.197 24.0311 310.197 21.965ZM333.363 25.3097H332.138V21.2473C332.138 19.3564 333.101 18.4106 334.799 18.4106C336.322 18.4106 337.303 19.3564 337.303 21.2473V25.3097H336.078V26.5004H340V25.3097H338.774V21.2473C338.774 18.9884 337.426 17.1672 334.974 17.1672C333.696 17.1672 332.75 17.6577 332.138 18.4458V13.3672H329.441V14.5586H330.667V25.3097H329.441V26.5004H333.363V25.3097ZM288.292 18.8483V14.593H289.605V13.3672H285.456V14.593H286.769V25.2745H285.456V26.5004H289.605V25.2745H288.292V20.039H294.876V25.2745H293.563V26.5004H297.713V25.2745H296.4V14.593H297.713V13.3672H293.563V14.593H294.876V18.8483H288.292ZM307.413 24.0663H305.942C305.417 24.9769 304.472 25.537 303.123 25.537C301.074 25.537 299.971 24.2935 299.831 22.4555H307.624V21.8074C307.624 19.0412 305.855 17.1672 303.071 17.1672C300.269 17.1672 298.326 19.146 298.326 21.965C298.326 24.8016 300.269 26.7628 303.071 26.7628C305.119 26.7628 306.695 25.7298 307.413 24.0663ZM316.466 26.5004H319.163V25.3097H317.937V18.6203H319.163V17.4297H316.466V18.7779C315.696 17.7801 314.539 17.1672 313.174 17.1672C310.6 17.1672 308.692 19.2332 308.692 21.965C308.692 24.6968 310.6 26.7628 313.174 26.7628C314.539 26.7628 315.696 26.1499 316.466 25.1521V26.5004Z" fill="#8F9397"/>
<path d="M234.692 13.0176C234.195 13.0176 233.698 13.2074 233.318 13.5884L230.568 16.3386C229.81 17.0961 229.81 18.3289 230.571 19.0887L238.332 26.8502L246.094 19.0887C246.854 18.3296 246.852 17.0977 246.093 16.3386L243.345 13.59C242.964 13.2081 242.468 13.0184 241.971 13.0184C241.472 13.0184 240.974 13.2097 240.592 13.5923L238.333 15.8527L236.069 13.5892C235.69 13.2081 235.191 13.0176 234.693 13.0176H234.692ZM260.276 13.3673H264.566L266.772 21.8427L269.136 13.3673H273.268L268.856 26.4829H264.671L260.276 13.3673ZM261.169 21.3874C260.941 24.8369 258.665 26.8502 254.9 26.8502C250.715 26.8502 248.159 24.1888 248.159 19.9343C248.159 15.6438 250.733 13 254.813 13C258.612 13 260.853 14.926 261.099 18.3228H257.089C256.966 16.9921 256.213 16.2919 254.865 16.2919C253.219 16.2919 252.396 17.5002 252.396 19.9343C252.396 22.3156 253.289 23.5583 254.987 23.5583C256.266 23.5583 257.071 22.7877 257.194 21.3874H261.169ZM276.63 22.3852C276.841 23.3662 277.401 23.7167 278.556 23.7167C279.572 23.7167 280.133 23.3486 280.133 22.7701C280.133 21.9475 279.38 21.8779 277.821 21.4746C276 21.0025 274.827 20.5992 274.284 20.2136C273.268 19.4966 272.778 18.4804 272.778 17.1849C272.778 14.646 274.774 13 278.259 13C281.639 13 283.634 14.4883 283.862 17.1329H279.887C279.747 16.3447 279.204 15.9766 278.189 15.9766C277.296 15.9766 276.858 16.2743 276.858 16.8696C276.858 17.5706 277.541 17.693 278.802 18.0251C280.43 18.4459 281.726 18.7084 282.548 19.2685C283.705 20.0391 284.23 20.9849 284.23 22.3332C284.23 25.1866 282.181 26.8502 278.381 26.8502C274.862 26.8502 272.795 25.1866 272.533 22.3852H276.63Z" fill="#8F9397"/>
<path d="M370.154 25.2744H372.488C373.839 25.2744 374.821 24.8618 375.418 23.994C376.016 23.1261 376.315 21.7461 376.315 19.8396C376.315 17.9189 376.044 16.5105 375.475 15.6141C374.906 14.7178 374.038 14.2626 372.815 14.2626H370.126L370.154 25.2744ZM367.309 28.3475V11.2891H372.843C375.034 11.2891 376.642 12.0004 377.723 13.4089C378.804 14.8174 379.345 16.9657 379.345 19.8396C379.345 21.3904 379.132 22.7704 378.748 23.9655C378.363 25.1606 377.794 26.1138 377.04 26.8394C376.471 27.38 375.845 27.7642 375.12 28.006C374.394 28.2479 373.384 28.3617 372.103 28.3617L367.309 28.3475ZM386.487 14.7036L384.51 21.9737H388.465L386.487 14.7036ZM384.78 11.2891H388.166L393.288 28.376H390.2L389.247 24.8761H383.77L382.845 28.376H379.758L384.78 11.2891ZM397.385 18.7441H400.828C401.582 18.7441 402.109 18.5592 402.479 18.2035C402.848 17.8478 403.019 17.2787 403.019 16.4962C403.019 15.7422 402.834 15.1731 402.507 14.8174C402.18 14.4333 401.668 14.2483 400.985 14.2483H397.399V18.7441H397.385ZM394.454 28.3475V11.2891H401.34C402.891 11.2891 404.029 11.6732 404.783 12.4841C405.537 13.2951 405.893 14.4902 405.893 16.1405C405.893 17.1934 405.708 18.0612 405.352 18.7441C404.997 19.427 404.456 19.9108 403.802 20.1811C404.428 20.4514 404.854 20.8355 405.125 21.3762C405.395 21.9168 405.537 22.7562 405.58 23.9228L405.637 25.9289C405.637 25.9573 405.637 25.9573 405.637 25.9858C405.665 27.0101 405.85 27.6361 406.178 27.8353V28.3475H402.976C402.891 28.1056 402.792 27.8069 402.735 27.4512C402.678 27.0955 402.649 26.6687 402.649 26.1992L402.621 24.4066C402.592 23.3537 402.407 22.6424 402.109 22.2582C401.81 21.9026 401.269 21.6892 400.487 21.6892H397.399V28.3333L394.454 28.3475ZM411.214 19.1994H414.031C414.785 19.1994 415.354 19.0144 415.71 18.6019C416.066 18.2177 416.222 17.5775 416.222 16.7096C416.222 15.8987 416.037 15.2727 415.71 14.8601C415.383 14.4475 414.87 14.2341 414.188 14.2341H411.2V19.1994H411.214ZM411.186 22.2725V28.3475H408.255V11.2891H414.572C416.066 11.2891 417.175 11.7728 417.958 12.6976C418.74 13.6223 419.096 15.0024 419.096 16.795C419.096 18.5592 418.712 19.9108 417.958 20.864C417.204 21.8172 416.137 22.3009 414.728 22.3009H411.2V22.2725H411.186ZM425.157 14.7036L423.179 21.9737H427.134L425.157 14.7036ZM423.492 11.2891H426.878L432 28.376H428.941L427.988 24.8761H422.468L421.543 28.376H418.456L423.492 11.2891Z" fill="#8F9397"/>
<path d="M370.154 25.2744H372.488C373.839 25.2744 374.821 24.8618 375.418 23.994C376.016 23.1261 376.315 21.7461 376.315 19.8396C376.315 17.9189 376.044 16.5105 375.475 15.6141C374.906 14.7178 374.038 14.2626 372.815 14.2626H370.126L370.154 25.2744ZM367.309 28.3475V11.2891H372.843C375.034 11.2891 376.642 12.0004 377.723 13.4089C378.804 14.8174 379.345 16.9657 379.345 19.8396C379.345 21.3904 379.132 22.7704 378.748 23.9655C378.363 25.1606 377.794 26.1138 377.04 26.8394C376.471 27.38 375.845 27.7642 375.12 28.006C374.394 28.2479 373.384 28.3617 372.103 28.3617L367.309 28.3475ZM386.487 14.7036L384.51 21.9737H388.465L386.487 14.7036ZM384.78 11.2891H388.166L393.288 28.376H390.2L389.247 24.8761H383.77L382.845 28.376H379.758L384.78 11.2891ZM397.385 18.7441H400.828C401.582 18.7441 402.109 18.5592 402.479 18.2035C402.848 17.8478 403.019 17.2787 403.019 16.4962C403.019 15.7422 402.834 15.1731 402.507 14.8174C402.18 14.4333 401.668 14.2483 400.985 14.2483H397.399V18.7441H397.385ZM394.454 28.3475V11.2891H401.34C402.891 11.2891 404.029 11.6732 404.783 12.4841C405.537 13.2951 405.893 14.4902 405.893 16.1405C405.893 17.1934 405.708 18.0612 405.352 18.7441C404.997 19.427 404.456 19.9108 403.802 20.1811C404.428 20.4514 404.854 20.8355 405.125 21.3762C405.395 21.9168 405.537 22.7562 405.58 23.9228L405.637 25.9289C405.637 25.9573 405.637 25.9573 405.637 25.9858C405.665 27.0101 405.85 27.6361 406.178 27.8353V28.3475H402.976C402.891 28.1056 402.792 27.8069 402.735 27.4512C402.678 27.0955 402.649 26.6687 402.649 26.1992L402.621 24.4066C402.592 23.3537 402.407 22.6424 402.109 22.2582C401.81 21.9026 401.269 21.6892 400.487 21.6892H397.399V28.3333L394.454 28.3475ZM411.214 19.1994H414.031C414.785 19.1994 415.354 19.0144 415.71 18.6019C416.066 18.2177 416.222 17.5775 416.222 16.7096C416.222 15.8987 416.037 15.2727 415.71 14.8601C415.383 14.4475 414.87 14.2341 414.188 14.2341H411.2V19.1994H411.214ZM411.186 22.2725V28.3475H408.255V11.2891H414.572C416.066 11.2891 417.175 11.7728 417.958 12.6976C418.74 13.6223 419.096 15.0024 419.096 16.795C419.096 18.5592 418.712 19.9108 417.958 20.864C417.204 21.8172 416.137 22.3009 414.728 22.3009H411.2V22.2725H411.186ZM425.157 14.7036L423.179 21.9737H427.134L425.157 14.7036ZM423.492 11.2891H426.878L432 28.376H428.941L427.988 24.8761H422.468L421.543 28.376H418.456L423.492 11.2891Z" fill="#8F9397"/>
<g clip-path="url(#clip0)">
<path d="M485.933 17.5598C485.602 16.385 485.125 15.1736 483.547 15.1736C482.482 15.1185 481.583 15.9261 481.528 16.9907C481.528 17.0458 481.528 17.1009 481.528 17.1559C481.528 18.4959 482.372 19.1016 483.84 19.8358C485.29 20.57 486.979 21.4144 486.979 23.4335C486.979 25.3424 485.364 26.8292 482.978 26.8292C482.372 26.8108 481.766 26.719 481.197 26.5539C480.885 26.4437 480.591 26.3336 480.298 26.1867C480.077 25.269 479.912 24.3329 479.82 23.3967L480.353 23.2683C480.628 24.3696 481.454 26.1867 483.308 26.1867C484.685 26.1867 485.492 25.3424 485.492 24.0025C485.492 22.6625 484.483 22.0201 483.143 21.2859C481.968 20.6802 480.151 19.744 480.151 17.725C480.151 15.9812 481.528 14.4761 483.877 14.4761C484.648 14.4944 485.419 14.6413 486.153 14.8799C486.226 15.5223 486.318 16.2565 486.483 17.3946L485.933 17.5598Z" fill="#8F9397"/>
<path d="M498.084 26.5905V26.1132C499.13 25.9847 499.332 25.948 499.332 24.6632V21.6162C499.332 20.313 498.892 19.5053 497.754 19.5053C497.001 19.5787 496.285 19.9091 495.734 20.4414C495.771 20.6984 495.79 20.9554 495.771 21.2124V24.7366C495.771 25.8746 495.936 25.9847 496.946 26.1132V26.5905H493.055V26.1132C494.193 25.9847 494.358 25.9113 494.358 24.7366V21.6162C494.358 20.2762 493.881 19.542 492.779 19.542C492.045 19.542 491.366 20.0193 490.797 20.4782V24.7366C490.797 25.9113 490.962 26.0398 491.806 26.1132V26.5905H488.007V26.1132C489.182 25.9847 489.384 25.9113 489.384 24.7366V20.9737C489.384 19.799 489.347 19.7256 488.282 19.5604V19.1566C489.145 19.0097 489.989 18.7711 490.797 18.4224V19.8724C491.164 19.6338 491.568 19.3034 492.137 18.9363C492.577 18.6243 493.091 18.4591 493.642 18.4591C494.56 18.4774 495.386 19.0832 495.661 19.9642C496.193 19.5604 496.707 19.23 497.166 18.9547C497.57 18.661 498.047 18.4958 498.543 18.4774C499.956 18.4774 500.856 19.487 500.856 21.2307V24.7182C500.856 25.9297 501.021 26.0214 502.03 26.0949V26.5721H498.102L498.084 26.5905Z" fill="#8F9397"/>
<path d="M502.948 26.5906V26.1134C504.086 25.9849 504.196 25.9115 504.196 24.6633V20.9372C504.196 19.7992 504.16 19.7625 503.058 19.5606V19.12C503.939 18.9915 504.784 18.7529 505.61 18.4225V24.6633C505.61 25.8748 505.738 26.0033 506.913 26.1134V26.5906H502.948ZM503.884 15.9813C503.884 15.4673 504.306 15.0635 504.82 15.0452C505.316 15.0452 505.701 15.4306 505.72 15.9262C505.72 15.9446 505.72 15.9629 505.72 15.9813C505.72 16.4769 505.316 16.899 504.802 16.9174C504.288 16.8623 503.903 16.4769 503.884 15.9813Z" fill="#8F9397"/>
<path d="M511.171 26.5539C510.933 26.6824 510.676 26.7742 510.4 26.7925C509.262 26.7925 508.62 26.0583 508.62 24.6449V19.377H507.372L507.298 19.2118L507.776 18.6795H508.62V17.3395L509.795 16.1648L510.033 16.2015V18.6795H512.107C512.273 18.8814 512.218 19.1934 512.016 19.3403L511.997 19.3586H510.07V24.0209C510.07 25.4709 510.676 25.7646 511.116 25.7646C511.52 25.7463 511.906 25.6361 512.254 25.4342L512.42 25.9115L511.171 26.5539Z" fill="#8F9397"/>
<path d="M518.091 26.5904V26.1132C519.138 25.9847 519.266 25.9113 519.266 24.7365V21.7446C519.266 20.2395 518.697 19.5236 517.486 19.5236C516.751 19.542 516.072 19.8724 515.613 20.4597V24.7549C515.613 25.9296 515.687 26.0581 516.788 26.1315V26.6088H512.933V26.1315C514.035 26.0581 514.182 25.9296 514.182 24.7549V16.1279C514.182 14.9899 514.145 14.9164 512.97 14.7879V14.3841C513.87 14.2373 514.769 14.017 515.65 13.7417V19.7806C516.292 19.1382 517.265 18.4407 518.238 18.4407C519.688 18.4407 520.753 19.3768 520.753 21.5243V24.6815C520.753 25.8562 520.881 25.9847 521.928 26.0581V26.5353H518.073L518.091 26.5904Z" fill="#8F9397"/>
<path d="M527.471 20.7904C527.14 19.7441 526.498 19.0099 525.599 19.0099C524.956 19.0099 524.424 19.5238 524.424 20.1663C524.424 20.203 524.424 20.2213 524.424 20.258C524.424 21.0657 525.158 21.4695 525.966 21.8366C527.342 22.4056 528.242 23.0481 528.242 24.3146C528.242 25.9665 526.7 26.8292 525.25 26.8292C524.516 26.8476 523.8 26.6457 523.176 26.2235C522.992 25.526 522.9 24.8102 522.9 24.0759L523.378 24.0025C523.708 25.1773 524.516 26.2235 525.599 26.2235C526.296 26.2419 526.883 25.6729 526.902 24.9754C526.902 24.1677 526.369 23.7639 525.488 23.3234C524.387 22.7911 523.212 22.2221 523.212 20.8087C523.212 19.5605 524.314 18.4592 525.966 18.4592C526.516 18.4592 527.067 18.5694 527.581 18.7896C527.764 19.4321 527.893 20.0745 527.985 20.7353L527.471 20.7904Z" fill="#8F9397"/>
<path d="M537.493 22.4974C537.493 25.4159 535.345 26.7926 533.565 26.7926C531.399 26.8109 529.618 25.0672 529.6 22.9013C529.6 22.8645 529.6 22.8278 529.6 22.7728C529.6 19.7808 531.913 18.4409 533.565 18.4409C535.731 18.4409 537.493 20.203 537.493 22.3873C537.493 22.424 537.493 22.4607 537.493 22.4974ZM531.307 22.2221C531.307 24.4982 532.317 26.1868 533.785 26.1868C534.923 26.1868 535.859 25.3425 535.859 22.8645C535.859 20.7537 535.015 19.0099 533.436 19.0099C532.28 19.0466 531.307 20.1847 531.307 22.2221Z" fill="#8F9397"/>
<path d="M543.679 26.5905V26.1133C544.725 25.9848 544.853 25.8747 544.853 24.6081V21.5612C544.853 20.313 544.413 19.487 543.201 19.487C542.449 19.5604 541.751 19.8908 541.219 20.4231V24.6816C541.219 25.893 541.347 25.9848 542.394 26.0949V26.5722H538.466V26.0949C539.677 25.9664 539.806 25.893 539.806 24.6816V20.9187C539.806 19.744 539.677 19.7073 538.704 19.5421V19.1383C539.567 18.9914 540.411 18.7528 541.219 18.4041V19.8541C541.586 19.5788 541.99 19.3218 542.43 19.0098C542.871 18.6977 543.385 18.5142 543.936 18.4775C545.349 18.4775 546.285 19.487 546.285 21.2308V24.7183C546.285 25.9297 546.358 26.0215 547.423 26.1316V26.6089H543.697V26.5905H543.679Z" fill="#8F9397"/>
<path d="M548.433 26.5906V26.1134C549.571 25.9849 549.681 25.9115 549.681 24.6633V20.9372C549.681 19.7992 549.644 19.7625 548.543 19.5606V19.12C549.424 18.9915 550.268 18.7529 551.094 18.4225V24.6633C551.094 25.8748 551.223 26.0033 552.397 26.1134V26.5906H548.433ZM549.405 15.9813C549.405 15.4673 549.828 15.0635 550.342 15.0452C550.837 15.0452 551.223 15.4306 551.241 15.9262C551.241 15.9446 551.241 15.9629 551.241 15.9813C551.241 16.4952 550.819 16.899 550.305 16.9174C549.809 16.8623 549.424 16.4769 549.405 15.9813Z" fill="#8F9397"/>
<path d="M559.06 26.7926C558.748 26.7742 558.455 26.6641 558.216 26.4622C558.014 26.2236 557.867 25.9482 557.775 25.6545C557.041 26.1318 556.197 26.8293 555.628 26.8293C554.416 26.8293 553.444 25.8565 553.444 24.645C553.444 24.6266 553.444 24.6266 553.444 24.6083C553.444 23.7089 553.921 23.1582 554.894 22.8278C555.995 22.4607 557.28 21.9835 557.684 21.6531V21.3227C557.684 20.0195 557.078 19.2485 556.142 19.2485C555.83 19.2485 555.536 19.377 555.334 19.6157C555.059 19.9461 554.875 20.3499 554.802 20.7904C554.747 21.029 554.527 21.2126 554.27 21.1942C553.847 21.1575 553.517 20.8455 553.462 20.4233C553.462 20.148 553.701 19.946 554.031 19.6891C554.857 19.1201 555.775 18.6795 556.747 18.4409C557.28 18.4409 557.812 18.6061 558.253 18.9182C558.895 19.4505 559.06 20.1663 559.06 21.1391V24.4982C559.06 25.3058 559.391 25.5995 559.703 25.5995C559.941 25.5995 560.162 25.5261 560.345 25.3976L560.51 25.8748L559.06 26.7926ZM557.775 22.2588C557.408 22.4607 556.527 22.8278 556.16 23.0297C555.463 23.3601 555.059 23.7272 555.059 24.3697C555.022 25.1039 555.591 25.7096 556.325 25.7463C556.344 25.7463 556.344 25.7463 556.362 25.7463C556.913 25.6913 557.408 25.471 557.812 25.1039V22.2772L557.775 22.2588Z" fill="#8F9397"/>
<path d="M566.256 26.5905V26.1133C567.302 25.9848 567.43 25.8747 567.43 24.6081V21.5612C567.43 20.313 566.99 19.487 565.778 19.487C565.026 19.5604 564.328 19.8908 563.796 20.4231V24.6816C563.796 25.893 563.924 25.9848 564.971 26.0949V26.5722H561.043V26.0949C562.254 25.9664 562.383 25.893 562.383 24.6816V20.9187C562.383 19.744 562.254 19.7073 561.281 19.5421V19.1383C562.144 18.9914 562.988 18.7528 563.796 18.4041V19.8541C564.163 19.5788 564.567 19.3218 565.007 19.0098C565.448 18.6977 565.962 18.5142 566.512 18.4775C567.926 18.4775 568.862 19.487 568.862 21.2308V24.7183C568.862 25.9297 568.935 26.0215 570 26.1316V26.6089H566.274L566.256 26.5905Z" fill="#8F9397"/>
<path fill-rule="evenodd" clip-rule="evenodd" d="M470.142 13.4466C468.351 12.7046 466.382 12.7034 464.596 13.4431L464.542 13.3146L464.596 13.4431C462.807 14.1843 461.414 15.5772 460.673 17.3662C459.932 19.1555 459.932 21.1252 460.673 22.9144C461.414 24.7034 462.807 26.0964 464.596 26.8374C466.385 27.5784 468.355 27.5784 470.144 26.8374C471.933 26.0963 473.326 24.7034 474.067 22.9142L474.196 22.9675L474.067 22.9142C474.808 21.125 474.808 19.1552 474.067 17.3662C473.327 15.5804 471.934 14.1886 470.142 13.4466ZM470.249 13.1894L470.196 13.318L470.249 13.1894C472.108 13.9596 473.556 15.4054 474.324 17.2596C475.094 19.1169 475.094 21.1634 474.324 23.0207C473.555 24.8781 472.108 26.3252 470.251 27.0946C468.393 27.8639 466.347 27.8639 464.489 27.0946C462.632 26.3253 461.185 24.8781 460.416 23.0209L460.416 23.0209C459.646 21.1635 459.646 19.1172 460.416 17.2597L460.416 17.2597C461.185 15.4024 462.632 13.9553 464.489 13.186L464.489 13.186C466.344 12.4178 468.39 12.4193 470.249 13.1894Z" fill="#8F9397"/>
<path fill-rule="evenodd" clip-rule="evenodd" d="M472.283 21.7897C471.755 20.8833 470.922 20.8728 470.819 20.8752L470.82 20.8725L474.334 20.1404L470.82 19.4079L470.819 19.407C470.856 19.374 471.539 18.7711 472.564 18.7557C473.337 18.7441 474.006 17.7978 473.579 17.0706C473.579 17.0706 473.453 18.2132 472.01 17.8323C470.995 17.5645 470.398 18.1471 470.328 18.221C470.328 18.2206 470.327 18.22 470.327 18.2195L472.295 15.2158L469.291 17.1836L469.29 17.1829C469.292 17.1388 469.347 16.2258 470.063 15.4884C470.602 14.9333 470.406 13.7908 469.59 13.5786C469.59 13.5786 470.308 14.4763 469.018 15.2272C468.112 15.7551 468.102 16.5884 468.104 16.6911C468.103 16.691 468.103 16.6909 468.102 16.6907L467.37 13.176L466.638 16.6907C466.637 16.6908 466.637 16.6908 466.636 16.691C466.607 16.6588 466 15.9741 465.985 14.9461C465.973 14.1728 465.027 13.5034 464.299 13.9304C464.299 13.9304 465.442 14.0574 465.061 15.5001C464.793 16.5173 465.379 17.1141 465.45 17.1824L465.449 17.1832L462.445 15.2153L464.049 17.6628L464.413 18.2188C464.413 18.2191 464.413 18.2195 464.413 18.2198C464.383 18.2184 463.461 18.1684 462.717 17.4466C462.162 16.908 461.019 17.1039 460.807 17.9201C460.807 17.9201 461.705 17.2018 462.456 18.4913C462.985 19.4006 463.822 19.4082 463.921 19.4058L463.92 19.4079L460.406 20.1402L463.92 20.8724C463.92 20.8727 463.92 20.8729 463.92 20.8732C463.897 20.8942 463.21 21.5097 462.175 21.5254C461.402 21.5368 460.732 22.4832 461.159 23.2104C461.159 23.2104 461.286 22.0678 462.729 22.4487C463.748 22.7177 464.345 22.1292 464.412 22.0592L464.413 22.0617L462.446 25.0647L465.449 23.0973C465.447 23.1281 465.397 24.0495 464.676 24.7927C464.137 25.3477 464.333 26.4901 465.149 26.7025C465.149 26.7025 464.431 25.8047 465.72 25.0538C466.629 24.5246 466.637 23.6884 466.635 23.5893L466.638 23.5898L467.37 27.1046L468.102 23.5898H468.102C468.129 23.6189 468.739 24.3044 468.754 25.335C468.766 26.1082 469.712 26.7775 470.439 26.3505C470.439 26.3505 469.297 26.2236 469.677 24.7809C469.946 23.7643 469.361 23.1677 469.289 23.0987C469.289 23.098 469.29 23.0974 469.291 23.0969L472.294 25.0645L471.256 23.4792L470.327 22.0614C470.368 22.0634 471.283 22.1174 472.022 22.8345C472.577 23.3732 473.719 23.1773 473.931 22.361C473.931 22.3608 473.033 23.0791 472.283 21.7897Z" fill="#8F9397"/>
</g>
<defs>
<clipPath id="clip0">
<rect width="110" height="40" fill="white" transform="translate(460)"/>
</clipPath>
</defs>
</svg>
