<svg width="149" height="34" viewBox="0 0 149 34" fill="none" xmlns="http://www.w3.org/2000/svg">
<path d="M12.75 0C6.23333 0 0 12.0417 0 21.25C0 28.305 5.695 34 12.75 34C19.805 34 25.5 28.305 25.5 21.25C25.5 12.0417 19.2667 0 12.75 0ZM12.75 27.625C9.23667 27.625 6.375 24.7633 6.375 21.25C6.375 16.5183 9.605 10.625 12.75 10.625C15.895 10.625 19.125 16.5183 19.125 21.25C19.125 24.7633 16.2633 27.625 12.75 27.625Z" fill="#00BC87"/>
<path d="M48.337 27.3134H45.702L45.4753 25.7834C44.4553 27.03 42.982 27.625 41.0836 27.625C39.327 27.625 37.967 27.1717 36.947 26.2367C35.927 25.3017 35.4453 24.1117 35.4453 22.61C35.4453 21.1084 35.9553 19.89 37.0036 18.955C38.052 17.9917 39.4403 17.51 41.1686 17.51C42.8403 17.51 44.1153 17.9917 45.0503 18.9267V17.5667C45.0503 16.235 44.7103 15.2434 44.0586 14.5634C43.407 13.8834 42.472 13.5434 41.282 13.5434C40.5453 13.5434 39.837 13.6284 39.157 13.7984C38.477 13.9684 37.9953 14.1384 37.712 14.3084L37.2303 14.5634L36.3803 11.985C36.522 11.8717 36.7486 11.7584 37.0036 11.5884C37.2586 11.4467 37.882 11.2484 38.817 10.9934C39.752 10.7384 40.772 10.625 41.8203 10.625C43.8603 10.625 45.447 11.1917 46.6086 12.3534C47.7703 13.515 48.337 15.1584 48.337 17.3117V27.3134ZM44.3136 24.4234C44.9086 23.9134 45.2203 23.2617 45.2203 22.4684C45.2203 21.675 44.9086 21.0234 44.3136 20.5134C43.7186 20.0034 42.897 19.7484 41.9053 19.7484C40.942 19.7484 40.177 20.0034 39.582 20.5134C38.987 21.0234 38.6753 21.675 38.6753 22.4684C38.6753 23.2617 38.987 23.9134 39.582 24.4234C40.177 24.9334 40.942 25.1884 41.9053 25.1884C42.897 25.1884 43.6903 24.9334 44.3136 24.4234ZM50.632 10.9367H54.1453L57.7436 22.61L61.342 10.9367H64.657L59.132 27.285H56.1003L50.632 10.9367ZM66.8103 17.1134C66.8103 15.13 67.4336 13.5434 68.652 12.3817C69.8703 11.1917 71.457 10.625 73.3836 10.625C75.3386 10.625 76.9253 11.1917 78.1153 12.3534C79.3053 13.515 79.9003 15.0734 79.9003 17.0284V21.1084C79.9003 23.12 79.277 24.6784 78.0586 25.8684C76.8403 27.03 75.2536 27.625 73.2986 27.625C71.3436 27.625 69.7853 27.0584 68.5953 25.925C67.4053 24.7917 66.8386 23.2334 66.8386 21.2217V17.1134H66.8103ZM70.0686 21.1084C70.0686 22.2417 70.3803 23.12 70.9753 23.7434C71.5703 24.395 72.3636 24.7067 73.3553 24.7067C74.347 24.7067 75.112 24.395 75.707 23.7434C76.302 23.0917 76.6136 22.2134 76.6136 21.1084V17.1134C76.6136 16.0084 76.302 15.13 75.707 14.4784C75.112 13.8267 74.3186 13.515 73.3553 13.515C72.3636 13.515 71.5703 13.8267 70.9753 14.4784C70.3803 15.13 70.0686 16.0084 70.0686 17.1134V21.1084ZM93.557 21.0234H96.702V21.3634C96.702 23.2617 96.107 24.7634 94.9453 25.8967C93.7553 27.03 92.2253 27.5967 90.3553 27.5967C88.457 27.5967 86.9553 27.03 85.7936 25.925C84.632 24.82 84.0653 23.29 84.0653 21.335V16.9717C84.0653 15.045 84.6603 13.4867 85.8503 12.3534C87.0403 11.22 88.5703 10.625 90.4403 10.625C92.3103 10.625 93.812 11.1917 94.9736 12.2967C96.1353 13.4017 96.702 14.9034 96.702 16.83V17.1134H93.557V16.915C93.557 15.895 93.2736 15.0734 92.707 14.45C92.1403 13.8267 91.4036 13.515 90.4686 13.515C89.5053 13.515 88.7403 13.8267 88.202 14.45C87.6353 15.0734 87.352 15.895 87.352 16.9717V21.2784C87.352 22.355 87.6353 23.1767 88.202 23.8C88.7686 24.4234 89.5336 24.735 90.4686 24.735C91.4036 24.735 92.1403 24.4234 92.707 23.8284C93.2736 23.2334 93.557 22.4117 93.557 21.3917V21.0234ZM100.924 17.1134C100.924 15.13 101.547 13.5434 102.765 12.3817C103.984 11.1917 105.57 10.625 107.497 10.625C109.452 10.625 111.039 11.1917 112.229 12.3534C113.419 13.515 114.014 15.0734 114.014 17.0284V21.1084C114.014 23.12 113.39 24.6784 112.172 25.8684C110.954 27.03 109.367 27.625 107.412 27.625C105.457 27.625 103.899 27.0584 102.709 25.925C101.519 24.7917 100.952 23.2334 100.952 21.2217V17.1134H100.924ZM104.182 21.1084C104.182 22.2417 104.494 23.12 105.089 23.7434C105.684 24.395 106.477 24.7067 107.469 24.7067C108.46 24.7067 109.225 24.395 109.82 23.7434C110.415 23.0917 110.727 22.2134 110.727 21.1084V17.1134C110.727 16.0084 110.415 15.13 109.82 14.4784C109.225 13.8267 108.432 13.515 107.469 13.515C106.477 13.515 105.684 13.8267 105.089 14.4784C104.494 15.13 104.182 16.0084 104.182 17.1134V21.1084ZM131.297 27.3134H128.435L128.265 25.3867C127.302 26.8884 125.829 27.625 123.874 27.625C122.117 27.625 120.729 27.0867 119.737 26.0384C118.745 24.99 118.235 23.5167 118.235 21.6184V16.745C118.235 14.8184 118.745 13.345 119.794 12.24C120.814 11.1634 122.23 10.625 123.987 10.625C125.744 10.625 127.104 11.2484 128.039 12.4667V4.95837H131.325V27.3134H131.297ZM128.01 17.1134C128.01 16.0084 127.699 15.13 127.104 14.4784C126.509 13.8267 125.715 13.515 124.752 13.515C123.76 13.515 122.967 13.8267 122.372 14.4784C121.777 15.13 121.465 16.0084 121.465 17.1134V21.1084C121.465 22.2417 121.777 23.12 122.372 23.7434C122.967 24.395 123.76 24.7067 124.752 24.7067C125.744 24.7067 126.509 24.395 127.104 23.7434C127.699 23.0917 128.01 22.2134 128.01 21.1084V17.1134ZM148.694 22.1284C148.665 22.27 148.637 22.4684 148.609 22.7234C148.58 22.9784 148.41 23.4034 148.155 24.0267C147.9 24.65 147.56 25.2167 147.164 25.6984C146.739 26.18 146.115 26.6334 145.265 27.03C144.415 27.4267 143.424 27.625 142.29 27.625C140.335 27.625 138.777 27.0584 137.587 25.925C136.397 24.7917 135.83 23.2334 135.83 21.2217V17.1134C135.83 15.13 136.454 13.5434 137.672 12.3817C138.89 11.1917 140.477 10.625 142.404 10.625C144.33 10.625 145.86 11.1917 147.022 12.3534C148.184 13.515 148.779 15.0734 148.779 17.0284V19.38H139.089V21.1084C139.089 22.2417 139.4 23.12 139.995 23.7434C140.59 24.395 141.384 24.7067 142.375 24.7067C142.942 24.7067 143.452 24.5934 143.877 24.3667C144.302 24.14 144.642 23.885 144.84 23.545C145.039 23.2334 145.209 22.9217 145.35 22.61C145.492 22.2984 145.577 22.0434 145.577 21.7884L145.605 21.4767L148.694 22.1284ZM139.06 17.2267H145.605V16.8017C145.605 15.6967 145.294 14.8184 144.699 14.1667C144.104 13.515 143.31 13.2034 142.347 13.2034C141.355 13.2034 140.562 13.515 139.967 14.1667C139.372 14.8184 139.06 15.6967 139.06 16.8017V17.2267Z" fill="#6B6B6B"/>
</svg>
