<svg width="94" height="34" viewBox="0 0 94 34" fill="none" xmlns="http://www.w3.org/2000/svg">
<path d="M16.9996 25.4958V34L25.4967 25.4958H93.4988V0H12.7496L0 25.4958H16.9996Z" fill="#D41F26"/>
<path d="M25.5207 16.992H26.9384V8.4639H25.5208L25.5207 16.992ZM27.1324 6.60306C27.1324 7.11712 26.6909 7.48874 26.2129 7.48874C25.7522 7.48874 25.3438 7.11712 25.3438 6.60306C25.3438 6.05418 25.7522 5.69923 26.2129 5.69923C26.6909 5.69923 27.1324 6.05418 27.1324 6.60306ZM29.9848 11.1765V16.992H28.5485V8.44599H29.6808L29.8771 9.31636C30.1956 8.5705 30.8844 8.39416 31.3632 8.35787C32.9034 8.26942 34.1793 9.7067 34.1793 11.1765V16.992H32.7437V11.1765C32.7437 10.4321 32.1085 9.79368 31.3463 9.79368C30.6026 9.79368 29.9849 10.4321 29.9849 11.1765H29.9848ZM37.0917 17.005H35.6753V7.73211C35.6753 6.08355 37.2505 4.8783 39.0391 4.8783V6.29664C37.9962 6.29664 37.0917 6.95268 37.0917 7.73211V10.3562H38.8452V11.7742H37.0917V17.005ZM44.644 11.1721C44.644 10.2678 43.9185 9.78903 43.1927 9.78903C42.4844 9.78903 41.7411 10.2678 41.7411 11.1721V14.2729C41.7411 15.1784 42.4844 15.6391 43.1926 15.6391C43.9184 15.6391 44.6441 15.1784 44.6441 14.2729L44.644 11.1721ZM46.0781 14.2729C46.0781 16.171 44.6267 17.0932 43.1927 17.0932C41.7411 17.0932 40.3245 16.171 40.3245 14.2729V11.1721C40.3245 9.25751 41.7586 8.37103 43.1927 8.37103C44.6441 8.37103 46.0781 9.25751 46.0781 11.1721V14.2729ZM49.0175 14.4167C48.9657 15.249 49.727 15.6205 50.4689 15.6205C51.1419 15.6205 51.815 15.1598 51.815 14.4343V10.9592C51.815 10.3208 51.0714 9.82555 50.4337 9.80683C49.7076 9.80683 49.0175 10.3032 49.0175 11.012V14.4167ZM50.3976 20.496C49.7808 20.496 48.8412 20.1596 48.1508 19.5377L48.9657 18.4043C49.4776 18.8286 50.0628 19.0426 50.3976 19.0426C51.1767 19.0426 51.815 18.4395 51.815 17.6949V16.1888C51.5687 16.8803 50.8601 17.0575 50.4337 17.0575C48.9472 17.0575 47.5838 16.0815 47.5838 14.4167V11.012C47.5838 9.59375 48.9657 8.24606 50.4336 8.37091C51.0006 8.42399 51.7093 8.63764 51.9398 9.45392L52.0799 8.45914H53.2485V17.6949C53.2485 19.3086 51.9208 20.496 50.3976 20.496ZM54.8308 17.0143V8.52287H56.0167L56.1765 9.39166C56.6725 8.13186 58.0354 8.11428 58.9915 8.87772L58.4959 10.1711C57.663 9.58536 56.3889 9.72927 56.2483 10.8969V17.0143H54.8308ZM62.3051 15.6673C62.977 15.6673 63.6852 15.1179 63.6852 14.4807V13.6127C63.6852 12.9029 63.0676 12.4065 62.3051 12.4065C61.5617 12.4065 60.9408 13.0108 60.9408 13.7718V14.2667C60.9408 15.0312 61.5617 15.6673 62.3051 15.6673ZM59.5076 14.2667V13.7718C59.5076 12.2832 60.641 11.0055 62.269 11.0055C62.8372 11.0055 63.5264 11.3786 63.7216 11.9468L63.6853 11.2013C63.6853 10.457 63.0676 9.83587 62.3052 9.83587C61.9514 9.83587 61.4387 10.0488 60.9579 10.5095L60.1816 9.32294C60.7831 8.7727 61.6141 8.3835 62.3051 8.3835C63.8104 8.3835 65.119 9.64058 65.119 11.2013V16.9987H63.9706L63.8267 16.0919C63.65 16.8402 62.7467 17.1042 62.3051 17.1042C60.7832 17.1042 59.5076 15.7929 59.5076 14.2667ZM68.1048 16.9986H66.6901V8.47082H67.8029L67.9814 9.30445C68.336 8.61348 68.9907 8.3835 69.5037 8.36434C70.2125 8.3471 71.1492 8.68323 71.5904 9.78302C72.017 8.68323 72.8837 8.36434 73.7001 8.36434C75.222 8.36434 76.4613 9.606 76.4613 11.1831V16.9986H75.0436V11.1831C75.0632 9.25116 72.2825 9.33961 72.2825 11.1831V16.9986H70.8663V11.1831C70.8663 10.4387 70.2471 9.8006 69.4673 9.8006C68.7064 9.8006 68.1048 10.4387 68.1048 11.183V16.9986Z" fill="#FEFEFE"/>
</svg>
