<svg width="107" height="34" viewBox="0 0 107 34" fill="none" xmlns="http://www.w3.org/2000/svg">
<path fill-rule="evenodd" clip-rule="evenodd" d="M0 30.4522C0 32.4115 1.58854 34 3.54783 34H102.887C104.846 34 106.435 32.4115 106.435 30.4522V3.54783C106.435 1.58854 104.846 0 102.887 0H3.54783C1.58854 0 0 1.58854 0 3.54783V30.4522Z" fill="#CC0000"/>
<path d="M16.9766 22.5984C17.0144 21.974 17.0522 21.0468 17.0522 20.2332V9.16516H18.6981V14.9171H18.736C19.3226 13.8953 20.3822 13.233 21.8578 13.233C24.1284 13.233 25.7364 15.1249 25.7175 17.9064C25.7175 21.1796 23.655 22.8068 21.6118 22.8068C20.2873 22.8068 19.228 22.296 18.5468 21.085H18.49L18.4143 22.5987H16.9766V22.5984ZM18.6981 18.9279C18.6981 19.136 18.736 19.3442 18.7738 19.5334C19.0955 20.6876 20.0605 21.4823 21.2712 21.4823C23.012 21.4823 24.0527 20.0632 24.0527 17.9632C24.0527 16.1278 23.1066 14.5573 21.3283 14.5573C20.193 14.5573 19.1333 15.3331 18.7928 16.6008C18.7549 16.79 18.6981 17.0171 18.6981 17.282V18.9279Z" fill="white"/>
<path d="M33.3171 22.5984L33.1846 21.4442H33.1279C32.617 22.1632 31.6331 22.8065 30.3275 22.8065C28.4734 22.8065 27.5273 21.5009 27.5273 20.1764C27.5273 17.9629 29.4952 16.7519 33.0333 16.7708V16.5816C33.0333 15.8247 32.8251 14.4626 30.9522 14.4626C30.1007 14.4626 29.2114 14.7276 28.5683 15.1438L28.1899 14.0467C28.9468 13.5547 30.0439 13.233 31.1982 13.233C33.9986 13.233 34.6795 15.1438 34.6795 16.9792V20.4038C34.6795 21.1985 34.7173 21.974 34.8308 22.5984H33.3171ZM33.0711 17.925C31.2546 17.8872 29.1925 18.2089 29.1925 19.9872C29.1925 21.0657 29.9115 21.5763 30.763 21.5763C31.955 21.5763 32.7116 20.8195 32.9765 20.044C33.0333 19.8737 33.0711 19.6845 33.0711 19.5142V17.925Z" fill="white"/>
<path d="M37.6406 9.16516H39.3054V22.5987H37.6406V9.16516Z" fill="white"/>
<path d="M42.065 20.8955C42.557 21.2172 43.4271 21.5578 44.2596 21.5578C45.4706 21.5578 46.0383 20.9523 46.0383 20.1954C46.0383 19.4007 45.5652 18.9655 44.3353 18.5114C42.6894 17.9251 41.9136 17.0168 41.9136 15.9194C41.9136 14.4435 43.1057 13.2328 45.0736 13.2328C46.0007 13.2328 46.8141 13.4977 47.325 13.8004L46.9087 15.0114C46.5492 14.7844 45.8869 14.4816 45.0357 14.4816C44.0518 14.4816 43.5031 15.0493 43.5031 15.7305C43.5031 16.4873 44.0515 16.8279 45.2436 17.282C46.833 17.8875 47.6463 18.6822 47.6463 20.0446C47.6463 21.6527 46.3975 22.788 44.2218 22.788C43.2189 22.788 42.2921 22.542 41.6484 22.1638L42.065 20.8955Z" fill="white"/>
<path d="M55.3324 22.5984L55.2 21.4442H55.1432C54.6323 22.1632 53.6484 22.8065 52.3431 22.8065C50.4891 22.8065 49.543 21.5009 49.543 20.1764C49.543 17.9629 51.5108 16.7519 55.0489 16.7708V16.5816C55.0489 15.8247 54.8408 14.4626 52.9675 14.4626C52.1163 14.4626 51.227 14.7276 50.5837 15.1438L50.2052 14.0467C50.9621 13.5547 52.0596 13.233 53.2135 13.233C56.0139 13.233 56.6948 15.1438 56.6948 16.9792V20.4038C56.6948 21.1985 56.7326 21.974 56.8462 22.5984H55.3324ZM55.0864 17.925C53.27 17.8872 51.2078 18.2089 51.2078 19.9872C51.2078 21.0657 51.9268 21.5763 52.7783 21.5763C53.9701 21.5763 54.7272 20.8195 54.9918 20.044C55.0486 19.8737 55.0864 19.6845 55.0864 19.5142V17.925Z" fill="white"/>
<path d="M59.646 15.9196C59.646 14.9735 59.6271 14.1977 59.5703 13.4412H61.0273L61.103 14.9171H61.1594C61.6706 14.0467 62.5218 13.233 64.0356 13.233C65.2844 13.233 66.2305 13.9899 66.6278 15.0684H66.6657C66.9495 14.5576 67.309 14.1602 67.6874 13.8764C68.2359 13.4601 68.8414 13.233 69.7118 13.233C70.9228 13.233 72.7203 14.0277 72.7203 17.2063V22.5987H71.0931V17.4141C71.0931 15.6544 70.4497 14.5951 69.1063 14.5951C68.1605 14.5951 67.4225 15.2952 67.1387 16.1088C67.063 16.3359 67.0063 16.6386 67.0063 16.9411V22.5984H65.3793V17.1114C65.3793 15.6544 64.7359 14.5951 63.4682 14.5951C62.4275 14.5951 61.6709 15.4274 61.4057 16.2599C61.3114 16.5059 61.2733 16.7897 61.2733 17.0736V22.5984H59.6463V15.9196H59.646Z" fill="white"/>
<path d="M77.5547 10.8678C77.5733 11.4355 77.1573 11.8896 76.495 11.8896C75.9088 11.8896 75.4922 11.4355 75.4922 10.8678C75.4922 10.2813 75.9274 9.82715 76.5329 9.82715C77.1573 9.82715 77.5547 10.2813 77.5547 10.8678ZM75.7003 22.5984V13.4409H77.3654V22.5984H75.7003Z" fill="white"/>
<path d="M86.7105 21.1793H86.6727C86.1807 22.0876 85.1592 22.8066 83.6833 22.8066C81.5455 22.8066 79.8047 20.9526 79.8047 18.1711C79.8047 14.7465 82.0182 13.2328 83.9485 13.2328C85.3674 13.2328 86.3135 13.9329 86.7676 14.8219H86.8054L86.8619 13.4409H88.4324C88.3946 14.2167 88.3759 15.0114 88.3759 15.9572V26.3444H86.7108V21.1793H86.7105ZM86.7105 17.1493C86.7105 16.9222 86.6919 16.6573 86.6348 16.4492C86.3889 15.4274 85.4995 14.557 84.251 14.557C82.5294 14.557 81.4884 16.014 81.4884 18.0762C81.4884 19.8926 82.3588 21.4821 84.1939 21.4821C85.2725 21.4821 86.1996 20.8198 86.5778 19.6656C86.6535 19.4385 86.7102 19.1169 86.7102 18.8709V17.1493H86.7105Z" fill="white"/>
<path d="M93.2666 14.5857C93.2666 15.3804 92.6209 16.0181 91.8016 16.0181C90.9821 16.0181 90.3281 15.3807 90.3281 14.5857C90.3281 13.7992 90.9821 13.1621 91.8016 13.1621C92.6212 13.1621 93.2666 13.7992 93.2666 14.5857ZM90.7669 14.594C90.7669 15.19 91.2053 15.6618 91.8016 15.6618C92.3977 15.6618 92.8364 15.1897 92.8364 14.5854C92.8364 13.9976 92.3977 13.5175 91.7934 13.5175C91.2056 13.5178 90.7669 13.9979 90.7669 14.594ZM91.6195 15.2645H91.2139V13.9482C91.305 13.9317 91.5202 13.9069 91.7934 13.9069C92.0914 13.9069 92.2238 13.9482 92.3232 14.0062C92.406 14.0641 92.4639 14.1635 92.4639 14.2959C92.4639 14.4284 92.3397 14.5443 92.1576 14.594V14.6105C92.3069 14.6602 92.3894 14.7595 92.4311 14.9499C92.4725 15.1403 92.4973 15.2148 92.5222 15.2642H92.0668C92.0255 15.2145 92.0006 15.0986 91.9758 14.983C91.951 14.8506 91.8844 14.7841 91.7523 14.7841H91.6198V15.2645H91.6195ZM91.6361 14.5112H91.7523C91.9013 14.5112 92.0006 14.4535 92.0006 14.3542C92.0006 14.2466 91.9093 14.1883 91.7688 14.1883C91.7192 14.1883 91.6695 14.1966 91.6364 14.1966V14.5112H91.6361Z" fill="white"/>
</svg>
