<svg width="97" height="34" viewBox="0 0 97 34" fill="none"
  xmlns="http://www.w3.org/2000/svg">
  <path fill-rule="evenodd" clip-rule="evenodd" d="M19.7214 0C19.9346 2.00315 19.15 4.01043 17.9833 5.45715C16.8206 6.89974 14.9055 8.02497 13.0428 7.87659C12.7853 5.91466 13.7307 3.87029 14.809 2.59256C16.0119 1.14584 18.0437 0.0700691 19.7214 0ZM34.9614 28.4027L36.8926 22.4056H43.4867L45.4742 28.4027H48.041L41.6964 9.34392H38.7996L32.4791 28.4027H34.9614ZM41.1733 14.9948L42.9918 20.4808L37.3995 20.4767L39.218 14.9659C39.5761 13.8036 39.8778 12.6454 40.1555 11.5161H40.2078C40.231 11.6085 40.2542 11.7011 40.2775 11.794C40.5321 12.8105 40.7936 13.8542 41.1733 14.9948ZM49.8113 14.7145C49.8716 16.0128 49.9239 17.4307 49.9239 19.1824V34H52.3258V26.5644H52.3781C53.1787 27.9205 54.7237 28.7118 56.4899 28.7118C59.636 28.7118 62.5609 26.2842 62.5609 21.3628C62.5609 17.204 60.1349 14.4054 56.9043 14.4054C54.7237 14.4054 53.1506 15.3946 52.1568 17.0639H52.1045L51.9919 14.7145H49.8113ZM52.4344 23.8482C52.3741 23.535 52.3218 23.2011 52.3218 22.8302L52.3258 20.489C52.3258 20.151 52.4063 19.7801 52.4907 19.471C52.9655 17.6038 54.5104 16.3879 56.164 16.3879C58.7308 16.3879 60.139 18.7291 60.139 21.4741C60.139 24.6149 58.6463 26.7623 56.0795 26.7623C54.3374 26.7623 52.877 25.5711 52.4344 23.8482ZM64.9588 14.7145C65.0192 16.0128 65.0715 17.4307 65.0715 19.1824V34H67.4733V26.5644H67.5256C68.3263 27.9205 69.8712 28.7118 71.6374 28.7118C74.7836 28.7118 77.7085 26.2842 77.7085 21.3628C77.7085 17.204 75.2825 14.4054 72.0518 14.4054C69.8712 14.4054 68.2981 15.3946 67.3044 17.0639H67.2521L67.1394 14.7145H64.9588ZM67.586 23.8482C67.5256 23.535 67.4733 23.2011 67.4733 22.8302L67.4774 20.489C67.4774 20.151 67.5578 19.7801 67.6423 19.471C68.1171 17.6038 69.662 16.3879 71.3155 16.3879C73.8824 16.3879 75.2905 18.7291 75.2905 21.4741C75.2905 24.6149 73.7979 26.7623 71.2311 26.7623C69.489 26.7623 68.0285 25.5711 67.586 23.8482ZM82.6531 8.32586H80.223V28.3986H82.6531V8.32586ZM92.1158 26.7623C89.6898 26.7623 87.5896 25.3733 87.5373 22.0099H96.9155L96.9196 21.9774C96.952 21.7217 97 21.3416 97 20.8517C97 18.3334 95.8413 14.4054 91.4801 14.4054C87.5896 14.4054 85.2159 17.6574 85.2159 21.7874C85.2159 25.9173 87.6741 28.6871 91.7859 28.6871C93.9101 28.6871 95.3746 28.2337 96.2275 27.838L95.8131 26.0575C94.9039 26.4531 93.8538 26.7623 92.1158 26.7623ZM91.291 16.186C94.0228 16.186 94.6866 18.6466 94.6585 20.2294H87.5655C87.7586 18.5065 88.8328 16.186 91.291 16.186ZM26.1195 11.4331C25.8445 11.605 22.5089 13.6907 22.5482 17.9436C22.5961 23.1172 26.9388 24.8427 26.9998 24.8669L27 24.867C26.998 24.8733 26.9943 24.8854 26.989 24.903C26.8901 25.2299 26.2187 27.4499 24.7081 29.7444C23.3241 31.8318 21.8922 33.9109 19.6323 33.9563C18.548 33.9765 17.8225 33.6515 17.0684 33.3138C16.2787 32.9601 15.4577 32.5923 14.1605 32.5923C12.8024 32.5923 11.9444 32.9705 11.1173 33.3351C10.4 33.6513 9.70586 33.9573 8.72873 33.9977C6.54482 34.0845 4.88888 31.7408 3.49294 29.6617C0.641051 25.4085 -1.53486 17.6377 1.38502 12.4048C2.83696 9.80077 5.43286 8.15155 8.24875 8.11021C9.46221 8.08443 10.6371 8.56638 11.6662 8.98851C12.4518 9.3108 13.1525 9.59823 13.7205 9.59823C14.2303 9.59823 14.9128 9.31991 15.7081 8.99556C16.9597 8.48515 18.4908 7.86074 20.0683 8.02754C21.1482 8.07301 24.1801 8.47808 26.132 11.4252C26.129 11.4271 26.1248 11.4297 26.1195 11.4331Z" fill="black"/>
</svg>
