<svg width="110" height="40" viewBox="0 0 110 40" fill="none" xmlns="http://www.w3.org/2000/svg">
<g clip-path="url(#clip0)">
<path d="M25.9328 17.5598C25.6024 16.385 25.1252 15.1736 23.5466 15.1736C22.482 15.1185 21.5826 15.9261 21.5275 16.9907C21.5275 17.0458 21.5275 17.1009 21.5275 17.1559C21.5275 18.4959 22.3719 19.1016 23.8403 19.8358C25.2904 20.57 26.9791 21.4144 26.9791 23.4335C26.9791 25.3424 25.3638 26.8292 22.9776 26.8292C22.3719 26.8108 21.7662 26.719 21.1971 26.5539C20.8851 26.4437 20.5914 26.3336 20.2977 26.1867C20.0775 25.269 19.9123 24.3329 19.8205 23.3967L20.3528 23.2683C20.6281 24.3696 21.4541 26.1867 23.308 26.1867C24.6846 26.1867 25.4923 25.3424 25.4923 24.0025C25.4923 22.6625 24.4827 22.0201 23.1428 21.2859C21.9681 20.6802 20.1509 19.744 20.1509 17.725C20.1509 15.9812 21.5275 14.4761 23.877 14.4761C24.6479 14.4944 25.4189 14.6413 26.1531 14.8799C26.2265 15.5223 26.3183 16.2565 26.4835 17.3946L25.9328 17.5598Z" fill="#8F9397"/>
<path d="M38.084 26.5905V26.1132C39.1302 25.9847 39.3321 25.948 39.3321 24.6632V21.6162C39.3321 20.313 38.8916 19.5053 37.7536 19.5053C37.001 19.5787 36.2851 19.9091 35.7345 20.4414C35.7712 20.6984 35.7895 20.9554 35.7712 21.2124V24.7366C35.7712 25.8746 35.9364 25.9847 36.9459 26.1132V26.5905H33.0546V26.1132C34.1926 25.9847 34.3578 25.9113 34.3578 24.7366V21.6162C34.3578 20.2762 33.8806 19.542 32.7793 19.542C32.0451 19.542 31.3659 20.0193 30.7969 20.4782V24.7366C30.7969 25.9113 30.9621 26.0398 31.8064 26.1132V26.5905H28.0069V26.1132C29.1816 25.9847 29.3835 25.9113 29.3835 24.7366V20.9737C29.3835 19.799 29.3468 19.7256 28.2822 19.5604V19.1566C29.1449 19.0097 29.9893 18.7711 30.7969 18.4224V19.8724C31.164 19.6338 31.5678 19.3034 32.1368 18.9363C32.5774 18.6243 33.0913 18.4591 33.642 18.4591C34.5597 18.4774 35.3857 19.0832 35.6611 19.9642C36.1934 19.5604 36.7073 19.23 37.1662 18.9547C37.57 18.661 38.0472 18.4958 38.5428 18.4774C39.9562 18.4774 40.8556 19.487 40.8556 21.2307V24.7182C40.8556 25.9297 41.0208 26.0214 42.0303 26.0949V26.5721H38.1023L38.084 26.5905Z" fill="#8F9397"/>
<path d="M42.9482 26.5906V26.1134C44.0862 25.9849 44.1963 25.9115 44.1963 24.6633V20.9372C44.1963 19.7992 44.1596 19.7625 43.0583 19.5606V19.12C43.9394 18.9915 44.7837 18.7529 45.6097 18.4225V24.6633C45.6097 25.8748 45.7382 26.0033 46.9129 26.1134V26.5906H42.9482ZM43.8843 15.9813C43.8843 15.4673 44.3065 15.0635 44.8204 15.0452C45.316 15.0452 45.7015 15.4306 45.7198 15.9262C45.7198 15.9446 45.7198 15.9629 45.7198 15.9813C45.7198 16.4769 45.316 16.899 44.8021 16.9174C44.2881 16.8623 43.9027 16.4769 43.8843 15.9813Z" fill="#8F9397"/>
<path d="M51.1714 26.5539C50.9327 26.6824 50.6758 26.7742 50.4004 26.7925C49.2624 26.7925 48.62 26.0583 48.62 24.6449V19.377H47.3718L47.2984 19.2118L47.7756 18.6795H48.62V17.3395L49.7947 16.1648L50.0333 16.2015V18.6795H52.1075C52.2727 18.8814 52.2176 19.1934 52.0157 19.3403L51.9974 19.3586H50.0701V24.0209C50.0701 25.4709 50.6758 25.7646 51.1163 25.7646C51.5201 25.7463 51.9056 25.6361 52.2543 25.4342L52.4195 25.9115L51.1714 26.5539Z" fill="#8F9397"/>
<path d="M58.0913 26.5904V26.1132C59.1376 25.9847 59.266 25.9113 59.266 24.7365V21.7446C59.266 20.2395 58.697 19.5236 57.4856 19.5236C56.7514 19.542 56.0722 19.8724 55.6133 20.4597V24.7549C55.6133 25.9296 55.6868 26.0581 56.7881 26.1315V26.6088H52.9335V26.1315C54.0348 26.0581 54.1816 25.9296 54.1816 24.7549V16.1279C54.1816 14.9899 54.1449 14.9164 52.9702 14.7879V14.3841C53.8696 14.2373 54.769 14.017 55.6501 13.7417V19.7806C56.2925 19.1382 57.2653 18.4407 58.2381 18.4407C59.6882 18.4407 60.7528 19.3768 60.7528 21.5243V24.6815C60.7528 25.8562 60.8813 25.9847 61.9276 26.0581V26.5353H58.073L58.0913 26.5904Z" fill="#8F9397"/>
<path d="M67.4708 20.7904C67.1404 19.7441 66.498 19.0099 65.5986 19.0099C64.9561 19.0099 64.4238 19.5238 64.4238 20.1663C64.4238 20.203 64.4238 20.2213 64.4238 20.258C64.4238 21.0657 65.158 21.4695 65.9657 21.8366C67.3423 22.4056 68.2417 23.0481 68.2417 24.3146C68.2417 25.9665 66.6999 26.8292 65.2498 26.8292C64.5156 26.8476 63.7997 26.6457 63.1757 26.2235C62.9921 25.526 62.9003 24.8102 62.9003 24.0759L63.3776 24.0025C63.708 25.1773 64.5156 26.2235 65.5986 26.2235C66.2961 26.2419 66.8834 25.6729 66.9018 24.9754C66.9018 24.1677 66.3695 23.7639 65.4884 23.3234C64.3871 22.7911 63.2124 22.2221 63.2124 20.8087C63.2124 19.5605 64.3137 18.4592 65.9657 18.4592C66.5163 18.4592 67.067 18.5694 67.5809 18.7896C67.7645 19.4321 67.893 20.0745 67.9847 20.7353L67.4708 20.7904Z" fill="#8F9397"/>
<path d="M77.4928 22.4974C77.4928 25.4159 75.3452 26.7926 73.5648 26.7926C71.3989 26.8109 69.6184 25.0672 69.6 22.9013C69.6 22.8645 69.6 22.8278 69.6 22.7728C69.6 19.7808 71.9128 18.4409 73.5648 18.4409C75.7307 18.4409 77.4928 20.203 77.4928 22.3873C77.4928 22.424 77.4928 22.4607 77.4928 22.4974ZM71.3071 22.2221C71.3071 24.4982 72.3166 26.1868 73.785 26.1868C74.9231 26.1868 75.8592 25.3425 75.8592 22.8645C75.8592 20.7537 75.0148 19.0099 73.4363 19.0099C72.2799 19.0466 71.3071 20.1847 71.3071 22.2221Z" fill="#8F9397"/>
<path d="M83.6785 26.5905V26.1133C84.7248 25.9848 84.8533 25.8747 84.8533 24.6081V21.5612C84.8533 20.313 84.4128 19.487 83.2013 19.487C82.4487 19.5604 81.7512 19.8908 81.2189 20.4231V24.6816C81.2189 25.893 81.3474 25.9848 82.3937 26.0949V26.5722H78.4656V26.0949C79.6771 25.9664 79.8056 25.893 79.8056 24.6816V20.9187C79.8056 19.744 79.6771 19.7073 78.7043 19.5421V19.1383C79.567 18.9914 80.4113 18.7528 81.2189 18.4041V19.8541C81.586 19.5788 81.9899 19.3218 82.4304 19.0098C82.8709 18.6977 83.3849 18.5142 83.9355 18.4775C85.3489 18.4775 86.285 19.487 86.285 21.2308V24.7183C86.285 25.9297 86.3584 26.0215 87.423 26.1316V26.6089H83.6969V26.5905H83.6785Z" fill="#8F9397"/>
<path d="M88.4326 26.5906V26.1134C89.5706 25.9849 89.6807 25.9115 89.6807 24.6633V20.9372C89.6807 19.7992 89.644 19.7625 88.5427 19.5606V19.12C89.4237 18.9915 90.2681 18.7529 91.0941 18.4225V24.6633C91.0941 25.8748 91.2226 26.0033 92.3973 26.1134V26.5906H88.4326ZM89.4054 15.9813C89.4054 15.4673 89.8276 15.0635 90.3415 15.0452C90.8371 15.0452 91.2226 15.4306 91.2409 15.9262C91.2409 15.9446 91.2409 15.9629 91.2409 15.9813C91.2409 16.4952 90.8187 16.899 90.3048 16.9174C89.8092 16.8623 89.4237 16.4769 89.4054 15.9813Z" fill="#8F9397"/>
<path d="M99.0603 26.7926C98.7482 26.7742 98.4545 26.6641 98.2159 26.4622C98.014 26.2236 97.8672 25.9482 97.7754 25.6545C97.0412 26.1318 96.1968 26.8293 95.6278 26.8293C94.4164 26.8293 93.4435 25.8565 93.4435 24.645C93.4435 24.6266 93.4435 24.6266 93.4435 24.6083C93.4435 23.7089 93.9208 23.1582 94.8936 22.8278C95.9949 22.4607 97.2798 21.9835 97.6836 21.6531V21.3227C97.6836 20.0195 97.0779 19.2485 96.1418 19.2485C95.8297 19.2485 95.536 19.377 95.3341 19.6157C95.0588 19.9461 94.8752 20.3499 94.8018 20.7904C94.7468 21.029 94.5265 21.2126 94.2695 21.1942C93.8474 21.1575 93.517 20.8455 93.4619 20.4233C93.4619 20.148 93.7005 19.946 94.0309 19.6891C94.8569 19.1201 95.7747 18.6795 96.7475 18.4409C97.2798 18.4409 97.8121 18.6061 98.2526 18.9182C98.8951 19.4505 99.0603 20.1663 99.0603 21.1391V24.4982C99.0603 25.3058 99.3907 25.5995 99.7027 25.5995C99.9413 25.5995 100.162 25.5261 100.345 25.3976L100.51 25.8748L99.0603 26.7926ZM97.7754 22.2588C97.4083 22.4607 96.5272 22.8278 96.1601 23.0297C95.4626 23.3601 95.0588 23.7272 95.0588 24.3697C95.0221 25.1039 95.5911 25.7096 96.3253 25.7463C96.3437 25.7463 96.3437 25.7463 96.362 25.7463C96.9127 25.6913 97.4083 25.471 97.8121 25.1039V22.2772L97.7754 22.2588Z" fill="#8F9397"/>
<path d="M106.256 26.5905V26.1133C107.302 25.9848 107.43 25.8747 107.43 24.6081V21.5612C107.43 20.313 106.99 19.487 105.778 19.487C105.026 19.5604 104.328 19.8908 103.796 20.4231V24.6816C103.796 25.893 103.924 25.9848 104.971 26.0949V26.5722H101.043V26.0949C102.254 25.9664 102.383 25.893 102.383 24.6816V20.9187C102.383 19.744 102.254 19.7073 101.281 19.5421V19.1383C102.144 18.9914 102.988 18.7528 103.796 18.4041V19.8541C104.163 19.5788 104.567 19.3218 105.007 19.0098C105.448 18.6977 105.962 18.5142 106.512 18.4775C107.926 18.4775 108.862 19.487 108.862 21.2308V24.7183C108.862 25.9297 108.935 26.0215 110 26.1316V26.6089H106.274L106.256 26.5905Z" fill="#8F9397"/>
<path fill-rule="evenodd" clip-rule="evenodd" d="M10.1424 13.4466C8.35101 12.7046 6.3818 12.7034 4.59575 13.4431L4.54249 13.3146L4.59575 13.4431C2.80676 14.1843 1.41387 15.5772 0.672834 17.3662C-0.0682048 19.1555 -0.0682038 21.1252 0.672834 22.9144C1.41396 24.7034 2.80677 26.0964 4.59592 26.8374C6.38509 27.5784 8.35499 27.5784 10.144 26.8374C11.9331 26.0963 13.326 24.7034 14.067 22.9142L14.1956 22.9675L14.067 22.9142C14.8082 21.125 14.8082 19.1552 14.067 17.3662C13.3272 15.5804 11.9339 14.1886 10.1424 13.4466ZM10.249 13.1894L10.1957 13.318L10.249 13.1894C12.1084 13.9596 13.556 15.4054 14.3242 17.2596C15.0936 19.1169 15.0936 21.1634 14.3242 23.0207C13.5549 24.8781 12.1079 26.3252 10.2505 27.0946C8.39331 27.8639 6.34677 27.8639 4.4894 27.0946C2.63202 26.3253 1.18503 24.8781 0.415653 23.0209L0.415649 23.0209C-0.353638 21.1635 -0.353637 19.1172 0.415648 17.2597L0.41565 17.2597C1.18494 15.4024 2.63203 13.9553 4.48922 13.186L4.48923 13.186C6.34371 12.4178 8.38956 12.4193 10.249 13.1894Z" fill="#8F9397"/>
<path fill-rule="evenodd" clip-rule="evenodd" d="M12.2827 21.7897C11.7549 20.8833 10.922 20.8728 10.8188 20.8752L10.8195 20.8725L14.3342 20.1404L10.8195 19.4079L10.8192 19.407C10.8559 19.374 11.5393 18.7711 12.5637 18.7557C13.3371 18.7441 14.0064 17.7978 13.5794 17.0706C13.5794 17.0706 13.4525 18.2132 12.0098 17.8323C10.9949 17.5645 10.3985 18.1471 10.328 18.221C10.3276 18.2206 10.3271 18.22 10.3269 18.2195L12.2948 15.2158L9.29126 17.1836L9.29006 17.1829C9.29221 17.1388 9.34737 16.2258 10.0632 15.4884C10.6016 14.9333 10.4059 13.7908 9.58979 13.5786C9.58979 13.5786 10.3079 14.4763 9.01847 15.2272C8.11172 15.7551 8.1016 16.5884 8.104 16.6911C8.10339 16.691 8.10279 16.6909 8.1022 16.6907L7.36994 13.176L6.63769 16.6907C6.63717 16.6908 6.63657 16.6908 6.63614 16.691C6.60698 16.6588 5.99988 15.9741 5.98452 14.9461C5.97294 14.1728 5.02657 13.5034 4.29937 13.9304C4.29937 13.9304 5.44211 14.0574 5.06105 15.5001C4.79263 16.5173 5.37863 17.1141 5.45026 17.1824L5.44905 17.1832L2.44531 15.2153L4.04888 17.6628L4.41312 18.2188C4.41295 18.2191 4.4126 18.2195 4.41252 18.2198C4.38284 18.2184 3.46065 18.1684 2.71707 17.4466C2.16204 16.908 1.01948 17.1039 0.807333 17.9201C0.807333 17.9201 1.70498 17.2018 2.45586 18.4913C2.98532 19.4006 3.82189 19.4082 3.92063 19.4058L3.92029 19.4079L0.405518 20.1402L3.92029 20.8724C3.92029 20.8727 3.92029 20.8729 3.92046 20.8732C3.8973 20.8942 3.21033 21.5097 2.17491 21.5254C1.40165 21.5368 0.732185 22.4832 1.15931 23.2104C1.15931 23.2104 1.28618 22.0678 2.72891 22.4487C3.74777 22.7177 4.34483 22.1292 4.41157 22.0592L4.41329 22.0617L2.44582 25.0647L5.44871 23.0973C5.44717 23.1281 5.3969 24.0495 4.67562 24.7927C4.13689 25.3477 4.33274 26.4901 5.14898 26.7025C5.14898 26.7025 4.43079 25.8047 5.72031 25.0538C6.62919 24.5246 6.637 23.6884 6.63468 23.5893L6.6376 23.5898L7.36986 27.1046L8.10212 23.5898H8.10246C8.1288 23.6189 8.73881 24.3044 8.75408 25.335C8.76583 26.1082 9.71212 26.7775 10.4393 26.3505C10.4393 26.3505 9.29684 26.2236 9.67747 24.7809C9.94589 23.7643 9.36083 23.1677 9.2886 23.0987C9.28943 23.098 9.29032 23.0974 9.29126 23.0969L12.2944 25.0645L11.2556 23.4792L10.3268 22.0614C10.3679 22.0634 11.2828 22.1174 12.0217 22.8345C12.5766 23.3732 13.7191 23.1773 13.9314 22.361C13.9314 22.3608 13.0334 23.0791 12.2827 21.7897V21.7897Z" fill="#8F9397"/>
</g>
<defs>
<clipPath id="clip0">
<rect width="110" height="40" fill="white"/>
</clipPath>
</defs>
</svg>
