<svg width="84" height="34" viewBox="0 0 84 34" fill="none" xmlns="http://www.w3.org/2000/svg">
<path d="M53.7602 15.8923C53.7602 15.833 53.7602 15.744 53.7899 15.6846C53.7899 15.477 53.8195 15.2693 53.8195 15.0616C53.8195 15.0023 53.8195 14.9726 53.8195 14.9133C53.7899 12.7772 53.1668 10.8191 51.9505 9.24673C50.3187 7.19966 47.8266 6.01295 44.9192 5.89427C41.9228 5.7756 38.9263 6.75464 36.4639 8.77205C35.3959 9.66208 34.4762 10.7004 33.7345 11.8278C32.8148 13.1629 32.1621 14.6759 31.8357 16.3373V16.3967C31.7764 16.6933 31.7171 16.9603 31.6874 17.257C31.6874 17.2867 31.6874 17.346 31.6577 17.3757C31.6281 17.5537 31.6281 17.7317 31.5984 17.9097C31.5984 17.969 31.5984 18.058 31.5687 18.1174C31.5687 18.3251 31.5391 18.5327 31.5391 18.7404C31.5391 18.7997 31.5391 18.8294 31.5391 18.8887C31.5687 21.0248 32.1918 22.9829 33.4081 24.5553C35.0102 26.6024 37.5023 27.7891 40.4097 27.8781C43.4062 27.9967 46.4026 27.0177 48.865 25.0003C49.9331 24.1103 50.8528 23.0719 51.5945 21.9445C52.5142 20.6095 53.1668 19.0964 53.4932 17.435V17.3757C53.5525 17.079 53.6119 16.812 53.6415 16.5153C53.6415 16.4857 53.6415 16.4263 53.6712 16.3967C53.7305 16.2483 53.7602 16.0703 53.7602 15.8923ZM37.977 21.4105C37.0276 20.1941 36.7012 18.4734 37.0869 16.6637V16.6043C37.8286 12.9849 40.8547 10.6411 44.0885 10.7301C44.1479 10.7301 44.2369 10.7301 44.2962 10.7301C45.5719 10.8785 46.6399 11.4421 47.3816 12.3915C48.331 13.6079 48.6573 15.3286 48.2717 17.1383V17.1977C47.5003 20.8468 44.5039 23.1906 41.2404 23.0719C41.1811 23.0719 41.0921 23.0719 41.0327 23.0719C39.7867 22.9236 38.7187 22.3599 37.977 21.4105Z" fill="#00A2E5"/>
<path d="M10.1464 11.0861C10.6211 10.9971 11.1254 11.0267 11.5408 11.0267H18.0083L18.9874 6.33923H16.1096H13.8252H12.1638C10.1464 6.33923 8.21796 6.39857 6.64557 7.11059C4.86551 7.91162 3.73814 9.48401 3.23378 11.9168L0 27.8187H2.90744C5.63687 27.8187 6.11155 25.3859 6.17089 25.1782L7.32793 19.4227H15.5162L16.4656 14.8242H8.24763L8.57398 13.1925C8.60364 13.1035 8.66298 12.7475 8.81132 12.2431C8.81132 12.2431 8.92999 11.7981 9.25634 11.5014C9.49368 11.2641 9.82002 11.1454 10.1464 11.0861Z" fill="#00A2E5"/>
<path d="M71.7961 9.75097C71.2918 8.74227 70.3128 8.23792 69.2151 8.23792C67.2273 8.23792 65.7439 9.48396 64.5275 12.1837L60.5817 20.9357C60.5817 17.9986 60.5817 11.798 60.5817 9.42463C60.5817 8.32692 60.3147 7.49622 59.7214 6.90287C59.1577 6.33918 58.3567 6.0425 57.3183 6.0425C56.4283 6.0425 55.6866 6.25018 55.6569 6.27985L55.4492 6.33918L55.7459 24.2882C55.8052 26.7803 56.6656 27.8186 58.8907 28.0856C59.0093 28.0856 59.1577 28.1153 59.2764 28.1153C61.1158 28.1153 62.7475 26.7803 63.7562 24.4365L67.5833 15.7735V17.7019L67.6723 24.3178C67.7613 26.9286 68.7997 28.0856 71.0841 28.0856C73.1609 28.0856 74.5849 26.9583 75.7123 24.4068L83.7819 6.45785L83.4852 6.33918C83.4556 6.30951 82.4469 5.89417 81.2305 5.89417C80.0141 5.89417 78.3824 6.30951 77.522 8.35659C76.5726 10.5817 72.6268 20.3424 72.5972 20.461L72.4192 20.906L72.3598 12.6584C72.3598 11.709 72.2412 10.6113 71.7961 9.75097Z" fill="#00A2E5"/>
<path d="M30.7646 23.0719L29.7856 27.8187H27.7681H24.386C21.7159 27.8187 19.4018 27.7 18.2448 26.2463C17.4734 25.2969 17.2954 23.9322 17.6811 22.0632L20.9446 6.33926H22.428C22.5763 6.33926 24.208 6.27992 25.1574 7.43696C25.7804 8.20833 25.9584 9.30603 25.6617 10.7004L23.496 21.0248C23.2883 22.0038 23.2883 22.5082 23.496 22.7752C23.7037 23.0125 24.1784 23.1312 25.1574 23.1312H27.5901H29.1625L30.7646 23.0719Z" fill="#00A2E5"/>
</svg>
