<svg width="132" height="34" viewBox="0 0 132 34" fill="none"
  xmlns="http://www.w3.org/2000/svg">
  <path d="M23.7156 0L37.6668 33.2853V0H23.7156ZM0 0V33.2853L13.9512 0H0ZM12.755 26.4975H19.1255L21.9213 33.2714H27.6937L18.736 12.1569L12.755 26.4975Z" fill="#ED2224"/>
  <path fill-rule="evenodd" clip-rule="evenodd" d="M73.9258 19.5453C73.9258 15.4977 76.9442 12.2568 81.8681 12.2568C82.2576 12.2568 82.5914 12.2846 83.0644 12.3402V6.60953C83.0644 6.47043 83.12 6.41479 83.2313 6.41479H86.2774C86.4165 6.41479 86.4165 6.47043 86.4165 6.58171V23.4539C86.4165 24.0103 86.4722 24.7335 86.5278 25.2482C86.5278 25.3873 86.5 25.4429 86.3609 25.4986C84.5388 26.2775 82.7584 26.5835 81.0753 26.5835C77.0277 26.5974 73.9258 24.2467 73.9258 19.5453ZM83.0644 15.2751C82.7027 15.136 82.2576 15.0804 81.7569 15.0804C79.2671 15.0804 77.4032 16.68 77.4032 19.3784C77.4032 22.4246 79.2253 23.6764 81.4509 23.6764C82.0072 23.6764 82.5636 23.6208 83.0783 23.4539V15.2751H83.0644ZM61.0457 21.4807L59.5157 26.0848C59.46 26.2517 59.3766 26.3073 59.2097 26.3073H56.4139C56.2469 26.3073 56.1913 26.2239 56.2191 26.0291L61.9776 9.65771C62.0889 9.37952 62.1724 9.10133 62.228 8.15549C62.228 8.04421 62.2836 7.96076 62.3949 7.96076H66.2757C66.4147 7.96076 66.4426 7.98858 66.4704 8.12767L72.9244 26.0709C72.9522 26.2378 72.9244 26.3212 72.7575 26.3212H69.6278C69.4887 26.3212 69.4053 26.2656 69.3496 26.1543L67.7222 21.4947H61.0457V21.4807ZM66.832 18.4346C66.628 17.7885 66.334 16.8946 66.0141 15.9219L66.0141 15.9219C65.4181 14.1096 64.7321 12.0237 64.3701 10.7566H64.3422C63.9755 12.3038 63.146 14.7954 62.3984 17.0409L62.3984 17.0409C62.2387 17.5206 62.0828 17.989 61.9359 18.4346H66.832ZM95.834 26.5856C99.7703 26.5856 102.538 23.6785 102.538 19.3527C102.538 15.5276 100.202 12.2588 95.8896 12.2588C91.7029 12.2588 89.1018 15.4719 89.1018 19.4361C89.1018 22.983 91.1604 26.5856 95.834 26.5856ZM95.8896 23.7342C93.7615 23.7342 92.5096 21.9537 92.5096 19.3805C92.5096 16.7238 93.8588 15.0825 95.7227 15.0825C98.1012 15.0825 99.1027 17.1132 99.1027 19.4361C99.1027 22.3154 97.6283 23.7342 95.8896 23.7342ZM108.297 6.41479C108.492 6.41479 108.547 6.44261 108.547 6.63735L108.575 12.6462C109.326 12.3959 110.202 12.2568 111.12 12.2568C115.14 12.2568 117.713 15.1082 117.713 18.8499C117.713 24.0242 113.694 26.5835 109.549 26.5835C108.102 26.5835 106.697 26.3888 105.362 25.9715C105.251 25.9437 105.167 25.8046 105.167 25.7211V6.60953C105.167 6.47043 105.251 6.41479 105.362 6.41479H108.297ZM110.536 15.136C109.563 15.136 109.034 15.2751 108.575 15.442V23.6069C108.964 23.7182 109.382 23.746 109.855 23.746C112.15 23.746 114.264 22.2994 114.264 19.1976C114.278 16.527 112.748 15.136 110.536 15.136ZM123.112 20.2112C123.201 22.1659 124.482 23.7164 127.326 23.7164C128.578 23.7164 129.733 23.4939 130.79 23.0488C130.873 22.9931 130.957 23.021 130.957 23.1601V25.4829C130.957 25.6498 130.901 25.7333 130.79 25.7889C129.733 26.2897 128.495 26.5957 126.603 26.5957C121.512 26.5957 119.704 23.021 119.704 19.5853C119.704 15.7046 122.055 12.2689 126.269 12.2689C130.4 12.2689 132 15.5099 132 18.1666C132 18.9455 131.972 19.5853 131.889 19.9052C131.861 20.0165 131.805 20.0722 131.666 20.1C131.277 20.1834 130.164 20.2112 128.787 20.2112H123.112ZM128.801 17.7632C128.69 17.791 128.328 17.791 127.271 17.791H123.098C123.321 16.414 124.183 14.9396 126.116 14.9396C128.244 14.9396 128.801 16.7339 128.801 17.5406V17.7632Z" fill="#2D2E2D"/>
</svg>
