<svg width="110" height="40" viewBox="0 0 110 40" fill="none" xmlns="http://www.w3.org/2000/svg">
<path d="M16.3609 8.00175L12 18.2706H14.8392L15.6438 16.2143H20.3216L21.122 18.2706H24.0237L19.6668 8.00175H16.3609ZM17.9743 10.3916L19.4001 13.9849H16.5443L17.9743 10.3916ZM24.3239 18.2689V8L28.3584 8.01515L30.7051 14.6359L32.9955 8H36.9979V18.2689H34.4631V10.7023L31.7761 18.2689H29.5531L26.8587 10.7023V18.2689H24.3239ZM38.7322 18.2689V8H47.0037V10.297H41.2937V12.0535H46.8703V14.2154H41.2937V16.0395H47.0037V18.2689H38.7322ZM48.4713 8.00175V18.2706H51.0061V14.6224H52.0733L55.1126 18.2706H58.2103L54.875 14.4873C56.2438 14.3703 57.6557 13.1805 57.6557 11.3332C57.6557 9.17231 55.9811 8.00175 54.1121 8.00175H48.4713ZM51.0061 10.2987H53.9035C54.5987 10.2987 55.1043 10.8494 55.1043 11.3796C55.1043 12.0618 54.4491 12.4606 53.9411 12.4606H51.0061V10.2987ZM61.2787 18.2689H58.6906V8H61.2787V18.2689ZM67.4156 18.2689H66.857C64.1539 18.2689 62.5127 16.112 62.5127 13.1767C62.5127 10.1687 64.1355 8 67.549 8H70.3506V10.4321H67.4466C66.0609 10.4321 65.0809 11.5273 65.0809 13.202C65.0809 15.1907 66.2015 16.0259 67.8158 16.0259H68.4829L67.4156 18.2689ZM72.9313 8.00175L68.5705 18.2706H71.4096L72.2142 16.2143H76.892L77.6924 18.2706H80.5941L76.2374 8.00175H72.9313ZM74.5448 10.3916L75.9706 13.9849H73.1147L74.5448 10.3916ZM80.8901 18.2689V8H84.1128L88.2277 14.4519V8H90.7626V18.2689H87.644L83.4249 11.6482V18.2689H80.8901ZM30.4608 30.9982V20.7294H38.7322V23.0263H33.0222V24.7829H38.5988V26.9448H33.0222V28.7689H38.7322V30.9982H30.4608ZM70.9911 30.9982V20.7294H79.2625V23.0263H73.5525V24.7829H79.1024V26.9448H73.5524V28.7689H79.2624V30.9982H70.9911ZM39.0532 30.9982L43.0806 25.9272L38.9574 20.7294H42.1509L44.6065 23.9426L47.0705 20.7294H50.139L46.07 25.8638L50.1047 30.9982H46.9117L44.5273 27.8357L42.201 30.9982H39.0532ZM50.4057 20.7311V31H53.0072V27.7573H55.6754C57.9331 27.7573 59.6444 26.5441 59.6444 24.1851C59.6444 22.2308 58.3022 20.7311 56.0048 20.7311H50.4057ZM53.0072 23.0535H55.8172C56.5466 23.0535 57.0679 23.5062 57.0679 24.2357C57.0679 24.921 56.5492 25.418 55.8089 25.418H53.0072V23.0535ZM60.7451 20.7294V30.9982H63.2799V27.3501H64.3472L67.3864 30.9982H70.484L67.1488 27.215C68.5176 27.098 69.9295 25.9081 69.9295 24.0608C69.9295 21.8999 68.2549 20.7294 66.3859 20.7294H60.7451ZM63.2799 23.0263H66.1774C66.8725 23.0263 67.3781 23.577 67.3781 24.1073C67.3781 24.7895 66.723 25.1882 66.2149 25.1882H63.2799V23.0263ZM80.4365 30.9982V28.7689H85.5095C86.2601 28.7689 86.5851 28.358 86.5851 27.9074C86.5851 27.4757 86.2611 27.0394 85.5095 27.0394H83.217C81.2245 27.0394 80.1147 25.8099 80.1147 23.9638C80.1147 22.3172 81.1309 20.7294 84.0921 20.7294H89.0282L87.9609 23.0399H83.6917C82.8757 23.0399 82.6245 23.4736 82.6245 23.8878C82.6245 24.3134 82.9349 24.7829 83.5583 24.7829H85.9597C88.181 24.7829 89.1449 26.059 89.1449 27.7301C89.1449 29.5268 88.0708 30.9982 85.8388 30.9982H80.4365ZM89.7399 30.9982V28.7689H94.8128C95.5635 28.7689 95.8884 28.358 95.8884 27.9074C95.8884 27.4757 95.5645 27.0394 94.8128 27.0394H92.5204C90.5277 27.0394 89.418 25.8099 89.418 23.9638C89.418 22.3172 90.4343 20.7294 93.3953 20.7294H98.3316L97.2642 23.0399H92.9951C92.179 23.0399 91.9278 23.4736 91.9278 23.8878C91.9278 24.3134 92.2382 24.7829 92.8617 24.7829H95.2631C97.4844 24.7829 98.4483 26.059 98.4483 27.7301C98.4483 29.5268 97.3742 30.9982 95.1422 30.9982H89.7399Z" fill="#8F9397"/>
</svg>
