<svg version="1.1" id="logo-yale"
  xmlns="http://www.w3.org/2000/svg"
  xmlns:xlink="http://www.w3.org/1999/xlink" x="0px" y="0px" viewBox="0 0 97 44.4" style="enable-background:new 0 0 97 44.4;" xml:space="preserve">
  <path d="M1,7c4.1-0.1,5.2,2.3,6.3,3.4l-0.2-0.3l10.3,17.3v11.3c0,1.3-3.2,2.5-6.8,2.5v1.5h18.7v-1.5h0.1c-3.6,0-6.8-1-6.8-4.2V26.7
	l10-16.3l0,0c1-1.1,2.1-3.5,6.2-3.5c0.1,0,0.1,0,0,0V5.6H25.5V7c2.5,0,4.8,0.9,4.8,1.8l-9.1,14.8l-8.9-15c0.3-0.8,2.5-1.6,4.8-1.6
	V5.6H1"/>
  <path d="M67.4,39.2v-35l1.2-1.8V1.4h-1.2l-8.5,2.6v1.2c2.1,0,3.7,0.6,3.7,1.6v32.6c0,1-2.1,1.7-3.8,1.7v1.5h12.9v-1.5
	C69.3,41.2,67.4,40.2,67.4,39.2z"/>
  <path d="M95,36.4c-1.7,2-4.2,3.2-6.9,3.2c-5.1,0-9-4.4-9-10.3c0-0.9,0.2-3,0.2-3h15.8c0-1.7,0-4.8-1.7-6.8s-3.5-2.8-6.7-2.8
	c-5.9,0-12.4,4.6-12.4,14.7c0,7,5,11.6,10.5,11.6c3.6,0,6.5-0.6,11.1-5.2L95,36.4z M85.3,18.7c3.8,0,5.1,4.4,5.1,6.1H79.5
	C79.5,22.8,81.5,18.7,85.3,18.7z"/>
  <path d="M55,39.7c-1.2,0.1-2.3-0.8-2.4-2.1c0,0,0,0,0,0V22.3c0-2-1.5-5.4-6.6-5.4s-10.8,4.2-10.8,8l4.8-1c0-2.6,1.5-4.8,3.2-4.8
	c1.2,0,4.7,1.2,4.7,5.6v3.8l-12,4.4c-0.8,1.5-1.2,3.1-1.2,4.8c0.1,3,2.6,5.4,5.7,5.3c0.1,0,0.1,0,0.2,0c4,0,7.4-3.6,7.4-3.6
	c0-0.1,0-0.1,0.1-0.2l0,0c0.1,2.1,1.9,3.8,4,3.8c2.9,0,5.4-2.3,6.2-3.1v-1.7C57.3,39.1,56.2,39.6,55,39.7z M42.7,40.2
	c-2.7,0-3.4-3.3-2.4-6.8l7.5-3.2v7.9C46.4,39.4,44.6,40.2,42.7,40.2L42.7,40.2z"/>
</svg>
