<svg xmlns="http://www.w3.org/2000/svg" width="864.7559" height="161.8005" viewBox="0 0 864.7559 161.8005"><defs><style>.cls-1{fill:#444545;}.cls-2{fill:#84c340;}.cls-3{fill:#1e8b46;}.cls-4{fill:#dddddc;}.cls-5{fill:#dedddd;}</style></defs><g id="Layer_2" data-name="Layer 2"><g id="Layer_1-2" data-name="Layer 1"><g id="Layer_4" data-name="Layer 4"><path class="cls-1" d="M176.0635,120.6486a36.8413,36.8413,0,0,0,21.4219,6.3931q23.7422-.0287,23.7324-20.4253-.02-15.2952-19.9815-22.85-12.4027-4.5095-18.5185-10.769A22.1881,22.1881,0,0,1,176,56.69a22.98,22.98,0,0,1,7.9971-17.9312q8-7.0077,20.5322-7.017A46.7511,46.7511,0,0,1,216.4805,33.19a25.16,25.16,0,0,1,7.58,3.05L221.45,42.2135a25.0981,25.0981,0,0,0-6.42-3.0517,37.214,37.214,0,0,0-10.9331-1.5913q-10.7805.011-16.5972,6.1352a16.6071,16.6071,0,0,0-4.66,11.81q.0138,13.8478,20.43,21.832,12.813,5.2332,18.5093,11.2051,6.2681,6.8394,6.29,17.3286a25.0112,25.0112,0,0,1-7.7119,18.8061q-8.439,8.1629-23.4468,8.1832-14.5635.0087-23.4639-6.5352Z"/><path class="cls-1" d="M244.6328,27.7633l6.9927-.0073.0464,46.1924.2978-.002a24.8179,24.8179,0,0,1,9.4532-10.0654A26.8487,26.8487,0,0,1,275.55,59.7882a25.7508,25.7508,0,0,1,6.56.8731,23.0556,23.0556,0,0,1,8.02,4.0708,20.8614,20.8614,0,0,1,6.8608,8.8794,37.7143,37.7143,0,0,1,2.9239,15.59l.041,42.1021-6.9849.0068-.04-41.38q-.0132-10.4838-4.25-16.75-4.9542-7.278-15.0088-7.269-15.5955.0146-21.1162,15.7588a22.8061,22.8061,0,0,0-.8682,6.9951l.043,42.69-6.9937.0074Z"/><path class="cls-1" d="M340.5488,58.8512l1.3179-.0019q15.7383-.0155,21.4292,13.6757a39.9562,39.9562,0,0,1,2.35,13.9844l.0259,27.9771a105.82,105.82,0,0,0,1.0371,16.75l-.1421.1469-6.1182.0069c-.2968,0-.4887-1.2119-.5937-3.6431l-.7334-6.5537h-.436q-4.0724,5.83-8.45,7.876a25.7721,25.7721,0,0,1-14.273,3.9458q-14.5635.0212-19.8262-13.0908a24.1044,24.1044,0,0,1-.8838-5.9761v-1.1651q-.0153-13.2538,13.9678-20.413,8.1666-3.3509,10.7759-3.3579a63.0044,63.0044,0,0,1,11.3711-1.3213h.144l.0049,5.5351-.2837.292a46.5046,46.5046,0,0,0-20.2622,4.5361q-8.2785,5.1043-8.2837,13.5562v1.3086q.01,8.9,7.5889,12.6753a15.6077,15.6077,0,0,0,6.561,1.4468q12.3765-.0132,18.9268-10.2139a15.7677,15.7677,0,0,0,2.7632-8.751l-.0181-21.272q-.02-17.3313-10.5181-20.8222a21.9542,21.9542,0,0,0-7.2807-1.16h-.439a30.843,30.843,0,0,0-17.769,5.2666c-.2012,0-.9751-1.6968-2.3413-5.1006a36.89,36.89,0,0,1,20.3881-6.1372"/><path class="cls-1" d="M385.6084,82.26q-.0139-11.7993-.602-20.9761l6.415-.0068.2979,14.1289h.4389q5.3745-15.7368,19.7969-15.7539a291.8339,291.8339,0,0,0,2.918.2866l.0083,6.5562a8.5739,8.5739,0,0,0-1.6021-.14l-1.7549.0025q-15.0125.0132-18.3354,19.5429a32.6458,32.6458,0,0,0-.5738,6.6978l.0372,38.6138-6.9961.01Z"/><path class="cls-1" d="M463.9736,57.4181l1.6016-.0019q14.1387-.0183,23.3233,12.7959a40.4136,40.4136,0,0,1,6.4384,22.7236l.002.5791q.0234,24.7757-18.1787,34.9912a33.6531,33.6531,0,0,1-14.1319,3.0737,28.51,28.51,0,0,1-17.1982-5.3759l-.0078-7.2828h.1406a24.2514,24.2514,0,0,0,16.916,6.6851q15.2988-.0183,22.125-15.0293a43.8532,43.8532,0,0,0,3.1953-17.0527q-.0117-13.547-7.8955-22.7193a22.3493,22.3493,0,0,0-16.9052-7.416h-.4375q-10.7769.01-18.7852,9.6362-3.7866,4.6707-5.2412,12.97a19.8174,19.8174,0,0,0-.1406,2.6269l.0732,70.375-.2871.2945-6.5552.0058-.2978-.2929-.0738-75.042q-.0153-15.1458-.603-24.7681h.14l6.5571-.0073.1411.1494.4526,13.2529h.2984q4.3615-9.0285,15.5776-13.561a34.5522,34.5522,0,0,1,9.7568-1.61"/><path class="cls-1" d="M507.59,120.3146a36.8579,36.8579,0,0,0,21.4326,6.3892q23.7451-.0228,23.73-20.4209-.0131-15.2975-19.99-22.854Q520.38,78.9244,514.252,72.6618a22.1909,22.1909,0,0,1-6.7266-16.3091,22.9768,22.9768,0,0,1,7.9971-17.9307q8.014-7.0071,20.542-7.0151a46.8058,46.8058,0,0,1,11.9443,1.4448,25.1327,25.1327,0,0,1,7.5781,3.0523l-2.6113,5.9741a24.7759,24.7759,0,0,0-6.4219-3.0523,37.1635,37.1635,0,0,0-10.9209-1.5923q-10.78.0124-16.6064,6.1373a16.6275,16.6275,0,0,0-4.6475,11.809q.0147,13.8465,20.4151,21.833,12.8306,5.2332,18.5224,11.2022,6.2652,6.843,6.2774,17.333a24.9866,24.9866,0,0,1-7.6983,18.8047q-8.44,8.165-23.458,8.1782-14.5679.0213-23.4619-6.5322Z"/><path class="cls-1" d="M606.4629,57.2692l1.5986-.0039q14.1417-.0155,23.3262,12.7959a40.3842,40.3842,0,0,1,6.4375,22.7261v.5791q.0264,24.7777-18.1777,34.9907a33.6465,33.6465,0,0,1-14.1328,3.0732,28.4627,28.4627,0,0,1-17.1983-5.38l-.0058-7.2808h.1425a24.2167,24.2167,0,0,0,16.9141,6.6831q15.2988-.0073,22.123-15.023a43.8361,43.8361,0,0,0,3.1954-17.0561q-.01-13.5439-7.8955-22.7168a22.3428,22.3428,0,0,0-16.9014-7.418h-.4414q-10.7769.01-18.7852,9.6348-3.7793,4.6743-5.2373,12.9751a19.0683,19.0683,0,0,0-.1406,2.623l.0693,70.376-.2822.2959-6.5557.0078-.2978-.3008-.0742-75.0371q-.0205-15.1443-.6075-24.77h.1426l6.5547-.0068.1426.1489.4521,13.2549h.3q4.361-9.03,15.5752-13.561a34.4521,34.4521,0,0,1,9.76-1.61"/><path class="cls-1" d="M654.9678,81.9855q-.0117-11.8023-.6026-20.978l6.4151-.003.2978,14.127h.4424q5.37-15.7368,19.7959-15.7564a7.6156,7.6156,0,0,1,1.461.1485,7.2239,7.2239,0,0,1,1.457.1416l.0068,6.5571a7.9837,7.9837,0,0,0-1.6025-.1421h-1.7529q-15.0119.0169-18.336,19.543a32.7559,32.7559,0,0,0-.5752,6.6992l.0391,38.6152-6.9971.0069Z"/><path class="cls-1" d="M702.292,46.97c-3.6055.0039-5.3945-1.982-5.4-5.9654q-.0073-6.1274,5.6738-6.1279,5.53-.01,5.545,6.1172.0028,5.9728-5.6787,5.9761Zm-3.1279,83.9267-.0713-69.9311,6.998-.0088L706.16,130.89Z"/><path class="cls-1" d="M729.5606,77.69q-.01-9.3318-.6006-16.7549l6.56-.0073.4522,12.5293h.2949q6.8321-14.1438,24.02-14.1621a26.3363,26.3363,0,0,1,6.6992.872,23.1317,23.1317,0,0,1,8.0215,4.0718,22.1547,22.1547,0,0,1,6.8623,8.8794A38.685,38.685,0,0,1,784.79,88.85l.0429,41.961-6.9814.01-.043-41.3818q-.0073-10.63-4.248-17.04-5.1138-7.281-15.1631-7.273-16.17.0162-20.961,16.1973a23.2612,23.2612,0,0,0-.8711,6.1186l.045,43.419-6.9961.0083Z"/><path class="cls-1" d="M832.9863,58.3517l1.3164-.0019q15.0119-.0125,22.6006,12.5068a2.1111,2.1111,0,0,0,.7256,1.019h.1416c.1934-7.9629.38-11.9472.5811-11.9472l6.1191-.0069.1436.149h.1416q-.5845,6.5536-.5655,16.6059l.043,42.98q.0249,23.1694-7.9844,31.7744a25.17,25.17,0,0,1-8.5927,6.4287A37.3428,37.3428,0,0,1,830.4688,161.8q-13.251.0124-22.58-6.0957l-.0039-.2851a49.2612,49.2612,0,0,1,2.4746-5.54,37.07,37.07,0,0,0,19.9619,5.8033h.4385l.584.1538.72-.1592H832.8q12.2373-.0074,19.2227-8.9087a28.3875,28.3875,0,0,0,4.2119-10.49,70.7113,70.7113,0,0,0,.8652-12.6748l-.0371-34.3892q-.0074-8.88-2.4883-12.2368Q847.7159,64.31,834.0137,64.32q-14.2647.0153-21.5449,13.7192a39.2427,39.2427,0,0,0-3.6211,17.4917q.0176,15.5882,9.9218,24.32a23.668,23.668,0,0,0,15.1612,5.0889q8.7539-.01,16.0244-6.7271h.1426l.0068,6.857q-7.125,5.8308-18.0654,5.8442-12.9639.01-21.8633-10.3232A36.6555,36.6555,0,0,1,801.71,96.7038l-.001-1.3121q-.0175-17.4843,11.1865-28.5712,9.312-8.4565,20.0908-8.4688"/><path class="cls-2" d="M15.3567,92.3558c-.6661.8357-2.1675-1.6487-2.1675-1.6487-2.84-5.1163-3.5329-12.1392-4.5372-17.798A196.9737,196.9737,0,0,1,5.69,46.058l-.1706.999c.0549-.3812.1128-.7278.1706-.999C1.449,56.6878.2592,79.1237.2592,79.1237c.0027.0566.329,14.5885,4.5348,16.0441a3.1564,3.1564,0,0,0,.8378.035c3.2979-.6553,6.4362-2.3259,9.7531-2.8578a.0661.0661,0,0,1-.0282.0108C15.3539,92.3588,15.3647,92.3532,15.3567,92.3558Z"/><path class="cls-3" d="M134.2452,119.4007c-1.3027-1.9256-3.7652-5.8845-3.7652-5.8845l-3.98-6.4072s-5.5945-2.2971-8.3875-3.7982c2.2961,3.6443,4.4692,9.0506,8.1191,11.4678q4.4384,2.9365,8.8706,5.8708c-.3254-.4674-.57-.8163-.8569-1.2487C133.9575,118.9732,134.5322,119.8331,134.2452,119.4007Z"/><path class="cls-2" d="M87.7135,141.815c-18.5566-6.5745-25.2883-32.5179-28.9515-49.4294a240.1107,240.1107,0,0,1-4.3266-73.7534H29.11c-3.2069,27.2352-1.9,56.6325,4.5237,83.2957,2.7637,11.47,6.6576,24.9389,15.6979,33.1192,5.2356,4.7376,12.9311,6.0537,19.7019,7.2785a90.2779,90.2779,0,0,0,28.08.2979,19.426,19.426,0,0,1-9.4-.8085C58.671,131.5261,90.641,142.8539,87.7135,141.815Z"/><path class="cls-3" d="M75.8162,148.1316c-2.3043-1.7456-4.4744-5.3739-7.2258-5.8894,6.1888-6.239,10.4914-14.1964,14.1977-22.0736,1.9174-4.0686,3.6685-8.2261,5.2959-12.4214.6661-1.7131,2.5519-3.79,1.3647-5.3265-.8409-1.0932-2.2537-1.6453-3.0942-2.7356-3.33,9.0372-7.1627,18.1657-12.6063,26.1611-3.862,5.6747-10.2177,13.1084-17.959,12.115-4.9456-.4242-8.9528-5.7019-11.5376-9.5154-3.9466-5.8066-6.5609-12.4751-8.6-19.1677C30.9358,93.8035,29.06,77.4505,28.2129,61.3448A252.9182,252.9182,0,0,1,29.107,18.63H50.0405c.815,0,1.34-4.9149,1.5737-5.8656C52.6324,8.6227,53.6032,2.9,57.6948.5792,51.363,2.537,46.0931,4.1907,40.27,7.4351a90.5555,90.5555,0,0,0-8.8832,5.4659c-1.3508,1.4664-3.4134,2.97-4.6584,4.2163-3.2427,7.2539-3.6859,17.3575-4.03,25.1028-1.2261,27.579-.1129,57.9753,9.9853,83.9832,3.0562,7.8609,7.4313,16.251,14.7885,20.8917C53.3747,150.82,61.7486,152.12,68.5557,153c7.7544.9944,16.8106-.2173,13.7973-1.289C77.7392,150.0785,77.8089,149.6382,75.8162,148.1316Z"/><path class="cls-3" d="M114.6157,2.8753c-2.5567,4.1117-6.2443,8.3819-7.2649,13.0791C104.7834,27.7284,99.53,39.3734,94.68,50.35A261.139,261.139,0,0,1,74.21,88.6873a130.4778,130.4778,0,0,1-12.64,16.49c-1.5029,1.6438-2.7529,2.6241-3.419,4.7052-.4227,1.3322-.85,2.67-1.2731,3.9965C73.01,97.8832,84.4557,77.1094,94.2179,56.8007Q101.699,41.2427,107.8,25.0481c1.668-4.4421,3.2686-8.9163,4.6918-13.4446C113.1843,9.4148,115.22,5.26,114.6157,2.8753Z"/><path class="cls-4" d="M61.292,28.0667c.4339-7.31.78-15.0852-.3988-22.3526-.349-2.1459-.7763-6.5075-3.7372-5.5887C54.7686.864,52.4307,1.589,50.11,2.5126a82,82,0,0,0-16.7626,8.8816,64.2367,64.2367,0,0,0-5.3632,4.2782A3.7117,3.7117,0,0,0,26.7288,17.12c-.3193.5827.0271,2.3823-.0494,3.7438-1.02,18.0075-6.0871,36.1274-11.2047,53.3343-1.8289,6.1423-3.674,16.0737-8.8089,20.43C1.9284,98.6455.1237,81.1272,0,79.1106c.7787,12.3726,3.952,24.7668,10.4257,35.4425,2.7863,4.5923,5.8937,10.9331,11.1764,13.0145,6.2267,2.46,11.6194-3.5583,14.8008-8.1054,8.5914-12.2734,13.0749-27.7,16.7838-42.036A260.7714,260.7714,0,0,0,61.292,28.0667C61.4156,25.996,60.6838,38.1353,61.292,28.0667Z"/><path class="cls-5" d="M137.4463,93.82a225.7028,225.7028,0,0,0-6.4533-48.3123c-3.5266-14.6929-8.2373-29.7784-16.38-42.6294.5264,2.09-1.1655,5.624-1.7537,7.5415-1.3859,4.5226-2.9623,8.986-4.6113,13.4094q-5.982,16.082-13.3774,31.5967c-9.8912,20.7923-21.5122,42.1059-37.998,58.456a166.49,166.49,0,0,0,32.6834-10.02c-3.7979,10.305-8.1322,20.6338-14.1751,29.8457-5.45,8.3145-14.4221,18.3864-25.53,14.6314,4.8705,2.6883,15.2049,4.7432,24.8908,5.1618,8.1375.3787,17.4352.1745,24.6755-3.9825,14.4841-8.3207,22.2428-26.4082,27.6733-41.3728,2.6375,4.1844,5.1775,8.4546,8.0114,12.5071,1.81-7.3345,2.5432-16.608,2.3442-26.8324C137.2506,83.5952,137.6453,104.044,137.4463,93.82Z"/></g></g></g></svg>