<svg version="1.1" id="logo-nih"
  xmlns="http://www.w3.org/2000/svg"
  xmlns:xlink="http://www.w3.org/1999/xlink" x="0px" y="0px" viewBox="0 0 296 48.9" style="enable-background:new 0 0 296 48.9;" xml:space="preserve">
  <polygon points="79.1,17.8 81.4,17.8 87.1,27.1 87.2,27.1 87.2,17.8 89.3,17.8 89.3,30.4 86.9,30.4 81.2,21.1 81.2,21.1 81.2,30.4 
	79.1,30.4 "/>
  <path d="M96.8,25.8c-0.8,0.3-1.6,0.5-2.5,0.5c-0.9,0.1-1.6,0.5-1.6,1.5c0,0.9,1.1,1.2,1.8,1.2c0.9,0,2.3-0.5,2.3-1.7V25.8z
	 M98.8,28.4c0,0.5,0.1,0.7,0.5,0.7c0.2,0,0.3,0,0.5,0v1.4c-0.4,0.1-0.8,0.2-1.3,0.2c-0.8,0-1.4-0.3-1.6-1.1c-0.9,0.7-2,1.1-3.2,1.1
	c-1.6,0-3.1-0.9-3.1-2.7c0-2.3,1.8-2.6,3.5-2.8c1.4-0.3,2.7-0.1,2.7-1.3s-1.1-1.2-1.9-1.2c-1.1,0-1.9,0.5-2,1.4h-2
	c0.1-2.3,2.1-3,4.1-3c1.8,0,3.6,0.7,3.6,2.6L98.8,28.4z"/>
  <path d="M99.7,21.3h1.5v-2.7h2v2.7h1.8v1.5h-1.8v4.9c0,0.8,0.1,1.3,1,1.3c0.3,0,0.6,0,0.8-0.1v1.5c-0.4,0-0.9,0.1-1.3,0.1
	c-2.1,0-2.5-0.8-2.5-2.3v-5.4h-1.5V21.3z"/>
  <path d="M106.2,21.3h2v9.1h-2V21.3z M106.2,17.8h2v1.9h-2V17.8z"/>
  <path d="M116.8,25.8c0-1.6-0.8-3.2-2.6-3.2s-2.6,1.6-2.6,3.2s0.8,3.2,2.6,3.2S116.8,27.4,116.8,25.8 M109.6,25.8
	c0-2.8,1.7-4.8,4.6-4.8s4.6,2,4.6,4.8s-1.7,4.8-4.6,4.8S109.6,28.6,109.6,25.8"/>
  <path d="M120.1,21.3h1.9v1.3l0,0c0.6-1,1.7-1.6,2.8-1.6c1.6-0.2,3,0.9,3.2,2.5c0,0.2,0,0.4,0,0.6v6.2h-2v-5.7c0-1.4-0.6-2-1.8-2
	c-1.2,0-2.2,1-2.2,2.2c0,0.1,0,0.1,0,0.2v5.4h-2L120.1,21.3z"/>
  <path d="M135.5,25.8c-0.8,0.3-1.6,0.5-2.5,0.5c-0.9,0.1-1.6,0.5-1.6,1.5c0,0.9,1.1,1.2,1.8,1.2c0.9,0,2.3-0.5,2.3-1.7L135.5,25.8z
	 M137.5,28.4c0,0.5,0.1,0.7,0.5,0.7c0.2,0,0.3,0,0.5,0v1.4c-0.4,0.1-0.8,0.2-1.3,0.2c-0.8,0-1.4-0.3-1.5-1.1c-0.9,0.7-2,1.1-3.2,1.1
	c-1.6,0-3.1-0.9-3.1-2.7c0-2.3,1.8-2.6,3.5-2.8c1.4-0.3,2.7-0.1,2.7-1.3s-1.1-1.2-1.9-1.2c-1.1,0-1.9,0.5-2,1.4h-2
	c0.1-2.3,2.1-3,4.1-3c1.8,0,3.6,0.7,3.6,2.6L137.5,28.4z"/>
  <rect x="139.4" y="17.8" width="2" height="12.6"/>
  <rect x="148" y="17.8" width="2.2" height="12.6"/>
  <path d="M152.3,21.3h1.9v1.3l0,0c0.6-1,1.7-1.6,2.9-1.6c1.6-0.2,3,0.9,3.2,2.5c0,0.2,0,0.4,0,0.6v6.2h-2v-5.7c0-1.4-0.6-2-1.8-2
	c-1.2,0-2.2,1-2.2,2.2c0,0.1,0,0.1,0,0.2v5.4h-2L152.3,21.3z"/>
  <path d="M163.5,27.5c0.1,1.2,1,1.6,2.1,1.6c0.8,0,2.1-0.2,2-1.2s-1.5-1.2-3-1.5s-2.9-0.8-2.9-2.7c0-2,2.1-2.6,3.8-2.6
	c1.9,0,3.6,0.8,3.8,2.8h-2.1c-0.2-1-1-1.2-1.9-1.2c-0.6,0-1.6,0.1-1.6,0.9c0,1,1.5,1.1,2.9,1.5s2.9,0.9,2.9,2.7c0,2.2-2.2,3-4.1,3
	c-2.3,0-4-1-4-3.2L163.5,27.5z"/>
  <path d="M169.9,21.3h1.5v-2.7h2v2.7h1.8v1.5h-1.8v4.9c0,0.8,0.1,1.3,1,1.3c0.3,0,0.6,0,0.8-0.1v1.5c-0.4,0-0.9,0.1-1.3,0.1
	c-2.1,0-2.5-0.8-2.5-2.3v-5.4h-1.5L169.9,21.3z"/>
  <path d="M176.3,21.3h2v9.1h-2V21.3z M176.3,17.8h2v1.9h-2V17.8z"/>
  <path d="M179.3,21.3h1.5v-2.7h2v2.7h1.8v1.5h-1.8v4.9c0,0.8,0.1,1.3,1,1.3c0.3,0,0.6,0,0.8-0.1v1.5c-0.4,0-0.9,0.1-1.3,0.1
	c-2.1,0-2.5-0.8-2.5-2.3v-5.4h-1.5L179.3,21.3z"/>
  <path d="M193.7,30.4h-2v-1.3l0,0c-0.5,0.9-1.5,1.5-2.6,1.5c-2.4,0-3.4-1.2-3.4-3.6v-5.8h2v5.6c0,1.6,0.6,2.2,1.7,2.2
	c1.7,0,2.2-1.1,2.2-2.5v-5.3h2L193.7,30.4z"/>
  <path d="M194.5,21.3h1.5v-2.7h2v2.7h1.8v1.5H198v4.9c0,0.8,0.1,1.3,1,1.3c0.3,0,0.6,0,0.8-0.1v1.5c-0.4,0-0.9,0.1-1.3,0.1
	c-2.1,0-2.5-0.8-2.5-2.3v-5.4h-1.5V21.3z"/>
  <path d="M207.2,25c0-1.3-1-2.3-2.3-2.3c-1.3,0-2.3,1-2.3,2.3c0,0,0,0,0,0H207.2z M202.5,26.3c-0.2,1.3,0.8,2.5,2.1,2.7
	c0.1,0,0.2,0,0.3,0c1,0.1,1.9-0.5,2.2-1.5h1.9c-0.4,1.9-2.2,3.2-4.1,3.1c-2.8,0-4.4-2-4.4-4.8c0-2.6,1.7-4.8,4.4-4.8
	c2.9,0,4.6,2.6,4.3,5.3L202.5,26.3z"/>
  <path d="M211.9,27.5c0.1,1.2,1,1.6,2,1.6c0.8,0,2.1-0.2,2-1.2s-1.5-1.2-3-1.5s-2.9-0.8-2.9-2.7c0-2,2.1-2.6,3.8-2.6
	c1.9,0,3.6,0.8,3.8,2.8h-2.1c-0.2-1-1-1.2-1.9-1.2c-0.6,0-1.6,0.1-1.6,0.9c0,1,1.5,1.1,2.9,1.5s2.9,0.9,2.9,2.7c0,2.2-2.2,3-4.1,3
	c-2.3,0-4-1-4-3.2L211.9,27.5z"/>
  <path d="M230.4,25.8c0-1.6-0.8-3.2-2.6-3.2s-2.6,1.6-2.6,3.2s0.8,3.2,2.6,3.2S230.4,27.4,230.4,25.8 M223.2,25.8
	c0-2.8,1.7-4.8,4.6-4.8s4.6,2,4.6,4.8s-1.7,4.8-4.6,4.8S223.2,28.6,223.2,25.8"/>
  <path d="M232.9,21.3h1.5v-0.7c0-2.3,1.2-2.7,2.5-2.7c0.5,0,0.9,0,1.4,0.1v1.6c-0.3-0.1-0.6-0.1-0.9-0.1c-0.5,0-1,0.2-1,1v0.9h1.7
	v1.5h-1.7v7.6h-2v-7.6h-1.5L232.9,21.3z"/>
  <polygon points="243.7,17.8 245.9,17.8 245.9,22.8 251.6,22.8 251.6,17.8 253.8,17.8 253.8,30.4 251.6,30.4 251.6,24.7 245.9,24.7 
	245.9,30.4 243.7,30.4 "/>
  <path d="M262.1,25c0-1.3-1-2.3-2.3-2.3c-1.3,0-2.3,1-2.3,2.3c0,0,0,0,0,0H262.1z M257.4,26.3c-0.1,1.3,0.8,2.5,2.1,2.7
	c0.1,0,0.2,0,0.3,0c1,0.1,1.9-0.5,2.2-1.5h1.9c-0.4,1.9-2.2,3.2-4.1,3.1c-2.9,0-4.4-2-4.4-4.8c0-2.6,1.7-4.8,4.4-4.8
	c2.9,0,4.6,2.6,4.3,5.3L257.4,26.3z"/>
  <path d="M270.9,25.8c-0.8,0.3-1.6,0.5-2.5,0.5c-0.9,0.1-1.6,0.5-1.6,1.5c0,0.9,1.1,1.2,1.8,1.2c0.9,0,2.3-0.5,2.3-1.7V25.8z
	 M272.9,28.4c0,0.5,0.1,0.7,0.5,0.7c0.2,0,0.3,0,0.5,0v1.4c-0.4,0.1-0.8,0.2-1.3,0.2c-0.8,0-1.4-0.3-1.5-1.1c-0.9,0.7-2,1.1-3.1,1.1
	c-1.6,0-3.1-0.9-3.1-2.7c0-2.3,1.8-2.6,3.5-2.8c1.4-0.3,2.7-0.1,2.7-1.3s-1.1-1.2-1.9-1.2c-1.1,0-1.9,0.5-2,1.4h-2
	c0.1-2.3,2.1-3,4.1-3c1.8,0,3.6,0.7,3.6,2.6L272.9,28.4z"/>
  <rect x="274.7" y="17.8" width="2" height="12.6"/>
  <path d="M277.6,21.3h1.5v-2.7h2v2.7h1.8v1.5h-1.8v4.9c0,0.8,0.1,1.3,1,1.3c0.3,0,0.6,0,0.8-0.1v1.5c-0.4,0-0.9,0.1-1.3,0.1
	c-2.1,0-2.5-0.8-2.5-2.3v-5.4h-1.5L277.6,21.3z"/>
  <path d="M284.1,17.8h2v4.7l0,0c0.6-0.9,1.6-1.5,2.7-1.4c1.6-0.2,3,0.9,3.2,2.5c0,0.2,0,0.4,0,0.6v6.2h-2v-5.7c0-1.4-0.6-2-1.8-2
	c-1.2,0-2.2,1-2.2,2.2c0,0.1,0,0.1,0,0.2v5.4h-2L284.1,17.8z"/>
  <path d="M51.6,14.5v20h-3.5v-9h-9v9h-3.4v-20h3.5v8h9v-8H51.6z M32.3,34.5h-3.5v-20h3.5V34.5z M25.4,34.5h-3.6l-9-14.7h-0.1v14.7
	H9.4v-20H13l9,14.7h0.1V14.5h3.3L25.4,34.5z M63.8,24.4L51.6,2.1h-45c-2.3,0-4.1,1.9-4.1,4.1c0,0,0,0,0,0v36.5
	c0,2.3,1.8,4.1,4.1,4.1h45L63.8,24.4z"/>
  <path d="M54.6,46.8l12.2-22.4L54.7,2.1h3c1.9,0.1,3.5,1.1,4.5,2.7L73,24.4L62.2,44.1c-1,1.6-2.7,2.6-4.5,2.7H54.6z"/>
</svg>
