<svg width="35" height="34" viewBox="0 0 35 34" fill="none" xmlns="http://www.w3.org/2000/svg">
<g clip-path="url(#clip0)">
<path d="M6.17521 0H28.6966C32.1111 0 34.8718 2.76068 34.8718 6.17521V27.8248C34.8718 31.2393 32.1111 34 28.6966 34H6.17521C2.76068 34 0 31.2393 0 27.8248V6.17521C0 2.76068 2.76068 0 6.17521 0Z" fill="#330000"/>
<path d="M16.8999 20.3999H11.4947L10.3905 23.8145C10.3614 23.9452 10.2452 24.0324 10.1144 24.0179H7.38278C7.22295 24.0179 7.17936 23.9307 7.22295 23.7564L11.9016 10.2871C11.9452 10.1418 11.9888 9.982 12.0469 9.80764C12.105 9.50251 12.1341 9.18286 12.1341 8.8632C12.1195 8.79055 12.1777 8.7179 12.2503 8.70337C12.2648 8.70337 12.2794 8.70337 12.2939 8.70337H16.0135C16.1298 8.70337 16.1879 8.74696 16.2024 8.81961L21.5059 23.7854C21.5494 23.9452 21.5059 24.0179 21.3606 24.0179H18.3238C18.2221 24.0324 18.1204 23.9598 18.0913 23.8581L16.8999 20.3999ZM12.3375 17.4504H16.0281C15.9409 17.1452 15.8247 16.782 15.6939 16.4042C15.5631 16.0119 15.4324 15.5905 15.3016 15.1546C15.1563 14.7042 15.0255 14.2683 14.8802 13.8179C14.7349 13.3675 14.6041 12.9461 14.4879 12.5247C14.3717 12.1179 14.27 11.7401 14.1682 11.3914H14.1392C14.0084 12.0162 13.8486 12.641 13.6452 13.2658C13.4272 13.9632 13.2093 14.6897 12.9768 15.4162C12.7734 16.1572 12.5554 16.8401 12.3375 17.4504Z" fill="#FF9A00"/>
<path d="M24.6747 11.188C24.1953 11.2026 23.7303 11.0137 23.3816 10.6795C23.0474 10.3162 22.873 9.83674 22.8876 9.34273C22.873 8.84871 23.0619 8.38375 23.4106 8.04956C23.7594 7.71537 24.2243 7.54102 24.7038 7.54102C25.2705 7.54102 25.7064 7.71537 26.026 8.04956C26.3457 8.39828 26.52 8.86324 26.5055 9.34273C26.52 9.83674 26.3457 10.3162 25.997 10.6795C25.6628 11.0282 25.1688 11.2171 24.6747 11.188ZM23.0474 23.8V12.612C23.0474 12.4667 23.1055 12.4085 23.2363 12.4085H26.1132C26.244 12.4085 26.3021 12.4812 26.3021 12.612V23.8C26.3021 23.9598 26.244 24.0325 26.1132 24.0325H23.2653C23.12 24.0325 23.0474 23.9453 23.0474 23.8Z" fill="#FF9A00"/>
</g>
<defs>
<clipPath id="clip0">
<rect width="34.8718" height="34" fill="white"/>
</clipPath>
</defs>
</svg>
