<svg width="145" height="53" viewBox="0 0 145 53" fill="none"
  xmlns="http://www.w3.org/2000/svg">
  <path d="M43.4325 42.5887L34.0577 26.9037L43.4325 11.2186L47.9517 26.9037L43.4325 42.5887ZM22.5679 41.0581L10.789 29.4379H29.5385L38.9132 45.123L22.5679 41.0581ZM22.5679 12.7012L38.8655 8.63632L29.4907 24.3214H10.7413L22.5679 12.7012ZM46.5095 0.9375L25.2117 6.43695L22.0387 11.8404L15.645 11.7924L0.0202637 26.9037L15.645 42.0149L22.0387 41.9669L25.2117 47.3704L46.5095 52.9178L52.2303 32.3071L49.0091 26.9517L52.2303 21.5957L46.5095 0.9375ZM94.8731 16.1922C92.0368 16.1922 90.1136 17.3873 88.6714 19.5872H88.5754V16.766H83.5757V37.5197H88.6714V25.756C88.6714 22.9348 90.4503 20.9738 92.9022 20.9738C95.2098 20.9738 96.9405 22.361 96.9405 24.7998V37.5677H102.037V23.9865C102.084 19.4438 99.1999 16.1922 94.8731 16.1922ZM75.8352 28.7686C75.8352 31.5424 74.2487 33.4548 71.6526 33.4548C69.2973 33.4548 67.8068 32.1162 67.8068 29.6774V16.766H62.7106V30.6336C62.7106 35.1763 65.3067 38.1415 69.9702 38.1415C72.9029 38.1415 74.5372 37.0413 75.9317 35.1288H76.0759V37.5677H80.9796V16.766H75.8834V28.7686H75.8352ZM104.777 16.766H109.873V37.5197H104.777V16.766ZM104.777 10.3104H109.873V14.4707H104.777V10.3104ZM138.766 16.766L135.737 26.1384C135.065 28.0513 134.535 30.6816 134.535 30.6816H134.391C134.391 30.6816 133.718 28.0513 133.045 26.1384L129.632 16.766H124.151L129.776 31.5424C130.978 34.6985 131.362 36.0371 131.362 37.1847C131.362 38.9063 130.449 40.0065 128.286 40.0065H126.314V44.3577H129.584C133.814 44.3577 135.305 42.6842 136.891 38.0935L144.247 16.8135H138.766V16.766ZM119.392 31.4464V20.448H122.661V16.8135H119.392V10.3104H114.296V16.766H111.411V20.4H114.296V32.594C114.296 36.5154 117.276 37.5677 119.969 37.5677C122.18 37.5677 122.757 37.4717 122.757 37.4717V33.4548H121.459C120.257 33.5028 119.392 32.977 119.392 31.4464Z" fill="white"/>
</svg>
