<svg width="228" height="49" viewBox="0 0 228 49" fill="none"
  xmlns="http://www.w3.org/2000/svg">
  <path d="M80.1521 28.232L78.798 32.0813H78.6852C78.4595 31.2133 78.0457 29.8925 77.3687 28.3075L70.1091 10.0044H63V39.1761H67.7018V21.1749C67.7018 20.0428 67.7018 18.7597 67.6642 17.1747C67.6266 16.3822 67.5513 15.7784 67.5137 15.3255H67.6266C67.8522 16.4576 68.1155 17.2879 68.3036 17.8162L77.0301 39.1006H80.3402L88.9915 17.6275C89.1795 17.1369 89.3676 16.1557 89.5557 15.3255H89.6685C89.5557 17.4766 89.4804 19.4012 89.4428 20.5711V39.0629H94.4455V9.92892H87.5997L80.1521 28.232ZM99.1849 18.1559H104.075V39.0629H99.1849V18.1559ZM101.667 9.3251C100.84 9.3251 100.163 9.62701 99.5987 10.1553C99.0345 10.6837 98.7336 11.363 98.7336 12.1932C98.7336 12.9857 99.0345 13.665 99.5987 14.1933C100.163 14.7217 100.84 14.9859 101.667 14.9859C102.495 14.9859 103.21 14.6839 103.736 14.1933C104.3 13.665 104.601 12.9857 104.601 12.1932C104.601 11.4007 104.3 10.7214 103.736 10.1553C103.247 9.62701 102.533 9.3251 101.667 9.3251ZM121.415 17.9672C120.512 17.7785 119.572 17.6653 118.669 17.6653C116.45 17.6653 114.419 18.1559 112.726 19.1371C111.033 20.1183 109.679 21.4768 108.814 23.1751C107.911 24.911 107.46 26.9112 107.46 29.2132C107.46 31.2133 107.911 32.987 108.777 34.6098C109.642 36.1948 110.845 37.4779 112.463 38.3459C114.005 39.2139 115.81 39.6667 117.842 39.6667C120.174 39.6667 122.167 39.1761 123.747 38.2704L123.785 38.2327V33.7041L123.597 33.855C122.882 34.3834 122.054 34.8362 121.227 35.1004C120.362 35.4023 119.572 35.5532 118.895 35.5532C116.939 35.5532 115.397 34.9872 114.306 33.7418C113.177 32.5342 112.613 30.8737 112.613 28.7981C112.613 26.647 113.177 24.9488 114.343 23.7034C115.51 22.458 117.052 21.8165 118.932 21.8165C120.512 21.8165 122.13 22.3448 123.597 23.4015L123.785 23.5525V18.7597L123.747 18.7219C123.108 18.4578 122.393 18.1559 121.415 17.9672ZM137.551 17.8162C136.348 17.8162 135.219 18.1936 134.241 18.9861C133.414 19.6654 132.85 20.6466 132.361 21.8165H132.323V18.1559H127.433V39.0629H132.323V28.383C132.323 26.5715 132.699 25.062 133.527 23.9676C134.354 22.8354 135.407 22.2694 136.686 22.2694C137.138 22.2694 137.589 22.3826 138.153 22.458C138.68 22.609 139.056 22.7599 139.319 22.9486L139.507 23.0996V18.1936L139.395 18.1559C139.056 17.9294 138.379 17.8162 137.551 17.8162ZM150.867 17.703C147.444 17.703 144.698 18.7219 142.78 20.7221C140.824 22.7222 139.884 25.4771 139.884 28.949C139.884 32.1945 140.862 34.8362 142.742 36.7609C144.623 38.6478 147.181 39.629 150.378 39.629C153.726 39.629 156.396 38.61 158.315 36.5722C160.271 34.5343 161.211 31.8171 161.211 28.4584C161.211 25.1375 160.308 22.4958 158.465 20.5711C156.697 18.6465 154.102 17.703 150.867 17.703ZM154.779 33.7795C153.876 34.9494 152.447 35.5155 150.679 35.5155C148.911 35.5155 147.482 34.9494 146.466 33.7041C145.451 32.5342 144.962 30.836 144.962 28.6849C144.962 26.4583 145.488 24.7601 146.466 23.5525C147.482 22.3448 148.873 21.741 150.641 21.741C152.372 21.741 153.726 22.3071 154.704 23.477C155.682 24.6469 156.208 26.3451 156.208 28.5717C156.133 30.836 155.719 32.6097 154.779 33.7795ZM172.119 26.8357C170.577 26.1941 169.599 25.7035 169.147 25.2884C168.771 24.911 168.583 24.3827 168.583 23.7034C168.583 23.1373 168.809 22.5713 169.373 22.1939C169.937 21.8165 170.577 21.6278 171.517 21.6278C172.345 21.6278 173.21 21.7788 174.037 22.0052C174.865 22.2316 175.617 22.5713 176.219 23.0241L176.407 23.1751V18.571L176.294 18.5333C175.73 18.3068 174.978 18.0804 174.075 17.8917C173.172 17.7408 172.345 17.6653 171.668 17.6653C169.336 17.6653 167.417 18.2313 165.913 19.4767C164.408 20.6466 163.693 22.2316 163.693 24.0808C163.693 25.062 163.844 25.93 164.182 26.647C164.521 27.364 165.01 28.0433 165.687 28.6094C166.364 29.1377 167.342 29.7415 168.696 30.3076C169.825 30.7982 170.69 31.1756 171.216 31.4775C171.743 31.7794 172.081 32.1191 172.345 32.3832C172.533 32.6851 172.646 33.0625 172.646 33.5531C172.646 34.9494 171.592 35.6287 169.448 35.6287C168.621 35.6287 167.756 35.4778 166.74 35.1381C165.725 34.7985 164.784 34.3079 163.994 33.7418L163.806 33.5908V38.3836L163.919 38.4214C164.634 38.761 165.499 38.9874 166.552 39.2516C167.605 39.4403 168.546 39.5912 169.373 39.5912C171.893 39.5912 173.962 39.0252 175.429 37.7798C176.934 36.5722 177.724 35.0249 177.724 33.0248C177.724 31.6285 177.347 30.3831 176.52 29.4396C175.429 28.5339 174.075 27.5905 172.119 26.8357ZM190.625 17.703C187.202 17.703 184.457 18.7219 182.538 20.7221C180.62 22.7222 179.642 25.4771 179.642 28.949C179.642 32.1945 180.62 34.8362 182.501 36.7609C184.381 38.6478 186.939 39.629 190.136 39.629C193.484 39.629 196.155 38.61 198.073 36.5722C200.029 34.5343 200.969 31.8171 200.969 28.4584C200.969 25.1375 200.066 22.4958 198.223 20.5711C196.455 18.6465 193.86 17.703 190.625 17.703ZM194.5 33.7795C193.597 34.9494 192.167 35.5155 190.4 35.5155C188.594 35.5155 187.202 34.9494 186.187 33.7041C185.171 32.5342 184.682 30.836 184.682 28.6849C184.682 26.4583 185.209 24.7601 186.187 23.5525C187.202 22.3448 188.594 21.741 190.362 21.741C192.055 21.741 193.446 22.3071 194.424 23.477C195.402 24.6469 195.929 26.3451 195.929 28.5717C195.929 30.836 195.44 32.6097 194.5 33.7795ZM227.111 22.1939V18.1559H222.184V11.9668L222.033 12.0045L217.369 13.4008L217.256 13.4386V18.1559H209.884V15.5142C209.884 14.3066 210.185 13.3631 210.711 12.7593C211.238 12.1555 212.028 11.8536 213.006 11.8536C213.683 11.8536 214.397 12.0045 215.187 12.3442L215.375 12.4574V8.19295L215.263 8.15522C214.586 7.92879 213.683 7.77783 212.517 7.77783C211.05 7.77783 209.771 8.11748 208.605 8.68355C207.439 9.3251 206.574 10.1931 205.934 11.363C205.295 12.4951 204.956 13.7782 204.956 15.25V18.1559H201.533V22.1561H204.956V39.0629H209.884V22.1939H217.256V32.9493C217.256 37.3647 219.325 39.5912 223.463 39.5912C224.14 39.5912 224.854 39.478 225.531 39.3648C226.246 39.2139 226.773 39.0252 227.073 38.8742L227.111 38.8365V34.7985L226.923 34.9494C226.622 35.1381 226.359 35.2891 225.907 35.4023C225.531 35.5155 225.193 35.5532 224.929 35.5532C223.951 35.5532 223.274 35.3268 222.785 34.7607C222.334 34.2324 222.108 33.3644 222.108 32.0813V22.1939H227.111Z" fill="white"/>
  <path d="M0 0H23.3333V23.3333H0V0Z" fill="#F25022"/>
  <path d="M25.6665 0H48.2221V23.3333H25.6665V0Z" fill="#7FBA00"/>
  <path d="M0 25.6667H23.3333V49.0001H0V25.6667Z" fill="#00A4EF"/>
  <path d="M25.6665 25.6667H48.2221V49.0001H25.6665V25.6667Z" fill="#FFB900"/>
</svg>
