<svg width="35" height="34" viewBox="0 0 35 34" fill="none" xmlns="http://www.w3.org/2000/svg">
<g clip-path="url(#clip0)">
<path d="M6.17521 0H28.6966C32.1111 0 34.8718 2.76068 34.8718 6.17521V27.8248C34.8718 31.2393 32.1111 34 28.6966 34H6.17521C2.76068 34 0 31.2393 0 27.8248V6.17521C0 2.76068 2.76068 0 6.17521 0Z" fill="#49021F"/>
<path d="M12.6699 8.89239V23.8001C12.6699 23.9599 12.5972 24.0326 12.4664 24.0326H9.61858C9.48781 24.0326 9.42969 23.9599 9.42969 23.8001V8.89239C9.42969 8.76162 9.50234 8.7035 9.63311 8.7035H12.4664C12.5536 8.68897 12.6408 8.74709 12.6553 8.8488C12.6699 8.86333 12.6699 8.87786 12.6699 8.89239Z" fill="#FF3366"/>
<path d="M21.0395 24.265C19.9643 24.2796 18.8891 24.0616 17.9156 23.6112C17.0002 23.1898 16.2446 22.4924 15.7216 21.6351C15.184 20.7488 14.9224 19.6445 14.9224 18.3223C14.9079 17.2471 15.184 16.1864 15.7216 15.2565C16.2737 14.312 17.0728 13.5274 18.0318 13.0043C19.0489 12.4377 20.2694 12.1616 21.7079 12.1616C21.7805 12.1616 21.8822 12.1616 22.013 12.1761C22.1438 12.1907 22.2891 12.1907 22.4634 12.2052V7.61375C22.4634 7.51204 22.507 7.45392 22.6087 7.45392H25.5583C25.631 7.43939 25.6891 7.49751 25.7036 7.55563C25.7036 7.57016 25.7036 7.58469 25.7036 7.58469V21.4172C25.7036 21.6787 25.7181 21.9693 25.7327 22.289C25.7617 22.5941 25.7763 22.8847 25.7908 23.1317C25.7908 23.2334 25.7472 23.3206 25.6455 23.3642C24.8899 23.6838 24.0908 23.9163 23.2771 24.0616C22.5506 24.1924 21.7951 24.265 21.0395 24.265ZM22.4634 21.359V14.9659C22.3327 14.9368 22.2019 14.9078 22.0711 14.8932C21.9113 14.8787 21.7515 14.8642 21.5917 14.8642C21.025 14.8642 20.4583 14.9804 19.9498 15.242C19.4558 15.489 19.0344 15.8522 18.7147 16.3172C18.3951 16.7821 18.2352 17.4069 18.2352 18.1625C18.2207 18.671 18.3079 19.1796 18.4822 19.659C18.6275 20.0514 18.8455 20.4001 19.1361 20.6907C19.4122 20.9522 19.7464 21.1556 20.1241 21.2719C20.5164 21.4026 20.9233 21.4608 21.3301 21.4608C21.5481 21.4608 21.7515 21.4462 21.9404 21.4317C22.1293 21.4462 22.3036 21.4172 22.4634 21.359Z" fill="#FF3366"/>
</g>
<defs>
<clipPath id="clip0">
<rect width="34.8718" height="34" fill="white"/>
</clipPath>
</defs>
</svg>
