<svg width="100" height="34" viewBox="0 0 100 34" fill="none" xmlns="http://www.w3.org/2000/svg">
<path d="M30.1375 0H3.00049C1.34276 0 0 1.39249 0 3.08338V30.9166C0 32.6075 1.35934 34 3.00049 34H30.1375C31.7952 34 33.138 32.6075 33.138 30.9166V3.08338C33.138 1.39249 31.7786 0 30.1375 0Z" fill="#FF3366"/>
<path d="M46.6671 26.5734H49.8666V12.1678H46.6671V26.5734ZM58.3707 18.0527C56.7296 17.5222 55.221 17.058 55.221 16.0303V15.9805C55.221 15.1351 55.9338 14.5383 57.1937 14.5383C57.7905 14.5383 58.4702 14.6875 59.183 14.9362C59.183 14.9362 59.183 14.9362 59.2161 14.9362C59.2659 14.9693 59.3322 14.9859 59.4151 15.019C59.929 15.1848 61.2717 15.4169 62.4487 13.5602C60.9733 12.549 59.0669 11.9191 57.3098 11.9191C54.5248 11.9191 52.3366 13.5768 52.3366 16.3121V16.3618C52.3366 19.1302 54.6242 19.9922 56.713 20.589C58.3541 21.1029 59.8295 21.4842 59.8295 22.6114V22.6612C59.8295 23.6226 59.0338 24.2194 57.6745 24.2194C56.7793 24.2194 55.7681 23.9708 54.7569 23.49C54.4585 23.374 52.9831 22.8435 51.6901 24.7002C53.4307 26.1092 55.6023 26.8386 57.5916 26.8386C60.4926 26.8386 62.7803 25.3467 62.7803 22.2965V22.2633C62.714 19.6607 60.4097 18.7158 58.3707 18.0527ZM37.9641 22.7441L34.2176 12.1346H30.7695L36.5053 26.6563H39.3731L45.0757 12.1678H41.7105L37.9641 22.7441ZM77.5672 11.8528C73.2737 11.8528 70.1074 15.2677 70.1074 19.412C70.1074 23.5232 73.2571 26.8884 77.5175 26.8884C81.8276 26.8884 85.0104 23.4735 85.0104 19.3623C84.9938 15.218 81.8276 11.8528 77.5672 11.8528ZM77.5672 24.0371C75.0806 24.0371 73.3068 21.9152 73.3068 19.3623C73.3068 16.826 74.948 14.7372 77.5175 14.7372C80.0372 14.7372 81.811 16.8591 81.811 19.412C81.7778 21.9483 80.1367 24.0371 77.5672 24.0371ZM94.476 11.8528C92.321 11.8528 91.0114 13.0298 90.0996 14.3891V12.1678H86.9002V26.5734H90.0996V18.434C90.0996 16.2126 91.3761 14.8533 93.2493 14.8533C95.1557 14.8533 96.2332 16.1297 96.2332 18.3842V26.5568H99.4492V17.4227C99.4492 14.0576 97.6257 11.8528 94.476 11.8528ZM64.8193 26.5734H68.0187V12.1678H64.8193V26.5734Z" fill="#FF3366"/>
<path d="M11.4375 10.2779C12.5151 10.2779 13.4102 9.41589 13.4102 8.30521C13.4102 7.17796 12.5151 6.33252 11.4375 6.33252C10.36 6.33252 9.46484 7.19454 9.46484 8.30521C9.46484 9.41589 10.36 10.2779 11.4375 10.2779Z" fill="white"/>
<path d="M7.1628 21.683C7.04676 22.1969 6.96387 22.7274 6.96387 23.1584C6.96387 24.9156 7.92536 26.076 9.99752 26.076C11.705 26.076 13.0809 25.0814 14.0755 23.49L13.4622 25.8937H16.8605L18.8001 18.2847C19.2974 16.3783 20.2423 15.3505 21.6348 15.3505C22.762 15.3505 23.4583 16.0302 23.4583 17.1574C23.4583 17.489 23.4251 17.8371 23.3256 18.235L22.331 21.7328C22.1984 22.2467 22.1155 22.7274 22.1155 23.2081C22.1155 24.8824 23.1101 26.0926 25.1989 26.0926C26.9892 26.0926 28.4315 24.9653 29.194 22.2632L27.8678 21.7493C27.2047 23.5563 26.6245 23.8712 26.1604 23.8712C25.7128 23.8712 25.4641 23.5728 25.4641 22.9761C25.4641 22.7108 25.5138 22.4124 25.5967 22.0643L26.6245 18.666C26.8732 17.8537 26.9561 17.1574 26.9561 16.5109C26.9561 13.958 25.3812 12.6318 23.4748 12.6318C21.6845 12.6318 19.861 14.1901 18.9492 15.8644L19.6123 12.8805H14.4236L13.6777 15.4997H16.098L14.606 21.3515C13.4124 23.9044 11.274 23.9375 11.0253 23.8878C10.5777 23.7718 10.3125 23.6226 10.3125 23.0589C10.3125 22.7274 10.3622 22.2798 10.528 21.7162L12.7825 12.9137H7.04676L6.30078 15.5329H8.70449L7.1628 21.683Z" fill="white"/>
</svg>
