<svg width="1021" height="1010" viewBox="0 0 1021 1010" fill="none"
  xmlns="http://www.w3.org/2000/svg">
  <g opacity="0.25">
    <path d="M510.555 725.117C640.342 725.117 745.555 619.905 745.555 490.119C745.555 360.334 640.342 255.122 510.555 255.122C380.768 255.122 275.555 360.334 275.555 490.119C275.555 619.905 380.768 725.117 510.555 725.117Z" fill="#F1C0CA"/>
    <path fill-rule="evenodd" clip-rule="evenodd" d="M481.833 546.258H536.666L565.388 498.605L518.388 422.884V467.925C527.527 471.189 534.055 479.675 534.055 490.119C534.055 503.175 522.958 513.619 509.902 513.619C496.194 513.619 485.749 503.175 485.749 490.119C485.749 480.328 492.277 471.189 501.416 467.925V422.884L454.416 498.605L481.833 546.258ZM517.736 490.119C517.736 485.55 514.472 482.286 509.902 482.286C505.333 482.286 502.069 485.55 502.069 490.119C502.069 494.689 505.333 497.953 509.902 497.953C514.472 497.953 517.736 494.689 517.736 490.119Z" fill="white"/>
    <path d="M579.825 493.6L516.111 390.23C512.861 385.028 505.709 385.028 502.459 390.23L438.745 493.6C437.445 496.201 437.445 499.451 438.745 501.402L465.401 548.861C458.249 552.762 453.698 560.563 453.698 569.665C453.698 582.668 464.101 593.07 477.753 593.07H541.467C554.469 593.07 565.522 582.668 565.522 569.665C565.522 561.214 560.321 553.412 553.169 548.861L580.475 502.052C581.775 498.801 581.775 496.201 579.825 493.6ZM509.61 481.898C514.161 481.898 517.412 485.148 517.412 489.699C517.412 494.25 514.161 497.501 509.61 497.501C505.059 497.501 501.808 494.25 501.808 489.699C501.808 485.148 505.059 481.898 509.61 481.898ZM540.817 577.467H477.103C472.552 577.467 469.302 574.216 469.302 569.665C469.302 565.114 472.552 561.864 477.103 561.864H540.817C545.368 561.864 549.268 565.764 549.268 569.665C549.268 573.566 545.368 577.467 540.817 577.467ZM536.266 545.61H481.654L454.348 498.151L501.158 422.736V467.595C492.056 470.846 485.555 479.947 485.555 489.699C485.555 502.702 495.957 513.104 509.61 513.104C522.613 513.104 533.665 502.702 533.665 489.699C533.665 479.297 527.164 470.846 518.062 467.595V422.736L564.872 498.151L536.266 545.61Z" fill="#DF425A"/>
  </g>
  <path opacity="0.1" d="M506.784 186.631C331.829 186.631 190 328.46 190 503.415C190 678.37 331.829 820.199 506.784 820.199C681.739 820.199 823.568 678.37 823.568 503.415C823.568 328.46 681.739 186.631 506.784 186.631Z" stroke="black" stroke-width="0.5" stroke-miterlimit="10"/>
  <g opacity="0.75">
    <path opacity="0.8" d="M404.265 202.693C403.891 202.693 403.588 202.996 403.588 203.369C403.588 203.743 403.891 204.046 404.265 204.046C404.638 204.046 404.941 203.743 404.941 203.369C404.941 202.996 404.638 202.693 404.265 202.693Z" fill="#009BFF"/>
    <g opacity="0.8">
      <g opacity="0.8">
        <path opacity="0.8" d="M264.024 708.413C262.907 708.413 262.001 707.508 262.001 706.39C262.001 705.273 262.907 704.368 264.024 704.368C265.141 704.368 266.047 705.273 266.047 706.39C266.047 707.508 265.141 708.413 264.024 708.413Z" fill="#009BFF"/>
        <path opacity="0.8" d="M641.91 214.259C640.701 214.259 639.721 215.238 639.721 216.447C639.721 217.655 640.701 218.635 641.91 218.635C643.118 218.635 644.098 217.655 644.098 216.447C644.098 215.238 643.118 214.259 641.91 214.259Z" fill="#1DC4D7"/>
        <path opacity="0.8" d="M820.493 548.538C819.243 548.538 818.23 549.551 818.23 550.8C818.23 552.05 819.243 553.063 820.493 553.063C821.742 553.063 822.755 552.05 822.755 550.8C822.755 549.551 821.742 548.538 820.493 548.538Z" fill="#FA7548"/>
        <path opacity="0.8" d="M216.901 373.599C215.531 373.599 214.421 374.709 214.421 376.079C214.421 377.448 215.531 378.559 216.901 378.559C218.271 378.559 219.381 377.448 219.381 376.079C219.381 374.709 218.271 373.599 216.901 373.599Z" fill="#009BFF"/>
        <path opacity="0.8" d="M195.931 441.263C194.948 441.263 194.151 442.06 194.151 443.043C194.151 444.026 194.948 444.823 195.931 444.823C196.914 444.823 197.71 444.026 197.71 443.043C197.71 442.06 196.914 441.263 195.931 441.263Z" fill="#FEB12B"/>
        <path opacity="0.8" d="M190.52 489.513C189.288 489.513 188.289 490.512 188.289 491.744C188.289 492.976 189.288 493.975 190.52 493.975C191.753 493.975 192.751 492.976 192.751 491.744C192.751 490.512 191.753 489.513 190.52 489.513Z" fill="#009BFF"/>
        <path opacity="0.8" d="M206.304 601.548C205.432 601.548 204.725 602.254 204.725 603.126C204.725 603.997 205.432 604.704 206.304 604.704C207.175 604.704 207.882 603.997 207.882 603.126C207.882 602.254 207.175 601.548 206.304 601.548Z" fill="#009BFF"/>
        <path opacity="0.8" d="M209.01 609.213C208.139 609.213 207.432 609.92 207.432 610.792C207.432 611.663 208.139 612.37 209.01 612.37C209.882 612.37 210.588 611.663 210.588 610.792C210.588 609.92 209.882 609.213 209.01 609.213Z" fill="#1DC4D7"/>
        <path opacity="0.8" d="M201.793 586.215C200.922 586.215 200.215 586.922 200.215 587.793C200.215 588.665 200.922 589.372 201.793 589.372C202.665 589.372 203.372 588.665 203.372 587.793C203.372 586.922 202.665 586.215 201.793 586.215Z" fill="#FA7548"/>
        <path opacity="0.8" d="M692.641 758.474C691.77 758.474 691.063 759.181 691.063 760.052C691.063 760.924 691.77 761.63 692.641 761.63C693.513 761.63 694.22 760.924 694.22 760.052C694.22 759.181 693.513 758.474 692.641 758.474Z" fill="#FA7548"/>
        <path opacity="0.8" d="M667.839 774.707C666.967 774.707 666.26 775.414 666.26 776.286C666.26 777.157 666.967 777.864 667.839 777.864C668.71 777.864 669.417 777.157 669.417 776.286C669.417 775.414 668.71 774.707 667.839 774.707Z" fill="#FA7548"/>
        <path opacity="0.8" d="M190.52 514.932C189.878 514.932 189.358 515.453 189.358 516.095C189.358 516.736 189.878 517.257 190.52 517.257C191.162 517.257 191.683 516.736 191.683 516.095C191.683 515.453 191.162 514.932 190.52 514.932Z" fill="#1DC4D7"/>
        <path opacity="0.8" d="M205.628 404.488C204.756 404.488 204.05 405.194 204.05 406.066C204.05 406.938 204.756 407.644 205.628 407.644C206.499 407.644 207.206 406.938 207.206 406.066C207.206 405.194 206.499 404.488 205.628 404.488Z" fill="#009BFF"/>
        <path opacity="0.8" d="M238.545 333.465C237.674 333.465 236.967 334.172 236.967 335.043C236.967 335.915 237.674 336.622 238.545 336.622C239.417 336.622 240.124 335.915 240.124 335.043C240.124 334.172 239.417 333.465 238.545 333.465Z" fill="#009BFF"/>
        <path opacity="0.8" d="M232.683 343.16C231.812 343.16 231.105 343.866 231.105 344.738C231.105 345.61 231.812 346.316 232.683 346.316C233.555 346.316 234.262 345.61 234.262 344.738C234.262 343.866 233.555 343.16 232.683 343.16Z" fill="#009BFF"/>
        <path opacity="0.8" d="M230.654 346.767C229.783 346.767 229.076 347.474 229.076 348.346C229.076 349.217 229.783 349.924 230.654 349.924C231.526 349.924 232.232 349.217 232.232 348.346C232.232 347.474 231.526 346.767 230.654 346.767Z" fill="#009BFF"/>
        <path opacity="0.8" d="M227.047 353.081C226.175 353.081 225.469 353.787 225.469 354.659C225.469 355.531 226.175 356.237 227.047 356.237C227.918 356.237 228.625 355.531 228.625 354.659C228.625 353.787 227.918 353.081 227.047 353.081Z" fill="#FA7548"/>
        <path opacity="0.8" d="M251.849 314.074C250.978 314.074 250.271 314.781 250.271 315.653C250.271 316.524 250.978 317.231 251.849 317.231C252.721 317.231 253.428 316.524 253.428 315.653C253.428 314.781 252.721 314.074 251.849 314.074Z" fill="#009BFF"/>
        <path opacity="0.8" d="M211.038 388.479C210.166 388.479 209.46 389.185 209.46 390.057C209.46 390.929 210.166 391.635 211.038 391.635C211.91 391.635 212.616 390.929 212.616 390.057C212.616 389.185 211.91 388.479 211.038 388.479Z" fill="#1DC4D7"/>
        <path opacity="0.8" d="M243.054 326.701C242.182 326.701 241.476 327.408 241.476 328.279C241.476 329.151 242.182 329.858 243.054 329.858C243.926 329.858 244.632 329.151 244.632 328.279C244.632 327.408 243.926 326.701 243.054 326.701Z" fill="#FEB12B"/>
        <path opacity="0.8" d="M221.409 365.256C221.036 365.256 220.733 365.559 220.733 365.932C220.733 366.306 221.036 366.609 221.409 366.609C221.783 366.609 222.085 366.306 222.085 365.932C222.085 365.559 221.783 365.256 221.409 365.256Z" fill="#009BFF"/>
        <path opacity="0.8" d="M267.856 294.685C267.482 294.685 267.18 294.987 267.18 295.361C267.18 295.735 267.482 296.037 267.856 296.037C268.229 296.037 268.532 295.735 268.532 295.361C268.532 294.987 268.229 294.685 267.856 294.685Z" fill="#009BFF"/>
        <path opacity="0.8" d="M271.013 291.077C270.639 291.077 270.337 291.38 270.337 291.753C270.337 292.127 270.639 292.43 271.013 292.43C271.387 292.43 271.689 292.127 271.689 291.753C271.689 291.38 271.387 291.077 271.013 291.077Z" fill="#009BFF"/>
        <path opacity="0.8" d="M289.502 272.363C289.128 272.363 288.826 272.666 288.826 273.04C288.826 273.413 289.128 273.716 289.502 273.716C289.875 273.716 290.178 273.413 290.178 273.04C290.178 272.666 289.875 272.363 289.502 272.363Z" fill="#009BFF"/>
        <path opacity="0.8" d="M207.431 399.301C207.058 399.301 206.755 399.604 206.755 399.978C206.755 400.351 207.058 400.654 207.431 400.654C207.805 400.654 208.107 400.351 208.107 399.978C208.107 399.604 207.805 399.301 207.431 399.301Z" fill="#009BFF"/>
        <path opacity="0.8" d="M217.126 629.28C216.255 629.28 215.548 629.987 215.548 630.859C215.548 631.73 216.255 632.437 217.126 632.437C217.998 632.437 218.705 631.73 218.705 630.859C218.705 629.987 217.998 629.28 217.126 629.28Z" fill="#009BFF"/>
        <path opacity="0.8" d="M467.17 813.939C465.178 813.939 463.563 815.555 463.563 817.547C463.563 819.539 465.178 821.154 467.17 821.154C469.163 821.154 470.778 819.539 470.778 817.547C470.778 815.555 469.163 813.939 467.17 813.939Z" fill="#FEB12B"/>
        <path opacity="0.8" d="M493.1 815.969C491.107 815.969 489.492 817.584 489.492 819.576C489.492 821.568 491.107 823.184 493.1 823.184C495.092 823.184 496.707 821.568 496.707 819.576C496.707 817.584 495.092 815.969 493.1 815.969Z" fill="#009BFF"/>
        <path opacity="0.8" d="M589.15 807.626C588.279 807.626 587.572 808.332 587.572 809.204C587.572 810.076 588.279 810.782 589.15 810.782C590.022 810.782 590.729 810.076 590.729 809.204C590.729 808.332 590.022 807.626 589.15 807.626Z" fill="#FA7548"/>
        <path opacity="0.8" d="M563.446 813.488C562.575 813.488 561.868 814.195 561.868 815.067C561.868 815.938 562.575 816.645 563.446 816.645C564.318 816.645 565.024 815.938 565.024 815.067C565.024 814.195 564.318 813.488 563.446 813.488Z" fill="#009BFF"/>
        <path opacity="0.8" d="M301.452 741.974C300.308 741.974 299.382 742.901 299.382 744.044C299.382 745.187 300.308 746.114 301.452 746.114C302.595 746.114 303.521 745.187 303.521 744.044C303.521 742.901 302.595 741.974 301.452 741.974Z" fill="#6B00FF"/>
        <path opacity="0.8" d="M377.208 790.491C376.212 790.491 375.405 791.298 375.405 792.294C375.405 793.291 376.212 794.098 377.208 794.098C378.205 794.098 379.012 793.291 379.012 792.294C379.012 791.298 378.205 790.491 377.208 790.491Z" fill="#FEB12B"/>
        <path opacity="0.8" d="M321.969 758.335C320.897 758.335 320.027 759.205 320.027 760.277C320.027 761.35 320.897 762.22 321.969 762.22C323.042 762.22 323.912 761.35 323.912 760.277C323.912 759.205 323.042 758.335 321.969 758.335Z" fill="#DF425A"/>
        <path opacity="0.8" d="M423.655 807.401C422.784 807.401 422.077 808.108 422.077 808.979C422.077 809.851 422.784 810.558 423.655 810.558C424.527 810.558 425.233 809.851 425.233 808.979C425.233 808.108 424.527 807.401 423.655 807.401Z" fill="#009BFF"/>
        <path opacity="0.8" d="M431.546 809.43C430.675 809.43 429.968 810.137 429.968 811.009C429.968 811.88 430.675 812.587 431.546 812.587C432.418 812.587 433.125 811.88 433.125 811.009C433.125 810.137 432.418 809.43 431.546 809.43Z" fill="#1DC4D7"/>
        <path opacity="0.8" d="M408.322 802.666C407.45 802.666 406.744 803.372 406.744 804.244C406.744 805.116 407.45 805.822 408.322 805.822C409.194 805.822 409.9 805.116 409.9 804.244C409.9 803.372 409.194 802.666 408.322 802.666Z" fill="#FA7548"/>
        <path opacity="0.8" d="M383.522 793.422C382.651 793.422 381.944 794.129 381.944 795C381.944 795.872 382.651 796.579 383.522 796.579C384.394 796.579 385.101 795.872 385.101 795C385.101 794.129 384.394 793.422 383.522 793.422Z" fill="#009BFF"/>
        <path opacity="0.8" d="M342.486 772.228C341.614 772.228 340.907 772.934 340.907 773.806C340.907 774.678 341.614 775.384 342.486 775.384C343.357 775.384 344.064 774.678 344.064 773.806C344.064 772.934 343.357 772.228 342.486 772.228Z" fill="#1DC4D7"/>
        <path opacity="0.8" d="M452.74 813.714C451.868 813.714 451.162 814.42 451.162 815.292C451.162 816.164 451.868 816.87 452.74 816.87C453.612 816.87 454.318 816.164 454.318 815.292C454.318 814.42 453.612 813.714 452.74 813.714Z" fill="#009BFF"/>
      </g>
    </g>
  </g>
  <path opacity="0.1" d="M512.797 82.7971C274.67 82.7971 81.6298 275.837 81.6297 513.964C81.6297 752.091 274.67 945.131 512.797 945.131C750.923 945.131 943.963 752.091 943.963 513.964C943.963 275.837 750.923 82.7972 512.797 82.7971Z" stroke="black" stroke-width="0.50165" stroke-miterlimit="10"/>
  <g opacity="0.5">
    <path opacity="0.8" d="M870.962 277.708C871.187 278.769 872.228 279.447 873.288 279.223C874.348 278.998 875.026 277.957 874.802 276.897C874.578 275.837 873.537 275.159 872.477 275.383C871.416 275.607 870.738 276.648 870.962 277.708Z" fill="#009BFF"/>
    <path opacity="0.8" d="M79.7434 534.995C79.9451 535.949 80.8822 536.559 81.8365 536.358C82.7908 536.156 83.4009 535.219 83.1992 534.264C82.9975 533.31 82.0604 532.7 81.1061 532.902C80.1518 533.103 79.5417 534.041 79.7434 534.995Z" fill="#FA7548"/>
    <path opacity="0.8" d="M79.6914 494.892C79.8931 495.846 80.8303 496.456 81.7847 496.255C82.739 496.053 83.3491 495.116 83.1474 494.161C82.9457 493.207 82.0086 492.597 81.0542 492.799C80.0999 493 79.4897 493.938 79.6914 494.892Z" fill="#FA7548"/>
    <path opacity="0.8" d="M845.487 242.577C845.688 243.531 846.625 244.141 847.58 243.94C848.534 243.738 849.144 242.801 848.942 241.847C848.741 240.892 847.804 240.282 846.849 240.484C845.895 240.686 845.285 241.623 845.487 242.577Z" fill="#009BFF"/>
    <path opacity="0.8" d="M901.699 332.986C901.901 333.94 902.838 334.55 903.793 334.348C904.747 334.147 905.357 333.209 905.155 332.255C904.954 331.301 904.016 330.691 903.062 330.892C902.108 331.094 901.498 332.031 901.699 332.986Z" fill="#009BFF"/>
    <path opacity="0.8" d="M914.144 362.446C914.345 363.401 915.283 364.011 916.237 363.809C917.191 363.607 917.801 362.67 917.6 361.716C917.398 360.761 916.461 360.151 915.506 360.353C914.552 360.555 913.942 361.492 914.144 362.446Z" fill="#009BFF"/>
    <path opacity="0.8" d="M859.346 260.707C859.548 261.661 860.485 262.271 861.439 262.07C862.393 261.868 863.003 260.931 862.802 259.977C862.6 259.022 861.663 258.412 860.709 258.614C859.754 258.816 859.144 259.753 859.346 260.707Z" fill="#1DC4D7"/>
    <path opacity="0.8" d="M906.236 343.058C906.437 344.012 907.374 344.622 908.329 344.421C909.283 344.219 909.893 343.282 909.691 342.328C909.49 341.373 908.553 340.763 907.598 340.965C906.644 341.167 906.034 342.104 906.236 343.058Z" fill="#FEB12B"/>
    <path opacity="0.8" d="M926.127 395.414C926.216 395.838 926.633 396.109 927.057 396.019C927.481 395.93 927.752 395.513 927.662 395.089C927.573 394.665 927.156 394.394 926.732 394.484C926.308 394.574 926.037 394.99 926.127 395.414Z" fill="#009BFF"/>
    <path opacity="0.8" d="M927.891 401.861C927.981 402.285 928.397 402.556 928.821 402.467C929.245 402.377 929.516 401.961 929.426 401.537C929.337 401.113 928.92 400.842 928.496 400.931C928.072 401.021 927.801 401.437 927.891 401.861Z" fill="#009BFF"/>
    <path opacity="0.8" d="M935.66 436.723C935.75 437.147 936.166 437.418 936.59 437.329C937.014 437.239 937.285 436.823 937.195 436.399C937.106 435.975 936.689 435.704 936.265 435.793C935.842 435.883 935.57 436.299 935.66 436.723Z" fill="#009BFF"/>
    <path opacity="0.8" d="M851.676 249.091C851.766 249.515 852.182 249.786 852.606 249.696C853.03 249.606 853.301 249.19 853.212 248.766C853.122 248.342 852.706 248.071 852.282 248.161C851.858 248.25 851.587 248.667 851.676 249.091Z" fill="#009BFF"/>
    <path opacity="0.8" d="M580.137 88.8662C580.339 89.8205 581.276 90.4306 582.23 90.2289C583.184 90.0272 583.794 89.0901 583.593 88.1358C583.391 87.1815 582.454 86.5714 581.5 86.7731C580.545 86.9748 579.935 87.9119 580.137 88.8662Z" fill="#009BFF"/>
    <path opacity="0.8" d="M94.2604 401.557C94.4621 402.511 95.3993 403.121 96.3536 402.92C97.3079 402.718 97.918 401.781 97.7163 400.826C97.5146 399.872 96.5774 399.262 95.6231 399.464C94.6688 399.665 94.0587 400.603 94.2604 401.557Z" fill="#009BFF"/>
    <path opacity="0.8" d="M100.461 380.592C100.662 381.546 101.6 382.156 102.554 381.954C103.508 381.753 104.118 380.815 103.916 379.861C103.715 378.907 102.778 378.297 101.823 378.498C100.869 378.7 100.259 379.637 100.461 380.592Z" fill="#FA7548"/>
    <path opacity="0.8" d="M113.026 347.047C113.228 348.001 114.165 348.611 115.119 348.41C116.073 348.208 116.684 347.271 116.482 346.316C116.28 345.362 115.343 344.752 114.389 344.954C113.434 345.156 112.824 346.093 113.026 347.047Z" fill="#009BFF"/>
    <path opacity="0.8" d="M85.5309 440.909C85.7326 441.863 86.6698 442.473 87.6241 442.271C88.5784 442.07 89.1885 441.133 88.9868 440.178C88.7851 439.224 87.8479 438.614 86.8936 438.815C85.9393 439.017 85.3292 439.954 85.5309 440.909Z" fill="#009BFF"/>
    <path opacity="0.8" d="M387.95 101.006C388.197 102.172 389.342 102.918 390.508 102.671C391.675 102.425 392.42 101.279 392.174 100.113C391.927 98.9465 390.782 98.2008 389.616 98.4473C388.449 98.6938 387.704 99.8392 387.95 101.006Z" fill="#6B00FF"/>
    <path opacity="0.8" d="M417.809 93.2907C418.145 94.8812 419.707 95.8981 421.297 95.5619C422.888 95.2258 423.905 93.6639 423.569 92.0734C423.232 90.4828 421.671 89.466 420.08 89.8022C418.49 90.1383 417.473 91.7002 417.809 93.2907Z" fill="#FEB12B"/>
    <path opacity="0.8" d="M355.012 112.18C355.192 113.028 356.025 113.57 356.873 113.391C357.721 113.212 358.264 112.379 358.084 111.53C357.905 110.682 357.072 110.14 356.224 110.319C355.376 110.498 354.833 111.331 355.012 112.18Z" fill="#DF425A"/>
    <path opacity="0.8" d="M324.137 125.525C324.339 126.479 325.276 127.089 326.23 126.887C327.184 126.686 327.794 125.748 327.593 124.794C327.391 123.84 326.454 123.23 325.5 123.431C324.545 123.633 323.935 124.57 324.137 125.525Z" fill="#1DC4D7"/>
    <path opacity="0.8" d="M473.65 943.935C473.919 945.208 475.169 946.021 476.441 945.752C477.713 945.483 478.527 944.234 478.258 942.961C477.989 941.689 476.74 940.875 475.467 941.144C474.195 941.413 473.381 942.663 473.65 943.935Z" fill="#009BFF"/>
    <path opacity="0.8" d="M150.106 751.179C150.286 752.027 151.119 752.57 151.967 752.39C152.815 752.211 153.357 751.378 153.178 750.53C152.999 749.681 152.166 749.139 151.318 749.318C150.469 749.498 149.927 750.331 150.106 751.179Z" fill="#009BFF"/>
    <path opacity="0.8" d="M211.37 824.675C211.527 825.418 212.255 825.892 212.998 825.735C213.74 825.578 214.214 824.85 214.057 824.107C213.901 823.365 213.172 822.89 212.429 823.047C211.687 823.204 211.213 823.933 211.37 824.675Z" fill="#FEB12B"/>
    <path opacity="0.8" d="M337.688 909.893C337.935 911.059 339.08 911.805 340.247 911.558C341.413 911.312 342.159 910.167 341.912 909C341.666 907.834 340.52 907.088 339.354 907.335C338.187 907.581 337.442 908.727 337.688 909.893Z" fill="#FEB12B"/>
    <path opacity="0.8" d="M401.276 931.754C401.477 932.708 402.414 933.319 403.369 933.117C404.323 932.915 404.933 931.978 404.731 931.024C404.53 930.069 403.593 929.459 402.638 929.661C401.684 929.863 401.074 930.8 401.276 931.754Z" fill="#009BFF"/>
    <path opacity="0.8" d="M411.89 934.526C412.092 935.48 413.029 936.09 413.983 935.888C414.937 935.687 415.547 934.749 415.346 933.795C415.144 932.841 414.207 932.231 413.253 932.432C412.298 932.634 411.688 933.571 411.89 934.526Z" fill="#1DC4D7"/>
    <path opacity="0.8" d="M380.351 925.748C380.553 926.702 381.49 927.312 382.444 927.11C383.399 926.909 384.009 925.971 383.807 925.017C383.605 924.063 382.668 923.453 381.714 923.654C380.76 923.856 380.15 924.793 380.351 925.748Z" fill="#FA7548"/>
    <path opacity="0.8" d="M941.325 493.891C941.527 494.845 942.464 495.455 943.419 495.254C944.373 495.052 944.983 494.115 944.781 493.161C944.58 492.206 943.642 491.596 942.688 491.798C941.734 492 941.124 492.937 941.325 493.891Z" fill="#FA7548"/>
    <path opacity="0.8" d="M941.417 534.185C941.618 535.139 942.555 535.749 943.51 535.548C944.464 535.346 945.074 534.409 944.873 533.455C944.671 532.5 943.734 531.89 942.779 532.092C941.825 532.294 941.215 533.231 941.417 534.185Z" fill="#FA7548"/>
    <path opacity="0.8" d="M346.656 913.413C346.858 914.368 347.795 914.978 348.749 914.776C349.703 914.574 350.314 913.637 350.112 912.683C349.91 911.728 348.973 911.118 348.019 911.32C347.064 911.522 346.454 912.459 346.656 913.413Z" fill="#009BFF"/>
    <path opacity="0.8" d="M318.691 900.672C318.893 901.626 319.83 902.236 320.785 902.034C321.739 901.833 322.349 900.896 322.147 899.941C321.946 898.987 321.009 898.377 320.054 898.578C319.1 898.78 318.49 899.717 318.691 900.672Z" fill="#DF425A"/>
    <path opacity="0.8" d="M290.35 885.201C290.552 886.155 291.489 886.765 292.443 886.563C293.397 886.362 294.007 885.425 293.806 884.47C293.604 883.516 292.667 882.906 291.713 883.108C290.758 883.309 290.148 884.246 290.35 885.201Z" fill="#1DC4D7"/>
    <path opacity="0.8" d="M175.815 786.46C176.017 787.415 176.954 788.025 177.908 787.823C178.863 787.621 179.473 786.684 179.271 785.73C179.069 784.776 178.132 784.166 177.178 784.367C176.223 784.569 175.613 785.506 175.815 786.46Z" fill="#009BFF"/>
    <path opacity="0.8" d="M119.368 695.9C119.57 696.854 120.507 697.464 121.461 697.262C122.415 697.061 123.025 696.123 122.824 695.169C122.622 694.215 121.685 693.605 120.731 693.806C119.776 694.008 119.166 694.945 119.368 695.9Z" fill="#009BFF"/>
    <path opacity="0.8" d="M107.157 666.591C107.358 667.546 108.295 668.156 109.25 667.954C110.204 667.752 110.814 666.815 110.612 665.861C110.411 664.906 109.473 664.296 108.519 664.498C107.565 664.7 106.955 665.637 107.157 666.591Z" fill="#009BFF"/>
    <path opacity="0.8" d="M161.721 768.178C161.923 769.132 162.86 769.742 163.815 769.541C164.769 769.339 165.379 768.402 165.177 767.448C164.976 766.493 164.038 765.883 163.084 766.085C162.13 766.287 161.52 767.224 161.721 768.178Z" fill="#1DC4D7"/>
    <path opacity="0.8" d="M114.832 685.827C115.034 686.781 115.971 687.391 116.925 687.19C117.879 686.988 118.489 686.051 118.288 685.097C118.086 684.142 117.149 683.532 116.195 683.734C115.24 683.936 114.63 684.873 114.832 685.827Z" fill="#FEB12B"/>
    <path opacity="0.8" d="M142.961 738.248C143.051 738.672 143.467 738.943 143.891 738.853C144.315 738.764 144.586 738.347 144.496 737.923C144.407 737.499 143.99 737.228 143.566 737.318C143.142 737.407 142.871 737.824 142.961 738.248Z" fill="#009BFF"/>
    <path opacity="0.8" d="M97.0542 633.024C97.1439 633.448 97.5602 633.72 97.9841 633.63C98.4081 633.54 98.6791 633.124 98.5895 632.7C98.4999 632.276 98.0835 632.005 97.6596 632.095C97.2356 632.184 96.9646 632.6 97.0542 633.024Z" fill="#009BFF"/>
    <path opacity="0.8" d="M95.098 626.618C95.1876 627.042 95.604 627.313 96.028 627.224C96.452 627.134 96.723 626.718 96.6334 626.294C96.5438 625.87 96.1275 625.599 95.7035 625.688C95.2795 625.778 95.0084 626.194 95.098 626.618Z" fill="#009BFF"/>
    <path opacity="0.8" d="M87.3277 591.757C87.4173 592.181 87.8336 592.452 88.2576 592.362C88.6815 592.273 88.9526 591.856 88.863 591.432C88.7733 591.008 88.357 590.737 87.933 590.827C87.5091 590.917 87.2381 591.333 87.3277 591.757Z" fill="#009BFF"/>
    <path opacity="0.8" d="M171.353 779.581C171.442 780.005 171.859 780.276 172.283 780.186C172.707 780.097 172.978 779.68 172.888 779.256C172.799 778.832 172.382 778.561 171.958 778.651C171.534 778.741 171.263 779.157 171.353 779.581Z" fill="#009BFF"/>
    <path opacity="0.8" d="M440.972 940.212C441.173 941.166 442.11 941.776 443.065 941.574C444.019 941.373 444.629 940.436 444.427 939.481C444.226 938.527 443.288 937.917 442.334 938.118C441.38 938.32 440.77 939.257 440.972 940.212Z" fill="#009BFF"/>
    <path opacity="0.8" d="M839.023 793.703C839.269 794.869 840.415 795.615 841.581 795.368C842.747 795.122 843.493 793.976 843.247 792.81C843 791.644 841.855 790.898 840.688 791.145C839.522 791.391 838.776 792.536 839.023 793.703Z" fill="#FEB12B"/>
    <path opacity="0.8" d="M860.77 765.64C861.017 766.806 862.162 767.552 863.329 767.305C864.495 767.059 865.241 765.913 864.994 764.747C864.748 763.581 863.602 762.835 862.436 763.081C861.27 763.328 860.524 764.473 860.77 765.64Z" fill="#009BFF"/>
    <path opacity="0.8" d="M926.998 627.289C927.2 628.243 928.137 628.853 929.091 628.652C930.046 628.45 930.656 627.513 930.454 626.558C930.252 625.604 929.315 624.994 928.361 625.196C927.407 625.397 926.797 626.334 926.998 627.289Z" fill="#009BFF"/>
    <path opacity="0.8" d="M920.608 648.295C920.81 649.249 921.747 649.859 922.701 649.658C923.655 649.456 924.266 648.519 924.064 647.565C923.862 646.61 922.925 646 921.971 646.202C921.016 646.404 920.406 647.341 920.608 648.295Z" fill="#FA7548"/>
    <path opacity="0.8" d="M908.235 681.799C908.436 682.753 909.373 683.363 910.328 683.161C911.282 682.96 911.892 682.023 911.69 681.068C911.489 680.114 910.552 679.504 909.597 679.706C908.643 679.907 908.033 680.844 908.235 681.799Z" fill="#009BFF"/>
    <path opacity="0.8" d="M935.73 587.937C935.931 588.891 936.869 589.501 937.823 589.3C938.777 589.098 939.387 588.161 939.186 587.207C938.984 586.252 938.047 585.642 937.092 585.844C936.138 586.045 935.528 586.983 935.73 587.937Z" fill="#009BFF"/>
    <path opacity="0.8" d="M826.29 808.428C826.491 809.382 827.429 809.993 828.383 809.791C829.337 809.589 829.947 808.652 829.746 807.698C829.544 806.743 828.607 806.133 827.652 806.335C826.698 806.537 826.088 807.474 826.29 808.428Z" fill="#009BFF"/>
  </g>
</svg>
