<svg width="470" height="471" viewBox="0 0 470 471" fill="none" xmlns="http://www.w3.org/2000/svg">
<g opacity="0.25">
<path d="M235 470.986C364.787 470.986 470 365.774 470 235.988C470 106.203 364.787 0.990845 235 0.990845C105.213 0.990845 0 106.203 0 235.988C0 365.774 105.213 470.986 235 470.986Z" fill="#F1C0CA"/>
<path fill-rule="evenodd" clip-rule="evenodd" d="M206.278 292.127H261.111L289.834 244.475L242.834 168.753V213.794C251.972 217.058 258.5 225.544 258.5 235.989C258.5 249.044 247.403 259.488 234.347 259.488C220.639 259.488 210.195 249.044 210.195 235.989C210.195 226.197 216.722 217.058 225.861 213.794V168.753L178.861 244.475L206.278 292.127ZM242.181 235.989C242.181 231.419 238.917 228.155 234.348 228.155C229.778 228.155 226.514 231.419 226.514 235.989C226.514 240.558 229.778 243.822 234.348 243.822C238.917 243.822 242.181 240.558 242.181 235.989Z" fill="white"/>
<path d="M304.27 239.469L240.557 136.099C237.306 130.898 230.155 130.898 226.904 136.099L163.191 239.469C161.89 242.07 161.89 245.32 163.191 247.271L189.846 294.73C182.695 298.631 178.144 306.433 178.144 315.534C178.144 328.537 188.546 338.939 202.199 338.939H265.912C278.915 338.939 289.967 328.537 289.967 315.534C289.967 307.083 284.766 299.281 277.615 294.73L304.92 247.921C306.221 244.67 306.221 242.07 304.27 239.469ZM234.055 227.767C238.606 227.767 241.857 231.018 241.857 235.568C241.857 240.119 238.606 243.37 234.055 243.37C229.504 243.37 226.254 240.119 226.254 235.568C226.254 231.018 229.504 227.767 234.055 227.767ZM265.262 323.336H201.549C196.998 323.336 193.747 320.085 193.747 315.534C193.747 310.983 196.998 307.733 201.549 307.733H265.262C269.813 307.733 273.714 311.634 273.714 315.534C273.714 319.435 269.813 323.336 265.262 323.336ZM260.711 291.48H206.1L178.794 244.02L225.604 168.605V213.464C216.502 216.715 210 225.817 210 235.568C210 248.571 220.403 258.973 234.055 258.973C247.058 258.973 258.11 248.571 258.11 235.568C258.11 225.166 251.609 216.715 242.507 213.464V168.605L289.317 244.02L260.711 291.48Z" fill="#DF425A"/>
</g>
</svg>
