<svg width="871" height="986" viewBox="0 0 871 986" fill="none"
  xmlns="http://www.w3.org/2000/svg">
  <g opacity="0.7">
    <circle cx="655.833" cy="328.676" r="330.833" fill="#E2F3FF"/>
    <path d="M643.033 300.19L535.417 258.542L534.858 403.271L643.033 442.439V300.19Z" fill="white"/>
    <path opacity="0.2" d="M789.074 228.945L659.492 184.907C656.425 184.316 653.948 184.316 651.53 184.907L521.889 229.004C511.331 232.25 511.626 240.574 511.626 240.81V410.291C511.626 415.191 514.693 419.5 519.589 421.33L651.53 472.275C653.889 473.279 658.902 472.866 660.141 472.275L792.082 421.39C796.977 419.56 800.044 415.25 800.044 410.35V240.81C800.044 237.15 797.803 230.066 789.074 228.945ZM655.835 208.874L752.8 241.4L655.835 278.296L558.87 241.4L655.835 208.874ZM535.573 401.732V258.638L643.567 299.783V443.468L535.573 401.732ZM776.098 401.732L668.103 443.468V300.137L776.098 258.638V401.732Z" fill="#009BFF"/>
  </g>
  <path opacity="0.1" d="M371.559 50.0152C212.825 208.749 212.825 466.108 371.559 624.842C530.293 783.576 787.652 783.576 946.386 624.842C1105.12 466.108 1105.12 208.749 946.386 50.0152C787.652 -108.719 530.293 -108.719 371.559 50.0152Z" stroke="black" stroke-width="0.5" stroke-miterlimit="10"/>
  <g opacity="0.75">
    <path opacity="0.8" d="M293.005 158.037C292.666 158.375 292.666 158.925 293.005 159.264C293.344 159.603 293.893 159.603 294.232 159.264C294.571 158.925 294.571 158.376 294.232 158.037C293.893 157.698 293.343 157.698 293.005 158.037Z" fill="#009BFF"/>
    <g opacity="0.8">
      <g opacity="0.8">
        <path opacity="0.8" d="M624.599 744.108C623.586 745.121 621.942 745.121 620.929 744.108C619.915 743.094 619.915 741.451 620.929 740.437C621.943 739.424 623.586 739.424 624.599 740.437C625.613 741.451 625.613 743.094 624.599 744.108Z" fill="#009BFF"/>
        <path opacity="0.8" d="M278.072 483.09C276.829 484.333 276.829 486.348 278.072 487.59C279.315 488.833 281.329 488.833 282.572 487.59C283.815 486.348 283.815 484.333 282.572 483.09C281.329 481.847 279.314 481.847 278.072 483.09Z" fill="#009BFF"/>
        <path opacity="0.8" d="M320.438 563.506C319.546 564.398 319.546 565.844 320.438 566.735C321.329 567.627 322.776 567.627 323.667 566.735C324.559 565.844 324.559 564.398 323.667 563.506C322.775 562.614 321.329 562.614 320.438 563.506Z" fill="#FEB12B"/>
        <path opacity="0.8" d="M359.305 612.191C358.187 613.309 358.187 615.122 359.305 616.24C360.423 617.357 362.236 617.357 363.354 616.24C364.472 615.122 364.472 613.309 363.354 612.191C362.236 611.073 360.423 611.073 359.305 612.191Z" fill="#009BFF"/>
        <path opacity="0.8" d="M475.273 699.519C474.482 700.31 474.482 701.592 475.273 702.383C476.063 703.173 477.346 703.173 478.136 702.383C478.927 701.592 478.927 700.31 478.136 699.519C477.346 698.728 476.063 698.728 475.273 699.519Z" fill="#009BFF"/>
        <path opacity="0.8" d="M484.683 704.019C483.892 704.81 483.892 706.092 484.683 706.883C485.474 707.674 486.756 707.674 487.547 706.883C488.338 706.092 488.338 704.81 487.547 704.019C486.756 703.228 485.474 703.228 484.683 704.019Z" fill="#1DC4D7"/>
        <path opacity="0.8" d="M457.271 689.7C456.48 690.491 456.48 691.773 457.27 692.564C458.061 693.355 459.344 693.355 460.134 692.564C460.925 691.773 460.925 690.491 460.134 689.7C459.344 688.909 458.061 688.909 457.271 689.7Z" fill="#FA7548"/>
        <path opacity="0.8" d="M382.369 635.254C381.786 635.836 381.786 636.78 382.369 637.363C382.951 637.945 383.896 637.945 384.478 637.363C385.061 636.78 385.061 635.836 384.478 635.253C383.896 634.671 382.951 634.671 382.369 635.254Z" fill="#1DC4D7"/>
        <path opacity="0.8" d="M295.869 521.342C295.078 522.133 295.078 523.415 295.869 524.206C296.66 524.997 297.942 524.997 298.733 524.206C299.524 523.415 299.524 522.133 298.733 521.342C297.942 520.552 296.66 520.551 295.869 521.342Z" fill="#009BFF"/>
        <path opacity="0.8" d="M261.298 427.039C260.507 427.83 260.507 429.112 261.298 429.903C262.089 430.694 263.371 430.694 264.162 429.903C264.953 429.112 264.953 427.83 264.162 427.039C263.371 426.248 262.089 426.248 261.298 427.039Z" fill="#009BFF"/>
        <path opacity="0.8" d="M264.775 441.153C263.985 441.944 263.985 443.226 264.775 444.017C265.566 444.808 266.849 444.808 267.639 444.017C268.43 443.227 268.43 441.944 267.639 441.153C266.848 440.363 265.566 440.363 264.775 441.153Z" fill="#009BFF"/>
        <path opacity="0.8" d="M266.207 446.268C265.416 447.059 265.416 448.341 266.207 449.132C266.998 449.923 268.28 449.923 269.071 449.132C269.862 448.341 269.862 447.059 269.071 446.268C268.28 445.477 266.998 445.477 266.207 446.268Z" fill="#009BFF"/>
        <path opacity="0.8" d="M268.663 455.268C267.872 456.059 267.872 457.341 268.663 458.132C269.454 458.923 270.736 458.923 271.527 458.132C272.318 457.341 272.318 456.059 271.527 455.268C270.736 454.477 269.454 454.477 268.663 455.268Z" fill="#FA7548"/>
        <path opacity="0.8" d="M255.775 397.376C254.984 398.167 254.984 399.449 255.775 400.24C256.566 401.031 257.848 401.031 258.639 400.24C259.43 399.449 259.43 398.167 258.639 397.376C257.848 396.585 256.566 396.585 255.775 397.376Z" fill="#009BFF"/>
        <path opacity="0.8" d="M286.254 501.909C285.463 502.7 285.463 503.982 286.254 504.773C287.045 505.564 288.327 505.564 289.118 504.773C289.909 503.982 289.909 502.7 289.118 501.909C288.327 501.119 287.045 501.119 286.254 501.909Z" fill="#1DC4D7"/>
        <path opacity="0.8" d="M259.252 416.811C258.461 417.601 258.461 418.884 259.252 419.674C260.043 420.465 261.325 420.465 262.116 419.675C262.907 418.884 262.907 417.602 262.116 416.811C261.325 416.02 260.043 416.02 259.252 416.811Z" fill="#FEB12B"/>
        <path opacity="0.8" d="M274.595 471.43C274.256 471.769 274.256 472.318 274.595 472.657C274.933 472.996 275.483 472.996 275.822 472.657C276.161 472.318 276.161 471.769 275.822 471.43C275.483 471.091 274.933 471.091 274.595 471.43Z" fill="#009BFF"/>
        <path opacity="0.8" d="M252.705 365.261C252.366 365.6 252.366 366.15 252.705 366.489C253.044 366.827 253.593 366.828 253.932 366.489C254.271 366.15 254.271 365.6 253.932 365.261C253.593 364.922 253.044 364.922 252.705 365.261Z" fill="#009BFF"/>
        <path opacity="0.8" d="M252.297 359.123C251.959 359.462 251.959 360.012 252.298 360.351C252.636 360.689 253.186 360.689 253.525 360.351C253.864 360.012 253.864 359.462 253.525 359.123C253.186 358.784 252.636 358.784 252.297 359.123Z" fill="#009BFF"/>
        <path opacity="0.8" d="M252.093 325.37C251.754 325.709 251.754 326.258 252.093 326.597C252.432 326.936 252.981 326.936 253.32 326.598C253.659 326.259 253.659 325.709 253.32 325.37C252.981 325.031 252.431 325.031 252.093 325.37Z" fill="#009BFF"/>
        <path opacity="0.8" d="M292.801 515.002C292.462 515.341 292.462 515.89 292.801 516.229C293.14 516.568 293.689 516.568 294.028 516.229C294.367 515.89 294.367 515.341 294.028 515.002C293.689 514.663 293.139 514.663 292.801 515.002Z" fill="#009BFF"/>
        <path opacity="0.8" d="M510.253 714.861C509.462 715.652 509.462 716.934 510.253 717.725C511.044 718.516 512.326 718.516 513.117 717.725C513.908 716.935 513.908 715.652 513.117 714.861C512.326 714.071 511.044 714.071 510.253 714.861Z" fill="#009BFF"/>
        <path opacity="0.8" d="M689.006 740.6C687.969 741.637 687.969 743.318 689.006 744.356C690.043 745.393 691.725 745.393 692.762 744.356C693.799 743.318 693.799 741.637 692.762 740.6C691.725 739.562 690.043 739.562 689.006 740.6Z" fill="#6B00FF"/>
        <path opacity="0.8" d="M801.757 715.885C800.854 716.789 800.854 718.254 801.757 719.158C802.661 720.062 804.127 720.062 805.03 719.158C805.934 718.254 805.934 716.789 805.03 715.885C804.127 714.981 802.661 714.981 801.757 715.885Z" fill="#FEB12B"/>
        <path opacity="0.8" d="M722.466 736.828C721.493 737.801 721.493 739.379 722.466 740.352C723.439 741.325 725.017 741.325 725.99 740.352C726.964 739.379 726.964 737.801 725.99 736.828C725.017 735.855 723.439 735.855 722.466 736.828Z" fill="#DF425A"/>
        <path opacity="0.8" d="M859.24 689.087C858.449 689.877 858.45 691.16 859.24 691.95C860.031 692.741 861.313 692.741 862.104 691.95C862.895 691.16 862.895 689.877 862.104 689.087C861.313 688.296 860.031 688.296 859.24 689.087Z" fill="#009BFF"/>
        <path opacity="0.8" d="M868.241 683.768C867.45 684.559 867.45 685.841 868.241 686.632C869.032 687.423 870.314 687.423 871.105 686.632C871.896 685.841 871.896 684.559 871.105 683.768C870.314 682.977 869.032 682.977 868.241 683.768Z" fill="#1DC4D7"/>
        <path opacity="0.8" d="M841.034 698.701C840.243 699.492 840.243 700.774 841.034 701.565C841.825 702.356 843.107 702.356 843.898 701.565C844.688 700.774 844.688 699.492 843.898 698.701C843.107 697.911 841.825 697.91 841.034 698.701Z" fill="#FA7548"/>
        <path opacity="0.8" d="M810.145 712.816C809.354 713.607 809.354 714.889 810.145 715.68C810.936 716.471 812.218 716.471 813.009 715.68C813.8 714.889 813.8 713.607 813.009 712.816C812.218 712.025 810.936 712.025 810.145 712.816Z" fill="#009BFF"/>
        <path opacity="0.8" d="M753.685 730.818C752.894 731.609 752.894 732.891 753.685 733.682C754.475 734.473 755.758 734.473 756.549 733.682C757.339 732.891 757.339 731.609 756.549 730.818C755.758 730.027 754.475 730.027 753.685 730.818Z" fill="#1DC4D7"/>
      </g>
    </g>
  </g>
  <path opacity="0.1" d="M267.259 -43.2884C50.3691 173.601 50.3691 525.249 267.259 742.139C484.149 959.029 835.796 959.029 1052.69 742.139C1269.58 525.249 1269.58 173.601 1052.69 -43.2884C835.796 -260.178 484.149 -260.178 267.259 -43.2884Z" stroke="black" stroke-width="0.5" stroke-miterlimit="10"/>
  <g opacity="0.5">
    <path opacity="0.8" d="M103.039 376.948C103.298 378.172 104.501 378.955 105.725 378.696C106.949 378.437 107.732 377.235 107.473 376.011C107.215 374.786 106.012 374.003 104.788 374.262C103.563 374.521 102.781 375.723 103.039 376.948Z" fill="#FA7548"/>
    <path opacity="0.8" d="M102.972 325.492C103.23 326.716 104.433 327.499 105.658 327.24C106.882 326.981 107.665 325.779 107.406 324.554C107.147 323.33 105.945 322.547 104.72 322.806C103.496 323.065 102.713 324.267 102.972 325.492Z" fill="#FA7548"/>
    <path opacity="0.8" d="M121.666 205.733C121.925 206.958 123.127 207.741 124.352 207.482C125.576 207.223 126.359 206.021 126.1 204.796C125.842 203.572 124.639 202.789 123.415 203.048C122.19 203.307 121.407 204.509 121.666 205.733Z" fill="#009BFF"/>
    <path opacity="0.8" d="M129.62 178.833C129.879 180.057 131.082 180.84 132.306 180.581C133.531 180.322 134.313 179.12 134.055 177.895C133.796 176.671 132.593 175.888 131.369 176.147C130.144 176.406 129.362 177.608 129.62 178.833Z" fill="#FA7548"/>
    <path opacity="0.8" d="M145.744 135.793C146.003 137.017 147.205 137.8 148.43 137.541C149.654 137.282 150.437 136.08 150.179 134.855C149.92 133.631 148.717 132.848 147.493 133.107C146.268 133.366 145.485 134.568 145.744 135.793Z" fill="#009BFF"/>
    <path opacity="0.8" d="M110.464 256.226C110.723 257.451 111.925 258.233 113.15 257.975C114.374 257.716 115.157 256.513 114.898 255.289C114.639 254.064 113.437 253.282 112.213 253.54C110.988 253.799 110.205 255.002 110.464 256.226Z" fill="#009BFF"/>
    <path opacity="0.8" d="M608.459 901.656C608.804 903.289 610.407 904.333 612.04 903.988C613.672 903.643 614.716 902.039 614.371 900.407C614.026 898.774 612.423 897.73 610.79 898.075C609.157 898.421 608.114 900.024 608.459 901.656Z" fill="#009BFF"/>
    <path opacity="0.8" d="M193.321 654.332C193.551 655.42 194.62 656.116 195.708 655.886C196.796 655.656 197.492 654.587 197.262 653.499C197.032 652.41 195.963 651.714 194.875 651.944C193.787 652.174 193.091 653.243 193.321 654.332Z" fill="#009BFF"/>
    <path opacity="0.8" d="M271.928 748.634C272.13 749.587 273.065 750.196 274.017 749.995C274.97 749.793 275.578 748.858 275.377 747.906C275.176 746.953 274.241 746.344 273.288 746.546C272.336 746.747 271.727 747.682 271.928 748.634Z" fill="#FEB12B"/>
    <path opacity="0.8" d="M434.008 857.978C434.324 859.474 435.793 860.431 437.29 860.115C438.787 859.798 439.744 858.329 439.427 856.832C439.111 855.336 437.641 854.379 436.145 854.695C434.648 855.012 433.691 856.481 434.008 857.978Z" fill="#FEB12B"/>
    <path opacity="0.8" d="M515.596 886.028C515.855 887.252 517.058 888.035 518.282 887.776C519.507 887.518 520.289 886.315 520.031 885.091C519.772 883.866 518.569 883.083 517.345 883.342C516.12 883.601 515.338 884.803 515.596 886.028Z" fill="#009BFF"/>
    <path opacity="0.8" d="M529.216 889.583C529.474 890.807 530.677 891.59 531.901 891.331C533.126 891.073 533.909 889.87 533.65 888.646C533.391 887.421 532.189 886.638 530.964 886.897C529.74 887.156 528.957 888.358 529.216 889.583Z" fill="#1DC4D7"/>
    <path opacity="0.8" d="M488.747 878.32C489.006 879.545 490.209 880.328 491.433 880.069C492.658 879.81 493.44 878.608 493.181 877.383C492.923 876.159 491.72 875.376 490.496 875.635C489.272 875.893 488.489 877.096 488.747 878.32Z" fill="#FA7548"/>
    <path opacity="0.8" d="M445.513 862.495C445.772 863.719 446.975 864.502 448.199 864.243C449.424 863.984 450.206 862.782 449.948 861.557C449.689 860.333 448.486 859.55 447.262 859.809C446.037 860.068 445.255 861.27 445.513 862.495Z" fill="#009BFF"/>
    <path opacity="0.8" d="M409.632 846.146C409.891 847.371 411.094 848.153 412.318 847.895C413.543 847.636 414.326 846.433 414.067 845.209C413.808 843.984 412.605 843.202 411.381 843.46C410.156 843.719 409.374 844.922 409.632 846.146Z" fill="#DF425A"/>
    <path opacity="0.8" d="M373.268 826.295C373.527 827.519 374.729 828.302 375.954 828.043C377.178 827.785 377.961 826.582 377.702 825.358C377.443 824.133 376.241 823.35 375.016 823.609C373.792 823.868 373.009 825.07 373.268 826.295Z" fill="#1DC4D7"/>
    <path opacity="0.8" d="M226.307 699.602C226.566 700.826 227.769 701.609 228.993 701.35C230.218 701.091 231.001 699.889 230.742 698.664C230.483 697.44 229.281 696.657 228.056 696.916C226.832 697.175 226.049 698.377 226.307 699.602Z" fill="#009BFF"/>
    <path opacity="0.8" d="M153.881 583.404C154.14 584.628 155.342 585.411 156.567 585.152C157.791 584.894 158.574 583.691 158.315 582.467C158.056 581.242 156.854 580.459 155.63 580.718C154.405 580.977 153.622 582.179 153.881 583.404Z" fill="#009BFF"/>
    <path opacity="0.8" d="M138.212 545.797C138.471 547.022 139.674 547.805 140.898 547.546C142.122 547.287 142.905 546.085 142.646 544.86C142.388 543.636 141.185 542.853 139.961 543.112C138.736 543.37 137.954 544.573 138.212 545.797Z" fill="#009BFF"/>
    <path opacity="0.8" d="M208.225 676.144C208.484 677.368 209.686 678.151 210.911 677.892C212.135 677.633 212.918 676.431 212.659 675.206C212.4 673.982 211.198 673.199 209.973 673.458C208.749 673.717 207.966 674.919 208.225 676.144Z" fill="#1DC4D7"/>
    <path opacity="0.8" d="M148.062 570.479C148.321 571.703 149.523 572.486 150.748 572.227C151.972 571.969 152.755 570.766 152.496 569.542C152.237 568.317 151.035 567.534 149.81 567.793C148.586 568.052 147.803 569.254 148.062 570.479Z" fill="#FEB12B"/>
    <path opacity="0.8" d="M184.153 637.74C184.268 638.284 184.802 638.632 185.346 638.517C185.89 638.402 186.238 637.868 186.123 637.324C186.008 636.78 185.474 636.432 184.93 636.547C184.386 636.662 184.038 637.196 184.153 637.74Z" fill="#009BFF"/>
    <path opacity="0.8" d="M125.25 502.729C125.365 503.273 125.899 503.621 126.443 503.506C126.987 503.391 127.335 502.857 127.22 502.313C127.105 501.769 126.571 501.421 126.027 501.536C125.483 501.651 125.135 502.185 125.25 502.729Z" fill="#009BFF"/>
    <path opacity="0.8" d="M122.741 494.509C122.856 495.053 123.39 495.401 123.934 495.286C124.478 495.171 124.826 494.636 124.711 494.092C124.596 493.548 124.062 493.201 123.518 493.316C122.974 493.431 122.626 493.965 122.741 494.509Z" fill="#009BFF"/>
    <path opacity="0.8" d="M112.772 449.778C112.886 450.322 113.421 450.67 113.965 450.555C114.509 450.44 114.856 449.906 114.741 449.362C114.626 448.817 114.092 448.47 113.548 448.585C113.004 448.7 112.657 449.234 112.772 449.778Z" fill="#009BFF"/>
    <path opacity="0.8" d="M220.582 690.775C220.697 691.319 221.232 691.666 221.776 691.551C222.32 691.436 222.668 690.902 222.553 690.358C222.438 689.814 221.904 689.466 221.359 689.581C220.815 689.696 220.467 690.231 220.582 690.775Z" fill="#009BFF"/>
    <path opacity="0.8" d="M566.53 896.879C566.789 898.103 567.991 898.886 569.216 898.627C570.44 898.368 571.223 897.166 570.964 895.941C570.705 894.717 569.503 893.934 568.279 894.193C567.054 894.452 566.271 895.654 566.53 896.879Z" fill="#009BFF"/>
  </g>
</svg>
