<svg width="1021" height="1010" viewBox="0 0 1021 1010" fill="none"
  xmlns="http://www.w3.org/2000/svg">
  <g opacity="0.25">
    <path d="M510.555 725.113C640.342 725.113 745.555 619.9 745.555 490.113C745.555 360.326 640.342 255.113 510.555 255.113C380.768 255.113 275.555 360.326 275.555 490.113C275.555 619.9 380.768 725.113 510.555 725.113Z" fill="#C3E7FF"/>
    <path d="M423.352 542.753V439.46L501.602 469.066V573.017L423.352 542.753Z" fill="white"/>
    <path fill-rule="evenodd" clip-rule="evenodd" d="M512.876 386.168L606.378 417.748C613.01 418.406 614.336 423.67 614.999 426.301V549.332C614.999 552.621 612.347 555.911 609.031 557.227L513.539 594.07C512.876 594.728 509.56 594.728 507.571 594.07L412.079 557.227C408.1 555.911 406.11 552.621 406.11 549.332V426.301C406.11 426.301 406.11 420.38 413.405 417.748L506.908 386.168C508.897 385.51 510.886 385.51 512.876 386.168ZM580.516 426.959L510.223 403.274L439.93 426.959L510.223 453.934L580.516 426.959ZM519.507 573.017L597.094 542.753H597.758V439.46L519.507 469.724V573.017ZM423.352 439.46V542.753L501.602 573.017V469.066L423.352 439.46Z" fill="#009BFF"/>
  </g>
  <path opacity="0.1" d="M506.783 186.631C331.828 186.631 189.999 328.46 189.999 503.415C189.999 678.37 331.828 820.199 506.783 820.199C681.738 820.199 823.567 678.37 823.567 503.415C823.567 328.46 681.738 186.631 506.783 186.631Z" stroke="black" stroke-width="0.5" stroke-miterlimit="10"/>
  <g opacity="0.75">
    <path opacity="0.8" d="M404.264 202.693C403.89 202.693 403.588 202.996 403.588 203.369C403.588 203.743 403.89 204.046 404.264 204.046C404.638 204.046 404.94 203.743 404.94 203.369C404.94 202.996 404.638 202.693 404.264 202.693Z" fill="#009BFF"/>
    <g opacity="0.8">
      <g opacity="0.8">
        <path opacity="0.8" d="M264.023 708.413C262.906 708.413 262 707.508 262 706.39C262 705.273 262.906 704.368 264.023 704.368C265.14 704.368 266.046 705.273 266.046 706.39C266.046 707.508 265.14 708.413 264.023 708.413Z" fill="#009BFF"/>
        <path opacity="0.8" d="M641.909 214.259C640.7 214.259 639.721 215.238 639.721 216.447C639.721 217.655 640.7 218.635 641.909 218.635C643.118 218.635 644.097 217.655 644.097 216.447C644.097 215.238 643.118 214.259 641.909 214.259Z" fill="#1DC4D7"/>
        <path opacity="0.8" d="M820.492 548.538C819.243 548.538 818.23 549.551 818.23 550.8C818.23 552.05 819.243 553.063 820.492 553.063C821.742 553.063 822.755 552.05 822.755 550.8C822.755 549.551 821.742 548.538 820.492 548.538Z" fill="#FA7548"/>
        <path opacity="0.8" d="M216.9 373.599C215.53 373.599 214.42 374.709 214.42 376.079C214.42 377.448 215.53 378.559 216.9 378.559C218.27 378.559 219.38 377.448 219.38 376.079C219.38 374.709 218.27 373.599 216.9 373.599Z" fill="#009BFF"/>
        <path opacity="0.8" d="M195.93 441.263C194.947 441.263 194.15 442.06 194.15 443.043C194.15 444.026 194.947 444.823 195.93 444.823C196.913 444.823 197.71 444.026 197.71 443.043C197.71 442.06 196.913 441.263 195.93 441.263Z" fill="#FEB12B"/>
        <path opacity="0.8" d="M190.519 489.513C189.287 489.513 188.288 490.512 188.288 491.744C188.288 492.976 189.287 493.975 190.519 493.975C191.752 493.975 192.75 492.976 192.75 491.744C192.75 490.512 191.752 489.513 190.519 489.513Z" fill="#009BFF"/>
        <path opacity="0.8" d="M206.303 601.548C205.431 601.548 204.725 602.254 204.725 603.126C204.725 603.997 205.431 604.704 206.303 604.704C207.175 604.704 207.881 603.997 207.881 603.126C207.881 602.254 207.175 601.548 206.303 601.548Z" fill="#009BFF"/>
        <path opacity="0.8" d="M209.009 609.213C208.138 609.213 207.431 609.92 207.431 610.792C207.431 611.663 208.138 612.37 209.009 612.37C209.881 612.37 210.588 611.663 210.588 610.792C210.588 609.92 209.881 609.213 209.009 609.213Z" fill="#1DC4D7"/>
        <path opacity="0.8" d="M201.793 586.215C200.921 586.215 200.214 586.922 200.214 587.793C200.214 588.665 200.921 589.372 201.793 589.372C202.664 589.372 203.371 588.665 203.371 587.793C203.371 586.922 202.664 586.215 201.793 586.215Z" fill="#FA7548"/>
        <path opacity="0.8" d="M692.64 758.474C691.769 758.474 691.062 759.181 691.062 760.052C691.062 760.924 691.769 761.63 692.64 761.63C693.512 761.63 694.219 760.924 694.219 760.052C694.219 759.181 693.512 758.474 692.64 758.474Z" fill="#FA7548"/>
        <path opacity="0.8" d="M667.838 774.707C666.966 774.707 666.259 775.414 666.259 776.286C666.259 777.157 666.966 777.864 667.838 777.864C668.709 777.864 669.416 777.157 669.416 776.286C669.416 775.414 668.709 774.707 667.838 774.707Z" fill="#FA7548"/>
        <path opacity="0.8" d="M190.519 514.932C189.877 514.932 189.357 515.453 189.357 516.095C189.357 516.736 189.877 517.257 190.519 517.257C191.161 517.257 191.682 516.736 191.682 516.095C191.682 515.453 191.161 514.932 190.519 514.932Z" fill="#1DC4D7"/>
        <path opacity="0.8" d="M205.627 404.488C204.755 404.488 204.049 405.194 204.049 406.066C204.049 406.938 204.755 407.644 205.627 407.644C206.499 407.644 207.205 406.938 207.205 406.066C207.205 405.194 206.499 404.488 205.627 404.488Z" fill="#009BFF"/>
        <path opacity="0.8" d="M238.544 333.465C237.673 333.465 236.966 334.172 236.966 335.043C236.966 335.915 237.673 336.622 238.544 336.622C239.416 336.622 240.123 335.915 240.123 335.043C240.123 334.172 239.416 333.465 238.544 333.465Z" fill="#009BFF"/>
        <path opacity="0.8" d="M232.683 343.16C231.811 343.16 231.104 343.866 231.104 344.738C231.104 345.61 231.811 346.316 232.683 346.316C233.554 346.316 234.261 345.61 234.261 344.738C234.261 343.866 233.554 343.16 232.683 343.16Z" fill="#009BFF"/>
        <path opacity="0.8" d="M230.653 346.767C229.782 346.767 229.075 347.474 229.075 348.346C229.075 349.217 229.782 349.924 230.653 349.924C231.525 349.924 232.232 349.217 232.232 348.346C232.232 347.474 231.525 346.767 230.653 346.767Z" fill="#009BFF"/>
        <path opacity="0.8" d="M227.046 353.081C226.174 353.081 225.468 353.787 225.468 354.659C225.468 355.531 226.174 356.237 227.046 356.237C227.918 356.237 228.624 355.531 228.624 354.659C228.624 353.787 227.918 353.081 227.046 353.081Z" fill="#FA7548"/>
        <path opacity="0.8" d="M251.848 314.074C250.977 314.074 250.27 314.781 250.27 315.653C250.27 316.524 250.977 317.231 251.848 317.231C252.72 317.231 253.427 316.524 253.427 315.653C253.427 314.781 252.72 314.074 251.848 314.074Z" fill="#009BFF"/>
        <path opacity="0.8" d="M211.037 388.479C210.165 388.479 209.459 389.185 209.459 390.057C209.459 390.929 210.165 391.635 211.037 391.635C211.909 391.635 212.615 390.929 212.615 390.057C212.615 389.185 211.909 388.479 211.037 388.479Z" fill="#1DC4D7"/>
        <path opacity="0.8" d="M243.053 326.701C242.182 326.701 241.475 327.408 241.475 328.279C241.475 329.151 242.182 329.858 243.053 329.858C243.925 329.858 244.632 329.151 244.632 328.279C244.632 327.408 243.925 326.701 243.053 326.701Z" fill="#FEB12B"/>
        <path opacity="0.8" d="M221.408 365.256C221.035 365.256 220.732 365.559 220.732 365.932C220.732 366.306 221.035 366.609 221.408 366.609C221.782 366.609 222.085 366.306 222.085 365.932C222.085 365.559 221.782 365.256 221.408 365.256Z" fill="#009BFF"/>
        <path opacity="0.8" d="M267.855 294.685C267.482 294.685 267.179 294.987 267.179 295.361C267.179 295.735 267.482 296.037 267.855 296.037C268.229 296.037 268.532 295.735 268.532 295.361C268.532 294.987 268.229 294.685 267.855 294.685Z" fill="#009BFF"/>
        <path opacity="0.8" d="M271.012 291.077C270.639 291.077 270.336 291.38 270.336 291.753C270.336 292.127 270.639 292.43 271.012 292.43C271.386 292.43 271.689 292.127 271.689 291.753C271.689 291.38 271.386 291.077 271.012 291.077Z" fill="#009BFF"/>
        <path opacity="0.8" d="M289.501 272.363C289.127 272.363 288.825 272.666 288.825 273.04C288.825 273.413 289.127 273.716 289.501 273.716C289.874 273.716 290.177 273.413 290.177 273.04C290.177 272.666 289.874 272.363 289.501 272.363Z" fill="#009BFF"/>
        <path opacity="0.8" d="M207.43 399.301C207.057 399.301 206.754 399.604 206.754 399.978C206.754 400.351 207.057 400.654 207.43 400.654C207.804 400.654 208.106 400.351 208.106 399.978C208.106 399.604 207.804 399.301 207.43 399.301Z" fill="#009BFF"/>
        <path opacity="0.8" d="M217.126 629.28C216.254 629.28 215.548 629.987 215.548 630.859C215.548 631.73 216.254 632.437 217.126 632.437C217.997 632.437 218.704 631.73 218.704 630.859C218.704 629.987 217.997 629.28 217.126 629.28Z" fill="#009BFF"/>
        <path opacity="0.8" d="M467.169 813.939C465.177 813.939 463.562 815.555 463.562 817.547C463.562 819.539 465.177 821.154 467.169 821.154C469.162 821.154 470.777 819.539 470.777 817.547C470.777 815.555 469.162 813.939 467.169 813.939Z" fill="#FEB12B"/>
        <path opacity="0.8" d="M493.099 815.969C491.106 815.969 489.491 817.584 489.491 819.576C489.491 821.568 491.106 823.184 493.099 823.184C495.091 823.184 496.706 821.568 496.706 819.576C496.706 817.584 495.091 815.969 493.099 815.969Z" fill="#009BFF"/>
        <path opacity="0.8" d="M589.149 807.626C588.278 807.626 587.571 808.332 587.571 809.204C587.571 810.076 588.278 810.782 589.149 810.782C590.021 810.782 590.728 810.076 590.728 809.204C590.728 808.332 590.021 807.626 589.149 807.626Z" fill="#FA7548"/>
        <path opacity="0.8" d="M563.446 813.488C562.574 813.488 561.867 814.195 561.867 815.067C561.867 815.938 562.574 816.645 563.446 816.645C564.317 816.645 565.024 815.938 565.024 815.067C565.024 814.195 564.317 813.488 563.446 813.488Z" fill="#009BFF"/>
        <path opacity="0.8" d="M301.451 741.974C300.308 741.974 299.381 742.901 299.381 744.044C299.381 745.187 300.308 746.114 301.451 746.114C302.594 746.114 303.521 745.187 303.521 744.044C303.521 742.901 302.594 741.974 301.451 741.974Z" fill="#6B00FF"/>
        <path opacity="0.8" d="M377.207 790.491C376.211 790.491 375.404 791.298 375.404 792.294C375.404 793.291 376.211 794.098 377.207 794.098C378.204 794.098 379.011 793.291 379.011 792.294C379.011 791.298 378.204 790.491 377.207 790.491Z" fill="#FEB12B"/>
        <path opacity="0.8" d="M321.968 758.335C320.896 758.335 320.026 759.205 320.026 760.277C320.026 761.35 320.896 762.22 321.968 762.22C323.041 762.22 323.911 761.35 323.911 760.277C323.911 759.205 323.041 758.335 321.968 758.335Z" fill="#DF425A"/>
        <path opacity="0.8" d="M423.655 807.401C422.783 807.401 422.076 808.108 422.076 808.979C422.076 809.851 422.783 810.558 423.655 810.558C424.526 810.558 425.233 809.851 425.233 808.979C425.233 808.108 424.526 807.401 423.655 807.401Z" fill="#009BFF"/>
        <path opacity="0.8" d="M431.545 809.43C430.674 809.43 429.967 810.137 429.967 811.009C429.967 811.88 430.674 812.587 431.545 812.587C432.417 812.587 433.124 811.88 433.124 811.009C433.124 810.137 432.417 809.43 431.545 809.43Z" fill="#1DC4D7"/>
        <path opacity="0.8" d="M408.321 802.666C407.45 802.666 406.743 803.372 406.743 804.244C406.743 805.116 407.45 805.822 408.321 805.822C409.193 805.822 409.9 805.116 409.9 804.244C409.9 803.372 409.193 802.666 408.321 802.666Z" fill="#FA7548"/>
        <path opacity="0.8" d="M383.522 793.422C382.65 793.422 381.943 794.129 381.943 795C381.943 795.872 382.65 796.579 383.522 796.579C384.393 796.579 385.1 795.872 385.1 795C385.1 794.129 384.393 793.422 383.522 793.422Z" fill="#009BFF"/>
        <path opacity="0.8" d="M342.485 772.228C341.613 772.228 340.907 772.934 340.907 773.806C340.907 774.678 341.613 775.384 342.485 775.384C343.357 775.384 344.063 774.678 344.063 773.806C344.063 772.934 343.357 772.228 342.485 772.228Z" fill="#1DC4D7"/>
        <path opacity="0.8" d="M452.739 813.714C451.867 813.714 451.161 814.42 451.161 815.292C451.161 816.164 451.867 816.87 452.739 816.87C453.611 816.87 454.317 816.164 454.317 815.292C454.317 814.42 453.611 813.714 452.739 813.714Z" fill="#009BFF"/>
      </g>
    </g>
  </g>
  <path opacity="0.1" d="M512.796 82.7971C274.669 82.7971 81.6293 275.837 81.6292 513.964C81.6292 752.091 274.669 945.131 512.796 945.131C750.923 945.131 943.963 752.091 943.963 513.964C943.963 275.837 750.923 82.7972 512.796 82.7971Z" stroke="black" stroke-width="0.50165" stroke-miterlimit="10"/>
  <g opacity="0.5">
    <path opacity="0.8" d="M870.961 277.708C871.186 278.769 872.227 279.447 873.287 279.223C874.348 278.998 875.025 277.957 874.801 276.897C874.577 275.837 873.536 275.159 872.476 275.383C871.415 275.607 870.737 276.648 870.961 277.708Z" fill="#009BFF"/>
    <path opacity="0.8" d="M79.7427 534.995C79.9444 535.949 80.8815 536.559 81.8358 536.358C82.7901 536.156 83.4002 535.219 83.1985 534.264C82.9968 533.31 82.0597 532.7 81.1054 532.902C80.1511 533.103 79.541 534.041 79.7427 534.995Z" fill="#FA7548"/>
    <path opacity="0.8" d="M79.6907 494.892C79.8924 495.846 80.8296 496.456 81.7839 496.255C82.7383 496.053 83.3484 495.116 83.1467 494.161C82.945 493.207 82.0079 492.597 81.0535 492.799C80.0992 493 79.489 493.938 79.6907 494.892Z" fill="#FA7548"/>
    <path opacity="0.8" d="M845.486 242.577C845.687 243.531 846.624 244.141 847.579 243.94C848.533 243.738 849.143 242.801 848.941 241.847C848.74 240.892 847.803 240.282 846.848 240.484C845.894 240.686 845.284 241.623 845.486 242.577Z" fill="#009BFF"/>
    <path opacity="0.8" d="M901.699 332.986C901.901 333.94 902.838 334.55 903.792 334.348C904.746 334.147 905.356 333.209 905.155 332.255C904.953 331.301 904.016 330.691 903.062 330.892C902.107 331.094 901.497 332.031 901.699 332.986Z" fill="#009BFF"/>
    <path opacity="0.8" d="M914.143 362.446C914.344 363.401 915.282 364.011 916.236 363.809C917.19 363.607 917.8 362.67 917.599 361.716C917.397 360.761 916.46 360.151 915.505 360.353C914.551 360.555 913.941 361.492 914.143 362.446Z" fill="#009BFF"/>
    <path opacity="0.8" d="M859.345 260.707C859.547 261.661 860.484 262.271 861.439 262.07C862.393 261.868 863.003 260.931 862.801 259.977C862.6 259.022 861.662 258.412 860.708 258.614C859.754 258.816 859.144 259.753 859.345 260.707Z" fill="#1DC4D7"/>
    <path opacity="0.8" d="M906.235 343.058C906.437 344.012 907.374 344.622 908.328 344.421C909.282 344.219 909.893 343.282 909.691 342.328C909.489 341.373 908.552 340.763 907.598 340.965C906.643 341.167 906.033 342.104 906.235 343.058Z" fill="#FEB12B"/>
    <path opacity="0.8" d="M926.126 395.414C926.215 395.838 926.632 396.109 927.056 396.019C927.48 395.93 927.751 395.513 927.661 395.089C927.572 394.665 927.155 394.394 926.731 394.484C926.307 394.574 926.036 394.99 926.126 395.414Z" fill="#009BFF"/>
    <path opacity="0.8" d="M927.89 401.861C927.98 402.285 928.396 402.556 928.82 402.467C929.244 402.377 929.515 401.961 929.425 401.537C929.336 401.113 928.919 400.842 928.495 400.931C928.071 401.021 927.8 401.437 927.89 401.861Z" fill="#009BFF"/>
    <path opacity="0.8" d="M935.66 436.723C935.749 437.147 936.166 437.418 936.59 437.329C937.014 437.239 937.285 436.823 937.195 436.399C937.105 435.975 936.689 435.704 936.265 435.793C935.841 435.883 935.57 436.299 935.66 436.723Z" fill="#009BFF"/>
    <path opacity="0.8" d="M851.675 249.091C851.765 249.515 852.181 249.786 852.605 249.696C853.029 249.606 853.3 249.19 853.211 248.766C853.121 248.342 852.705 248.071 852.281 248.161C851.857 248.25 851.586 248.667 851.675 249.091Z" fill="#009BFF"/>
    <path opacity="0.8" d="M580.136 88.8662C580.338 89.8205 581.275 90.4306 582.229 90.2289C583.184 90.0272 583.794 89.0901 583.592 88.1358C583.39 87.1815 582.453 86.5714 581.499 86.7731C580.545 86.9748 579.934 87.9119 580.136 88.8662Z" fill="#009BFF"/>
    <path opacity="0.8" d="M94.2597 401.557C94.4614 402.511 95.3985 403.121 96.3528 402.92C97.3071 402.718 97.9173 401.781 97.7156 400.826C97.5139 399.872 96.5767 399.262 95.6224 399.464C94.6681 399.665 94.058 400.603 94.2597 401.557Z" fill="#009BFF"/>
    <path opacity="0.8" d="M100.46 380.592C100.661 381.546 101.599 382.156 102.553 381.954C103.507 381.753 104.117 380.815 103.916 379.861C103.714 378.907 102.777 378.297 101.822 378.498C100.868 378.7 100.258 379.637 100.46 380.592Z" fill="#FA7548"/>
    <path opacity="0.8" d="M113.025 347.047C113.227 348.001 114.164 348.611 115.119 348.41C116.073 348.208 116.683 347.271 116.481 346.316C116.28 345.362 115.343 344.752 114.388 344.954C113.434 345.156 112.824 346.093 113.025 347.047Z" fill="#009BFF"/>
    <path opacity="0.8" d="M85.53 440.909C85.7317 441.863 86.6688 442.473 87.6231 442.271C88.5774 442.07 89.1875 441.133 88.9858 440.178C88.7841 439.224 87.8469 438.614 86.8926 438.815C85.9383 439.017 85.3283 439.954 85.53 440.909Z" fill="#009BFF"/>
    <path opacity="0.8" d="M387.949 101.006C388.196 102.172 389.341 102.918 390.508 102.671C391.674 102.425 392.42 101.279 392.173 100.113C391.927 98.9465 390.781 98.2008 389.615 98.4473C388.449 98.6938 387.703 99.8392 387.949 101.006Z" fill="#6B00FF"/>
    <path opacity="0.8" d="M417.808 93.2907C418.144 94.8812 419.706 95.8981 421.297 95.5619C422.887 95.2258 423.904 93.6639 423.568 92.0734C423.232 90.4828 421.67 89.466 420.079 89.8022C418.489 90.1383 417.472 91.7002 417.808 93.2907Z" fill="#FEB12B"/>
    <path opacity="0.8" d="M355.011 112.18C355.191 113.028 356.024 113.57 356.872 113.391C357.72 113.212 358.263 112.379 358.083 111.53C357.904 110.682 357.071 110.14 356.223 110.319C355.375 110.498 354.832 111.331 355.011 112.18Z" fill="#DF425A"/>
    <path opacity="0.8" d="M324.136 125.525C324.338 126.479 325.275 127.089 326.229 126.887C327.183 126.686 327.793 125.748 327.592 124.794C327.39 123.84 326.453 123.23 325.499 123.431C324.544 123.633 323.934 124.57 324.136 125.525Z" fill="#1DC4D7"/>
    <path opacity="0.8" d="M473.65 943.935C473.919 945.208 475.168 946.021 476.441 945.752C477.713 945.483 478.526 944.234 478.257 942.961C477.989 941.689 476.739 940.875 475.467 941.144C474.194 941.413 473.381 942.663 473.65 943.935Z" fill="#009BFF"/>
    <path opacity="0.8" d="M150.106 751.179C150.285 752.027 151.118 752.57 151.966 752.39C152.814 752.211 153.357 751.378 153.177 750.53C152.998 749.681 152.165 749.139 151.317 749.318C150.469 749.498 149.926 750.331 150.106 751.179Z" fill="#009BFF"/>
    <path opacity="0.8" d="M211.369 824.675C211.526 825.418 212.255 825.892 212.997 825.735C213.739 825.578 214.214 824.85 214.057 824.107C213.9 823.365 213.171 822.89 212.429 823.047C211.687 823.204 211.212 823.933 211.369 824.675Z" fill="#FEB12B"/>
    <path opacity="0.8" d="M337.688 909.893C337.934 911.059 339.08 911.805 340.246 911.558C341.412 911.312 342.158 910.167 341.912 909C341.665 907.834 340.52 907.088 339.353 907.335C338.187 907.581 337.441 908.727 337.688 909.893Z" fill="#FEB12B"/>
    <path opacity="0.8" d="M401.275 931.754C401.477 932.708 402.414 933.319 403.368 933.117C404.322 932.915 404.932 931.978 404.731 931.024C404.529 930.069 403.592 929.459 402.638 929.661C401.683 929.863 401.073 930.8 401.275 931.754Z" fill="#009BFF"/>
    <path opacity="0.8" d="M411.889 934.526C412.091 935.48 413.028 936.09 413.982 935.888C414.937 935.687 415.547 934.749 415.345 933.795C415.143 932.841 414.206 932.231 413.252 932.432C412.297 932.634 411.687 933.571 411.889 934.526Z" fill="#1DC4D7"/>
    <path opacity="0.8" d="M380.351 925.748C380.553 926.702 381.49 927.312 382.444 927.11C383.398 926.909 384.008 925.971 383.807 925.017C383.605 924.063 382.668 923.453 381.714 923.654C380.759 923.856 380.149 924.793 380.351 925.748Z" fill="#FA7548"/>
    <path opacity="0.8" d="M941.325 493.891C941.527 494.845 942.464 495.455 943.418 495.254C944.372 495.052 944.982 494.115 944.781 493.161C944.579 492.206 943.642 491.596 942.688 491.798C941.733 492 941.123 492.937 941.325 493.891Z" fill="#FA7548"/>
    <path opacity="0.8" d="M941.416 534.185C941.618 535.139 942.555 535.749 943.509 535.548C944.464 535.346 945.074 534.409 944.872 533.455C944.67 532.5 943.733 531.89 942.779 532.092C941.825 532.294 941.214 533.231 941.416 534.185Z" fill="#FA7548"/>
    <path opacity="0.8" d="M346.655 913.413C346.857 914.368 347.794 914.978 348.749 914.776C349.703 914.574 350.313 913.637 350.111 912.683C349.91 911.728 348.972 911.118 348.018 911.32C347.064 911.522 346.454 912.459 346.655 913.413Z" fill="#009BFF"/>
    <path opacity="0.8" d="M318.691 900.672C318.893 901.626 319.83 902.236 320.784 902.034C321.739 901.833 322.349 900.896 322.147 899.941C321.945 898.987 321.008 898.377 320.054 898.578C319.099 898.78 318.489 899.717 318.691 900.672Z" fill="#DF425A"/>
    <path opacity="0.8" d="M290.349 885.201C290.551 886.155 291.488 886.765 292.442 886.563C293.397 886.362 294.007 885.425 293.805 884.47C293.603 883.516 292.666 882.906 291.712 883.108C290.758 883.309 290.148 884.246 290.349 885.201Z" fill="#1DC4D7"/>
    <path opacity="0.8" d="M175.814 786.46C176.016 787.415 176.953 788.025 177.908 787.823C178.862 787.621 179.472 786.684 179.27 785.73C179.069 784.776 178.132 784.166 177.177 784.367C176.223 784.569 175.613 785.506 175.814 786.46Z" fill="#009BFF"/>
    <path opacity="0.8" d="M119.367 695.9C119.569 696.854 120.506 697.464 121.46 697.262C122.414 697.061 123.024 696.124 122.823 695.169C122.621 694.215 121.684 693.605 120.73 693.806C119.775 694.008 119.165 694.945 119.367 695.9Z" fill="#009BFF"/>
    <path opacity="0.8" d="M107.156 666.591C107.358 667.546 108.295 668.156 109.249 667.954C110.203 667.752 110.814 666.815 110.612 665.861C110.41 664.906 109.473 664.296 108.519 664.498C107.564 664.7 106.954 665.637 107.156 666.591Z" fill="#009BFF"/>
    <path opacity="0.8" d="M161.721 768.178C161.922 769.132 162.86 769.742 163.814 769.541C164.768 769.339 165.378 768.402 165.176 767.448C164.975 766.493 164.038 765.883 163.083 766.085C162.129 766.287 161.519 767.224 161.721 768.178Z" fill="#1DC4D7"/>
    <path opacity="0.8" d="M114.831 685.827C115.033 686.781 115.97 687.391 116.924 687.19C117.878 686.988 118.488 686.051 118.287 685.097C118.085 684.142 117.148 683.532 116.194 683.734C115.239 683.936 114.629 684.873 114.831 685.827Z" fill="#FEB12B"/>
    <path opacity="0.8" d="M142.96 738.248C143.05 738.672 143.466 738.943 143.89 738.853C144.314 738.764 144.585 738.347 144.495 737.923C144.406 737.499 143.989 737.228 143.565 737.318C143.141 737.407 142.87 737.824 142.96 738.248Z" fill="#009BFF"/>
    <path opacity="0.8" d="M97.0538 633.024C97.1434 633.448 97.5597 633.72 97.9836 633.63C98.4076 633.54 98.6786 633.124 98.589 632.7C98.4994 632.276 98.083 632.005 97.6591 632.095C97.2351 632.184 96.9641 632.6 97.0538 633.024Z" fill="#009BFF"/>
    <path opacity="0.8" d="M95.0975 626.618C95.1871 627.042 95.6035 627.313 96.0275 627.224C96.4515 627.134 96.7226 626.718 96.633 626.294C96.5433 625.87 96.127 625.599 95.703 625.688C95.279 625.778 95.0079 626.194 95.0975 626.618Z" fill="#009BFF"/>
    <path opacity="0.8" d="M87.3267 591.757C87.4163 592.181 87.8326 592.452 88.2566 592.362C88.6805 592.273 88.9516 591.856 88.862 591.432C88.7724 591.008 88.356 590.737 87.932 590.827C87.5081 590.917 87.2371 591.333 87.3267 591.757Z" fill="#009BFF"/>
    <path opacity="0.8" d="M171.352 779.581C171.441 780.005 171.858 780.276 172.282 780.186C172.706 780.097 172.977 779.68 172.887 779.256C172.798 778.832 172.381 778.561 171.957 778.651C171.533 778.741 171.262 779.157 171.352 779.581Z" fill="#009BFF"/>
    <path opacity="0.8" d="M440.971 940.212C441.173 941.166 442.11 941.776 443.064 941.574C444.018 941.373 444.628 940.436 444.427 939.481C444.225 938.527 443.288 937.917 442.333 938.118C441.379 938.32 440.769 939.257 440.971 940.212Z" fill="#009BFF"/>
    <path opacity="0.8" d="M839.022 793.703C839.269 794.869 840.414 795.615 841.58 795.368C842.747 795.122 843.492 793.976 843.246 792.81C842.999 791.644 841.854 790.898 840.688 791.145C839.521 791.391 838.776 792.536 839.022 793.703Z" fill="#FEB12B"/>
    <path opacity="0.8" d="M860.769 765.64C861.016 766.806 862.161 767.552 863.328 767.305C864.494 767.059 865.24 765.913 864.993 764.747C864.747 763.581 863.601 762.835 862.435 763.081C861.269 763.328 860.523 764.473 860.769 765.64Z" fill="#009BFF"/>
    <path opacity="0.8" d="M926.998 627.289C927.199 628.243 928.137 628.853 929.091 628.652C930.045 628.45 930.655 627.513 930.454 626.558C930.252 625.604 929.315 624.994 928.36 625.196C927.406 625.397 926.796 626.334 926.998 627.289Z" fill="#009BFF"/>
    <path opacity="0.8" d="M920.608 648.295C920.809 649.249 921.746 649.859 922.701 649.658C923.655 649.456 924.265 648.519 924.063 647.565C923.862 646.61 922.925 646 921.97 646.202C921.016 646.404 920.406 647.341 920.608 648.295Z" fill="#FA7548"/>
    <path opacity="0.8" d="M908.234 681.799C908.435 682.753 909.372 683.363 910.327 683.161C911.281 682.96 911.891 682.023 911.689 681.068C911.488 680.114 910.551 679.504 909.596 679.706C908.642 679.907 908.032 680.844 908.234 681.799Z" fill="#009BFF"/>
    <path opacity="0.8" d="M935.729 587.937C935.931 588.891 936.868 589.501 937.822 589.3C938.777 589.098 939.387 588.161 939.185 587.207C938.983 586.252 938.046 585.642 937.092 585.844C936.138 586.045 935.527 586.983 935.729 587.937Z" fill="#009BFF"/>
    <path opacity="0.8" d="M826.289 808.428C826.491 809.382 827.428 809.993 828.382 809.791C829.337 809.589 829.947 808.652 829.745 807.698C829.543 806.743 828.606 806.133 827.652 806.335C826.698 806.537 826.088 807.474 826.289 808.428Z" fill="#009BFF"/>
  </g>
</svg>
