<svg width="471" height="471" viewBox="0 0 471 471" fill="none" xmlns="http://www.w3.org/2000/svg">
<g opacity="0.25">
<path d="M235.555 470.113C365.342 470.113 470.555 364.9 470.555 235.113C470.555 105.326 365.342 0.112793 235.555 0.112793C105.768 0.112793 0.554688 105.326 0.554688 235.113C0.554688 364.9 105.768 470.113 235.555 470.113Z" fill="#C3E7FF"/>
<path d="M148.352 287.753V184.46L226.602 214.066V318.017L148.352 287.753Z" fill="white"/>
<path fill-rule="evenodd" clip-rule="evenodd" d="M237.876 131.168L331.378 162.748C338.01 163.406 339.336 168.67 339.999 171.301V294.332C339.999 297.621 337.347 300.911 334.031 302.227L238.539 339.07C237.876 339.728 234.56 339.728 232.571 339.07L137.079 302.227C133.1 300.911 131.11 297.621 131.11 294.332V171.301C131.11 171.301 131.11 165.38 138.405 162.748L231.908 131.168C233.897 130.51 235.886 130.51 237.876 131.168ZM305.516 171.959L235.223 148.274L164.93 171.959L235.223 198.934L305.516 171.959ZM244.507 318.017L322.094 287.753H322.758V184.46L244.507 214.724V318.017ZM148.352 184.46V287.753L226.602 318.017V214.066L148.352 184.46Z" fill="#009BFF"/>
</g>
</svg>
