<svg width="470" height="471" viewBox="0 0 470 471" fill="none" xmlns="http://www.w3.org/2000/svg">
<g opacity="0.25">
<path d="M235 470.988C364.787 470.988 470 365.775 470 235.988C470 106.202 364.787 0.988464 235 0.988464C105.213 0.988464 0 106.202 0 235.988C0 365.775 105.213 470.988 235 470.988Z" fill="#FED5C6"/>
<path fill-rule="evenodd" clip-rule="evenodd" d="M146.321 235.988C146.321 187.379 185.734 147.309 235.001 147.309C284.267 147.309 323.68 186.722 323.68 235.988C323.68 285.255 283.61 324.668 235.001 324.668C186.391 324.668 146.321 285.255 146.321 235.988ZM167.342 235.988C167.342 273.431 197.558 303.647 235.001 303.647C272.443 303.647 302.66 273.431 302.66 235.988C302.66 198.546 272.443 168.329 235.001 168.329C197.558 168.329 167.342 198.546 167.342 235.988ZM220.549 235.988C220.549 228.106 227.118 221.537 235.001 221.537C242.883 221.537 249.452 228.106 249.452 235.988C249.452 243.871 242.883 250.44 235.001 250.44C227.118 250.44 220.549 243.871 220.549 235.988Z" fill="white"/>
<path fill-rule="evenodd" clip-rule="evenodd" d="M130.556 235.988C130.556 293.794 177.194 340.433 235 340.433C292.806 340.433 339.445 293.794 339.445 235.988C339.445 178.183 292.806 131.544 235 131.544C177.851 131.544 130.556 178.183 130.556 235.988ZM146.321 235.988C146.321 186.722 186.391 147.309 235 147.309C283.609 147.309 323.679 186.722 323.679 235.988C323.679 285.255 283.609 324.668 235 324.668C186.391 324.668 146.321 285.255 146.321 235.988ZM235 303.647C197.558 303.647 167.341 273.431 167.341 235.988C167.341 198.546 197.558 168.329 235 168.329C272.442 168.329 302.659 198.546 302.659 235.988C302.659 273.431 272.442 303.647 235 303.647ZM235 184.095C206.097 184.095 183.106 207.086 183.106 235.988C183.106 264.891 206.097 287.882 235 287.882C263.903 287.882 286.894 264.891 286.894 235.988C286.894 207.086 263.903 184.095 235 184.095ZM235 265.548C218.578 265.548 205.44 252.411 205.44 235.988C205.44 219.566 218.578 206.429 235 206.429C251.422 206.429 264.56 219.566 264.56 235.988C264.56 252.411 251.422 265.548 235 265.548ZM235 221.537C227.118 221.537 220.549 228.106 220.549 235.988C220.549 243.871 227.118 250.44 235 250.44C242.883 250.44 249.452 243.871 249.452 235.988C249.452 228.106 242.883 221.537 235 221.537Z" fill="#FA7548"/>
</g>
</svg>
