<svg width="470" height="470" fill="none" xmlns="http://www.w3.org/2000/svg"><g opacity=".25"><path d="M235 469.977c129.787 0 235-105.208 235-234.989C470 105.208 364.787 0 235 0S0 105.208 0 234.988c0 129.781 105.213 234.989 235 234.989z" fill="#FFE7B9"/><path d="M282.232 228.815H166.399v79.387h115.833v-79.387z" fill="#fff"/><path fill-rule="evenodd" clip-rule="evenodd" d="M181.366 133.16c-18.872 0-33.839 15.56-33.839 33.714 0 18.154 14.967 33.714 33.839 33.714s33.839-15.56 33.839-33.714c0-18.154-14.967-33.714-33.839-33.714zm0 51.868c-9.761 0-16.919-7.78-16.919-17.505 0-9.726 7.809-17.506 16.919-17.506 9.761 0 16.919 7.78 16.919 17.506.651 9.725-7.158 17.505-16.919 17.505zm-17.57 26.582h121.689c7.809 0 13.666 6.484 13.666 14.264v15.56l45.552-20.098c2.603-1.297 5.857-.649 7.809.648 2.603 1.297 3.904 3.89 3.904 7.132v79.747c0 2.593-1.301 5.187-3.904 7.132-1.302.648-3.254 1.296-4.555 1.296-1.302 0-1.953 0-3.254-.648l-45.552-20.099v14.912c0 7.78-6.508 14.264-13.666 14.264H163.796c-7.809 0-13.666-6.484-13.666-14.264v-85.582c-.65-7.78 5.857-14.264 13.666-14.264zm135.355 66.132l40.997 17.506v-53.814l-40.997 18.154v18.154zm-132.752 29.824h115.832v-79.099H166.399v79.099zm61.17-140.043c0-18.803 14.967-33.715 33.839-33.715 18.871 0 33.838 15.561 33.838 33.715 0 18.153-14.967 33.714-33.838 33.714-18.872 0-33.839-14.912-33.839-33.714zm16.268 0c0 9.725 7.809 17.505 16.92 17.505 9.761 0 16.919-7.78 16.919-17.505 0-9.726-7.809-17.506-16.919-17.506-9.111 0-16.92 7.78-16.92 17.506z" fill="#FEB12B"/></g></svg>