<svg width="883" height="974" viewBox="0 0 883 974" fill="none"
  xmlns="http://www.w3.org/2000/svg">
  <g opacity="0.7">
    <path d="M668 657.836C850.254 657.836 998 510.126 998 327.918C998 145.709 850.254 -2 668 -2C485.746 -2 338 145.709 338 327.918C338 510.126 485.746 657.836 668 657.836Z" fill="#FAE1E4"/>
    <path d="M704.67 406.733H627.67L589.17 339.833L655.17 233.526V296.761C642.337 301.343 633.17 314.173 633.17 327.92C633.17 346.248 647.837 360.911 667.087 360.911C685.42 360.911 701.003 346.248 701.003 327.92C701.003 313.257 691.837 301.343 679.003 296.761V233.526L745.003 339.833L704.67 406.733Z" fill="white"/>
    <path d="M667.085 316.923C673.502 316.923 678.085 321.505 678.085 327.92C678.085 334.335 673.502 338.917 667.085 338.917C660.668 338.917 656.085 334.335 656.085 327.92C656.085 321.505 660.668 316.923 667.085 316.923Z" fill="white"/>
    <path d="M668 657.836C850.254 657.836 998 510.126 998 327.918C998 145.709 850.254 -2 668 -2C485.746 -2 338 145.709 338 327.918C338 510.126 485.746 657.836 668 657.836Z" fill="#FFF4DF"/>
    <path opacity="0.1" fill-rule="evenodd" clip-rule="evenodd" d="M596.497 240.858C596.497 257.354 582.747 271.1 566.247 271.1C549.747 271.1 535.997 257.354 535.997 240.858C535.997 224.362 549.747 210.615 566.247 210.615C583.664 210.615 596.497 224.362 596.497 240.858ZM709.247 240.858C709.247 257.354 695.497 271.1 678.997 271.1C662.497 271.1 648.747 257.354 648.747 240.858C648.747 224.362 662.497 210.615 678.997 210.615C695.497 210.615 709.247 224.362 709.247 240.858ZM727.58 359.995L799.08 329.752V431.477L727.58 401.234V359.995Z" fill="#FFF4DF"/>
    <path opacity="0.2" fill-rule="evenodd" clip-rule="evenodd" d="M592.83 184.953C566.247 184.953 545.164 206.947 545.164 232.607C545.164 258.268 566.247 280.262 592.83 280.262C619.414 280.262 640.497 258.268 640.497 232.607C640.497 206.947 619.414 184.953 592.83 184.953ZM592.83 258.268C579.08 258.268 568.997 247.27 568.997 233.524C568.997 219.777 579.997 208.78 592.83 208.78C606.58 208.78 616.664 219.777 616.664 233.524C617.58 247.27 606.58 258.268 592.83 258.268ZM568.08 295.842H739.497C750.497 295.842 758.747 305.006 758.747 316.003V337.998L822.914 309.588C826.58 307.755 831.164 308.672 833.914 310.505C837.58 312.338 839.414 316.003 839.414 320.586V433.307C839.414 436.973 837.58 440.639 833.914 443.388C832.08 444.305 829.33 445.221 827.497 445.221C825.664 445.221 824.747 445.221 822.914 444.305L758.747 415.895V436.973C758.747 447.97 749.58 457.135 739.497 457.135H568.08C557.08 457.135 548.83 447.97 548.83 436.973V316.003C547.914 305.006 557.08 295.842 568.08 295.842ZM758.747 389.318L816.497 414.062V337.998L758.747 363.658V389.318ZM571.747 431.475H734.914V319.669H571.747V431.475ZM657.914 233.524C657.914 206.947 678.997 185.869 705.58 185.869C732.164 185.869 753.247 207.864 753.247 233.524C753.247 259.184 732.164 281.179 705.58 281.179C678.997 281.179 657.914 260.101 657.914 233.524ZM680.83 233.524C680.83 247.27 691.83 258.268 704.664 258.268C718.414 258.268 728.497 247.27 728.497 233.524C728.497 219.777 717.497 208.78 704.664 208.78C691.83 208.78 680.83 219.777 680.83 233.524Z" fill="#FEB12B"/>
    <path d="M734.917 319.671H571.75V431.476H734.917V319.671Z" fill="white"/>
  </g>
  <path opacity="0.1" d="M383.559 50.0152C224.825 208.749 224.825 466.108 383.559 624.842C542.293 783.576 799.652 783.576 958.386 624.842C1117.12 466.108 1117.12 208.749 958.386 50.0152C799.652 -108.719 542.293 -108.719 383.559 50.0152Z" stroke="black" stroke-width="0.5" stroke-miterlimit="10"/>
  <g opacity="0.75">
    <path opacity="0.8" d="M305.004 158.037C304.665 158.375 304.665 158.925 305.004 159.264C305.343 159.603 305.893 159.603 306.232 159.264C306.57 158.925 306.57 158.376 306.231 158.037C305.893 157.698 305.343 157.698 305.004 158.037Z" fill="#009BFF"/>
    <g opacity="0.8">
      <g opacity="0.8">
        <path opacity="0.8" d="M636.599 744.108C635.586 745.121 633.942 745.121 632.929 744.108C631.915 743.094 631.915 741.451 632.929 740.437C633.943 739.424 635.586 739.424 636.599 740.437C637.613 741.451 637.613 743.094 636.599 744.108Z" fill="#009BFF"/>
        <path opacity="0.8" d="M290.072 483.09C288.829 484.333 288.829 486.348 290.072 487.59C291.315 488.833 293.329 488.833 294.572 487.59C295.815 486.348 295.815 484.333 294.572 483.09C293.329 481.847 291.314 481.847 290.072 483.09Z" fill="#009BFF"/>
        <path opacity="0.8" d="M332.438 563.506C331.546 564.398 331.546 565.844 332.438 566.735C333.33 567.627 334.776 567.627 335.668 566.735C336.56 565.844 336.56 564.398 335.668 563.506C334.776 562.614 333.33 562.614 332.438 563.506Z" fill="#FEB12B"/>
        <path opacity="0.8" d="M371.305 612.191C370.187 613.309 370.187 615.122 371.305 616.24C372.423 617.357 374.235 617.357 375.353 616.24C376.471 615.122 376.471 613.309 375.353 612.191C374.235 611.073 372.423 611.073 371.305 612.191Z" fill="#009BFF"/>
        <path opacity="0.8" d="M487.273 699.519C486.482 700.31 486.482 701.592 487.273 702.383C488.063 703.173 489.346 703.173 490.136 702.383C490.927 701.592 490.927 700.31 490.136 699.519C489.346 698.728 488.063 698.728 487.273 699.519Z" fill="#009BFF"/>
        <path opacity="0.8" d="M496.683 704.019C495.892 704.81 495.892 706.092 496.683 706.883C497.474 707.674 498.756 707.674 499.547 706.883C500.338 706.092 500.338 704.81 499.547 704.019C498.756 703.228 497.474 703.228 496.683 704.019Z" fill="#1DC4D7"/>
        <path opacity="0.8" d="M469.271 689.7C468.48 690.491 468.48 691.773 469.27 692.564C470.061 693.355 471.344 693.355 472.134 692.564C472.925 691.773 472.925 690.491 472.134 689.7C471.344 688.909 470.061 688.909 469.271 689.7Z" fill="#FA7548"/>
        <path opacity="0.8" d="M394.369 635.254C393.786 635.836 393.786 636.78 394.369 637.363C394.951 637.945 395.896 637.945 396.478 637.363C397.061 636.78 397.061 635.836 396.478 635.253C395.896 634.671 394.951 634.671 394.369 635.254Z" fill="#1DC4D7"/>
        <path opacity="0.8" d="M307.87 521.342C307.079 522.133 307.079 523.415 307.87 524.206C308.661 524.997 309.943 524.997 310.734 524.206C311.524 523.415 311.524 522.133 310.734 521.342C309.943 520.552 308.66 520.551 307.87 521.342Z" fill="#009BFF"/>
        <path opacity="0.8" d="M273.298 427.039C272.507 427.83 272.507 429.112 273.298 429.903C274.089 430.694 275.371 430.694 276.162 429.903C276.953 429.112 276.953 427.83 276.162 427.039C275.371 426.248 274.089 426.248 273.298 427.039Z" fill="#009BFF"/>
        <path opacity="0.8" d="M276.775 441.153C275.985 441.944 275.985 443.226 276.775 444.017C277.566 444.808 278.849 444.808 279.639 444.017C280.43 443.227 280.43 441.944 279.639 441.153C278.848 440.363 277.566 440.363 276.775 441.153Z" fill="#009BFF"/>
        <path opacity="0.8" d="M278.207 446.268C277.416 447.059 277.416 448.341 278.207 449.132C278.998 449.923 280.28 449.923 281.071 449.132C281.861 448.341 281.861 447.059 281.07 446.268C280.28 445.477 278.997 445.477 278.207 446.268Z" fill="#009BFF"/>
        <path opacity="0.8" d="M280.663 455.268C279.872 456.059 279.872 457.341 280.663 458.132C281.454 458.923 282.736 458.923 283.527 458.132C284.318 457.341 284.318 456.059 283.527 455.268C282.736 454.477 281.454 454.477 280.663 455.268Z" fill="#FA7548"/>
        <path opacity="0.8" d="M267.775 397.376C266.984 398.167 266.984 399.449 267.775 400.24C268.566 401.031 269.848 401.031 270.639 400.24C271.43 399.449 271.43 398.167 270.639 397.376C269.848 396.585 268.566 396.585 267.775 397.376Z" fill="#009BFF"/>
        <path opacity="0.8" d="M298.254 501.909C297.463 502.7 297.463 503.982 298.254 504.773C299.045 505.564 300.327 505.564 301.118 504.773C301.909 503.982 301.909 502.7 301.118 501.909C300.327 501.119 299.045 501.119 298.254 501.909Z" fill="#1DC4D7"/>
        <path opacity="0.8" d="M271.252 416.811C270.462 417.601 270.462 418.884 271.253 419.674C272.043 420.465 273.326 420.465 274.116 419.675C274.907 418.884 274.907 417.602 274.116 416.811C273.326 416.02 272.043 416.02 271.252 416.811Z" fill="#FEB12B"/>
        <path opacity="0.8" d="M286.595 471.43C286.256 471.769 286.256 472.318 286.595 472.657C286.933 472.996 287.483 472.996 287.822 472.657C288.161 472.318 288.161 471.769 287.822 471.43C287.483 471.091 286.933 471.091 286.595 471.43Z" fill="#009BFF"/>
        <path opacity="0.8" d="M264.705 365.261C264.366 365.6 264.366 366.15 264.705 366.489C265.044 366.827 265.594 366.828 265.933 366.489C266.272 366.15 266.272 365.6 265.933 365.261C265.594 364.922 265.044 364.922 264.705 365.261Z" fill="#009BFF"/>
        <path opacity="0.8" d="M264.297 359.123C263.958 359.462 263.958 360.012 264.297 360.351C264.636 360.689 265.186 360.689 265.524 360.351C265.863 360.012 265.863 359.462 265.524 359.123C265.185 358.784 264.636 358.784 264.297 359.123Z" fill="#009BFF"/>
        <path opacity="0.8" d="M264.093 325.37C263.754 325.709 263.754 326.258 264.093 326.597C264.432 326.936 264.981 326.936 265.32 326.598C265.659 326.259 265.659 325.709 265.32 325.37C264.981 325.031 264.431 325.031 264.093 325.37Z" fill="#009BFF"/>
        <path opacity="0.8" d="M304.801 515.002C304.462 515.341 304.462 515.89 304.801 516.229C305.14 516.568 305.689 516.568 306.028 516.229C306.367 515.89 306.367 515.341 306.028 515.002C305.689 514.663 305.139 514.663 304.801 515.002Z" fill="#009BFF"/>
        <path opacity="0.8" d="M522.253 714.861C521.462 715.652 521.462 716.934 522.253 717.725C523.044 718.516 524.326 718.516 525.117 717.725C525.908 716.935 525.908 715.652 525.117 714.861C524.326 714.071 523.044 714.071 522.253 714.861Z" fill="#009BFF"/>
        <path opacity="0.8" d="M701.006 740.6C699.969 741.637 699.969 743.318 701.006 744.356C702.043 745.393 703.725 745.393 704.762 744.356C705.799 743.318 705.799 741.637 704.762 740.6C703.725 739.562 702.043 739.562 701.006 740.6Z" fill="#6B00FF"/>
        <path opacity="0.8" d="M813.757 715.885C812.854 716.789 812.854 718.254 813.757 719.158C814.661 720.062 816.127 720.062 817.03 719.158C817.934 718.254 817.934 716.789 817.03 715.885C816.127 714.981 814.661 714.981 813.757 715.885Z" fill="#FEB12B"/>
        <path opacity="0.8" d="M734.466 736.828C733.493 737.801 733.493 739.379 734.466 740.352C735.439 741.325 737.017 741.325 737.99 740.352C738.964 739.379 738.964 737.801 737.99 736.828C737.017 735.855 735.439 735.855 734.466 736.828Z" fill="#DF425A"/>
        <path opacity="0.8" d="M871.24 689.087C870.449 689.877 870.45 691.16 871.24 691.95C872.031 692.741 873.313 692.741 874.104 691.95C874.895 691.16 874.895 689.877 874.104 689.087C873.313 688.296 872.031 688.296 871.24 689.087Z" fill="#009BFF"/>
        <path opacity="0.8" d="M880.241 683.768C879.45 684.559 879.45 685.841 880.241 686.632C881.032 687.423 882.314 687.423 883.105 686.632C883.896 685.841 883.896 684.559 883.105 683.768C882.314 682.977 881.032 682.977 880.241 683.768Z" fill="#1DC4D7"/>
        <path opacity="0.8" d="M853.034 698.701C852.243 699.492 852.243 700.774 853.034 701.565C853.825 702.356 855.107 702.356 855.898 701.565C856.688 700.774 856.688 699.492 855.898 698.701C855.107 697.911 853.825 697.91 853.034 698.701Z" fill="#FA7548"/>
        <path opacity="0.8" d="M822.145 712.816C821.354 713.607 821.354 714.889 822.145 715.68C822.936 716.471 824.218 716.471 825.009 715.68C825.8 714.889 825.8 713.607 825.009 712.816C824.218 712.025 822.936 712.025 822.145 712.816Z" fill="#009BFF"/>
        <path opacity="0.8" d="M765.685 730.818C764.894 731.609 764.894 732.891 765.685 733.682C766.475 734.473 767.758 734.473 768.549 733.682C769.339 732.891 769.339 731.609 768.549 730.818C767.758 730.027 766.475 730.027 765.685 730.818Z" fill="#1DC4D7"/>
      </g>
    </g>
  </g>
  <path opacity="0.1" d="M267.259 -55.2894C50.3695 161.6 50.3695 513.248 267.259 730.138C484.149 947.028 835.797 947.028 1052.69 730.138C1269.58 513.248 1269.58 161.6 1052.69 -55.2894C835.797 -272.179 484.149 -272.179 267.259 -55.2894Z" stroke="black" stroke-width="0.5" stroke-miterlimit="10"/>
  <g opacity="0.5">
    <path opacity="0.8" d="M103.039 364.947C103.298 366.172 104.501 366.954 105.725 366.696C106.949 366.437 107.732 365.235 107.473 364.01C107.215 362.786 106.012 362.003 104.788 362.262C103.563 362.52 102.781 363.723 103.039 364.947Z" fill="#FA7548"/>
    <path opacity="0.8" d="M102.972 313.491C103.23 314.716 104.433 315.498 105.658 315.24C106.882 314.981 107.665 313.778 107.406 312.554C107.147 311.33 105.945 310.547 104.72 310.806C103.496 311.064 102.713 312.267 102.972 313.491Z" fill="#FA7548"/>
    <path opacity="0.8" d="M121.666 193.733C121.925 194.957 123.127 195.74 124.352 195.481C125.576 195.223 126.359 194.02 126.1 192.796C125.842 191.571 124.639 190.788 123.415 191.047C122.19 191.306 121.407 192.508 121.666 193.733Z" fill="#009BFF"/>
    <path opacity="0.8" d="M129.62 166.832C129.879 168.056 131.082 168.839 132.306 168.58C133.531 168.322 134.313 167.119 134.055 165.895C133.796 164.67 132.593 163.888 131.369 164.146C130.144 164.405 129.362 165.608 129.62 166.832Z" fill="#FA7548"/>
    <path opacity="0.8" d="M145.744 123.792C146.003 125.017 147.205 125.799 148.43 125.541C149.654 125.282 150.437 124.079 150.179 122.855C149.92 121.63 148.717 120.848 147.493 121.106C146.268 121.365 145.485 122.568 145.744 123.792Z" fill="#009BFF"/>
    <path opacity="0.8" d="M110.464 244.226C110.723 245.45 111.925 246.233 113.15 245.974C114.374 245.715 115.157 244.513 114.898 243.288C114.639 242.064 113.437 241.281 112.213 241.54C110.988 241.799 110.205 243.001 110.464 244.226Z" fill="#009BFF"/>
    <path opacity="0.8" d="M608.459 889.656C608.804 891.289 610.407 892.332 612.04 891.987C613.672 891.642 614.716 890.039 614.371 888.406C614.026 886.774 612.423 885.73 610.79 886.075C609.157 886.42 608.114 888.023 608.459 889.656Z" fill="#009BFF"/>
    <path opacity="0.8" d="M193.321 642.331C193.551 643.42 194.62 644.115 195.708 643.885C196.796 643.655 197.492 642.586 197.262 641.498C197.032 640.41 195.963 639.714 194.875 639.944C193.787 640.174 193.091 641.243 193.321 642.331Z" fill="#009BFF"/>
    <path opacity="0.8" d="M271.928 736.634C272.13 737.586 273.065 738.195 274.017 737.994C274.97 737.793 275.578 736.857 275.377 735.905C275.176 734.953 274.241 734.344 273.288 734.545C272.336 734.746 271.727 735.682 271.928 736.634Z" fill="#FEB12B"/>
    <path opacity="0.8" d="M434.008 845.977C434.324 847.474 435.793 848.431 437.29 848.114C438.787 847.798 439.744 846.328 439.427 844.832C439.111 843.335 437.641 842.379 436.145 842.695C434.648 843.011 433.691 844.481 434.008 845.977Z" fill="#FEB12B"/>
    <path opacity="0.8" d="M515.596 874.027C515.855 875.252 517.058 876.035 518.282 875.776C519.507 875.517 520.289 874.315 520.031 873.09C519.772 871.866 518.569 871.083 517.345 871.342C516.12 871.6 515.338 872.803 515.596 874.027Z" fill="#009BFF"/>
    <path opacity="0.8" d="M529.216 877.582C529.474 878.807 530.677 879.59 531.901 879.331C533.126 879.072 533.909 877.87 533.65 876.645C533.391 875.42 532.189 874.638 530.964 874.896C529.74 875.155 528.957 876.358 529.216 877.582Z" fill="#1DC4D7"/>
    <path opacity="0.8" d="M488.747 866.32C489.006 867.544 490.209 868.327 491.433 868.068C492.658 867.81 493.44 866.607 493.181 865.383C492.923 864.158 491.72 863.375 490.496 863.634C489.272 863.893 488.489 865.095 488.747 866.32Z" fill="#FA7548"/>
    <path opacity="0.8" d="M445.513 850.494C445.772 851.719 446.975 852.501 448.199 852.243C449.424 851.984 450.206 850.781 449.948 849.557C449.689 848.332 448.486 847.55 447.262 847.808C446.037 848.067 445.255 849.27 445.513 850.494Z" fill="#009BFF"/>
    <path opacity="0.8" d="M409.632 834.146C409.891 835.37 411.094 836.153 412.318 835.894C413.543 835.635 414.326 834.433 414.067 833.208C413.808 831.984 412.605 831.201 411.381 831.46C410.156 831.719 409.374 832.921 409.632 834.146Z" fill="#DF425A"/>
    <path opacity="0.8" d="M373.268 814.294C373.527 815.519 374.729 816.302 375.954 816.043C377.178 815.784 377.961 814.582 377.702 813.357C377.443 812.133 376.241 811.35 375.016 811.609C373.792 811.868 373.009 813.07 373.268 814.294Z" fill="#1DC4D7"/>
    <path opacity="0.8" d="M226.308 687.601C226.567 688.826 227.769 689.608 228.994 689.35C230.218 689.091 231.001 687.888 230.743 686.664C230.484 685.439 229.281 684.657 228.057 684.915C226.832 685.174 226.049 686.377 226.308 687.601Z" fill="#009BFF"/>
    <path opacity="0.8" d="M153.881 571.403C154.14 572.628 155.342 573.411 156.567 573.152C157.791 572.893 158.574 571.691 158.315 570.466C158.056 569.242 156.854 568.459 155.63 568.718C154.405 568.976 153.622 570.179 153.881 571.403Z" fill="#009BFF"/>
    <path opacity="0.8" d="M138.212 533.797C138.471 535.021 139.674 535.804 140.898 535.546C142.122 535.287 142.905 534.084 142.646 532.86C142.388 531.635 141.185 530.852 139.961 531.111C138.736 531.37 137.954 532.572 138.212 533.797Z" fill="#009BFF"/>
    <path opacity="0.8" d="M208.225 664.143C208.484 665.367 209.686 666.15 210.911 665.892C212.135 665.633 212.918 664.43 212.659 663.206C212.4 661.981 211.198 661.199 209.973 661.457C208.749 661.716 207.966 662.919 208.225 664.143Z" fill="#1DC4D7"/>
    <path opacity="0.8" d="M148.062 558.478C148.32 559.703 149.523 560.486 150.747 560.227C151.971 559.968 152.754 558.766 152.495 557.541C152.237 556.317 151.034 555.534 149.81 555.793C148.586 556.052 147.803 557.254 148.062 558.478Z" fill="#FEB12B"/>
    <path opacity="0.8" d="M184.153 625.74C184.268 626.284 184.802 626.632 185.346 626.517C185.89 626.402 186.238 625.867 186.123 625.323C186.008 624.779 185.474 624.432 184.93 624.547C184.386 624.662 184.038 625.196 184.153 625.74Z" fill="#009BFF"/>
    <path opacity="0.8" d="M125.25 490.729C125.365 491.273 125.899 491.62 126.443 491.505C126.987 491.39 127.335 490.856 127.22 490.312C127.105 489.768 126.571 489.42 126.027 489.535C125.483 489.65 125.135 490.185 125.25 490.729Z" fill="#009BFF"/>
    <path opacity="0.8" d="M122.74 482.508C122.855 483.052 123.39 483.4 123.934 483.285C124.478 483.17 124.826 482.636 124.711 482.092C124.596 481.548 124.061 481.2 123.517 481.315C122.973 481.43 122.626 481.964 122.74 482.508Z" fill="#009BFF"/>
    <path opacity="0.8" d="M112.772 437.777C112.886 438.321 113.421 438.669 113.965 438.554C114.509 438.439 114.856 437.905 114.741 437.361C114.626 436.817 114.092 436.469 113.548 436.584C113.004 436.699 112.657 437.233 112.772 437.777Z" fill="#009BFF"/>
    <path opacity="0.8" d="M220.582 678.774C220.697 679.318 221.232 679.666 221.776 679.551C222.32 679.436 222.668 678.902 222.553 678.358C222.438 677.814 221.904 677.466 221.359 677.581C220.815 677.696 220.467 678.23 220.582 678.774Z" fill="#009BFF"/>
    <path opacity="0.8" d="M566.53 884.878C566.789 886.103 567.991 886.885 569.216 886.627C570.44 886.368 571.223 885.165 570.964 883.941C570.705 882.716 569.503 881.933 568.279 882.192C567.054 882.451 566.271 883.654 566.53 884.878Z" fill="#009BFF"/>
  </g>
</svg>
