<svg width="470" height="471" viewBox="0 0 470 471" fill="none" xmlns="http://www.w3.org/2000/svg">
<g opacity="0.25">
<path d="M235 470.986C364.787 470.986 470 365.774 470 235.988C470 106.203 364.787 0.990845 235 0.990845C105.213 0.990845 0 106.203 0 235.988C0 365.774 105.213 470.986 235 470.986Z" fill="#E1CCFF"/>
<path fill-rule="evenodd" clip-rule="evenodd" d="M229.125 222.28L248.708 241.863L271.556 199.433L229.125 222.28ZM221.292 230.113L198.445 272.544L240.875 249.697L221.292 230.113Z" fill="white"/>
<path fill-rule="evenodd" clip-rule="evenodd" d="M130.556 235.988C130.556 178.84 177.194 131.545 235 131.545C292.806 131.545 339.445 178.183 339.445 235.988C339.445 293.794 292.806 340.432 235 340.432C177.194 340.432 130.556 293.137 130.556 235.988ZM235 146.653C185.734 146.653 145.664 186.723 145.664 235.988C145.664 285.254 185.734 325.324 235 325.324C284.266 325.324 324.336 285.254 324.336 235.988C324.336 186.723 284.266 146.653 235 146.653ZM283.609 178.84C286.237 177.526 290.178 178.84 291.492 181.468C292.806 183.438 292.806 185.409 291.492 186.723V187.38L255.363 254.381C254.707 255.695 254.05 256.352 252.736 257.009L185.734 293.137C184.42 293.794 182.449 293.794 180.479 293.137L179.165 291.823C177.194 289.852 176.537 287.225 177.851 284.597L213.98 217.596C214.637 216.282 215.294 215.625 216.607 214.968L283.609 178.84ZM221.206 230.077L198.215 272.774L240.912 249.783L221.206 230.077ZM229.088 222.194L248.795 241.9L271.786 199.203L229.088 222.194Z" fill="#6B00FF"/>
</g>
</svg>
