<svg width="863" height="987" viewBox="0 0 863 987" fill="none"
  xmlns="http://www.w3.org/2000/svg">
  <g opacity="0.7">
    <path d="M648 657.836C830.254 657.836 978 510.126 978 327.918C978 145.709 830.254 -2 648 -2C465.746 -2 318 145.709 318 327.918C318 510.126 465.746 657.836 648 657.836Z" fill="#F1E6FF"/>
    <g opacity="0.2">
      <path fill-rule="evenodd" clip-rule="evenodd" d="M647.997 182.205C567.33 182.205 502.247 248.189 502.247 327.919C502.247 407.649 567.33 473.633 647.997 473.633C728.664 473.633 793.747 408.565 793.747 327.919C793.747 247.272 728.664 182.205 647.997 182.205ZM523.33 327.919C523.33 259.186 579.247 203.283 647.997 203.283C716.747 203.283 772.664 259.186 772.664 327.919C772.664 396.652 716.747 452.554 647.997 452.554C579.247 452.554 523.33 396.652 523.33 327.919Z" fill="#6B00FF"/>
      <path d="M726.828 251.855C724.995 248.189 719.495 246.356 715.828 248.189L622.328 298.593C620.495 299.509 619.578 300.426 618.661 302.259L568.245 395.735C566.411 399.401 567.328 403.067 570.078 405.816C570.995 406.733 570.995 406.733 571.912 407.649C574.662 408.566 577.411 408.566 579.245 407.649L672.745 357.245C674.578 356.329 675.495 355.412 676.411 353.579L726.828 260.102C726.828 260.102 726.828 260.102 726.828 259.186C728.661 257.353 728.661 254.604 726.828 251.855ZM596.661 379.239L628.745 319.671L656.245 347.164L596.661 379.239ZM667.245 336.167L639.745 308.674L699.328 276.598L667.245 336.167Z" fill="#6B00FF"/>
    </g>
    <path d="M596.67 379.239L628.753 319.671L656.253 347.164L596.67 379.239Z" fill="white"/>
    <path d="M667.255 336.165L639.755 308.672L699.338 276.597L667.255 336.165Z" fill="white"/>
  </g>
  <path opacity="0.1" d="M363.559 50.0162C204.825 208.75 204.825 466.109 363.559 624.843C522.293 783.577 779.652 783.577 938.386 624.843C1097.12 466.109 1097.12 208.75 938.386 50.0162C779.652 -108.718 522.293 -108.718 363.559 50.0162Z" stroke="black" stroke-width="0.5" stroke-miterlimit="10"/>
  <g opacity="0.75">
    <path opacity="0.8" d="M285.004 158.038C284.665 158.376 284.665 158.926 285.004 159.265C285.343 159.604 285.892 159.604 286.231 159.265C286.57 158.926 286.57 158.377 286.231 158.038C285.892 157.699 285.342 157.699 285.004 158.038Z" fill="#009BFF"/>
    <g opacity="0.8">
      <g opacity="0.8">
        <path opacity="0.8" d="M616.599 744.109C615.585 745.122 613.942 745.122 612.928 744.109C611.915 743.095 611.915 741.452 612.928 740.438C613.942 739.425 615.585 739.425 616.599 740.438C617.612 741.452 617.612 743.095 616.599 744.109Z" fill="#009BFF"/>
        <path opacity="0.8" d="M270.071 483.091C268.829 484.334 268.828 486.349 270.071 487.591C271.314 488.834 273.329 488.834 274.572 487.591C275.814 486.349 275.814 484.334 274.572 483.091C273.329 481.848 271.314 481.848 270.071 483.091Z" fill="#009BFF"/>
        <path opacity="0.8" d="M312.438 563.507C311.546 564.399 311.546 565.845 312.438 566.736C313.329 567.628 314.776 567.628 315.667 566.736C316.559 565.845 316.559 564.399 315.667 563.507C314.775 562.615 313.329 562.615 312.438 563.507Z" fill="#FEB12B"/>
        <path opacity="0.8" d="M351.304 612.192C350.186 613.31 350.186 615.123 351.304 616.241C352.422 617.358 354.235 617.358 355.353 616.241C356.471 615.123 356.471 613.31 355.353 612.192C354.235 611.074 352.422 611.074 351.304 612.192Z" fill="#009BFF"/>
        <path opacity="0.8" d="M467.273 699.52C466.482 700.311 466.482 701.593 467.273 702.384C468.063 703.174 469.346 703.174 470.136 702.384C470.927 701.593 470.927 700.311 470.136 699.52C469.346 698.729 468.063 698.729 467.273 699.52Z" fill="#009BFF"/>
        <path opacity="0.8" d="M476.683 704.02C475.892 704.811 475.892 706.093 476.683 706.884C477.474 707.675 478.756 707.675 479.547 706.884C480.337 706.093 480.337 704.811 479.547 704.02C478.756 703.229 477.474 703.229 476.683 704.02Z" fill="#1DC4D7"/>
        <path opacity="0.8" d="M449.271 689.701C448.48 690.492 448.48 691.774 449.27 692.565C450.061 693.356 451.344 693.356 452.134 692.565C452.925 691.774 452.925 690.492 452.134 689.701C451.344 688.91 450.061 688.91 449.271 689.701Z" fill="#FA7548"/>
        <path opacity="0.8" d="M374.368 635.255C373.786 635.837 373.786 636.781 374.368 637.364C374.951 637.946 375.895 637.946 376.478 637.364C377.06 636.781 377.06 635.837 376.478 635.254C375.895 634.672 374.951 634.672 374.368 635.255Z" fill="#1DC4D7"/>
        <path opacity="0.8" d="M287.869 521.343C287.078 522.134 287.078 523.416 287.869 524.207C288.66 524.998 289.942 524.998 290.733 524.207C291.524 523.416 291.524 522.134 290.733 521.343C289.942 520.553 288.66 520.552 287.869 521.343Z" fill="#009BFF"/>
        <path opacity="0.8" d="M253.298 427.04C252.507 427.831 252.507 429.113 253.298 429.904C254.089 430.695 255.371 430.695 256.162 429.904C256.953 429.113 256.953 427.831 256.162 427.04C255.371 426.249 254.089 426.249 253.298 427.04Z" fill="#009BFF"/>
        <path opacity="0.8" d="M256.775 441.154C255.984 441.945 255.984 443.227 256.775 444.018C257.566 444.809 258.848 444.809 259.639 444.018C260.43 443.227 260.43 441.945 259.639 441.154C258.848 440.364 257.566 440.364 256.775 441.154Z" fill="#009BFF"/>
        <path opacity="0.8" d="M258.206 446.269C257.415 447.06 257.415 448.342 258.206 449.133C258.997 449.924 260.279 449.924 261.07 449.133C261.861 448.342 261.861 447.06 261.07 446.269C260.279 445.478 258.997 445.478 258.206 446.269Z" fill="#009BFF"/>
        <path opacity="0.8" d="M260.663 455.269C259.872 456.06 259.872 457.342 260.663 458.133C261.454 458.924 262.736 458.924 263.527 458.133C264.317 457.342 264.317 456.06 263.527 455.269C262.736 454.478 261.454 454.478 260.663 455.269Z" fill="#FA7548"/>
        <path opacity="0.8" d="M247.774 397.377C246.983 398.168 246.983 399.45 247.774 400.241C248.565 401.032 249.847 401.032 250.638 400.241C251.429 399.45 251.429 398.168 250.638 397.377C249.847 396.586 248.565 396.586 247.774 397.377Z" fill="#009BFF"/>
        <path opacity="0.8" d="M278.254 501.91C277.463 502.701 277.463 503.983 278.254 504.774C279.044 505.565 280.327 505.565 281.117 504.774C281.908 503.983 281.908 502.701 281.117 501.91C280.327 501.12 279.044 501.12 278.254 501.91Z" fill="#1DC4D7"/>
        <path opacity="0.8" d="M251.252 416.812C250.461 417.602 250.461 418.885 251.252 419.675C252.043 420.466 253.325 420.466 254.116 419.676C254.907 418.885 254.907 417.603 254.116 416.812C253.325 416.021 252.043 416.021 251.252 416.812Z" fill="#FEB12B"/>
        <path opacity="0.8" d="M266.594 471.431C266.255 471.77 266.255 472.319 266.594 472.658C266.933 472.997 267.483 472.997 267.821 472.658C268.16 472.319 268.16 471.77 267.821 471.431C267.482 471.092 266.933 471.092 266.594 471.431Z" fill="#009BFF"/>
        <path opacity="0.8" d="M244.705 365.262C244.366 365.601 244.366 366.151 244.705 366.49C245.044 366.828 245.593 366.828 245.932 366.49C246.271 366.151 246.271 365.601 245.932 365.262C245.593 364.923 245.044 364.923 244.705 365.262Z" fill="#009BFF"/>
        <path opacity="0.8" d="M244.297 359.124C243.958 359.463 243.958 360.013 244.297 360.351C244.635 360.69 245.185 360.69 245.524 360.352C245.863 360.013 245.863 359.463 245.524 359.124C245.185 358.785 244.635 358.785 244.297 359.124Z" fill="#009BFF"/>
        <path opacity="0.8" d="M244.092 325.371C243.753 325.71 243.753 326.259 244.092 326.598C244.431 326.937 244.981 326.937 245.319 326.599C245.658 326.26 245.658 325.71 245.319 325.371C244.98 325.032 244.431 325.032 244.092 325.371Z" fill="#009BFF"/>
        <path opacity="0.8" d="M284.8 515.003C284.461 515.342 284.461 515.891 284.8 516.23C285.139 516.569 285.689 516.569 286.028 516.23C286.366 515.891 286.366 515.342 286.027 515.003C285.688 514.664 285.139 514.664 284.8 515.003Z" fill="#009BFF"/>
        <path opacity="0.8" d="M502.252 714.862C501.461 715.653 501.461 716.935 502.252 717.726C503.043 718.517 504.325 718.517 505.116 717.726C505.907 716.936 505.907 715.653 505.116 714.862C504.325 714.072 503.043 714.072 502.252 714.862Z" fill="#009BFF"/>
        <path opacity="0.8" d="M681.006 740.601C679.968 741.638 679.968 743.319 681.006 744.357C682.043 745.394 683.724 745.394 684.762 744.357C685.799 743.319 685.799 741.638 684.762 740.601C683.724 739.563 682.043 739.563 681.006 740.601Z" fill="#6B00FF"/>
        <path opacity="0.8" d="M793.757 715.886C792.854 716.79 792.854 718.255 793.757 719.159C794.661 720.063 796.127 720.063 797.03 719.159C797.934 718.255 797.934 716.79 797.03 715.886C796.127 714.982 794.661 714.982 793.757 715.886Z" fill="#FEB12B"/>
        <path opacity="0.8" d="M714.466 736.829C713.493 737.802 713.493 739.38 714.466 740.353C715.439 741.326 717.017 741.326 717.99 740.353C718.963 739.38 718.963 737.802 717.99 736.829C717.017 735.856 715.439 735.856 714.466 736.829Z" fill="#DF425A"/>
        <path opacity="0.8" d="M851.239 689.088C850.449 689.878 850.449 691.161 851.239 691.951C852.03 692.742 853.312 692.742 854.103 691.951C854.894 691.161 854.894 689.878 854.103 689.088C853.312 688.297 852.03 688.297 851.239 689.088Z" fill="#009BFF"/>
        <path opacity="0.8" d="M860.24 683.769C859.449 684.56 859.449 685.842 860.24 686.633C861.031 687.424 862.313 687.424 863.104 686.633C863.895 685.842 863.895 684.56 863.104 683.769C862.313 682.978 861.031 682.978 860.24 683.769Z" fill="#1DC4D7"/>
        <path opacity="0.8" d="M833.033 698.702C832.242 699.493 832.242 700.775 833.033 701.566C833.824 702.357 835.106 702.357 835.897 701.566C836.688 700.775 836.688 699.493 835.897 698.702C835.106 697.911 833.824 697.911 833.033 698.702Z" fill="#FA7548"/>
        <path opacity="0.8" d="M802.145 712.817C801.354 713.608 801.354 714.89 802.144 715.681C802.935 716.472 804.218 716.472 805.008 715.681C805.799 714.89 805.799 713.608 805.008 712.817C804.218 712.026 802.935 712.026 802.145 712.817Z" fill="#009BFF"/>
        <path opacity="0.8" d="M745.684 730.819C744.893 731.61 744.893 732.892 745.684 733.683C746.474 734.474 747.757 734.474 748.548 733.683C749.338 732.892 749.338 731.61 748.548 730.819C747.757 730.028 746.474 730.028 745.684 730.819Z" fill="#1DC4D7"/>
      </g>
    </g>
  </g>
  <path opacity="0.1" d="M267.259 -42.2864C50.3695 174.603 50.3695 526.251 267.259 743.141C484.149 960.031 835.797 960.031 1052.69 743.141C1269.58 526.251 1269.58 174.603 1052.69 -42.2864C835.797 -259.176 484.149 -259.176 267.259 -42.2864Z" stroke="black" stroke-width="0.5" stroke-miterlimit="10"/>
  <g opacity="0.5">
    <path opacity="0.8" d="M103.039 377.949C103.298 379.174 104.501 379.956 105.725 379.698C106.949 379.439 107.732 378.236 107.473 377.012C107.215 375.788 106.012 375.005 104.788 375.264C103.563 375.522 102.781 376.725 103.039 377.949Z" fill="#FA7548"/>
    <path opacity="0.8" d="M102.972 326.493C103.23 327.718 104.433 328.5 105.658 328.242C106.882 327.983 107.665 326.78 107.406 325.556C107.147 324.332 105.945 323.549 104.72 323.807C103.496 324.066 102.713 325.269 102.972 326.493Z" fill="#FA7548"/>
    <path opacity="0.8" d="M121.666 206.735C121.925 207.959 123.127 208.742 124.352 208.483C125.576 208.225 126.359 207.022 126.1 205.798C125.842 204.573 124.639 203.79 123.415 204.049C122.19 204.308 121.407 205.51 121.666 206.735Z" fill="#009BFF"/>
    <path opacity="0.8" d="M129.62 179.834C129.879 181.058 131.082 181.841 132.306 181.582C133.531 181.324 134.313 180.121 134.055 178.897C133.796 177.672 132.593 176.889 131.369 177.148C130.144 177.407 129.362 178.61 129.62 179.834Z" fill="#FA7548"/>
    <path opacity="0.8" d="M145.744 136.794C146.003 138.018 147.205 138.801 148.43 138.542C149.654 138.284 150.437 137.081 150.179 135.857C149.92 134.632 148.717 133.849 147.493 134.108C146.268 134.367 145.485 135.57 145.744 136.794Z" fill="#009BFF"/>
    <path opacity="0.8" d="M110.464 257.228C110.723 258.452 111.925 259.235 113.15 258.976C114.374 258.717 115.157 257.515 114.898 256.29C114.639 255.066 113.437 254.283 112.213 254.542C110.988 254.801 110.205 256.003 110.464 257.228Z" fill="#009BFF"/>
    <path opacity="0.8" d="M608.459 902.658C608.804 904.291 610.407 905.334 612.04 904.989C613.672 904.644 614.716 903.041 614.371 901.408C614.026 899.776 612.423 898.732 610.79 899.077C609.157 899.422 608.114 901.025 608.459 902.658Z" fill="#009BFF"/>
    <path opacity="0.8" d="M193.321 655.333C193.551 656.422 194.62 657.117 195.708 656.887C196.796 656.657 197.492 655.588 197.262 654.5C197.032 653.412 195.963 652.716 194.875 652.946C193.787 653.176 193.091 654.245 193.321 655.333Z" fill="#009BFF"/>
    <path opacity="0.8" d="M271.928 749.636C272.13 750.588 273.065 751.197 274.017 750.996C274.97 750.795 275.578 749.859 275.377 748.907C275.176 747.955 274.241 747.346 273.288 747.547C272.336 747.748 271.727 748.684 271.928 749.636Z" fill="#FEB12B"/>
    <path opacity="0.8" d="M434.008 858.979C434.324 860.476 435.793 861.433 437.29 861.116C438.787 860.8 439.744 859.33 439.427 857.834C439.111 856.337 437.641 855.38 436.145 855.697C434.648 856.013 433.691 857.483 434.008 858.979Z" fill="#FEB12B"/>
    <path opacity="0.8" d="M515.597 887.029C515.856 888.254 517.058 889.037 518.283 888.778C519.507 888.519 520.29 887.317 520.031 886.092C519.772 884.868 518.57 884.085 517.345 884.344C516.121 884.602 515.338 885.805 515.597 887.029Z" fill="#009BFF"/>
    <path opacity="0.8" d="M529.216 890.584C529.475 891.809 530.677 892.592 531.902 892.333C533.126 892.074 533.909 890.872 533.65 889.647C533.391 888.422 532.189 887.639 530.965 887.898C529.74 888.157 528.957 889.36 529.216 890.584Z" fill="#1DC4D7"/>
    <path opacity="0.8" d="M488.747 879.322C489.006 880.546 490.209 881.329 491.433 881.07C492.658 880.811 493.44 879.609 493.181 878.385C492.923 877.16 491.72 876.377 490.496 876.636C489.272 876.895 488.489 878.097 488.747 879.322Z" fill="#FA7548"/>
    <path opacity="0.8" d="M445.513 863.496C445.772 864.721 446.974 865.503 448.199 865.245C449.423 864.986 450.206 863.783 449.947 862.559C449.688 861.334 448.486 860.552 447.261 860.81C446.037 861.069 445.254 862.272 445.513 863.496Z" fill="#009BFF"/>
    <path opacity="0.8" d="M409.632 847.148C409.891 848.372 411.093 849.155 412.318 848.896C413.542 848.637 414.325 847.435 414.066 846.21C413.807 844.986 412.605 844.203 411.38 844.462C410.156 844.721 409.373 845.923 409.632 847.148Z" fill="#DF425A"/>
    <path opacity="0.8" d="M373.268 827.296C373.527 828.521 374.729 829.304 375.954 829.045C377.178 828.786 377.961 827.584 377.702 826.359C377.443 825.135 376.241 824.352 375.016 824.611C373.792 824.869 373.009 826.072 373.268 827.296Z" fill="#1DC4D7"/>
    <path opacity="0.8" d="M226.308 700.603C226.567 701.828 227.769 702.61 228.994 702.352C230.218 702.093 231.001 700.89 230.743 699.666C230.484 698.441 229.281 697.659 228.057 697.917C226.832 698.176 226.049 699.379 226.308 700.603Z" fill="#009BFF"/>
    <path opacity="0.8" d="M153.881 584.405C154.14 585.63 155.342 586.413 156.567 586.154C157.791 585.895 158.574 584.693 158.315 583.468C158.056 582.244 156.854 581.461 155.63 581.72C154.405 581.978 153.622 583.181 153.881 584.405Z" fill="#009BFF"/>
    <path opacity="0.8" d="M138.212 546.799C138.471 548.023 139.674 548.806 140.898 548.547C142.122 548.289 142.905 547.086 142.646 545.862C142.388 544.637 141.185 543.854 139.961 544.113C138.736 544.372 137.954 545.574 138.212 546.799Z" fill="#009BFF"/>
    <path opacity="0.8" d="M208.225 677.145C208.484 678.369 209.686 679.152 210.911 678.893C212.135 678.635 212.918 677.432 212.659 676.208C212.4 674.983 211.198 674.201 209.973 674.459C208.749 674.718 207.966 675.921 208.225 677.145Z" fill="#1DC4D7"/>
    <path opacity="0.8" d="M148.062 571.48C148.32 572.705 149.523 573.488 150.747 573.229C151.971 572.97 152.754 571.768 152.495 570.543C152.237 569.319 151.034 568.536 149.81 568.795C148.586 569.054 147.803 570.256 148.062 571.48Z" fill="#FEB12B"/>
    <path opacity="0.8" d="M184.153 638.742C184.268 639.286 184.802 639.634 185.346 639.519C185.89 639.404 186.238 638.869 186.123 638.325C186.008 637.781 185.474 637.434 184.93 637.549C184.386 637.663 184.038 638.198 184.153 638.742Z" fill="#009BFF"/>
    <path opacity="0.8" d="M125.25 503.731C125.365 504.275 125.899 504.622 126.443 504.507C126.987 504.392 127.335 503.858 127.22 503.314C127.105 502.77 126.571 502.422 126.027 502.537C125.483 502.652 125.135 503.187 125.25 503.731Z" fill="#009BFF"/>
    <path opacity="0.8" d="M122.74 495.51C122.855 496.054 123.39 496.402 123.934 496.287C124.478 496.172 124.826 495.638 124.711 495.094C124.596 494.55 124.061 494.202 123.517 494.317C122.973 494.432 122.626 494.966 122.74 495.51Z" fill="#009BFF"/>
    <path opacity="0.8" d="M112.772 450.779C112.886 451.323 113.421 451.671 113.965 451.556C114.509 451.441 114.856 450.907 114.741 450.363C114.626 449.819 114.092 449.471 113.548 449.586C113.004 449.701 112.657 450.235 112.772 450.779Z" fill="#009BFF"/>
    <path opacity="0.8" d="M220.582 691.776C220.697 692.32 221.232 692.668 221.776 692.553C222.32 692.438 222.668 691.904 222.553 691.36C222.438 690.816 221.904 690.468 221.359 690.583C220.815 690.698 220.467 691.232 220.582 691.776Z" fill="#009BFF"/>
    <path opacity="0.8" d="M566.53 897.88C566.789 899.105 567.991 899.887 569.215 899.629C570.44 899.37 571.223 898.167 570.964 896.943C570.705 895.718 569.503 894.935 568.278 895.194C567.054 895.453 566.271 896.655 566.53 897.88Z" fill="#009BFF"/>
  </g>
</svg>
