<svg width="863" height="987" viewBox="0 0 863 987" fill="none"
  xmlns="http://www.w3.org/2000/svg">
  <g opacity="0.7">
    <path d="M648 660.753C831.911 660.753 981 511.719 981 327.877C981 144.034 831.911 -5 648 -5C464.089 -5 315 144.034 315 327.877C315 511.719 464.089 660.753 648 660.753Z" fill="#DDF6F9"/>
    <path d="M748.832 232.638H722.931C702.581 201.199 667.432 180.857 628.582 180.857C566.607 180.857 516.656 230.788 516.656 292.741C516.656 296.439 516.656 323.254 516.656 326.953C516.656 338.973 522.207 355.617 533.307 364.864L516.656 463.802C516.656 466.576 516.657 468.425 518.507 471.199C520.357 473.049 522.207 473.973 524.982 473.973H662.806C667.431 473.973 671.132 470.275 671.132 465.651V438.836H697.031C710.906 438.836 722.931 426.816 722.931 412.946V386.131H731.257C737.732 386.131 741.431 379.658 738.656 374.11L727.556 351.919H747.906C761.781 351.919 773.806 339.898 773.806 326.028V257.604C774.731 244.658 763.632 232.638 748.832 232.638ZM628.582 198.425C657.257 198.425 684.081 211.371 701.656 232.638H680.382C666.507 232.638 653.556 239.11 646.156 250.206C632.281 250.206 619.331 256.679 611.931 267.775H537.932C549.032 227.09 585.107 198.425 628.582 198.425ZM714.607 370.412C709.982 370.412 706.281 374.11 706.281 378.734V413.871C706.281 418.494 702.582 422.193 697.957 422.193H660.957C654.482 422.193 648.007 419.419 642.457 414.795L600.831 372.261C597.132 368.562 591.582 368.562 588.807 372.261C585.107 375.96 585.107 381.508 588.807 384.282L630.431 426.816C636.906 433.288 646.156 437.912 655.406 438.836V457.33H535.156L550.882 363.014C551.806 359.316 549.957 355.617 546.257 353.768C538.857 350.069 533.307 337.124 533.307 326.953V318.631H611.007C618.407 328.802 631.357 336.199 645.232 336.199C653.557 347.295 666.507 353.768 679.457 353.768H708.132L716.457 371.336H714.607V370.412Z" fill="#1DC4D7" fill-opacity="0.2"/>
    <path d="M671.128 292.739C671.128 306.609 659.103 318.629 645.228 318.629C631.353 318.629 619.328 306.609 619.328 292.739C619.328 278.869 631.353 266.849 645.228 266.849C660.028 266.849 671.128 278.869 671.128 292.739Z" fill="white"/>
    <path d="M533.297 292.738C533.297 289.964 533.297 287.19 533.297 284.416H602.672C601.747 287.19 601.747 289.964 601.747 292.738C601.747 295.512 601.747 298.286 602.672 301.06H533.297V292.738Z" fill="white"/>
    <path d="M722.915 336.2H679.44C673.89 336.2 669.265 334.351 664.64 331.577C678.515 324.18 687.765 310.31 687.765 293.666C687.765 277.022 678.515 262.228 664.64 255.755C669.265 252.981 673.89 251.132 679.44 251.132H722.915V336.2Z" fill="white"/>
    <path d="M757.15 326.952C757.15 331.575 753.45 335.274 748.825 335.274H740.5V249.281H748.825C753.45 249.281 757.15 252.979 757.15 257.603V326.952Z" fill="white"/>
  </g>
  <path opacity="0.1" d="M363.559 50.0162C204.825 208.75 204.825 466.109 363.559 624.843C522.293 783.577 779.652 783.577 938.386 624.843C1097.12 466.109 1097.12 208.75 938.386 50.0162C779.652 -108.718 522.293 -108.718 363.559 50.0162Z" stroke="black" stroke-width="0.5" stroke-miterlimit="10"/>
  <g opacity="0.75">
    <path opacity="0.8" d="M285.004 158.038C284.665 158.376 284.665 158.926 285.004 159.265C285.343 159.604 285.893 159.604 286.232 159.265C286.57 158.926 286.57 158.377 286.231 158.038C285.893 157.699 285.343 157.699 285.004 158.038Z" fill="#009BFF"/>
    <g opacity="0.8">
      <g opacity="0.8">
        <path opacity="0.8" d="M616.6 744.109C615.586 745.122 613.943 745.122 612.929 744.109C611.915 743.095 611.915 741.452 612.929 740.438C613.943 739.425 615.586 739.425 616.6 740.438C617.613 741.452 617.613 743.095 616.6 744.109Z" fill="#009BFF"/>
        <path opacity="0.8" d="M270.072 483.091C268.829 484.334 268.829 486.349 270.072 487.591C271.314 488.834 273.329 488.834 274.572 487.591C275.815 486.349 275.815 484.334 274.572 483.091C273.329 481.848 271.314 481.848 270.072 483.091Z" fill="#009BFF"/>
        <path opacity="0.8" d="M312.438 563.507C311.546 564.399 311.546 565.845 312.438 566.736C313.33 567.628 314.776 567.628 315.668 566.736C316.56 565.845 316.56 564.399 315.668 563.507C314.776 562.615 313.33 562.615 312.438 563.507Z" fill="#FEB12B"/>
        <path opacity="0.8" d="M351.305 612.192C350.187 613.31 350.187 615.123 351.305 616.241C352.423 617.358 354.235 617.358 355.353 616.241C356.471 615.123 356.471 613.31 355.353 612.192C354.235 611.074 352.423 611.074 351.305 612.192Z" fill="#009BFF"/>
        <path opacity="0.8" d="M467.272 699.52C466.482 700.311 466.482 701.593 467.272 702.384C468.063 703.174 469.345 703.174 470.136 702.384C470.927 701.593 470.927 700.311 470.136 699.52C469.345 698.729 468.063 698.729 467.272 699.52Z" fill="#009BFF"/>
        <path opacity="0.8" d="M476.683 704.02C475.892 704.811 475.892 706.093 476.683 706.884C477.474 707.675 478.756 707.675 479.547 706.884C480.338 706.093 480.338 704.811 479.547 704.02C478.756 703.229 477.474 703.229 476.683 704.02Z" fill="#1DC4D7"/>
        <path opacity="0.8" d="M449.271 689.701C448.48 690.492 448.48 691.774 449.27 692.565C450.061 693.356 451.344 693.356 452.134 692.565C452.925 691.774 452.925 690.492 452.134 689.701C451.344 688.91 450.061 688.91 449.271 689.701Z" fill="#FA7548"/>
        <path opacity="0.8" d="M374.369 635.255C373.786 635.837 373.786 636.781 374.369 637.364C374.951 637.946 375.895 637.946 376.478 637.364C377.06 636.781 377.06 635.837 376.478 635.254C375.896 634.672 374.951 634.672 374.369 635.255Z" fill="#1DC4D7"/>
        <path opacity="0.8" d="M287.869 521.343C287.078 522.134 287.078 523.416 287.869 524.207C288.66 524.998 289.942 524.998 290.733 524.207C291.524 523.416 291.524 522.134 290.733 521.343C289.942 520.553 288.66 520.552 287.869 521.343Z" fill="#009BFF"/>
        <path opacity="0.8" d="M253.298 427.04C252.507 427.831 252.507 429.113 253.298 429.904C254.089 430.695 255.371 430.695 256.162 429.904C256.953 429.113 256.953 427.831 256.162 427.04C255.371 426.249 254.089 426.249 253.298 427.04Z" fill="#009BFF"/>
        <path opacity="0.8" d="M256.775 441.154C255.985 441.945 255.985 443.227 256.775 444.018C257.566 444.809 258.849 444.809 259.639 444.018C260.43 443.227 260.43 441.945 259.639 441.154C258.848 440.364 257.566 440.364 256.775 441.154Z" fill="#009BFF"/>
        <path opacity="0.8" d="M258.207 446.269C257.416 447.06 257.416 448.342 258.207 449.133C258.998 449.924 260.28 449.924 261.071 449.133C261.861 448.342 261.861 447.06 261.071 446.269C260.28 445.478 258.998 445.478 258.207 446.269Z" fill="#009BFF"/>
        <path opacity="0.8" d="M260.663 455.269C259.872 456.06 259.872 457.342 260.663 458.133C261.454 458.924 262.736 458.924 263.527 458.133C264.318 457.342 264.318 456.06 263.527 455.269C262.736 454.478 261.454 454.478 260.663 455.269Z" fill="#FA7548"/>
        <path opacity="0.8" d="M247.775 397.377C246.984 398.168 246.984 399.45 247.775 400.241C248.566 401.032 249.848 401.032 250.639 400.241C251.43 399.45 251.43 398.168 250.639 397.377C249.848 396.586 248.566 396.586 247.775 397.377Z" fill="#009BFF"/>
        <path opacity="0.8" d="M278.254 501.91C277.463 502.701 277.463 503.983 278.254 504.774C279.045 505.565 280.327 505.565 281.118 504.774C281.908 503.983 281.908 502.701 281.118 501.91C280.327 501.12 279.045 501.12 278.254 501.91Z" fill="#1DC4D7"/>
        <path opacity="0.8" d="M251.252 416.812C250.461 417.602 250.462 418.885 251.252 419.675C252.043 420.466 253.325 420.466 254.116 419.676C254.907 418.885 254.907 417.603 254.116 416.812C253.325 416.021 252.043 416.021 251.252 416.812Z" fill="#FEB12B"/>
        <path opacity="0.8" d="M266.594 471.431C266.255 471.77 266.255 472.319 266.594 472.658C266.933 472.997 267.483 472.997 267.822 472.658C268.161 472.319 268.161 471.77 267.822 471.431C267.483 471.092 266.933 471.092 266.594 471.431Z" fill="#009BFF"/>
        <path opacity="0.8" d="M244.705 365.262C244.366 365.601 244.366 366.151 244.705 366.49C245.044 366.828 245.594 366.828 245.932 366.49C246.271 366.151 246.271 365.601 245.932 365.262C245.593 364.923 245.044 364.923 244.705 365.262Z" fill="#009BFF"/>
        <path opacity="0.8" d="M244.297 359.124C243.958 359.463 243.958 360.013 244.297 360.351C244.636 360.69 245.186 360.69 245.524 360.352C245.863 360.013 245.863 359.463 245.524 359.124C245.185 358.785 244.636 358.785 244.297 359.124Z" fill="#009BFF"/>
        <path opacity="0.8" d="M244.093 325.371C243.754 325.71 243.754 326.259 244.093 326.598C244.432 326.937 244.981 326.937 245.32 326.599C245.659 326.26 245.659 325.71 245.32 325.371C244.981 325.032 244.431 325.032 244.093 325.371Z" fill="#009BFF"/>
        <path opacity="0.8" d="M284.8 515.003C284.461 515.342 284.461 515.891 284.8 516.23C285.139 516.569 285.689 516.569 286.028 516.23C286.367 515.891 286.367 515.342 286.028 515.003C285.689 514.664 285.139 514.664 284.8 515.003Z" fill="#009BFF"/>
        <path opacity="0.8" d="M502.253 714.862C501.462 715.653 501.462 716.935 502.253 717.726C503.044 718.517 504.326 718.517 505.117 717.726C505.907 716.936 505.907 715.653 505.117 714.862C504.326 714.072 503.044 714.072 502.253 714.862Z" fill="#009BFF"/>
        <path opacity="0.8" d="M681.006 740.601C679.969 741.638 679.969 743.319 681.006 744.357C682.043 745.394 683.725 745.394 684.762 744.357C685.799 743.319 685.799 741.638 684.762 740.601C683.725 739.563 682.043 739.563 681.006 740.601Z" fill="#6B00FF"/>
        <path opacity="0.8" d="M793.757 715.886C792.854 716.79 792.854 718.255 793.757 719.159C794.661 720.063 796.127 720.063 797.03 719.159C797.934 718.255 797.934 716.79 797.03 715.886C796.127 714.982 794.661 714.982 793.757 715.886Z" fill="#FEB12B"/>
        <path opacity="0.8" d="M714.466 736.829C713.493 737.802 713.493 739.38 714.466 740.353C715.439 741.326 717.017 741.326 717.99 740.353C718.963 739.38 718.963 737.802 717.99 736.829C717.017 735.856 715.439 735.856 714.466 736.829Z" fill="#DF425A"/>
        <path opacity="0.8" d="M851.24 689.088C850.449 689.878 850.449 691.161 851.24 691.951C852.031 692.742 853.313 692.742 854.104 691.951C854.895 691.161 854.895 689.878 854.104 689.088C853.313 688.297 852.031 688.297 851.24 689.088Z" fill="#009BFF"/>
        <path opacity="0.8" d="M860.241 683.769C859.45 684.56 859.45 685.842 860.241 686.633C861.032 687.424 862.314 687.424 863.105 686.633C863.896 685.842 863.896 684.56 863.105 683.769C862.314 682.978 861.032 682.978 860.241 683.769Z" fill="#1DC4D7"/>
        <path opacity="0.8" d="M833.033 698.702C832.243 699.493 832.243 700.775 833.033 701.566C833.824 702.357 835.106 702.357 835.897 701.566C836.688 700.775 836.688 699.493 835.897 698.702C835.106 697.911 833.824 697.911 833.033 698.702Z" fill="#FA7548"/>
        <path opacity="0.8" d="M802.145 712.817C801.354 713.608 801.354 714.89 802.145 715.681C802.936 716.472 804.218 716.472 805.009 715.681C805.8 714.89 805.8 713.608 805.009 712.817C804.218 712.026 802.936 712.026 802.145 712.817Z" fill="#009BFF"/>
        <path opacity="0.8" d="M745.684 730.819C744.894 731.61 744.894 732.892 745.684 733.683C746.475 734.474 747.758 734.474 748.548 733.683C749.339 732.892 749.339 731.61 748.548 730.819C747.758 730.028 746.475 730.028 745.684 730.819Z" fill="#1DC4D7"/>
      </g>
    </g>
  </g>
  <path opacity="0.1" d="M267.259 -42.2864C50.3691 174.603 50.3691 526.251 267.259 743.141C484.149 960.031 835.796 960.031 1052.69 743.141C1269.58 526.251 1269.58 174.603 1052.69 -42.2864C835.796 -259.176 484.149 -259.176 267.259 -42.2864Z" stroke="black" stroke-width="0.5" stroke-miterlimit="10"/>
  <g opacity="0.5">
    <path opacity="0.8" d="M103.04 377.949C103.298 379.174 104.501 379.956 105.725 379.698C106.95 379.439 107.733 378.236 107.474 377.012C107.215 375.788 106.013 375.005 104.788 375.264C103.564 375.522 102.781 376.725 103.04 377.949Z" fill="#FA7548"/>
    <path opacity="0.8" d="M102.972 326.493C103.231 327.718 104.433 328.5 105.658 328.242C106.882 327.983 107.665 326.78 107.406 325.556C107.148 324.332 105.945 323.549 104.721 323.807C103.496 324.066 102.713 325.269 102.972 326.493Z" fill="#FA7548"/>
    <path opacity="0.8" d="M121.666 206.735C121.925 207.959 123.128 208.742 124.352 208.483C125.577 208.225 126.359 207.022 126.101 205.798C125.842 204.573 124.639 203.79 123.415 204.049C122.19 204.308 121.408 205.51 121.666 206.735Z" fill="#009BFF"/>
    <path opacity="0.8" d="M129.621 179.834C129.88 181.058 131.082 181.841 132.306 181.582C133.531 181.324 134.314 180.121 134.055 178.897C133.796 177.672 132.594 176.889 131.369 177.148C130.145 177.407 129.362 178.61 129.621 179.834Z" fill="#FA7548"/>
    <path opacity="0.8" d="M145.744 136.794C146.003 138.018 147.205 138.801 148.43 138.542C149.654 138.284 150.437 137.081 150.178 135.857C149.92 134.632 148.717 133.849 147.493 134.108C146.268 134.367 145.485 135.57 145.744 136.794Z" fill="#009BFF"/>
    <path opacity="0.8" d="M110.464 257.228C110.723 258.452 111.926 259.235 113.15 258.976C114.374 258.717 115.157 257.515 114.899 256.29C114.64 255.066 113.437 254.283 112.213 254.542C110.988 254.801 110.206 256.003 110.464 257.228Z" fill="#009BFF"/>
    <path opacity="0.8" d="M608.459 902.658C608.804 904.291 610.407 905.334 612.04 904.989C613.673 904.644 614.716 903.041 614.371 901.408C614.026 899.776 612.423 898.732 610.79 899.077C609.158 899.422 608.114 901.025 608.459 902.658Z" fill="#009BFF"/>
    <path opacity="0.8" d="M193.321 655.333C193.551 656.422 194.62 657.117 195.708 656.887C196.797 656.657 197.492 655.588 197.262 654.5C197.032 653.412 195.964 652.716 194.875 652.946C193.787 653.176 193.091 654.245 193.321 655.333Z" fill="#009BFF"/>
    <path opacity="0.8" d="M271.929 749.636C272.13 750.588 273.065 751.197 274.018 750.996C274.97 750.795 275.579 749.859 275.378 748.907C275.176 747.955 274.241 747.346 273.289 747.547C272.336 747.748 271.728 748.684 271.929 749.636Z" fill="#FEB12B"/>
    <path opacity="0.8" d="M434.008 858.979C434.324 860.476 435.794 861.433 437.29 861.116C438.787 860.8 439.744 859.33 439.428 857.834C439.111 856.337 437.642 855.38 436.145 855.697C434.648 856.013 433.692 857.483 434.008 858.979Z" fill="#FEB12B"/>
    <path opacity="0.8" d="M515.597 887.029C515.856 888.254 517.058 889.037 518.283 888.778C519.507 888.519 520.29 887.317 520.031 886.092C519.772 884.868 518.57 884.085 517.345 884.344C516.121 884.602 515.338 885.805 515.597 887.029Z" fill="#009BFF"/>
    <path opacity="0.8" d="M529.216 890.584C529.475 891.809 530.677 892.592 531.901 892.333C533.126 892.074 533.909 890.872 533.65 889.647C533.391 888.422 532.189 887.639 530.964 887.898C529.74 888.157 528.957 889.36 529.216 890.584Z" fill="#1DC4D7"/>
    <path opacity="0.8" d="M488.748 879.322C489.007 880.546 490.209 881.329 491.433 881.07C492.658 880.811 493.441 879.609 493.182 878.385C492.923 877.16 491.721 876.377 490.496 876.636C489.272 876.895 488.489 878.097 488.748 879.322Z" fill="#FA7548"/>
    <path opacity="0.8" d="M445.513 863.496C445.772 864.721 446.975 865.503 448.199 865.245C449.424 864.986 450.206 863.783 449.948 862.559C449.689 861.334 448.486 860.552 447.262 860.81C446.037 861.069 445.255 862.272 445.513 863.496Z" fill="#009BFF"/>
    <path opacity="0.8" d="M409.632 847.148C409.891 848.372 411.094 849.155 412.318 848.896C413.543 848.637 414.325 847.435 414.067 846.21C413.808 844.986 412.605 844.203 411.381 844.462C410.156 844.721 409.373 845.923 409.632 847.148Z" fill="#DF425A"/>
    <path opacity="0.8" d="M373.268 827.296C373.527 828.521 374.729 829.304 375.954 829.045C377.178 828.786 377.961 827.584 377.702 826.359C377.443 825.135 376.241 824.352 375.016 824.611C373.792 824.869 373.009 826.072 373.268 827.296Z" fill="#1DC4D7"/>
    <path opacity="0.8" d="M226.308 700.603C226.567 701.828 227.769 702.61 228.994 702.352C230.219 702.093 231.001 700.89 230.743 699.666C230.484 698.441 229.281 697.659 228.057 697.917C226.832 698.176 226.049 699.379 226.308 700.603Z" fill="#009BFF"/>
    <path opacity="0.8" d="M153.881 584.405C154.14 585.63 155.342 586.413 156.567 586.154C157.791 585.895 158.574 584.693 158.315 583.468C158.056 582.244 156.854 581.461 155.63 581.72C154.405 581.978 153.622 583.181 153.881 584.405Z" fill="#009BFF"/>
    <path opacity="0.8" d="M138.213 546.799C138.471 548.023 139.674 548.806 140.898 548.547C142.123 548.289 142.905 547.086 142.647 545.862C142.388 544.637 141.185 543.854 139.961 544.113C138.737 544.372 137.954 545.574 138.213 546.799Z" fill="#009BFF"/>
    <path opacity="0.8" d="M208.225 677.145C208.484 678.369 209.686 679.152 210.911 678.893C212.135 678.635 212.918 677.432 212.659 676.208C212.4 674.983 211.198 674.201 209.974 674.459C208.749 674.718 207.966 675.921 208.225 677.145Z" fill="#1DC4D7"/>
    <path opacity="0.8" d="M148.062 571.48C148.321 572.705 149.523 573.488 150.747 573.229C151.972 572.97 152.754 571.768 152.496 570.543C152.237 569.319 151.034 568.536 149.81 568.795C148.586 569.054 147.803 570.256 148.062 571.48Z" fill="#FEB12B"/>
    <path opacity="0.8" d="M184.153 638.742C184.268 639.286 184.802 639.634 185.346 639.519C185.89 639.404 186.238 638.869 186.123 638.325C186.008 637.781 185.474 637.434 184.93 637.549C184.386 637.663 184.038 638.198 184.153 638.742Z" fill="#009BFF"/>
    <path opacity="0.8" d="M125.25 503.731C125.365 504.275 125.899 504.622 126.443 504.507C126.987 504.392 127.335 503.858 127.22 503.314C127.105 502.77 126.571 502.422 126.027 502.537C125.483 502.652 125.135 503.187 125.25 503.731Z" fill="#009BFF"/>
    <path opacity="0.8" d="M122.741 495.51C122.856 496.054 123.39 496.402 123.934 496.287C124.478 496.172 124.826 495.638 124.711 495.094C124.596 494.55 124.062 494.202 123.518 494.317C122.974 494.432 122.626 494.966 122.741 495.51Z" fill="#009BFF"/>
    <path opacity="0.8" d="M112.772 450.779C112.886 451.323 113.421 451.671 113.965 451.556C114.509 451.441 114.856 450.907 114.741 450.363C114.626 449.819 114.092 449.471 113.548 449.586C113.004 449.701 112.657 450.235 112.772 450.779Z" fill="#009BFF"/>
    <path opacity="0.8" d="M220.582 691.776C220.697 692.32 221.232 692.668 221.776 692.553C222.32 692.438 222.668 691.904 222.553 691.36C222.438 690.816 221.904 690.468 221.359 690.583C220.815 690.698 220.467 691.232 220.582 691.776Z" fill="#009BFF"/>
    <path opacity="0.8" d="M566.53 897.88C566.789 899.105 567.992 899.887 569.216 899.629C570.44 899.37 571.223 898.167 570.964 896.943C570.706 895.718 569.503 894.935 568.279 895.194C567.054 895.453 566.272 896.655 566.53 897.88Z" fill="#009BFF"/>
  </g>
</svg>
