<svg width="470" height="470" viewBox="0 0 470 470" fill="none" xmlns="http://www.w3.org/2000/svg">
<g opacity="0.25">
<path d="M235 469.977C364.787 469.977 470 364.769 470 234.988C470 105.208 364.787 0 235 0C105.213 0 0 105.208 0 234.988C0 364.769 105.213 469.977 235 469.977Z" fill="#C3EDF1"/>
<path fill-rule="evenodd" clip-rule="evenodd" d="M308.602 240.589C311.889 240.589 314.518 237.954 314.518 234.659V185.24C314.518 181.945 311.889 179.309 308.602 179.309H302.686V240.589H308.602ZM290.196 241.248H259.301C255.357 241.248 252.071 239.93 248.784 237.954C258.644 232.682 265.217 222.798 265.217 210.938C265.217 199.077 258.644 188.534 248.784 183.922C252.071 181.945 255.357 180.627 259.301 180.627H290.196V241.248ZM234.981 228.729C244.841 228.729 253.386 220.163 253.386 210.279C253.386 200.395 245.498 191.829 234.981 191.829C225.121 191.829 216.575 200.395 216.575 210.279C216.575 220.163 225.121 228.729 234.981 228.729ZM155.443 204.348V210.279V216.209H204.743C204.086 214.232 204.086 212.255 204.086 210.279C204.086 208.302 204.086 206.325 204.743 204.348H155.443Z" fill="white"/>
<path fill-rule="evenodd" clip-rule="evenodd" d="M290.197 167.449H308.603C319.12 167.449 327.008 176.015 326.351 185.24V234C326.351 243.884 317.805 252.45 307.945 252.45H293.484L301.372 268.264C303.344 272.217 300.715 276.83 296.113 276.83H290.197V295.939C290.197 305.823 281.652 314.389 271.792 314.389H253.387V333.497C253.387 336.792 250.757 339.428 247.47 339.428H149.527C147.555 339.428 146.241 338.769 144.926 337.451C143.611 335.474 143.611 334.156 143.611 332.18L155.443 261.675C147.555 255.086 143.611 243.225 143.611 234.659V210.279C143.611 166.131 179.108 130.549 223.149 130.549C250.757 130.549 275.736 145.045 290.197 167.449ZM275.079 167.449C262.589 152.294 243.526 143.069 223.149 143.069C192.254 143.069 166.618 163.495 158.73 192.488H211.317C216.576 184.581 225.778 179.968 235.638 179.968C240.897 172.061 250.1 167.449 259.96 167.449H275.079ZM278.365 271.559C278.365 268.264 280.995 265.628 284.281 265.628V266.287H285.596L279.68 253.768H259.303C250.1 253.768 240.897 249.155 234.981 241.248C225.121 241.248 215.918 235.977 210.66 228.729H155.443V234.659C155.443 241.907 159.387 251.132 164.646 253.768C167.275 255.086 168.59 257.721 167.933 260.357L156.758 327.567H242.212V314.389C235.638 313.73 229.065 310.435 224.464 305.823L194.884 275.512C192.254 273.535 192.254 269.582 194.884 266.946C196.856 264.31 200.8 264.31 203.429 266.946L233.009 297.257C236.953 300.551 241.554 302.528 246.156 302.528H272.449C275.736 302.528 278.365 299.892 278.365 296.598V271.559ZM314.518 234.659C314.518 237.953 311.889 240.589 308.602 240.589H302.686V179.309H308.602C311.889 179.309 314.518 181.945 314.518 185.24V234.659ZM259.301 241.248H290.196V180.627H259.301C255.357 180.627 252.071 181.945 248.784 183.922C258.644 188.534 265.217 199.077 265.217 210.938C265.217 222.798 258.644 232.682 248.784 237.954C252.071 239.93 255.357 241.248 259.301 241.248ZM253.386 210.279C253.386 220.162 244.841 228.728 234.981 228.728C225.121 228.728 216.576 220.162 216.576 210.279C216.576 200.395 225.121 191.829 234.981 191.829C245.498 191.829 253.386 200.395 253.386 210.279ZM155.443 210.279V204.348H204.743C204.086 206.325 204.086 208.302 204.086 210.279C204.086 212.255 204.086 214.232 204.743 216.209H155.443V210.279Z" fill="#1DC4D7"/>
</g>
</svg>
