<svg width="215" height="200" viewBox="0 0 215 200" fill="none" xmlns="http://www.w3.org/2000/svg">
<path d="M191.212 83.6946C192.882 83.1903 193.825 81.4311 193.32 79.7655C192.814 78.0998 191.051 77.1584 189.381 77.6627C187.712 78.1671 186.768 79.9262 187.274 81.5919C187.779 83.2575 189.542 84.199 191.212 83.6946Z" fill="#CDCDD9"/>
<path d="M94.6819 6.34586C96.4384 6.34586 97.8623 4.92529 97.8623 3.17293C97.8623 1.42057 96.4384 0 94.6819 0C92.9254 0 91.5015 1.42057 91.5015 3.17293C91.5015 4.92529 92.9254 6.34586 94.6819 6.34586Z" fill="#CDCDD9"/>
<path d="M214.352 113.161C213.499 112.328 212.131 112.341 211.294 113.193L206.617 117.956C205.782 118.806 205.796 120.172 206.649 121.006C207.069 121.417 207.616 121.622 208.162 121.622C208.722 121.622 209.283 121.406 209.706 120.975L214.383 116.212C215.218 115.36 215.204 113.995 214.352 113.161Z" fill="#CDCDD9"/>
<path d="M78.6289 51.0489C79.6153 50.0648 79.6153 48.4693 78.6289 47.4853C77.6425 46.5012 76.0433 46.5012 75.0569 47.4853C74.0705 48.4694 74.0705 50.0648 75.0569 51.0489C76.0433 52.0329 77.6425 52.0329 78.6289 51.0489Z" fill="#CDCDD9"/>
<path d="M177.368 14.0458C179.198 14.0458 180.682 12.5655 180.682 10.7394C180.682 8.91323 179.198 7.43286 177.368 7.43286C175.537 7.43286 174.053 8.91323 174.053 10.7394C174.053 12.5655 175.537 14.0458 177.368 14.0458Z" fill="#CDCDD9"/>
<path d="M136.046 73.9398C136.713 72.3319 135.948 70.4885 134.336 69.8225C132.725 69.1565 130.877 69.92 130.209 71.5279C129.542 73.1358 130.307 74.9791 131.919 75.6451C133.531 76.3112 135.378 75.5476 136.046 73.9398Z" fill="#CDCDD9"/>
<path d="M63.0416 59.1659C60.2184 58.8678 58.5451 57.9973 58.0672 56.5779C57.796 55.7732 58.2137 54.8699 58.9169 53.4621C59.8063 51.6819 60.9131 49.4666 60.0051 46.7711C59.1148 44.1223 56.7847 43.032 54.9123 42.1563C54.1518 41.8005 53.4338 41.4646 52.8641 41.0667C52.0288 40.4842 50.8775 40.6866 50.2924 41.5199C49.708 42.3535 49.9111 43.5021 50.7467 44.0855C51.5776 44.6655 52.4757 45.0858 53.3445 45.492C55.0628 46.2958 56.1347 46.8442 56.5043 47.9434C56.9044 49.1307 56.4258 50.1894 55.6121 51.8182C54.8021 53.4394 53.7942 55.4569 54.567 57.7511C55.5453 60.6581 58.2663 62.3668 62.6538 62.8298C62.7196 62.8366 62.7852 62.84 62.8501 62.84C63.7826 62.84 64.5841 62.1374 64.6844 61.1915C64.7912 60.1801 64.0559 59.2731 63.0416 59.1659Z" fill="#CDCDD9"/>
<path d="M44.0338 84.7189C43.2407 83.8291 41.8748 83.7483 40.9817 84.5399C40.0895 85.3311 40.0091 86.6947 40.8023 87.5848L47.0179 94.561C47.445 95.0406 48.0381 95.2847 48.6346 95.2847C49.1451 95.2847 49.6579 95.105 50.07 94.74C50.9622 93.9487 51.0425 92.5852 50.2494 91.6951L44.0338 84.7189Z" fill="#CDCDD9"/>
<path d="M137.159 19.8491C135.734 21.279 135.609 23.0549 135.517 24.3519C135.452 25.2641 135.399 25.837 135.122 26.1146C134.875 26.363 134.607 26.4026 133.672 26.4281C132.605 26.4578 130.992 26.502 129.675 27.8263C128.61 28.8969 127.526 30.8976 128.412 34.3484C128.661 35.3229 129.54 35.9711 130.504 35.9711C130.682 35.9711 130.862 35.949 131.042 35.9029C132.198 35.6079 132.896 34.4332 132.6 33.279C132.389 32.4558 132.243 31.3686 132.744 30.8648C132.842 30.7662 133.369 30.7518 133.792 30.7398C134.947 30.7079 136.691 30.6597 138.19 29.1539C139.613 27.7253 139.738 25.9506 139.83 24.6555C139.895 23.7424 139.948 23.1685 140.226 22.8901C141.067 22.0454 141.064 20.68 140.217 19.8399C139.37 19.0002 138.002 19.0039 137.159 19.8491Z" fill="#CDCDD9"/>
<path d="M211.536 173.136L198.333 163.542C196.64 162.312 196.64 160.318 198.333 159.087L210.107 150.531C211.486 149.529 210.509 147.816 208.559 147.816H175.583H141.249H126.999H36.5988H3.62258C1.67208 147.816 0.695436 149.529 2.07438 150.531L13.8483 159.087C15.5412 160.318 15.5412 162.312 13.8483 163.542L0.645494 173.136C-0.733453 174.138 0.243187 175.852 2.19369 175.852H126.999H141.249H209.988C211.938 175.852 212.915 174.139 211.536 173.136Z" fill="#C8032B"/>
<path d="M178.359 164.519H33.5452C30.5043 164.519 28.0393 162.06 28.0393 159.026C28.0393 155.993 30.5043 153.533 33.5452 153.533H178.36C181.4 153.533 183.865 155.993 183.865 159.026C183.865 162.06 181.4 164.519 178.359 164.519Z" fill="#0A2342"/>
<path d="M188.289 74.3538L187.551 68.6169H156.301H150.088H107.534H62.1366H58.7659H24.6727L23.9347 74.3538C23.819 75.2273 21.3084 95.8627 32.363 109.347C37.8387 116.026 45.4774 119.761 55.073 120.448L60.936 120.869C65.858 136.12 78.6958 147.826 94.6225 151.169V177.867C84.3068 179.051 76.2661 187.692 76.2661 198.3V199.948H135.958V198.299C135.958 187.691 127.917 179.05 117.601 177.867V151.681C134.929 149.217 149.085 136.934 154.223 120.658L157.151 120.448C166.747 119.761 174.385 116.026 179.861 109.347C190.916 95.8627 188.406 75.2273 188.289 74.3538ZM48.9532 105.761C46.4255 104.708 44.3185 103.145 42.5931 101.054C37.9711 95.4455 36.9243 87.2404 36.8038 81.7689H48.9528V105.761H48.9532ZM169.631 101.054C167.906 103.145 165.799 104.708 163.271 105.761V81.7689H175.42C175.299 87.2404 174.252 95.4455 169.631 101.054Z" fill="#B0B7BC"/>
<path opacity="0.2" d="M111.247 152.137C136.168 152.137 156.372 131.982 156.372 107.119V68.6167H107.603V152.137H111.247Z" fill="white"/>
<path d="M176.919 164.289L176.888 164.311H176.307H35.5979C31.4235 164.311 28.0393 161.852 28.0393 158.818V164.311V182.571C28.0393 186.472 32.391 189.634 37.7585 189.634H174.146C179.514 189.634 183.865 186.472 183.865 182.571V164.311V159.241L183.834 159.263C183.538 161.941 180.604 164.073 176.919 164.289Z" fill="#C8032B"/>
<path fill-rule="evenodd" clip-rule="evenodd" d="M80.8184 171.365C81.6194 171.662 82.3206 172.093 82.9036 172.646C83.4883 173.201 83.95 173.882 84.2762 174.669C84.6017 175.455 84.7665 176.342 84.7665 177.306C84.7665 178.271 84.6017 179.158 84.2762 179.943C83.9504 180.731 83.4887 181.411 82.9036 181.966C82.3202 182.52 81.6186 182.951 80.8184 183.247C80.0209 183.542 79.1394 183.692 78.1988 183.692C77.2574 183.692 76.3763 183.542 75.5792 183.247C74.7798 182.951 74.0782 182.52 73.4936 181.966C72.9081 181.41 72.4464 180.73 72.1214 179.943C71.796 179.158 71.6311 178.271 71.6311 177.306C71.6311 176.342 71.796 175.455 72.1214 174.669C72.4468 173.883 72.9081 173.202 73.4936 172.646C74.077 172.093 74.779 171.662 75.5792 171.365C76.3763 171.07 77.2578 170.92 78.1988 170.92C79.1398 170.92 80.0209 171.07 80.8184 171.365ZM80.7117 179.879C81.0126 179.564 81.2468 179.185 81.4086 178.754C81.5711 178.319 81.6535 177.832 81.6535 177.307C81.6535 176.791 81.5711 176.307 81.4086 175.867C81.2468 175.431 81.0122 175.05 80.7117 174.734C80.4109 174.419 80.0455 174.17 79.6249 173.994C79.2028 173.817 78.7228 173.728 78.1988 173.728C77.6748 173.728 77.1948 173.817 76.7723 173.994C76.3518 174.17 75.9859 174.42 75.6859 174.734C75.385 175.05 75.1508 175.431 74.9895 175.867C74.8269 176.306 74.7445 176.79 74.7445 177.307C74.7445 177.834 74.8269 178.32 74.9895 178.754C75.1504 179.185 75.385 179.564 75.6859 179.879C75.9855 180.194 76.351 180.443 76.7723 180.62C77.194 180.797 77.674 180.886 78.1988 180.886C78.724 180.886 79.2036 180.797 79.6249 180.62C80.0455 180.443 80.4117 180.194 80.7117 179.879ZM65.8846 175.417L68.4086 171.219H71.9913L67.3856 178.232V183.394H64.3728V178.232L59.7671 171.219H63.5036L65.8846 175.417ZM93.4568 178.552C93.4568 178.891 93.4025 179.207 93.295 179.492C93.188 179.776 93.037 180.024 92.846 180.23C92.6557 180.434 92.4266 180.597 92.1658 180.712C91.6434 180.943 90.9573 180.943 90.4262 180.711C90.1598 180.596 89.9287 180.434 89.7385 180.23C89.547 180.024 89.396 179.776 89.2898 179.492C89.1824 179.207 89.1281 178.89 89.1281 178.552V171.219H86.1149V178.652C86.1149 179.371 86.2255 180.043 86.4435 180.648C86.6631 181.26 86.9953 181.799 87.4301 182.25C87.8657 182.702 88.4138 183.059 89.0603 183.313C89.7032 183.565 90.4571 183.692 91.3005 183.692C92.1325 183.692 92.8809 183.565 93.5245 183.313C94.1706 183.06 94.7192 182.702 95.1548 182.25C95.5892 181.8 95.9213 181.261 96.1413 180.648C96.3593 180.041 96.4699 179.37 96.4699 178.652V171.219H93.4568V178.552ZM112.13 171.219L114.422 178.468L116.277 171.219H119.347L115.779 183.394H113.157L110.695 175.679L108.234 183.394H105.695L102.076 171.219H105.347L107.107 178.274L109.412 171.219H112.13ZM130.667 172.646C130.084 172.093 129.382 171.662 128.581 171.365C127.784 171.07 126.903 170.92 125.962 170.92C125.021 170.92 124.139 171.07 123.342 171.365C122.542 171.662 121.84 172.093 121.257 172.646C120.671 173.202 120.21 173.883 119.884 174.669C119.559 175.455 119.394 176.342 119.394 177.306C119.394 178.271 119.559 179.158 119.884 179.943C120.209 180.73 120.671 181.41 121.257 181.966C121.841 182.52 122.543 182.951 123.342 183.247C124.139 183.542 125.02 183.692 125.962 183.692C126.902 183.692 127.784 183.542 128.581 183.247C129.382 182.951 130.083 182.52 130.667 181.966C131.252 181.411 131.713 180.731 132.039 179.943C132.365 179.158 132.529 178.271 132.529 177.306C132.529 176.342 132.365 175.455 132.039 174.669C131.713 173.882 131.251 173.201 130.667 172.646ZM129.171 178.754C129.009 179.185 128.775 179.564 128.475 179.879C128.175 180.194 127.808 180.443 127.388 180.62C126.967 180.797 126.487 180.886 125.962 180.886C125.437 180.886 124.957 180.797 124.535 180.62C124.114 180.443 123.748 180.194 123.449 179.879C123.148 179.564 122.913 179.185 122.752 178.754C122.59 178.32 122.507 177.834 122.507 177.307C122.507 176.79 122.59 176.306 122.752 175.867C122.914 175.431 123.148 175.05 123.449 174.734C123.749 174.42 124.115 174.17 124.535 173.994C124.958 173.817 125.438 173.728 125.962 173.728C126.486 173.728 126.966 173.817 127.388 173.994C127.808 174.17 128.174 174.419 128.475 174.734C128.775 175.05 129.01 175.431 129.171 175.867C129.334 176.307 129.416 176.791 129.416 177.307C129.416 177.832 129.334 178.319 129.171 178.754ZM137.733 171.219L142.453 178.916V171.219H145.466V183.394H141.745L136.892 175.496V183.394H133.879V171.219H137.733ZM151.76 181.08C151.672 180.868 151.548 180.681 151.389 180.522C151.232 180.365 151.044 180.242 150.831 180.153C150.403 179.978 149.9 179.978 149.473 180.153C149.26 180.241 149.072 180.365 148.915 180.522C148.756 180.68 148.632 180.868 148.544 181.08C148.457 181.293 148.412 181.52 148.412 181.756C148.412 181.993 148.456 182.22 148.544 182.433C148.631 182.645 148.756 182.833 148.914 182.991C149.071 183.148 149.259 183.272 149.473 183.36C149.686 183.447 149.915 183.492 150.151 183.492C150.388 183.492 150.616 183.448 150.83 183.36C151.043 183.273 151.231 183.148 151.389 182.991C151.547 182.832 151.671 182.645 151.758 182.433C151.846 182.22 151.89 181.993 151.89 181.756C151.892 181.521 151.848 181.293 151.76 181.08ZM148.695 171.219H151.609V179.507H148.695V171.219Z" fill="white"/>
<path d="M105.965 92.6468L113.599 78.9365L113.339 94.618L126.821 86.5525L118.737 100.003L134.455 99.7435L120.713 107.359L134.455 114.975L118.737 114.716L126.821 128.167L113.339 120.101L113.599 135.782L105.965 122.072L98.3313 135.782L98.5913 120.101L85.1086 128.167L93.1933 114.716L77.4751 114.975L91.2174 107.359L77.4751 99.7435L93.1933 100.003L85.1086 86.5525L98.5913 94.618L98.3313 78.9365L105.965 92.6468Z" fill="white"/>
<path d="M105.106 126.414C115.953 126.414 124.745 117.642 124.745 106.821C124.745 96.0004 115.953 87.2285 105.106 87.2285C94.26 87.2285 85.4673 96.0004 85.4673 106.821C85.4673 117.642 94.26 126.414 105.106 126.414Z" fill="#C8032B"/>
<path d="M105.107 123.449C114.312 123.449 121.774 116.004 121.774 106.821C121.774 97.6373 114.312 90.1926 105.107 90.1926C95.9016 90.1926 88.4393 97.6373 88.4393 106.821C88.4393 116.004 95.9016 123.449 105.107 123.449Z" fill="#C8032B"/>
<path d="M113.826 92.6287C115.486 95.214 116.448 98.2872 116.448 101.585C116.448 110.769 108.986 118.213 99.7809 118.213C96.5838 118.213 93.5976 117.314 91.0609 115.758C94.0229 120.371 99.2066 123.429 105.106 123.429C114.311 123.429 121.774 115.984 121.774 106.801C121.774 100.807 118.594 95.5548 113.826 92.6287Z" fill="black" fill-opacity="0.2"/>
<path d="M104.039 102.278L100.542 105.35L98.448 102.942L104.138 98.1501H107.586V115.549H104.039V102.278Z" fill="white"/>
</svg>
