<svg width="187" height="155" viewBox="0 0 187 155" fill="none"
  xmlns="http://www.w3.org/2000/svg">
  <path d="M67.8318 6.38782C63.5903 2.12795 58.0178 0 52.4451 0C46.8847 0 41.3286 2.11934 37.087 6.37524L6.34622 37.0975C-2.12033 45.5588 -2.12033 59.3334 6.3758 67.8156L93.1216 154.518V31.6625L67.8318 6.38782Z" fill="#CC0000"/>
  <path d="M179.867 37.0975L149.147 6.39199C144.906 2.12793 139.35 0.00439453 133.802 0.00439453C128.222 0.00439453 122.653 2.1447 118.39 6.42135L93.1295 31.6707L93.1211 31.6623V154.518L93.1295 154.527L179.884 67.8156C188.376 59.3376 188.355 45.5799 179.867 37.0975Z" fill="#7D3F98"/>
</svg>
