<svg width="188" height="191" viewBox="0 0 188 191" fill="none"
  xmlns="http://www.w3.org/2000/svg">
  <g clip-path="url(#clip0)">
    <path d="M-9.83183 190.305C-13.4913 189.325 -16.5453 186.987 -18.4312 183.723C-22.3355 176.964 -20.0094 168.296 -13.2491 164.395L127.361 83.2674C130.628 81.3827 134.442 80.8846 138.102 81.8641C141.762 82.8442 144.816 85.1815 146.702 88.4468L146.702 88.4461C147.986 90.6691 148.596 93.0979 148.596 95.4967C148.596 100.39 146.056 105.156 141.52 107.774L0.909026 188.902C-2.35772 190.786 -6.17171 191.285 -9.83183 190.305Z" fill="#AF0054"/>
    <path d="M127.362 107.76L-13.2479 26.6317C-16.5147 24.747 -18.8542 21.695 -19.8349 18.038C-20.815 14.3816 -20.3166 10.5695 -18.4307 7.3042C-16.5448 4.03961 -13.4908 1.70232 -9.83131 0.722206C-6.17185 -0.257906 -2.35719 0.240172 0.909554 2.12552L141.521 83.2535C146.058 85.8716 148.597 90.6371 148.597 95.531C148.597 97.9291 147.987 100.359 146.703 102.582C142.799 109.337 134.123 111.66 127.362 107.76Z" fill="#FF007A"/>
    <path d="M-38.3905 163.335C-40.4403 159.758 -39.198 155.182 -35.6094 153.126L22.3705 120.22C25.949 118.177 30.5243 119.421 32.5735 122.995C33.2431 124.164 33.5622 125.439 33.5622 126.698C33.5622 129.294 32.2088 131.821 29.7931 133.205L-28.1788 166.107C-31.758 168.156 -36.3386 166.914 -38.3905 163.335Z" fill="#AF0054"/>
    <path d="M77.6643 102.875L-35.6175 37.7178C-39.1974 35.6673 -40.4404 31.089 -38.3899 27.5129C-36.3387 23.9354 -31.7574 22.6932 -28.1742 24.7443L85.1069 89.9024C86.841 90.8952 88.0847 92.5031 88.6085 94.4306C88.7858 95.0824 88.8734 95.7437 88.8734 96.4015C88.8734 97.6885 88.5376 98.9601 87.8799 100.107C86.8865 101.84 85.2769 103.082 83.3481 103.605C81.4194 104.129 79.4017 103.871 77.6643 102.875Z" fill="#FF007A"/>
  </g>
  <defs>
    <clipPath id="clip0">
      <rect width="191" height="188" fill="white" transform="matrix(4.37114e-08 1 1 -4.37114e-08 0 0)"/>
    </clipPath>
  </defs>
</svg>
