<svg width="242" height="179" viewBox="0 0 242 179" fill="none" xmlns="http://www.w3.org/2000/svg">
<rect x="0.299505" y="0.299505" width="241.401" height="177.906" rx="4.49257" fill="white" stroke="#E2E5F0" stroke-width="0.59901"/>
<path d="M36.6031 116.963L15.5747 123.995V164.728H226.426V50.9158L211.199 65.5513C210.53 66.1947 209.637 66.5541 208.709 66.5541H194.702C193.754 66.5541 192.843 66.9292 192.17 67.5976L177.006 82.6527C176.332 83.3211 175.422 83.6962 174.474 83.6962H155.716C154.849 83.6962 154.011 84.0097 153.357 84.579L138.451 97.5495C137.797 98.1188 136.959 98.4323 136.092 98.4323H117.427C116.83 98.4323 116.243 98.5807 115.718 98.8642L98.3905 108.225C97.8657 108.509 97.2786 108.657 96.6822 108.657H80.0013C79.5564 108.657 79.1155 108.74 78.7008 108.901L59.0366 116.534C58.6219 116.695 58.1809 116.777 57.736 116.777H37.743C37.3555 116.777 36.9706 116.84 36.6031 116.963Z" fill="url(#paint0_linear)"/>
<path d="M16.4049 14.3033H19.7366C20.5633 14.3033 21.2066 14.5046 21.6666 14.9071C22.1267 15.3025 22.3567 15.8452 22.3567 16.5352C22.3567 17.2253 22.1231 17.7716 21.6559 18.1741C21.1958 18.5766 20.5561 18.7779 19.7366 18.7779H17.7958V21.9802H16.4049V14.3033ZM19.5749 17.6997C20.0565 17.6997 20.4195 17.6027 20.6639 17.4086C20.9155 17.2073 21.0413 16.9198 21.0413 16.546C21.0413 16.165 20.9191 15.8775 20.6747 15.6834C20.4303 15.4822 20.0637 15.3815 19.5749 15.3815H17.7958V17.6997H19.5749ZM26.2086 16.4058C26.4171 16.4058 26.5968 16.4346 26.7477 16.4921L26.737 17.7213C26.5069 17.6278 26.2697 17.5811 26.0253 17.5811C25.5653 17.5811 25.2131 17.7141 24.9687 17.98C24.7315 18.246 24.6129 18.5982 24.6129 19.0367V21.9802H23.2759V18.0771C23.2759 17.502 23.2471 16.9881 23.1896 16.5352H24.4511L24.559 17.4948C24.6955 17.1426 24.9112 16.8731 25.2059 16.6862C25.5006 16.4993 25.8348 16.4058 26.2086 16.4058ZM29.7542 22.0665C29.2007 22.0665 28.7119 21.9515 28.2878 21.7215C27.8709 21.4914 27.5474 21.1644 27.3174 20.7403C27.0946 20.309 26.9832 19.8058 26.9832 19.2308C26.9832 18.6557 27.0946 18.1561 27.3174 17.732C27.5474 17.3008 27.8709 16.9701 28.2878 16.7401C28.7119 16.5101 29.2007 16.3951 29.7542 16.3951C30.3005 16.3951 30.7821 16.5101 31.199 16.7401C31.6159 16.9701 31.9358 17.3008 32.1586 17.732C32.3886 18.1561 32.5037 18.6557 32.5037 19.2308C32.5037 19.8058 32.3886 20.309 32.1586 20.7403C31.9358 21.1644 31.6159 21.4914 31.199 21.7215C30.7821 21.9515 30.3005 22.0665 29.7542 22.0665ZM29.7434 21.0098C30.2035 21.0098 30.5521 20.8625 30.7893 20.5678C31.0337 20.2659 31.1559 19.8202 31.1559 19.2308C31.1559 18.6485 31.0337 18.2065 30.7893 17.9046C30.5449 17.5955 30.1999 17.4409 29.7542 17.4409C29.3013 17.4409 28.9527 17.5955 28.7083 17.9046C28.4639 18.2065 28.3417 18.6485 28.3417 19.2308C28.3417 19.8202 28.4603 20.2659 28.6975 20.5678C28.9419 20.8625 29.2906 21.0098 29.7434 21.0098ZM32.1672 23.177C32.3613 23.2346 32.5374 23.2633 32.6955 23.2633C32.9543 23.2633 33.1628 23.1878 33.3209 23.0369C33.479 22.8859 33.5581 22.6415 33.5581 22.3037V16.5352H34.8951V22.3684C34.8951 23.0153 34.7298 23.5113 34.3991 23.8563C34.0757 24.2014 33.612 24.3739 33.0082 24.3739C32.6848 24.3739 32.4044 24.3343 32.1672 24.2553V23.177ZM34.9706 14.0661V15.3923H33.4719V14.0661H34.9706ZM41.0274 19.3278H37.2752C37.3039 19.91 37.4477 20.3413 37.7065 20.6217C37.9724 20.8948 38.3642 21.0314 38.8817 21.0314C39.4783 21.0314 40.0318 20.8373 40.5422 20.4492L40.9303 21.3764C40.6716 21.5849 40.3517 21.7538 39.9707 21.8832C39.597 22.0054 39.216 22.0665 38.8278 22.0665C37.9365 22.0665 37.2357 21.8149 36.7253 21.3117C36.2149 20.8086 35.9598 20.1185 35.9598 19.2416C35.9598 18.6881 36.0712 18.1957 36.294 17.7644C36.5168 17.3331 36.8295 16.9989 37.2321 16.7616C37.6346 16.5173 38.091 16.3951 38.6014 16.3951C39.349 16.3951 39.9384 16.6395 40.3697 17.1282C40.8082 17.6098 41.0274 18.2747 41.0274 19.1229V19.3278ZM38.6337 17.3655C38.2743 17.3655 37.9796 17.4733 37.7496 17.6889C37.5268 17.8974 37.383 18.2029 37.3183 18.6054H39.8521C39.809 18.1957 39.6832 17.8866 39.4748 17.6781C39.2735 17.4697 38.9932 17.3655 38.6337 17.3655ZM44.53 22.0665C43.9621 22.0665 43.4697 21.9515 43.0528 21.7215C42.6359 21.4914 42.3161 21.168 42.0932 20.7511C41.8704 20.327 41.759 19.831 41.759 19.2631C41.759 18.6953 41.874 18.1957 42.104 17.7644C42.3412 17.3331 42.6719 16.9989 43.096 16.7616C43.5273 16.5173 44.0232 16.3951 44.5839 16.3951C44.9721 16.3951 45.3458 16.4562 45.7053 16.5784C46.0718 16.7006 46.363 16.8695 46.5786 17.0851L46.2012 18.0339C45.9712 17.8471 45.7268 17.7069 45.468 17.6134C45.2093 17.5128 44.9541 17.4625 44.7025 17.4625C44.2137 17.4625 43.8327 17.617 43.5596 17.9261C43.2865 18.228 43.1499 18.6665 43.1499 19.2416C43.1499 19.8166 43.2829 20.2551 43.5488 20.557C43.822 20.8589 44.2065 21.0098 44.7025 21.0098C44.9541 21.0098 45.2093 20.9595 45.468 20.8589C45.7268 20.7582 45.9712 20.6145 46.2012 20.4276L46.5786 21.3764C46.3486 21.5921 46.0503 21.761 45.6837 21.8832C45.3171 22.0054 44.9325 22.0665 44.53 22.0665ZM49.1217 17.5487V19.9855C49.1217 20.6253 49.42 20.9451 50.0166 20.9451C50.1819 20.9451 50.3616 20.9164 50.5557 20.8589V21.9263C50.3185 22.0126 50.031 22.0557 49.6931 22.0557C49.075 22.0557 48.6005 21.8832 48.2699 21.5382C47.9392 21.1931 47.7739 20.6971 47.7739 20.0502V17.5487H46.728V16.5352H47.7739V15.209L49.1217 14.7562V16.5352H50.5665V17.5487H49.1217ZM60.6513 21.9802H59.1849L58.2037 19.4248C58.1175 19.1876 57.9845 19.0223 57.8048 18.9289C57.6251 18.8354 57.3915 18.7887 57.104 18.7887H55.7131V21.9802H54.3329V14.3033H57.6215C58.4913 14.3033 59.1526 14.4938 59.6054 14.8748C60.0583 15.2557 60.2847 15.802 60.2847 16.5137C60.2847 17.024 60.1481 17.4589 59.875 17.8183C59.609 18.1705 59.228 18.4221 58.7321 18.5731C59.1849 18.6665 59.512 18.9828 59.7132 19.5219L60.6513 21.9802ZM57.4274 17.7105C57.9522 17.7105 58.3403 17.6134 58.5919 17.4194C58.8435 17.2253 58.9693 16.9306 58.9693 16.5352C58.9693 16.1471 58.8435 15.8595 58.5919 15.6726C58.3475 15.4786 57.9593 15.3815 57.4274 15.3815H55.6915V17.7105H57.4274ZM66.4645 19.3278H62.7123C62.741 19.91 62.8848 20.3413 63.1436 20.6217C63.4095 20.8948 63.8013 21.0314 64.3188 21.0314C64.9154 21.0314 65.4689 20.8373 65.9793 20.4492L66.3674 21.3764C66.1087 21.5849 65.7888 21.7538 65.4078 21.8832C65.034 22.0054 64.6531 22.0665 64.2649 22.0665C63.3736 22.0665 62.6728 21.8149 62.1624 21.3117C61.652 20.8086 61.3969 20.1185 61.3969 19.2416C61.3969 18.6881 61.5083 18.1957 61.7311 17.7644C61.9539 17.3331 62.2666 16.9989 62.6692 16.7616C63.0717 16.5173 63.5281 16.3951 64.0385 16.3951C64.7861 16.3951 65.3755 16.6395 65.8068 17.1282C66.2452 17.6098 66.4645 18.2747 66.4645 19.1229V19.3278ZM64.0708 17.3655C63.7114 17.3655 63.4167 17.4733 63.1867 17.6889C62.9639 17.8974 62.8201 18.2029 62.7554 18.6054H65.2892C65.2461 18.1957 65.1203 17.8866 64.9119 17.6781C64.7106 17.4697 64.4302 17.3655 64.0708 17.3655ZM72.5571 16.546L70.1742 21.9802H68.999L66.6485 16.546H68.0609L69.6243 20.4492L71.2201 16.546H72.5571ZM77.8207 19.3278H74.0685C74.0973 19.91 74.241 20.3413 74.4998 20.6217C74.7658 20.8948 75.1575 21.0314 75.6751 21.0314C76.2717 21.0314 76.8252 20.8373 77.3355 20.4492L77.7237 21.3764C77.4649 21.5849 77.145 21.7538 76.7641 21.8832C76.3903 22.0054 76.0093 22.0665 75.6212 22.0665C74.7298 22.0665 74.029 21.8149 73.5186 21.3117C73.0083 20.8086 72.7531 20.1185 72.7531 19.2416C72.7531 18.6881 72.8645 18.1957 73.0874 17.7644C73.3102 17.3331 73.6229 16.9989 74.0254 16.7616C74.4279 16.5173 74.8844 16.3951 75.3947 16.3951C76.1423 16.3951 76.7317 16.6395 77.163 17.1282C77.6015 17.6098 77.8207 18.2747 77.8207 19.1229V19.3278ZM75.4271 17.3655C75.0677 17.3655 74.773 17.4733 74.5429 17.6889C74.3201 17.8974 74.1764 18.2029 74.1117 18.6054H76.6455C76.6023 18.1957 76.4766 17.8866 76.2681 17.6781C76.0668 17.4697 75.7865 17.3655 75.4271 17.3655ZM81.9703 16.3951C83.2713 16.3951 83.9218 17.1426 83.9218 18.6377V21.9802H82.5741V18.7024C82.5741 18.2712 82.4914 17.9585 82.3261 17.7644C82.1608 17.5631 81.9056 17.4625 81.5605 17.4625C81.1508 17.4625 80.8202 17.5955 80.5686 17.8614C80.317 18.1202 80.1912 18.4652 80.1912 18.8965V21.9802H78.8542V18.0771C78.8542 17.502 78.8255 16.9881 78.768 16.5352H80.0295L80.1265 17.4301C80.3134 17.0995 80.565 16.8443 80.8813 16.6646C81.2047 16.4849 81.5677 16.3951 81.9703 16.3951ZM90.2029 16.5352V21.9802H88.8875V21.1392C88.7149 21.4411 88.4849 21.6711 88.1974 21.8293C87.9099 21.9874 87.5792 22.0665 87.2054 22.0665C85.8756 22.0665 85.2107 21.3189 85.2107 19.8238V16.5352H86.5477V19.8346C86.5477 20.2299 86.6268 20.521 86.7849 20.7079C86.9503 20.8948 87.2018 20.9883 87.5397 20.9883C87.935 20.9883 88.2513 20.8589 88.4885 20.6001C88.7257 20.3413 88.8443 19.9963 88.8443 19.565V16.5352H90.2029ZM96.324 19.3278H92.5718C92.6005 19.91 92.7443 20.3413 93.0031 20.6217C93.269 20.8948 93.6608 21.0314 94.1783 21.0314C94.7749 21.0314 95.3284 20.8373 95.8388 20.4492L96.2269 21.3764C95.9682 21.5849 95.6483 21.7538 95.2673 21.8832C94.8935 22.0054 94.5126 22.0665 94.1244 22.0665C93.2331 22.0665 92.5322 21.8149 92.0219 21.3117C91.5115 20.8086 91.2563 20.1185 91.2563 19.2416C91.2563 18.6881 91.3678 18.1957 91.5906 17.7644C91.8134 17.3331 92.1261 16.9989 92.5286 16.7616C92.9312 16.5173 93.3876 16.3951 93.898 16.3951C94.6455 16.3951 95.235 16.6395 95.6662 17.1282C96.1047 17.6098 96.324 18.2747 96.324 19.1229V19.3278ZM93.9303 17.3655C93.5709 17.3655 93.2762 17.4733 93.0462 17.6889C92.8233 17.8974 92.6796 18.2029 92.6149 18.6054H95.1487C95.1056 18.1957 94.9798 17.8866 94.7713 17.6781C94.5701 17.4697 94.2897 17.3655 93.9303 17.3655Z" fill="#35365E"/>
<path opacity="0.7" d="M16.3606 38.9504V32.1936H17.3478V38.1262H20.6256V38.9504H16.3606ZM23.4421 34.1584C24.0683 34.1584 24.5315 34.3149 24.8318 34.628C25.1385 34.9411 25.2918 35.4171 25.2918 36.056V38.9504H24.3622V38.1741C24.2408 38.4489 24.0587 38.6597 23.8159 38.8067C23.5795 38.9472 23.3015 39.0175 22.9821 39.0175C22.6754 39.0175 22.3942 38.9568 22.1387 38.8354C21.8831 38.7076 21.6818 38.5319 21.5349 38.3083C21.3943 38.0847 21.324 37.8355 21.324 37.5607C21.324 37.2221 21.4103 36.9569 21.5828 36.7653C21.7617 36.5672 22.0524 36.4266 22.4549 36.3435C22.8639 36.2605 23.4229 36.219 24.1322 36.219H24.3526V35.941C24.3526 35.5832 24.2759 35.3244 24.1226 35.1647C23.9756 35.005 23.7328 34.9251 23.3942 34.9251C22.8639 34.9251 22.3335 35.088 21.8032 35.4139L21.5157 34.7334C21.7649 34.5609 22.0652 34.4235 22.4166 34.3213C22.7744 34.2127 23.1162 34.1584 23.4421 34.1584ZM23.1546 38.2987C23.506 38.2987 23.7935 38.1805 24.0172 37.9441C24.2408 37.7013 24.3526 37.3914 24.3526 37.0144V36.7653H24.1801C23.6817 36.7653 23.2983 36.7876 23.03 36.8323C22.7616 36.8771 22.5699 36.9537 22.4549 37.0624C22.3399 37.1646 22.2824 37.3147 22.2824 37.5128C22.2824 37.7364 22.3623 37.9249 22.522 38.0783C22.6881 38.2252 22.899 38.2987 23.1546 38.2987ZM28.2644 39.0175C27.453 39.0175 26.8044 38.8195 26.3188 38.4233L26.616 37.7237C27.0952 38.0943 27.6542 38.2795 28.2932 38.2795C28.6063 38.2795 28.8459 38.2284 29.012 38.1262C29.1781 38.0176 29.2612 37.8674 29.2612 37.6757C29.2612 37.5096 29.2037 37.3786 29.0887 37.2828C28.9801 37.187 28.7884 37.1071 28.5136 37.0432L27.7373 36.8707C27.322 36.7748 27.0089 36.6183 26.7981 36.4011C26.5872 36.1838 26.4818 35.9091 26.4818 35.5768C26.4818 35.1551 26.6511 34.8133 26.9897 34.5513C27.3348 34.2893 27.7852 34.1584 28.3411 34.1584C28.6734 34.1584 28.9896 34.2127 29.2899 34.3213C29.5902 34.4235 29.849 34.5705 30.0663 34.7622L29.7691 35.4426C29.3091 35.0784 28.8331 34.8963 28.3411 34.8963C28.0472 34.8963 27.814 34.9538 27.6415 35.0689C27.4753 35.1839 27.3923 35.3404 27.3923 35.5385C27.3923 35.6982 27.4434 35.8292 27.5456 35.9314C27.6542 36.0273 27.8236 36.1007 28.0536 36.1519L28.8491 36.334C29.3027 36.4362 29.635 36.5959 29.8458 36.8132C30.0567 37.024 30.1621 37.302 30.1621 37.647C30.1621 38.0687 29.9896 38.4041 29.6446 38.6533C29.3059 38.8961 28.8459 39.0175 28.2644 39.0175ZM33.4067 38.27C33.5537 38.27 33.6974 38.2604 33.838 38.2412L33.7901 38.9792C33.6303 39.0047 33.4642 39.0175 33.2917 39.0175C32.6847 39.0175 32.2311 38.8706 31.9307 38.5767C31.6368 38.2764 31.4899 37.8451 31.4899 37.2828V35.0209H30.5794V34.2734H31.4899V32.8645H32.4579V34.2734H33.7422V35.0209H32.4579V37.2445C32.4579 37.9281 32.7742 38.27 33.4067 38.27ZM39.648 34.6663C40.0569 34.6663 40.4179 34.759 40.731 34.9443C41.0505 35.1232 41.2965 35.3755 41.469 35.7014C41.6479 36.0273 41.7374 36.4011 41.7374 36.8228C41.7374 37.2445 41.6415 37.6246 41.4498 37.9633C41.2645 38.2955 41.0026 38.5575 40.6639 38.7492C40.3253 38.9345 39.9451 39.0271 39.5234 39.0271C38.6864 39.0271 38.0411 38.7428 37.5874 38.1741C37.1402 37.5991 36.9165 36.7812 36.9165 35.7206C36.9165 34.9666 37.022 34.3213 37.2328 33.7846C37.4437 33.2415 37.7504 32.8294 38.1529 32.5482C38.5554 32.2607 39.0346 32.1169 39.5905 32.1169C39.9867 32.1169 40.3732 32.1872 40.7502 32.3278C41.1272 32.4684 41.4562 32.6696 41.7374 32.9316L41.3828 33.66C40.7821 33.168 40.1943 32.922 39.6193 32.922C39.0698 32.922 38.6449 33.1648 38.3446 33.6504C38.0443 34.1296 37.8941 34.8133 37.8941 35.7014V35.7302C38.0347 35.3979 38.2615 35.1391 38.5746 34.9538C38.8941 34.7622 39.2519 34.6663 39.648 34.6663ZM39.4755 38.222C39.8716 38.222 40.1879 38.0974 40.4243 37.8483C40.6607 37.5927 40.7789 37.2572 40.7789 36.8419C40.7789 36.4266 40.6575 36.0944 40.4148 35.8452C40.1783 35.596 39.8621 35.4714 39.4659 35.4714C39.0698 35.4714 38.7439 35.5992 38.4883 35.8548C38.2328 36.1039 38.105 36.433 38.105 36.8419C38.105 37.2508 38.2296 37.5831 38.4788 37.8387C38.7343 38.0943 39.0666 38.222 39.4755 38.222ZM50.7302 34.1584C51.7781 34.1584 52.302 34.7877 52.302 36.0464V38.9504H51.334V36.0848C51.334 35.6886 51.2637 35.4011 51.1232 35.2222C50.989 35.0369 50.7686 34.9443 50.4619 34.9443C50.1105 34.9443 49.8325 35.0657 49.628 35.3085C49.4236 35.5513 49.3214 35.8835 49.3214 36.3052V38.9504H48.3534V36.0848C48.3534 35.6886 48.2831 35.4011 48.1425 35.2222C48.0019 35.0369 47.7815 34.9443 47.4812 34.9443C47.1234 34.9443 46.8423 35.0657 46.6378 35.3085C46.4333 35.5513 46.3311 35.8835 46.3311 36.3052V38.9504H45.3631V34.2734H46.3119V34.9826C46.4589 34.7206 46.657 34.5194 46.9061 34.3788C47.1553 34.2318 47.4397 34.1584 47.7591 34.1584C48.4811 34.1584 48.9508 34.4587 49.168 35.0593C49.315 34.7781 49.5258 34.5577 49.8006 34.398C50.0753 34.2382 50.3852 34.1584 50.7302 34.1584ZM55.6594 39.0175C55.1994 39.0175 54.7936 38.9185 54.4422 38.7204C54.0972 38.5223 53.8288 38.2412 53.6371 37.877C53.4519 37.5064 53.3592 37.0783 53.3592 36.5927C53.3592 36.1007 53.4519 35.6727 53.6371 35.3085C53.8288 34.9379 54.0972 34.6535 54.4422 34.4555C54.7936 34.2574 55.1994 34.1584 55.6594 34.1584C56.1194 34.1584 56.522 34.2574 56.867 34.4555C57.2184 34.6535 57.4868 34.9379 57.6721 35.3085C57.8638 35.6727 57.9596 36.1007 57.9596 36.5927C57.9596 37.0783 57.8638 37.5064 57.6721 37.877C57.4868 38.2412 57.2184 38.5223 56.867 38.7204C56.522 38.9185 56.1194 39.0175 55.6594 39.0175ZM55.6594 38.2508C56.0875 38.2508 56.4134 38.1102 56.637 37.8291C56.867 37.548 56.982 37.1358 56.982 36.5927C56.982 36.056 56.867 35.6471 56.637 35.366C56.407 35.0784 56.0811 34.9347 55.6594 34.9347C55.2377 34.9347 54.9118 35.0784 54.6818 35.366C54.4518 35.6471 54.3368 36.056 54.3368 36.5927C54.3368 37.1358 54.4486 37.548 54.6722 37.8291C54.9023 38.1102 55.2313 38.2508 55.6594 38.2508ZM61.558 34.1584C62.6762 34.1584 63.2352 34.7877 63.2352 36.0464V38.9504H62.2672V36.0944C62.2672 35.6982 62.1874 35.4075 62.0276 35.2222C61.8743 35.0369 61.6315 34.9443 61.2992 34.9443C60.9095 34.9443 60.5964 35.0657 60.36 35.3085C60.1236 35.5513 60.0054 35.8771 60.0054 36.286V38.9504H59.0374V34.2734H59.9862V35.0209C60.1395 34.7398 60.3536 34.5258 60.6283 34.3788C60.9031 34.2318 61.213 34.1584 61.558 34.1584ZM66.7734 38.27C66.9204 38.27 67.0642 38.2604 67.2047 38.2412L67.1568 38.9792C66.9971 39.0047 66.8309 39.0175 66.6584 39.0175C66.0514 39.0175 65.5978 38.8706 65.2975 38.5767C65.0036 38.2764 64.8566 37.8451 64.8566 37.2828V35.0209H63.9461V34.2734H64.8566V32.8645H65.8246V34.2734H67.1089V35.0209H65.8246V37.2445C65.8246 37.9281 66.1409 38.27 66.7734 38.27ZM70.4589 34.1584C71.5771 34.1584 72.1361 34.7877 72.1361 36.0464V38.9504H71.1681V36.0944C71.1681 35.6982 71.0883 35.4075 70.9285 35.2222C70.7752 35.0369 70.5324 34.9443 70.2001 34.9443C69.8104 34.9443 69.4973 35.0657 69.2609 35.3085C69.0245 35.5513 68.9063 35.8771 68.9063 36.286V38.9504H67.9383V32.1936H68.9063V34.9826C69.066 34.7142 69.2801 34.5098 69.5484 34.3692C69.8168 34.2286 70.1203 34.1584 70.4589 34.1584ZM75.1089 39.0175C74.2974 39.0175 73.6489 38.8195 73.1633 38.4233L73.4604 37.7237C73.9396 38.0943 74.4987 38.2795 75.1376 38.2795C75.4507 38.2795 75.6903 38.2284 75.8564 38.1262C76.0226 38.0176 76.1056 37.8674 76.1056 37.6757C76.1056 37.5096 76.0481 37.3786 75.9331 37.2828C75.8245 37.187 75.6328 37.1071 75.3581 37.0432L74.5818 36.8707C74.1664 36.7748 73.8534 36.6183 73.6425 36.4011C73.4317 36.1838 73.3262 35.9091 73.3262 35.5768C73.3262 35.1551 73.4955 34.8133 73.8342 34.5513C74.1792 34.2893 74.6297 34.1584 75.1856 34.1584C75.5178 34.1584 75.8341 34.2127 76.1344 34.3213C76.4347 34.4235 76.6935 34.5705 76.9107 34.7622L76.6136 35.4426C76.1536 35.0784 75.6775 34.8963 75.1856 34.8963C74.8916 34.8963 74.6584 34.9538 74.4859 35.0689C74.3198 35.1839 74.2367 35.3404 74.2367 35.5385C74.2367 35.6982 74.2878 35.8292 74.3901 35.9314C74.4987 36.0273 74.668 36.1007 74.898 36.1519L75.6935 36.334C76.1472 36.4362 76.4794 36.5959 76.6903 36.8132C76.9011 37.024 77.0065 37.302 77.0065 37.647C77.0065 38.0687 76.834 38.4041 76.489 38.6533C76.1504 38.8961 75.6903 39.0175 75.1089 39.0175Z" fill="#E2E5F0"/>
<path d="M15.5747 123.995L36.6031 116.963C36.9706 116.84 37.3555 116.777 37.743 116.777H57.736C58.1809 116.777 58.6219 116.695 59.0366 116.534L78.7008 108.901C79.1155 108.74 79.5564 108.657 80.0013 108.657H96.6822C97.2786 108.657 97.8657 108.509 98.3905 108.225L115.718 98.8642C116.243 98.5807 116.83 98.4323 117.427 98.4323H136.092C136.959 98.4323 137.797 98.1188 138.451 97.5495L153.357 84.5789C154.011 84.0097 154.849 83.6962 155.716 83.6962H174.474C175.422 83.6962 176.332 83.3211 177.006 82.6527L192.17 67.5976C192.843 66.9292 193.754 66.5541 194.702 66.5541H208.709C209.637 66.5541 210.53 66.1947 211.199 65.5513L226.426 50.9158" stroke="#365EBB" stroke-width="1.49752"/>
<defs>
<linearGradient id="paint0_linear" x1="121" y1="50.9158" x2="121" y2="164.728" gradientUnits="userSpaceOnUse">
<stop stop-color="#365EBB" stop-opacity="0.5"/>
<stop offset="0.994792" stop-color="#365EBB" stop-opacity="0"/>
</linearGradient>
</defs>
</svg>
