<svg width="157" height="152" viewBox="0 0 157 152" fill="none" xmlns="http://www.w3.org/2000/svg">
<rect y="0.289551" width="157" height="151.421" rx="5" fill="white"/>
<path d="M63.6148 37.7461C38.6444 37.7461 18.3301 58.0605 18.3301 83.0309C18.3301 89.6639 19.7639 95.9678 22.3367 101.65C22.6395 102.319 22.9582 102.979 23.292 103.63C23.9598 104.931 24.6883 106.196 25.4743 107.421C25.6708 107.727 25.8713 108.032 26.075 108.333C29.7405 113.754 34.5491 118.343 40.1509 121.751C41.7069 122.697 43.3244 123.553 44.9955 124.309C45.664 124.612 46.3414 124.898 47.0267 125.169C52.166 127.2 57.7622 128.316 63.6148 128.316C88.5852 128.316 108.9 108.001 108.9 83.0309C108.9 58.0605 88.5844 37.7461 63.6148 37.7461ZM96.3565 84.8369C96.3349 85.2395 96.3038 85.6404 96.2678 86.0398C96.2079 86.6988 96.1296 87.3538 96.0314 88.0008C96.0306 88.0064 96.0298 88.012 96.029 88.0176C95.906 88.8212 95.7526 89.6151 95.5729 90.3987C95.5705 90.4083 95.5689 90.4179 95.5665 90.4267C94.3715 95.5891 91.9529 100.288 88.6356 104.201C88.3879 104.494 88.1363 104.784 87.8783 105.067C87.5756 105.401 87.2641 105.727 86.947 106.047C86.895 106.1 86.8439 106.154 86.792 106.206C86.7393 106.259 86.6858 106.309 86.633 106.361C86.3119 106.678 85.986 106.989 85.6522 107.293C85.3686 107.551 85.0786 107.802 84.7863 108.05C80.8723 111.367 76.1739 113.786 71.0115 114.981C71.0019 114.983 70.9923 114.985 70.9827 114.987C70.1991 115.168 69.4051 115.32 68.6016 115.443C68.596 115.444 68.5904 115.445 68.5848 115.446C67.937 115.545 67.2828 115.622 66.6238 115.682C66.2252 115.719 65.8242 115.749 65.4217 115.771C64.8234 115.804 64.2211 115.821 63.6148 115.821C63.0086 115.821 62.4063 115.804 61.808 115.771C61.4054 115.749 61.0045 115.718 60.6059 115.682C59.9469 115.622 59.2919 115.544 58.6449 115.446C58.6393 115.445 58.6337 115.444 58.6281 115.443C57.8245 115.32 57.0306 115.168 56.247 114.987C56.2374 114.985 56.2278 114.983 56.2182 114.981C51.0558 113.786 46.3574 111.367 42.4434 108.05C42.151 107.802 41.8611 107.551 41.5775 107.293C41.2436 106.989 40.9177 106.678 40.5966 106.361C40.5439 106.309 40.4904 106.258 40.4377 106.206C40.385 106.154 40.3346 106.1 40.2827 106.047C39.9664 105.726 39.6549 105.4 39.3514 105.067C39.0933 104.784 38.8425 104.494 38.5941 104.201C35.2768 100.288 32.8581 95.5891 31.6632 90.4267C31.6608 90.4171 31.6592 90.4075 31.6568 90.3987C31.4763 89.6151 31.3237 88.8212 31.2007 88.0176C31.1999 88.012 31.1991 88.0064 31.1983 88.0008C31.0992 87.353 31.0218 86.6988 30.9619 86.0398C30.9251 85.6404 30.8948 85.2403 30.8732 84.8369C30.8404 84.2386 30.8229 83.6363 30.8229 83.0301C30.8229 64.9483 45.5338 50.2381 63.6148 50.2381C81.6966 50.2381 96.4068 64.9491 96.4068 83.0301C96.4068 83.6371 96.3892 84.2394 96.3565 84.8369Z" fill="#3282FF" fill-opacity="0.25"/>
<mask id="mask0" mask-type="alpha" maskUnits="userSpaceOnUse" x="18" y="37" width="91" height="92">
<path d="M63.6163 37.7461C38.6459 37.7461 18.3315 58.0605 18.3315 83.0309C18.3315 89.6639 19.7653 95.9678 22.3382 101.65C22.6409 102.319 22.9596 102.979 23.2935 103.63C23.9613 104.931 24.6898 106.196 25.4758 107.421C25.6723 107.727 25.8727 108.032 26.0764 108.333C29.742 113.754 34.5506 118.343 40.1524 121.751C41.7084 122.697 43.3259 123.553 44.9969 124.309C45.6655 124.612 46.3429 124.898 47.0282 125.169C52.1675 127.2 57.7637 128.316 63.6163 128.316C88.5867 128.316 108.901 108.001 108.901 83.0309C108.901 58.0605 88.5859 37.7461 63.6163 37.7461ZM96.358 84.8369C96.3364 85.2395 96.3052 85.6404 96.2693 86.0398C96.2094 86.6988 96.1311 87.3538 96.0329 88.0008C96.0321 88.0064 96.0313 88.012 96.0305 88.0176C95.9075 88.8212 95.7541 89.6151 95.5744 90.3987C95.572 90.4083 95.5704 90.4179 95.568 90.4267C94.373 95.5891 91.9543 100.288 88.637 104.201C88.3894 104.494 88.1378 104.784 87.8798 105.067C87.5771 105.401 87.2655 105.727 86.9484 106.047C86.8965 106.1 86.8454 106.154 86.7935 106.206C86.7407 106.259 86.6872 106.309 86.6345 106.361C86.3134 106.678 85.9875 106.989 85.6536 107.293C85.37 107.551 85.0801 107.802 84.7878 108.05C80.8738 111.367 76.1754 113.786 71.0129 114.981C71.0033 114.983 70.9938 114.985 70.9842 114.987C70.2006 115.168 69.4066 115.32 68.603 115.443C68.5974 115.444 68.5919 115.445 68.5863 115.446C67.9385 115.545 67.2843 115.622 66.6253 115.682C66.2267 115.719 65.8257 115.749 65.4231 115.771C64.8248 115.804 64.2226 115.821 63.6163 115.821C63.01 115.821 62.4078 115.804 61.8095 115.771C61.4069 115.749 61.0059 115.718 60.6073 115.682C59.9483 115.622 59.2934 115.544 58.6463 115.446C58.6408 115.445 58.6352 115.444 58.6296 115.443C57.826 115.32 57.032 115.168 56.2484 114.987C56.2389 114.985 56.2293 114.983 56.2197 114.981C51.0572 113.786 46.3588 111.367 42.4449 108.05C42.1525 107.802 41.8626 107.551 41.579 107.293C41.2451 106.989 40.9192 106.678 40.5981 106.361C40.5454 106.309 40.4919 106.258 40.4391 106.206C40.3864 106.154 40.3361 106.1 40.2842 106.047C39.9679 105.726 39.6563 105.4 39.3528 105.067C39.0948 104.784 38.844 104.494 38.5956 104.201C35.2783 100.288 32.8596 95.5891 31.6646 90.4267C31.6622 90.4171 31.6606 90.4075 31.6582 90.3987C31.4777 89.6151 31.3252 88.8212 31.2022 88.0176C31.2014 88.012 31.2006 88.0064 31.1998 88.0008C31.1007 87.353 31.0232 86.6988 30.9633 86.0398C30.9266 85.6404 30.8962 85.2403 30.8747 84.8369C30.8419 84.2386 30.8243 83.6363 30.8243 83.0301C30.8243 64.9483 45.5353 50.2381 63.6163 50.2381C81.6981 50.2381 96.4083 64.9491 96.4083 83.0301C96.4083 83.6371 96.3907 84.2394 96.358 84.8369Z" fill="#35365D"/>
</mask>
<g mask="url(#mask0)">
<path d="M63.6157 37.7461C88.5861 37.7461 108.101 27.9595 108.101 52.9299L86.2581 66.5153C63.6157 69.9782 81.6975 50.2389 63.6157 50.2389" fill="#3282FF"/>
<path d="M92.25 66.6994C81.728 73.1746 96.3241 60.937 80.6646 69.978L110.499 48.934C132.124 36.4487 90.5836 38.828 103.069 60.4531" fill="#FA4F76"/>
<path d="M103.339 60.919L103.07 60.4543L92.2515 66.7007L92.5198 67.1653L101.052 69.4516L103.339 60.919Z" fill="#FA4F76"/>
</g>
<path d="M44.0678 81.3418H43.3035V76.547H41.5508V75.8752H45.8205V76.547H44.0678V81.3418ZM49.4775 79.5042C49.4775 79.7873 49.4261 80.0472 49.3231 80.284C49.2253 80.5208 49.0863 80.7267 48.9062 80.9017C48.7312 81.0716 48.5227 81.2054 48.2808 81.3032C48.0388 81.3958 47.7789 81.4422 47.5009 81.4422C47.223 81.4422 46.963 81.3958 46.7211 81.3032C46.4792 81.2054 46.2707 81.0716 46.0957 80.9017C45.9207 80.7267 45.7817 80.5208 45.6787 80.284C45.5809 80.0472 45.532 79.7873 45.532 79.5042C45.532 79.2211 45.5809 78.9637 45.6787 78.7321C45.7817 78.4953 45.9207 78.2919 46.0957 78.1221C46.2707 77.9522 46.4792 77.821 46.7211 77.7283C46.963 77.6305 47.223 77.5816 47.5009 77.5816C47.7789 77.5816 48.0388 77.6305 48.2808 77.7283C48.5227 77.821 48.7312 77.9522 48.9062 78.1221C49.0863 78.2919 49.2253 78.4953 49.3231 78.7321C49.4261 78.9637 49.4775 79.2211 49.4775 79.5042ZM48.7209 79.5042C48.7209 79.3292 48.6925 79.1619 48.6359 79.0023C48.5845 78.8427 48.5072 78.7037 48.4043 78.5853C48.3013 78.4618 48.1727 78.364 48.0182 78.2919C47.869 78.2199 47.6965 78.1838 47.5009 78.1838C47.3053 78.1838 47.1303 78.2199 46.9759 78.2919C46.8266 78.364 46.7005 78.4618 46.5975 78.5853C46.4946 78.7037 46.4148 78.8427 46.3582 79.0023C46.3067 79.1619 46.281 79.3292 46.281 79.5042C46.281 79.6792 46.3067 79.8465 46.3582 80.006C46.4148 80.1656 46.4946 80.3072 46.5975 80.4307C46.7005 80.5542 46.8266 80.652 46.9759 80.7241C47.1303 80.7962 47.3053 80.8322 47.5009 80.8322C47.6965 80.8322 47.869 80.7962 48.0182 80.7241C48.1727 80.652 48.3013 80.5542 48.4043 80.4307C48.5072 80.3072 48.5845 80.1656 48.6359 80.006C48.6925 79.8465 48.7209 79.6792 48.7209 79.5042ZM52.2753 78.2765H51.3024V80.1836C51.3024 80.405 51.3436 80.5645 51.426 80.6623C51.5083 80.755 51.6396 80.8013 51.8198 80.8013C51.8867 80.8013 51.9587 80.7936 52.0359 80.7782C52.1132 80.7627 52.1826 80.7395 52.2444 80.7087L52.2676 81.3032C52.1801 81.3341 52.0823 81.3572 51.9742 81.3727C51.8712 81.3933 51.7631 81.4036 51.6499 81.4036C51.305 81.4036 51.0399 81.3083 50.8546 81.1179C50.6744 80.9274 50.5844 80.6417 50.5844 80.2608V78.2765H49.8817V77.682H50.5844V76.6319H51.3024V77.682H52.2753V78.2765ZM55.3028 78.9714C55.3028 78.6986 55.2204 78.4978 55.0557 78.3692C54.891 78.2353 54.6722 78.1684 54.3994 78.1684C54.1935 78.1684 53.9979 78.2096 53.8126 78.2919C53.6324 78.3692 53.4806 78.4695 53.357 78.5931L52.971 78.1298C53.1511 77.9599 53.3699 77.8261 53.6273 77.7283C53.8898 77.6305 54.1703 77.5816 54.4689 77.5816C54.7314 77.5816 54.9579 77.6202 55.1483 77.6974C55.3439 77.7695 55.5035 77.8699 55.6271 77.9985C55.7506 78.1272 55.8432 78.2791 55.905 78.4541C55.9668 78.6291 55.9977 78.817 55.9977 79.0177V80.616C55.9977 80.7395 56.0002 80.8708 56.0054 81.0098C56.0157 81.1436 56.0311 81.2543 56.0517 81.3418H55.3954C55.3542 81.1668 55.3337 80.9918 55.3337 80.8168H55.3105C55.1767 81.0124 55.0068 81.1642 54.8009 81.2723C54.6001 81.3804 54.3608 81.4345 54.0828 81.4345C53.9387 81.4345 53.7869 81.4139 53.6273 81.3727C53.4729 81.3366 53.3313 81.2749 53.2026 81.1874C53.0739 81.0999 52.9658 80.9841 52.8783 80.8399C52.796 80.6958 52.7548 80.5182 52.7548 80.3072C52.7548 80.0292 52.8294 79.8104 52.9787 79.6509C53.128 79.4861 53.3236 79.3626 53.5655 79.2803C53.8074 79.1927 54.0803 79.1361 54.384 79.1104C54.6877 79.0846 54.9939 79.0718 55.3028 79.0718V78.9714ZM55.1252 79.5968C54.945 79.5968 54.7571 79.6045 54.5615 79.62C54.3711 79.6354 54.1961 79.6663 54.0365 79.7126C53.8821 79.759 53.7534 79.8285 53.6504 79.9211C53.5475 80.0138 53.496 80.1373 53.496 80.2917C53.496 80.3998 53.5166 80.4899 53.5578 80.562C53.6041 80.634 53.6633 80.6932 53.7354 80.7395C53.8074 80.7859 53.8872 80.8193 53.9747 80.8399C54.0622 80.8554 54.1523 80.8631 54.245 80.8631C54.5847 80.8631 54.8446 80.7627 55.0248 80.562C55.2101 80.3561 55.3028 80.0987 55.3028 79.7898V79.5968H55.1252ZM57.9511 81.3418H57.2253V75.5046H57.9511V81.3418ZM61.1844 75.8752H63.0684C63.2743 75.8752 63.4802 75.8984 63.6861 75.9447C63.892 75.991 64.0747 76.0683 64.2343 76.1764C64.399 76.2844 64.5302 76.426 64.628 76.601C64.731 76.776 64.7825 76.9948 64.7825 77.2573C64.7825 77.561 64.695 77.8158 64.5199 78.0217C64.3449 78.2276 64.1133 78.3692 63.825 78.4464V78.4618C64.0001 78.4824 64.1622 78.5287 64.3115 78.6008C64.4607 78.6677 64.5894 78.7578 64.6975 78.871C64.8056 78.9843 64.888 79.1181 64.9446 79.2725C65.0064 79.427 65.0373 79.5994 65.0373 79.7898C65.0373 80.0524 64.9832 80.2814 64.8751 80.477C64.767 80.6726 64.6203 80.8348 64.435 80.9635C64.2497 81.087 64.0309 81.1822 63.7787 81.2491C63.5316 81.3109 63.2665 81.3418 62.9834 81.3418H61.1844V75.8752ZM61.9488 78.1838H62.9448C63.089 78.1838 63.2254 78.1684 63.3541 78.1375C63.4879 78.1015 63.6037 78.05 63.7015 77.9831C63.7993 77.911 63.8765 77.8235 63.9331 77.7206C63.9898 77.6125 64.0181 77.4838 64.0181 77.3345C64.0181 77.0411 63.91 76.8326 63.6938 76.7091C63.4776 76.5804 63.1868 76.5161 62.8213 76.5161H61.9488V78.1838ZM61.9488 80.6932H62.9062C63.0658 80.6932 63.2254 80.6804 63.3849 80.6546C63.5497 80.6237 63.6964 80.5723 63.825 80.5002C63.9589 80.4281 64.0644 80.3329 64.1416 80.2145C64.224 80.091 64.2651 79.9365 64.2651 79.7512C64.2651 79.427 64.1545 79.1927 63.9331 79.0486C63.7118 78.9045 63.3927 78.8324 62.9757 78.8324H61.9488V80.6932ZM68.3774 78.9714C68.3774 78.6986 68.2951 78.4978 68.1304 78.3692C67.9656 78.2353 67.7469 78.1684 67.4741 78.1684C67.2682 78.1684 67.0726 78.2096 66.8873 78.2919C66.7071 78.3692 66.5552 78.4695 66.4317 78.5931L66.0457 78.1298C66.2258 77.9599 66.4446 77.8261 66.702 77.7283C66.9645 77.6305 67.245 77.5816 67.5436 77.5816C67.8061 77.5816 68.0326 77.6202 68.223 77.6974C68.4186 77.7695 68.5782 77.8699 68.7017 77.9985C68.8253 78.1272 68.9179 78.2791 68.9797 78.4541C69.0415 78.6291 69.0723 78.817 69.0723 79.0177V80.616C69.0723 80.7395 69.0749 80.8708 69.0801 81.0098C69.0904 81.1436 69.1058 81.2543 69.1264 81.3418H68.4701C68.4289 81.1668 68.4083 80.9918 68.4083 80.8168H68.3852C68.2513 81.0124 68.0815 81.1642 67.8756 81.2723C67.6748 81.3804 67.4355 81.4345 67.1575 81.4345C67.0134 81.4345 66.8615 81.4139 66.702 81.3727C66.5475 81.3366 66.406 81.2749 66.2773 81.1874C66.1486 81.0999 66.0405 80.9841 65.953 80.8399C65.8706 80.6958 65.8295 80.5182 65.8295 80.3072C65.8295 80.0292 65.9041 79.8104 66.0534 79.6509C66.2027 79.4861 66.3983 79.3626 66.6402 79.2803C66.8821 79.1927 67.1549 79.1361 67.4586 79.1104C67.7623 79.0846 68.0686 79.0718 68.3774 79.0718V78.9714ZM68.1999 79.5968C68.0197 79.5968 67.8318 79.6045 67.6362 79.62C67.4458 79.6354 67.2707 79.6663 67.1112 79.7126C66.9567 79.759 66.8281 79.8285 66.7251 79.9211C66.6222 80.0138 66.5707 80.1373 66.5707 80.2917C66.5707 80.3998 66.5913 80.4899 66.6325 80.562C66.6788 80.634 66.738 80.6932 66.81 80.7395C66.8821 80.7859 66.9619 80.8193 67.0494 80.8399C67.1369 80.8554 67.227 80.8631 67.3196 80.8631C67.6594 80.8631 67.9193 80.7627 68.0995 80.562C68.2848 80.3561 68.3774 80.0987 68.3774 79.7898V79.5968H68.1999ZM72.8479 78.6085C72.7707 78.4901 72.6549 78.3923 72.5005 78.3151C72.346 78.2328 72.1813 78.1916 72.0063 78.1916C71.8159 78.1916 71.646 78.2276 71.4967 78.2997C71.3526 78.3717 71.2291 78.4695 71.1261 78.5931C71.0232 78.7115 70.9434 78.8504 70.8867 79.01C70.8353 79.1696 70.8095 79.3369 70.8095 79.5119C70.8095 79.6869 70.8353 79.8542 70.8867 80.0138C70.9434 80.1733 71.0232 80.3149 71.1261 80.4384C71.2291 80.5568 71.3552 80.652 71.5044 80.7241C71.6537 80.7962 71.8236 80.8322 72.014 80.8322C72.1993 80.8322 72.3666 80.7962 72.5159 80.7241C72.6703 80.652 72.7964 80.5542 72.8942 80.4307L73.3807 80.8708C73.2263 81.051 73.0332 81.1925 72.8016 81.2955C72.57 81.3933 72.3074 81.4422 72.014 81.4422C71.7309 81.4422 71.4684 81.3958 71.2265 81.3032C70.9897 81.2105 70.7838 81.0819 70.6088 80.9171C70.4338 80.7473 70.2948 80.5439 70.1918 80.3072C70.094 80.0704 70.0451 79.8053 70.0451 79.5119C70.0451 79.2236 70.094 78.9611 70.1918 78.7243C70.2896 78.4875 70.4261 78.2842 70.6011 78.1144C70.7761 77.9445 70.982 77.8132 71.2188 77.7206C71.4607 77.6279 71.7206 77.5816 71.9986 77.5816C72.256 77.5816 72.5108 77.6331 72.763 77.736C73.0204 77.839 73.2237 77.9882 73.373 78.1838L72.8479 78.6085ZM74.8411 79.2725H74.8642L76.4007 77.682H77.3736L75.6595 79.342L77.5203 81.3418H76.5165L74.8642 79.4424H74.8411V81.3418H74.1153V75.5046H74.8411V79.2725ZM78.9128 81.3418H78.187V75.5046H78.9128V81.3418ZM83.8834 79.5042C83.8834 79.7873 83.8319 80.0472 83.7289 80.284C83.6311 80.5208 83.4922 80.7267 83.312 80.9017C83.137 81.0716 82.9285 81.2054 82.6866 81.3032C82.4447 81.3958 82.1847 81.4422 81.9067 81.4422C81.6288 81.4422 81.3688 81.3958 81.1269 81.3032C80.885 81.2054 80.6765 81.0716 80.5015 80.9017C80.3265 80.7267 80.1875 80.5208 80.0846 80.284C79.9868 80.0472 79.9379 79.7873 79.9379 79.5042C79.9379 79.2211 79.9868 78.9637 80.0846 78.7321C80.1875 78.4953 80.3265 78.2919 80.5015 78.1221C80.6765 77.9522 80.885 77.821 81.1269 77.7283C81.3688 77.6305 81.6288 77.5816 81.9067 77.5816C82.1847 77.5816 82.4447 77.6305 82.6866 77.7283C82.9285 77.821 83.137 77.9522 83.312 78.1221C83.4922 78.2919 83.6311 78.4953 83.7289 78.7321C83.8319 78.9637 83.8834 79.2211 83.8834 79.5042ZM83.1267 79.5042C83.1267 79.3292 83.0984 79.1619 83.0418 79.0023C82.9903 78.8427 82.9131 78.7037 82.8101 78.5853C82.7072 78.4618 82.5785 78.364 82.4241 78.2919C82.2748 78.2199 82.1024 78.1838 81.9067 78.1838C81.7111 78.1838 81.5361 78.2199 81.3817 78.2919C81.2324 78.364 81.1063 78.4618 81.0034 78.5853C80.9004 78.7037 80.8206 78.8427 80.764 79.0023C80.7125 79.1619 80.6868 79.3292 80.6868 79.5042C80.6868 79.6792 80.7125 79.8465 80.764 80.006C80.8206 80.1656 80.9004 80.3072 81.0034 80.4307C81.1063 80.5542 81.2324 80.652 81.3817 80.7241C81.5361 80.7962 81.7111 80.8322 81.9067 80.8322C82.1024 80.8322 82.2748 80.7962 82.4241 80.7241C82.5785 80.652 82.7072 80.5542 82.8101 80.4307C82.9131 80.3072 82.9903 80.1656 83.0418 80.006C83.0984 79.8465 83.1267 79.6792 83.1267 79.5042ZM85.1755 81.9672C85.3351 82.1474 85.5333 82.2915 85.77 82.3996C86.012 82.5077 86.259 82.5617 86.5113 82.5617C86.7532 82.5617 86.9565 82.5257 87.1212 82.4536C87.286 82.3867 87.4172 82.2915 87.515 82.168C87.618 82.0496 87.69 81.908 87.7312 81.7433C87.7775 81.5786 87.8007 81.401 87.8007 81.2105V80.7395H87.7853C87.6514 80.9454 87.4687 81.1024 87.2371 81.2105C87.0054 81.3186 86.7583 81.3727 86.4958 81.3727C86.2179 81.3727 85.9631 81.3238 85.7314 81.226C85.5049 81.1282 85.3119 80.9943 85.1523 80.8245C84.9928 80.6546 84.8692 80.4564 84.7817 80.23C84.6942 79.9983 84.6505 79.7512 84.6505 79.4887C84.6505 79.2262 84.6942 78.9791 84.7817 78.7475C84.8692 78.5159 84.9928 78.3151 85.1523 78.1452C85.3119 77.9702 85.5049 77.8338 85.7314 77.736C85.9579 77.6331 86.2101 77.5816 86.4881 77.5816C86.7506 77.5816 87.0003 77.6382 87.2371 77.7515C87.479 77.8647 87.6694 78.0371 87.8084 78.2688H87.8239V77.682H88.5265V81.1565C88.5265 81.4242 88.493 81.679 88.4261 81.9209C88.3592 82.168 88.2459 82.3842 88.0864 82.5695C87.9268 82.7599 87.7183 82.9118 87.461 83.025C87.2036 83.1382 86.8845 83.1949 86.5035 83.1949C86.1844 83.1949 85.8627 83.1357 85.5384 83.0173C85.2193 82.904 84.9439 82.7419 84.7122 82.5309L85.1755 81.9672ZM85.3994 79.4733C85.3994 79.6431 85.4252 79.8053 85.4766 79.9597C85.5333 80.1141 85.613 80.2505 85.716 80.3689C85.8241 80.4873 85.9528 80.5826 86.102 80.6546C86.2513 80.7267 86.4212 80.7627 86.6116 80.7627C86.7969 80.7627 86.9668 80.7293 87.1212 80.6623C87.2757 80.5954 87.4069 80.5053 87.515 80.3921C87.6231 80.2737 87.7055 80.1373 87.7621 79.9829C87.8239 79.8233 87.8547 79.6534 87.8547 79.4733C87.8547 79.2983 87.8239 79.1336 87.7621 78.9791C87.7055 78.8247 87.6205 78.6883 87.5073 78.5699C87.3992 78.4515 87.2679 78.3589 87.1135 78.2919C86.9642 78.2199 86.7969 78.1838 86.6116 78.1838C86.4212 78.1838 86.2513 78.2199 86.102 78.2919C85.9528 78.3589 85.8241 78.4515 85.716 78.5699C85.613 78.6832 85.5333 78.8196 85.4766 78.9791C85.4252 79.1336 85.3994 79.2983 85.3994 79.4733ZM53.4314 86.2141C53.8087 86.2273 54.1958 86.2935 54.5929 86.4126C54.99 86.5317 55.3441 86.7171 55.6551 86.9685C55.3308 87.3392 55.0099 87.6998 54.6922 88.0506C54.5267 87.8852 54.3282 87.7561 54.0966 87.6634C53.8649 87.5708 53.6432 87.5212 53.4314 87.5145V89.1029C53.6895 89.1823 53.951 89.2717 54.2157 89.3709C54.4804 89.4702 54.722 89.6026 54.9404 89.768C55.1588 89.9335 55.3375 90.1353 55.4764 90.3736C55.6154 90.6118 55.6849 90.9096 55.6849 91.267C55.6849 91.631 55.6187 91.9487 55.4864 92.22C55.3606 92.4848 55.1886 92.7065 54.9702 92.8851C54.7584 93.0638 54.5135 93.1995 54.2355 93.2922C53.9642 93.3848 53.6829 93.4345 53.3917 93.4411V94.1658H52.6571V93.4411C52.2269 93.4278 51.7935 93.3484 51.3567 93.2028C50.9199 93.0506 50.536 92.8256 50.2051 92.5278C50.3772 92.3491 50.5492 92.1704 50.7213 91.9917C50.9 91.8064 51.0754 91.6211 51.2475 91.4358C51.3335 91.535 51.4361 91.6277 51.5552 91.7137C51.6743 91.7932 51.7968 91.8626 51.9225 91.9222C52.0483 91.9818 52.174 92.0314 52.2997 92.0711C52.4255 92.1042 52.5446 92.1208 52.6571 92.1208V90.3835C52.3725 90.3041 52.0979 90.2147 51.8332 90.1155C51.5751 90.0162 51.3467 89.8871 51.1482 89.7283C50.9496 89.5695 50.7908 89.3775 50.6717 89.1525C50.5526 88.9209 50.493 88.6396 50.493 88.3087C50.493 87.9844 50.5592 87.6965 50.6915 87.4451C50.8239 87.1869 50.996 86.9719 51.2078 86.7998C51.4195 86.6211 51.6578 86.4854 51.9225 86.3928C52.1872 86.2935 52.4486 86.2372 52.7068 86.224V85.539H53.4314V86.2141ZM52.7068 87.4947C52.5281 87.5145 52.3659 87.584 52.2203 87.7032C52.0813 87.8157 52.0119 87.9811 52.0119 88.1995C52.0119 88.4113 52.0747 88.5734 52.2005 88.6859C52.3262 88.7985 52.495 88.8812 52.7068 88.9341V87.4947ZM53.3917 92.1307C53.6167 92.1174 53.7921 92.0446 53.9179 91.9123C54.0502 91.7733 54.1164 91.588 54.1164 91.3564C54.1164 91.1247 54.0469 90.9527 53.9079 90.8401C53.7756 90.721 53.6035 90.6284 53.3917 90.5622V92.1307ZM62.0431 90.9791C62.0431 91.3762 61.9703 91.7336 61.8247 92.0513C61.6791 92.3689 61.4806 92.637 61.2291 92.8554C60.9776 93.0738 60.6831 93.2392 60.3456 93.3517C60.008 93.4709 59.6507 93.5304 59.2734 93.5304C58.8896 93.5304 58.5289 93.4709 58.1914 93.3517C57.8605 93.2392 57.5693 93.0738 57.3178 92.8554C57.0663 92.637 56.8677 92.3722 56.7221 92.0612C56.5765 91.7501 56.5037 91.4027 56.5037 91.0188C56.5037 90.6019 56.5765 90.2247 56.7221 89.8871C56.8677 89.543 57.0564 89.1955 57.288 88.8448L58.9855 86.3134H61.0008L59.2734 88.7157L59.2437 88.7654C59.3098 88.7389 59.3892 88.719 59.4819 88.7058C59.5746 88.6926 59.6606 88.6859 59.74 88.6859C60.0444 88.6859 60.3356 88.7422 60.6136 88.8547C60.8982 88.9606 61.1431 89.1161 61.3482 89.3213C61.56 89.5198 61.7288 89.7614 61.8545 90.046C61.9802 90.3239 62.0431 90.635 62.0431 90.9791ZM60.3753 91.0188C60.3753 90.7012 60.2761 90.4398 60.0775 90.2346C59.879 90.0228 59.6143 89.9169 59.2834 89.9169C58.9525 89.9169 58.6844 90.0195 58.4793 90.2247C58.2741 90.4298 58.1715 90.6979 58.1715 91.0288C58.1715 91.3332 58.2708 91.5946 58.4693 91.813C58.6679 92.0314 58.9359 92.1406 59.2734 92.1406C59.6043 92.1406 59.8691 92.038 60.0676 91.8329C60.2728 91.6277 60.3753 91.3564 60.3753 91.0188ZM63.8348 94.5728H62.4946L63.2392 91.7534H64.7978L63.8348 94.5728ZM70.1863 91.9718V93.3418H68.6277V91.9718H65.322V90.5721L68.181 86.3134H70.1763V90.6217H71.1492V91.9718H70.1863ZM68.6376 88.0208H68.6079L66.9401 90.6217H68.6376V88.0208ZM78.3909 93.3418L78.4306 88.3683H78.4009L76.5743 93.3418H75.383L73.606 88.3683H73.5763L73.616 93.3418H72.0177V86.3134H74.43L76.0283 90.8203H76.068L77.5968 86.3134H80.0488V93.3418H78.3909Z" fill="#35365E"/>
<path d="M119.929 36.4306C120.306 36.4439 120.694 36.5101 121.091 36.6292C121.488 36.7483 121.842 36.9336 122.153 37.1851C121.829 37.5557 121.508 37.9164 121.19 38.2672C121.025 38.1017 120.826 37.9727 120.594 37.88C120.363 37.7873 120.141 37.7377 119.929 37.7311V39.3194C120.187 39.3989 120.449 39.4882 120.714 39.5875C120.978 39.6867 121.22 39.8191 121.438 39.9846C121.657 40.15 121.835 40.3519 121.974 40.5901C122.113 40.8284 122.183 41.1262 122.183 41.4836C122.183 41.8476 122.117 42.1652 121.984 42.4366C121.858 42.7013 121.686 42.923 121.468 43.1017C121.256 43.2804 121.011 43.4161 120.733 43.5087C120.462 43.6014 120.181 43.651 119.89 43.6576V44.3823H119.155V43.6576C118.725 43.6444 118.291 43.565 117.854 43.4194C117.418 43.2672 117.034 43.0421 116.703 42.7443C116.875 42.5656 117.047 42.3869 117.219 42.2083C117.398 42.0229 117.573 41.8376 117.745 41.6523C117.831 41.7516 117.934 41.8443 118.053 41.9303C118.172 42.0097 118.295 42.0792 118.42 42.1388C118.546 42.1983 118.672 42.248 118.798 42.2877C118.923 42.3208 119.042 42.3373 119.155 42.3373V40.6C118.87 40.5206 118.596 40.4313 118.331 40.332C118.073 40.2327 117.845 40.1037 117.646 39.9449C117.447 39.786 117.289 39.5941 117.169 39.3691C117.05 39.1374 116.991 38.8562 116.991 38.5253C116.991 38.201 117.057 37.9131 117.189 37.6616C117.322 37.4035 117.494 37.1884 117.706 37.0163C117.917 36.8376 118.156 36.702 118.42 36.6093C118.685 36.51 118.946 36.4538 119.205 36.4406V35.7556H119.929V36.4306ZM119.205 37.7112C119.026 37.7311 118.864 37.8006 118.718 37.9197C118.579 38.0322 118.51 38.1977 118.51 38.4161C118.51 38.6278 118.573 38.79 118.698 38.9025C118.824 39.015 118.993 39.0977 119.205 39.1507V37.7112ZM119.89 42.3472C120.115 42.334 120.29 42.2612 120.416 42.1288C120.548 41.9899 120.614 41.8045 120.614 41.5729C120.614 41.3413 120.545 41.1692 120.406 41.0567C120.273 40.9376 120.101 40.8449 119.89 40.7787V42.3472ZM125.235 43.5583V38.3962L123.925 39.4088L123.061 38.2275L125.374 36.5299H126.903V43.5583H125.235ZM135.594 43.5583L135.634 38.5848H135.604L133.777 43.5583H132.586L130.809 38.5848H130.779L130.819 43.5583H129.221V36.5299H131.633L133.231 41.0368H133.271L134.8 36.5299H137.252V43.5583H135.594Z" fill="#35365E"/>
<path d="M87.6564 26.6493C87.9079 26.6581 88.166 26.7023 88.4308 26.7817C88.6955 26.8611 88.9315 26.9846 89.1389 27.1523C88.9227 27.3994 88.7087 27.6398 88.497 27.8737C88.3866 27.7634 88.2543 27.6773 88.0999 27.6156C87.9454 27.5538 87.7976 27.5207 87.6564 27.5163V28.5752C87.8285 28.6281 88.0028 28.6877 88.1793 28.7539C88.3558 28.8201 88.5168 28.9083 88.6624 29.0186C88.808 29.1289 88.9271 29.2635 89.0198 29.4223C89.1124 29.5811 89.1588 29.7797 89.1588 30.0179C89.1588 30.2606 89.1146 30.4724 89.0264 30.6533C88.9426 30.8298 88.8279 30.9776 88.6823 31.0967C88.5411 31.2158 88.3778 31.3063 88.1925 31.368C88.0116 31.4298 87.8241 31.4629 87.63 31.4673V31.9504H87.1402V31.4673C86.8535 31.4585 86.5645 31.4055 86.2733 31.3085C85.9821 31.207 85.7262 31.057 85.5056 30.8584C85.6203 30.7393 85.735 30.6202 85.8497 30.5011C85.9688 30.3775 86.0857 30.254 86.2005 30.1304C86.2578 30.1966 86.3262 30.2584 86.4056 30.3158C86.485 30.3687 86.5667 30.415 86.6505 30.4547C86.7343 30.4944 86.8182 30.5275 86.902 30.554C86.9858 30.5761 87.0652 30.5871 87.1402 30.5871V29.4289C86.9505 29.376 86.7674 29.3164 86.5909 29.2502C86.4189 29.1841 86.2666 29.098 86.1343 28.9921C86.0019 28.8862 85.896 28.7583 85.8166 28.6083C85.7372 28.4539 85.6975 28.2663 85.6975 28.0457C85.6975 27.8295 85.7416 27.6376 85.8298 27.47C85.9181 27.2979 86.0328 27.1545 86.174 27.0398C86.3152 26.9207 86.474 26.8302 86.6505 26.7684C86.827 26.7023 87.0013 26.6648 87.1733 26.6559V26.1993H87.6564V26.6493ZM87.1733 27.503C87.0542 27.5163 86.9461 27.5626 86.849 27.642C86.7564 27.717 86.7101 27.8273 86.7101 27.9729C86.7101 28.1141 86.752 28.2222 86.8358 28.2972C86.9196 28.3722 87.0321 28.4274 87.1733 28.4627V27.503ZM87.63 30.5937C87.78 30.5849 87.8969 30.5364 87.9807 30.4481C88.069 30.3555 88.1131 30.2319 88.1131 30.0775C88.1131 29.9231 88.0668 29.8084 87.9741 29.7334C87.8859 29.6539 87.7712 29.5922 87.63 29.548V30.5937ZM93.2189 30.0643C93.2189 30.3113 93.1703 30.5275 93.0733 30.7128C92.9762 30.8937 92.8461 31.046 92.6828 31.1695C92.524 31.2886 92.3365 31.3769 92.1203 31.4342C91.9085 31.496 91.6879 31.5269 91.4585 31.5269C91.2246 31.5269 91.0018 31.496 90.79 31.4342C90.5782 31.3769 90.3907 31.2886 90.2275 31.1695C90.0687 31.0504 89.9407 30.9004 89.8436 30.7195C89.7466 30.5341 89.698 30.318 89.698 30.0709C89.698 29.9297 89.7201 29.7995 89.7642 29.6804C89.8083 29.5569 89.8679 29.4488 89.9429 29.3561C90.0223 29.2591 90.1128 29.1774 90.2143 29.1113C90.3157 29.0407 90.4238 28.9877 90.5385 28.9524V28.9392C90.3356 28.8642 90.1657 28.7428 90.0289 28.5752C89.8922 28.4031 89.8238 28.1869 89.8238 27.9266C89.8238 27.7104 89.8679 27.5185 89.9561 27.3508C90.0444 27.1832 90.1635 27.0442 90.3135 26.9339C90.4635 26.8192 90.6378 26.7331 90.8364 26.6758C91.0349 26.6184 91.2423 26.5897 91.4585 26.5897C91.6746 26.5897 91.8798 26.6184 92.0739 26.6758C92.2725 26.7287 92.4468 26.8104 92.5968 26.9207C92.7468 27.031 92.8659 27.1699 92.9542 27.3376C93.0468 27.5008 93.0931 27.6906 93.0931 27.9068C93.0931 28.1671 93.027 28.3855 92.8946 28.5619C92.7622 28.7384 92.5902 28.862 92.3784 28.9326V28.9524C92.4975 28.9877 92.6078 29.0407 92.7093 29.1113C92.8108 29.1774 92.899 29.2591 92.974 29.3561C93.049 29.4488 93.1086 29.5569 93.1527 29.6804C93.1968 29.7995 93.2189 29.9275 93.2189 30.0643ZM92.021 27.9862C92.021 27.8317 91.9658 27.7038 91.8555 27.6023C91.7452 27.5008 91.6129 27.4501 91.4585 27.4501C91.2908 27.4501 91.1562 27.5008 91.0548 27.6023C90.9533 27.7038 90.9025 27.8317 90.9025 27.9862C90.9025 28.1362 90.9511 28.2663 91.0481 28.3766C91.1496 28.4869 91.2864 28.5421 91.4585 28.5421C91.6217 28.5421 91.7563 28.4869 91.8622 28.3766C91.9681 28.2663 92.021 28.1362 92.021 27.9862ZM92.107 30.0246C92.107 29.8437 92.0453 29.6936 91.9217 29.5745C91.8026 29.451 91.6482 29.3892 91.4585 29.3892C91.2643 29.3892 91.1055 29.4488 90.982 29.5679C90.8628 29.687 90.8033 29.8392 90.8033 30.0246C90.8033 30.2143 90.8628 30.3665 90.982 30.4812C91.1055 30.5915 91.2643 30.6467 91.4585 30.6467C91.6526 30.6467 91.8092 30.5915 91.9283 30.4812C92.0475 30.3665 92.107 30.2143 92.107 30.0246ZM97.3386 29.0451C97.3386 29.376 97.3055 29.6914 97.2393 29.9915C97.1731 30.2915 97.0672 30.5562 96.9216 30.7856C96.776 31.0107 96.5863 31.1915 96.3525 31.3283C96.123 31.4607 95.8429 31.5269 95.512 31.5269C95.181 31.5269 94.8987 31.4607 94.6648 31.3283C94.431 31.1915 94.2391 31.0107 94.0891 30.7856C93.9435 30.5562 93.8376 30.2915 93.7714 29.9915C93.7052 29.6914 93.6721 29.376 93.6721 29.0451C93.6721 28.7142 93.7052 28.4009 93.7714 28.1053C93.8376 27.8053 93.9435 27.545 94.0891 27.3244C94.2391 27.0993 94.431 26.9207 94.6648 26.7883C94.8987 26.6559 95.181 26.5897 95.512 26.5897C95.8429 26.5897 96.123 26.6559 96.3525 26.7883C96.5863 26.9207 96.776 27.0993 96.9216 27.3244C97.0672 27.545 97.1731 27.8053 97.2393 28.1053C97.3055 28.4009 97.3386 28.7142 97.3386 29.0451ZM96.2002 29.0451C96.2002 28.8995 96.1914 28.7384 96.1738 28.5619C96.1561 28.3855 96.123 28.2222 96.0745 28.0722C96.026 27.9178 95.9554 27.7898 95.8627 27.6884C95.7745 27.5825 95.6576 27.5295 95.512 27.5295C95.3664 27.5295 95.2472 27.5825 95.1546 27.6884C95.0619 27.7898 94.9891 27.9178 94.9362 28.0722C94.8876 28.2222 94.8546 28.3855 94.8369 28.5619C94.8193 28.7384 94.8104 28.8995 94.8104 29.0451C94.8104 29.1951 94.8193 29.3605 94.8369 29.5414C94.8546 29.7179 94.8876 29.8834 94.9362 30.0378C94.9891 30.1878 95.0619 30.3158 95.1546 30.4216C95.2472 30.5231 95.3664 30.5739 95.512 30.5739C95.6576 30.5739 95.7745 30.5231 95.8627 30.4216C95.9554 30.3158 96.026 30.1878 96.0745 30.0378C96.123 29.8834 96.1561 29.7179 96.1738 29.5414C96.1914 29.3605 96.2002 29.1951 96.2002 29.0451ZM101.385 29.0451C101.385 29.376 101.352 29.6914 101.286 29.9915C101.22 30.2915 101.114 30.5562 100.968 30.7856C100.823 31.0107 100.633 31.1915 100.399 31.3283C100.17 31.4607 99.8897 31.5269 99.5588 31.5269C99.2279 31.5269 98.9456 31.4607 98.7117 31.3283C98.4779 31.1915 98.2859 31.0107 98.1359 30.7856C97.9903 30.5562 97.8844 30.2915 97.8183 29.9915C97.7521 29.6914 97.719 29.376 97.719 29.0451C97.719 28.7142 97.7521 28.4009 97.8183 28.1053C97.8844 27.8053 97.9903 27.545 98.1359 27.3244C98.2859 27.0993 98.4779 26.9207 98.7117 26.7883C98.9456 26.6559 99.2279 26.5897 99.5588 26.5897C99.8897 26.5897 100.17 26.6559 100.399 26.7883C100.633 26.9207 100.823 27.0993 100.968 27.3244C101.114 27.545 101.22 27.8053 101.286 28.1053C101.352 28.4009 101.385 28.7142 101.385 29.0451ZM100.247 29.0451C100.247 28.8995 100.238 28.7384 100.221 28.5619C100.203 28.3855 100.17 28.2222 100.121 28.0722C100.073 27.9178 100.002 27.7898 99.9096 27.6884C99.8213 27.5825 99.7044 27.5295 99.5588 27.5295C99.4132 27.5295 99.2941 27.5825 99.2015 27.6884C99.1088 27.7898 99.036 27.9178 98.9831 28.0722C98.9345 28.2222 98.9014 28.3855 98.8838 28.5619C98.8661 28.7384 98.8573 28.8995 98.8573 29.0451C98.8573 29.1951 98.8661 29.3605 98.8838 29.5414C98.9014 29.7179 98.9345 29.8834 98.9831 30.0378C99.036 30.1878 99.1088 30.3158 99.2015 30.4216C99.2941 30.5231 99.4132 30.5739 99.5588 30.5739C99.7044 30.5739 99.8213 30.5231 99.9096 30.4216C100.002 30.3158 100.073 30.1878 100.121 30.0378C100.17 29.8834 100.203 29.7179 100.221 29.5414C100.238 29.3605 100.247 29.1951 100.247 29.0451ZM104.81 31.4011L103.07 29.2436H103.056V31.4011H101.945V26.7155H103.056V28.6215H103.076L104.751 26.7155H106.167L104.148 28.873L106.286 31.4011H104.81Z" fill="#3282FF"/>
<path d="M116.925 26.3092H118.539C118.716 26.3092 118.892 26.3291 119.069 26.3688C119.245 26.4085 119.402 26.4747 119.539 26.5673C119.68 26.66 119.792 26.7813 119.876 26.9313C119.965 27.0814 120.009 27.2689 120.009 27.4939C120.009 27.7542 119.934 27.9726 119.784 28.1491C119.634 28.3256 119.435 28.4469 119.188 28.5131V28.5263C119.338 28.544 119.477 28.5837 119.605 28.6454C119.733 28.7028 119.843 28.78 119.936 28.8771C120.029 28.9741 120.099 29.0889 120.148 29.2212C120.201 29.3536 120.227 29.5014 120.227 29.6646C120.227 29.8896 120.181 30.086 120.088 30.2536C119.995 30.4213 119.87 30.5603 119.711 30.6706C119.552 30.7765 119.365 30.8581 119.148 30.9155C118.937 30.9684 118.709 30.9949 118.467 30.9949H116.925V26.3092ZM117.58 28.2881H118.434C118.557 28.2881 118.674 28.2748 118.784 28.2484C118.899 28.2175 118.998 28.1733 119.082 28.116C119.166 28.0542 119.232 27.9792 119.281 27.891C119.329 27.7983 119.353 27.688 119.353 27.5601C119.353 27.3086 119.261 27.1299 119.076 27.024C118.89 26.9137 118.641 26.8585 118.328 26.8585H117.58V28.2881ZM117.58 30.439H118.4C118.537 30.439 118.674 30.4279 118.811 30.4059C118.952 30.3794 119.078 30.3353 119.188 30.2735C119.303 30.2117 119.393 30.1301 119.459 30.0286C119.53 29.9227 119.565 29.7904 119.565 29.6315C119.565 29.3536 119.47 29.1528 119.281 29.0293C119.091 28.9058 118.817 28.844 118.46 28.844H117.58V30.439ZM121.766 30.9949H121.144V27.8579H121.766V30.9949ZM121.872 26.7262C121.872 26.8409 121.83 26.9358 121.747 27.0108C121.667 27.0858 121.57 27.1233 121.455 27.1233C121.341 27.1233 121.244 27.0858 121.164 27.0108C121.085 26.9313 121.045 26.8365 121.045 26.7262C121.045 26.6115 121.085 26.5166 121.164 26.4416C121.244 26.3622 121.341 26.3225 121.455 26.3225C121.57 26.3225 121.667 26.3622 121.747 26.4416C121.83 26.5166 121.872 26.6115 121.872 26.7262ZM123.486 30.9949H122.864V25.9916H123.486V30.9949ZM125.205 30.9949H124.583V25.9916H125.205V30.9949ZM128.585 29.1484C128.581 29.0249 128.559 28.9102 128.519 28.8043C128.484 28.694 128.429 28.5991 128.354 28.5197C128.283 28.4403 128.193 28.3785 128.082 28.3344C127.976 28.2859 127.851 28.2616 127.705 28.2616C127.573 28.2616 127.447 28.2859 127.328 28.3344C127.213 28.3785 127.112 28.4403 127.023 28.5197C126.94 28.5991 126.869 28.694 126.812 28.8043C126.759 28.9102 126.728 29.0249 126.719 29.1484H128.585ZM129.214 29.3999C129.214 29.4352 129.214 29.4705 129.214 29.5058C129.214 29.5411 129.212 29.5764 129.207 29.6117H126.719C126.723 29.744 126.752 29.8698 126.805 29.9889C126.862 30.1036 126.937 30.2051 127.03 30.2934C127.123 30.3772 127.229 30.4434 127.348 30.4919C127.471 30.5404 127.601 30.5647 127.738 30.5647C127.95 30.5647 128.133 30.5184 128.287 30.4257C128.442 30.3331 128.563 30.2206 128.651 30.0882L129.088 30.439C128.921 30.6596 128.722 30.8228 128.493 30.9287C128.268 31.0302 128.016 31.0809 127.738 31.0809C127.5 31.0809 127.279 31.0412 127.076 30.9618C126.873 30.8824 126.699 30.7721 126.553 30.6309C126.408 30.4853 126.293 30.311 126.209 30.108C126.126 29.9051 126.084 29.6801 126.084 29.433C126.084 29.1903 126.123 28.9675 126.203 28.7646C126.287 28.5572 126.401 28.3807 126.547 28.2351C126.692 28.0895 126.865 27.977 127.063 27.8976C127.262 27.8138 127.476 27.7718 127.705 27.7718C127.934 27.7718 128.142 27.8094 128.327 27.8844C128.517 27.9594 128.676 28.0675 128.804 28.2086C128.936 28.3498 129.037 28.5219 129.108 28.7249C129.179 28.9234 129.214 29.1484 129.214 29.3999ZM132.584 30.4985C132.465 30.6882 132.302 30.8338 132.094 30.9353C131.891 31.0324 131.678 31.0809 131.452 31.0809C131.21 31.0809 130.991 31.039 130.797 30.9552C130.603 30.8669 130.438 30.7478 130.301 30.5978C130.164 30.4478 130.058 30.2713 129.983 30.0683C129.908 29.8654 129.871 29.6492 129.871 29.4198C129.871 29.1903 129.908 28.9763 129.983 28.7778C130.058 28.5748 130.164 28.3984 130.301 28.2484C130.442 28.0983 130.61 27.9814 130.804 27.8976C130.998 27.8138 131.212 27.7718 131.446 27.7718C131.702 27.7718 131.925 27.827 132.114 27.9373C132.304 28.0432 132.454 28.1733 132.564 28.3278H132.578V25.9916H133.2V30.9949H132.597V30.4985H132.584ZM130.519 29.4198C130.519 29.5654 130.541 29.7065 130.586 29.8433C130.63 29.9801 130.696 30.1014 130.784 30.2073C130.872 30.3132 130.98 30.3992 131.108 30.4654C131.236 30.5272 131.386 30.5581 131.558 30.5581C131.717 30.5581 131.861 30.5272 131.989 30.4654C132.121 30.4037 132.233 30.322 132.326 30.2206C132.419 30.1147 132.489 29.9933 132.538 29.8566C132.591 29.7198 132.617 29.5764 132.617 29.4264C132.617 29.2764 132.591 29.133 132.538 28.9962C132.489 28.8594 132.419 28.7381 132.326 28.6322C132.233 28.5263 132.121 28.4425 131.989 28.3807C131.861 28.3189 131.717 28.2881 131.558 28.2881C131.386 28.2881 131.236 28.3189 131.108 28.3807C130.98 28.4425 130.872 28.5263 130.784 28.6322C130.696 28.7381 130.63 28.8594 130.586 28.9962C130.541 29.133 130.519 29.2742 130.519 29.4198Z" fill="#35365E"/>
<path d="M117.538 122.502C117.915 122.515 118.303 122.581 118.7 122.7C119.097 122.819 119.451 123.005 119.762 123.256C119.438 123.627 119.117 123.987 118.799 124.338C118.633 124.173 118.435 124.044 118.203 123.951C117.972 123.858 117.75 123.809 117.538 123.802V125.39C117.796 125.47 118.058 125.559 118.322 125.659C118.587 125.758 118.829 125.89 119.047 126.056C119.265 126.221 119.444 126.423 119.583 126.661C119.722 126.899 119.792 127.197 119.792 127.555C119.792 127.919 119.725 128.236 119.593 128.508C119.467 128.772 119.295 128.994 119.077 129.173C118.865 129.351 118.62 129.487 118.342 129.58C118.071 129.672 117.79 129.722 117.498 129.729V130.453H116.764V129.729C116.334 129.715 115.9 129.636 115.463 129.49C115.027 129.338 114.643 129.113 114.312 128.815C114.484 128.637 114.656 128.458 114.828 128.279C115.007 128.094 115.182 127.909 115.354 127.723C115.44 127.823 115.543 127.915 115.662 128.001C115.781 128.081 115.903 128.15 116.029 128.21C116.155 128.269 116.281 128.319 116.406 128.359C116.532 128.392 116.651 128.408 116.764 128.408V126.671C116.479 126.592 116.205 126.502 115.94 126.403C115.682 126.304 115.453 126.175 115.255 126.016C115.056 125.857 114.898 125.665 114.778 125.44C114.659 125.208 114.6 124.927 114.6 124.596C114.6 124.272 114.666 123.984 114.798 123.733C114.931 123.475 115.103 123.259 115.314 123.087C115.526 122.909 115.764 122.773 116.029 122.68C116.294 122.581 116.555 122.525 116.813 122.512V121.827H117.538V122.502ZM116.813 123.782C116.635 123.802 116.473 123.872 116.327 123.991C116.188 124.103 116.119 124.269 116.119 124.487C116.119 124.699 116.181 124.861 116.307 124.974C116.433 125.086 116.602 125.169 116.813 125.222V123.782ZM117.498 128.418C117.723 128.405 117.899 128.332 118.025 128.2C118.157 128.061 118.223 127.876 118.223 127.644C118.223 127.412 118.154 127.24 118.015 127.128C117.882 127.009 117.71 126.916 117.498 126.85V128.418ZM125.812 127.306C125.812 127.737 125.736 128.111 125.584 128.428C125.432 128.739 125.227 128.997 124.968 129.203C124.717 129.408 124.429 129.56 124.105 129.659C123.781 129.765 123.446 129.818 123.102 129.818C122.785 129.818 122.48 129.775 122.189 129.689C121.904 129.61 121.643 129.494 121.405 129.342C121.173 129.189 120.971 129.004 120.799 128.786C120.634 128.561 120.511 128.309 120.432 128.031L121.951 127.565C122.023 127.809 122.159 128.011 122.358 128.17C122.563 128.329 122.804 128.408 123.082 128.408C123.367 128.408 123.612 128.322 123.817 128.15C124.029 127.978 124.135 127.723 124.135 127.386C124.135 127.181 124.092 127.009 124.006 126.87C123.92 126.731 123.807 126.621 123.668 126.542C123.536 126.456 123.383 126.396 123.211 126.363C123.039 126.33 122.867 126.314 122.695 126.314C122.444 126.314 122.156 126.343 121.831 126.403C121.514 126.456 121.229 126.529 120.978 126.621L121.147 122.601H125.455V124.03H122.626L122.566 125.142C122.672 125.116 122.788 125.099 122.914 125.093C123.046 125.079 123.165 125.073 123.271 125.073C123.622 125.073 123.953 125.119 124.264 125.212C124.575 125.304 124.843 125.447 125.068 125.639C125.299 125.824 125.481 126.056 125.614 126.334C125.746 126.612 125.812 126.936 125.812 127.306ZM127.644 130.86H126.304L127.048 128.041H128.607L127.644 130.86ZM133.846 128.259V129.629H132.288V128.259H128.982V126.86L131.841 122.601H133.836V126.909H134.809V128.259H133.846ZM132.298 124.308H132.268L130.6 126.909H132.298V124.308ZM141.902 129.629L141.942 124.656H141.912L140.085 129.629H138.894L137.117 124.656H137.087L137.127 129.629H135.529V122.601H137.941L139.539 127.108H139.579L141.108 122.601H143.56V129.629H141.902Z" fill="#35365E"/>
<path d="M115.189 117.863H114.534V113.177H116.036C116.261 113.177 116.475 113.202 116.678 113.25C116.881 113.294 117.057 113.367 117.207 113.469C117.362 113.57 117.483 113.705 117.571 113.872C117.659 114.036 117.704 114.236 117.704 114.475C117.704 114.819 117.598 115.097 117.386 115.308C117.174 115.52 116.901 115.655 116.565 115.712L117.876 117.863H117.081L115.89 115.778H115.189V117.863ZM115.189 115.229H115.943C116.098 115.229 116.241 115.216 116.373 115.189C116.506 115.163 116.62 115.121 116.717 115.064C116.819 115.002 116.898 114.925 116.956 114.832C117.013 114.735 117.042 114.616 117.042 114.475C117.042 114.333 117.013 114.216 116.956 114.124C116.898 114.027 116.821 113.95 116.724 113.892C116.631 113.835 116.521 113.795 116.393 113.773C116.265 113.747 116.131 113.733 115.99 113.733H115.189V115.229ZM120.785 116.017C120.78 115.893 120.758 115.778 120.718 115.672C120.683 115.562 120.628 115.467 120.553 115.388C120.482 115.308 120.392 115.247 120.282 115.203C120.176 115.154 120.05 115.13 119.904 115.13C119.772 115.13 119.646 115.154 119.527 115.203C119.412 115.247 119.311 115.308 119.223 115.388C119.139 115.467 119.068 115.562 119.011 115.672C118.958 115.778 118.927 115.893 118.918 116.017H120.785ZM121.413 116.268C121.413 116.303 121.413 116.339 121.413 116.374C121.413 116.409 121.411 116.445 121.407 116.48H118.918C118.923 116.612 118.951 116.738 119.004 116.857C119.062 116.972 119.137 117.073 119.229 117.162C119.322 117.245 119.428 117.312 119.547 117.36C119.671 117.409 119.801 117.433 119.937 117.433C120.149 117.433 120.332 117.387 120.487 117.294C120.641 117.201 120.763 117.089 120.851 116.956L121.288 117.307C121.12 117.528 120.921 117.691 120.692 117.797C120.467 117.898 120.215 117.949 119.937 117.949C119.699 117.949 119.479 117.909 119.276 117.83C119.073 117.751 118.898 117.64 118.753 117.499C118.607 117.353 118.493 117.179 118.409 116.976C118.325 116.773 118.283 116.548 118.283 116.301C118.283 116.058 118.323 115.836 118.402 115.633C118.486 115.425 118.601 115.249 118.746 115.103C118.892 114.958 119.064 114.845 119.262 114.766C119.461 114.682 119.675 114.64 119.904 114.64C120.134 114.64 120.341 114.678 120.526 114.753C120.716 114.828 120.875 114.936 121.003 115.077C121.135 115.218 121.237 115.39 121.307 115.593C121.378 115.792 121.413 116.017 121.413 116.268ZM122.891 115.242C122.97 115.075 123.096 114.933 123.268 114.819C123.444 114.7 123.652 114.64 123.89 114.64C124.102 114.64 124.292 114.689 124.459 114.786C124.631 114.883 124.766 115.044 124.863 115.269C124.969 115.066 125.117 114.911 125.306 114.805C125.496 114.695 125.703 114.64 125.928 114.64C126.131 114.64 126.306 114.675 126.451 114.746C126.597 114.812 126.718 114.903 126.815 115.017C126.912 115.132 126.983 115.267 127.027 115.421C127.076 115.575 127.1 115.741 127.1 115.917V117.863H126.478V116.122C126.478 115.995 126.467 115.873 126.445 115.758C126.423 115.644 126.385 115.542 126.332 115.454C126.279 115.366 126.209 115.295 126.12 115.242C126.032 115.189 125.92 115.163 125.783 115.163C125.642 115.163 125.52 115.194 125.419 115.255C125.317 115.313 125.234 115.39 125.167 115.487C125.106 115.58 125.059 115.686 125.028 115.805C125.002 115.924 124.989 116.045 124.989 116.169V117.863H124.367V115.997C124.367 115.873 124.356 115.761 124.334 115.659C124.311 115.558 124.274 115.472 124.221 115.401C124.168 115.326 124.1 115.269 124.016 115.229C123.932 115.185 123.828 115.163 123.705 115.163C123.475 115.163 123.283 115.258 123.129 115.447C122.979 115.633 122.904 115.882 122.904 116.195V117.863H122.282V115.401C122.282 115.317 122.28 115.209 122.275 115.077C122.271 114.944 122.264 114.828 122.255 114.726H122.844C122.853 114.805 122.86 114.896 122.864 114.997C122.869 115.094 122.871 115.176 122.871 115.242H122.891ZM130.103 115.831C130.103 115.597 130.032 115.425 129.891 115.315C129.75 115.2 129.562 115.143 129.328 115.143C129.152 115.143 128.984 115.178 128.825 115.249C128.671 115.315 128.541 115.401 128.435 115.507L128.104 115.11C128.258 114.964 128.446 114.85 128.667 114.766C128.892 114.682 129.132 114.64 129.388 114.64C129.613 114.64 129.807 114.673 129.97 114.739C130.138 114.801 130.275 114.887 130.381 114.997C130.486 115.108 130.566 115.238 130.619 115.388C130.672 115.538 130.698 115.699 130.698 115.871V117.241C130.698 117.347 130.7 117.459 130.705 117.578C130.714 117.693 130.727 117.788 130.745 117.863H130.182C130.147 117.713 130.129 117.563 130.129 117.413H130.109C129.995 117.581 129.849 117.711 129.672 117.803C129.5 117.896 129.295 117.942 129.057 117.942C128.933 117.942 128.803 117.925 128.667 117.89C128.534 117.859 128.413 117.806 128.303 117.731C128.192 117.656 128.1 117.556 128.025 117.433C127.954 117.309 127.919 117.157 127.919 116.976C127.919 116.738 127.983 116.55 128.111 116.414C128.239 116.272 128.406 116.167 128.614 116.096C128.821 116.021 129.055 115.972 129.315 115.95C129.575 115.928 129.838 115.917 130.103 115.917V115.831ZM129.95 116.367C129.796 116.367 129.635 116.374 129.467 116.387C129.304 116.4 129.154 116.427 129.017 116.467C128.885 116.506 128.775 116.566 128.686 116.645C128.598 116.725 128.554 116.831 128.554 116.963C128.554 117.056 128.572 117.133 128.607 117.195C128.647 117.256 128.697 117.307 128.759 117.347C128.821 117.387 128.889 117.415 128.964 117.433C129.039 117.446 129.117 117.453 129.196 117.453C129.487 117.453 129.71 117.367 129.864 117.195C130.023 117.018 130.103 116.798 130.103 116.533V116.367H129.95ZM132.366 117.863H131.744V114.726H132.366V117.863ZM132.472 113.594C132.472 113.709 132.43 113.804 132.346 113.879C132.267 113.954 132.17 113.991 132.055 113.991C131.94 113.991 131.843 113.954 131.764 113.879C131.684 113.8 131.645 113.705 131.645 113.594C131.645 113.48 131.684 113.385 131.764 113.31C131.843 113.23 131.94 113.191 132.055 113.191C132.17 113.191 132.267 113.23 132.346 113.31C132.43 113.385 132.472 113.48 132.472 113.594ZM134.013 114.726C134.021 114.805 134.028 114.896 134.032 114.997C134.037 115.094 134.039 115.176 134.039 115.242H134.059C134.099 115.158 134.151 115.081 134.218 115.011C134.288 114.936 134.368 114.872 134.456 114.819C134.544 114.761 134.641 114.717 134.747 114.686C134.853 114.655 134.963 114.64 135.078 114.64C135.281 114.64 135.455 114.675 135.601 114.746C135.746 114.812 135.868 114.903 135.965 115.017C136.062 115.132 136.133 115.267 136.177 115.421C136.225 115.575 136.249 115.741 136.249 115.917V117.863H135.627V116.122C135.627 115.995 135.616 115.873 135.594 115.758C135.577 115.644 135.541 115.542 135.488 115.454C135.435 115.366 135.363 115.295 135.27 115.242C135.177 115.189 135.058 115.163 134.913 115.163C134.665 115.163 134.463 115.258 134.304 115.447C134.149 115.633 134.072 115.882 134.072 116.195V117.863H133.45V115.401C133.45 115.317 133.448 115.209 133.443 115.077C133.439 114.944 133.432 114.828 133.423 114.726H134.013ZM137.931 117.863H137.309V114.726H137.931V117.863ZM138.037 113.594C138.037 113.709 137.995 113.804 137.911 113.879C137.831 113.954 137.734 113.991 137.62 113.991C137.505 113.991 137.408 113.954 137.328 113.879C137.249 113.8 137.209 113.705 137.209 113.594C137.209 113.48 137.249 113.385 137.328 113.31C137.408 113.23 137.505 113.191 137.62 113.191C137.734 113.191 137.831 113.23 137.911 113.31C137.995 113.385 138.037 113.48 138.037 113.594ZM139.577 114.726C139.586 114.805 139.593 114.896 139.597 114.997C139.601 115.094 139.604 115.176 139.604 115.242H139.623C139.663 115.158 139.716 115.081 139.782 115.011C139.853 114.936 139.932 114.872 140.021 114.819C140.109 114.761 140.206 114.717 140.312 114.686C140.418 114.655 140.528 114.64 140.643 114.64C140.846 114.64 141.02 114.675 141.166 114.746C141.311 114.812 141.432 114.903 141.53 115.017C141.627 115.132 141.697 115.267 141.741 115.421C141.79 115.575 141.814 115.741 141.814 115.917V117.863H141.192V116.122C141.192 115.995 141.181 115.873 141.159 115.758C141.141 115.644 141.106 115.542 141.053 115.454C141 115.366 140.927 115.295 140.835 115.242C140.742 115.189 140.623 115.163 140.477 115.163C140.23 115.163 140.027 115.258 139.868 115.447C139.714 115.633 139.637 115.882 139.637 116.195V117.863H139.015V115.401C139.015 115.317 139.012 115.209 139.008 115.077C139.004 114.944 138.997 114.828 138.988 114.726H139.577ZM143.111 118.399C143.248 118.554 143.418 118.677 143.621 118.77C143.828 118.862 144.04 118.909 144.256 118.909C144.464 118.909 144.638 118.878 144.779 118.816C144.92 118.759 145.033 118.677 145.117 118.571C145.205 118.47 145.267 118.348 145.302 118.207C145.342 118.066 145.362 117.914 145.362 117.751V117.347H145.348C145.234 117.523 145.077 117.658 144.878 117.751C144.68 117.843 144.468 117.89 144.243 117.89C144.005 117.89 143.786 117.848 143.588 117.764C143.394 117.68 143.228 117.565 143.092 117.42C142.955 117.274 142.849 117.104 142.774 116.91C142.699 116.711 142.661 116.5 142.661 116.275C142.661 116.05 142.699 115.838 142.774 115.639C142.849 115.441 142.955 115.269 143.092 115.123C143.228 114.973 143.394 114.856 143.588 114.772C143.782 114.684 143.998 114.64 144.237 114.64C144.462 114.64 144.676 114.689 144.878 114.786C145.086 114.883 145.249 115.03 145.368 115.229H145.381V114.726H145.984V117.704C145.984 117.934 145.955 118.152 145.898 118.359C145.84 118.571 145.743 118.756 145.606 118.915C145.47 119.079 145.291 119.209 145.07 119.306C144.85 119.403 144.576 119.451 144.25 119.451C143.976 119.451 143.7 119.401 143.422 119.299C143.149 119.202 142.913 119.063 142.714 118.882L143.111 118.399ZM143.303 116.261C143.303 116.407 143.325 116.546 143.37 116.678C143.418 116.811 143.486 116.928 143.575 117.029C143.667 117.131 143.778 117.212 143.906 117.274C144.034 117.336 144.179 117.367 144.342 117.367C144.501 117.367 144.647 117.338 144.779 117.281C144.912 117.223 145.024 117.146 145.117 117.049C145.209 116.948 145.28 116.831 145.329 116.698C145.381 116.561 145.408 116.416 145.408 116.261C145.408 116.111 145.381 115.97 145.329 115.838C145.28 115.706 145.207 115.589 145.11 115.487C145.017 115.386 144.905 115.306 144.773 115.249C144.645 115.187 144.501 115.156 144.342 115.156C144.179 115.156 144.034 115.187 143.906 115.249C143.778 115.306 143.667 115.386 143.575 115.487C143.486 115.584 143.418 115.701 143.37 115.838C143.325 115.97 143.303 116.111 143.303 116.261Z" fill="#35365E"/>
<path d="M86.3489 22.5377H88.7976V23.1201H85.6937V18.4345H88.6983V19.0103H86.3489V20.4133H88.5593V20.9758H86.3489V22.5377ZM91.5877 21.0884C91.5877 20.8545 91.5171 20.6824 91.3759 20.5721C91.2347 20.4574 91.0472 20.4001 90.8134 20.4001C90.6369 20.4001 90.4692 20.4354 90.3104 20.506C90.156 20.5721 90.0258 20.6582 89.9199 20.7641L89.589 20.367C89.7434 20.2214 89.9309 20.1067 90.1515 20.0228C90.3766 19.939 90.617 19.8971 90.8729 19.8971C91.0979 19.8971 91.2921 19.9302 91.4553 19.9964C91.623 20.0581 91.7597 20.1442 91.8656 20.2545C91.9715 20.3648 92.0509 20.4949 92.1039 20.6449C92.1568 20.795 92.1833 20.956 92.1833 21.1281V22.498C92.1833 22.6039 92.1855 22.7164 92.1899 22.8355C92.1987 22.9503 92.212 23.0451 92.2296 23.1201H91.6671C91.6318 22.9701 91.6141 22.8201 91.6141 22.6701H91.5943C91.4796 22.8377 91.334 22.9679 91.1575 23.0606C90.9854 23.1532 90.7803 23.1995 90.542 23.1995C90.4185 23.1995 90.2883 23.1819 90.1515 23.1466C90.0192 23.1157 89.8978 23.0628 89.7875 22.9878C89.6772 22.9127 89.5846 22.8135 89.5096 22.6899C89.439 22.5664 89.4037 22.4142 89.4037 22.2333C89.4037 21.995 89.4677 21.8075 89.5956 21.6707C89.7236 21.5296 89.8912 21.4237 90.0986 21.3531C90.306 21.2781 90.5398 21.2295 90.8001 21.2075C91.0604 21.1854 91.323 21.1744 91.5877 21.1744V21.0884ZM91.4355 21.6244C91.281 21.6244 91.12 21.631 90.9523 21.6443C90.7891 21.6575 90.6391 21.684 90.5023 21.7237C90.3699 21.7634 90.2596 21.823 90.1714 21.9024C90.0832 21.9818 90.039 22.0877 90.039 22.2201C90.039 22.3127 90.0567 22.3899 90.092 22.4517C90.1317 22.5135 90.1824 22.5642 90.2442 22.6039C90.306 22.6436 90.3744 22.6723 90.4494 22.6899C90.5244 22.7032 90.6016 22.7098 90.681 22.7098C90.9722 22.7098 91.195 22.6238 91.3494 22.4517C91.5083 22.2752 91.5877 22.0546 91.5877 21.7899V21.6244H91.4355ZM93.2223 20.6582C93.2223 20.5743 93.2201 20.4663 93.2157 20.3339C93.2113 20.2015 93.2047 20.0846 93.1958 19.9831H93.7848C93.7937 20.0625 93.8003 20.1552 93.8047 20.2611C93.8091 20.3626 93.8113 20.4464 93.8113 20.5126H93.8312C93.9194 20.3273 94.0474 20.1795 94.215 20.0692C94.3871 19.9544 94.579 19.8971 94.7908 19.8971C94.8879 19.8971 94.9695 19.9059 95.0357 19.9236L95.0092 20.4993C94.921 20.4773 94.8261 20.4663 94.7246 20.4663C94.5746 20.4663 94.4444 20.4949 94.3341 20.5523C94.2238 20.6052 94.1312 20.678 94.0562 20.7707C93.9856 20.8633 93.9326 20.9714 93.8973 21.095C93.8621 21.2141 93.8444 21.3398 93.8444 21.4722V23.1201H93.2223V20.6582ZM96.1826 19.9831C96.1914 20.0625 96.1981 20.153 96.2025 20.2545C96.2069 20.3515 96.2091 20.4332 96.2091 20.4993H96.2289C96.2687 20.4155 96.3216 20.3383 96.3878 20.2677C96.4584 20.1927 96.5378 20.1287 96.626 20.0758C96.7143 20.0184 96.8113 19.9743 96.9172 19.9434C97.0231 19.9125 97.1334 19.8971 97.2481 19.8971C97.4511 19.8971 97.6254 19.9324 97.771 20.003C97.9166 20.0692 98.0379 20.1596 98.135 20.2743C98.232 20.389 98.3026 20.5236 98.3467 20.678C98.3953 20.8325 98.4195 20.9979 98.4195 21.1744V23.1201H97.7974V21.3796C97.7974 21.2516 97.7864 21.1303 97.7643 21.0156C97.7467 20.9008 97.7114 20.7994 97.6585 20.7111C97.6055 20.6229 97.5327 20.5523 97.4401 20.4993C97.3474 20.4464 97.2283 20.4199 97.0827 20.4199C96.8356 20.4199 96.6326 20.5148 96.4738 20.7045C96.3194 20.8898 96.2422 21.1391 96.2422 21.4524V23.1201H95.6201V20.6582C95.6201 20.5743 95.6179 20.4663 95.6135 20.3339C95.609 20.2015 95.6024 20.0846 95.5936 19.9831H96.1826ZM101.769 21.2737C101.764 21.1501 101.742 21.0354 101.702 20.9295C101.667 20.8192 101.612 20.7244 101.537 20.6449C101.466 20.5655 101.376 20.5038 101.266 20.4596C101.16 20.4111 101.034 20.3868 100.888 20.3868C100.756 20.3868 100.63 20.4111 100.511 20.4596C100.396 20.5038 100.295 20.5655 100.207 20.6449C100.123 20.7244 100.052 20.8192 99.9949 20.9295C99.9419 21.0354 99.911 21.1501 99.9022 21.2737H101.769ZM102.397 21.5251C102.397 21.5604 102.397 21.5957 102.397 21.631C102.397 21.6663 102.395 21.7016 102.391 21.7369H99.9022C99.9066 21.8693 99.9353 21.995 99.9882 22.1142C100.046 22.2289 100.121 22.3304 100.213 22.4186C100.306 22.5024 100.412 22.5686 100.531 22.6171C100.654 22.6657 100.785 22.6899 100.921 22.6899C101.133 22.6899 101.316 22.6436 101.471 22.551C101.625 22.4583 101.746 22.3458 101.835 22.2134L102.271 22.5642C102.104 22.7848 101.905 22.948 101.676 23.0539C101.451 23.1554 101.199 23.2062 100.921 23.2062C100.683 23.2062 100.463 23.1664 100.26 23.087C100.057 23.0076 99.8824 22.8973 99.7368 22.7561C99.5912 22.6105 99.4764 22.4362 99.3926 22.2333C99.3088 22.0303 99.2669 21.8053 99.2669 21.5582C99.2669 21.3156 99.3066 21.0928 99.386 20.8898C99.4698 20.6824 99.5845 20.506 99.7301 20.3604C99.8757 20.2148 100.048 20.1023 100.246 20.0228C100.445 19.939 100.659 19.8971 100.888 19.8971C101.118 19.8971 101.325 19.9346 101.51 20.0096C101.7 20.0846 101.859 20.1927 101.987 20.3339C102.119 20.4751 102.221 20.6471 102.291 20.8501C102.362 21.0486 102.397 21.2737 102.397 21.5251ZM105.767 22.6238C105.648 22.8135 105.485 22.9591 105.278 23.0606C105.075 23.1576 104.861 23.2062 104.636 23.2062C104.393 23.2062 104.175 23.1642 103.981 23.0804C103.786 22.9922 103.621 22.873 103.484 22.723C103.347 22.573 103.242 22.3965 103.167 22.1936C103.092 21.9906 103.054 21.7744 103.054 21.545C103.054 21.3156 103.092 21.1016 103.167 20.903C103.242 20.7001 103.347 20.5236 103.484 20.3736C103.625 20.2236 103.793 20.1067 103.987 20.0228C104.181 19.939 104.395 19.8971 104.629 19.8971C104.885 19.8971 105.108 19.9522 105.298 20.0625C105.487 20.1684 105.637 20.2986 105.748 20.453H105.761V18.1168H106.383V23.1201H105.781V22.6238H105.767ZM103.703 21.545C103.703 21.6906 103.725 21.8318 103.769 21.9686C103.813 22.1053 103.879 22.2267 103.967 22.3326C104.056 22.4385 104.164 22.5245 104.292 22.5907C104.42 22.6524 104.57 22.6833 104.742 22.6833C104.9 22.6833 105.044 22.6524 105.172 22.5907C105.304 22.5289 105.417 22.4473 105.509 22.3458C105.602 22.2399 105.673 22.1186 105.721 21.9818C105.774 21.845 105.801 21.7016 105.801 21.5516C105.801 21.4016 105.774 21.2582 105.721 21.1214C105.673 20.9847 105.602 20.8633 105.509 20.7574C105.417 20.6516 105.304 20.5677 105.172 20.506C105.044 20.4442 104.9 20.4133 104.742 20.4133C104.57 20.4133 104.42 20.4442 104.292 20.506C104.164 20.5677 104.056 20.6516 103.967 20.7574C103.879 20.8633 103.813 20.9847 103.769 21.1214C103.725 21.2582 103.703 21.3994 103.703 21.545Z" fill="#3282FF"/>
<path d="M118.738 64.1061C118.989 64.1149 119.248 64.159 119.512 64.2385C119.777 64.3179 120.013 64.4414 120.22 64.6091C120.004 64.8562 119.79 65.0966 119.578 65.3305C119.468 65.2201 119.336 65.1341 119.181 65.0723C119.027 65.0106 118.879 64.9775 118.738 64.9731V66.032C118.91 66.0849 119.084 66.1445 119.261 66.2107C119.437 66.2768 119.598 66.3651 119.744 66.4754C119.89 66.5857 120.009 66.7203 120.101 66.8791C120.194 67.0379 120.24 67.2365 120.24 67.4747C120.24 67.7174 120.196 67.9292 120.108 68.1101C120.024 68.2865 119.909 68.4344 119.764 68.5535C119.623 68.6726 119.459 68.7631 119.274 68.8248C119.093 68.8866 118.906 68.9197 118.712 68.9241V69.4072H118.222V68.9241C117.935 68.9153 117.646 68.8623 117.355 68.7653C117.064 68.6638 116.808 68.5138 116.587 68.3152C116.702 68.1961 116.817 68.077 116.931 67.9578C117.05 67.8343 117.167 67.7108 117.282 67.5872C117.339 67.6534 117.408 67.7152 117.487 67.7725C117.567 67.8255 117.648 67.8718 117.732 67.9115C117.816 67.9512 117.9 67.9843 117.984 68.0108C118.067 68.0329 118.147 68.0439 118.222 68.0439V66.8857C118.032 66.8328 117.849 66.7732 117.672 66.707C117.5 66.6408 117.348 66.5548 117.216 66.4489C117.083 66.343 116.978 66.2151 116.898 66.0651C116.819 65.9106 116.779 65.7231 116.779 65.5025C116.779 65.2863 116.823 65.0944 116.911 64.9267C117 64.7547 117.114 64.6113 117.256 64.4966C117.397 64.3774 117.556 64.287 117.732 64.2252C117.909 64.159 118.083 64.1215 118.255 64.1127V63.6561H118.738V64.1061ZM118.255 64.9598C118.136 64.9731 118.028 65.0194 117.931 65.0988C117.838 65.1738 117.792 65.2841 117.792 65.4297C117.792 65.5709 117.834 65.679 117.917 65.754C118.001 65.829 118.114 65.8842 118.255 65.9195V64.9598ZM118.712 68.0505C118.862 68.0417 118.978 67.9931 119.062 67.9049C119.151 67.8122 119.195 67.6887 119.195 67.5343C119.195 67.3799 119.148 67.2651 119.056 67.1901C118.967 67.1107 118.853 67.049 118.712 67.0048V68.0505ZM120.852 68.8579V67.9314L122.679 66.2768C122.794 66.1665 122.886 66.054 122.957 65.9393C123.028 65.8246 123.063 65.6967 123.063 65.5555C123.063 65.3878 123.01 65.2532 122.904 65.1518C122.798 65.0459 122.657 64.9929 122.48 64.9929C122.295 64.9929 122.143 65.0591 122.024 65.1915C121.909 65.3194 121.841 65.4893 121.819 65.7011L120.753 65.5555C120.78 65.3172 120.844 65.1054 120.945 64.9201C121.051 64.7348 121.183 64.5782 121.342 64.4502C121.501 64.3179 121.682 64.2186 121.885 64.1524C122.092 64.0818 122.311 64.0465 122.54 64.0465C122.756 64.0465 122.966 64.0752 123.169 64.1326C123.372 64.1899 123.553 64.2782 123.711 64.3973C123.87 64.5164 123.996 64.6664 124.089 64.8473C124.186 65.0282 124.234 65.24 124.234 65.4827C124.234 65.6503 124.212 65.8025 124.168 65.9393C124.124 66.0717 124.062 66.1952 123.983 66.3099C123.908 66.4246 123.82 66.5327 123.718 66.6342C123.621 66.7313 123.519 66.8284 123.414 66.9254L122.328 67.8917H124.241V68.8579H120.852ZM128.42 66.5019C128.42 66.8328 128.387 67.1482 128.321 67.4483C128.255 67.7483 128.149 68.013 128.003 68.2424C127.858 68.4674 127.668 68.6483 127.434 68.7851C127.205 68.9175 126.924 68.9837 126.593 68.9837C126.263 68.9837 125.98 68.9175 125.746 68.7851C125.513 68.6483 125.321 68.4674 125.171 68.2424C125.025 68.013 124.919 67.7483 124.853 67.4483C124.787 67.1482 124.754 66.8328 124.754 66.5019C124.754 66.171 124.787 65.8577 124.853 65.5621C124.919 65.2621 125.025 65.0018 125.171 64.7811C125.321 64.5561 125.513 64.3774 125.746 64.2451C125.98 64.1127 126.263 64.0465 126.593 64.0465C126.924 64.0465 127.205 64.1127 127.434 64.2451C127.668 64.3774 127.858 64.5561 128.003 64.7811C128.149 65.0018 128.255 65.2621 128.321 65.5621C128.387 65.8577 128.42 66.171 128.42 66.5019ZM127.282 66.5019C127.282 66.3563 127.273 66.1952 127.255 66.0187C127.238 65.8423 127.205 65.679 127.156 65.529C127.108 65.3746 127.037 65.2466 126.944 65.1451C126.856 65.0393 126.739 64.9863 126.593 64.9863C126.448 64.9863 126.329 65.0393 126.236 65.1451C126.143 65.2466 126.071 65.3746 126.018 65.529C125.969 65.679 125.936 65.8423 125.918 66.0187C125.901 66.1952 125.892 66.3563 125.892 66.5019C125.892 66.6519 125.901 66.8173 125.918 66.9982C125.936 67.1747 125.969 67.3402 126.018 67.4946C126.071 67.6446 126.143 67.7725 126.236 67.8784C126.329 67.9799 126.448 68.0306 126.593 68.0306C126.739 68.0306 126.856 67.9799 126.944 67.8784C127.037 67.7725 127.108 67.6446 127.156 67.4946C127.205 67.3402 127.238 67.1747 127.255 66.9982C127.273 66.8173 127.282 66.6519 127.282 66.5019ZM132.467 66.5019C132.467 66.8328 132.434 67.1482 132.368 67.4483C132.302 67.7483 132.196 68.013 132.05 68.2424C131.904 68.4674 131.715 68.6483 131.481 68.7851C131.251 68.9175 130.971 68.9837 130.64 68.9837C130.309 68.9837 130.027 68.9175 129.793 68.7851C129.559 68.6483 129.367 68.4674 129.217 68.2424C129.072 68.013 128.966 67.7483 128.9 67.4483C128.834 67.1482 128.801 66.8328 128.801 66.5019C128.801 66.171 128.834 65.8577 128.9 65.5621C128.966 65.2621 129.072 65.0018 129.217 64.7811C129.367 64.5561 129.559 64.3774 129.793 64.2451C130.027 64.1127 130.309 64.0465 130.64 64.0465C130.971 64.0465 131.251 64.1127 131.481 64.2451C131.715 64.3774 131.904 64.5561 132.05 64.7811C132.196 65.0018 132.302 65.2621 132.368 65.5621C132.434 65.8577 132.467 66.171 132.467 66.5019ZM131.329 66.5019C131.329 66.3563 131.32 66.1952 131.302 66.0187C131.285 65.8423 131.251 65.679 131.203 65.529C131.154 65.3746 131.084 65.2466 130.991 65.1451C130.903 65.0393 130.786 64.9863 130.64 64.9863C130.495 64.9863 130.376 65.0393 130.283 65.1451C130.19 65.2466 130.118 65.3746 130.065 65.529C130.016 65.679 129.983 65.8423 129.965 66.0187C129.948 66.1952 129.939 66.3563 129.939 66.5019C129.939 66.6519 129.948 66.8173 129.965 66.9982C129.983 67.1747 130.016 67.3402 130.065 67.4946C130.118 67.6446 130.19 67.7725 130.283 67.8784C130.376 67.9799 130.495 68.0306 130.64 68.0306C130.786 68.0306 130.903 67.9799 130.991 67.8784C131.084 67.7725 131.154 67.6446 131.203 67.4946C131.251 67.3402 131.285 67.1747 131.302 66.9982C131.32 66.8173 131.329 66.6519 131.329 66.5019ZM135.892 68.8579L134.151 66.7004H134.138V68.8579H133.026V64.1723H134.138V66.0783H134.158L135.832 64.1723H137.248L135.23 66.3298L137.368 68.8579H135.892Z" fill="#FA4F76"/>
<path d="M121.65 58.1327C121.65 58.4945 121.586 58.8276 121.458 59.1321C121.335 59.4321 121.162 59.6924 120.942 59.913C120.721 60.1292 120.459 60.2991 120.154 60.4226C119.85 60.5417 119.519 60.6013 119.162 60.6013C118.804 60.6013 118.473 60.5417 118.169 60.4226C117.869 60.2991 117.608 60.1292 117.388 59.913C117.167 59.6924 116.995 59.4321 116.872 59.1321C116.748 58.8276 116.686 58.4945 116.686 58.1327C116.686 57.7665 116.748 57.4334 116.872 57.1334C116.995 56.829 117.167 56.5709 117.388 56.3591C117.608 56.1429 117.869 55.9752 118.169 55.8561C118.473 55.737 118.804 55.6774 119.162 55.6774C119.519 55.6774 119.85 55.737 120.154 55.8561C120.459 55.9752 120.721 56.1429 120.942 56.3591C121.162 56.5709 121.335 56.829 121.458 57.1334C121.586 57.4334 121.65 57.7665 121.65 58.1327ZM120.942 58.1327C120.942 57.8768 120.9 57.6364 120.816 57.4114C120.732 57.1819 120.613 56.9812 120.459 56.8091C120.304 56.637 120.117 56.5025 119.896 56.4054C119.68 56.3039 119.435 56.2532 119.162 56.2532C118.892 56.2532 118.648 56.3039 118.427 56.4054C118.211 56.5025 118.025 56.637 117.871 56.8091C117.721 56.9812 117.604 57.1819 117.52 57.4114C117.436 57.6364 117.395 57.8768 117.395 58.1327C117.395 58.3931 117.436 58.6379 117.52 58.8674C117.604 59.0968 117.723 59.2975 117.878 59.4696C118.032 59.6373 118.217 59.7696 118.434 59.8667C118.65 59.9638 118.892 60.0123 119.162 60.0123C119.431 60.0123 119.676 59.9638 119.896 59.8667C120.117 59.7696 120.304 59.6373 120.459 59.4696C120.613 59.2975 120.732 59.0968 120.816 58.8674C120.9 58.6379 120.942 58.3931 120.942 58.1327ZM123.984 60.4822H123.309L122.031 57.3452H122.72L123.64 59.8137H123.653L124.579 57.3452H125.241L123.984 60.4822ZM128.139 58.6357C128.135 58.5122 128.113 58.3975 128.073 58.2916C128.038 58.1813 127.983 58.0864 127.908 58.007C127.837 57.9276 127.747 57.8658 127.636 57.8217C127.53 57.7732 127.405 57.7489 127.259 57.7489C127.127 57.7489 127.001 57.7732 126.882 57.8217C126.767 57.8658 126.666 57.9276 126.577 58.007C126.494 58.0864 126.423 58.1813 126.366 58.2916C126.313 58.3975 126.282 58.5122 126.273 58.6357H128.139ZM128.768 58.8872C128.768 58.9225 128.768 58.9578 128.768 58.9931C128.768 59.0284 128.766 59.0637 128.761 59.099H126.273C126.277 59.2314 126.306 59.3571 126.359 59.4762C126.416 59.5909 126.491 59.6924 126.584 59.7807C126.677 59.8645 126.783 59.9307 126.902 59.9792C127.025 60.0277 127.155 60.052 127.292 60.052C127.504 60.052 127.687 60.0057 127.841 59.913C127.996 59.8204 128.117 59.7079 128.205 59.5755L128.642 59.9263C128.475 60.1469 128.276 60.3101 128.047 60.416C127.822 60.5175 127.57 60.5682 127.292 60.5682C127.054 60.5682 126.833 60.5285 126.63 60.4491C126.427 60.3697 126.253 60.2594 126.108 60.1182C125.962 59.9726 125.847 59.7983 125.763 59.5953C125.68 59.3924 125.638 59.1674 125.638 58.9203C125.638 58.6776 125.677 58.4548 125.757 58.2519C125.841 58.0445 125.955 57.868 126.101 57.7224C126.247 57.5768 126.419 57.4643 126.617 57.3849C126.816 57.3011 127.03 57.2592 127.259 57.2592C127.489 57.2592 127.696 57.2967 127.881 57.3717C128.071 57.4467 128.23 57.5548 128.358 57.6959C128.49 57.8371 128.592 58.0092 128.662 58.2122C128.733 58.4107 128.768 58.6357 128.768 58.8872ZM129.637 58.0202C129.637 57.9364 129.634 57.8283 129.63 57.6959C129.626 57.5636 129.619 57.4467 129.61 57.3452H130.199C130.208 57.4246 130.215 57.5173 130.219 57.6231C130.223 57.7246 130.226 57.8085 130.226 57.8746H130.245C130.334 57.6893 130.462 57.5415 130.629 57.4312C130.801 57.3165 130.993 57.2592 131.205 57.2592C131.302 57.2592 131.384 57.268 131.45 57.2856L131.423 57.8614C131.335 57.8393 131.24 57.8283 131.139 57.8283C130.989 57.8283 130.859 57.857 130.748 57.9143C130.638 57.9673 130.545 58.0401 130.47 58.1327C130.4 58.2254 130.347 58.3335 130.312 58.457C130.276 58.5762 130.259 58.7019 130.259 58.8343V60.4822H129.637V58.0202ZM132.65 59.9858V60.4822H132.048V55.4789H132.67V57.8151H132.69C132.795 57.6607 132.943 57.5305 133.133 57.4246C133.323 57.3143 133.548 57.2592 133.808 57.2592C134.042 57.2592 134.254 57.3011 134.443 57.3849C134.637 57.4687 134.803 57.5856 134.94 57.7357C135.081 57.8857 135.189 58.0622 135.264 58.2651C135.339 58.4637 135.377 58.6776 135.377 58.9071C135.377 59.1365 135.339 59.3527 135.264 59.5556C135.189 59.7586 135.083 59.9351 134.946 60.0851C134.81 60.2351 134.644 60.3542 134.45 60.4425C134.256 60.5263 134.037 60.5682 133.795 60.5682C133.57 60.5682 133.356 60.5197 133.153 60.4226C132.95 60.3211 132.787 60.1755 132.663 59.9858H132.65ZM134.735 58.9071C134.735 58.7615 134.713 58.6203 134.668 58.4835C134.624 58.3467 134.558 58.2254 134.47 58.1195C134.382 58.0136 134.271 57.9298 134.139 57.868C134.011 57.8063 133.861 57.7754 133.689 57.7754C133.53 57.7754 133.384 57.8063 133.252 57.868C133.124 57.9298 133.014 58.0136 132.921 58.1195C132.829 58.2254 132.756 58.3467 132.703 58.4835C132.654 58.6203 132.63 58.7637 132.63 58.9137C132.63 59.0637 132.654 59.2071 132.703 59.3439C132.756 59.4806 132.829 59.602 132.921 59.7079C133.014 59.8093 133.124 59.891 133.252 59.9527C133.384 60.0145 133.53 60.0454 133.689 60.0454C133.861 60.0454 134.011 60.0145 134.139 59.9527C134.271 59.8865 134.382 59.8005 134.47 59.6946C134.558 59.5887 134.624 59.4674 134.668 59.3306C134.713 59.1938 134.735 59.0527 134.735 58.9071ZM136.871 60.4822H136.248V57.3452H136.871V60.4822ZM136.976 56.2135C136.976 56.3282 136.934 56.4231 136.851 56.4981C136.771 56.5731 136.674 56.6106 136.559 56.6106C136.445 56.6106 136.348 56.5731 136.268 56.4981C136.189 56.4187 136.149 56.3238 136.149 56.2135C136.149 56.0988 136.189 56.0039 136.268 55.9289C136.348 55.8495 136.445 55.8098 136.559 55.8098C136.674 55.8098 136.771 55.8495 136.851 55.9289C136.934 56.0039 136.976 56.0988 136.976 56.2135ZM138.59 60.4822H137.968V55.4789H138.59V60.4822ZM140.309 60.4822H139.687V55.4789H140.309V60.4822ZM143.689 58.6357C143.685 58.5122 143.663 58.3975 143.623 58.2916C143.588 58.1813 143.533 58.0864 143.458 58.007C143.387 57.9276 143.297 57.8658 143.186 57.8217C143.08 57.7732 142.955 57.7489 142.809 57.7489C142.677 57.7489 142.551 57.7732 142.432 57.8217C142.317 57.8658 142.216 57.9276 142.127 58.007C142.044 58.0864 141.973 58.1813 141.916 58.2916C141.863 58.3975 141.832 58.5122 141.823 58.6357H143.689ZM144.318 58.8872C144.318 58.9225 144.318 58.9578 144.318 58.9931C144.318 59.0284 144.316 59.0637 144.311 59.099H141.823C141.827 59.2314 141.856 59.3571 141.909 59.4762C141.966 59.5909 142.041 59.6924 142.134 59.7807C142.227 59.8645 142.333 59.9307 142.452 59.9792C142.575 60.0277 142.705 60.052 142.842 60.052C143.054 60.052 143.237 60.0057 143.391 59.913C143.546 59.8204 143.667 59.7079 143.755 59.5755L144.192 59.9263C144.025 60.1469 143.826 60.3101 143.597 60.416C143.372 60.5175 143.12 60.5682 142.842 60.5682C142.604 60.5682 142.383 60.5285 142.18 60.4491C141.977 60.3697 141.803 60.2594 141.658 60.1182C141.512 59.9726 141.397 59.7983 141.313 59.5953C141.23 59.3924 141.188 59.1674 141.188 58.9203C141.188 58.6776 141.227 58.4548 141.307 58.2519C141.391 58.0445 141.505 57.868 141.651 57.7224C141.797 57.5768 141.969 57.4643 142.167 57.3849C142.366 57.3011 142.58 57.2592 142.809 57.2592C143.039 57.2592 143.246 57.2967 143.431 57.3717C143.621 57.4467 143.78 57.5548 143.908 57.6959C144.04 57.8371 144.142 58.0092 144.212 58.2122C144.283 58.4107 144.318 58.6357 144.318 58.8872ZM147.688 59.9858C147.569 60.1755 147.406 60.3211 147.199 60.4226C146.996 60.5197 146.782 60.5682 146.557 60.5682C146.314 60.5682 146.095 60.5263 145.901 60.4425C145.707 60.3542 145.542 60.2351 145.405 60.0851C145.268 59.9351 145.162 59.7586 145.087 59.5556C145.012 59.3527 144.975 59.1365 144.975 58.9071C144.975 58.6776 145.012 58.4637 145.087 58.2651C145.162 58.0622 145.268 57.8857 145.405 57.7357C145.546 57.5856 145.714 57.4687 145.908 57.3849C146.102 57.3011 146.316 57.2592 146.55 57.2592C146.806 57.2592 147.029 57.3143 147.218 57.4246C147.408 57.5305 147.558 57.6607 147.668 57.8151H147.682V55.4789H148.304V60.4822H147.701V59.9858H147.688ZM145.623 58.9071C145.623 59.0527 145.645 59.1938 145.69 59.3306C145.734 59.4674 145.8 59.5887 145.888 59.6946C145.976 59.8005 146.084 59.8865 146.212 59.9527C146.34 60.0145 146.49 60.0454 146.662 60.0454C146.821 60.0454 146.965 60.0145 147.093 59.9527C147.225 59.891 147.337 59.8093 147.43 59.7079C147.523 59.602 147.593 59.4806 147.642 59.3439C147.695 59.2071 147.721 59.0637 147.721 58.9137C147.721 58.7637 147.695 58.6203 147.642 58.4835C147.593 58.3467 147.523 58.2254 147.43 58.1195C147.337 58.0136 147.225 57.9298 147.093 57.868C146.965 57.8063 146.821 57.7754 146.662 57.7754C146.49 57.7754 146.34 57.8063 146.212 57.868C146.084 57.9298 145.976 58.0136 145.888 58.1195C145.8 58.2254 145.734 58.3467 145.69 58.4835C145.645 58.6203 145.623 58.7615 145.623 58.9071Z" fill="#FA4F76"/>
<path d="M21.3466 19.1987C21.3466 19.5825 21.2705 19.9068 21.1183 20.1715C20.966 20.4296 20.7642 20.6381 20.5127 20.7969C20.2612 20.9558 19.9733 21.0716 19.649 21.1444C19.3314 21.2106 19.0038 21.2437 18.6662 21.2437H15.8668V14.2152H18.6662C18.9376 14.2152 19.2155 14.245 19.5001 14.3046C19.7847 14.3575 20.0428 14.4535 20.2744 14.5924C20.5061 14.7248 20.6947 14.9068 20.8403 15.1384C20.9859 15.3701 21.0587 15.6646 21.0587 16.022C21.0587 16.4124 20.9528 16.7367 20.741 16.9948C20.5292 17.2463 20.2513 17.4283 19.9071 17.5408V17.5607C20.1057 17.5938 20.291 17.6566 20.4631 17.7493C20.6417 17.8353 20.794 17.9478 20.9197 18.0868C21.0521 18.2258 21.1547 18.3879 21.2275 18.5732C21.3069 18.7585 21.3466 18.967 21.3466 19.1987ZM19.4207 16.2503C19.4207 16.012 19.3281 15.84 19.1427 15.7341C18.9641 15.6216 18.696 15.5653 18.3386 15.5653H17.5048V17.0147H18.4181C18.7357 17.0147 18.9806 16.9518 19.1527 16.8261C19.3314 16.6937 19.4207 16.5018 19.4207 16.2503ZM19.649 19.0398C19.649 18.7486 19.5398 18.5468 19.3214 18.4343C19.103 18.3218 18.8118 18.2655 18.4478 18.2655H17.5048V19.8737H18.4578C18.5901 19.8737 18.7258 19.8638 18.8648 19.8439C19.0104 19.8174 19.1394 19.7744 19.2519 19.7149C19.3711 19.6553 19.467 19.5726 19.5398 19.4667C19.6126 19.3542 19.649 19.2119 19.649 19.0398ZM23.9479 14.7215C23.9479 14.8472 23.9214 14.9664 23.8685 15.0789C23.8221 15.1848 23.756 15.2774 23.6699 15.3568C23.5905 15.4363 23.4912 15.4991 23.3721 15.5454C23.2596 15.5918 23.1405 15.6149 23.0147 15.6149C22.75 15.6149 22.5283 15.5289 22.3496 15.3568C22.1709 15.1781 22.0816 14.9664 22.0816 14.7215C22.0816 14.6024 22.1047 14.4899 22.1511 14.384C22.1974 14.2715 22.2636 14.1755 22.3496 14.0961C22.4356 14.0167 22.5349 13.9538 22.6474 13.9075C22.7599 13.8545 22.8824 13.828 23.0147 13.828C23.1405 13.828 23.2596 13.8512 23.3721 13.8975C23.4912 13.9439 23.5905 14.0067 23.6699 14.0862C23.756 14.1656 23.8221 14.2615 23.8685 14.374C23.9214 14.4799 23.9479 14.5957 23.9479 14.7215ZM22.2007 21.2437V16.2999H23.8288V21.2437H22.2007ZM24.9396 21.2437V13.7387H26.5875V21.2437H24.9396ZM27.6979 21.2437V13.7387H29.3458V21.2437H27.6979ZM33.345 17.7592C33.2126 17.6335 33.0571 17.5276 32.8784 17.4415C32.6997 17.3555 32.5111 17.3125 32.3125 17.3125C32.1603 17.3125 32.018 17.3423 31.8857 17.4018C31.7599 17.4614 31.6971 17.564 31.6971 17.7096C31.6971 17.8486 31.7666 17.9478 31.9055 18.0074C32.0511 18.067 32.2828 18.1331 32.6004 18.2059C32.7857 18.2456 32.9711 18.3019 33.1564 18.3747C33.3483 18.4475 33.5204 18.5435 33.6726 18.6626C33.8248 18.7817 33.9472 18.9273 34.0399 19.0994C34.1325 19.2715 34.1789 19.4766 34.1789 19.7149C34.1789 20.0259 34.116 20.2906 33.9902 20.509C33.8645 20.7208 33.699 20.8929 33.4939 21.0253C33.2953 21.1576 33.0703 21.2536 32.8188 21.3131C32.5673 21.3727 32.3159 21.4025 32.0644 21.4025C31.6607 21.4025 31.2636 21.3396 30.8731 21.2139C30.4893 21.0815 30.1683 20.8896 29.9102 20.6381L30.8235 19.6752C30.9691 19.834 31.1478 19.9664 31.3595 20.0722C31.5713 20.1781 31.7963 20.2311 32.0346 20.2311C32.1669 20.2311 32.296 20.2013 32.4217 20.1417C32.5541 20.0756 32.6203 19.963 32.6203 19.8042C32.6203 19.652 32.5409 19.5395 32.382 19.4667C32.2232 19.3939 31.975 19.3178 31.6375 19.2384C31.4654 19.1987 31.2934 19.1457 31.1213 19.0795C30.9492 19.0133 30.7937 18.924 30.6547 18.8115C30.5223 18.699 30.4131 18.56 30.3271 18.3946C30.2411 18.2291 30.1981 18.0306 30.1981 17.7989C30.1981 17.5011 30.2609 17.2496 30.3867 17.0445C30.5124 16.8327 30.6746 16.6606 30.8731 16.5282C31.0716 16.3959 31.29 16.2999 31.5283 16.2404C31.7732 16.1742 32.0147 16.1411 32.253 16.1411C32.6236 16.1411 32.9843 16.2006 33.335 16.3198C33.6924 16.4323 33.9936 16.6043 34.2384 16.836L33.345 17.7592Z" fill="#35365E"/>
</svg>
