<svg width="21" height="21" viewBox="0 0 21 21" fill="none"
  xmlns="http://www.w3.org/2000/svg">
  <path fill-rule="evenodd" clip-rule="evenodd" d="M10.5 20.1039C4.97715 20.1039 0.5 15.6268 0.5 10.1039C0.5 4.58106 4.97715 0.103912 10.5 0.103912C16.0228 0.103912 20.5 4.58106 20.5 10.1039C20.5 15.6268 16.0228 20.1039 10.5 20.1039ZM10.5 18.9039C15.3601 18.9039 19.3 14.964 19.3 10.1039C19.3 5.24381 15.3601 1.30391 10.5 1.30391C5.63989 1.30391 1.7 5.24381 1.7 10.1039C1.7 14.964 5.63989 18.9039 10.5 18.9039ZM14.7063 12.8833V11.6833H9.09844V6.10391H7.89844V12.8833H14.7063Z" fill="#6A7885"/>
</svg>
