<svg width="55" height="55" viewBox="0 0 55 55" fill="none"
  xmlns="http://www.w3.org/2000/svg">
  <path fill-rule="evenodd" clip-rule="evenodd" d="M49.5 32.9999C46.4625 32.9999 44.0001 30.5375 44.0001 27.5C44.0001 24.4624 46.4625 22 49.5 22C52.5376 22 55 24.4624 55 27.5C55 30.5375 52.5376 32.9999 49.5 32.9999ZM49.5 54.9999C46.4625 54.9999 44.0001 52.5375 44.0001 49.5C44.0001 46.4624 46.4625 44 49.5 44C52.5376 44 55 46.4624 55 49.5C55 52.5375 52.5376 54.9999 49.5 54.9999ZM27.5 54.9999C24.4625 54.9999 22.0001 52.5375 22.0001 49.5C22.0001 46.4624 24.4625 44 27.5 44C30.5376 44 33 46.4624 33 49.5C33 52.5375 30.5376 54.9999 27.5 54.9999ZM5.60184e-05 49.5C5.58856e-05 52.5375 2.46248 54.9999 5.50003 54.9999C8.53758 54.9999 11 52.5375 11 49.5C11 46.4624 8.53758 44 5.50003 44C2.46248 44 5.61512e-05 46.4624 5.60184e-05 49.5ZM22.0001 27.5C22.0001 30.5375 24.4625 32.9999 27.5 32.9999C30.5376 32.9999 33 30.5375 33 27.5C33 24.4624 30.5376 22 27.5 22C24.4625 22 22.0001 24.4624 22.0001 27.5Z" fill="#C7C9CF"/>
  <circle cx="49.5" cy="5.49997" r="5.49997" transform="rotate(90 49.5 5.49997)" fill="#008FEB"/>
  <circle cx="27.5" cy="5.49997" r="5.49997" transform="rotate(90 27.5 5.49997)" fill="#008FEB"/>
  <circle cx="5.50003" cy="5.49997" r="5.49997" transform="rotate(90 5.50003 5.49997)" fill="#008FEB"/>
  <circle cx="5.50003" cy="27.5" r="5.49997" transform="rotate(90 5.50003 27.5)" fill="#008FEB"/>
</svg>
