<svg width="55" height="55" viewBox="0 0 55 55" fill="none"
  xmlns="http://www.w3.org/2000/svg">
  <circle cx="27.5" cy="27.5" r="23.7656" stroke="#E4E6EF" stroke-width="7.46883"/>
  <mask id="mask0" mask-type="alpha" maskUnits="userSpaceOnUse" x="0" y="0" width="55" height="55">
    <path fill-rule="evenodd" clip-rule="evenodd" d="M27.5 7.58621C16.5019 7.58621 7.58621 16.5019 7.58621 27.5C7.58621 38.4981 16.5019 47.4138 27.5 47.4138C38.4981 47.4138 47.4138 38.4981 47.4138 27.5C47.4138 16.5019 38.4981 7.58621 27.5 7.58621ZM27.5 0C12.3122 0 0 12.3122 0 27.5C0 42.6878 12.3122 55 27.5 55C42.6878 55 55 42.6878 55 27.5C55 12.3122 42.6878 0 27.5 0Z" fill="#E4E6EF"/>
  </mask>
  <g mask="url(#mask0)">
    <path d="M27.9749 26.0774V59.2671L15.6474 53.1033L-7.5854 47.4136V6.16364L15.6474 -8.53464L59.7422 -0.000156403L27.9749 26.0774Z" fill="#DF425A"/>
  </g>
  <rect x="24.6562" y="15.1724" width="5.68966" height="16.1207" rx="2.84483" fill="#DF425A"/>
  <rect x="24.6562" y="34.1377" width="5.68966" height="5.68966" rx="2.84483" fill="#DF425A"/>
</svg>
