<svg width="24" height="542" viewBox="0 0 24 542" fill="none"
  xmlns="http://www.w3.org/2000/svg">
  <path d="M4.99976 11.4999L11.9998 4.49994L18.9998 11.4999" stroke="#009BFF"/>
  <path d="M17 118.988L7.04687 118.988L7.04687 115.577C7.04687 114.451 7.27246 113.595 7.72363 113.007C8.1748 112.419 8.847 112.125 9.74023 112.125C10.196 112.125 10.6061 112.248 10.9707 112.494C11.3353 112.74 11.6178 113.1 11.8184 113.574C11.9642 113.036 12.2399 112.622 12.6455 112.33C13.0465 112.034 13.5296 111.886 14.0947 111.886C15.029 111.886 15.7467 112.187 16.248 112.788C16.7493 113.385 17 114.242 17 115.358L17 118.988ZM12.5088 117.259L15.6191 117.259L15.6191 115.338C15.6191 114.796 15.4847 114.372 15.2158 114.066C14.9469 113.761 14.5732 113.608 14.0947 113.608C13.0602 113.608 12.5316 114.137 12.5088 115.194L12.5088 117.259ZM11.2373 117.259L11.2373 115.563C11.2373 115.026 11.1165 114.606 10.875 114.306C10.6289 114 10.2826 113.848 9.83594 113.848C9.34375 113.848 8.98828 113.989 8.76953 114.271C8.55078 114.549 8.44141 114.985 8.44141 115.577L8.44141 117.259L11.2373 117.259ZM14.6826 104.585L14.6826 108.44L17 109.247L17 111.045L7.04687 107.285L7.04687 105.733L17 101.967L17 103.771L14.6826 104.585ZM13.2881 107.955L13.2881 105.07L9.15918 106.513L13.2881 107.955ZM13.7598 93.3877C14.8216 93.488 15.651 93.8799 16.248 94.5635C16.8405 95.2471 17.1367 96.1562 17.1367 97.291C17.1367 98.084 16.9499 98.7835 16.5762 99.3896C16.1979 99.9912 15.6624 100.456 14.9697 100.784C14.277 101.112 13.4727 101.283 12.5566 101.297L11.627 101.297C10.6882 101.297 9.861 101.131 9.14551 100.798C8.43001 100.465 7.87858 99.9889 7.49121 99.3691C7.10384 98.7448 6.91016 98.0247 6.91016 97.209C6.91016 96.1107 7.20866 95.2266 7.80566 94.5566C8.40267 93.8867 9.24577 93.4971 10.335 93.3877L10.335 95.1104C9.61947 95.1924 9.10449 95.402 8.79004 95.7393C8.47103 96.0719 8.31152 96.5618 8.31152 97.209C8.31152 97.9609 8.58724 98.5397 9.13867 98.9453C9.68555 99.3464 10.4899 99.5514 11.5518 99.5605L12.4336 99.5605C13.5091 99.5605 14.3294 99.3691 14.8945 98.9863C15.4596 98.599 15.7422 98.0339 15.7422 97.291C15.7422 96.612 15.5895 96.1016 15.2842 95.7598C14.9788 95.418 14.4707 95.2015 13.7598 95.1104L13.7598 93.3877ZM12.7002 88.9785L13.8965 90.1064L17 90.1064L17 91.8359L7.04687 91.8359L7.04687 90.1064L11.7158 90.1064L10.5332 89.1494L7.04687 86.2373L7.04687 84.1455L11.4561 87.8437L17 83.9336L17 85.9844L12.7002 88.9785ZM8.4414 72.7363L8.4414 75.8398L17 75.8398L17 77.5557L8.4414 77.5557L8.4414 80.6318L7.04687 80.6318L7.04687 72.7363L8.4414 72.7363ZM12.2832 63.6719C13.2585 63.6719 14.1152 63.8405 14.8535 64.1777C15.5872 64.515 16.1523 64.998 16.5488 65.627C16.9408 66.2513 17.1367 66.9714 17.1367 67.7871C17.1367 68.5937 16.9408 69.3138 16.5488 69.9473C16.1523 70.5762 15.5895 71.0638 14.8603 71.4102C14.1312 71.752 13.2904 71.9251 12.3379 71.9297L11.7773 71.9297C10.8066 71.9297 9.94987 71.7588 9.20703 71.417C8.46419 71.0706 7.89681 70.5853 7.50488 69.9609C7.1084 69.332 6.91015 68.612 6.91015 67.8008C6.91015 66.9896 7.10612 66.2718 7.49804 65.6475C7.88541 65.0186 8.44596 64.5332 9.17969 64.1914C9.90885 63.8496 10.7588 63.6764 11.7295 63.6719L12.2832 63.6719ZM11.7637 65.4014C10.6608 65.4014 9.81543 65.611 9.22754 66.0303C8.63965 66.445 8.3457 67.0352 8.3457 67.8008C8.3457 68.5482 8.63965 69.1338 9.22754 69.5576C9.81087 69.9769 10.638 70.1911 11.709 70.2002L12.2832 70.2002C13.377 70.2002 14.2223 69.9883 14.8193 69.5645C15.4163 69.1361 15.7148 68.5436 15.7148 67.7871C15.7148 67.0215 15.4232 66.4336 14.8398 66.0234C14.2565 65.6087 13.4043 65.4014 12.2832 65.4014L11.7637 65.4014ZM8.4414 51.6816L8.4414 54.7852L17 54.7852L17 56.501L8.4414 56.501L8.4414 59.5771L7.04687 59.5771L7.04687 51.6816L8.4414 51.6816ZM12.2832 42.6172C13.2585 42.6172 14.1152 42.7858 14.8535 43.123C15.5872 43.4603 16.1523 43.9434 16.5488 44.5723C16.9408 45.1966 17.1367 45.9167 17.1367 46.7324C17.1367 47.5391 16.9408 48.2591 16.5488 48.8926C16.1523 49.5215 15.5895 50.0091 14.8603 50.3555C14.1312 50.6973 13.2904 50.8704 12.3379 50.875L11.7773 50.875C10.8066 50.875 9.94987 50.7041 9.20703 50.3623C8.46419 50.016 7.89681 49.5306 7.50488 48.9062C7.1084 48.2773 6.91015 47.5573 6.91015 46.7461C6.91015 45.9349 7.10612 45.2171 7.49804 44.5928C7.88541 43.9639 8.44596 43.4785 9.17968 43.1367C9.90885 42.7949 10.7588 42.6217 11.7295 42.6172L12.2832 42.6172ZM11.7637 44.3467C10.6608 44.3467 9.81543 44.5563 9.22754 44.9756C8.63965 45.3903 8.3457 45.9805 8.3457 46.7461C8.3457 47.4935 8.63965 48.0791 9.22754 48.5029C9.81087 48.9222 10.638 49.1364 11.709 49.1455L12.2832 49.1455C13.377 49.1455 14.2223 48.9336 14.8193 48.5098C15.4163 48.0814 15.7148 47.4889 15.7148 46.7324C15.7148 45.9668 15.4232 45.3789 14.8398 44.9687C14.2565 44.554 13.4043 44.3467 12.2832 44.3467L11.7637 44.3467ZM13.3018 39.165L17 39.165L17 40.8945L7.04687 40.8945L7.04687 37.0869C7.04687 35.9749 7.33626 35.0931 7.91504 34.4414C8.49381 33.7852 9.25944 33.457 10.2119 33.457C11.1872 33.457 11.946 33.7783 12.4883 34.4209C13.0306 35.0589 13.3018 35.9544 13.3018 37.1074L13.3018 39.165ZM11.9141 39.165L11.9141 37.0869C11.9141 36.4717 11.7705 36.0023 11.4834 35.6787C11.1917 35.3551 10.7725 35.1934 10.2256 35.1934C9.68782 35.1934 9.25944 35.3574 8.94043 35.6855C8.61686 36.0137 8.45052 36.4648 8.4414 37.0391L8.4414 39.165L11.9141 39.165Z" fill="white"/>
  <path d="M12 144V161" stroke="white"/>
  <path d="M12 185V542" stroke="#009BFF"/>
</svg>
