<svg width="32" height="32" viewBox="0 0 32 32" fill="none"
  xmlns="http://www.w3.org/2000/svg">
  <path fill-rule="evenodd" clip-rule="evenodd" d="M11.8317 9.94619C11.311 9.42549 10.4668 9.42549 9.94607 9.94619C9.42537 10.4669 9.42537 11.3111 9.94607 11.8318L14.2255 16.1112L9.94607 20.3906C9.42537 20.9113 9.42537 21.7556 9.94607 22.2762C10.4668 22.7969 11.311 22.7969 11.8317 22.2762L16.1111 17.9968L20.3905 22.2762C20.9112 22.7969 21.7554 22.7969 22.2761 22.2762C22.7968 21.7556 22.7968 20.9113 22.2761 20.3906L17.9967 16.1112L22.2761 11.8318C22.7968 11.3111 22.7968 10.4669 22.2761 9.94619C21.7554 9.42549 20.9112 9.42549 20.3905 9.94619L16.1111 14.2256L11.8317 9.94619Z" fill="#FF5C76"/>
</svg>
