<svg width="73" height="72" viewBox="0 0 73 72" fill="none"
  xmlns="http://www.w3.org/2000/svg">
  <ellipse cx="36.0965" cy="36" rx="36.0965" ry="36" fill="#C3E7FF"/>
  <ellipse cx="36.5307" cy="35.5661" rx="16.5261" ry="15.6145" fill="white"/>
  <path d="M48.8317 23.2978C45.546 20.0209 41.1777 18.2162 36.5312 18.2162H36.5306C31.8841 18.2162 27.5158 20.0209 24.2301 23.2978C20.9445 26.5746 19.135 30.9315 19.135 35.5656C19.135 40.1998 20.9445 44.5567 24.2301 47.8335C27.5158 51.1104 31.8844 52.915 36.5309 52.915C41.1774 52.915 45.546 51.1104 48.8317 47.8335C52.1173 44.5567 53.9268 40.1998 53.9268 35.5656C53.9268 30.9315 52.1173 26.5746 48.8317 23.2978ZM49.968 42.9741H44.8766C45.5588 40.9807 45.9697 38.8224 46.0655 36.5822H51.8534C51.7013 38.8885 51.0351 41.0567 49.968 42.9741ZM36.5309 50.7315C34.3612 49.4439 32.5618 47.4481 31.2675 45.0073H41.7943C40.5 47.4481 38.7006 49.4439 36.5309 50.7315ZM30.3461 42.9741C29.5965 41.0127 29.1421 38.847 29.037 36.5822H44.0248C43.9197 38.847 43.465 41.0127 42.7154 42.9741H30.3461ZM21.2084 36.5822H26.9963C27.0921 38.8224 27.503 40.9807 28.1852 42.9741H23.0938C22.0267 41.0567 21.3605 38.8885 21.2084 36.5822ZM23.0938 28.1572H28.1852C27.503 30.1506 27.0921 32.3089 26.9963 34.5491H21.2084C21.3605 32.2427 22.0267 30.0746 23.0938 28.1572ZM36.5309 20.3997C38.7006 21.6874 40.5 23.6832 41.7943 26.124H31.2675C32.5618 23.6832 34.3612 21.6874 36.5309 20.3997ZM42.7156 28.1572C43.4653 30.1185 43.9197 32.2843 44.0248 34.5491H29.037C29.1421 32.2843 29.5968 30.1185 30.3464 28.1572H42.7156ZM51.8534 34.5491H46.0655C45.9697 32.3089 45.5588 30.1506 44.8766 28.1572H49.968C51.0351 30.0746 51.7013 32.2427 51.8534 34.5491ZM44.0604 26.124C43.0915 24.0369 41.8025 22.1925 40.255 20.7058C43.6139 21.5434 46.5388 23.4862 48.6153 26.124H44.0604ZM32.8068 20.7058C31.2593 22.1925 29.9703 24.0369 29.0014 26.124H24.4465C26.523 23.4862 29.4479 21.5434 32.8068 20.7058ZM29.0014 45.0073C29.9703 47.0944 31.2593 48.9388 32.8068 50.4255C29.4479 49.5879 26.523 47.645 24.4465 45.0073H29.0014ZM40.255 50.4255C41.8025 48.9388 43.0915 47.0941 44.0604 45.0073H48.6153C46.5388 47.645 43.6139 49.5879 40.255 50.4255Z" fill="#009BFF"/>
</svg>
