<svg width="72" height="72" viewBox="0 0 72 72" fill="none"
  xmlns="http://www.w3.org/2000/svg">
  <circle cx="36" cy="36" r="36" fill="#009BFF"/>
  <path fill-rule="evenodd" clip-rule="evenodd" d="M19.633 33.25C17.9762 33.25 16.633 34.5931 16.633 36.25C16.633 37.9069 17.9762 39.25 19.633 39.25L33.25 39.25L33.25 52.867C33.25 54.5239 34.5932 55.867 36.25 55.867C37.9069 55.867 39.25 54.5239 39.25 52.867L39.25 39.25L52.867 39.25C54.5239 39.25 55.867 37.9069 55.867 36.25C55.867 34.5931 54.5239 33.25 52.867 33.25L39.25 33.25L39.25 19.633C39.25 17.9761 37.9069 16.633 36.25 16.633C34.5932 16.633 33.25 17.9761 33.25 19.633L33.25 33.25L19.633 33.25Z" fill="white"/>
</svg>
