<svg width="43" height="39" viewBox="0 0 43 39" fill="none"
  xmlns="http://www.w3.org/2000/svg">
  <rect x="16.8984" y="9.76416" width="9.18007" height="24.0977" fill="black"/>
  <path d="M41.0427 30.0569L26.2622 4.05539C23.6458 -0.57315 19.331 -0.57315 16.7146 4.05539L1.9341 30.0569C-0.68232 34.64 1.52098 38.4518 6.89153 38.4518H36.0853C41.4558 38.4518 43.6591 34.64 41.0427 30.0569ZM21.4884 11.2251C22.8196 11.2251 23.9212 12.3141 23.9212 13.6301C23.9212 13.7209 23.9212 13.7662 23.9212 13.8116L22.9573 25.383C22.9114 26.109 22.2687 26.6989 21.5343 26.6989C20.754 26.6989 20.1572 26.109 20.1113 25.383L19.1474 13.8116C19.1474 13.7662 19.1474 13.6755 19.1474 13.6301C19.0556 12.2688 20.1572 11.2251 21.4884 11.2251ZM21.4884 33.3241C20.1572 33.3241 19.0556 32.235 19.0556 30.9191C19.0556 29.6031 20.1572 28.514 21.4884 28.514C22.8196 28.514 23.9212 29.6031 23.9212 30.9191C23.9212 32.235 22.8196 33.3241 21.4884 33.3241Z" fill="#FFD53F"/>
</svg>
