<svg width="14" height="10" viewBox="0 0 14 10" fill="none"
  xmlns="http://www.w3.org/2000/svg">
  <path opacity="0.5" d="M13.405 5.13971L9.5043 9.04041C9.26631 9.2784 8.88033 9.2784 8.64234 9.04041C8.4043 8.80237 8.4043 8.41649 8.64234 8.17845L11.5026 5.31821L1.08507 5.31821C0.748489 5.31821 0.475586 5.04531 0.475586 4.70873C0.475586 4.37219 0.748489 4.09924 1.08507 4.09924L11.5026 4.09924L8.64244 1.239C8.4044 1.00096 8.4044 0.615086 8.64244 0.377046C8.76141 0.258122 8.91744 0.19854 9.07342 0.19854C9.2294 0.19854 9.38538 0.258122 9.5044 0.377046L13.405 4.27775C13.643 4.51579 13.643 4.90167 13.405 5.13971Z" fill="#8B8B8F"/>
</svg>
