<svg width="55" height="55" viewBox="0 0 55 55" fill="none"
  xmlns="http://www.w3.org/2000/svg">
  <circle cx="27.5" cy="27.5" r="27.5" fill="#C3E7FF"/>
  <path fill-rule="evenodd" clip-rule="evenodd" d="M27.726 12.2222L29.7183 15.9732L33.9013 16.7088L30.9495 19.7626L31.5426 23.9682L27.726 22.1046L23.9095 23.9682L24.5025 19.7626L21.5508 16.7088L25.7338 15.9732L27.726 12.2222ZM17.7955 28.6458L15.8858 30.5555V30.9374L23.9066 38.9583V43.1597H31.1635V38.9583L39.1844 30.9374L36.8927 28.6458L30.0177 35.5208H24.6705L17.7955 28.6458ZM27.7346 35.1388C30.055 35.1388 31.936 33.2578 31.936 30.9374C31.936 28.6171 30.055 26.7361 27.7346 26.7361C25.4143 26.7361 23.5332 28.6171 23.5332 30.9374C23.5332 33.2578 25.4143 35.1388 27.7346 35.1388Z" fill="white"/>
  <path d="M39.1931 28.8367C38.6162 28.2599 37.8493 27.9422 37.0335 27.9422C36.2177 27.9422 35.4507 28.2596 34.8739 28.8367L32.666 31.0449C32.6518 28.2983 30.4135 26.0681 27.6639 26.0681C24.914 26.0681 22.6759 28.2983 22.6618 31.0446L20.4536 28.8365C19.8767 28.2599 19.1098 27.9422 18.294 27.9422C17.4782 27.9422 16.7112 28.2596 16.1346 28.8367C14.9437 30.0274 14.9437 31.965 16.1344 33.1559L22.5276 39.5489V42.8072C22.5276 43.3441 22.9627 43.7792 23.4996 43.7792H31.8281C32.365 43.7792 32.8001 43.3441 32.8001 42.8072V39.5489L39.1933 33.1559C40.384 31.965 40.384 30.0274 39.1931 28.8367ZM27.6639 28.0121C29.3504 28.0121 30.7225 29.3842 30.7225 31.071C30.7225 32.7575 29.3504 34.1299 27.6639 34.1299C25.9771 34.1299 24.6049 32.7575 24.6049 31.071C24.6049 29.3842 25.9771 28.0121 27.6639 28.0121ZM37.8187 31.7812L31.1409 38.459C30.9587 38.6414 30.8562 38.8885 30.8562 39.1464V41.8353H24.4715V39.1464C24.4715 38.8885 24.369 38.6412 24.1868 38.459L17.5088 31.7812C17.076 31.3484 17.0762 30.644 17.5091 30.2111C17.7186 30.0016 17.9976 29.8861 18.294 29.8861C18.5906 29.8861 18.8693 30.0016 19.0791 30.2111L24.6568 35.7891C24.8391 35.9713 25.0864 36.0738 25.344 36.0738H29.9834C30.2413 36.0738 30.4886 35.9713 30.6709 35.7891L36.2486 30.2111C36.4584 30.0016 36.7371 29.8861 37.0337 29.8861C37.3301 29.8861 37.6091 30.0013 37.8187 30.2111C38.2515 30.644 38.2515 31.3484 37.8187 31.7812Z" fill="#009BFF"/>
  <path d="M23.3668 19.8127L22.6849 23.7869C22.6224 24.1516 22.7723 24.5202 23.0714 24.7376C23.2408 24.8606 23.4415 24.9234 23.643 24.9234C23.7976 24.9234 23.9528 24.8864 24.0953 24.8115L27.6645 22.9352L31.2337 24.8115C31.3757 24.8864 31.5311 24.9234 31.6858 24.9234C31.6868 24.9234 31.6878 24.9234 31.6886 24.9234C32.2247 24.9224 32.6593 24.4875 32.6593 23.9514C32.6593 23.8768 32.6509 23.8041 32.635 23.734L31.9622 19.8127L34.8497 16.998C35.1148 16.7399 35.2099 16.3536 35.0958 16.0015C34.9814 15.6497 34.6771 15.3933 34.3111 15.3401L30.3207 14.7602L28.536 11.1442C28.3722 10.8126 28.0343 10.6025 27.6645 10.6025C27.2944 10.6025 26.9565 10.8126 26.7928 11.1442L25.0083 14.7602L21.0179 15.3401C20.6516 15.3933 20.3477 15.6497 20.2332 16.0015C20.1188 16.3536 20.2143 16.7399 20.4793 16.998L23.3668 19.8127ZM25.7935 16.6105C26.1101 16.5645 26.3835 16.3658 26.5252 16.079L27.6645 13.7708L28.8035 16.079C28.945 16.3658 29.2186 16.5645 29.5353 16.6105L32.0827 16.9808L30.2395 18.7775C30.0104 19.0007 29.9059 19.3224 29.9598 19.6378L30.3949 22.1745L28.1168 20.9768C27.9751 20.9021 27.8197 20.8649 27.6645 20.8649C27.5091 20.8649 27.3537 20.9021 27.2122 20.9768L24.9339 22.1745L25.3692 19.6378C25.4234 19.3224 25.3189 19.0007 25.0898 18.7775L23.2463 16.9806L25.7935 16.6105Z" fill="#009BFF"/>
</svg>
