<svg width="34" height="34" viewBox="0 0 34 34" fill="none"
  xmlns="http://www.w3.org/2000/svg">
  <path d="M17 34C26.3888 34 34 26.3888 34 17C34 7.61116 26.3888 0 17 0C7.61116 0 0 7.61116 0 17C0 26.3888 7.61116 34 17 34Z" fill="#f7f7f7"/>
  <path d="M13.2225 11.7662H12.5536C11.5104 11.7662 10.6647 12.6119 10.6647 13.6551V21.4468C10.6647 22.49 11.5104 23.3357 12.5536 23.3357H21.4471C22.4903 23.3357 23.336 22.49 23.336 21.4468V13.6551C23.336 12.6119 22.4903 11.7662 21.4471 11.7662H20.778" stroke="#444444" stroke-width="1.1" stroke-miterlimit="10" stroke-linecap="round" stroke-linejoin="round"/>
  <path d="M15.1113 11.8056V11.3334C15.1113 10.8118 14.6885 10.3889 14.1669 10.3889C13.6453 10.3889 13.2224 10.8118 13.2224 11.3334V11.8056C13.2224 12.3272 13.6453 12.75 14.1669 12.75C14.6885 12.75 15.1113 12.3272 15.1113 11.8056Z" stroke="#444444" stroke-width="1.1" stroke-miterlimit="10" stroke-linecap="round" stroke-linejoin="round"/>
  <path d="M20.778 11.8056V11.3334C20.778 10.8118 20.3552 10.3889 19.8336 10.3889C19.312 10.3889 18.8892 10.8118 18.8892 11.3334V11.8056C18.8892 12.3272 19.312 12.75 19.8336 12.75C20.3552 12.75 20.778 12.3272 20.778 11.8056Z" stroke="#444444" stroke-width="1.1" stroke-miterlimit="10" stroke-linecap="round" stroke-linejoin="round"/>
  <path d="M15.5836 11.7662H18.417" stroke="#444444" stroke-width="1.1" stroke-miterlimit="10" stroke-linecap="round" stroke-linejoin="round"/>
  <path d="M10.6647 15.9375H23.336" stroke="#444444" stroke-width="1.1" stroke-miterlimit="10" stroke-linecap="round" stroke-linejoin="round"/>
</svg>
