<svg width="55" height="55" viewBox="0 0 55 55" fill="none"
  xmlns="http://www.w3.org/2000/svg">
  <path fill-rule="evenodd" clip-rule="evenodd" d="M47.5312 27.5C47.5312 38.563 38.563 47.5312 27.5 47.5312C16.4371 47.5312 7.46883 38.563 7.46883 27.5C7.46883 16.4371 16.4371 7.46883 27.5 7.46883C38.563 7.46883 47.5312 16.4371 47.5312 27.5ZM55.0001 27.5C55.0001 42.6879 42.6879 55.0001 27.5 55.0001C12.3122 55.0001 0 42.6879 0 27.5C0 12.3122 12.3122 0 27.5 0C42.6879 0 55.0001 12.3122 55.0001 27.5ZM35.1188 20.0489L24.0955 31.0721L19.8966 26.8731C19.0268 26.0034 17.6168 26.0034 16.7471 26.8731C15.8773 27.7428 15.8773 29.1529 16.7471 30.0226L22.5208 35.7964L22.5413 35.8166L22.5668 35.8411C23.4395 36.6662 24.816 36.6514 25.6706 35.7967C25.6819 35.7854 25.693 35.7741 25.704 35.7626L38.2683 23.1984C39.138 22.3286 39.138 20.9186 38.2683 20.0488C37.3986 19.1791 35.9885 19.1791 35.1188 20.0489ZM22.5208 35.7964L24.0955 31.0721L22.5208 32.6469C21.6511 33.5166 21.6511 34.9266 22.5208 35.7964Z" fill="#009BFF"/>
</svg>
