<svg width="72" height="72" viewBox="0 0 72 72" fill="none" xmlns="http://www.w3.org/2000/svg">
<circle cx="36" cy="36" r="36" fill="#C3E7FF"/>
<rect x="19.9529" y="22.5542" width="32.0964" height="29.494" rx="6.63658" fill="white"/>
<path fill-rule="evenodd" clip-rule="evenodd" d="M47.6306 21.7275H45.9126V20.4059C45.9126 19.6761 45.321 19.0844 44.5911 19.0844C43.8612 19.0844 43.2696 19.6761 43.2696 20.4059V21.7275H37.2566V20.4059C37.2566 19.6761 36.6649 19.0844 35.935 19.0844C35.2051 19.0844 34.6135 19.6761 34.6135 20.4059V21.7275H28.6666V20.4059C28.6666 19.6761 28.0749 19.0844 27.345 19.0844C26.6152 19.0844 26.0235 19.6761 26.0235 20.4059V21.7275H24.3716C21.4568 21.7275 19.0854 24.0988 19.0854 27.0136V47.6296C19.0854 50.5444 21.4568 52.9157 24.3716 52.9157H34.4813C35.2112 52.9157 35.8029 52.3241 35.8029 51.5942C35.8029 50.8643 35.2112 50.2727 34.4813 50.2727H24.3716C22.9142 50.2727 21.7285 49.087 21.7285 47.6296V27.0136C21.7285 25.5562 22.9142 24.3706 24.3716 24.3706H26.0235V25.6921C26.0235 26.422 26.6152 27.0136 27.345 27.0136C28.0749 27.0136 28.6666 26.422 28.6666 25.6921V24.3706H34.6135V25.6921C34.6135 26.422 35.2051 27.0136 35.935 27.0136C36.6649 27.0136 37.2566 26.422 37.2566 25.6921V24.3706H43.2696V25.6921C43.2696 26.422 43.8612 27.0136 44.5911 27.0136C45.321 27.0136 45.9126 26.422 45.9126 25.6921V24.3706H47.6306C49.088 24.3706 50.2737 25.5562 50.2737 27.0136V34.5464C50.2737 35.2763 50.8653 35.8679 51.5952 35.8679C52.3251 35.8679 52.9168 35.2763 52.9168 34.5464V27.0136C52.9168 24.0988 50.5454 21.7275 47.6306 21.7275ZM44.5911 34.2819C45.3209 34.2819 45.9126 33.6902 45.9126 32.9604C45.9126 32.2305 45.3209 31.6388 44.5911 31.6388C43.8612 31.6388 43.2695 32.2305 43.2695 32.9604C43.2695 33.6902 43.8612 34.2819 44.5911 34.2819ZM36.9258 44.9201C36.9258 40.5114 40.5124 36.9248 44.9211 36.9248C49.3297 36.9248 52.9164 40.5114 52.9164 44.9201C52.9164 49.3287 49.3297 52.9154 44.9211 52.9154C40.5124 52.9154 36.9258 49.3287 36.9258 44.9201ZM39.5689 44.9201C39.5689 47.8713 41.9699 50.2723 44.9211 50.2723C47.8723 50.2723 50.2733 47.8713 50.2733 44.9201C50.2733 41.9688 47.8723 39.5679 44.9211 39.5679C41.9699 39.5679 39.5689 41.9688 39.5689 44.9201ZM46.8362 43.599H46.2415V42.2114C46.2415 41.4815 45.6498 40.8899 44.9199 40.8899C44.19 40.8899 43.5984 41.4815 43.5984 42.2114V44.9206C43.5984 45.6504 44.19 46.2421 44.9199 46.2421H46.8362C47.566 46.2421 48.1577 45.6504 48.1577 44.9206C48.1577 44.1907 47.566 43.599 46.8362 43.599ZM40.1631 32.9604C40.1631 33.6902 39.5714 34.2819 38.8416 34.2819C38.1117 34.2819 37.52 33.6902 37.52 32.9604C37.52 32.2305 38.1117 31.6388 38.8416 31.6388C39.5714 31.6388 40.1631 32.2305 40.1631 32.9604ZM33.092 40.0305C33.8219 40.0305 34.4136 39.4389 34.4136 38.709C34.4136 37.9791 33.8219 37.3875 33.092 37.3875C32.3622 37.3875 31.7705 37.9791 31.7705 38.709C31.7705 39.4389 32.3622 40.0305 33.092 40.0305ZM28.6665 32.9604C28.6665 33.6902 28.0748 34.2819 27.345 34.2819C26.6151 34.2819 26.0234 33.6902 26.0234 32.9604C26.0234 32.2305 26.6151 31.6388 27.345 31.6388C28.0748 31.6388 28.6665 32.2305 28.6665 32.9604ZM27.345 40.0305C28.0748 40.0305 28.6665 39.4389 28.6665 38.709C28.6665 37.9791 28.0748 37.3875 27.345 37.3875C26.6151 37.3875 26.0234 37.9791 26.0234 38.709C26.0234 39.4389 26.6151 40.0305 27.345 40.0305ZM28.6665 44.4576C28.6665 45.1875 28.0748 45.7792 27.345 45.7792C26.6151 45.7792 26.0234 45.1875 26.0234 44.4576C26.0234 43.7278 26.6151 43.1361 27.345 43.1361C28.0748 43.1361 28.6665 43.7278 28.6665 44.4576ZM33.092 45.7792C33.8219 45.7792 34.4136 45.1875 34.4136 44.4576C34.4136 43.7278 33.8219 43.1361 33.092 43.1361C32.3622 43.1361 31.7705 43.7278 31.7705 44.4576C31.7705 45.1875 32.3622 45.7792 33.092 45.7792ZM34.4136 32.9604C34.4136 33.6902 33.8219 34.2819 33.092 34.2819C32.3622 34.2819 31.7705 33.6902 31.7705 32.9604C31.7705 32.2305 32.3622 31.6388 33.092 31.6388C33.8219 31.6388 34.4136 32.2305 34.4136 32.9604Z" fill="#008FEB"/>
</svg>
