<svg width="72" height="72" viewBox="0 0 72 72" fill="none"
  xmlns="http://www.w3.org/2000/svg">
  <circle cx="36" cy="36" r="36" fill="#C3E7FF"/>
  <circle cx="35.5998" cy="35.6" r="19.8" fill="white"/>
  <path fill-rule="evenodd" clip-rule="evenodd" d="M35.6 14C41.3696 14 46.7939 16.2468 50.8735 20.3265C54.9533 24.4061 57.2 29.8304 57.2 35.6C57.2 41.3696 54.9533 46.7939 50.8735 50.8735C46.7939 54.9532 41.3696 57.2 35.6 57.2C29.8304 57.2 24.4061 54.9532 20.3265 50.8735C16.2467 46.7939 14 41.3696 14 35.6C14 29.8304 16.2467 24.4061 20.3265 20.3265C24.4061 16.2468 29.8304 14 35.6 14ZM16.5714 35.6C16.5714 46.0924 25.1076 54.6286 35.6 54.6286C46.0924 54.6286 54.6286 46.0924 54.6286 35.6C54.6286 25.1076 46.0924 16.5714 35.6 16.5714C25.1076 16.5714 16.5714 25.1076 16.5714 35.6ZM23.2914 29.896C25.3968 27.7906 28.8227 27.7905 30.9281 29.896C31.4302 30.3982 31.4302 31.2122 30.9281 31.7143C30.6772 31.9654 30.348 32.091 30.019 32.091C29.69 32.091 29.3611 31.9654 29.11 31.7143C28.0072 30.6115 26.2127 30.6115 25.1097 31.7143C24.6077 32.2164 23.7936 32.2164 23.2914 31.7143C22.7893 31.2122 22.7893 30.3981 23.2914 29.896ZM47.9086 29.896C45.8031 27.7906 42.3773 27.7905 40.2719 29.896C39.7697 30.3981 39.7697 31.2122 40.2719 31.7143C40.7741 32.2164 41.5882 32.2164 42.0902 31.7143C43.193 30.6115 44.9875 30.6114 46.0904 31.7143C46.3415 31.9654 46.6705 32.091 46.9995 32.091C47.3285 32.091 47.6576 31.9654 47.9086 31.7143C48.4107 31.2122 48.4107 30.3982 47.9086 29.896ZM24.1998 36.543H46.9997C47.7099 36.543 48.2855 37.1186 48.2855 37.8287C48.2855 44.8236 42.5946 50.5144 35.5998 50.5144C28.6049 50.5144 22.9141 44.8236 22.9141 37.8287C22.9141 37.1187 23.4897 36.543 24.1998 36.543ZM25.5668 39.1144C26.2002 44.0868 30.4581 47.943 35.5998 47.943C40.7414 47.943 44.9993 44.0868 45.6328 39.1144H25.5668Z" fill="#008FEB"/>
</svg>
