<svg width="72" height="72" viewBox="0 0 72 72" fill="none"
  xmlns="http://www.w3.org/2000/svg">
  <circle cx="36" cy="36" r="36" fill="#C3E7FF"/>
  <circle cx="36.1504" cy="31.55" r="15.75" fill="white"/>
  <path fill-rule="evenodd" clip-rule="evenodd" d="M53.7446 31.3981C53.7446 34.9191 52.6922 38.1982 50.8871 40.9397L57.6924 50.8646L49.9052 49.4128L48.4534 57.2L42.0353 47.84C40.2519 48.459 38.3379 48.7961 36.3462 48.7961C34.3548 48.7961 32.4409 48.459 30.6572 47.84L24.2394 57.2L22.7872 49.4128L15 50.8646L21.8054 40.9397C20.0005 38.1982 18.9482 34.9191 18.9482 31.3981C18.9482 21.8047 26.7528 14 36.3462 14C45.9396 14 53.7446 21.8047 53.7446 31.3981ZM24.8234 46.4428L25.6154 50.6906L28.2779 46.8084C26.4513 45.8479 24.8149 44.5731 23.4421 43.055L20.576 47.2352L24.8234 46.4428ZM36.3462 16.5461C28.1569 16.5461 21.4942 23.2087 21.4942 31.3981C21.4942 39.5877 28.1569 46.2504 36.3462 46.2504C44.5359 46.2504 51.1985 39.5877 51.1985 31.3981C51.1985 23.2087 44.5359 16.5461 36.3462 16.5461ZM47.077 50.6906L47.869 46.4428L52.1168 47.2349L49.2506 43.055C47.8779 44.5731 46.2415 45.8479 44.4149 46.8084L47.077 50.6906ZM29.1049 31.0798L33.2446 35.2191L43.5874 24.8769L45.3876 26.6771L33.2446 38.8199L27.3047 32.88L29.1049 31.0798Z" fill="#008FEB"/>
</svg>
