<svg width="72" height="72" viewBox="0 0 72 72" fill="none"
  xmlns="http://www.w3.org/2000/svg">
  <circle cx="36" cy="36" r="36" fill="#C3E7FF"/>
  <path d="M15.3501 45.9V20.25H15.8001H55.4001V46.35H30.6501L24.3501 52.65H20.7501V45.9H15.3501Z" fill="white"/>
  <path fill-rule="evenodd" clip-rule="evenodd" d="M21.2714 54.1522C21.7085 54.3533 22.1687 54.4519 22.6243 54.4519C23.3721 54.4518 24.1075 54.1863 24.7069 53.6725C24.7312 53.6517 24.7546 53.6301 24.7774 53.6077L30.7546 47.7H53.3188C55.4588 47.7 57.2 45.9589 57.2 43.8188V21.8813C57.2 19.7412 55.4588 18 53.3188 18H17.8813C15.7412 18 14 19.7412 14 21.8813V43.8188C14 45.9589 15.7412 47.7 17.8813 47.7H19.4V51.2316C19.4 52.5022 20.1171 53.6214 21.2714 54.1522ZM16.7 21.8813C16.7 21.2299 17.2299 20.7 17.8813 20.7V20.7001H53.3188C53.9701 20.7001 54.5 21.23 54.5 21.8813V43.8188C54.5 44.4702 53.9701 45.0001 53.3188 45.0001H30.2C29.8447 45.0001 29.5037 45.1401 29.251 45.3899L22.9229 51.6444C22.714 51.8043 22.507 51.7487 22.3997 51.6993C22.2877 51.6478 22.1 51.5186 22.1 51.2316V46.35C22.1 45.6045 21.4955 45 20.75 45H17.8813C17.2299 45 16.7 44.4701 16.7 43.8188V21.8813ZM40.3895 42.1421C40.5885 42.2478 40.8061 42.3 41.023 42.3C41.3014 42.3 41.5786 42.214 41.813 42.0448C42.2302 41.7437 42.44 41.2316 42.3539 40.7243L41.4358 35.3124L45.3223 31.4823C45.6871 31.1228 45.817 30.5878 45.6578 30.1011C45.4987 29.6143 45.0776 29.2595 44.571 29.1851L39.2121 28.3978L36.8129 23.4829C36.5866 23.0192 36.1157 22.7251 35.5998 22.7251C35.0838 22.7251 34.613 23.0191 34.3866 23.4829L31.9874 28.3978L26.6286 29.1851C26.1219 29.2595 25.701 29.6143 25.5418 30.1011C25.3826 30.5878 25.5125 31.1228 25.8773 31.4823L29.7637 35.3124L28.8457 40.7243C28.7596 41.2316 28.9693 41.7437 29.3866 42.0448C29.8038 42.3459 30.3559 42.3836 30.8102 42.1422L35.5999 39.5963L40.3895 42.1421ZM36.2335 36.8754C36.0354 36.7701 35.8176 36.7174 35.5999 36.7174C35.3821 36.7174 35.1643 36.7701 34.9662 36.8754L31.9667 38.4697L32.5433 35.0704C32.6171 34.6358 32.4739 34.1925 32.16 33.8831L29.7036 31.4624L33.0845 30.9657C33.5254 30.9009 33.906 30.6227 34.1015 30.2222L35.5999 27.1525L37.0983 30.2222C37.2938 30.6227 37.6743 30.9009 38.1153 30.9657L41.4962 31.4624L39.0398 33.8831C38.7258 34.1925 38.5827 34.6358 38.6564 35.0704L39.2331 38.4697L36.2335 36.8754Z" fill="#008FEB"/>
</svg>
