<svg width="55" height="55" viewBox="0 0 55 55" fill="none" xmlns="http://www.w3.org/2000/svg">
<circle cx="27.5" cy="27.5" r="27.5" fill="#C3E7FF"/>
<path d="M21.5359 39.7588L16.8974 35.1202V33.7949L18.2227 32.1383L15.9034 29.4877L15.5721 27.4998L17.2287 25.1805V22.1986L19.2166 21.2046L20.2106 18.8853L22.1986 18.2226L23.5239 16.2347L25.1805 15.2407L27.8311 16.8973L30.813 15.2407L33.4636 18.2226L37.1082 21.5359L38.4335 23.1925L37.7709 25.5118L39.7588 26.8371V28.8251L36.7769 32.4696L38.4335 34.7889L34.4576 39.4275H32.4697L30.1504 37.1082L25.5118 37.4395L23.5239 39.4275L21.5359 39.7588Z" fill="white"/>
<path d="M38.0523 31.7654L39.8445 29.9729C40.9791 28.8385 40.9793 26.9923 39.8447 25.8572C39.4965 25.5093 39.0784 25.2648 38.6317 25.1293C38.997 24.6331 39.1947 24.0357 39.1947 23.4079C39.1947 22.6306 38.8919 21.8997 38.3421 21.35C37.7926 20.8004 37.0617 20.4976 36.2842 20.4976C36.2516 20.4976 36.2191 20.4982 36.1865 20.4992C36.2119 19.7223 35.9289 18.9368 35.337 18.3448C34.7452 17.7532 33.9588 17.4698 33.1831 17.4956C33.1841 17.4632 33.1847 17.4304 33.1847 17.3978C33.1847 16.6203 32.8819 15.8896 32.3322 15.34C31.1978 14.2055 29.3516 14.2053 28.2165 15.34L27.597 15.9596L26.9776 15.3402C26.4279 14.7903 25.697 14.4875 24.9195 14.4875C24.1422 14.4875 23.4115 14.7903 22.8619 15.3398C22.2699 15.9318 21.9875 16.7175 22.0132 17.495C21.9805 17.4938 21.9477 17.4926 21.9149 17.4926C21.1376 17.4926 20.4067 17.7952 19.8567 18.3448C19.2648 18.937 18.9824 19.7227 19.0082 20.5C18.9752 20.4988 18.9425 20.4976 18.9095 20.4976C18.1322 20.4976 17.4013 20.8004 16.852 21.3498C16.3022 21.8995 15.9994 22.6304 15.9994 23.4079C15.9994 24.0354 16.1969 24.6329 16.5624 25.1289C16.1091 25.2656 15.6936 25.5131 15.3492 25.8572C14.2174 26.9895 14.2148 28.8299 15.3416 29.9649C15.3444 29.9679 15.3472 29.9707 15.35 29.9737L17.1448 31.7681C17.1472 31.7707 17.1498 31.7733 17.1524 31.7759C17.2602 31.8839 17.3753 31.9816 17.496 32.0701L16.9652 32.601C16.4489 33.1173 16.1859 33.8206 16.2249 34.5815C16.262 35.312 16.5764 36.008 17.1097 36.5412L20.1455 39.5772C20.7087 40.1402 21.4482 40.4218 22.1879 40.4218C22.9276 40.4218 23.6673 40.1402 24.2304 39.5772L25.6414 38.1659C26.2852 38.304 26.941 38.3742 27.5974 38.3742C28.2531 38.3742 28.9091 38.3044 29.5527 38.1663L30.9633 39.5772C31.5266 40.1402 32.2661 40.4218 33.0058 40.4218C33.7453 40.4216 34.4852 40.1402 35.0482 39.5772L38.0842 36.5412C39.2103 35.4151 39.3382 33.7107 38.3692 32.7415L37.7227 32.0949L38.0417 31.7757C38.0453 31.7723 38.0487 31.7689 38.0523 31.7654ZM23.9725 16.4507C24.2256 16.1976 24.562 16.0583 24.9197 16.0583C25.2775 16.0583 25.6139 16.1976 25.8669 16.4507L28.2707 18.8545C28.793 19.3769 28.793 20.2268 28.2707 20.749C28.0177 21.0021 27.6813 21.1414 27.3237 21.1414H27.3235C26.9658 21.1412 26.6296 21.0021 26.3766 20.749C26.3762 20.7486 26.3758 20.7482 26.3756 20.748L23.9731 18.3456C23.9711 18.3436 23.9693 18.3416 23.9671 18.3398C23.4503 17.8168 23.4521 16.9709 23.9725 16.4507ZM20.9639 21.3464C20.4453 20.8238 20.4465 19.9765 20.9673 19.4557C21.2206 19.2026 21.5571 19.0633 21.9149 19.0633C22.2723 19.0633 22.6082 19.2024 22.8613 19.4553C22.8615 19.4553 22.8617 19.4555 22.8617 19.4557C22.8627 19.4565 22.8635 19.4573 22.8643 19.4581L25.2653 21.8591C25.2667 21.8607 25.2685 21.8623 25.2701 21.8639L25.8667 22.4605C26.1197 22.7135 26.2592 23.0499 26.2592 23.4079C26.2592 23.7656 26.1199 24.102 25.8669 24.3548C25.6139 24.6079 25.2775 24.7472 24.9197 24.7472C24.562 24.7472 24.2256 24.6079 23.9727 24.3548C23.9695 24.3516 23.9663 24.3486 23.9631 24.3456L23.3741 23.7564C23.3733 23.7556 23.3725 23.7548 23.3717 23.7538L20.9675 21.35L20.9673 21.3498C20.9661 21.3486 20.9649 21.3474 20.9639 21.3464ZM17.9629 22.4605C18.2157 22.2077 18.5519 22.0683 18.9097 22.0683C19.2674 22.0683 19.6038 22.2077 19.8569 22.4607L22.2635 24.8673C22.7831 25.3898 22.7821 26.2376 22.2611 26.7591C22.008 27.0119 21.6715 27.1512 21.3137 27.1512C20.9559 27.1512 20.6196 27.0119 20.3667 26.7589C20.3635 26.7559 20.3605 26.7527 20.3573 26.7497L17.9703 24.3626C17.9677 24.36 17.9651 24.3572 17.9627 24.3548C17.7097 24.1018 17.5704 23.7656 17.5704 23.4079C17.5702 23.0501 17.7097 22.7137 17.9629 22.4605ZM16.4681 28.8705C16.4651 28.8673 16.4621 28.8643 16.4591 28.8613C15.9378 28.339 15.9382 27.49 16.4601 26.9681C16.7131 26.7151 17.0495 26.5758 17.4073 26.5758C17.765 26.5758 18.1016 26.7151 18.3546 26.9683L20.1575 28.7709C20.6797 29.2932 20.6797 30.143 20.1577 30.6653C19.9046 30.9183 19.5682 31.0576 19.2107 31.0576H19.2105C19.1447 31.0576 19.0798 31.0528 19.0158 31.0436C19.011 31.0426 19.0062 31.042 19.0014 31.0412C18.7256 30.9983 18.471 30.8707 18.2689 30.6711C18.2669 30.6689 18.2647 30.6669 18.2627 30.6647L16.4681 28.8705ZM25.5989 36.542C25.5921 36.5402 25.5855 36.5394 25.5789 36.5378C25.5631 36.534 25.5475 36.5304 25.5317 36.5276C25.5201 36.5256 25.5085 36.5242 25.4967 36.5226C25.4837 36.521 25.4708 36.5194 25.4576 36.5184C25.4438 36.5172 25.43 36.5166 25.4162 36.5164C25.405 36.516 25.394 36.5158 25.3828 36.516C25.368 36.5162 25.3534 36.517 25.3388 36.5182C25.3282 36.519 25.3177 36.5198 25.3071 36.521C25.2927 36.5226 25.2785 36.5248 25.2643 36.5272C25.2531 36.529 25.2421 36.5312 25.2309 36.5336C25.2179 36.5364 25.2051 36.5394 25.1923 36.543C25.1801 36.5462 25.168 36.5498 25.1558 36.5536C25.1444 36.5574 25.1334 36.5614 25.1222 36.5654C25.1092 36.5704 25.0962 36.5754 25.0836 36.581C25.0734 36.5854 25.0632 36.5902 25.0532 36.595C25.0404 36.6012 25.0278 36.6076 25.0155 36.6146C25.0053 36.6201 24.9953 36.6261 24.9853 36.6323C24.9741 36.6393 24.9627 36.6463 24.9517 36.6539C24.9405 36.6617 24.9295 36.6699 24.9187 36.6783C24.9097 36.6851 24.9009 36.6919 24.8921 36.6991C24.8793 36.7099 24.8672 36.7211 24.8552 36.7327C24.8506 36.7371 24.8456 36.7409 24.841 36.7455L23.1199 38.4665C22.606 38.9804 21.7702 38.9804 21.2563 38.4665L18.2205 35.4307C17.9627 35.1729 17.811 34.8429 17.7936 34.5013C17.7778 34.1902 17.878 33.9097 18.076 33.7119L19.1605 32.6272C19.1771 32.6274 19.1937 32.6284 19.2105 32.6284C19.2105 32.6284 19.2105 32.6284 19.2107 32.6284C19.9878 32.6284 20.7185 32.3256 21.2683 31.7759C22.1096 30.9345 22.3264 29.7021 21.9199 28.6584C22.4659 28.5433 22.9678 28.2735 23.3719 27.8697C23.8334 27.4078 24.1073 26.828 24.193 26.2264C24.4276 26.2866 24.6713 26.3179 24.9197 26.3179C24.9197 26.3179 24.9197 26.3179 24.9199 26.3179C25.697 26.3179 26.4277 26.0153 26.9776 25.4657C27.5272 24.9161 27.83 24.1852 27.83 23.4079C27.83 23.1598 27.7988 22.9166 27.7391 22.6823C28.3586 22.5944 28.9311 22.3102 29.3814 21.8595C30.516 20.725 30.516 18.8789 29.3816 17.744L28.7076 17.07L29.3272 16.4507C29.8497 15.9284 30.6995 15.9284 31.2216 16.4505C31.4746 16.7035 31.6139 17.0399 31.6139 17.3976C31.6139 17.7554 31.4746 18.0918 31.2216 18.3448C31.0683 18.4981 30.9915 18.6992 30.9915 18.9002C30.9915 19.1011 31.0681 19.3022 31.2216 19.4555C31.5284 19.7623 32.0254 19.7623 32.3322 19.4555C32.8543 18.9334 33.7041 18.9332 34.2266 19.4555C34.7488 19.9779 34.7486 20.8278 34.2264 21.35C34.0731 21.5033 33.9963 21.7044 33.9963 21.9053C33.9963 22.1063 34.0729 22.3072 34.2264 22.4605C34.5332 22.7673 35.0302 22.7673 35.337 22.4607C35.5901 22.2077 35.9267 22.0683 36.2844 22.0681C36.6422 22.0681 36.9786 22.2075 37.2314 22.4605C37.4846 22.7137 37.6239 23.0501 37.6239 23.4079C37.6239 23.7608 37.4882 24.093 37.2416 24.3446C37.238 24.3482 37.2344 24.3516 37.231 24.3552L36.1047 25.4817C35.8243 25.7621 35.7969 26.2076 36.041 26.5202L36.0814 26.572C36.3248 26.884 36.7625 26.9659 37.1023 26.7635C37.6289 26.4497 38.2999 26.5338 38.734 26.9677C39.2563 27.4902 39.2563 28.34 38.734 28.8623L36.9314 30.6647C36.928 30.6683 36.9244 30.6719 36.921 30.6755L33.0518 34.5447C31.1104 36.486 28.2547 37.2513 25.5989 36.542ZM37.2588 33.8522C37.6032 34.1967 37.47 34.9345 36.9738 35.4307L33.9378 38.4665C33.4239 38.9804 32.5881 38.9804 32.0742 38.4665L31.2387 37.6311C32.3246 37.1676 33.3192 36.4986 34.1624 35.6554L36.612 33.2056L37.2588 33.8522Z" fill="#008FEB"/>
</svg>
