<svg width="72" height="73" viewBox="0 0 72 73" fill="none"
  xmlns="http://www.w3.org/2000/svg">
  <path d="M36 72C55.8823 72 72 55.8823 72 36C72 16.1177 55.8823 0 36 0C16.1177 0 0 16.1177 0 36C0 55.8823 16.1177 72 36 72Z" fill="#C3EDF1"/>
  <path fill-rule="evenodd" clip-rule="evenodd" d="M47.2752 36.858C47.7787 36.858 48.1815 36.4543 48.1815 35.9495V28.3785C48.1815 27.8738 47.7787 27.47 47.2752 27.47H46.3689V36.858H47.2752ZM44.4556 36.959H39.7227C39.1186 36.959 38.6151 36.7571 38.1116 36.4543C39.622 35.6467 40.629 34.1325 40.629 32.3155C40.629 30.4984 39.622 28.8833 38.1116 28.1767C38.6151 27.8738 39.1186 27.6719 39.7227 27.6719H44.4556V36.959ZM35.997 35.041C37.5075 35.041 38.8166 33.7287 38.8166 32.2145C38.8166 30.7003 37.6082 29.388 35.997 29.388C34.4866 29.388 33.1775 30.7003 33.1775 32.2145C33.1775 33.7287 34.4866 35.041 35.997 35.041ZM23.8125 31.306V32.2145V33.123H31.3649C31.2642 32.8202 31.2642 32.5173 31.2642 32.2145C31.2642 31.9117 31.2642 31.6088 31.3649 31.306H23.8125Z" fill="white"/>
  <path fill-rule="evenodd" clip-rule="evenodd" d="M44.4557 25.653H47.2753C48.8865 25.653 50.0948 26.9653 49.9941 28.3785V35.8486C49.9941 37.3628 48.6851 38.6751 47.1746 38.6751H44.9592L46.1676 41.0978C46.4697 41.7035 46.0669 42.4101 45.362 42.4101H44.4557V45.3375C44.4557 46.8517 43.1467 48.164 41.6362 48.164H38.8166V51.0915C38.8166 51.5962 38.4138 52 37.9103 52H22.9063C22.6042 52 22.4028 51.8991 22.2014 51.6972C22 51.3943 22 51.1924 22 50.8896L23.8126 40.0883C22.6042 39.0789 22 37.2618 22 35.9495V32.2145C22 25.4511 27.4377 20 34.1845 20C38.4138 20 42.2404 22.2208 44.4557 25.653ZM42.1397 25.653C40.2264 23.3312 37.3061 21.918 34.1845 21.918C29.4517 21.918 25.5244 25.0473 24.3161 29.489H32.3719C33.1775 28.2776 34.5873 27.571 36.0978 27.571C36.9034 26.3596 38.3131 25.653 39.8236 25.653H42.1397ZM42.6432 41.6025C42.6432 41.0978 43.046 40.694 43.5494 40.694V40.795H43.7508L42.8446 38.877H39.7229C38.3131 38.877 36.9034 38.1703 35.9971 36.959C34.4866 36.959 33.0768 36.1514 32.2712 35.041H23.8126V35.9495C23.8126 37.0599 24.4168 38.4732 25.2223 38.877C25.6251 39.0789 25.8265 39.4827 25.7258 39.8864L24.014 50.183H37.1048V48.164C36.0978 48.0631 35.0908 47.5584 34.3859 46.8517L29.8545 42.2082C29.4517 41.9054 29.4517 41.2997 29.8545 40.8959C30.1566 40.4921 30.7608 40.4921 31.1635 40.8959L35.695 45.5394C36.2992 46.0442 37.0041 46.347 37.7089 46.347H41.7369C42.2404 46.347 42.6432 45.9432 42.6432 45.4385V41.6025ZM48.1815 35.9495C48.1815 36.4543 47.7787 36.858 47.2752 36.858H46.3689V27.47H47.2752C47.7787 27.47 48.1815 27.8738 48.1815 28.3785V35.9495ZM39.7227 36.959H44.4556V27.6719H39.7227C39.1186 27.6719 38.6151 27.8738 38.1116 28.1767C39.622 28.8833 40.629 30.4984 40.629 32.3155C40.629 34.1325 39.622 35.6467 38.1116 36.4543C38.6151 36.7571 39.1186 36.959 39.7227 36.959ZM38.8166 32.2145C38.8166 33.7287 37.5075 35.041 35.997 35.041C34.4866 35.041 33.1775 33.7287 33.1775 32.2145C33.1775 30.7003 34.4866 29.388 35.997 29.388C37.6082 29.388 38.8166 30.7003 38.8166 32.2145ZM23.8125 32.2145V31.306H31.3649C31.2642 31.6088 31.2642 31.9116 31.2642 32.2145C31.2642 32.5173 31.2642 32.8202 31.3649 33.123H23.8125V32.2145Z" fill="#1DC4D7"/>
</svg>
