<svg width="72" height="73" viewBox="0 0 72 73" fill="none"
  xmlns="http://www.w3.org/2000/svg">
  <path d="M36 71.9999C55.8823 71.9999 72 55.8822 72 35.9999C72 16.1177 55.8823 -6.10352e-05 36 -6.10352e-05C16.1177 -6.10352e-05 0 16.1177 0 35.9999C0 55.8822 16.1177 71.9999 36 71.9999Z" fill="#FED5C6"/>
  <path fill-rule="evenodd" clip-rule="evenodd" d="M22.415 35.9999C22.415 28.5534 28.4528 22.415 35.9999 22.415C43.5471 22.415 49.5849 28.4528 49.5849 35.9999C49.5849 43.5471 43.4465 49.5849 35.9999 49.5849C28.5534 49.5849 22.415 43.5471 22.415 35.9999ZM25.6352 35.9999C25.6352 41.7358 30.2641 46.3647 35.9999 46.3647C41.7358 46.3647 46.3647 41.7358 46.3647 35.9999C46.3647 30.2641 41.7358 25.6352 35.9999 25.6352C30.2641 25.6352 25.6352 30.2641 25.6352 35.9999ZM33.7861 35.9999C33.7861 34.7924 34.7924 33.7861 36 33.7861C37.2075 33.7861 38.2138 34.7924 38.2138 35.9999C38.2138 37.2075 37.2075 38.2138 36 38.2138C34.7924 38.2138 33.7861 37.2075 33.7861 35.9999Z" fill="white"/>
  <path fill-rule="evenodd" clip-rule="evenodd" d="M20 35.9999C20 44.8553 27.1447 51.9999 36 51.9999C44.8553 51.9999 52 44.8553 52 35.9999C52 27.1446 44.8553 19.9999 36 19.9999C27.2453 19.9999 20 27.1446 20 35.9999ZM22.4151 35.9999C22.4151 28.4528 28.5535 22.415 36 22.415C43.4465 22.415 49.5849 28.4528 49.5849 35.9999C49.5849 43.5471 43.4465 49.5848 36 49.5848C28.5535 49.5848 22.4151 43.5471 22.4151 35.9999ZM36 46.3647C30.2641 46.3647 25.6352 41.7358 25.6352 35.9999C25.6352 30.2641 30.2641 25.6352 36 25.6352C41.7358 25.6352 46.3648 30.2641 46.3648 35.9999C46.3648 41.7358 41.7358 46.3647 36 46.3647ZM36 28.0503C31.5723 28.0503 28.0503 31.5723 28.0503 35.9999C28.0503 40.4276 31.5723 43.9496 36 43.9496C40.4277 43.9496 43.9497 40.4276 43.9497 35.9999C43.9497 31.5723 40.4277 28.0503 36 28.0503ZM36 40.5282C33.4843 40.5282 31.4717 38.5157 31.4717 35.9999C31.4717 33.4842 33.4843 31.4716 36 31.4716C38.5157 31.4716 40.5283 33.4842 40.5283 35.9999C40.5283 38.5157 38.5157 40.5282 36 40.5282ZM36 33.7861C34.7925 33.7861 33.7862 34.7924 33.7862 35.9999C33.7862 37.2075 34.7925 38.2138 36 38.2138C37.2075 38.2138 38.2138 37.2075 38.2138 35.9999C38.2138 34.7924 37.2075 33.7861 36 33.7861Z" fill="#FA7548"/>
</svg>
