<svg width="144" height="144" viewBox="0 0 144 144" fill="none"
  xmlns="http://www.w3.org/2000/svg">
  <circle cx="71.9979" cy="72" r="53.2987" fill="white" fill-opacity="0.05"/>
  <circle cx="72" cy="72" r="71.75" stroke="white" stroke-opacity="0.1" stroke-width="0.5"/>
  <circle cx="71.9993" cy="72" r="39.2727" fill="white" fill-opacity="0.05"/>
  <circle cx="72" cy="72" r="25" fill="#F1C0CA"/>
  <path d="M71.5242 69.3043L71.0693 61.6577L70.6143 60.3083L62.8809 73.3525L66.9751 80.9991H76.5282L81.0773 72.9027L72.434 61.2079V69.3043L73.7987 72.0031L73.3438 73.3525L71.0693 73.8023L70.1594 73.3525V71.1035L71.5242 69.3043Z" fill="white"/>
  <path d="M81.9629 72.542L72.7914 57.6981C72.3445 56.9736 71.295 56.9874 70.8566 57.6981L61.6851 72.542C61.4673 72.8946 61.4589 73.3378 61.6631 73.6984L65.5064 80.4825C64.4816 81.0711 63.7895 82.1752 63.7895 83.4386C63.7895 85.3178 65.3196 86.8467 67.2003 86.8467H76.3718C78.2565 86.8467 79.8584 85.3247 79.8584 83.4386C79.8584 82.1835 79.1504 81.0761 78.0807 80.4771L81.9808 73.7053C82.1891 73.3436 82.1822 72.897 81.9629 72.542ZM71.824 70.8667C72.4509 70.8667 72.9609 71.3763 72.9609 72.0027C72.9609 72.6291 72.4509 73.1387 71.824 73.1387C71.197 73.1387 70.687 72.6291 70.687 72.0027C70.687 71.3763 71.197 70.8667 71.824 70.8667ZM76.3718 84.5746H67.2003C66.5734 84.5746 66.0634 84.065 66.0634 83.4386C66.0634 82.8128 66.5724 82.3037 67.1985 82.3027C67.1995 82.3027 67.2004 82.3028 67.2014 82.3028C67.2034 82.3028 67.2053 82.3026 67.2073 82.3026H76.3718C77.0178 82.3026 77.5845 82.8334 77.5845 83.4386C77.5845 84.0438 77.0178 84.5746 76.3718 84.5746ZM75.7142 80.0306H67.8632L63.9731 73.1638L70.687 62.2975V68.7901C69.3637 69.259 68.4131 70.5217 68.4131 72.0027C68.4131 73.8819 69.9432 75.4108 71.824 75.4108C73.7047 75.4108 75.2348 73.8819 75.2348 72.0027C75.2348 70.5217 74.2843 69.259 72.9609 68.7901V62.2975L79.6718 73.1591L75.7142 80.0306Z" fill="#DF425A"/>
</svg>
