<svg width="72" height="73" viewBox="0 0 72 73" fill="none"
  xmlns="http://www.w3.org/2000/svg">
  <path d="M36 72.0001C55.8823 72.0001 72 55.8823 72 36.0001C72 16.1178 55.8823 6.10352e-05 36 6.10352e-05C16.1177 6.10352e-05 0 16.1178 0 36.0001C0 55.8823 16.1177 72.0001 36 72.0001Z" fill="#F1C0CA"/>
  <path fill-rule="evenodd" clip-rule="evenodd" d="M31.5999 44.6001H39.9999L44.3999 37.3001L37.1999 25.7001V32.6001C38.5999 33.1001 39.5999 34.4001 39.5999 36.0001C39.5999 38.0001 37.8999 39.6001 35.8999 39.6001C33.7999 39.6001 32.1999 38.0001 32.1999 36.0001C32.1999 34.5001 33.1999 33.1001 34.5999 32.6001V25.7001L27.3999 37.3001L31.5999 44.6001ZM37.0999 36.0001C37.0999 35.3001 36.6 34.8001 35.9 34.8001C35.2 34.8001 34.7 35.3001 34.7 36.0001C34.7 36.7001 35.2 37.2001 35.9 37.2001C36.6 37.2001 37.0999 36.7001 37.0999 36.0001Z" fill="white"/>
  <path d="M46.6117 36.5333L36.8513 20.6977C36.3534 19.9009 35.2578 19.9009 34.7598 20.6977L24.9995 36.5333C24.8003 36.9317 24.8003 37.4297 24.9995 37.7285L29.0829 44.9989C27.9874 45.5965 27.2902 46.7916 27.2902 48.186C27.2902 50.1779 28.8837 51.7714 30.9752 51.7714H40.7356C42.7275 51.7714 44.4206 50.1779 44.4206 48.186C44.4206 46.8912 43.6238 45.6961 42.5283 44.9989L46.7113 37.8281C46.9105 37.3301 46.9105 36.9317 46.6117 36.5333ZM35.8554 34.7406C36.5526 34.7406 37.0505 35.2386 37.0505 35.9358C37.0505 36.6329 36.5526 37.1309 35.8554 37.1309C35.1582 37.1309 34.6602 36.6329 34.6602 35.9358C34.6602 35.2386 35.1582 34.7406 35.8554 34.7406ZM40.636 49.3811H30.8756C30.1784 49.3811 29.6805 48.8832 29.6805 48.186C29.6805 47.4888 30.1784 46.9908 30.8756 46.9908H40.636C41.3331 46.9908 41.9307 47.5884 41.9307 48.186C41.9307 48.7836 41.3331 49.3811 40.636 49.3811ZM39.9388 44.501H31.5728L27.3898 37.2305L34.5606 25.6774V32.5495C33.1663 33.0475 32.1704 34.4418 32.1704 35.9358C32.1704 37.9277 33.7639 39.5212 35.8554 39.5212C37.8473 39.5212 39.5404 37.9277 39.5404 35.9358C39.5404 34.3422 38.5445 33.0475 37.1501 32.5495V25.6774L44.321 37.2305L39.9388 44.501Z" fill="#DF425A"/>
</svg>
