<svg width="72" height="73" viewBox="0 0 72 73" fill="none"
  xmlns="http://www.w3.org/2000/svg">
  <path d="M36 72.0001C55.8823 72.0001 72 55.8823 72 36.0001C72 16.1178 55.8823 6.10352e-05 36 6.10352e-05C16.1177 6.10352e-05 0 16.1178 0 36.0001C0 55.8823 16.1177 72.0001 36 72.0001Z" fill="#E1CCFF"/>
  <path fill-rule="evenodd" clip-rule="evenodd" d="M35.0999 33.9L38.0999 36.9L41.5999 30.4L35.0999 33.9ZM33.8999 35.1L30.3999 41.6L36.8999 38.1L33.8999 35.1Z" fill="white"/>
  <path fill-rule="evenodd" clip-rule="evenodd" d="M20 36.0001C20 27.2453 27.1447 20.0001 36 20.0001C44.8553 20.0001 52 27.1447 52 36.0001C52 44.8554 44.8553 52.0001 36 52.0001C27.1447 52.0001 20 44.7548 20 36.0001ZM36 22.3145C28.4528 22.3145 22.3145 28.4529 22.3145 36.0001C22.3145 43.5472 28.4528 49.6856 36 49.6856C43.5472 49.6856 49.6855 43.5472 49.6855 36.0001C49.6855 28.4529 43.5472 22.3145 36 22.3145ZM43.4465 27.2454C43.8491 27.0441 44.4528 27.2454 44.6541 27.6479C44.8553 27.9498 44.8553 28.2516 44.6541 28.4529V28.5535L39.1195 38.8177C39.0189 39.0189 38.9182 39.1196 38.717 39.2202L28.4528 44.7548C28.2516 44.8554 27.9497 44.8554 27.6478 44.7548L27.4465 44.5535C27.1447 44.2516 27.044 43.8491 27.2453 43.4466L32.7799 33.1825C32.8805 32.9812 32.9811 32.8806 33.1824 32.7799L43.4465 27.2454ZM33.8868 35.0944L30.3648 41.6353L36.9057 38.1133L33.8868 35.0944ZM35.0943 33.8869L38.1132 36.9057L41.6352 30.3649L35.0943 33.8869Z" fill="#6B00FF"/>
</svg>
