<svg width="72" height="73" viewBox="0 0 72 73" fill="none"
  xmlns="http://www.w3.org/2000/svg">
  <path d="M36 72.9973C55.8823 72.9973 72 56.8795 72 36.9973C72 17.115 55.8823 0.997253 36 0.997253C16.1177 0.997253 0 17.115 0 36.9973C0 56.8795 16.1177 72.9973 36 72.9973Z" fill="#C3E7FF"/>
  <path d="M22.6411 45.0612V29.2376L34.6284 33.773V49.6974L22.6411 45.0612Z" fill="white"/>
  <path fill-rule="evenodd" clip-rule="evenodd" d="M36.3556 21.0738L50.6794 25.9116C51.6952 26.0124 51.8984 26.8187 52 27.2218V46.0691C52 46.573 51.5936 47.077 51.0857 47.2785L36.4571 52.9226C36.3556 53.0234 35.8476 53.0234 35.5429 52.9226L20.9143 47.2785C20.3048 47.077 20 46.573 20 46.0691V27.2218C20 27.2218 20 26.3148 21.1175 25.9116L35.4413 21.0738C35.746 20.973 36.0508 20.973 36.3556 21.0738ZM46.7175 27.3226L35.9492 23.6943L25.181 27.3226L35.9492 31.4549L46.7175 27.3226ZM37.3714 49.6974L49.2571 45.0612H49.3587V29.2376L37.3714 33.8738V49.6974ZM22.6413 29.2376V45.0612L34.6286 49.6974V33.773L22.6413 29.2376Z" fill="#009BFF"/>
</svg>
