<svg width="72" height="73" viewBox="0 0 72 73" fill="none"
  xmlns="http://www.w3.org/2000/svg">
  <path d="M36 72C55.8823 72 72 55.8823 72 36C72 16.1177 55.8823 0 36 0C16.1177 0 0 16.1177 0 36C0 55.8823 16.1177 72 36 72Z" fill="#FFE7B9"/>
  <path d="M43.2358 35.0542H25.4912V47.2162H43.2358V35.0542Z" fill="white"/>
  <path fill-rule="evenodd" clip-rule="evenodd" d="M27.7839 20.4C24.8929 20.4 22.6001 22.7839 22.6001 25.565C22.6001 28.3462 24.8929 30.73 27.7839 30.73C30.6749 30.73 32.9677 28.3462 32.9677 25.565C32.9677 22.7839 30.6749 20.4 27.7839 20.4ZM27.7839 28.3462C26.2886 28.3462 25.192 27.1542 25.192 25.6643C25.192 24.1744 26.3883 22.9825 27.7839 22.9825C29.2792 22.9825 30.3758 24.1744 30.3758 25.6643C30.4755 27.1542 29.2792 28.3462 27.7839 28.3462ZM25.0923 32.4185H43.7341C44.9303 32.4185 45.8275 33.4118 45.8275 34.6037V36.9876L52.8057 33.9084C53.2045 33.7098 53.7029 33.8091 54.002 34.0078C54.4007 34.2064 54.6001 34.6037 54.6001 35.1004V47.3175C54.6001 47.7148 54.4007 48.1121 54.002 48.4101C53.8026 48.5095 53.5035 48.6088 53.3041 48.6088C53.1048 48.6088 53.0051 48.6088 52.8057 48.5095L45.8275 45.4303V47.7148C45.8275 48.9068 44.8306 49.9 43.7341 49.9H25.0923C23.896 49.9 22.9989 48.9068 22.9989 47.7148V34.6037C22.8992 33.4118 23.896 32.4185 25.0923 32.4185ZM45.8275 42.5499L52.1079 45.2317V36.9876L45.8275 39.7687V42.5499ZM25.4911 47.1189H43.2356V35.001H25.4911V47.1189ZM34.8618 25.6643C34.8618 22.7839 37.1546 20.4994 40.0456 20.4994C42.9365 20.4994 45.2294 22.8832 45.2294 25.6643C45.2294 28.4455 42.9365 30.8293 40.0456 30.8293C37.1546 30.8293 34.8618 28.5448 34.8618 25.6643ZM37.354 25.6643C37.354 27.1542 38.5503 28.3462 39.9459 28.3462C41.4412 28.3462 42.5378 27.1542 42.5378 25.6643C42.5378 24.1744 41.3415 22.9825 39.9459 22.9825C38.5503 22.9825 37.354 24.1744 37.354 25.6643Z" fill="#FEB12B"/>
</svg>
