<svg width="34" height="35" viewBox="0 0 34 35" fill="none"
  xmlns="http://www.w3.org/2000/svg">
  <path d="M17 34C26.3888 34 34 26.3888 34 17C34 7.61116 26.3888 0 17 0C7.61116 0 0 7.61116 0 17C0 26.3888 7.61116 34 17 34Z" fill="#C3EDF1"/>
  <path fill-rule="evenodd" clip-rule="evenodd" d="M23.4606 17.4558C23.7287 17.4558 23.9432 17.2413 23.9432 16.9732V12.9511C23.9432 12.683 23.7287 12.4684 23.4606 12.4684H22.9779V17.4558H23.4606ZM21.959 17.5095H19.4385C19.1168 17.5095 18.8486 17.4022 18.5805 17.2413C19.3849 16.8123 19.9212 16.0079 19.9212 15.0426C19.9212 14.0773 19.3849 13.2192 18.5805 12.8438C18.8486 12.683 19.1168 12.5757 19.4385 12.5757H21.959V17.5095ZM17.4544 16.4905C18.2588 16.4905 18.9559 15.7934 18.9559 14.9889C18.9559 14.1845 18.3124 13.4874 17.4544 13.4874C16.6499 13.4874 15.9528 14.1845 15.9528 14.9889C15.9528 15.7934 16.6499 16.4905 17.4544 16.4905ZM10.9653 14.5063V14.9889V15.4716H14.9874C14.9338 15.3107 14.9338 15.1498 14.9338 14.9889C14.9338 14.8281 14.9338 14.6672 14.9874 14.5063H10.9653Z" fill="white"/>
  <path fill-rule="evenodd" clip-rule="evenodd" d="M21.959 11.5032H23.4606C24.3186 11.5032 24.9621 12.2003 24.9085 12.9511V16.9196C24.9085 17.724 24.2114 18.4211 23.4069 18.4211H22.2271L22.8707 19.7082C23.0315 20.03 22.817 20.4054 22.4416 20.4054H21.959V21.9606C21.959 22.765 21.2618 23.4621 20.4574 23.4621H18.9558V25.0174C18.9558 25.2855 18.7413 25.5 18.4732 25.5H10.4827C10.3218 25.5 10.2145 25.4464 10.1073 25.3391C10 25.1782 10 25.071 10 24.9101L10.9653 19.1719C10.3218 18.6356 10 17.6703 10 16.9732V14.989C10 11.3959 12.8959 8.5 16.489 8.5C18.7413 8.5 20.7792 9.67981 21.959 11.5032ZM20.7256 11.5032C19.7066 10.2697 18.1514 9.51893 16.489 9.51893C13.9685 9.51893 11.877 11.1814 11.2334 13.541H15.5237C15.9527 12.8975 16.7035 12.5221 17.5079 12.5221C17.9369 11.8785 18.6877 11.5032 19.4921 11.5032H20.7256ZM20.9937 19.9763C20.9937 19.7082 21.2082 19.4937 21.4763 19.4937V19.5473H21.5836L21.1009 18.5284H19.4385C18.6877 18.5284 17.9369 18.153 17.4543 17.5095C16.6498 17.5095 15.8991 17.0804 15.47 16.4905H10.9653V16.9732C10.9653 17.5631 11.2871 18.3139 11.7161 18.5284C11.9306 18.6356 12.0379 18.8502 11.9842 19.0647L11.0726 24.5347H18.0442V23.4621C17.5079 23.4085 16.9716 23.1404 16.5962 22.765L14.183 20.2981C13.9685 20.1372 13.9685 19.8155 14.183 19.6009C14.3438 19.3864 14.6656 19.3864 14.8801 19.6009L17.2934 22.0678C17.6151 22.336 17.9905 22.4968 18.3659 22.4968H20.511C20.7792 22.4968 20.9937 22.2823 20.9937 22.0142V19.9763ZM23.9432 16.9732C23.9432 17.2413 23.7287 17.4558 23.4605 17.4558H22.9779V12.4685H23.4605C23.7287 12.4685 23.9432 12.683 23.9432 12.9511V16.9732ZM19.4385 17.5095H21.959V12.5757H19.4385C19.1167 12.5757 18.8486 12.683 18.5804 12.8439C19.3848 13.2193 19.9211 14.0773 19.9211 15.0426C19.9211 16.0079 19.3848 16.8123 18.5804 17.2413C18.8486 17.4022 19.1167 17.5095 19.4385 17.5095ZM18.9559 14.989C18.9559 15.7934 18.2587 16.4905 17.4543 16.4905C16.6499 16.4905 15.9527 15.7934 15.9527 14.989C15.9527 14.1845 16.6499 13.4874 17.4543 13.4874C18.3123 13.4874 18.9559 14.1845 18.9559 14.989ZM10.9653 14.9889V14.5063H14.9874C14.9337 14.6672 14.9337 14.8281 14.9337 14.9889C14.9337 15.1498 14.9337 15.3107 14.9874 15.4716H10.9653V14.9889Z" fill="#1DC4D7"/>
</svg>
