<svg width="34" height="35" viewBox="0 0 34 35" fill="none"
  xmlns="http://www.w3.org/2000/svg">
  <path d="M17 33.9999C26.3888 33.9999 34 26.3888 34 16.9999C34 7.6111 26.3888 -6.10352e-05 17 -6.10352e-05C7.61116 -6.10352e-05 0 7.6111 0 16.9999C0 26.3888 7.61116 33.9999 17 33.9999Z" fill="#C3E7FF"/>
  <path d="M10.3208 21.0314V13.1196L16.3145 15.3873V23.3495L10.3208 21.0314Z" fill="white"/>
  <path fill-rule="evenodd" clip-rule="evenodd" d="M17.1778 9.03773L24.3397 11.4566C24.8476 11.507 24.9492 11.9102 25 12.1117V21.5354C25 21.7873 24.7968 22.0393 24.5429 22.1401L17.2286 24.9621C17.1778 25.0125 16.9238 25.0125 16.7714 24.9621L9.45714 22.1401C9.15238 22.0393 9 21.7873 9 21.5354V12.1117C9 12.1117 9 11.6582 9.55873 11.4566L16.7206 9.03773C16.873 8.98734 17.0254 8.98734 17.1778 9.03773ZM22.3587 12.1621L16.9746 10.348L11.5905 12.1621L16.9746 14.2283L22.3587 12.1621ZM17.6857 23.3495L23.6286 21.0314H23.6794V13.1196L17.6857 15.4377V23.3495ZM10.3207 13.1196V21.0314L16.3144 23.3495V15.3873L10.3207 13.1196Z" fill="#009BFF"/>
</svg>
