<svg width="34" height="35" viewBox="0 0 34 35" fill="none"
  xmlns="http://www.w3.org/2000/svg">
  <path d="M17 34.0001C26.3888 34.0001 34 26.3889 34 17.0001C34 7.61122 26.3888 6.10352e-05 17 6.10352e-05C7.61116 6.10352e-05 0 7.61122 0 17.0001C0 26.3889 7.61116 34.0001 17 34.0001Z" fill="#E1CCFF"/>
  <path fill-rule="evenodd" clip-rule="evenodd" d="M16.4906 15.812L18.1888 17.5103L20.1701 13.8307L16.4906 15.812ZM15.8114 16.4913L13.8301 20.1709L17.5096 18.1896L15.8114 16.4913Z" fill="white"/>
  <path fill-rule="evenodd" clip-rule="evenodd" d="M7.99927 17.0008C7.99927 12.0759 12.0185 8.00006 17 8.00006C21.9815 8.00006 26.0007 12.0193 26.0007 17.0008C26.0007 21.9823 21.9815 26.0015 17 26.0015C12.0185 26.0015 7.99927 21.9257 7.99927 17.0008ZM17 9.30205C12.7544 9.30205 9.30126 12.7552 9.30126 17.0008C9.30126 21.2464 12.7544 24.6995 17 24.6995C21.2456 24.6995 24.6987 21.2464 24.6987 17.0008C24.6987 12.7552 21.2456 9.30205 17 9.30205ZM21.189 12.0759C21.4154 11.9626 21.7551 12.0759 21.8683 12.3023C21.9815 12.4721 21.9815 12.6419 21.8683 12.7552V12.8118L18.7548 18.5858C18.6982 18.699 18.6416 18.7557 18.5284 18.8123L12.7544 21.9257C12.6411 21.9823 12.4713 21.9823 12.3015 21.9257L12.1883 21.8125C12.0185 21.6427 11.9618 21.4162 12.0751 21.1898L15.1885 15.4158C15.2451 15.3025 15.3017 15.2459 15.415 15.1893L21.189 12.0759ZM15.8112 16.4913L13.8299 20.1709L17.5095 18.1896L15.8112 16.4913ZM16.4905 15.812L18.1888 17.5103L20.1701 13.8307L16.4905 15.812Z" fill="#6B00FF"/>
</svg>
