<svg width="34" height="35" viewBox="0 0 34 35" fill="none"
  xmlns="http://www.w3.org/2000/svg">
  <path d="M17 34C26.3888 34 34 26.3888 34 17C34 7.61116 26.3888 0 17 0C7.61116 0 0 7.61116 0 17C0 26.3888 7.61116 34 17 34Z" fill="#FFE7B9"/>
  <path d="M20.3176 16.4243H11.4453V22.5859H20.3176V16.4243Z" fill="white"/>
  <path fill-rule="evenodd" clip-rule="evenodd" d="M12.5919 9C11.1464 9 10 10.2121 10 11.6263C10 13.0404 11.1464 14.2525 12.5919 14.2525C14.0374 14.2525 15.1838 13.0404 15.1838 11.6263C15.1838 10.2121 14.0374 9 12.5919 9ZM12.5919 13.0404C11.8442 13.0404 11.296 12.4343 11.296 11.6768C11.296 10.9192 11.8941 10.3131 12.5919 10.3131C13.3396 10.3131 13.8879 10.9192 13.8879 11.6768C13.9377 12.4343 13.3396 13.0404 12.5919 13.0404ZM11.2461 15.1111H20.567C21.1651 15.1111 21.6137 15.6162 21.6137 16.2222V17.4343L25.1028 15.8687C25.3022 15.7677 25.5514 15.8182 25.7009 15.9192C25.9003 16.0202 26 16.2222 26 16.4747V22.6869C26 22.8889 25.9003 23.0909 25.7009 23.2424C25.6012 23.2929 25.4517 23.3434 25.352 23.3434C25.2523 23.3434 25.2025 23.3434 25.1028 23.2929L21.6137 21.7273V22.8889C21.6137 23.495 21.1153 24 20.567 24H11.2461C10.648 24 10.1994 23.495 10.1994 22.8889V16.2222C10.1495 15.6162 10.648 15.1111 11.2461 15.1111ZM21.6137 20.2626L24.7539 21.6263V17.4343L21.6137 18.8485V20.2626ZM11.4455 22.5859H20.3178V16.4242H11.4455V22.5859ZM16.1308 11.6768C16.1308 10.2121 17.2773 9.05051 18.7227 9.05051C20.1682 9.05051 21.3146 10.2626 21.3146 11.6768C21.3146 13.0909 20.1682 14.303 18.7227 14.303C17.2773 14.303 16.1308 13.1414 16.1308 11.6768ZM17.3769 11.6768C17.3769 12.4343 17.9751 13.0404 18.6729 13.0404C19.4206 13.0404 19.9688 12.4343 19.9688 11.6768C19.9688 10.9192 19.3707 10.3131 18.6729 10.3131C17.9751 10.3131 17.3769 10.9192 17.3769 11.6768Z" fill="#FEB12B"/>
</svg>
