<svg width="34" height="35" viewBox="0 0 34 35" fill="none"
  xmlns="http://www.w3.org/2000/svg">
  <path d="M17 33.9999C26.3888 33.9999 34 26.3888 34 16.9999C34 7.6111 26.3888 -6.10352e-05 17 -6.10352e-05C7.61116 -6.10352e-05 0 7.6111 0 16.9999C0 26.3888 7.61116 33.9999 17 33.9999Z" fill="#FED5C6"/>
  <path fill-rule="evenodd" clip-rule="evenodd" d="M9.3584 16.9999C9.3584 12.8112 12.7546 9.3584 16.9999 9.3584C21.2452 9.3584 24.6414 12.7546 24.6414 16.9999C24.6414 21.2452 21.1886 24.6414 16.9999 24.6414C12.8112 24.6414 9.3584 21.2452 9.3584 16.9999ZM11.1697 16.9999C11.1697 20.2263 13.7735 22.8301 16.9999 22.8301C20.2263 22.8301 22.8301 20.2263 22.8301 16.9999C22.8301 13.7735 20.2263 11.1697 16.9999 11.1697C13.7735 11.1697 11.1697 13.7735 11.1697 16.9999ZM15.7548 16.9999C15.7548 16.3207 16.3208 15.7546 17 15.7546C17.6793 15.7546 18.2453 16.3207 18.2453 16.9999C18.2453 17.6791 17.6793 18.2452 17 18.2452C16.3208 18.2452 15.7548 17.6791 15.7548 16.9999Z" fill="white"/>
  <path fill-rule="evenodd" clip-rule="evenodd" d="M8 16.9999C8 21.9811 12.0189 25.9999 17 25.9999C21.9811 25.9999 26 21.9811 26 16.9999C26 12.0188 21.9811 7.99994 17 7.99994C12.0755 7.99994 8 12.0188 8 16.9999ZM9.35849 16.9999C9.35849 12.7547 12.8113 9.35843 17 9.35843C21.1887 9.35843 24.6415 12.7547 24.6415 16.9999C24.6415 21.2452 21.1887 24.6414 17 24.6414C12.8113 24.6414 9.35849 21.2452 9.35849 16.9999ZM17 22.8301C13.7736 22.8301 11.1698 20.2264 11.1698 16.9999C11.1698 13.7735 13.7736 11.1697 17 11.1697C20.2264 11.1697 22.8302 13.7735 22.8302 16.9999C22.8302 20.2264 20.2264 22.8301 17 22.8301ZM17 12.5282C14.5094 12.5282 12.5283 14.5094 12.5283 16.9999C12.5283 19.4905 14.5094 21.4716 17 21.4716C19.4906 21.4716 21.4717 19.4905 21.4717 16.9999C21.4717 14.5094 19.4906 12.5282 17 12.5282ZM17 19.5471C15.5849 19.5471 14.4528 18.415 14.4528 16.9999C14.4528 15.5848 15.5849 14.4528 17 14.4528C18.4151 14.4528 19.5472 15.5848 19.5472 16.9999C19.5472 18.415 18.4151 19.5471 17 19.5471ZM17 15.7547C16.3208 15.7547 15.7547 16.3207 15.7547 16.9999C15.7547 17.6792 16.3208 18.2452 17 18.2452C17.6792 18.2452 18.2453 17.6792 18.2453 16.9999C18.2453 16.3207 17.6792 15.7547 17 15.7547Z" fill="#FA7548"/>
</svg>
