<svg width="34" height="35" viewBox="0 0 34 35" fill="none"
  xmlns="http://www.w3.org/2000/svg">
  <path d="M17 34.0001C26.3888 34.0001 34 26.3889 34 17.0001C34 7.61122 26.3888 6.10352e-05 17 6.10352e-05C7.61116 6.10352e-05 0 7.61122 0 17.0001C0 26.3889 7.61116 34.0001 17 34.0001Z" fill="#F1C0CA"/>
  <path fill-rule="evenodd" clip-rule="evenodd" d="M14.8212 21.1774H19.5759L22.0665 17.0453L17.991 10.4793V14.385C18.7835 14.668 19.3495 15.4038 19.3495 16.3095C19.3495 17.4416 18.3872 18.3472 17.2552 18.3472C16.0665 18.3472 15.1608 17.4416 15.1608 16.3095C15.1608 15.4604 15.7269 14.668 16.5193 14.385V10.4793L12.4438 17.0453L14.8212 21.1774ZM17.9342 16.3093C17.9342 15.9131 17.6512 15.63 17.2549 15.63C16.8587 15.63 16.5757 15.9131 16.5757 16.3093C16.5757 16.7055 16.8587 16.9885 17.2549 16.9885C17.6512 16.9885 17.9342 16.7055 17.9342 16.3093Z" fill="white"/>
  <path d="M23.3679 16.6488L17.8208 7.64877C17.5377 7.19594 16.9151 7.19594 16.6321 7.64877L11.0849 16.6488C10.9717 16.8752 10.9717 17.1582 11.0849 17.328L13.4057 21.4601C12.783 21.7997 12.3868 22.479 12.3868 23.2714C12.3868 24.4035 13.2925 25.3091 14.4811 25.3091H20.0283C21.1604 25.3091 22.1226 24.4035 22.1226 23.2714C22.1226 22.5356 21.6698 21.8563 21.0472 21.4601L23.4245 17.3846C23.5377 17.1016 23.5377 16.8752 23.3679 16.6488ZM17.2547 15.6299C17.6509 15.6299 17.934 15.9129 17.934 16.3091C17.934 16.7054 17.6509 16.9884 17.2547 16.9884C16.8585 16.9884 16.5755 16.7054 16.5755 16.3091C16.5755 15.9129 16.8585 15.6299 17.2547 15.6299ZM19.9717 23.9507H14.4245C14.0283 23.9507 13.7453 23.6676 13.7453 23.2714C13.7453 22.8752 14.0283 22.5922 14.4245 22.5922H19.9717C20.3679 22.5922 20.7075 22.9318 20.7075 23.2714C20.7075 23.611 20.3679 23.9507 19.9717 23.9507ZM19.5755 21.1771H14.8208L12.4434 17.045L16.5189 10.479V14.3846C15.7264 14.6676 15.1604 15.4601 15.1604 16.3091C15.1604 17.4412 16.066 18.3469 17.2547 18.3469C18.3868 18.3469 19.3491 17.4412 19.3491 16.3091C19.3491 15.4035 18.783 14.6676 17.9906 14.3846V10.479L22.066 17.045L19.5755 21.1771Z" fill="#DF425A"/>
</svg>
