<svg width="104" height="24" viewBox="0 0 104 24" fill="none"
  xmlns="http://www.w3.org/2000/svg">
  <path fill-rule="evenodd" clip-rule="evenodd" d="M0.697266 20.8894H4.91969L6.0304 18.3333L10.3636 18.4447L11.5851 20.9996H15.8081L8.25298 0L0.697266 20.8894ZM7.14227 14.4456C7.14227 14.4456 8.03199 10.5555 8.14104 10.8896C8.2524 11.2225 9.14154 14.3325 9.14154 14.3325L7.14227 14.4456ZM18.4755 13.6672C18.4755 8.22213 24.4763 10.8901 24.4763 10.8901L26.9204 8.11135C24.8092 6.11034 21.5867 6.22286 21.5867 6.22286C19.9203 6.22286 15.1423 6.77793 14.4753 14.1115C17.1433 25.7788 27.0318 19.5571 27.0318 19.5571L24.587 16.7795C24.587 16.7784 18.4755 19.1111 18.4755 13.6672Z" fill="black"/>
  <path fill-rule="evenodd" clip-rule="evenodd" d="M70.478 5.1117L68.6997 1.55512H49.1437L45.144 12.1123L40.5881 1.44434H20.6986L18.5874 5.1117H27.5867V20.8895H31.8092V5.1117H37.5872L45.0327 24.0001L52.3662 5.1117H70.478Z" fill="black"/>
  <path fill-rule="evenodd" clip-rule="evenodd" d="M33.876 21.0003H37.6985V6.44392H33.921L33.876 21.0003ZM52.3207 21.0003H56.1444V6.44392H52.3663L52.3207 21.0003ZM65.8783 21.0003H69.7008V6.44392H65.9233L65.8783 21.0003ZM62.1434 9.55506H64.5887L64.7 6.55528L60.3668 6.44334C60.3668 6.44334 57.3671 6.44334 57.3671 9.22156C57.3671 11.9998 60.9213 15.8887 60.9213 15.8887C60.9213 15.8887 61.8105 16.6665 61.3662 17.3323C60.9213 18.0005 57.254 17.5568 57.254 17.5568V20.8889H62.5877C62.5877 20.8889 65.4772 21.2224 65.4772 18.1113C65.4772 15.0001 61.4764 10.8896 61.4764 10.8896C60.8677 10.2336 61.1914 9.55506 62.1434 9.55506ZM78.1445 5.99964C78.1445 5.99964 70.1445 5.77749 70.3667 13.7786C70.5888 21.7786 77.4787 21.4451 78.1445 21.4451C78.8115 21.4451 85.4787 20.7781 85.3673 13.3344C85.2571 5.88943 78.1445 5.99964 78.1445 5.99964ZM78.2553 17.446C78.2553 17.446 74.3675 18.0016 74.3675 13.6673C74.3675 9.33407 78.0343 9.88972 78.0343 9.88972C78.0343 9.88972 81.2562 10.1113 81.3665 13.0014C81.8119 17.2227 78.2553 17.446 78.2553 17.446ZM93.1452 6.44392L92.8117 11.3339L86.0343 5.99964L86.1451 20.8895H90.1454V15.3342L96.7017 20.8895V6.44392H93.1452ZM101.828 17.989C102.125 18.1509 102.37 18.3921 102.537 18.6854C102.708 18.9747 102.798 19.3039 102.8 19.6395C102.803 19.9752 102.716 20.3055 102.55 20.597C102.384 20.8958 102.151 21.1312 101.851 21.3049C101.551 21.4786 101.231 21.564 100.891 21.564C100.557 21.563 100.23 21.4749 99.941 21.3084C99.6482 21.1465 99.4057 20.9072 99.2399 20.6166C99.0688 20.3257 98.9793 19.994 98.9809 19.6565C98.9809 19.3241 99.0651 19.0039 99.2376 18.6975C99.4002 18.4054 99.6404 18.1639 99.9317 17.9999C100.223 17.8317 100.554 17.7435 100.891 17.7443C101.219 17.7457 101.541 17.8298 101.828 17.989ZM99.7638 17.6555C99.4064 17.849 99.111 18.1396 98.9116 18.4938C98.705 18.8462 98.5964 19.2474 98.5972 19.6559C98.5972 20.0505 98.6976 20.4302 98.9001 20.7954C99.0974 21.1491 99.3767 21.4301 99.7385 21.6384C100.088 21.8415 100.486 21.9476 100.89 21.946C101.287 21.946 101.668 21.8444 102.033 21.6419C102.384 21.4478 102.674 21.1595 102.871 20.8093C103.074 20.4592 103.181 20.0613 103.18 19.6565C103.18 19.2578 103.077 18.8723 102.873 18.5048C102.677 18.1556 102.389 17.8671 102.04 17.671C101.691 17.4678 101.294 17.3613 100.89 17.3623C100.505 17.3612 100.13 17.4604 99.7638 17.6555ZM100.292 20.9178V19.8688H100.524C100.662 19.8688 100.767 19.8971 100.842 19.953C100.95 20.0355 101.087 20.2271 101.256 20.5289L101.475 20.9178H101.958L101.658 20.4342C101.516 20.2075 101.394 20.0454 101.292 19.9461C101.232 19.8891 101.16 19.8442 101.083 19.814C101.28 19.7996 101.446 19.7326 101.577 19.608C101.693 19.5018 101.767 19.3569 101.784 19.2005C101.801 19.044 101.76 18.8867 101.67 18.7581C101.577 18.6231 101.437 18.5325 101.249 18.4875C101.14 18.4638 100.969 18.4517 100.734 18.4517H99.8885V20.9172H100.292V20.9178ZM100.292 18.7927H100.74C100.931 18.7927 101.063 18.8071 101.137 18.8354C101.287 18.8954 101.362 19.0021 101.362 19.1568C101.362 19.4049 101.165 19.5289 100.77 19.5289H100.293V18.7927H100.292Z" fill="black"/>
</svg>
