<svg width="90" height="26" viewBox="0 0 90 26" fill="none"
  xmlns="http://www.w3.org/2000/svg">
  <path d="M85.8444 3.78456C83.5324 1.44019 80.2696 -0.00148941 76.5022 1.15472e-06C72.7377 -0.0011913 69.4569 1.45957 67.1301 3.81824C65.6822 5.28407 64.602 7.0975 63.9912 9.11632C63.3933 7.14967 62.3329 5.4057 60.8976 4.00874C58.5885 1.75768 55.3176 0.411995 51.4974 0.413187H41.7728V15.3403C41.1299 13.9988 40.0226 13.035 38.6275 12.3464C40.0045 11.2961 41.0938 9.68095 41.0801 7.26772V7.20035C41.0853 5.15767 40.2593 3.40655 38.7888 2.22661C37.322 1.044 35.2546 0.413187 32.7642 0.413187H21.2923V15.3392C20.6494 13.9976 19.5421 13.0338 18.1482 12.3461C19.5237 11.2958 20.6121 9.68065 20.5992 7.26742V7.20005C20.6054 5.15886 19.7797 3.40625 18.3091 2.22751C16.8423 1.04251 14.7749 0.414081 12.2834 0.414081H0.813477V25.5868H12.5533C15.2782 25.5856 17.5872 25.0287 19.2593 23.8372C20.1479 23.2082 20.8386 22.386 21.2923 21.4046V25.5868H33.0336C35.7581 25.5856 38.0675 25.0299 39.7407 23.8372C40.6284 23.2091 41.3188 22.3872 41.7725 21.4058V25.5868H51.5024C55.324 25.5868 58.592 24.2229 60.8999 21.9564C62.3174 20.5666 63.3673 18.8375 63.9682 16.8941C64.5697 18.9272 65.6461 20.749 67.0954 22.2166C69.4074 24.5595 72.6715 26.0012 76.4363 26H76.4416C80.2061 26 83.4857 24.5389 85.8129 22.1815C88.1409 19.824 89.5205 16.5665 89.5194 13.0007V12.9322C89.5202 9.36704 88.1584 6.12624 85.8444 3.78456ZM6.96839 6.19242H11.5119C12.5318 6.19004 13.265 6.40617 13.7009 6.72873C14.1315 7.05516 14.3329 7.44897 14.3417 8.09141V8.15997C14.3277 8.89423 14.0948 9.28029 13.5994 9.61328C13.0965 9.93971 12.2592 10.1314 11.176 10.1299H6.96839V6.19242ZM15.6528 17.773C15.6388 18.5164 15.407 18.9284 14.9268 19.2701C14.4417 19.6055 13.6297 19.8115 12.553 19.8091H6.96956V15.6671H12.3848C13.6463 15.6644 14.4913 15.9118 14.97 16.2615C15.4452 16.6139 15.6414 17.0363 15.6528 17.7044V17.773ZM27.4486 6.19242H31.9921C33.0105 6.19123 33.7467 6.40766 34.1796 6.72992C34.6106 7.05487 34.8129 7.45016 34.8231 8.09111V8.15848C34.8079 8.89542 34.5747 9.28029 34.0782 9.61417C33.5767 9.94061 32.7394 10.1311 31.6574 10.1272H27.4486V6.19242ZM36.1333 17.7718C36.1208 18.5164 35.8864 18.9284 35.4074 19.2716C34.9222 19.6069 34.1117 19.8118 33.0336 19.8091H27.4486V15.6671H32.8639C34.1257 15.6644 34.9703 15.913 35.4493 16.2615C35.9243 16.6139 36.122 17.0348 36.1333 17.7044V17.7718ZM58.022 13.0687C57.9905 17.0491 55.4646 19.6394 51.4971 19.6707H48.0633V6.32985H51.4971C55.4543 6.35966 57.9914 9.01884 58.022 13.0016V13.0687ZM82.9953 13.0687C82.9776 16.9168 80.3492 19.9724 76.5022 19.9802C72.664 19.9748 69.9584 16.8419 69.9458 13.0016V12.9331C69.9636 9.08502 72.592 6.02935 76.4366 6.02041C80.2761 6.02548 82.9816 9.15866 82.9956 13.0016V13.0687H82.9953Z" fill="#EF3125"/>
</svg>
