<svg width="114" height="22" viewBox="0 0 114 22" fill="none"
  xmlns="http://www.w3.org/2000/svg">
  <path d="M84.1716 15.0485C84.1716 13.9328 85.0703 13.0312 86.1776 13.0312C86.7122 13.0312 87.2249 13.2436 87.6029 13.6217C87.981 13.9997 88.1933 14.5125 88.1933 15.0471C88.1933 15.5818 87.981 16.0945 87.6029 16.4726C87.2249 16.8506 86.7122 17.063 86.1776 17.063C85.0717 17.063 84.1716 16.16 84.1716 15.0471" fill="#499FDD"/>
  <path d="M19.4662 14.177C17.736 14.177 16.5322 12.8023 16.5322 10.8368C16.5322 8.87275 17.736 7.49943 19.4676 7.49943C21.2076 7.49943 22.424 8.87275 22.424 10.8368C22.424 12.8331 21.2342 14.177 19.4662 14.177ZM19.4662 4.56381C15.8043 4.56381 13.146 7.20265 13.146 10.8368C13.146 14.4724 15.8057 17.1099 19.4662 17.1099C23.1436 17.1099 25.8116 14.4724 25.8116 10.8382C25.8116 7.20265 23.1435 4.56381 19.4676 4.56381H19.4662ZM48.5629 11.1518C48.4355 10.9053 48.2744 10.6777 48.0842 10.4757L47.9722 10.3595L48.0898 10.2475C48.2578 10.0697 48.4299 9.85969 48.5951 9.61611L51.8287 4.81159H47.9036L45.4749 8.57037C45.3377 8.77196 45.0606 8.87275 44.6448 8.87275H44.0919V1.76677C44.0919 0.34586 43.2058 0.15267 42.2498 0.15267H40.6119L40.6161 16.9251H44.0933V11.8938H44.4195C44.8156 11.8938 45.0843 11.94 45.2089 12.1556L47.1267 15.7757C47.6628 16.7585 48.1961 16.9251 49.2012 16.9251H51.8651L49.8802 13.6437L48.5643 11.1518H48.5629ZM65.442 4.53581C63.6726 4.53581 62.5443 5.32256 61.9116 5.98752L61.7017 6.20031L61.6261 5.91053C61.4413 5.19797 60.8142 4.80739 59.8721 4.80739H58.3141L58.3239 16.9209H61.7772V11.338C61.7772 10.792 61.8472 10.3189 61.9928 9.88629C62.3763 8.57737 63.4486 7.76402 64.7882 7.76402C65.8661 7.76402 66.2875 8.33379 66.2875 9.8037V15.08C66.2875 16.3343 66.8684 16.9209 68.124 16.9209H69.7674L69.7619 9.21573C69.7619 6.15551 68.2683 4.53721 65.442 4.53721V4.53581ZM54.5079 4.81159H52.8715L52.8827 14.1784V16.9251H54.6283L54.6899 16.9279L55.5047 16.9251H56.3138V16.9209H56.3193L56.3263 6.65248C56.3263 5.41356 55.7342 4.81299 54.5094 4.81299L54.5079 4.81159ZM33.0291 14.177C31.2989 14.177 30.0937 12.8023 30.0937 10.8368C30.0937 8.87275 31.2989 7.49943 33.0305 7.49943C34.7663 7.49943 35.9869 8.87275 35.9869 10.8368C35.9869 12.8331 34.7971 14.177 33.0305 14.177H33.0291ZM33.0291 4.56381C29.3643 4.56381 26.7047 7.20265 26.7047 10.8368C26.7047 14.4724 29.3644 17.1099 33.0305 17.1099C36.7023 17.1099 39.3759 14.4724 39.3759 10.8382C39.3759 7.20265 36.7023 4.56381 33.0305 4.56381" fill="#273B7D"/>
  <path d="M107.045 14.177C105.314 14.177 104.108 12.8023 104.108 10.8368C104.108 8.87275 105.314 7.49943 107.045 7.49943C108.783 7.49943 110.003 8.87275 110.003 10.8368C110.003 12.8331 108.813 14.177 107.045 14.177ZM107.045 4.56381C103.38 4.56381 100.722 7.20265 100.722 10.8368C100.722 14.4724 103.38 17.1099 107.045 17.1099C110.718 17.1099 113.39 14.4724 113.39 10.8382C113.39 7.20265 110.716 4.56381 107.045 4.56381Z" fill="#499FDD"/>
  <path d="M77.0423 13.6434C75.1539 13.6434 74.482 11.9971 74.482 10.453C74.482 9.77265 74.6541 7.55658 76.8616 7.55658C77.9577 7.55658 79.4177 7.87017 79.4177 10.5664C79.4177 13.1101 78.1257 13.6434 77.0423 13.6434ZM81.2109 4.77915C80.5558 4.77915 80.0519 5.04093 79.7985 5.5183L79.7033 5.70309L79.5437 5.5631C78.9866 5.08153 77.9871 4.50896 76.3647 4.50896C73.1353 4.50896 70.9614 6.93502 70.9614 10.5426C70.9614 14.1488 73.211 16.6686 76.4291 16.6686C77.528 16.6686 78.3972 16.4111 79.0859 15.8903L79.3519 15.6901V16.0261C79.3519 17.6444 78.3063 18.5375 76.4095 18.5375C75.487 18.5375 74.6486 18.3135 74.0858 18.1092C73.3551 17.888 72.9239 18.0714 72.6286 18.8063L72.3542 19.4839L71.9664 20.475L72.2058 20.6024C73.4209 21.2464 75.0013 21.6313 76.4291 21.6313C79.3688 21.6313 82.8039 20.1264 82.8039 15.8903L82.8165 4.77915H81.2109Z" fill="#273B7D"/>
  <path d="M6.60728 14.0383L3.79644 14.0355V10.6757C3.79644 9.95616 4.07501 9.58378 4.68953 9.49698H6.60728C7.97491 9.49698 8.85958 10.3593 8.86098 11.7551C8.85958 13.1886 7.99731 14.0369 6.60728 14.0369V14.0383ZM3.79644 4.97245V4.08771C3.79644 3.31355 4.12402 2.94537 4.84213 2.89778H6.28117C7.51441 2.89778 8.25351 3.63553 8.25351 4.87166C8.25351 5.8124 7.74676 6.91134 6.32594 6.91134H3.79644V4.97245ZM10.1965 8.32665L9.68828 8.04107L10.132 7.66169C10.6486 7.21792 11.5123 6.21978 11.5123 4.49788C11.5123 1.86044 9.46855 0.158138 6.30355 0.158138H2.28043C1.82774 0.174644 1.39878 0.364698 1.08241 0.688915C0.766031 1.01313 0.586506 1.44665 0.581055 1.89963V16.8647H6.37489C9.89265 16.8647 12.1632 14.9497 12.1632 11.9832C12.1632 10.3859 11.4297 9.02101 10.1965 8.32665Z" fill="#273B7D"/>
</svg>
