<svg width="114" height="24" viewBox="0 0 114 24" fill="none"
  xmlns="http://www.w3.org/2000/svg">
  <path d="M113.347 10.8571V8.88004H110.892V5.80651L110.809 5.83196L108.503 6.53751L108.458 6.55132V8.88015H104.818V7.58279C104.818 6.9787 104.953 6.51642 105.219 6.20812C105.484 5.90352 105.862 5.74866 106.344 5.74866C106.691 5.74866 107.05 5.83033 107.411 5.99138L107.501 6.03184V3.94976L107.459 3.9341C107.122 3.81296 106.663 3.75195 106.095 3.75195C105.379 3.75195 104.729 3.90779 104.161 4.21663C103.593 4.52591 103.147 4.96742 102.834 5.52877C102.522 6.08947 102.364 6.73706 102.364 7.45371V8.88004H100.654V10.8571H102.364V19.1859H104.818V10.8571H108.458V16.1499C108.458 18.3297 109.486 19.4344 111.514 19.4344C111.847 19.4344 112.197 19.3953 112.556 19.3189C112.92 19.2404 113.168 19.162 113.315 19.0782L113.347 19.0591V17.0638L113.247 17.1298C113.114 17.2186 112.948 17.2911 112.754 17.345C112.558 17.3999 112.395 17.4275 112.269 17.4275C111.794 17.4275 111.442 17.2995 111.224 17.0468C111.004 16.7919 110.892 16.3462 110.892 15.7226V10.8571H113.347ZM95.1739 17.4278C94.2831 17.4278 93.5808 17.1324 93.0859 16.5506C92.588 15.9659 92.3357 15.1322 92.3357 14.073C92.3357 12.9802 92.588 12.1249 93.0861 11.5299C93.5814 10.9387 94.2769 10.6387 95.1539 10.6387C96.0048 10.6387 96.6822 10.9252 97.1674 11.4908C97.655 12.0594 97.9025 12.9078 97.9025 14.0133C97.9025 15.1325 97.6698 15.9921 97.2109 16.5672C96.7552 17.1379 96.0698 17.4278 95.1739 17.4278ZM95.2829 8.63177C93.5835 8.63177 92.2338 9.12972 91.2714 10.1118C90.3096 11.094 89.822 12.4533 89.822 14.1521C89.822 15.7657 90.298 17.0636 91.2369 18.0091C92.1758 18.955 93.4536 19.4342 95.0345 19.4342C96.6818 19.4342 98.0047 18.9293 98.9666 17.9336C99.9285 16.939 100.416 15.5926 100.416 13.9334C100.416 12.2946 99.9585 10.987 99.0563 10.0478C98.1535 9.10808 96.8838 8.63177 95.2829 8.63177ZM85.8652 8.63177C84.7092 8.63177 83.753 8.92745 83.0226 9.51044C82.2876 10.0969 81.9149 10.8661 81.9149 11.7969C81.9149 12.2807 81.9953 12.7104 82.1537 13.075C82.313 13.4407 82.5595 13.7627 82.8871 14.0329C83.2121 14.301 83.7139 14.5818 84.3787 14.8674C84.9377 15.0974 85.3545 15.292 85.6193 15.4453C85.8782 15.5956 86.0618 15.7467 86.1656 15.8938C86.2664 16.0378 86.3175 16.2348 86.3175 16.478C86.3175 17.1704 85.799 17.5073 84.7321 17.5073C84.3363 17.5073 83.8849 17.4246 83.3904 17.2617C82.8995 17.1013 82.4361 16.8663 82.0165 16.5651L81.9146 16.492V18.8548L81.9521 18.8722C82.2993 19.0325 82.7371 19.1676 83.2531 19.274C83.7681 19.3805 84.2361 19.4346 84.6426 19.4346C85.897 19.4346 86.9071 19.1375 87.6442 18.551C88.386 17.9605 88.7619 17.1732 88.7619 16.2103C88.7619 15.5156 88.5595 14.9199 88.1606 14.4394C87.7645 13.9629 87.0769 13.5254 86.1178 13.1387C85.3538 12.832 84.8643 12.5774 84.6624 12.382C84.4677 12.1932 84.3689 11.9263 84.3689 11.5882C84.3689 11.2885 84.4909 11.0483 84.7413 10.8539C84.9937 10.6585 85.3451 10.5591 85.7857 10.5591C86.1946 10.5591 86.613 10.6237 87.029 10.7503C87.4448 10.8769 87.8099 11.0464 88.1148 11.2538L88.215 11.3223V9.081L88.1765 9.06447C87.8953 8.94387 87.5245 8.84067 87.074 8.75694C86.6257 8.67374 86.219 8.63177 85.8652 8.63177ZM75.5172 17.4278C74.6266 17.4278 73.9241 17.1324 73.4293 16.5506C72.9313 15.9659 72.6794 15.1325 72.6794 14.073C72.6794 12.9802 72.9316 12.1249 73.4299 11.5299C73.9247 10.9387 74.6201 10.6387 75.4975 10.6387C76.3481 10.6387 77.0255 10.9252 77.5108 11.4908C77.9985 12.0594 78.2459 12.9078 78.2459 14.0133C78.2459 15.1325 78.0131 15.9921 77.5542 16.5672C77.0984 17.1379 76.4134 17.4278 75.5172 17.4278ZM75.6266 8.63177C73.9267 8.63177 72.5768 9.12972 71.615 10.1118C70.6532 11.094 70.1653 12.4533 70.1653 14.1521C70.1653 15.7663 70.6416 17.0636 71.5805 18.0091C72.5194 18.955 73.7971 19.4342 75.378 19.4342C77.025 19.4342 78.3483 18.9293 79.3103 17.9336C80.2719 16.939 80.7594 15.5926 80.7594 13.9334C80.7594 12.2946 80.302 10.987 79.3995 10.0478C78.4966 9.10808 77.2271 8.63177 75.6266 8.63177ZM66.44 10.6648V8.88004H64.0158V19.1857H66.44V13.9139C66.44 13.0175 66.6433 12.2811 67.0443 11.7249C67.4403 11.1753 67.9679 10.8968 68.6121 10.8968C68.8305 10.8968 69.0756 10.9327 69.3411 11.004C69.6038 11.0748 69.7941 11.1517 69.9063 11.2326L70.0082 11.3064V8.86242L69.969 8.84556C69.7432 8.74965 69.4238 8.70126 69.0197 8.70126C68.4105 8.70126 67.8654 8.897 67.3984 9.2824C66.9885 9.62115 66.6923 10.0856 66.4658 10.6648H66.44ZM59.6745 8.63177C58.5624 8.63177 57.5704 8.87025 56.7266 9.34036C55.8811 9.81157 55.2272 10.4843 54.7823 11.3397C54.3394 12.193 54.1145 13.1898 54.1145 14.3014C54.1145 15.2751 54.3325 16.1687 54.7635 16.9563C55.1947 17.7451 55.805 18.3623 56.5775 18.7903C57.349 19.2178 58.2406 19.4345 59.2278 19.4345C60.3799 19.4345 61.3635 19.2042 62.1521 18.7499L62.184 18.7317V16.5107L62.0821 16.5851C61.7249 16.8453 61.3256 17.053 60.8961 17.2027C60.4676 17.3522 60.077 17.4278 59.7345 17.4278C58.7832 17.4278 58.0196 17.1301 57.4653 16.5433C56.9098 15.9558 56.6282 15.1307 56.6282 14.0925C56.6282 13.0478 56.9219 12.2015 57.5008 11.5771C58.0779 10.9545 58.8429 10.6387 59.7745 10.6387C60.5713 10.6387 61.3477 10.9085 62.0823 11.4414L62.184 11.5152V9.17507L62.1511 9.15658C61.8747 9.00183 61.4977 8.87406 61.0296 8.77716C60.5635 8.68049 60.1077 8.63177 59.6745 8.63177ZM52.4449 8.88015H50.0207V19.1857H52.4449V8.88015ZM51.2576 4.48991C50.8586 4.48991 50.5106 4.62574 50.2247 4.89489C49.9376 5.1648 49.792 5.50463 49.792 5.90569C49.792 6.30044 49.9359 6.63408 50.2203 6.89681C50.5028 7.15879 50.8519 7.29157 51.2577 7.29157C51.6635 7.29157 52.0138 7.15879 52.2997 6.89725C52.5875 6.63408 52.7334 6.30055 52.7334 5.90569C52.7334 5.51866 52.5914 5.18231 52.3116 4.90576C52.032 4.62976 51.6773 4.48991 51.2576 4.48991ZM45.2091 8.11979V19.1857H47.6831V4.80539H44.259L39.9067 15.4866L35.683 4.80539H32.1195V19.1856H34.4444V8.1187H34.5242L38.9843 19.1857H40.7388L45.1293 8.11979H45.2091Z" fill="#706D6E"/>
  <path d="M12.3338 11.4041H0.929688V0H12.3338V11.4041Z" fill="#F1511B"/>
  <path d="M24.9251 11.4041H13.5212V0H24.9251V11.4041Z" fill="#80CC28"/>
  <path d="M12.3335 23.9997H0.929688V12.5957H12.3335V23.9997Z" fill="#00ADEF"/>
  <path d="M24.9251 23.9997H13.5212V12.5957H24.9251V23.9997Z" fill="#FBBC09"/>
</svg>
