<svg width="97" height="29" viewBox="0 0 97 29" fill="none"
  xmlns="http://www.w3.org/2000/svg">
  <path d="M0.0458984 5.67383H3.41298V13.1545H10.5144V5.67383H13.8858V24.0366H10.5144V16.3988H3.41298V24.0366H0.0458984V5.67383ZM24.5527 18.0556C24.5527 19.5927 23.3003 20.8436 21.7635 20.8436C20.2261 20.8436 18.9745 19.5927 18.9745 18.0556V10.1497H15.7813V18.0556C15.7813 21.3538 18.4651 24.0366 21.7635 24.0366C25.0611 24.0366 27.7447 21.3538 27.7447 18.0556V10.1497H24.5527V18.0556ZM36.6588 10.2424C35.0749 10.2424 33.9692 10.702 32.9015 11.7501V5.67383H29.698V16.9348C29.698 21.1499 32.7455 24.0366 36.1694 24.0366C39.9757 24.0366 43.3107 21.0984 43.3107 17.1397C43.3107 13.2311 40.2354 10.2424 36.6588 10.2424ZM36.7384 21.073C34.5677 21.073 32.9077 19.26 32.9077 17.1397C32.9077 15.0189 34.5677 13.2054 36.7384 13.2054C38.5777 13.2054 40.2387 15.0189 40.2387 17.1397C40.2387 19.26 38.5777 21.073 36.7384 21.073ZM48.6912 11.0494C48.6912 9.43906 49.7642 8.9285 50.9389 8.9285C51.8846 8.9285 53.136 9.64371 53.9527 10.5124L56.0469 8.06032C55.0003 6.65555 52.8805 5.68458 51.1434 5.68458C47.669 5.68458 45.1655 7.70271 45.1655 11.0494C45.1655 17.2566 52.8037 15.289 52.8037 18.764C52.8037 19.8357 51.7567 20.7817 50.5568 20.7817C48.6658 20.7817 48.0524 19.8621 47.1842 18.8911L44.8592 21.2919C46.3417 23.1058 48.1803 24.0258 50.3774 24.0258C53.6725 24.0258 56.3292 21.9822 56.3292 18.7887C56.3292 11.8919 48.6912 14.038 48.6912 11.0494ZM64.7628 10.0624C61.3393 10.0624 58.2913 12.9474 58.2913 17.1634V28.4535H61.4947V22.3483C62.5626 23.3957 63.6677 23.8561 65.2522 23.8561C68.8286 23.8561 71.9043 20.8677 71.9043 16.9592C71.9043 12.9998 68.5684 10.0624 64.7628 10.0624ZM65.332 20.8934C63.1615 20.8934 61.5013 19.078 61.5013 16.9592C61.5013 14.8384 63.1615 13.0249 65.332 13.0249C67.1709 13.0249 68.832 14.8384 68.832 16.9592C68.832 19.078 67.1709 20.8934 65.332 20.8934ZM95.4846 21.073C93.5951 21.073 93.0587 20.2559 93.0587 19.0037V13.4608H95.9958V10.6513H93.0587V6.94695L89.8155 8.40265V19.6935C89.8155 22.5803 91.8073 24.0366 94.5393 24.0366C94.948 24.0366 95.5107 24.0102 95.8175 23.9346L96.6095 21.0228C96.2519 21.0475 95.8434 21.073 95.4846 21.073Z" fill="#45535E"/>
  <path d="M87.0367 13.6241C86.4226 12.5675 85.5587 11.7205 84.4788 11.0828C83.6717 10.6129 82.8348 10.3147 81.8918 10.1867V6.82941C82.8348 6.42899 83.4201 5.54271 83.4201 4.50874C83.4201 3.09944 82.2899 1.95741 80.8818 1.95741C79.4725 1.95741 78.3225 3.09944 78.3225 4.50874C78.3225 5.54271 78.874 6.42899 79.817 6.82941V10.1882C79.0626 10.2972 78.2802 10.5324 77.5658 10.8938C76.1065 9.78551 71.3215 6.14966 68.5223 4.02609C68.5887 3.78674 68.6398 3.54004 68.6398 3.27976C68.6398 1.71881 67.3757 0.453613 65.8142 0.453613C64.2527 0.453613 62.9892 1.71881 62.9892 3.27976C62.9892 4.84051 64.254 6.10609 65.8155 6.10609C66.3482 6.10609 66.8408 5.9503 67.2659 5.69416L67.8567 6.1423L75.9737 11.9907C75.5446 12.3848 75.145 12.8329 74.8253 13.3357C74.1774 14.3608 73.7815 15.4887 73.7815 16.719V16.9757C73.7815 17.8394 73.9456 18.6547 74.2251 19.4207C74.4713 20.0895 74.8311 20.6976 75.2768 21.2474L72.5829 23.9479C72.1925 23.8026 71.7685 23.7728 71.3615 23.862C70.9546 23.9512 70.582 24.1558 70.2882 24.4511C70.0848 24.6535 69.9236 24.8943 69.8139 25.1594C69.7042 25.4246 69.6483 25.7089 69.6492 25.9958C69.6494 26.5792 69.8767 27.1275 70.2894 27.54C70.4916 27.7436 70.7323 27.905 70.9974 28.0148C71.2625 28.1247 71.5468 28.1809 71.8337 28.1801C72.1208 28.1809 72.4051 28.1247 72.6703 28.0148C72.9355 27.9049 73.1762 27.7435 73.3786 27.54C73.5819 27.3376 73.7431 27.0969 73.8528 26.8319C73.9626 26.5669 74.0187 26.2827 74.018 25.9958C74.018 25.7701 73.9831 25.5498 73.9175 25.3404L76.702 22.5556C77.0837 22.8193 77.496 23.0413 77.9392 23.2327C78.8134 23.6107 79.7784 23.841 80.8344 23.841H81.0279C82.1954 23.841 83.2967 23.5667 84.332 23.0058C85.4229 22.413 86.2768 21.6023 86.9218 20.5674C87.5703 19.5297 87.9273 18.3831 87.9273 17.1217V17.0587C87.9273 15.8178 87.6401 14.673 87.0367 13.6241ZM83.6345 19.466C82.8788 20.3058 82.01 20.8232 81.0279 20.8232H80.8661C80.3052 20.8232 79.7565 20.6682 79.2193 20.3862C78.6139 20.0757 78.1537 19.6329 77.777 19.0721C77.3877 18.5218 77.1765 17.9209 77.1765 17.2837V17.0902C77.1765 16.4638 77.2966 15.8699 77.5996 15.309C77.9234 14.6958 78.3608 14.219 78.9425 13.8399C79.5136 13.4634 80.1235 13.2788 80.8029 13.2788H80.8661C81.4821 13.2788 82.0653 13.4002 82.6157 13.6818C83.1764 13.9821 83.6345 14.3923 83.9897 14.9319C84.3346 15.4717 84.5399 16.054 84.6059 16.6883C84.6162 16.8201 84.6215 16.9552 84.6215 17.0842C84.6215 17.945 84.2926 18.7423 83.6345 19.466Z" fill="#F8761F"/>
</svg>
