<svg width="93" height="30" viewBox="0 0 93 30" fill="none"
  xmlns="http://www.w3.org/2000/svg">
  <path d="M11.4812 0H12.2985C15.1359 0.0616822 17.927 1.2028 19.9317 3.2229C19.1915 3.9785 18.4359 4.70327 17.7112 5.45888C16.5855 4.44112 15.2284 3.65467 13.7481 3.3771C11.5584 2.91449 9.19901 3.33084 7.36396 4.57991C5.35929 5.89065 4.00228 8.11121 3.70929 10.486C3.38546 12.8299 4.04854 15.2972 5.57517 17.1168C7.04013 18.8902 9.27611 20.0005 11.5892 20.0776C13.7481 20.2009 15.9995 19.5378 17.5724 18.0266C18.806 16.9626 19.3766 15.3435 19.5616 13.7706C17.0018 13.7706 14.442 13.786 11.8822 13.7706V10.5939H22.6612C23.2163 14.0019 22.4144 17.8416 19.8238 20.278C18.0967 22.0051 15.7065 23.0229 13.27 23.2234C10.9107 23.4547 8.47424 23.0075 6.37704 21.8664C3.86349 20.5248 1.85882 18.2579 0.871904 15.5902C-0.0533297 13.1383 -0.0687503 10.3626 0.794801 7.89533C1.58125 5.64392 3.09246 3.65467 5.03546 2.26682C6.90134 0.894392 9.16817 0.138785 11.4812 0Z" fill="#3C83FB"/>
  <path d="M73.3178 0.801758H76.6178V22.8223C75.5229 22.8223 74.4127 22.8377 73.3178 22.8069C73.3332 15.4821 73.3178 8.14194 73.3178 0.801758Z" fill="#3EB03F"/>
  <path d="M30.0014 8.43513C32.0369 8.04962 34.2421 8.48139 35.9229 9.69962C37.4495 10.7791 38.5136 12.4753 38.8374 14.3258C39.2537 16.4692 38.7294 18.8132 37.3416 20.5094C35.8458 22.4062 33.3939 23.4239 31.0037 23.2697C28.814 23.1463 26.686 22.0515 25.3907 20.2627C23.9257 18.2889 23.571 15.5749 24.3729 13.2618C25.1748 10.7791 27.4416 8.88233 30.0014 8.43513ZM30.464 11.365C29.6313 11.5809 28.8603 12.059 28.3051 12.7375C26.8093 14.5263 26.9019 17.4407 28.5519 19.1062C29.4925 20.0622 30.9112 20.5094 32.222 20.2473C33.4402 20.0314 34.5042 19.2141 35.0902 18.1347C36.1079 16.2996 35.815 13.7706 34.2575 12.3365C33.2551 11.4113 31.7902 11.0258 30.464 11.365Z" fill="#F73C25"/>
  <path d="M46.3471 8.43529C48.6756 7.98809 51.2199 8.63576 52.9625 10.2703C55.7999 12.8147 56.1083 17.5797 53.6872 20.5096C52.2223 22.3601 49.8475 23.3778 47.5036 23.2699C45.2676 23.2082 43.0625 22.0979 41.7363 20.2629C40.2405 18.2428 39.9167 15.4671 40.7648 13.1077C41.6129 10.7021 43.8335 8.86707 46.3471 8.43529ZM46.8097 11.3652C45.977 11.5811 45.2059 12.0591 44.6508 12.7222C43.1704 14.4801 43.2321 17.3484 44.8204 19.0292C45.7611 20.0316 47.226 20.525 48.583 20.2474C49.7858 20.0161 50.8653 19.2143 51.4513 18.1348C52.4536 16.2844 52.1606 13.7554 50.5877 12.3213C49.5854 11.396 48.1204 11.0259 46.8097 11.3652Z" fill="#FABC2E"/>
  <path d="M60.2102 9.32967C61.9835 8.21939 64.3429 7.91098 66.255 8.86706C66.8564 9.12921 67.3499 9.5764 67.8279 10.0236C67.8433 9.60724 67.8279 9.17547 67.8433 8.74369C68.8765 8.75911 69.9097 8.74369 70.9583 8.75911V22.36C70.9429 24.411 70.4186 26.5853 68.9382 28.0811C67.319 29.7311 64.8363 30.24 62.6003 29.9007C60.2102 29.546 58.1284 27.8035 57.2031 25.5984C58.1284 25.1512 59.0999 24.7965 60.0559 24.3801C60.5957 25.6446 61.6905 26.7241 63.063 26.9708C64.4354 27.2175 66.0237 26.8783 66.9181 25.7372C67.8742 24.5652 67.8742 22.9615 67.8279 21.5273C67.1186 22.2213 66.3013 22.8381 65.3144 23.0694C63.1709 23.6708 60.8116 22.9306 59.1616 21.4811C57.4961 20.0315 56.5092 17.7956 56.6017 15.575C56.648 13.0614 58.0667 10.6404 60.2102 9.32967ZM63.4022 11.3035C62.4616 11.4577 61.5826 11.982 60.9812 12.7068C59.5316 14.4339 59.5317 17.1942 60.9966 18.8904C61.8293 19.8928 63.1709 20.4479 64.4662 20.3091C65.6845 20.1857 66.8102 19.4147 67.4116 18.3507C68.4293 16.5465 68.2597 14.0946 66.8873 12.5217C66.0391 11.5502 64.6821 11.0722 63.4022 11.3035Z" fill="#3C83FB"/>
  <path d="M80.5809 10.116C82.4313 8.38888 85.2841 7.8029 87.6589 8.71271C89.9103 9.56084 91.3444 11.7043 92.0692 13.9094C88.7229 15.2973 85.3921 16.6697 82.0458 18.0576C82.5084 18.9365 83.2178 19.7384 84.1739 20.0622C85.5154 20.5403 87.1192 20.3707 88.2449 19.4763C88.6921 19.137 89.0468 18.6898 89.386 18.258C90.2341 18.8286 91.0823 19.3837 91.9304 19.9543C90.7276 21.7585 88.7075 23.023 86.5332 23.2235C84.1276 23.5164 81.5678 22.5912 80.0103 20.7099C77.4505 17.7492 77.6972 12.7837 80.5809 10.116ZM82.2309 12.9688C81.7066 13.7244 81.4907 14.6496 81.5061 15.5594C83.7421 14.6342 85.9781 13.709 88.214 12.7683C87.844 11.9048 86.9496 11.3805 86.0398 11.2417C84.5748 10.9795 83.0482 11.766 82.2309 12.9688Z" fill="#F73C25"/>
</svg>
