<svg width="148" height="158" viewBox="0 0 148 158" fill="none"
  xmlns="http://www.w3.org/2000/svg">
  <mask id="mask0" mask-type="alpha" maskUnits="userSpaceOnUse" x="0" y="9" width="148" height="149">
    <path fill-rule="evenodd" clip-rule="evenodd" d="M73.8327 143.217C106.78 143.217 133.488 116.508 133.488 83.5615C133.488 50.6146 106.78 23.9059 73.8327 23.9059C40.8858 23.9059 14.1771 50.6146 14.1771 83.5615C14.1771 116.508 40.8858 143.217 73.8327 143.217ZM73.8327 157.193C114.499 157.193 147.465 124.227 147.465 83.5615C147.465 42.8956 114.499 9.92944 73.8327 9.92944C33.1669 9.92944 0.200684 42.8956 0.200684 83.5615C0.200684 124.227 33.1669 157.193 73.8327 157.193Z" fill="url(#paint0_linear)"/>
  </mask>
  <g mask="url(#mask0)">
    <rect x="-0.141113" y="9.92944" width="147.946" height="147.264" fill="url(#paint1_linear)"/>
    <circle cx="12.472" cy="107.764" r="28.2938" fill="url(#paint2_linear)"/>
    <circle cx="112.352" cy="140.149" r="28.2938" fill="url(#paint3_linear)"/>
    <circle cx="97.0111" cy="25.951" r="28.2938" fill="url(#paint4_linear)"/>
  </g>
  <mask id="mask1" mask-type="alpha" maskUnits="userSpaceOnUse" x="68" y="0" width="22" height="35">
    <path d="M68.7202 34.4734V0.384521L89.1736 17.2585L68.7202 34.4734Z" fill="#FF462D"/>
  </mask>
  <g mask="url(#mask1)">
    <path d="M68.7202 34.4734V0.384521L89.1736 17.2585L68.7202 34.4734Z" fill="#FF462D"/>
    <rect x="-0.13916" y="-3.70605" width="147.946" height="42.952" fill="url(#paint5_linear)"/>
  </g>
  <path d="M118.664 105.762L144.392 128.126L118.238 132.492L118.664 105.762Z" fill="#FF462D"/>
  <path d="M16.6873 143.562L42.4146 121.198L16.261 116.832L16.6873 143.562Z" fill="#383BB5"/>
  <defs>
    <linearGradient id="paint0_linear" x1="147.465" y1="89.1861" x2="2.75736" y2="89.1861" gradientUnits="userSpaceOnUse">
      <stop offset="0.273545" stop-color="#FF462D"/>
      <stop offset="0.73968" stop-color="#383BB5"/>
    </linearGradient>
    <linearGradient id="paint1_linear" x1="-0.141113" y1="88.3339" x2="147.805" y2="88.3339" gradientUnits="userSpaceOnUse">
      <stop offset="0.276033" stop-color="#383BB5"/>
      <stop offset="0.729176" stop-color="#FF462D"/>
    </linearGradient>
    <linearGradient id="paint2_linear" x1="1.56356" y1="88.6747" x2="34.4594" y2="141.342" gradientUnits="userSpaceOnUse">
      <stop offset="0.151027" stop-color="#383BB5" stop-opacity="0"/>
      <stop offset="1" stop-color="#090B66"/>
    </linearGradient>
    <linearGradient id="paint3_linear" x1="89.8537" y1="149.694" x2="126.67" y2="115.605" gradientUnits="userSpaceOnUse">
      <stop offset="0.151027" stop-color="#FF462D" stop-opacity="0"/>
      <stop offset="1" stop-color="#9C1705"/>
    </linearGradient>
    <linearGradient id="paint4_linear" x1="113.374" y1="32.4279" x2="74.1715" y2="17.2583" gradientUnits="userSpaceOnUse">
      <stop offset="0.151027" stop-color="#FF462D" stop-opacity="0"/>
      <stop offset="1" stop-color="#9C1705"/>
    </linearGradient>
    <linearGradient id="paint5_linear" x1="-0.13916" y1="19.1619" x2="147.807" y2="19.1619" gradientUnits="userSpaceOnUse">
      <stop offset="0.276033" stop-color="#383BB5"/>
      <stop offset="0.729176" stop-color="#FF462D"/>
    </linearGradient>
  </defs>
</svg>
