<svg width="137" height="279" viewBox="0 0 137 279" fill="none"
  xmlns="http://www.w3.org/2000/svg">
  <path d="M47.2335 228.838C47.2335 230.275 46.069 231.441 44.6313 231.441C43.1936 231.441 42.0281 230.275 42.0281 228.838C42.0281 227.4 43.1936 226.235 44.6313 226.235C46.069 226.235 47.2335 227.4 47.2335 228.838Z" fill="#FED5C6"/>
  <path d="M84.2054 48.6027C84.2054 50.0402 83.0409 51.2054 81.6032 51.2054C80.1655 51.2054 79 50.0402 79 48.6027C79 47.1653 80.1655 46 81.6032 46C83.0409 46 84.2054 47.1653 84.2054 48.6027Z" fill="#C6E8FF"/>
  <path d="M121.205 275.603C121.205 277.04 120.041 278.205 118.603 278.205C117.165 278.205 116 277.04 116 275.603C116 274.165 117.165 273 118.603 273C120.041 273 121.205 274.165 121.205 275.603Z" fill="#C6E8FF"/>
  <path d="M44.2054 186.603C44.2054 188.04 43.0409 189.205 41.6032 189.205C40.1655 189.205 39 188.04 39 186.603C39 185.165 40.1655 184 41.6032 184C43.0409 184 44.2054 185.165 44.2054 186.603Z" fill="#C6E8FF"/>
  <circle cx="33" cy="105" r="33" fill="#E2F3FF"/>
  <path d="M32.8434 100.769L19.7673 95.7399L32.8434 91.7165L45.9194 96.7457V112.839L32.8434 118.874V100.769Z" fill="#E2F3FF"/>
  <path d="M32.6516 101.573L19.9585 96.8624L19.5354 113.134L32.6516 117.416V101.573Z" fill="white"/>
  <path d="M45.9428 94.9318L33.0164 90.4859C32.7105 90.4263 32.4634 90.4263 32.2222 90.4859L19.2899 94.9377C18.2368 95.2655 18.2662 96.1058 18.2662 96.1297V113.24C18.2662 113.734 18.5721 114.17 19.0605 114.354L32.2222 119.497C32.4575 119.599 32.9576 119.557 33.0812 119.497L46.2428 114.36C46.7312 114.176 47.0371 113.74 47.0371 113.246V96.1297C47.0371 95.7602 46.8135 95.045 45.9428 94.9318ZM32.6517 92.9055L42.3243 96.1893L32.6517 99.914L22.979 96.1893L32.6517 92.9055ZM20.6549 112.376V97.9295L31.4279 102.083V116.589L20.6549 112.376ZM44.6484 112.376L33.8755 116.589V102.119L44.6484 97.9295V112.376Z" fill="#009BFF"/>
  <ellipse cx="37.2656" cy="15.0838" rx="15.2656" ry="15.0838" fill="#F1C0CA"/>
  <path d="M37.0779 13.8738L36.8714 10.4457L36.6648 9.8407L33.1536 15.6887L35.0125 19.1168H39.3499L41.4153 15.487L37.491 10.244V13.8738L38.1106 15.0837L37.9041 15.6887L36.8714 15.8904L36.4583 15.6887V14.6804L37.0779 13.8738Z" fill="white"/>
  <path d="M41.8176 15.3253L37.6535 8.67049C37.4506 8.34569 36.9741 8.35187 36.775 8.67049L32.6109 15.3254C32.512 15.4834 32.5082 15.6821 32.6009 15.8438L34.3459 18.8853C33.8806 19.1491 33.5663 19.6441 33.5663 20.2106C33.5663 21.053 34.2611 21.7385 35.115 21.7385H39.2791C40.1348 21.7385 40.8622 21.0561 40.8622 20.2106C40.8622 19.6479 40.5407 19.1514 40.055 18.8828L41.8258 15.8469C41.9204 15.6847 41.9172 15.4845 41.8176 15.3253ZM37.2142 14.5743C37.4989 14.5743 37.7305 14.8028 37.7305 15.0836C37.7305 15.3644 37.4989 15.5929 37.2142 15.5929C36.9296 15.5929 36.698 15.3644 36.698 15.0836C36.698 14.8028 36.9296 14.5743 37.2142 14.5743ZM39.2791 20.7199H35.115C34.8303 20.7199 34.5988 20.4914 34.5988 20.2106C34.5988 19.93 34.8299 19.7018 35.1141 19.7013C35.1146 19.7013 35.115 19.7013 35.1155 19.7013C35.1164 19.7013 35.1172 19.7013 35.1181 19.7013H39.2791C39.5724 19.7013 39.8297 19.9392 39.8297 20.2106C39.8297 20.4819 39.5724 20.7199 39.2791 20.7199ZM38.9806 18.6826H35.4159L33.6497 15.6041L36.698 10.7325V13.6433C36.0972 13.8535 35.6656 14.4196 35.6656 15.0836C35.6656 15.9261 36.3603 16.6115 37.2142 16.6115C38.0682 16.6115 38.7629 15.9261 38.7629 15.0836C38.7629 14.4196 38.3313 13.8535 37.7305 13.6433V10.7325L40.7774 15.602L38.9806 18.6826Z" fill="#DF425A"/>
  <ellipse cx="116.084" cy="168.266" rx="20.9162" ry="21.1682" fill="#DDF6F9"/>
  <path d="M109.474 170.654L108.34 176.967H116.846V174.672H119.681L120.249 171.802L120.816 171.228V170.081L121.383 165.489C121.383 164.915 120.929 163.308 119.114 161.472C117.3 159.635 114.2 159.559 112.877 159.75C111.742 160.132 109.247 161.701 108.34 164.915C107.433 168.129 108.718 170.08 109.474 170.654Z" fill="#DDF6F9"/>
  <path d="M113.526 164.969L108.369 164.695V167.167H114.069L115.969 168.265L117.054 169.089L118.954 169.639L122.482 169.364L123.568 168.265V164.145L123.147 163.046L121.397 162.772L117.326 163.046L115.426 163.87L113.526 164.969Z" fill="white"/>
  <path d="M122.425 162.21H120.778C119.509 160.205 117.308 158.927 114.855 158.927C110.972 158.927 107.826 162.127 107.826 166.04C107.826 166.272 107.826 167.997 107.826 168.229C107.826 169.02 108.187 170.066 108.861 170.661L107.834 176.968C107.808 177.127 107.852 177.289 107.955 177.411C108.058 177.534 108.208 177.605 108.367 177.605H117.018C117.317 177.605 117.559 177.36 117.559 177.057V175.379H119.181C120.075 175.379 120.803 174.643 120.803 173.738V172.06H121.344C121.744 172.06 122.007 171.632 121.827 171.268L121.137 169.871H122.425C123.319 169.871 124.047 169.134 124.047 168.229V163.852C124.047 162.946 123.319 162.21 122.425 162.21ZM114.855 160.021C116.64 160.021 118.322 160.841 119.443 162.21H118.099C117.244 162.21 116.444 162.622 115.937 163.304C115.937 163.304 115.937 163.304 115.937 163.304C115.054 163.304 114.269 163.735 113.775 164.399H109.133C109.84 161.875 112.138 160.021 114.855 160.021ZM117.559 166.04C117.559 166.946 116.831 167.682 115.937 167.682C115.042 167.682 114.315 166.946 114.315 166.04C114.315 165.135 115.042 164.399 115.937 164.399C116.831 164.399 117.559 165.135 117.559 166.04ZM108.908 166.04C108.908 165.856 108.917 165.67 108.933 165.49H113.288C113.252 165.666 113.233 165.853 113.233 166.04C113.233 166.228 113.252 166.411 113.288 166.588H108.908V166.04ZM120.262 170.965C119.964 170.965 119.722 171.21 119.722 171.512V173.738C119.722 174.039 119.479 174.285 119.181 174.285H116.834C116.4 174.285 115.993 174.114 115.686 173.805L113.078 171.128C112.868 170.913 112.526 170.911 112.313 171.123C112.1 171.335 112.098 171.682 112.308 171.897L114.917 174.574C114.918 174.575 114.919 174.576 114.92 174.577C115.346 175.008 115.89 175.277 116.477 175.355V176.51H109.004L109.982 170.507C110.019 170.282 109.914 170.058 109.719 169.944C109.279 169.687 108.908 168.901 108.908 168.229V167.682H113.775C114.269 168.346 115.054 168.776 115.937 168.776C115.937 168.776 115.937 168.776 115.937 168.776C116.444 169.459 117.244 169.871 118.099 169.871H119.928L120.469 170.965H120.262ZM120.803 168.776H118.099C117.76 168.776 117.435 168.668 117.166 168.476C118.04 168.022 118.64 167.101 118.64 166.04C118.64 164.98 118.04 164.059 117.166 163.605C117.435 163.413 117.76 163.304 118.099 163.304H120.803V168.776ZM122.966 168.229C122.966 168.531 122.723 168.776 122.425 168.776H121.884V163.304H122.425C122.723 163.304 122.966 163.55 122.966 163.852V168.229Z" fill="#1DC4D7"/>
</svg>
