<svg width="211" height="282" viewBox="0 0 211 282" fill="none"
  xmlns="http://www.w3.org/2000/svg">
  <g clip-path="url(#clip0)">
    <path d="M77.2335 240.838C77.2335 242.275 76.069 243.441 74.6313 243.441C73.1936 243.441 72.0281 242.275 72.0281 240.838C72.0281 239.4 73.1936 238.235 74.6313 238.235C76.069 238.235 77.2335 239.4 77.2335 240.838Z" fill="#FED5C6"/>
    <path d="M114.205 60.6027C114.205 62.0402 113.041 63.2054 111.603 63.2054C110.165 63.2054 109 62.0402 109 60.6027C109 59.1653 110.165 58 111.603 58C113.041 58 114.205 59.1653 114.205 60.6027Z" fill="#C6E8FF"/>
    <path d="M74.2055 198.603C74.2055 200.04 73.0409 201.205 71.6032 201.205C70.1655 201.205 69 200.04 69 198.603C69 197.165 70.1655 196 71.6032 196C73.0409 196 74.2055 197.165 74.2055 198.603Z" fill="#C6E8FF"/>
    <g filter="url(#filter0_d)">
      <circle cx="59" cy="117" r="33" fill="#C6E8FF"/>
      <g clip-path="url(#clip1)">
        <path d="M58.8431 112.769L45.7671 107.74L58.8431 103.717L71.9191 108.746V124.839L58.8431 130.874V112.769Z" fill="#C6E8FF"/>
        <path d="M58.6513 113.573L45.9582 108.863L45.5351 125.134L58.6513 129.416V113.573Z" fill="white"/>
        <path d="M71.9427 106.932L59.0163 102.486C58.7104 102.426 58.4633 102.426 58.222 102.486L45.2898 106.938C44.2367 107.266 44.2661 108.106 44.2661 108.13V125.24C44.2661 125.735 44.572 126.17 45.0604 126.354L58.222 131.497C58.4574 131.599 58.9575 131.557 59.0811 131.497L72.2427 126.36C72.7311 126.176 73.037 125.74 73.037 125.246V108.13C73.037 107.76 72.8134 107.045 71.9427 106.932ZM58.6516 104.905L68.3242 108.189L58.6516 111.914L48.9789 108.189L58.6516 104.905ZM46.6548 124.376V109.929L57.4278 114.083V128.589L46.6548 124.376ZM70.6483 124.376L59.8753 128.589V114.119L70.6483 109.929V124.376V124.376Z" fill="#009BFF"/>
      </g>
    </g>
    <g filter="url(#filter1_d)">
      <ellipse cx="63.2656" cy="27.0838" rx="15.2656" ry="15.0838" fill="#F1C0CA"/>
      <g clip-path="url(#clip2)">
        <ellipse cx="63.1719" cy="27.0986" rx="1.9407" ry="1.91759" fill="#F1C0CA"/>
        <rect x="60.2611" y="30.9336" width="5.82209" height="1.91759" fill="#F1C0CA"/>
        <path d="M63.0779 25.8738L62.8713 22.4457L62.6648 21.8407L59.1535 27.6887L61.0124 31.1169H65.3499L67.4153 27.4871L63.491 22.244V25.8738L64.1106 27.0837L63.9041 27.6887L62.8713 27.8904L62.4583 27.6887V26.6804L63.0779 25.8738Z" fill="white"/>
        <path d="M67.8177 27.3253L63.6536 20.6705C63.4506 20.3457 62.9741 20.3519 62.7751 20.6705L58.6109 27.3254C58.512 27.4834 58.5082 27.6821 58.601 27.8438L60.3459 30.8853C59.8806 31.1491 59.5664 31.6441 59.5664 32.2106C59.5664 33.053 60.2611 33.7385 61.115 33.7385H65.2792C66.1349 33.7385 66.8622 33.0561 66.8622 32.2106C66.8622 31.6479 66.5408 31.1514 66.0551 30.8828L67.8259 27.8469C67.9204 27.6847 67.9173 27.4845 67.8177 27.3253ZM63.2143 26.5743C63.4989 26.5743 63.7305 26.8028 63.7305 27.0836C63.7305 27.3644 63.4989 27.5929 63.2143 27.5929C62.9297 27.5929 62.6981 27.3644 62.6981 27.0836C62.6981 26.8028 62.9297 26.5743 63.2143 26.5743ZM65.2792 32.7199H61.115C60.8304 32.7199 60.5988 32.4914 60.5988 32.2106C60.5988 31.93 60.8299 31.7018 61.1142 31.7013C61.1147 31.7013 61.1151 31.7013 61.1155 31.7013C61.1164 31.7013 61.1173 31.7013 61.1182 31.7013H65.2792C65.5725 31.7013 65.8298 31.9392 65.8298 32.2106C65.8298 32.4819 65.5725 32.7199 65.2792 32.7199ZM64.9806 30.6826H61.416L59.6498 27.6041L62.6981 22.7325V25.6433C62.0973 25.8535 61.6657 26.4196 61.6657 27.0836C61.6657 27.9261 62.3604 28.6115 63.2143 28.6115C64.0682 28.6115 64.763 27.9261 64.763 27.0836C64.763 26.4196 64.3314 25.8535 63.7305 25.6433V22.7325L66.7775 27.602L64.9806 30.6826Z" fill="#DF425A"/>
      </g>
    </g>
    <g filter="url(#filter2_d)">
      <ellipse cx="142.084" cy="180.266" rx="20.9162" ry="21.1682" fill="#C6EEF2"/>
      <g clip-path="url(#clip3)">
        <path d="M135.474 182.654L134.34 188.967H142.846V186.672H145.681L146.248 183.802L146.815 183.228V182.08L147.383 177.489C147.383 176.915 146.929 175.308 145.114 173.471C143.3 171.635 140.2 171.558 138.876 171.75C137.742 172.132 135.247 173.701 134.34 176.915C133.432 180.129 134.718 182.08 135.474 182.654Z" fill="#C6EEF2"/>
        <path d="M139.526 176.969L134.369 176.694V179.166H140.069L141.968 180.265L143.054 181.089L144.954 181.638L148.482 181.364L149.568 180.265V176.145L149.147 175.046L147.396 174.772L143.325 175.046L141.426 175.87L139.526 176.969Z" fill="white"/>
        <path d="M148.425 174.21H146.778C145.509 172.205 143.308 170.927 140.855 170.927C136.972 170.927 133.826 174.127 133.826 178.04C133.826 178.272 133.826 179.997 133.826 180.229C133.826 181.02 134.186 182.066 134.861 182.661L133.833 188.968C133.808 189.127 133.852 189.289 133.955 189.411C134.057 189.534 134.208 189.604 134.367 189.604H143.018C143.316 189.604 143.559 189.359 143.559 189.057V187.379H145.181C146.075 187.379 146.803 186.643 146.803 185.738V184.059H147.343C147.744 184.059 148.007 183.631 147.827 183.268L147.137 181.871H148.425C149.319 181.871 150.047 181.134 150.047 180.229V175.851C150.047 174.946 149.319 174.21 148.425 174.21ZM140.855 172.021C142.639 172.021 144.322 172.841 145.442 174.21H144.099C143.244 174.21 142.443 174.622 141.937 175.304C141.937 175.304 141.937 175.304 141.937 175.304C141.054 175.304 140.269 175.735 139.775 176.399H135.132C135.84 173.875 138.138 172.021 140.855 172.021ZM143.559 178.04C143.559 178.945 142.831 179.682 141.937 179.682C141.042 179.682 140.314 178.945 140.314 178.04C140.314 177.135 141.042 176.399 141.937 176.399C142.831 176.399 143.559 177.135 143.559 178.04ZM134.908 178.04C134.908 177.856 134.916 177.67 134.932 177.489H139.287C139.252 177.666 139.233 177.853 139.233 178.04C139.233 178.228 139.252 178.411 139.287 178.587H134.908V178.04ZM146.262 182.965C145.963 182.965 145.721 183.21 145.721 183.512V185.738C145.721 186.039 145.479 186.285 145.181 186.285H142.834C142.4 186.285 141.993 186.114 141.686 185.804L139.077 183.128C138.868 182.913 138.525 182.91 138.313 183.123C138.1 183.335 138.098 183.681 138.307 183.897L140.917 186.574C140.918 186.575 140.919 186.576 140.92 186.577C141.346 187.008 141.889 187.277 142.477 187.355V188.51H135.004L135.982 182.507C136.018 182.282 135.914 182.058 135.719 181.944C135.279 181.687 134.908 180.901 134.908 180.229V179.682H139.775C140.269 180.346 141.054 180.776 141.937 180.776C141.937 180.776 141.937 180.776 141.937 180.776C142.443 181.459 143.244 181.871 144.099 181.871H145.928L146.469 182.965H146.262ZM146.803 180.776H144.099C143.76 180.776 143.435 180.668 143.166 180.476C144.04 180.022 144.64 179.101 144.64 178.04C144.64 176.98 144.04 176.059 143.166 175.605C143.435 175.413 143.76 175.304 144.099 175.304H146.803V180.776ZM148.965 180.229C148.965 180.531 148.723 180.776 148.425 180.776H147.884V175.304H148.425C148.723 175.304 148.965 175.55 148.965 175.851V180.229Z" fill="#1DC4D7"/>
      </g>
    </g>
  </g>
  <defs>
    <filter id="filter0_d" x="-24" y="39" width="186" height="186" filterUnits="userSpaceOnUse" color-interpolation-filters="sRGB">
      <feFlood flood-opacity="0" result="BackgroundImageFix"/>
      <feColorMatrix in="SourceAlpha" type="matrix" values="0 0 0 0 0 0 0 0 0 0 0 0 0 0 0 0 0 0 127 0"/>
      <feOffset dx="10" dy="15"/>
      <feGaussianBlur stdDeviation="30"/>
      <feColorMatrix type="matrix" values="0 0 0 0 0.219479 0 0 0 0 0.341979 0 0 0 0 0.408333 0 0 0 0.15 0"/>
      <feBlend mode="normal" in2="BackgroundImageFix" result="effect1_dropShadow"/>
      <feBlend mode="normal" in="SourceGraphic" in2="effect1_dropShadow" result="shape"/>
    </filter>
    <filter id="filter1_d" x="-2" y="-33" width="150.531" height="150.168" filterUnits="userSpaceOnUse" color-interpolation-filters="sRGB">
      <feFlood flood-opacity="0" result="BackgroundImageFix"/>
      <feColorMatrix in="SourceAlpha" type="matrix" values="0 0 0 0 0 0 0 0 0 0 0 0 0 0 0 0 0 0 127 0"/>
      <feOffset dx="10" dy="15"/>
      <feGaussianBlur stdDeviation="30"/>
      <feColorMatrix type="matrix" values="0 0 0 0 0.219479 0 0 0 0 0.341979 0 0 0 0 0.408333 0 0 0 0.15 0"/>
      <feBlend mode="normal" in2="BackgroundImageFix" result="effect1_dropShadow"/>
      <feBlend mode="normal" in="SourceGraphic" in2="effect1_dropShadow" result="shape"/>
    </filter>
    <filter id="filter2_d" x="71.1677" y="114.097" width="161.832" height="162.336" filterUnits="userSpaceOnUse" color-interpolation-filters="sRGB">
      <feFlood flood-opacity="0" result="BackgroundImageFix"/>
      <feColorMatrix in="SourceAlpha" type="matrix" values="0 0 0 0 0 0 0 0 0 0 0 0 0 0 0 0 0 0 127 0"/>
      <feOffset dx="10" dy="15"/>
      <feGaussianBlur stdDeviation="30"/>
      <feColorMatrix type="matrix" values="0 0 0 0 0.219479 0 0 0 0 0.341979 0 0 0 0 0.408333 0 0 0 0.15 0"/>
      <feBlend mode="normal" in2="BackgroundImageFix" result="effect1_dropShadow"/>
      <feBlend mode="normal" in="SourceGraphic" in2="effect1_dropShadow" result="shape"/>
    </filter>
    <clipPath id="clip0">
      <rect width="211" height="282" fill="white"/>
    </clipPath>
    <clipPath id="clip1">
      <rect width="29.1176" height="29.1176" fill="white" transform="translate(44.4411 102.441)"/>
    </clipPath>
    <clipPath id="clip2">
      <rect width="13.4696" height="13.3093" fill="white" transform="translate(56.5308 20.4292)"/>
    </clipPath>
    <clipPath id="clip3">
      <rect width="18.4554" height="18.6778" fill="white" transform="translate(132.856 170.927)"/>
    </clipPath>
  </defs>
</svg>
