<svg width="189" height="189" viewBox="0 0 189 189" fill="none"
  xmlns="http://www.w3.org/2000/svg">
  <g opacity="0.35">
    <path d="M4.16818 2.15636C4.16818 3.10026 3.403 3.86545 2.45909 3.86545C1.51519 3.86545 0.75 3.10026 0.75 2.15636C0.75 1.21245 1.51519 0.447266 2.45909 0.447266C3.403 0.447266 4.16818 1.21245 4.16818 2.15636Z" fill="#333333"/>
    <path d="M45.1858 2.15636C45.1858 3.10026 44.4206 3.86545 43.4767 3.86545C42.5328 3.86545 41.7676 3.10026 41.7676 2.15636C41.7676 1.21245 42.5328 0.447266 43.4767 0.447266C44.4206 0.447266 45.1858 1.21245 45.1858 2.15636Z" fill="#333333"/>
    <path d="M125.514 3.86545C126.458 3.86545 127.223 3.10026 127.223 2.15636C127.223 1.21245 126.458 0.447266 125.514 0.447266C124.57 0.447266 123.805 1.21245 123.805 2.15636C123.805 3.10026 124.57 3.86545 125.514 3.86545Z" fill="#333333"/>
    <path d="M146.024 3.86545C146.967 3.86545 147.733 3.10026 147.733 2.15636C147.733 1.21245 146.967 0.447266 146.024 0.447266C145.08 0.447266 144.314 1.21245 144.314 2.15636C144.314 3.10026 145.08 3.86545 146.024 3.86545Z" fill="#333333"/>
    <path d="M127.223 22.6655C127.223 23.6094 126.458 24.3745 125.514 24.3745C124.57 24.3745 123.805 23.6094 123.805 22.6655C123.805 21.7215 124.57 20.9564 125.514 20.9564C126.458 20.9564 127.223 21.7215 127.223 22.6655Z" fill="#333333"/>
    <path d="M146.024 24.3745C146.967 24.3745 147.733 23.6094 147.733 22.6655C147.733 21.7215 146.967 20.9564 146.024 20.9564C145.08 20.9564 144.314 21.7215 144.314 22.6655C144.314 23.6094 145.08 24.3745 146.024 24.3745Z" fill="#333333"/>
    <path d="M168.24 2.15636C168.24 3.10026 167.475 3.86545 166.531 3.86545C165.587 3.86545 164.822 3.10026 164.822 2.15636C164.822 1.21245 165.587 0.447266 166.531 0.447266C167.475 0.447266 168.24 1.21245 168.24 2.15636Z" fill="#333333"/>
    <path d="M187.041 3.86545C187.985 3.86545 188.75 3.10026 188.75 2.15636C188.75 1.21245 187.985 0.447266 187.041 0.447266C186.097 0.447266 185.332 1.21245 185.332 2.15636C185.332 3.10026 186.097 3.86545 187.041 3.86545Z" fill="#333333"/>
    <path d="M168.24 22.6655C168.24 23.6094 167.475 24.3745 166.531 24.3745C165.587 24.3745 164.822 23.6094 164.822 22.6655C164.822 21.7215 165.587 20.9564 166.531 20.9564C167.475 20.9564 168.24 21.7215 168.24 22.6655Z" fill="#333333"/>
    <path d="M187.041 24.3745C187.985 24.3745 188.75 23.6094 188.75 22.6655C188.75 21.7215 187.985 20.9564 187.041 20.9564C186.097 20.9564 185.332 21.7215 185.332 22.6655C185.332 23.6094 186.097 24.3745 187.041 24.3745Z" fill="#333333"/>
    <path d="M63.9864 3.86545C64.9303 3.86545 65.6955 3.10026 65.6955 2.15636C65.6955 1.21245 64.9303 0.447266 63.9864 0.447266C63.0425 0.447266 62.2773 1.21245 62.2773 2.15636C62.2773 3.10026 63.0425 3.86545 63.9864 3.86545Z" fill="#333333"/>
    <path d="M45.1858 22.6655C45.1858 23.6094 44.4206 24.3745 43.4767 24.3745C42.5328 24.3745 41.7676 23.6094 41.7676 22.6655C41.7676 21.7215 42.5328 20.9564 43.4767 20.9564C44.4206 20.9564 45.1858 21.7215 45.1858 22.6655Z" fill="#333333"/>
    <path d="M63.9864 24.3745C64.9303 24.3745 65.6955 23.6094 65.6955 22.6655C65.6955 21.7215 64.9303 20.9564 63.9864 20.9564C63.0425 20.9564 62.2773 21.7215 62.2773 22.6655C62.2773 23.6094 63.0425 24.3745 63.9864 24.3745Z" fill="#333333"/>
    <path d="M22.9689 3.86545C23.9128 3.86545 24.6779 3.10026 24.6779 2.15636C24.6779 1.21245 23.9128 0.447266 22.9689 0.447266C22.025 0.447266 21.2598 1.21245 21.2598 2.15636C21.2598 3.10026 22.025 3.86545 22.9689 3.86545Z" fill="#333333"/>
    <path d="M4.16818 22.6655C4.16818 23.6094 3.403 24.3745 2.45909 24.3745C1.51519 24.3745 0.75 23.6094 0.75 22.6655C0.75 21.7215 1.51519 20.9564 2.45909 20.9564C3.403 20.9564 4.16818 21.7215 4.16818 22.6655Z" fill="#333333"/>
    <path d="M22.9689 24.3745C23.9128 24.3745 24.6779 23.6094 24.6779 22.6655C24.6779 21.7215 23.9128 20.9564 22.9689 20.9564C22.025 20.9564 21.2598 21.7215 21.2598 22.6655C21.2598 23.6094 22.025 24.3745 22.9689 24.3745Z" fill="#333333"/>
    <path d="M86.2053 2.15636C86.2053 3.10026 85.4401 3.86545 84.4962 3.86545C83.5523 3.86545 82.7871 3.10026 82.7871 2.15636C82.7871 1.21245 83.5523 0.447266 84.4962 0.447266C85.4401 0.447266 86.2053 1.21245 86.2053 2.15636Z" fill="#333333"/>
    <path d="M105.004 3.86545C105.948 3.86545 106.713 3.10026 106.713 2.15636C106.713 1.21245 105.948 0.447266 105.004 0.447266C104.06 0.447266 103.295 1.21245 103.295 2.15636C103.295 3.10026 104.06 3.86545 105.004 3.86545Z" fill="#333333"/>
    <path d="M86.2053 22.6655C86.2053 23.6094 85.4401 24.3745 84.4962 24.3745C83.5523 24.3745 82.7871 23.6094 82.7871 22.6655C82.7871 21.7215 83.5523 20.9564 84.4962 20.9564C85.4401 20.9564 86.2053 21.7215 86.2053 22.6655Z" fill="#333333"/>
    <path d="M105.004 24.3745C105.948 24.3745 106.713 23.6094 106.713 22.6655C106.713 21.7215 105.948 20.9564 105.004 20.9564C104.06 20.9564 103.295 21.7215 103.295 22.6655C103.295 23.6094 104.06 24.3745 105.004 24.3745Z" fill="#333333"/>
    <path d="M127.223 43.1745C127.223 44.1185 126.458 44.8836 125.514 44.8836C124.57 44.8836 123.805 44.1185 123.805 43.1745C123.805 42.2306 124.57 41.4655 125.514 41.4655C126.458 41.4655 127.223 42.2306 127.223 43.1745Z" fill="#333333"/>
    <path d="M146.024 44.8836C146.967 44.8836 147.733 44.1185 147.733 43.1745C147.733 42.2306 146.967 41.4655 146.024 41.4655C145.08 41.4655 144.314 42.2306 144.314 43.1745C144.314 44.1185 145.08 44.8836 146.024 44.8836Z" fill="#333333"/>
    <path d="M127.223 63.6836C127.223 64.6275 126.458 65.3927 125.514 65.3927C124.57 65.3927 123.805 64.6275 123.805 63.6836C123.805 62.7397 124.57 61.9745 125.514 61.9745C126.458 61.9745 127.223 62.7397 127.223 63.6836Z" fill="#333333"/>
    <path d="M146.024 65.3927C146.967 65.3927 147.733 64.6275 147.733 63.6836C147.733 62.7397 146.967 61.9745 146.024 61.9745C145.08 61.9745 144.314 62.7397 144.314 63.6836C144.314 64.6275 145.08 65.3927 146.024 65.3927Z" fill="#333333"/>
    <path d="M168.24 43.1745C168.24 44.1185 167.475 44.8836 166.531 44.8836C165.587 44.8836 164.822 44.1185 164.822 43.1745C164.822 42.2306 165.587 41.4655 166.531 41.4655C167.475 41.4655 168.24 42.2306 168.24 43.1745Z" fill="#333333"/>
    <path d="M187.041 44.8836C187.985 44.8836 188.75 44.1185 188.75 43.1745C188.75 42.2306 187.985 41.4655 187.041 41.4655C186.097 41.4655 185.332 42.2306 185.332 43.1745C185.332 44.1185 186.097 44.8836 187.041 44.8836Z" fill="#333333"/>
    <path d="M168.24 63.6836C168.24 64.6275 167.475 65.3927 166.531 65.3927C165.587 65.3927 164.822 64.6275 164.822 63.6836C164.822 62.7397 165.587 61.9745 166.531 61.9745C167.475 61.9745 168.24 62.7397 168.24 63.6836Z" fill="#333333"/>
    <path d="M187.041 65.3927C187.985 65.3927 188.75 64.6275 188.75 63.6836C188.75 62.7397 187.985 61.9745 187.041 61.9745C186.097 61.9745 185.332 62.7397 185.332 63.6836C185.332 64.6275 186.097 65.3927 187.041 65.3927Z" fill="#333333"/>
    <path d="M45.1858 43.1745C45.1858 44.1185 44.4206 44.8836 43.4767 44.8836C42.5328 44.8836 41.7676 44.1185 41.7676 43.1745C41.7676 42.2306 42.5328 41.4655 43.4767 41.4655C44.4206 41.4655 45.1858 42.2306 45.1858 43.1745Z" fill="#333333"/>
    <path d="M63.9864 44.8836C64.9303 44.8836 65.6955 44.1185 65.6955 43.1745C65.6955 42.2306 64.9303 41.4655 63.9864 41.4655C63.0425 41.4655 62.2773 42.2306 62.2773 43.1745C62.2773 44.1185 63.0425 44.8836 63.9864 44.8836Z" fill="#333333"/>
    <path d="M45.1858 63.6836C45.1858 64.6275 44.4206 65.3927 43.4767 65.3927C42.5328 65.3927 41.7676 64.6275 41.7676 63.6836C41.7676 62.7397 42.5328 61.9745 43.4767 61.9745C44.4206 61.9745 45.1858 62.7397 45.1858 63.6836Z" fill="#333333"/>
    <path d="M63.9864 65.3927C64.9303 65.3927 65.6955 64.6275 65.6955 63.6836C65.6955 62.7397 64.9303 61.9745 63.9864 61.9745C63.0425 61.9745 62.2773 62.7397 62.2773 63.6836C62.2773 64.6275 63.0425 65.3927 63.9864 65.3927Z" fill="#333333"/>
    <path d="M4.16818 43.1745C4.16818 44.1185 3.403 44.8836 2.45909 44.8836C1.51519 44.8836 0.75 44.1185 0.75 43.1745C0.75 42.2306 1.51519 41.4655 2.45909 41.4655C3.403 41.4655 4.16818 42.2306 4.16818 43.1745Z" fill="#333333"/>
    <path d="M22.9689 44.8836C23.9128 44.8836 24.6779 44.1185 24.6779 43.1745C24.6779 42.2306 23.9128 41.4655 22.9689 41.4655C22.025 41.4655 21.2598 42.2306 21.2598 43.1745C21.2598 44.1185 22.025 44.8836 22.9689 44.8836Z" fill="#333333"/>
    <path d="M4.16818 63.6836C4.16818 64.6275 3.403 65.3927 2.45909 65.3927C1.51519 65.3927 0.75 64.6275 0.75 63.6836C0.75 62.7397 1.51519 61.9745 2.45909 61.9745C3.403 61.9745 4.16818 62.7397 4.16818 63.6836Z" fill="#333333"/>
    <path d="M22.9689 65.3927C23.9128 65.3927 24.6779 64.6275 24.6779 63.6836C24.6779 62.7397 23.9128 61.9745 22.9689 61.9745C22.025 61.9745 21.2598 62.7397 21.2598 63.6836C21.2598 64.6275 22.025 65.3927 22.9689 65.3927Z" fill="#333333"/>
    <path d="M86.2053 43.1745C86.2053 44.1185 85.4401 44.8836 84.4962 44.8836C83.5523 44.8836 82.7871 44.1185 82.7871 43.1745C82.7871 42.2306 83.5523 41.4655 84.4962 41.4655C85.4401 41.4655 86.2053 42.2306 86.2053 43.1745Z" fill="#333333"/>
    <path d="M105.004 44.8836C105.948 44.8836 106.713 44.1185 106.713 43.1745C106.713 42.2306 105.948 41.4655 105.004 41.4655C104.06 41.4655 103.295 42.2306 103.295 43.1745C103.295 44.1185 104.06 44.8836 105.004 44.8836Z" fill="#333333"/>
    <path d="M86.2053 63.6836C86.2053 64.6275 85.4401 65.3927 84.4962 65.3927C83.5523 65.3927 82.7871 64.6275 82.7871 63.6836C82.7871 62.7397 83.5523 61.9745 84.4962 61.9745C85.4401 61.9745 86.2053 62.7397 86.2053 63.6836Z" fill="#333333"/>
    <path d="M105.004 65.3927C105.948 65.3927 106.713 64.6275 106.713 63.6836C106.713 62.7397 105.948 61.9745 105.004 61.9745C104.06 61.9745 103.295 62.7397 103.295 63.6836C103.295 64.6275 104.06 65.3927 105.004 65.3927Z" fill="#333333"/>
    <path d="M127.223 84.1927C127.223 85.1366 126.458 85.9018 125.514 85.9018C124.57 85.9018 123.805 85.1366 123.805 84.1927C123.805 83.2488 124.57 82.4836 125.514 82.4836C126.458 82.4836 127.223 83.2488 127.223 84.1927Z" fill="#333333"/>
    <path d="M146.024 85.9018C146.967 85.9018 147.733 85.1366 147.733 84.1927C147.733 83.2488 146.967 82.4836 146.024 82.4836C145.08 82.4836 144.314 83.2488 144.314 84.1927C144.314 85.1366 145.08 85.9018 146.024 85.9018Z" fill="#333333"/>
    <path d="M127.223 104.702C127.223 105.646 126.458 106.411 125.514 106.411C124.57 106.411 123.805 105.646 123.805 104.702C123.805 103.758 124.57 102.993 125.514 102.993C126.458 102.993 127.223 103.758 127.223 104.702Z" fill="#333333"/>
    <path d="M146.024 106.411C146.967 106.411 147.733 105.646 147.733 104.702C147.733 103.758 146.967 102.993 146.024 102.993C145.08 102.993 144.314 103.758 144.314 104.702C144.314 105.646 145.08 106.411 146.024 106.411Z" fill="#333333"/>
    <path d="M168.24 84.1927C168.24 85.1366 167.475 85.9018 166.531 85.9018C165.587 85.9018 164.822 85.1366 164.822 84.1927C164.822 83.2488 165.587 82.4836 166.531 82.4836C167.475 82.4836 168.24 83.2488 168.24 84.1927Z" fill="#333333"/>
    <path d="M187.041 85.9018C187.985 85.9018 188.75 85.1366 188.75 84.1927C188.75 83.2488 187.985 82.4836 187.041 82.4836C186.097 82.4836 185.332 83.2488 185.332 84.1927C185.332 85.1366 186.097 85.9018 187.041 85.9018Z" fill="#333333"/>
    <path d="M168.24 104.702C168.24 105.646 167.475 106.411 166.531 106.411C165.587 106.411 164.822 105.646 164.822 104.702C164.822 103.758 165.587 102.993 166.531 102.993C167.475 102.993 168.24 103.758 168.24 104.702Z" fill="#333333"/>
    <path d="M187.041 106.411C187.985 106.411 188.75 105.646 188.75 104.702C188.75 103.758 187.985 102.993 187.041 102.993C186.097 102.993 185.332 103.758 185.332 104.702C185.332 105.646 186.097 106.411 187.041 106.411Z" fill="#333333"/>
    <path d="M45.1858 84.1927C45.1858 85.1366 44.4206 85.9018 43.4767 85.9018C42.5328 85.9018 41.7676 85.1366 41.7676 84.1927C41.7676 83.2488 42.5328 82.4836 43.4767 82.4836C44.4206 82.4836 45.1858 83.2488 45.1858 84.1927Z" fill="#333333"/>
    <path d="M63.9864 85.9018C64.9303 85.9018 65.6955 85.1366 65.6955 84.1927C65.6955 83.2488 64.9303 82.4836 63.9864 82.4836C63.0425 82.4836 62.2773 83.2488 62.2773 84.1927C62.2773 85.1366 63.0425 85.9018 63.9864 85.9018Z" fill="#333333"/>
    <path d="M45.1858 104.702C45.1858 105.646 44.4206 106.411 43.4767 106.411C42.5328 106.411 41.7676 105.646 41.7676 104.702C41.7676 103.758 42.5328 102.993 43.4767 102.993C44.4206 102.993 45.1858 103.758 45.1858 104.702Z" fill="#333333"/>
    <path d="M63.9864 106.411C64.9303 106.411 65.6955 105.646 65.6955 104.702C65.6955 103.758 64.9303 102.993 63.9864 102.993C63.0425 102.993 62.2773 103.758 62.2773 104.702C62.2773 105.646 63.0425 106.411 63.9864 106.411Z" fill="#333333"/>
    <path d="M4.16818 84.1927C4.16818 85.1366 3.403 85.9018 2.45909 85.9018C1.51519 85.9018 0.75 85.1366 0.75 84.1927C0.75 83.2488 1.51519 82.4836 2.45909 82.4836C3.403 82.4836 4.16818 83.2488 4.16818 84.1927Z" fill="#333333"/>
    <path d="M22.9689 85.9018C23.9128 85.9018 24.6779 85.1366 24.6779 84.1927C24.6779 83.2488 23.9128 82.4836 22.9689 82.4836C22.025 82.4836 21.2598 83.2488 21.2598 84.1927C21.2598 85.1366 22.025 85.9018 22.9689 85.9018Z" fill="#333333"/>
    <path d="M4.16818 104.702C4.16818 105.646 3.403 106.411 2.45909 106.411C1.51519 106.411 0.75 105.646 0.75 104.702C0.75 103.758 1.51519 102.993 2.45909 102.993C3.403 102.993 4.16818 103.758 4.16818 104.702Z" fill="#333333"/>
    <path d="M22.9689 106.411C23.9128 106.411 24.6779 105.646 24.6779 104.702C24.6779 103.758 23.9128 102.993 22.9689 102.993C22.025 102.993 21.2598 103.758 21.2598 104.702C21.2598 105.646 22.025 106.411 22.9689 106.411Z" fill="#333333"/>
    <path d="M86.2053 84.1927C86.2053 85.1366 85.4401 85.9018 84.4962 85.9018C83.5523 85.9018 82.7871 85.1366 82.7871 84.1927C82.7871 83.2488 83.5523 82.4836 84.4962 82.4836C85.4401 82.4836 86.2053 83.2488 86.2053 84.1927Z" fill="#333333"/>
    <path d="M105.004 85.9018C105.948 85.9018 106.713 85.1366 106.713 84.1927C106.713 83.2488 105.948 82.4836 105.004 82.4836C104.06 82.4836 103.295 83.2488 103.295 84.1927C103.295 85.1366 104.06 85.9018 105.004 85.9018Z" fill="#333333"/>
    <path d="M86.2053 104.702C86.2053 105.646 85.4401 106.411 84.4962 106.411C83.5523 106.411 82.7871 105.646 82.7871 104.702C82.7871 103.758 83.5523 102.993 84.4962 102.993C85.4401 102.993 86.2053 103.758 86.2053 104.702Z" fill="#333333"/>
    <path d="M105.004 106.411C105.948 106.411 106.713 105.646 106.713 104.702C106.713 103.758 105.948 102.993 105.004 102.993C104.06 102.993 103.295 103.758 103.295 104.702C103.295 105.646 104.06 106.411 105.004 106.411Z" fill="#333333"/>
    <path d="M127.223 125.211C127.223 126.155 126.458 126.92 125.514 126.92C124.57 126.92 123.805 126.155 123.805 125.211C123.805 124.267 124.57 123.502 125.514 123.502C126.458 123.502 127.223 124.267 127.223 125.211Z" fill="#333333"/>
    <path d="M146.024 126.92C146.967 126.92 147.733 126.155 147.733 125.211C147.733 124.267 146.967 123.502 146.024 123.502C145.08 123.502 144.314 124.267 144.314 125.211C144.314 126.155 145.08 126.92 146.024 126.92Z" fill="#333333"/>
    <path d="M127.223 145.72C127.223 146.664 126.458 147.429 125.514 147.429C124.57 147.429 123.805 146.664 123.805 145.72C123.805 144.776 124.57 144.011 125.514 144.011C126.458 144.011 127.223 144.776 127.223 145.72Z" fill="#333333"/>
    <path d="M146.024 147.429C146.967 147.429 147.733 146.664 147.733 145.72C147.733 144.776 146.967 144.011 146.024 144.011C145.08 144.011 144.314 144.776 144.314 145.72C144.314 146.664 145.08 147.429 146.024 147.429Z" fill="#333333"/>
    <path d="M168.24 125.211C168.24 126.155 167.475 126.92 166.531 126.92C165.587 126.92 164.822 126.155 164.822 125.211C164.822 124.267 165.587 123.502 166.531 123.502C167.475 123.502 168.24 124.267 168.24 125.211Z" fill="#333333"/>
    <path d="M187.041 126.92C187.985 126.92 188.75 126.155 188.75 125.211C188.75 124.267 187.985 123.502 187.041 123.502C186.097 123.502 185.332 124.267 185.332 125.211C185.332 126.155 186.097 126.92 187.041 126.92Z" fill="#333333"/>
    <path d="M168.24 145.72C168.24 146.664 167.475 147.429 166.531 147.429C165.587 147.429 164.822 146.664 164.822 145.72C164.822 144.776 165.587 144.011 166.531 144.011C167.475 144.011 168.24 144.776 168.24 145.72Z" fill="#333333"/>
    <path d="M187.041 147.429C187.985 147.429 188.75 146.664 188.75 145.72C188.75 144.776 187.985 144.011 187.041 144.011C186.097 144.011 185.332 144.776 185.332 145.72C185.332 146.664 186.097 147.429 187.041 147.429Z" fill="#333333"/>
    <path d="M45.1858 125.211C45.1858 126.155 44.4206 126.92 43.4767 126.92C42.5328 126.92 41.7676 126.155 41.7676 125.211C41.7676 124.267 42.5328 123.502 43.4767 123.502C44.4206 123.502 45.1858 124.267 45.1858 125.211Z" fill="#333333"/>
    <path d="M63.9864 126.92C64.9303 126.92 65.6955 126.155 65.6955 125.211C65.6955 124.267 64.9303 123.502 63.9864 123.502C63.0425 123.502 62.2773 124.267 62.2773 125.211C62.2773 126.155 63.0425 126.92 63.9864 126.92Z" fill="#333333"/>
    <path d="M45.1858 145.72C45.1858 146.664 44.4206 147.429 43.4767 147.429C42.5328 147.429 41.7676 146.664 41.7676 145.72C41.7676 144.776 42.5328 144.011 43.4767 144.011C44.4206 144.011 45.1858 144.776 45.1858 145.72Z" fill="#333333"/>
    <path d="M63.9864 147.429C64.9303 147.429 65.6955 146.664 65.6955 145.72C65.6955 144.776 64.9303 144.011 63.9864 144.011C63.0425 144.011 62.2773 144.776 62.2773 145.72C62.2773 146.664 63.0425 147.429 63.9864 147.429Z" fill="#333333"/>
    <path d="M4.16818 125.211C4.16818 126.155 3.403 126.92 2.45909 126.92C1.51519 126.92 0.75 126.155 0.75 125.211C0.75 124.267 1.51519 123.502 2.45909 123.502C3.403 123.502 4.16818 124.267 4.16818 125.211Z" fill="#333333"/>
    <path d="M22.9689 126.92C23.9128 126.92 24.6779 126.155 24.6779 125.211C24.6779 124.267 23.9128 123.502 22.9689 123.502C22.025 123.502 21.2598 124.267 21.2598 125.211C21.2598 126.155 22.025 126.92 22.9689 126.92Z" fill="#333333"/>
    <path d="M4.16818 145.72C4.16818 146.664 3.403 147.429 2.45909 147.429C1.51519 147.429 0.75 146.664 0.75 145.72C0.75 144.776 1.51519 144.011 2.45909 144.011C3.403 144.011 4.16818 144.776 4.16818 145.72Z" fill="#333333"/>
    <path d="M22.9689 147.429C23.9128 147.429 24.6779 146.664 24.6779 145.72C24.6779 144.776 23.9128 144.011 22.9689 144.011C22.025 144.011 21.2598 144.776 21.2598 145.72C21.2598 146.664 22.025 147.429 22.9689 147.429Z" fill="#333333"/>
    <path d="M86.2053 125.211C86.2053 126.155 85.4401 126.92 84.4962 126.92C83.5523 126.92 82.7871 126.155 82.7871 125.211C82.7871 124.267 83.5523 123.502 84.4962 123.502C85.4401 123.502 86.2053 124.267 86.2053 125.211Z" fill="#333333"/>
    <path d="M105.004 126.92C105.948 126.92 106.713 126.155 106.713 125.211C106.713 124.267 105.948 123.502 105.004 123.502C104.06 123.502 103.295 124.267 103.295 125.211C103.295 126.155 104.06 126.92 105.004 126.92Z" fill="#333333"/>
    <path d="M86.2053 145.72C86.2053 146.664 85.4401 147.429 84.4962 147.429C83.5523 147.429 82.7871 146.664 82.7871 145.72C82.7871 144.776 83.5523 144.011 84.4962 144.011C85.4401 144.011 86.2053 144.776 86.2053 145.72Z" fill="#333333"/>
    <path d="M105.004 147.429C105.948 147.429 106.713 146.664 106.713 145.72C106.713 144.776 105.948 144.011 105.004 144.011C104.06 144.011 103.295 144.776 103.295 145.72C103.295 146.664 104.06 147.429 105.004 147.429Z" fill="#333333"/>
    <path d="M127.223 166.229C127.223 167.173 126.458 167.938 125.514 167.938C124.57 167.938 123.805 167.173 123.805 166.229C123.805 165.285 124.57 164.52 125.514 164.52C126.458 164.52 127.223 165.285 127.223 166.229Z" fill="#333333"/>
    <path d="M146.024 167.938C146.967 167.938 147.733 167.173 147.733 166.229C147.733 165.285 146.967 164.52 146.024 164.52C145.08 164.52 144.314 165.285 144.314 166.229C144.314 167.173 145.08 167.938 146.024 167.938Z" fill="#333333"/>
    <path d="M127.223 186.738C127.223 187.682 126.458 188.447 125.514 188.447C124.57 188.447 123.805 187.682 123.805 186.738C123.805 185.794 124.57 185.029 125.514 185.029C126.458 185.029 127.223 185.794 127.223 186.738Z" fill="#333333"/>
    <path d="M146.024 188.447C146.967 188.447 147.733 187.682 147.733 186.738C147.733 185.794 146.967 185.029 146.024 185.029C145.08 185.029 144.314 185.794 144.314 186.738C144.314 187.682 145.08 188.447 146.024 188.447Z" fill="#333333"/>
    <path d="M168.24 166.229C168.24 167.173 167.475 167.938 166.531 167.938C165.587 167.938 164.822 167.173 164.822 166.229C164.822 165.285 165.587 164.52 166.531 164.52C167.475 164.52 168.24 165.285 168.24 166.229Z" fill="#333333"/>
    <path d="M187.041 167.938C187.985 167.938 188.75 167.173 188.75 166.229C188.75 165.285 187.985 164.52 187.041 164.52C186.097 164.52 185.332 165.285 185.332 166.229C185.332 167.173 186.097 167.938 187.041 167.938Z" fill="#333333"/>
    <path d="M168.24 186.738C168.24 187.682 167.475 188.447 166.531 188.447C165.587 188.447 164.822 187.682 164.822 186.738C164.822 185.794 165.587 185.029 166.531 185.029C167.475 185.029 168.24 185.794 168.24 186.738Z" fill="#333333"/>
    <path d="M187.041 188.447C187.985 188.447 188.75 187.682 188.75 186.738C188.75 185.794 187.985 185.029 187.041 185.029C186.097 185.029 185.332 185.794 185.332 186.738C185.332 187.682 186.097 188.447 187.041 188.447Z" fill="#333333"/>
    <path d="M45.1858 166.229C45.1858 167.173 44.4206 167.938 43.4767 167.938C42.5328 167.938 41.7676 167.173 41.7676 166.229C41.7676 165.285 42.5328 164.52 43.4767 164.52C44.4206 164.52 45.1858 165.285 45.1858 166.229Z" fill="#333333"/>
    <path d="M63.9864 167.938C64.9303 167.938 65.6955 167.173 65.6955 166.229C65.6955 165.285 64.9303 164.52 63.9864 164.52C63.0425 164.52 62.2773 165.285 62.2773 166.229C62.2773 167.173 63.0425 167.938 63.9864 167.938Z" fill="#333333"/>
    <path d="M45.1858 186.738C45.1858 187.682 44.4206 188.447 43.4767 188.447C42.5328 188.447 41.7676 187.682 41.7676 186.738C41.7676 185.794 42.5328 185.029 43.4767 185.029C44.4206 185.029 45.1858 185.794 45.1858 186.738Z" fill="#333333"/>
    <path d="M63.9864 188.447C64.9303 188.447 65.6955 187.682 65.6955 186.738C65.6955 185.794 64.9303 185.029 63.9864 185.029C63.0425 185.029 62.2773 185.794 62.2773 186.738C62.2773 187.682 63.0425 188.447 63.9864 188.447Z" fill="#333333"/>
    <path d="M4.16818 166.229C4.16818 167.173 3.403 167.938 2.45909 167.938C1.51519 167.938 0.75 167.173 0.75 166.229C0.75 165.285 1.51519 164.52 2.45909 164.52C3.403 164.52 4.16818 165.285 4.16818 166.229Z" fill="#333333"/>
    <path d="M22.9689 167.938C23.9128 167.938 24.6779 167.173 24.6779 166.229C24.6779 165.285 23.9128 164.52 22.9689 164.52C22.025 164.52 21.2598 165.285 21.2598 166.229C21.2598 167.173 22.025 167.938 22.9689 167.938Z" fill="#333333"/>
    <path d="M4.16818 186.738C4.16818 187.682 3.403 188.447 2.45909 188.447C1.51519 188.447 0.75 187.682 0.75 186.738C0.75 185.794 1.51519 185.029 2.45909 185.029C3.403 185.029 4.16818 185.794 4.16818 186.738Z" fill="#333333"/>
    <path d="M22.9689 188.447C23.9128 188.447 24.6779 187.682 24.6779 186.738C24.6779 185.794 23.9128 185.029 22.9689 185.029C22.025 185.029 21.2598 185.794 21.2598 186.738C21.2598 187.682 22.025 188.447 22.9689 188.447Z" fill="#333333"/>
    <path d="M86.2053 166.229C86.2053 167.173 85.4401 167.938 84.4962 167.938C83.5523 167.938 82.7871 167.173 82.7871 166.229C82.7871 165.285 83.5523 164.52 84.4962 164.52C85.4401 164.52 86.2053 165.285 86.2053 166.229Z" fill="#333333"/>
    <path d="M105.004 167.938C105.948 167.938 106.713 167.173 106.713 166.229C106.713 165.285 105.948 164.52 105.004 164.52C104.06 164.52 103.295 165.285 103.295 166.229C103.295 167.173 104.06 167.938 105.004 167.938Z" fill="#333333"/>
    <path d="M86.2053 186.738C86.2053 187.682 85.4401 188.447 84.4962 188.447C83.5523 188.447 82.7871 187.682 82.7871 186.738C82.7871 185.794 83.5523 185.029 84.4962 185.029C85.4401 185.029 86.2053 185.794 86.2053 186.738Z" fill="#333333"/>
    <path d="M105.004 188.447C105.948 188.447 106.713 187.682 106.713 186.738C106.713 185.794 105.948 185.029 105.004 185.029C104.06 185.029 103.295 185.794 103.295 186.738C103.295 187.682 104.06 188.447 105.004 188.447Z" fill="#333333"/>
  </g>
</svg>
