<svg width="48" height="57" viewBox="0 0 48 57" fill="none"
  xmlns="http://www.w3.org/2000/svg">
  <path fill-rule="evenodd" clip-rule="evenodd" d="M23.7358 45.708C35.7758 45.708 45.5361 35.9477 45.5361 23.9077C45.5361 11.8677 35.7758 2.10742 23.7358 2.10742C11.6959 2.10742 1.93555 11.8677 1.93555 23.9077C1.93555 35.9477 11.6959 45.708 23.7358 45.708Z"/>
  <path fill-rule="evenodd" clip-rule="evenodd" d="M47.4704 23.7352C47.4704 36.8438 36.8438 47.4704 23.7352 47.4704C10.6266 47.4704 0 36.8438 0 23.7352C0 10.6266 10.6266 0 23.7352 0C36.8438 0 47.4704 10.6266 47.4704 23.7352ZM45.1358 23.7352C45.1358 35.5544 35.5544 45.1358 23.7352 45.1358C11.916 45.1358 2.33461 35.5544 2.33461 23.7352C2.33461 11.916 11.916 2.33461 23.7352 2.33461C35.5544 2.33461 45.1358 11.916 45.1358 23.7352Z" fill="#C7C9CF"/>
  <path d="M23.7352 47.4704C10.6266 47.4704 0 36.8438 0 23.7352C0 10.6266 10.6266 0 23.7352 0V2.33461C11.916 2.33461 2.33461 11.916 2.33461 23.7352C2.33461 35.5544 11.916 45.1358 23.7352 45.1358V47.4704Z" fill="#009BFF"/>
  <ellipse cx="23.8664" cy="47.0876" rx="9.03045" ry="9.03045" fill="white"/>
  <circle cx="23.8664" cy="47.0876" r="7.74038" fill="#009BFF"/>
  <path d="M23.5782 49.9512L27.8469 44.9951C28.075 44.73 28.0307 44.3417 27.7477 44.1279C27.4649 43.9141 27.0506 43.9557 26.8224 44.2207L23.0107 48.6399L20.8573 46.6472C20.5987 46.4077 20.182 46.41 19.9264 46.6523C19.6709 46.8947 19.6733 47.2853 19.9319 47.5248L22.5977 50.0028C22.7215 50.1194 22.8903 50.1846 23.066 50.1835H23.0989C23.2869 50.1742 23.4616 50.0895 23.5782 49.9512Z" fill="white"/>
</svg>
