<svg width="48" height="57" viewBox="0 0 48 57" fill="none"
  xmlns="http://www.w3.org/2000/svg">
  <path d="M23.7352 47.4704C10.6266 47.4704 0 36.8438 0 23.7352C0 10.6266 10.6266 0 23.7352 0V2.33461C11.916 2.33461 2.33461 11.916 2.33461 23.7352C2.33461 35.5544 11.916 45.1358 23.7352 45.1358V47.4704Z" fill="#FF3958"/>
  <path d="M24 47.4704C37.1086 47.4704 47.7352 36.8438 47.7352 23.7352C47.7352 10.6266 36.6086 0 23.5 0L23.268 2.33461H24C35.8192 2.33461 45.4006 11.916 45.4006 23.7352C45.4006 35.5544 35.8192 45.1358 24 45.1358V47.4704Z" fill="#FF3958"/>
  <ellipse cx="23.8663" cy="47.0876" rx="9.03045" ry="9.03045" fill="white"/>
  <circle cx="23.8662" cy="47.0876" r="7.74038" fill="#FF3958"/>
  <path d="M23.578 49.9512L27.8468 44.9951C28.0749 44.73 28.0305 44.3417 27.7476 44.1279C27.4648 43.9141 27.0504 43.9557 26.8223 44.2207L23.0106 48.6399L20.8572 46.6472C20.5986 46.4077 20.1819 46.41 19.9263 46.6523C19.6707 46.8947 19.6732 47.2853 19.9317 47.5248L22.5975 50.0028C22.7214 50.1194 22.8902 50.1846 23.0659 50.1835H23.0988C23.2868 50.1742 23.4614 50.0895 23.578 49.9512Z" fill="white"/>
</svg>
