<svg width="250" height="250" viewBox="0 0 250 250" fill="none"
  xmlns="http://www.w3.org/2000/svg">
  <path d="M4.94043 125.106C4.94043 58.4522 58.9866 4.41895 125.656 4.41895C192.325 4.41895 246.371 58.4522 246.371 125.106C246.371 169.607 222.28 208.483 186.424 229.408C183.916 230.872 178.731 233.532 178.731 233.532" stroke="#FF798E" stroke-width="6.55059"/>
  <path d="M4 125.736C4 58.5029 58.5029 4 125.736 4C165.835 4 201.405 23.3877 223.585 53.3005" stroke="#FF798E" stroke-width="6.55059"/>
  <path d="M223.721 53.1094C232.054 65.0349 237.954 77.9336 241.525 91.2161C242.966 96.5755 244.028 101.997 244.717 107.443" stroke="#FF798E" stroke-width="6.55059"/>
  <path d="M35.0414 43.6694C15.814 65.0522 4.07529 93.5816 4.07529 124.914C4.07529 173.902 32.7721 216.039 73.9206 234.721" stroke="#FF798E" stroke-width="6.55059"/>
</svg>
